G04 #@! TF.GenerationSoftware,KiCad,Pcbnew,(5.1.8)-1*
G04 #@! TF.CreationDate,2021-12-06T13:40:29-07:00*
G04 #@! TF.ProjectId,512k,3531326b-2e6b-4696-9361-645f70636258,rev?*
G04 #@! TF.SameCoordinates,Original*
G04 #@! TF.FileFunction,Copper,L1,Top*
G04 #@! TF.FilePolarity,Positive*
%FSLAX46Y46*%
G04 Gerber Fmt 4.6, Leading zero omitted, Abs format (unit mm)*
G04 Created by KiCad (PCBNEW (5.1.8)-1) date 2021-12-06 13:40:29*
%MOMM*%
%LPD*%
G01*
G04 APERTURE LIST*
G04 #@! TA.AperFunction,ComponentPad*
%ADD10O,1.600000X1.600000*%
G04 #@! TD*
G04 #@! TA.AperFunction,ComponentPad*
%ADD11R,1.600000X1.600000*%
G04 #@! TD*
G04 #@! TA.AperFunction,ComponentPad*
%ADD12C,1.600000*%
G04 #@! TD*
G04 #@! TA.AperFunction,ConnectorPad*
%ADD13R,1.780000X7.620000*%
G04 #@! TD*
G04 #@! TA.AperFunction,ComponentPad*
%ADD14O,2.000000X1.440000*%
G04 #@! TD*
G04 #@! TA.AperFunction,ComponentPad*
%ADD15R,2.000000X1.440000*%
G04 #@! TD*
G04 #@! TA.AperFunction,ComponentPad*
%ADD16C,3.556000*%
G04 #@! TD*
G04 #@! TA.AperFunction,ViaPad*
%ADD17C,0.800000*%
G04 #@! TD*
G04 #@! TA.AperFunction,Conductor*
%ADD18C,0.330200*%
G04 #@! TD*
G04 #@! TA.AperFunction,Conductor*
%ADD19C,0.250000*%
G04 #@! TD*
G04 APERTURE END LIST*
D10*
G04 #@! TO.P,U12,16*
G04 #@! TO.N,/5+*
X42156380Y-70078600D03*
G04 #@! TO.P,U12,8*
G04 #@! TO.N,/GND*
X24376380Y-62458600D03*
G04 #@! TO.P,U12,15*
G04 #@! TO.N,/NOT_LOW*
X39616380Y-70078600D03*
G04 #@! TO.P,U12,7*
G04 #@! TO.N,Net-(U12-Pad7)*
X26916380Y-62458600D03*
G04 #@! TO.P,U12,14*
G04 #@! TO.N,/LA17*
X37076380Y-70078600D03*
G04 #@! TO.P,U12,6*
G04 #@! TO.N,Net-(U12-Pad6)*
X29456380Y-62458600D03*
G04 #@! TO.P,U12,13*
G04 #@! TO.N,/LA18*
X34536380Y-70078600D03*
G04 #@! TO.P,U12,5*
G04 #@! TO.N,/NOT_LOW*
X31996380Y-62458600D03*
G04 #@! TO.P,U12,12*
G04 #@! TO.N,Net-(U12-Pad12)*
X31996380Y-70078600D03*
G04 #@! TO.P,U12,4*
G04 #@! TO.N,/LOW_MEM*
X34536380Y-62458600D03*
G04 #@! TO.P,U12,11*
G04 #@! TO.N,Net-(U12-Pad11)*
X29456380Y-70078600D03*
G04 #@! TO.P,U12,3*
G04 #@! TO.N,/GND*
X37076380Y-62458600D03*
G04 #@! TO.P,U12,10*
G04 #@! TO.N,Net-(U12-Pad10)*
X26916380Y-70078600D03*
G04 #@! TO.P,U12,2*
G04 #@! TO.N,/LA19*
X39616380Y-62458600D03*
G04 #@! TO.P,U12,9*
G04 #@! TO.N,/HIGH_MEM*
X24376380Y-70078600D03*
D11*
G04 #@! TO.P,U12,1*
G04 #@! TO.N,/GND*
X42156380Y-62458600D03*
G04 #@! TD*
D10*
G04 #@! TO.P,U11,14*
G04 #@! TO.N,/5+*
X16756380Y-70078600D03*
G04 #@! TO.P,U11,7*
G04 #@! TO.N,/GND*
X1516380Y-62458600D03*
G04 #@! TO.P,U11,13*
G04 #@! TO.N,N/C*
X14216380Y-70078600D03*
G04 #@! TO.P,U11,6*
G04 #@! TO.N,/MEMCS16*
X4056380Y-62458600D03*
G04 #@! TO.P,U11,12*
G04 #@! TO.N,N/C*
X11676380Y-70078600D03*
G04 #@! TO.P,U11,5*
G04 #@! TO.N,/GND*
X6596380Y-62458600D03*
G04 #@! TO.P,U11,11*
G04 #@! TO.N,N/C*
X9136380Y-70078600D03*
G04 #@! TO.P,U11,4*
G04 #@! TO.N,/HIGH_MEM*
X9136380Y-62458600D03*
G04 #@! TO.P,U11,10*
G04 #@! TO.N,N/C*
X6596380Y-70078600D03*
G04 #@! TO.P,U11,3*
G04 #@! TO.N,/MEMCS16*
X11676380Y-62458600D03*
G04 #@! TO.P,U11,9*
G04 #@! TO.N,N/C*
X4056380Y-70078600D03*
G04 #@! TO.P,U11,2*
G04 #@! TO.N,/GND*
X14216380Y-62458600D03*
G04 #@! TO.P,U11,8*
G04 #@! TO.N,N/C*
X1516380Y-70078600D03*
D11*
G04 #@! TO.P,U11,1*
G04 #@! TO.N,/LOW_MEM*
X16756380Y-62458600D03*
G04 #@! TD*
D12*
G04 #@! TO.P,C12,2*
G04 #@! TO.N,/5+*
X45458380Y-70078600D03*
G04 #@! TO.P,C12,1*
G04 #@! TO.N,/GND*
X45458380Y-65078600D03*
G04 #@! TD*
G04 #@! TO.P,C11,2*
G04 #@! TO.N,/5+*
X20058380Y-70078600D03*
G04 #@! TO.P,C11,1*
G04 #@! TO.N,/GND*
X20058380Y-65078600D03*
G04 #@! TD*
D13*
G04 #@! TO.P,J1,36*
G04 #@! TO.N,/SBHE*
X75176380Y-129768600D03*
G04 #@! TO.P,J1,35*
G04 #@! TO.N,/LA23*
X72636380Y-129768600D03*
G04 #@! TO.P,J1,22*
G04 #@! TO.N,/D12*
X39616380Y-129768600D03*
G04 #@! TO.P,J1,28*
G04 #@! TO.N,/MEMR*
X54856380Y-129768600D03*
G04 #@! TO.P,J1,24*
G04 #@! TO.N,/D10*
X44696380Y-129768600D03*
G04 #@! TO.P,J1,21*
G04 #@! TO.N,/D13*
X37076380Y-129768600D03*
G04 #@! TO.P,J1,23*
G04 #@! TO.N,/D11*
X42156380Y-129768600D03*
G04 #@! TO.P,J1,20*
G04 #@! TO.N,/D14*
X34536380Y-129768600D03*
G04 #@! TO.P,J1,33*
G04 #@! TO.N,/LA21*
X67556380Y-129768600D03*
G04 #@! TO.P,J1,31*
G04 #@! TO.N,/LA19*
X62476380Y-129768600D03*
G04 #@! TO.P,J1,19*
G04 #@! TO.N,/D15*
X31996380Y-129768600D03*
G04 #@! TO.P,J1,29*
G04 #@! TO.N,/LA17*
X57396380Y-129768600D03*
G04 #@! TO.P,J1,27*
G04 #@! TO.N,/MEMW*
X52316380Y-129768600D03*
G04 #@! TO.P,J1,25*
G04 #@! TO.N,/D9*
X47236380Y-129768600D03*
G04 #@! TO.P,J1,34*
G04 #@! TO.N,/LA22*
X70096380Y-129768600D03*
G04 #@! TO.P,J1,32*
G04 #@! TO.N,/LA20*
X65016380Y-129768600D03*
G04 #@! TO.P,J1,30*
G04 #@! TO.N,/LA18*
X59936380Y-129768600D03*
G04 #@! TO.P,J1,26*
G04 #@! TO.N,/D8*
X49776380Y-129768600D03*
G04 #@! TD*
D10*
G04 #@! TO.P,U10,16*
G04 #@! TO.N,/5+*
X-6103620Y-99288600D03*
G04 #@! TO.P,U10,8*
G04 #@! TO.N,/GND*
X-13723620Y-117068600D03*
G04 #@! TO.P,U10,15*
G04 #@! TO.N,Net-(U10-Pad15)*
X-6103620Y-101828600D03*
G04 #@! TO.P,U10,7*
G04 #@! TO.N,/32K_ROM_CS_ODD*
X-13723620Y-114528600D03*
G04 #@! TO.P,U10,14*
G04 #@! TO.N,Net-(U10-Pad14)*
X-6103620Y-104368600D03*
G04 #@! TO.P,U10,6*
G04 #@! TO.N,/A18*
X-13723620Y-111988600D03*
G04 #@! TO.P,U10,13*
G04 #@! TO.N,Net-(U10-Pad13)*
X-6103620Y-106908600D03*
G04 #@! TO.P,U10,5*
G04 #@! TO.N,/GND*
X-13723620Y-109448600D03*
G04 #@! TO.P,U10,12*
G04 #@! TO.N,Net-(U10-Pad12)*
X-6103620Y-109448600D03*
G04 #@! TO.P,U10,4*
G04 #@! TO.N,/UPPER_512K_ODD*
X-13723620Y-106908600D03*
G04 #@! TO.P,U10,11*
G04 #@! TO.N,Net-(U10-Pad11)*
X-6103620Y-111988600D03*
G04 #@! TO.P,U10,3*
G04 #@! TO.N,/A17*
X-13723620Y-104368600D03*
G04 #@! TO.P,U10,10*
G04 #@! TO.N,Net-(U10-Pad10)*
X-6103620Y-114528600D03*
G04 #@! TO.P,U10,2*
G04 #@! TO.N,/A16*
X-13723620Y-101828600D03*
G04 #@! TO.P,U10,9*
G04 #@! TO.N,/32K_RAM_CS_ODD*
X-6103620Y-117068600D03*
D11*
G04 #@! TO.P,U10,1*
G04 #@! TO.N,/A15*
X-13723620Y-99288600D03*
G04 #@! TD*
D10*
G04 #@! TO.P,U9,32*
G04 #@! TO.N,/5+*
X19296380Y-78968600D03*
G04 #@! TO.P,U9,16*
G04 #@! TO.N,/GND*
X4056380Y-117068600D03*
G04 #@! TO.P,U9,31*
G04 #@! TO.N,/A15*
X19296380Y-81508600D03*
G04 #@! TO.P,U9,15*
G04 #@! TO.N,/D10*
X4056380Y-114528600D03*
G04 #@! TO.P,U9,30*
G04 #@! TO.N,/A17*
X19296380Y-84048600D03*
G04 #@! TO.P,U9,14*
G04 #@! TO.N,/D9*
X4056380Y-111988600D03*
G04 #@! TO.P,U9,29*
G04 #@! TO.N,/MWR*
X19296380Y-86588600D03*
G04 #@! TO.P,U9,13*
G04 #@! TO.N,/D8*
X4056380Y-109448600D03*
G04 #@! TO.P,U9,28*
G04 #@! TO.N,/A13*
X19296380Y-89128600D03*
G04 #@! TO.P,U9,12*
G04 #@! TO.N,/5+*
X4056380Y-106908600D03*
G04 #@! TO.P,U9,27*
G04 #@! TO.N,/A8*
X19296380Y-91668600D03*
G04 #@! TO.P,U9,11*
G04 #@! TO.N,/A1*
X4056380Y-104368600D03*
G04 #@! TO.P,U9,26*
G04 #@! TO.N,/A9*
X19296380Y-94208600D03*
G04 #@! TO.P,U9,10*
G04 #@! TO.N,/A2*
X4056380Y-101828600D03*
G04 #@! TO.P,U9,25*
G04 #@! TO.N,/A11*
X19296380Y-96748600D03*
G04 #@! TO.P,U9,9*
G04 #@! TO.N,/A3*
X4056380Y-99288600D03*
G04 #@! TO.P,U9,24*
G04 #@! TO.N,/MRD*
X19296380Y-99288600D03*
G04 #@! TO.P,U9,8*
G04 #@! TO.N,/A4*
X4056380Y-96748600D03*
G04 #@! TO.P,U9,23*
G04 #@! TO.N,/A10*
X19296380Y-101828600D03*
G04 #@! TO.P,U9,7*
G04 #@! TO.N,/A5*
X4056380Y-94208600D03*
G04 #@! TO.P,U9,22*
G04 #@! TO.N,/512K_CS_ODD*
X19296380Y-104368600D03*
G04 #@! TO.P,U9,6*
G04 #@! TO.N,/A6*
X4056380Y-91668600D03*
G04 #@! TO.P,U9,21*
G04 #@! TO.N,/D15*
X19296380Y-106908600D03*
G04 #@! TO.P,U9,5*
G04 #@! TO.N,/A7*
X4056380Y-89128600D03*
G04 #@! TO.P,U9,20*
G04 #@! TO.N,/D14*
X19296380Y-109448600D03*
G04 #@! TO.P,U9,4*
G04 #@! TO.N,/A12*
X4056380Y-86588600D03*
G04 #@! TO.P,U9,19*
G04 #@! TO.N,/D13*
X19296380Y-111988600D03*
G04 #@! TO.P,U9,3*
G04 #@! TO.N,/A14*
X4056380Y-84048600D03*
G04 #@! TO.P,U9,18*
G04 #@! TO.N,/D12*
X19296380Y-114528600D03*
G04 #@! TO.P,U9,2*
G04 #@! TO.N,/A16*
X4056380Y-81508600D03*
G04 #@! TO.P,U9,17*
G04 #@! TO.N,/D11*
X19296380Y-117068600D03*
D11*
G04 #@! TO.P,U9,1*
G04 #@! TO.N,/A18*
X4056380Y-78968600D03*
G04 #@! TD*
D10*
G04 #@! TO.P,U8,28*
G04 #@! TO.N,/5+*
X44696380Y-84048600D03*
G04 #@! TO.P,U8,14*
G04 #@! TO.N,/GND*
X29456380Y-117068600D03*
G04 #@! TO.P,U8,27*
G04 #@! TO.N,/MWR*
X44696380Y-86588600D03*
G04 #@! TO.P,U8,13*
G04 #@! TO.N,/D10*
X29456380Y-114528600D03*
G04 #@! TO.P,U8,26*
G04 #@! TO.N,/A13*
X44696380Y-89128600D03*
G04 #@! TO.P,U8,12*
G04 #@! TO.N,/D9*
X29456380Y-111988600D03*
G04 #@! TO.P,U8,25*
G04 #@! TO.N,/A8*
X44696380Y-91668600D03*
G04 #@! TO.P,U8,11*
G04 #@! TO.N,/D8*
X29456380Y-109448600D03*
G04 #@! TO.P,U8,24*
G04 #@! TO.N,/A9*
X44696380Y-94208600D03*
G04 #@! TO.P,U8,10*
G04 #@! TO.N,/5+*
X29456380Y-106908600D03*
G04 #@! TO.P,U8,23*
G04 #@! TO.N,/A11*
X44696380Y-96748600D03*
G04 #@! TO.P,U8,9*
G04 #@! TO.N,/A1*
X29456380Y-104368600D03*
G04 #@! TO.P,U8,22*
G04 #@! TO.N,/MRD*
X44696380Y-99288600D03*
G04 #@! TO.P,U8,8*
G04 #@! TO.N,/A2*
X29456380Y-101828600D03*
G04 #@! TO.P,U8,21*
G04 #@! TO.N,/A10*
X44696380Y-101828600D03*
G04 #@! TO.P,U8,7*
G04 #@! TO.N,/A3*
X29456380Y-99288600D03*
G04 #@! TO.P,U8,20*
G04 #@! TO.N,/32K_RAM_CS_ODD*
X44696380Y-104368600D03*
G04 #@! TO.P,U8,6*
G04 #@! TO.N,/A4*
X29456380Y-96748600D03*
G04 #@! TO.P,U8,19*
G04 #@! TO.N,/D15*
X44696380Y-106908600D03*
G04 #@! TO.P,U8,5*
G04 #@! TO.N,/A5*
X29456380Y-94208600D03*
G04 #@! TO.P,U8,18*
G04 #@! TO.N,/D14*
X44696380Y-109448600D03*
G04 #@! TO.P,U8,4*
G04 #@! TO.N,/A6*
X29456380Y-91668600D03*
G04 #@! TO.P,U8,17*
G04 #@! TO.N,/D13*
X44696380Y-111988600D03*
G04 #@! TO.P,U8,3*
G04 #@! TO.N,/A7*
X29456380Y-89128600D03*
G04 #@! TO.P,U8,16*
G04 #@! TO.N,/D12*
X44696380Y-114528600D03*
G04 #@! TO.P,U8,2*
G04 #@! TO.N,/A12*
X29456380Y-86588600D03*
G04 #@! TO.P,U8,15*
G04 #@! TO.N,/D11*
X44696380Y-117068600D03*
D11*
G04 #@! TO.P,U8,1*
G04 #@! TO.N,/A14*
X29456380Y-84048600D03*
G04 #@! TD*
D10*
G04 #@! TO.P,U7,16*
G04 #@! TO.N,/5+*
X-6103620Y-73888600D03*
G04 #@! TO.P,U7,8*
G04 #@! TO.N,/GND*
X-13723620Y-91668600D03*
G04 #@! TO.P,U7,15*
G04 #@! TO.N,N/C*
X-6103620Y-76428600D03*
G04 #@! TO.P,U7,7*
G04 #@! TO.N,Net-(U7-Pad7)*
X-13723620Y-89128600D03*
G04 #@! TO.P,U7,14*
G04 #@! TO.N,N/C*
X-6103620Y-78968600D03*
G04 #@! TO.P,U7,6*
G04 #@! TO.N,Net-(U7-Pad6)*
X-13723620Y-86588600D03*
G04 #@! TO.P,U7,13*
G04 #@! TO.N,N/C*
X-6103620Y-81508600D03*
G04 #@! TO.P,U7,5*
G04 #@! TO.N,/UPPER_512K_ODD*
X-13723620Y-84048600D03*
G04 #@! TO.P,U7,12*
G04 #@! TO.N,N/C*
X-6103620Y-84048600D03*
G04 #@! TO.P,U7,4*
G04 #@! TO.N,/512K_CS_ODD*
X-13723620Y-81508600D03*
G04 #@! TO.P,U7,11*
G04 #@! TO.N,N/C*
X-6103620Y-86588600D03*
G04 #@! TO.P,U7,3*
G04 #@! TO.N,/GND*
X-13723620Y-78968600D03*
G04 #@! TO.P,U7,10*
G04 #@! TO.N,N/C*
X-6103620Y-89128600D03*
G04 #@! TO.P,U7,2*
G04 #@! TO.N,/A19*
X-13723620Y-76428600D03*
G04 #@! TO.P,U7,9*
G04 #@! TO.N,N/C*
X-6103620Y-91668600D03*
D11*
G04 #@! TO.P,U7,1*
G04 #@! TO.N,/SBHE*
X-13723620Y-73888600D03*
G04 #@! TD*
D14*
G04 #@! TO.P,U6,15*
G04 #@! TO.N,/D11*
X75176380Y-111988600D03*
G04 #@! TO.P,U6,14*
G04 #@! TO.N,/GND*
X59936380Y-111988600D03*
G04 #@! TO.P,U6,16*
G04 #@! TO.N,/D12*
X75176380Y-109448600D03*
G04 #@! TO.P,U6,13*
G04 #@! TO.N,/D10*
X59936380Y-109448600D03*
G04 #@! TO.P,U6,17*
G04 #@! TO.N,/D13*
X75176380Y-106908600D03*
G04 #@! TO.P,U6,12*
G04 #@! TO.N,/D9*
X59936380Y-106908600D03*
G04 #@! TO.P,U6,18*
G04 #@! TO.N,/D14*
X75176380Y-104368600D03*
G04 #@! TO.P,U6,11*
G04 #@! TO.N,/D8*
X59936380Y-104368600D03*
G04 #@! TO.P,U6,19*
G04 #@! TO.N,/D15*
X75176380Y-101828600D03*
G04 #@! TO.P,U6,10*
G04 #@! TO.N,/5+*
X59936380Y-101828600D03*
G04 #@! TO.P,U6,20*
G04 #@! TO.N,/32K_ROM_CS_ODD*
X75176380Y-99288600D03*
G04 #@! TO.P,U6,9*
G04 #@! TO.N,/A1*
X59936380Y-99288600D03*
G04 #@! TO.P,U6,21*
G04 #@! TO.N,/A10*
X75176380Y-96748600D03*
G04 #@! TO.P,U6,8*
G04 #@! TO.N,/A2*
X59936380Y-96748600D03*
G04 #@! TO.P,U6,22*
G04 #@! TO.N,/MRD*
X75176380Y-94208600D03*
G04 #@! TO.P,U6,7*
G04 #@! TO.N,/A3*
X59936380Y-94208600D03*
G04 #@! TO.P,U6,23*
G04 #@! TO.N,/A11*
X75176380Y-91668600D03*
G04 #@! TO.P,U6,6*
G04 #@! TO.N,/A4*
X59936380Y-91668600D03*
G04 #@! TO.P,U6,24*
G04 #@! TO.N,/A9*
X75176380Y-89128600D03*
G04 #@! TO.P,U6,5*
G04 #@! TO.N,/A5*
X59936380Y-89128600D03*
G04 #@! TO.P,U6,25*
G04 #@! TO.N,/A8*
X75176380Y-86588600D03*
G04 #@! TO.P,U6,4*
G04 #@! TO.N,/A6*
X59936380Y-86588600D03*
G04 #@! TO.P,U6,26*
G04 #@! TO.N,/A13*
X75176380Y-84048600D03*
G04 #@! TO.P,U6,3*
G04 #@! TO.N,/A7*
X59936380Y-84048600D03*
G04 #@! TO.P,U6,27*
G04 #@! TO.N,/5+*
X75176380Y-81508600D03*
G04 #@! TO.P,U6,2*
G04 #@! TO.N,/A12*
X59936380Y-81508600D03*
G04 #@! TO.P,U6,28*
G04 #@! TO.N,/5+*
X75176380Y-78968600D03*
D15*
G04 #@! TO.P,U6,1*
G04 #@! TO.N,/A14*
X59936380Y-78968600D03*
G04 #@! TD*
D12*
G04 #@! TO.P,C10,2*
G04 #@! TO.N,/5+*
X44696380Y-80746600D03*
G04 #@! TO.P,C10,1*
G04 #@! TO.N,/GND*
X39696380Y-80746600D03*
G04 #@! TD*
G04 #@! TO.P,C9,2*
G04 #@! TO.N,/5+*
X19296380Y-75666600D03*
G04 #@! TO.P,C9,1*
G04 #@! TO.N,/GND*
X14296380Y-75666600D03*
G04 #@! TD*
G04 #@! TO.P,C8,2*
G04 #@! TO.N,/5+*
X80764380Y-78968600D03*
G04 #@! TO.P,C8,1*
G04 #@! TO.N,/GND*
X80764380Y-83968600D03*
G04 #@! TD*
G04 #@! TO.P,C7,2*
G04 #@! TO.N,/5+*
X-6103620Y-70586600D03*
G04 #@! TO.P,C7,1*
G04 #@! TO.N,/GND*
X-11103620Y-70586600D03*
G04 #@! TD*
G04 #@! TO.P,C6,2*
G04 #@! TO.N,/5+*
X-6103620Y-95986600D03*
G04 #@! TO.P,C6,1*
G04 #@! TO.N,/GND*
X-11103620Y-95986600D03*
G04 #@! TD*
D16*
G04 #@! TO.P,R,1*
G04 #@! TO.N,/GND*
X181602380Y-122148600D03*
G04 #@! TD*
G04 #@! TO.P,R,1*
G04 #@! TO.N,/GND*
X181602380Y-64998600D03*
G04 #@! TD*
D10*
G04 #@! TO.P,U5,16*
G04 #@! TO.N,/5+*
X179316380Y-99288600D03*
G04 #@! TO.P,U5,8*
G04 #@! TO.N,/GND*
X171696380Y-117068600D03*
G04 #@! TO.P,U5,15*
G04 #@! TO.N,Net-(U5-Pad15)*
X179316380Y-101828600D03*
G04 #@! TO.P,U5,7*
G04 #@! TO.N,/32K_ROM_CS_EVEN*
X171696380Y-114528600D03*
G04 #@! TO.P,U5,14*
G04 #@! TO.N,Net-(U5-Pad14)*
X179316380Y-104368600D03*
G04 #@! TO.P,U5,6*
G04 #@! TO.N,/A18*
X171696380Y-111988600D03*
G04 #@! TO.P,U5,13*
G04 #@! TO.N,Net-(U5-Pad13)*
X179316380Y-106908600D03*
G04 #@! TO.P,U5,5*
G04 #@! TO.N,/GND*
X171696380Y-109448600D03*
G04 #@! TO.P,U5,12*
G04 #@! TO.N,Net-(U5-Pad12)*
X179316380Y-109448600D03*
G04 #@! TO.P,U5,4*
G04 #@! TO.N,/UPPER_512K_EVEN*
X171696380Y-106908600D03*
G04 #@! TO.P,U5,11*
G04 #@! TO.N,Net-(U5-Pad11)*
X179316380Y-111988600D03*
G04 #@! TO.P,U5,3*
G04 #@! TO.N,/A17*
X171696380Y-104368600D03*
G04 #@! TO.P,U5,10*
G04 #@! TO.N,Net-(U5-Pad10)*
X179316380Y-114528600D03*
G04 #@! TO.P,U5,2*
G04 #@! TO.N,/A16*
X171696380Y-101828600D03*
G04 #@! TO.P,U5,9*
G04 #@! TO.N,/32K_RAM_CS_EVEN*
X179316380Y-117068600D03*
D11*
G04 #@! TO.P,U5,1*
G04 #@! TO.N,/A15*
X171696380Y-99288600D03*
G04 #@! TD*
D10*
G04 #@! TO.P,U4,16*
G04 #@! TO.N,/5+*
X179316380Y-73888600D03*
G04 #@! TO.P,U4,8*
G04 #@! TO.N,/GND*
X171696380Y-91668600D03*
G04 #@! TO.P,U4,15*
G04 #@! TO.N,N/C*
X179316380Y-76428600D03*
G04 #@! TO.P,U4,7*
G04 #@! TO.N,Net-(U4-Pad7)*
X171696380Y-89128600D03*
G04 #@! TO.P,U4,14*
G04 #@! TO.N,N/C*
X179316380Y-78968600D03*
G04 #@! TO.P,U4,6*
G04 #@! TO.N,Net-(U4-Pad6)*
X171696380Y-86588600D03*
G04 #@! TO.P,U4,13*
G04 #@! TO.N,N/C*
X179316380Y-81508600D03*
G04 #@! TO.P,U4,5*
G04 #@! TO.N,/UPPER_512K_EVEN*
X171696380Y-84048600D03*
G04 #@! TO.P,U4,12*
G04 #@! TO.N,N/C*
X179316380Y-84048600D03*
G04 #@! TO.P,U4,4*
G04 #@! TO.N,/512K_CS_EVEN*
X171696380Y-81508600D03*
G04 #@! TO.P,U4,11*
G04 #@! TO.N,N/C*
X179316380Y-86588600D03*
G04 #@! TO.P,U4,3*
G04 #@! TO.N,/GND*
X171696380Y-78968600D03*
G04 #@! TO.P,U4,10*
G04 #@! TO.N,N/C*
X179316380Y-89128600D03*
G04 #@! TO.P,U4,2*
G04 #@! TO.N,/A19*
X171696380Y-76428600D03*
G04 #@! TO.P,U4,9*
G04 #@! TO.N,N/C*
X179316380Y-91668600D03*
D11*
G04 #@! TO.P,U4,1*
G04 #@! TO.N,/A0*
X171696380Y-73888600D03*
G04 #@! TD*
D12*
G04 #@! TO.P,C5,2*
G04 #@! TO.N,/5+*
X179316380Y-95986600D03*
G04 #@! TO.P,C5,1*
G04 #@! TO.N,/GND*
X174316380Y-95986600D03*
G04 #@! TD*
G04 #@! TO.P,C4,2*
G04 #@! TO.N,/5+*
X179316380Y-70586600D03*
G04 #@! TO.P,C4,1*
G04 #@! TO.N,/GND*
X174316380Y-70586600D03*
G04 #@! TD*
G04 #@! TO.P,C3,2*
G04 #@! TO.N,/5+*
X161536380Y-75666600D03*
G04 #@! TO.P,C3,1*
G04 #@! TO.N,/GND*
X156536380Y-75666600D03*
G04 #@! TD*
G04 #@! TO.P,C2,2*
G04 #@! TO.N,/5+*
X136136380Y-80746600D03*
G04 #@! TO.P,C2,1*
G04 #@! TO.N,/GND*
X131136380Y-80746600D03*
G04 #@! TD*
D14*
G04 #@! TO.P,U2,15*
G04 #@! TO.N,/D3*
X105656380Y-111988600D03*
G04 #@! TO.P,U2,14*
G04 #@! TO.N,/GND*
X90416380Y-111988600D03*
G04 #@! TO.P,U2,16*
G04 #@! TO.N,/D4*
X105656380Y-109448600D03*
G04 #@! TO.P,U2,13*
G04 #@! TO.N,/D2*
X90416380Y-109448600D03*
G04 #@! TO.P,U2,17*
G04 #@! TO.N,/D5*
X105656380Y-106908600D03*
G04 #@! TO.P,U2,12*
G04 #@! TO.N,/D1*
X90416380Y-106908600D03*
G04 #@! TO.P,U2,18*
G04 #@! TO.N,/D6*
X105656380Y-104368600D03*
G04 #@! TO.P,U2,11*
G04 #@! TO.N,/D0*
X90416380Y-104368600D03*
G04 #@! TO.P,U2,19*
G04 #@! TO.N,/D7*
X105656380Y-101828600D03*
G04 #@! TO.P,U2,10*
G04 #@! TO.N,/GND*
X90416380Y-101828600D03*
G04 #@! TO.P,U2,20*
G04 #@! TO.N,/32K_ROM_CS_EVEN*
X105656380Y-99288600D03*
G04 #@! TO.P,U2,9*
G04 #@! TO.N,/A1*
X90416380Y-99288600D03*
G04 #@! TO.P,U2,21*
G04 #@! TO.N,/A10*
X105656380Y-96748600D03*
G04 #@! TO.P,U2,8*
G04 #@! TO.N,/A2*
X90416380Y-96748600D03*
G04 #@! TO.P,U2,22*
G04 #@! TO.N,/MRD*
X105656380Y-94208600D03*
G04 #@! TO.P,U2,7*
G04 #@! TO.N,/A3*
X90416380Y-94208600D03*
G04 #@! TO.P,U2,23*
G04 #@! TO.N,/A11*
X105656380Y-91668600D03*
G04 #@! TO.P,U2,6*
G04 #@! TO.N,/A4*
X90416380Y-91668600D03*
G04 #@! TO.P,U2,24*
G04 #@! TO.N,/A9*
X105656380Y-89128600D03*
G04 #@! TO.P,U2,5*
G04 #@! TO.N,/A5*
X90416380Y-89128600D03*
G04 #@! TO.P,U2,25*
G04 #@! TO.N,/A8*
X105656380Y-86588600D03*
G04 #@! TO.P,U2,4*
G04 #@! TO.N,/A6*
X90416380Y-86588600D03*
G04 #@! TO.P,U2,26*
G04 #@! TO.N,/A13*
X105656380Y-84048600D03*
G04 #@! TO.P,U2,3*
G04 #@! TO.N,/A7*
X90416380Y-84048600D03*
G04 #@! TO.P,U2,27*
G04 #@! TO.N,/5+*
X105656380Y-81508600D03*
G04 #@! TO.P,U2,2*
G04 #@! TO.N,/A12*
X90416380Y-81508600D03*
G04 #@! TO.P,U2,28*
G04 #@! TO.N,/5+*
X105656380Y-78968600D03*
D15*
G04 #@! TO.P,U2,1*
G04 #@! TO.N,/A14*
X90416380Y-78968600D03*
G04 #@! TD*
D10*
G04 #@! TO.P,U1,28*
G04 #@! TO.N,/5+*
X136136380Y-84048600D03*
G04 #@! TO.P,U1,14*
G04 #@! TO.N,/GND*
X120896380Y-117068600D03*
G04 #@! TO.P,U1,27*
G04 #@! TO.N,/MWR*
X136136380Y-86588600D03*
G04 #@! TO.P,U1,13*
G04 #@! TO.N,/D2*
X120896380Y-114528600D03*
G04 #@! TO.P,U1,26*
G04 #@! TO.N,/A13*
X136136380Y-89128600D03*
G04 #@! TO.P,U1,12*
G04 #@! TO.N,/D1*
X120896380Y-111988600D03*
G04 #@! TO.P,U1,25*
G04 #@! TO.N,/A8*
X136136380Y-91668600D03*
G04 #@! TO.P,U1,11*
G04 #@! TO.N,/D0*
X120896380Y-109448600D03*
G04 #@! TO.P,U1,24*
G04 #@! TO.N,/A9*
X136136380Y-94208600D03*
G04 #@! TO.P,U1,10*
G04 #@! TO.N,/GND*
X120896380Y-106908600D03*
G04 #@! TO.P,U1,23*
G04 #@! TO.N,/A11*
X136136380Y-96748600D03*
G04 #@! TO.P,U1,9*
G04 #@! TO.N,/A1*
X120896380Y-104368600D03*
G04 #@! TO.P,U1,22*
G04 #@! TO.N,/MRD*
X136136380Y-99288600D03*
G04 #@! TO.P,U1,8*
G04 #@! TO.N,/A2*
X120896380Y-101828600D03*
G04 #@! TO.P,U1,21*
G04 #@! TO.N,/A10*
X136136380Y-101828600D03*
G04 #@! TO.P,U1,7*
G04 #@! TO.N,/A3*
X120896380Y-99288600D03*
G04 #@! TO.P,U1,20*
G04 #@! TO.N,/32K_RAM_CS_EVEN*
X136136380Y-104368600D03*
G04 #@! TO.P,U1,6*
G04 #@! TO.N,/A4*
X120896380Y-96748600D03*
G04 #@! TO.P,U1,19*
G04 #@! TO.N,/D7*
X136136380Y-106908600D03*
G04 #@! TO.P,U1,5*
G04 #@! TO.N,/A5*
X120896380Y-94208600D03*
G04 #@! TO.P,U1,18*
G04 #@! TO.N,/D6*
X136136380Y-109448600D03*
G04 #@! TO.P,U1,4*
G04 #@! TO.N,/A6*
X120896380Y-91668600D03*
G04 #@! TO.P,U1,17*
G04 #@! TO.N,/D5*
X136136380Y-111988600D03*
G04 #@! TO.P,U1,3*
G04 #@! TO.N,/A7*
X120896380Y-89128600D03*
G04 #@! TO.P,U1,16*
G04 #@! TO.N,/D4*
X136136380Y-114528600D03*
G04 #@! TO.P,U1,2*
G04 #@! TO.N,/A12*
X120896380Y-86588600D03*
G04 #@! TO.P,U1,15*
G04 #@! TO.N,/D3*
X136136380Y-117068600D03*
D11*
G04 #@! TO.P,U1,1*
G04 #@! TO.N,/A14*
X120896380Y-84048600D03*
G04 #@! TD*
D13*
G04 #@! TO.P,J9,62*
G04 #@! TO.N,/A0*
X85336380Y-129768600D03*
G04 #@! TO.P,J9,61*
G04 #@! TO.N,/A1*
X87876380Y-129768600D03*
G04 #@! TO.P,J9,60*
G04 #@! TO.N,/A2*
X90416380Y-129768600D03*
G04 #@! TO.P,J9,59*
G04 #@! TO.N,/A3*
X92956380Y-129768600D03*
G04 #@! TO.P,J9,58*
G04 #@! TO.N,/A4*
X95496380Y-129768600D03*
G04 #@! TO.P,J9,57*
G04 #@! TO.N,/A5*
X98036380Y-129768600D03*
G04 #@! TO.P,J9,56*
G04 #@! TO.N,/A6*
X100576380Y-129768600D03*
G04 #@! TO.P,J9,55*
G04 #@! TO.N,/A7*
X103116380Y-129768600D03*
G04 #@! TO.P,J9,54*
G04 #@! TO.N,/A8*
X105656380Y-129768600D03*
G04 #@! TO.P,J9,53*
G04 #@! TO.N,/A9*
X108196380Y-129768600D03*
G04 #@! TO.P,J9,52*
G04 #@! TO.N,/A10*
X110736380Y-129768600D03*
G04 #@! TO.P,J9,51*
G04 #@! TO.N,/A11*
X113276380Y-129768600D03*
G04 #@! TO.P,J9,50*
G04 #@! TO.N,/A12*
X115816380Y-129768600D03*
G04 #@! TO.P,J9,49*
G04 #@! TO.N,/A13*
X118356380Y-129768600D03*
G04 #@! TO.P,J9,48*
G04 #@! TO.N,/A14*
X120896380Y-129768600D03*
G04 #@! TO.P,J9,47*
G04 #@! TO.N,/A15*
X123436380Y-129768600D03*
G04 #@! TO.P,J9,46*
G04 #@! TO.N,/A16*
X125976380Y-129768600D03*
G04 #@! TO.P,J9,45*
G04 #@! TO.N,/A17*
X128516380Y-129768600D03*
G04 #@! TO.P,J9,44*
G04 #@! TO.N,/A18*
X131056380Y-129768600D03*
G04 #@! TO.P,J9,43*
G04 #@! TO.N,/A19*
X133596380Y-129768600D03*
G04 #@! TO.P,J9,42*
G04 #@! TO.N,/AEN*
X136136380Y-129768600D03*
G04 #@! TO.P,J9,41*
G04 #@! TO.N,/RDY1*
X138676380Y-129768600D03*
G04 #@! TO.P,J9,40*
G04 #@! TO.N,/D0*
X141216380Y-129768600D03*
G04 #@! TO.P,J9,39*
G04 #@! TO.N,/D1*
X143756380Y-129768600D03*
G04 #@! TO.P,J9,38*
G04 #@! TO.N,/D2*
X146296380Y-129768600D03*
G04 #@! TO.P,J9,37*
G04 #@! TO.N,/D3*
X148836380Y-129768600D03*
G04 #@! TO.P,J9,36*
G04 #@! TO.N,/D4*
X151376380Y-129768600D03*
G04 #@! TO.P,J9,35*
G04 #@! TO.N,/D5*
X153916380Y-129768600D03*
G04 #@! TO.P,J9,34*
G04 #@! TO.N,/D6*
X156456380Y-129768600D03*
G04 #@! TO.P,J9,33*
G04 #@! TO.N,/D7*
X158996380Y-129768600D03*
G04 #@! TO.P,J9,32*
G04 #@! TO.N,/CH_CK*
X161536380Y-129768600D03*
G04 #@! TD*
D12*
G04 #@! TO.P,C1,2*
G04 #@! TO.N,/5+*
X111244380Y-79048600D03*
G04 #@! TO.P,C1,1*
G04 #@! TO.N,/GND*
X111244380Y-84048600D03*
G04 #@! TD*
D10*
G04 #@! TO.P,U3,32*
G04 #@! TO.N,/5+*
X161536380Y-78968600D03*
G04 #@! TO.P,U3,16*
G04 #@! TO.N,/GND*
X146296380Y-117068600D03*
G04 #@! TO.P,U3,31*
G04 #@! TO.N,/A15*
X161536380Y-81508600D03*
G04 #@! TO.P,U3,15*
G04 #@! TO.N,/D2*
X146296380Y-114528600D03*
G04 #@! TO.P,U3,30*
G04 #@! TO.N,/A17*
X161536380Y-84048600D03*
G04 #@! TO.P,U3,14*
G04 #@! TO.N,/D1*
X146296380Y-111988600D03*
G04 #@! TO.P,U3,29*
G04 #@! TO.N,/MWR*
X161536380Y-86588600D03*
G04 #@! TO.P,U3,13*
G04 #@! TO.N,/D0*
X146296380Y-109448600D03*
G04 #@! TO.P,U3,28*
G04 #@! TO.N,/A13*
X161536380Y-89128600D03*
G04 #@! TO.P,U3,12*
G04 #@! TO.N,/GND*
X146296380Y-106908600D03*
G04 #@! TO.P,U3,27*
G04 #@! TO.N,/A8*
X161536380Y-91668600D03*
G04 #@! TO.P,U3,11*
G04 #@! TO.N,/A1*
X146296380Y-104368600D03*
G04 #@! TO.P,U3,26*
G04 #@! TO.N,/A9*
X161536380Y-94208600D03*
G04 #@! TO.P,U3,10*
G04 #@! TO.N,/A2*
X146296380Y-101828600D03*
G04 #@! TO.P,U3,25*
G04 #@! TO.N,/A11*
X161536380Y-96748600D03*
G04 #@! TO.P,U3,9*
G04 #@! TO.N,/A3*
X146296380Y-99288600D03*
G04 #@! TO.P,U3,24*
G04 #@! TO.N,/MRD*
X161536380Y-99288600D03*
G04 #@! TO.P,U3,8*
G04 #@! TO.N,/A4*
X146296380Y-96748600D03*
G04 #@! TO.P,U3,23*
G04 #@! TO.N,/A10*
X161536380Y-101828600D03*
G04 #@! TO.P,U3,7*
G04 #@! TO.N,/A5*
X146296380Y-94208600D03*
G04 #@! TO.P,U3,22*
G04 #@! TO.N,/512K_CS_EVEN*
X161536380Y-104368600D03*
G04 #@! TO.P,U3,6*
G04 #@! TO.N,/A6*
X146296380Y-91668600D03*
G04 #@! TO.P,U3,21*
G04 #@! TO.N,/D7*
X161536380Y-106908600D03*
G04 #@! TO.P,U3,5*
G04 #@! TO.N,/A7*
X146296380Y-89128600D03*
G04 #@! TO.P,U3,20*
G04 #@! TO.N,/D6*
X161536380Y-109448600D03*
G04 #@! TO.P,U3,4*
G04 #@! TO.N,/A12*
X146296380Y-86588600D03*
G04 #@! TO.P,U3,19*
G04 #@! TO.N,/D5*
X161536380Y-111988600D03*
G04 #@! TO.P,U3,3*
G04 #@! TO.N,/A14*
X146296380Y-84048600D03*
G04 #@! TO.P,U3,18*
G04 #@! TO.N,/D4*
X161536380Y-114528600D03*
G04 #@! TO.P,U3,2*
G04 #@! TO.N,/A16*
X146296380Y-81508600D03*
G04 #@! TO.P,U3,17*
G04 #@! TO.N,/D3*
X161536380Y-117068600D03*
D11*
G04 #@! TO.P,U3,1*
G04 #@! TO.N,/A18*
X146296380Y-78968600D03*
G04 #@! TD*
D17*
G04 #@! TO.N,/5+*
X161536380Y-69062600D03*
X161536380Y-73634600D03*
X136136380Y-73634600D03*
X136136380Y-79048600D03*
X111244380Y-82016600D03*
X179316380Y-69062600D03*
X176776380Y-69062600D03*
X176776380Y-95986600D03*
X90416380Y-115036600D03*
X95496380Y-115036600D03*
X95496380Y-82016600D03*
X156456380Y-105638600D03*
X176776380Y-105638600D03*
X36314380Y-107416600D03*
X80764380Y-82016600D03*
X80764380Y-76682600D03*
X44696380Y-76682600D03*
X36314380Y-76682600D03*
X-3817618Y-107416600D03*
X-3817620Y-96494600D03*
X-3817620Y-71094600D03*
G04 #@! TO.N,/GND*
X85336380Y-111480600D03*
X139184380Y-116560600D03*
X161536380Y-124688600D03*
X163568380Y-124688600D03*
X181602380Y-124688600D03*
X174236380Y-116560600D03*
X174236380Y-108940600D03*
X174236380Y-78460600D03*
X174236380Y-91160600D03*
X131310380Y-75666600D03*
X156710380Y-70586600D03*
X139184380Y-75666600D03*
X163568380Y-116560600D03*
X39870380Y-75666600D03*
X80764380Y-111480600D03*
X-11183620Y-117576600D03*
X-11183620Y-91668600D03*
X-11183620Y-109448600D03*
X-11183620Y-78968600D03*
X139184380Y-106400600D03*
X80764380Y-113258600D03*
X31234380Y-117576600D03*
X174316380Y-65680600D03*
X-11183624Y-64998604D03*
X6596380Y-64998600D03*
X1516380Y-64998600D03*
X14216380Y-64998600D03*
X37076380Y-64998600D03*
X24376380Y-64998600D03*
X42156380Y-64998600D03*
G04 #@! TO.N,/D7*
X159758380Y-107416600D03*
X159758380Y-124688608D03*
G04 #@! TO.N,/D6*
X157726380Y-124688600D03*
X157726380Y-109956600D03*
G04 #@! TO.N,/D5*
X155186380Y-124688600D03*
X155186380Y-112496600D03*
G04 #@! TO.N,/D4*
X152646380Y-124688600D03*
X152646380Y-115036600D03*
G04 #@! TO.N,/D3*
X150106380Y-124688600D03*
X150106380Y-117576600D03*
G04 #@! TO.N,/D2*
X147566380Y-124688600D03*
X148074380Y-114020600D03*
G04 #@! TO.N,/D1*
X144518380Y-124688600D03*
X144518380Y-111480600D03*
G04 #@! TO.N,/D0*
X142486380Y-124688600D03*
X142486380Y-108940600D03*
G04 #@! TO.N,/A19*
X134866380Y-124688600D03*
X134866380Y-122402600D03*
X168140380Y-122402600D03*
X168140380Y-75920600D03*
X-2293620Y-77698600D03*
X-2293610Y-122402600D03*
G04 #@! TO.N,/A18*
X132326380Y-124688600D03*
X132326380Y-121640600D03*
X167378380Y-121640600D03*
X167378380Y-111480600D03*
X167378380Y-77698600D03*
X-769620Y-121640600D03*
X-769620Y-78460600D03*
X-769620Y-113258600D03*
G04 #@! TO.N,/A17*
X129786380Y-124688600D03*
X129786380Y-120878600D03*
X166616380Y-120878622D03*
X166616380Y-103860600D03*
X166616380Y-83540600D03*
X-7620Y-120878600D03*
X-7620Y-82778600D03*
X-7620Y-105638600D03*
G04 #@! TO.N,/A16*
X127246380Y-124688600D03*
X127246380Y-120116600D03*
X165600380Y-120116600D03*
X165600380Y-101320600D03*
X165600380Y-80238600D03*
X754380Y-120116600D03*
X754380Y-81000600D03*
X754380Y-103098600D03*
G04 #@! TO.N,/A15*
X124706380Y-124688600D03*
X124706380Y-119354600D03*
X164838380Y-119354600D03*
X164838380Y-98780600D03*
X164838380Y-82016600D03*
X1516380Y-119354600D03*
X1516380Y-80238600D03*
X1516380Y-100558600D03*
G04 #@! TO.N,/A14*
X122166380Y-124688600D03*
X122928380Y-83540600D03*
X122928380Y-77698600D03*
G04 #@! TO.N,/A13*
X119118380Y-124688600D03*
X119118380Y-89890600D03*
G04 #@! TO.N,/A12*
X117086380Y-124688600D03*
X117086380Y-86080600D03*
X117086380Y-81000600D03*
G04 #@! TO.N,/A11*
X114546380Y-124688600D03*
X114546380Y-97256600D03*
X77716380Y-91668600D03*
X78986380Y-92938600D03*
G04 #@! TO.N,/A10*
X112006380Y-124688600D03*
X112006380Y-99796600D03*
X77716380Y-96748600D03*
X78986380Y-98018600D03*
G04 #@! TO.N,/A9*
X109466380Y-124688600D03*
X109466380Y-89636600D03*
X77716380Y-89128600D03*
X78986380Y-90398600D03*
G04 #@! TO.N,/A8*
X106926380Y-124688600D03*
X107942380Y-87096600D03*
X77716380Y-86588600D03*
X78986380Y-87858600D03*
G04 #@! TO.N,/A7*
X103624380Y-83540600D03*
X103624380Y-124688600D03*
X83812380Y-84048600D03*
X83812380Y-86080600D03*
G04 #@! TO.N,/A6*
X101846380Y-124688600D03*
X101846380Y-86080600D03*
G04 #@! TO.N,/A5*
X99306380Y-124688600D03*
X99306380Y-88620600D03*
G04 #@! TO.N,/A4*
X96766380Y-124688600D03*
X96766380Y-91160600D03*
G04 #@! TO.N,/A3*
X94226380Y-124688600D03*
X94226380Y-93700600D03*
G04 #@! TO.N,/A2*
X91686380Y-124688600D03*
X92448380Y-96240600D03*
G04 #@! TO.N,/A1*
X88384380Y-124688600D03*
X88384380Y-99796600D03*
G04 #@! TO.N,/A0*
X86606380Y-124688600D03*
X171696380Y-68046600D03*
X86606380Y-68046600D03*
G04 #@! TO.N,/MWR*
X136136380Y-123164600D03*
X138168380Y-123164600D03*
X138168380Y-87096600D03*
X47236380Y-86080600D03*
X47236380Y-123164600D03*
G04 #@! TO.N,/MRD*
X77716380Y-94208600D03*
X78986380Y-95478600D03*
X133596380Y-99796600D03*
G04 #@! TO.N,/32K_RAM_CS_EVEN*
X169664380Y-115290600D03*
X140200380Y-104876600D03*
X140200380Y-71856600D03*
X169664380Y-71856600D03*
G04 #@! TO.N,/32K_ROM_CS_EVEN*
X168902380Y-114020600D03*
X168902380Y-72618600D03*
X100576380Y-99796600D03*
X100576380Y-72618600D03*
G04 #@! TO.N,/512K_CS_EVEN*
X164076380Y-103860600D03*
X164076380Y-81000600D03*
G04 #@! TO.N,/UPPER_512K_EVEN*
X175506380Y-84556600D03*
X175506380Y-107162600D03*
G04 #@! TO.N,/D11*
X42664380Y-124688600D03*
X42664380Y-116560600D03*
G04 #@! TO.N,/D12*
X40124380Y-124688600D03*
X40124380Y-114020600D03*
G04 #@! TO.N,/D10*
X45204380Y-124688600D03*
X46474380Y-115290600D03*
G04 #@! TO.N,/D13*
X37584380Y-124688600D03*
X37584380Y-111480600D03*
G04 #@! TO.N,/D9*
X47744380Y-124688600D03*
X47998380Y-112496600D03*
G04 #@! TO.N,/D14*
X35044380Y-124688600D03*
X35044380Y-108940600D03*
G04 #@! TO.N,/D8*
X50284380Y-124688600D03*
X50284380Y-109956600D03*
G04 #@! TO.N,/D15*
X32504380Y-124688600D03*
X32504380Y-106400600D03*
G04 #@! TO.N,/32K_ROM_CS_ODD*
X62476380Y-98780600D03*
X62476380Y-77698600D03*
X7866380Y-77190600D03*
X7866380Y-115798600D03*
G04 #@! TO.N,/UPPER_512K_ODD*
X-8897620Y-106908600D03*
X-8897620Y-84048600D03*
G04 #@! TO.N,/SBHE*
X-13723620Y-68046600D03*
X74414380Y-124688600D03*
X72636380Y-68046600D03*
G04 #@! TO.N,/32K_RAM_CS_ODD*
X21836380Y-103606600D03*
X21836380Y-123164600D03*
X-6103620Y-123164600D03*
G04 #@! TO.N,/512K_CS_ODD*
X-1531620Y-102082600D03*
X-1531620Y-82778600D03*
G04 #@! TO.N,/MEMCS16*
X75176380Y-118592600D03*
X51046380Y-118592600D03*
X51046380Y-67030600D03*
X12184380Y-67030600D03*
X4564380Y-67030600D03*
G04 #@! TO.N,/LA19*
X58666380Y-124434600D03*
X57650380Y-73888600D03*
X40886386Y-73888600D03*
G04 #@! TO.N,/LA17*
X56126380Y-124438600D03*
X56126380Y-72364600D03*
X37076380Y-72364600D03*
G04 #@! TO.N,/LA18*
X57396380Y-124434600D03*
X56888380Y-73126600D03*
X34536380Y-73126600D03*
G04 #@! TO.N,/HIGH_MEM*
X9136380Y-63982600D03*
X25646380Y-63982600D03*
G04 #@! TO.N,/LOW_MEM*
X16756380Y-66268600D03*
X34536380Y-66268600D03*
G04 #@! TO.N,/NOT_LOW*
X38346380Y-60680600D03*
X31996380Y-60680600D03*
G04 #@! TD*
D18*
G04 #@! TO.N,/5+*
X161536380Y-69062600D02*
X176776380Y-69062600D01*
X111244380Y-79048600D02*
X136136380Y-79048600D01*
X136136380Y-73634600D02*
X161536380Y-73634600D01*
X106164380Y-82016600D02*
X105656380Y-81508600D01*
X111244380Y-82016600D02*
X106164380Y-82016600D01*
X176776380Y-69062600D02*
X179316380Y-69062600D01*
X179316380Y-95986600D02*
X176776380Y-95986600D01*
X90416380Y-115036600D02*
X95496380Y-115036600D01*
X105148380Y-82016600D02*
X105656380Y-81508600D01*
X95496380Y-82016600D02*
X105148380Y-82016600D01*
X156456380Y-105638600D02*
X176776380Y-105638600D01*
X56126380Y-102336600D02*
X59428380Y-102336600D01*
X51046380Y-107416600D02*
X56126380Y-102336600D01*
X29964380Y-107416600D02*
X42664380Y-107416600D01*
X21328380Y-107416600D02*
X28948380Y-107416600D01*
X20566380Y-108178600D02*
X21328380Y-107416600D01*
X18026380Y-108178600D02*
X20566380Y-108178600D01*
X45966380Y-108178600D02*
X46728380Y-107416600D01*
X28948380Y-107416600D02*
X29456380Y-106908600D01*
X4564380Y-107416600D02*
X17264380Y-107416600D01*
X42664380Y-107416600D02*
X43426380Y-108178600D01*
X29456380Y-106908600D02*
X29964380Y-107416600D01*
X4056380Y-106908600D02*
X4564380Y-107416600D01*
X17264380Y-107416600D02*
X18026380Y-108178600D01*
X46728380Y-107416600D02*
X51046380Y-107416600D01*
X59428380Y-102336600D02*
X59936380Y-101828600D01*
X43426380Y-108178600D02*
X45966380Y-108178600D01*
X80764380Y-78968600D02*
X75176380Y-78968600D01*
X75684380Y-82016600D02*
X75176380Y-81508600D01*
X88638380Y-82778600D02*
X87876380Y-82016600D01*
X92702380Y-82778600D02*
X88638380Y-82778600D01*
X87876380Y-82016600D02*
X80764380Y-82016600D01*
X93464380Y-82016600D02*
X92702380Y-82778600D01*
X95496380Y-82016600D02*
X93464380Y-82016600D01*
X80764380Y-82016600D02*
X75684380Y-82016600D01*
X80764380Y-76682600D02*
X44696380Y-76682600D01*
X44696380Y-76682600D02*
X36314380Y-76682600D01*
X22852380Y-76682600D02*
X22344380Y-76174600D01*
X19804380Y-76174600D02*
X19296380Y-75666600D01*
X22344380Y-76174600D02*
X19804380Y-76174600D01*
X36314380Y-76682600D02*
X22852380Y-76682600D01*
X3548380Y-107416600D02*
X-3817618Y-107416600D01*
X4056380Y-106908600D02*
X3548380Y-107416600D01*
X-5595620Y-96494600D02*
X-3817620Y-96494600D01*
X-6103620Y-95986600D02*
X-5595620Y-96494600D01*
X-5595620Y-71094600D02*
X-3817620Y-71094600D01*
X-6103620Y-70586600D02*
X-5595620Y-71094600D01*
X45458380Y-70078600D02*
X42156380Y-70078600D01*
X20058380Y-70078600D02*
X16756380Y-70078600D01*
G04 #@! TO.N,/GND*
X90924380Y-111480600D02*
X103624380Y-111480600D01*
X103624380Y-111480600D02*
X104386380Y-110718600D01*
X114800380Y-116560600D02*
X120388380Y-116560600D01*
X107180380Y-110718600D02*
X107688380Y-111226600D01*
X90416380Y-111988600D02*
X90924380Y-111480600D01*
X104386380Y-110718600D02*
X107180380Y-110718600D01*
X120388380Y-116560600D02*
X120896380Y-117068600D01*
X145788380Y-116560600D02*
X146296380Y-117068600D01*
X109466380Y-111226600D02*
X114800380Y-116560600D01*
X107688380Y-111226600D02*
X109466380Y-111226600D01*
X121404380Y-116560600D02*
X134104380Y-116560600D01*
X120896380Y-117068600D02*
X121404380Y-116560600D01*
X138168380Y-116560600D02*
X145788380Y-116560600D01*
X134104380Y-116560600D02*
X134866380Y-115798600D01*
X137406380Y-115798600D02*
X138168380Y-116560600D01*
X134866380Y-115798600D02*
X137406380Y-115798600D01*
X89908380Y-111480600D02*
X90416380Y-111988600D01*
X85336380Y-111480600D02*
X89908380Y-111480600D01*
X171188380Y-116560600D02*
X171696380Y-117068600D01*
X159250380Y-115798600D02*
X162806380Y-115798600D01*
X162806380Y-115798600D02*
X163568380Y-116560600D01*
X158488380Y-116560600D02*
X159250380Y-115798600D01*
X146804380Y-116560600D02*
X158488380Y-116560600D01*
X146296380Y-117068600D02*
X146804380Y-116560600D01*
X161536380Y-124688600D02*
X163568380Y-124688600D01*
X163568380Y-124688600D02*
X181602380Y-124688600D01*
X172204380Y-116560600D02*
X171696380Y-117068600D01*
X174236380Y-116560600D02*
X172204380Y-116560600D01*
X172204380Y-108940600D02*
X171696380Y-109448600D01*
X174236380Y-108940600D02*
X172204380Y-108940600D01*
X172204380Y-91160600D02*
X171696380Y-91668600D01*
X174236380Y-91160600D02*
X172204380Y-91160600D01*
X172204380Y-78460600D02*
X171696380Y-78968600D01*
X174236380Y-78460600D02*
X172204380Y-78460600D01*
X129612380Y-82270600D02*
X131136380Y-80746600D01*
X113022380Y-82270600D02*
X129612380Y-82270600D01*
X111244380Y-84048600D02*
X113022380Y-82270600D01*
X156536380Y-75666600D02*
X131310380Y-75666600D01*
X174316380Y-70586600D02*
X156710380Y-70586600D01*
X163568380Y-116560600D02*
X171188380Y-116560600D01*
X18026380Y-118338600D02*
X20566380Y-118338600D01*
X20566380Y-118338600D02*
X21328380Y-117576600D01*
X4564380Y-117576600D02*
X17264380Y-117576600D01*
X17264380Y-117576600D02*
X18026380Y-118338600D01*
X21328380Y-117576600D02*
X28948380Y-117576600D01*
X4056380Y-117068600D02*
X4564380Y-117576600D01*
X28948380Y-117576600D02*
X29456380Y-117068600D01*
X42664380Y-117576600D02*
X43426380Y-118338600D01*
X56126380Y-112496600D02*
X59428380Y-112496600D01*
X46728380Y-117576600D02*
X51046380Y-117576600D01*
X29964380Y-117576600D02*
X42664380Y-117576600D01*
X59428380Y-112496600D02*
X59936380Y-111988600D01*
X29456380Y-117068600D02*
X29964380Y-117576600D01*
X43426380Y-118338600D02*
X45966380Y-118338600D01*
X45966380Y-118338600D02*
X46728380Y-117576600D01*
X51046380Y-117576600D02*
X56126380Y-112496600D01*
X104386380Y-100558600D02*
X107180380Y-100558600D01*
X107180380Y-100558600D02*
X107688380Y-101066600D01*
X120896380Y-106908600D02*
X121404380Y-106400600D01*
X137406380Y-105638600D02*
X138168380Y-106400600D01*
X121404380Y-106400600D02*
X134104380Y-106400600D01*
X114800380Y-106400600D02*
X120388380Y-106400600D01*
X120388380Y-106400600D02*
X120896380Y-106908600D01*
X103624380Y-101320600D02*
X104386380Y-100558600D01*
X134104380Y-106400600D02*
X134866380Y-105638600D01*
X109466380Y-101066600D02*
X114800380Y-106400600D01*
X134866380Y-105638600D02*
X137406380Y-105638600D01*
X145788380Y-106400600D02*
X146296380Y-106908600D01*
X138168380Y-106400600D02*
X145788380Y-106400600D01*
X90924380Y-101320600D02*
X103624380Y-101320600D01*
X90416380Y-101828600D02*
X90924380Y-101320600D01*
X107688380Y-101066600D02*
X109466380Y-101066600D01*
X131310380Y-75666600D02*
X23614380Y-75666600D01*
X23614380Y-75666600D02*
X22344380Y-74396600D01*
X22344380Y-74396600D02*
X18026380Y-74396600D01*
X18026380Y-74396600D02*
X17264380Y-75158600D01*
X14804380Y-75158600D02*
X14296380Y-75666600D01*
X17264380Y-75158600D02*
X14804380Y-75158600D01*
X-11103620Y-70586600D02*
X-10929620Y-70586600D01*
X85336380Y-111480600D02*
X80764380Y-111480600D01*
X-13215620Y-117576600D02*
X-13723620Y-117068600D01*
X-9913620Y-117576600D02*
X-11183620Y-117576600D01*
X-9151620Y-118338600D02*
X-9913620Y-117576600D01*
X-4833620Y-118338600D02*
X-9151620Y-118338600D01*
X-4071620Y-117576600D02*
X-4833620Y-118338600D01*
X3548380Y-117576600D02*
X-4071620Y-117576600D01*
X4056380Y-117068600D02*
X3548380Y-117576600D01*
X-11183620Y-117576600D02*
X-13215620Y-117576600D01*
X-13723620Y-109448600D02*
X-11183620Y-109448600D01*
X-11183620Y-91668600D02*
X-13723620Y-91668600D01*
X-11183620Y-78968600D02*
X-13723620Y-78968600D01*
X59936380Y-111988600D02*
X60444380Y-112496600D01*
X60444380Y-112496600D02*
X72382380Y-112496600D01*
X72382380Y-112496600D02*
X73144380Y-113258600D01*
X73144380Y-113258600D02*
X80764380Y-113258600D01*
X180920380Y-65680600D02*
X181602380Y-64998600D01*
X174316380Y-65680600D02*
X180920380Y-65680600D01*
X-11183620Y-64998600D02*
X-11183624Y-64998604D01*
X19978380Y-64998600D02*
X14216380Y-64998600D01*
X20058380Y-65078600D02*
X19978380Y-64998600D01*
X6596380Y-64998600D02*
X1516380Y-64998600D01*
X1516380Y-64998600D02*
X-11183620Y-64998600D01*
X14216380Y-64998600D02*
X6596380Y-64998600D01*
X45378380Y-64998600D02*
X45458380Y-65078600D01*
X37076380Y-64998600D02*
X42156380Y-64998600D01*
X20566380Y-64998600D02*
X24376380Y-64998600D01*
X20486380Y-65078600D02*
X20566380Y-64998600D01*
X20058380Y-65078600D02*
X20486380Y-65078600D01*
X37076380Y-64998600D02*
X37076380Y-64998600D01*
X24376380Y-64998600D02*
X37076380Y-64998600D01*
X42156380Y-64998600D02*
X45378380Y-64998600D01*
D19*
G04 #@! TO.N,/D7*
X144264380Y-107416600D02*
X136644380Y-107416600D01*
X145026380Y-108178600D02*
X144264380Y-107416600D01*
X136644380Y-107416600D02*
X136136380Y-106908600D01*
X161028380Y-107416600D02*
X148328380Y-107416600D01*
X161536380Y-106908600D02*
X161028380Y-107416600D01*
X148328380Y-107416600D02*
X147566380Y-108178600D01*
X147566380Y-108178600D02*
X145026380Y-108178600D01*
X109466380Y-102336600D02*
X106164380Y-102336600D01*
X114546380Y-107416600D02*
X109466380Y-102336600D01*
X118864380Y-107416600D02*
X114546380Y-107416600D01*
X119626380Y-108178600D02*
X118864380Y-107416600D01*
X106164380Y-102336600D02*
X105656380Y-101828600D01*
X122166380Y-108178600D02*
X119626380Y-108178600D01*
X122928380Y-107416600D02*
X122166380Y-108178600D01*
X135628380Y-107416600D02*
X122928380Y-107416600D01*
X136136380Y-106908600D02*
X135628380Y-107416600D01*
X158996380Y-129768600D02*
X158996380Y-125450608D01*
X158996380Y-125450608D02*
X159758380Y-124688608D01*
G04 #@! TO.N,/D6*
X144264380Y-109956600D02*
X136644380Y-109956600D01*
X161536380Y-109448600D02*
X161028380Y-109956600D01*
X136644380Y-109956600D02*
X136136380Y-109448600D01*
X147566380Y-110718600D02*
X145026380Y-110718600D01*
X148328380Y-109956600D02*
X147566380Y-110718600D01*
X161028380Y-109956600D02*
X148328380Y-109956600D01*
X145026380Y-110718600D02*
X144264380Y-109956600D01*
X106164380Y-104876600D02*
X105656380Y-104368600D01*
X109466380Y-104876600D02*
X106164380Y-104876600D01*
X118864380Y-109956600D02*
X114546380Y-109956600D01*
X114546380Y-109956600D02*
X109466380Y-104876600D01*
X119626380Y-110718600D02*
X118864380Y-109956600D01*
X122166380Y-110718600D02*
X119626380Y-110718600D01*
X135628380Y-109956600D02*
X122928380Y-109956600D01*
X122928380Y-109956600D02*
X122166380Y-110718600D01*
X136136380Y-109448600D02*
X135628380Y-109956600D01*
X156456380Y-125958600D02*
X157726380Y-124688600D01*
X156456380Y-129768600D02*
X156456380Y-125958600D01*
G04 #@! TO.N,/D5*
X144264380Y-112496600D02*
X136644380Y-112496600D01*
X147566380Y-113258600D02*
X145026380Y-113258600D01*
X136644380Y-112496600D02*
X136136380Y-111988600D01*
X145026380Y-113258600D02*
X144264380Y-112496600D01*
X161028380Y-112496600D02*
X148328380Y-112496600D01*
X148328380Y-112496600D02*
X147566380Y-113258600D01*
X161536380Y-111988600D02*
X161028380Y-112496600D01*
X106164380Y-107416600D02*
X105656380Y-106908600D01*
X109466380Y-107416600D02*
X106164380Y-107416600D01*
X114546380Y-112496600D02*
X109466380Y-107416600D01*
X118864380Y-112496600D02*
X114546380Y-112496600D01*
X119626380Y-113258600D02*
X118864380Y-112496600D01*
X122166380Y-113258600D02*
X119626380Y-113258600D01*
X122928380Y-112496600D02*
X122166380Y-113258600D01*
X135628380Y-112496600D02*
X122928380Y-112496600D01*
X136136380Y-111988600D02*
X135628380Y-112496600D01*
X153916380Y-125958600D02*
X155186380Y-124688600D01*
X153916380Y-129768600D02*
X153916380Y-125958600D01*
G04 #@! TO.N,/D4*
X148328380Y-115036600D02*
X147566380Y-115798600D01*
X144264380Y-115036600D02*
X136644380Y-115036600D01*
X161536380Y-114528600D02*
X161028380Y-115036600D01*
X147566380Y-115798600D02*
X145026380Y-115798600D01*
X161028380Y-115036600D02*
X148328380Y-115036600D01*
X136644380Y-115036600D02*
X136136380Y-114528600D01*
X145026380Y-115798600D02*
X144264380Y-115036600D01*
X118864380Y-115036600D02*
X114546380Y-115036600D01*
X119626380Y-115798600D02*
X118864380Y-115036600D01*
X109466380Y-109956600D02*
X106164380Y-109956600D01*
X122166380Y-115798600D02*
X119626380Y-115798600D01*
X114546380Y-115036600D02*
X109466380Y-109956600D01*
X122928380Y-115036600D02*
X122166380Y-115798600D01*
X106164380Y-109956600D02*
X105656380Y-109448600D01*
X135628380Y-115036600D02*
X122928380Y-115036600D01*
X136136380Y-114528600D02*
X135628380Y-115036600D01*
X151376380Y-125958600D02*
X152646380Y-124688600D01*
X151376380Y-129768600D02*
X151376380Y-125958600D01*
G04 #@! TO.N,/D3*
X148328380Y-117576600D02*
X147566380Y-118338600D01*
X144264380Y-117576600D02*
X136644380Y-117576600D01*
X161536380Y-117068600D02*
X161028380Y-117576600D01*
X147566380Y-118338600D02*
X145026380Y-118338600D01*
X161028380Y-117576600D02*
X148328380Y-117576600D01*
X145026380Y-118338600D02*
X144264380Y-117576600D01*
X136644380Y-117576600D02*
X136136380Y-117068600D01*
X114546380Y-117576600D02*
X109466380Y-112496600D01*
X106164380Y-112496600D02*
X105656380Y-111988600D01*
X118864380Y-117576600D02*
X114546380Y-117576600D01*
X119626380Y-118338600D02*
X118864380Y-117576600D01*
X122166380Y-118338600D02*
X119626380Y-118338600D01*
X122928380Y-117576600D02*
X122166380Y-118338600D01*
X109466380Y-112496600D02*
X106164380Y-112496600D01*
X135628380Y-117576600D02*
X122928380Y-117576600D01*
X136136380Y-117068600D02*
X135628380Y-117576600D01*
X148836380Y-129768600D02*
X148836380Y-125958600D01*
X148836380Y-125958600D02*
X150106380Y-124688600D01*
G04 #@! TO.N,/D2*
X90924380Y-108940600D02*
X103624380Y-108940600D01*
X103624380Y-108940600D02*
X104386380Y-108178600D01*
X114800380Y-114020600D02*
X120388380Y-114020600D01*
X107688380Y-108686600D02*
X109466380Y-108686600D01*
X134104380Y-114020600D02*
X134866380Y-113258600D01*
X90416380Y-109448600D02*
X90924380Y-108940600D01*
X109466380Y-108686600D02*
X114800380Y-114020600D01*
X134866380Y-113258600D02*
X137406380Y-113258600D01*
X121404380Y-114020600D02*
X134104380Y-114020600D01*
X120896380Y-114528600D02*
X121404380Y-114020600D01*
X145788380Y-114020600D02*
X146296380Y-114528600D01*
X104386380Y-108178600D02*
X107180380Y-108178600D01*
X137406380Y-113258600D02*
X138168380Y-114020600D01*
X107180380Y-108178600D02*
X107688380Y-108686600D01*
X120388380Y-114020600D02*
X120896380Y-114528600D01*
X138168380Y-114020600D02*
X145788380Y-114020600D01*
X146296380Y-125958600D02*
X147566380Y-124688600D01*
X146296380Y-129768600D02*
X146296380Y-125958600D01*
X146804380Y-114020600D02*
X146296380Y-114528600D01*
X148074380Y-114020600D02*
X146804380Y-114020600D01*
G04 #@! TO.N,/D1*
X114800380Y-111480600D02*
X120388380Y-111480600D01*
X134866380Y-110718600D02*
X137406380Y-110718600D01*
X120388380Y-111480600D02*
X120896380Y-111988600D01*
X107180380Y-105638600D02*
X107688380Y-106146600D01*
X145788380Y-111480600D02*
X146296380Y-111988600D01*
X107688380Y-106146600D02*
X109466380Y-106146600D01*
X120896380Y-111988600D02*
X121404380Y-111480600D01*
X134104380Y-111480600D02*
X134866380Y-110718600D01*
X121404380Y-111480600D02*
X134104380Y-111480600D01*
X90416380Y-106908600D02*
X90924380Y-106400600D01*
X109466380Y-106146600D02*
X114800380Y-111480600D01*
X90924380Y-106400600D02*
X103624380Y-106400600D01*
X104386380Y-105638600D02*
X107180380Y-105638600D01*
X103624380Y-106400600D02*
X104386380Y-105638600D01*
X137406380Y-110718600D02*
X138168380Y-111480600D01*
X138168380Y-111480600D02*
X145788380Y-111480600D01*
X143756380Y-129768600D02*
X143756380Y-125450600D01*
X143756380Y-125450600D02*
X144518380Y-124688600D01*
G04 #@! TO.N,/D0*
X121404380Y-108940600D02*
X134104380Y-108940600D01*
X109466380Y-103606600D02*
X114800380Y-108940600D01*
X138168380Y-108940600D02*
X145788380Y-108940600D01*
X107688380Y-103606600D02*
X109466380Y-103606600D01*
X90924380Y-103860600D02*
X103624380Y-103860600D01*
X107180380Y-103098600D02*
X107688380Y-103606600D01*
X114800380Y-108940600D02*
X120388380Y-108940600D01*
X103624380Y-103860600D02*
X104386380Y-103098600D01*
X134104380Y-108940600D02*
X134866380Y-108178600D01*
X145788380Y-108940600D02*
X146296380Y-109448600D01*
X90416380Y-104368600D02*
X90924380Y-103860600D01*
X104386380Y-103098600D02*
X107180380Y-103098600D01*
X120896380Y-109448600D02*
X121404380Y-108940600D01*
X137406380Y-108178600D02*
X138168380Y-108940600D01*
X134866380Y-108178600D02*
X137406380Y-108178600D01*
X120388380Y-108940600D02*
X120896380Y-109448600D01*
X141216380Y-129768600D02*
X141216380Y-125958600D01*
X141216380Y-125958600D02*
X142486380Y-124688600D01*
G04 #@! TO.N,/A19*
X133596380Y-129768600D02*
X133596380Y-125958600D01*
X133596380Y-125958600D02*
X134866380Y-124688600D01*
X134866380Y-122402600D02*
X168140380Y-122402600D01*
X171188380Y-75920600D02*
X171696380Y-76428600D01*
X168140380Y-75920600D02*
X171188380Y-75920600D01*
X-7627620Y-77698600D02*
X-2293620Y-77698600D01*
X-8389620Y-76936600D02*
X-7627620Y-77698600D01*
X-13215620Y-76936600D02*
X-8389620Y-76936600D01*
X-13723620Y-76428600D02*
X-13215620Y-76936600D01*
X134866380Y-122402600D02*
X-2293610Y-122402600D01*
G04 #@! TO.N,/A18*
X131056380Y-129768600D02*
X131056380Y-125958600D01*
X131056380Y-125958600D02*
X132326380Y-124688600D01*
X132326380Y-121640600D02*
X167378380Y-121640600D01*
X171188380Y-111480600D02*
X171696380Y-111988600D01*
X167378380Y-111480600D02*
X171188380Y-111480600D01*
X146804380Y-78460600D02*
X146296380Y-78968600D01*
X159758380Y-78460600D02*
X146804380Y-78460600D01*
X160520380Y-77698600D02*
X159758380Y-78460600D01*
X167378380Y-77698600D02*
X160520380Y-77698600D01*
X132326380Y-121640600D02*
X-769620Y-121640600D01*
X3548380Y-78460600D02*
X4056380Y-78968600D01*
X-769620Y-78460600D02*
X3548380Y-78460600D01*
X-13215620Y-112496600D02*
X-8389620Y-112496600D01*
X-8389620Y-112496600D02*
X-7627620Y-113258600D01*
X-13723620Y-111988600D02*
X-13215620Y-112496600D01*
X-7627620Y-113258600D02*
X-769620Y-113258600D01*
G04 #@! TO.N,/A17*
X128516380Y-125958600D02*
X129786380Y-124688600D01*
X128516380Y-129768600D02*
X128516380Y-125958600D01*
X166616358Y-120878600D02*
X166616380Y-120878622D01*
X129786380Y-120878600D02*
X166616358Y-120878600D01*
X171188380Y-103860600D02*
X171696380Y-104368600D01*
X166616380Y-103860600D02*
X171188380Y-103860600D01*
X162044380Y-83540600D02*
X161536380Y-84048600D01*
X166616380Y-83540600D02*
X162044380Y-83540600D01*
X129786380Y-120878600D02*
X-7620Y-120878600D01*
X18788380Y-83540600D02*
X19296380Y-84048600D01*
X6215380Y-83540600D02*
X18788380Y-83540600D01*
X5453380Y-82778600D02*
X6215380Y-83540600D01*
X-7620Y-82778600D02*
X5453380Y-82778600D01*
X-13215620Y-104876600D02*
X-8389620Y-104876600D01*
X-7627620Y-105638600D02*
X-7620Y-105638600D01*
X-8389620Y-104876600D02*
X-7627620Y-105638600D01*
X-13723620Y-104368600D02*
X-13215620Y-104876600D01*
G04 #@! TO.N,/A16*
X125976380Y-129768600D02*
X125976380Y-125958600D01*
X125976380Y-125958600D02*
X127246380Y-124688600D01*
X127246380Y-120116600D02*
X165600380Y-120116600D01*
X171188380Y-101320600D02*
X171696380Y-101828600D01*
X165600380Y-101320600D02*
X171188380Y-101320600D01*
X146804380Y-81000600D02*
X146296380Y-81508600D01*
X159758380Y-81000600D02*
X146804380Y-81000600D01*
X160520380Y-80238600D02*
X159758380Y-81000600D01*
X165600380Y-80238600D02*
X160520380Y-80238600D01*
X127246380Y-120116600D02*
X754380Y-120116600D01*
X3548380Y-81000600D02*
X4056380Y-81508600D01*
X754380Y-81000600D02*
X3548380Y-81000600D01*
X-13215620Y-102336600D02*
X-8389620Y-102336600D01*
X-7627620Y-103098600D02*
X754380Y-103098600D01*
X-13723620Y-101828600D02*
X-13215620Y-102336600D01*
X-8389620Y-102336600D02*
X-7627620Y-103098600D01*
G04 #@! TO.N,/A15*
X123436380Y-125958600D02*
X124706380Y-124688600D01*
X123436380Y-129768600D02*
X123436380Y-125958600D01*
X124706380Y-119354600D02*
X164838380Y-119354600D01*
X171188380Y-98780600D02*
X171696380Y-99288600D01*
X164838380Y-98780600D02*
X171188380Y-98780600D01*
X162044380Y-82016600D02*
X161536380Y-81508600D01*
X164838380Y-82016600D02*
X162044380Y-82016600D01*
X124706380Y-119354600D02*
X1516380Y-119354600D01*
X1516380Y-80238600D02*
X5580380Y-80238600D01*
X5580380Y-80238600D02*
X6342380Y-81000600D01*
X18788380Y-81000600D02*
X19296380Y-81508600D01*
X6342380Y-81000600D02*
X18788380Y-81000600D01*
X-13723620Y-99288600D02*
X-13215620Y-99796600D01*
X-13215620Y-99796600D02*
X-8389620Y-99796600D01*
X-8389620Y-99796600D02*
X-7627620Y-100558600D01*
X-7627620Y-100558600D02*
X1516380Y-100558600D01*
G04 #@! TO.N,/A14*
X134104380Y-83540600D02*
X134866380Y-82778600D01*
X134866380Y-82778600D02*
X137406380Y-82778600D01*
X145788380Y-83540600D02*
X146296380Y-84048600D01*
X121404380Y-83540600D02*
X134104380Y-83540600D01*
X137406380Y-82778600D02*
X138168380Y-83540600D01*
X120896380Y-84048600D02*
X121404380Y-83540600D01*
X138168380Y-83540600D02*
X145788380Y-83540600D01*
X90924380Y-78460600D02*
X90416380Y-78968600D01*
X103624380Y-78460600D02*
X90924380Y-78460600D01*
X104386380Y-77698600D02*
X103624380Y-78460600D01*
X120896380Y-129768600D02*
X120896380Y-125958600D01*
X120896380Y-125958600D02*
X122166380Y-124688600D01*
X104386380Y-77698600D02*
X122928380Y-77698600D01*
X4564380Y-84556600D02*
X17264380Y-84556600D01*
X4056380Y-84048600D02*
X4564380Y-84556600D01*
X29456380Y-84048600D02*
X29964380Y-84556600D01*
X46728380Y-84556600D02*
X51046380Y-84556600D01*
X28948380Y-84556600D02*
X29456380Y-84048600D01*
X43426380Y-85318600D02*
X45966380Y-85318600D01*
X29964380Y-84556600D02*
X42664380Y-84556600D01*
X18026380Y-85318600D02*
X20566380Y-85318600D01*
X17264380Y-84556600D02*
X18026380Y-85318600D01*
X51046380Y-84556600D02*
X56126380Y-79476600D01*
X42664380Y-84556600D02*
X43426380Y-85318600D01*
X20566380Y-85318600D02*
X21328380Y-84556600D01*
X56126380Y-79476600D02*
X59428380Y-79476600D01*
X45966380Y-85318600D02*
X46728380Y-84556600D01*
X59428380Y-79476600D02*
X59936380Y-78968600D01*
X21328380Y-84556600D02*
X28948380Y-84556600D01*
X59936380Y-78968600D02*
X60190380Y-78968600D01*
X60190380Y-78968600D02*
X60698380Y-78460600D01*
X60698380Y-78460600D02*
X72382380Y-78460600D01*
X72382380Y-78460600D02*
X73144380Y-77698600D01*
X73144380Y-77698600D02*
X82542380Y-77698600D01*
X82542380Y-77698600D02*
X83304380Y-78460600D01*
X89908380Y-78460600D02*
X90416380Y-78968600D01*
X83304380Y-78460600D02*
X89908380Y-78460600D01*
G04 #@! TO.N,/A13*
X144264380Y-89636600D02*
X136644380Y-89636600D01*
X145026380Y-90398600D02*
X144264380Y-89636600D01*
X161536380Y-89128600D02*
X161028380Y-89636600D01*
X147566380Y-90398600D02*
X145026380Y-90398600D01*
X136644380Y-89636600D02*
X136136380Y-89128600D01*
X148328380Y-89636600D02*
X147566380Y-90398600D01*
X161028380Y-89636600D02*
X148328380Y-89636600D01*
X118356380Y-129768600D02*
X118356380Y-125450600D01*
X118356380Y-125450600D02*
X119118380Y-124688600D01*
X106164380Y-84556600D02*
X105656380Y-84048600D01*
X108450380Y-84556600D02*
X106164380Y-84556600D01*
X113530380Y-89636600D02*
X108450380Y-84556600D01*
X119626380Y-90398600D02*
X119118380Y-89890600D01*
X122166380Y-90398600D02*
X119626380Y-90398600D01*
X122928380Y-89636600D02*
X122166380Y-90398600D01*
X135628380Y-89636600D02*
X122928380Y-89636600D01*
X118864380Y-89636600D02*
X113530380Y-89636600D01*
X136136380Y-89128600D02*
X135628380Y-89636600D01*
X119118380Y-89890600D02*
X118864380Y-89636600D01*
X75176380Y-84048600D02*
X74668380Y-83540600D01*
X45204380Y-88620600D02*
X44696380Y-89128600D01*
X61968380Y-83540600D02*
X61206380Y-82778600D01*
X28186380Y-87858600D02*
X27424380Y-88620600D01*
X74668380Y-83540600D02*
X61968380Y-83540600D01*
X56126380Y-83286600D02*
X50792380Y-88620600D01*
X58412380Y-82778600D02*
X57904380Y-83286600D01*
X31488380Y-88620600D02*
X30726380Y-87858600D01*
X30726380Y-87858600D02*
X28186380Y-87858600D01*
X50792380Y-88620600D02*
X45204380Y-88620600D01*
X44188380Y-88620600D02*
X31488380Y-88620600D01*
X44696380Y-89128600D02*
X44188380Y-88620600D01*
X57904380Y-83286600D02*
X56126380Y-83286600D01*
X61206380Y-82778600D02*
X58412380Y-82778600D01*
X27424380Y-88620600D02*
X19804380Y-88620600D01*
X19804380Y-88620600D02*
X19296380Y-89128600D01*
X92448380Y-84556600D02*
X105148380Y-84556600D01*
X78986380Y-85318600D02*
X91686380Y-85318600D01*
X75176380Y-84048600D02*
X77716380Y-84048600D01*
X105148380Y-84556600D02*
X105656380Y-84048600D01*
X91686380Y-85318600D02*
X92448380Y-84556600D01*
X77716380Y-84048600D02*
X78986380Y-85318600D01*
G04 #@! TO.N,/A12*
X145788380Y-86080600D02*
X146296380Y-86588600D01*
X138168380Y-86080600D02*
X145788380Y-86080600D01*
X137406380Y-85318600D02*
X138168380Y-86080600D01*
X134866380Y-85318600D02*
X137406380Y-85318600D01*
X134104380Y-86080600D02*
X134866380Y-85318600D01*
X121404380Y-86080600D02*
X134104380Y-86080600D01*
X120896380Y-86588600D02*
X121404380Y-86080600D01*
X115816380Y-125958600D02*
X117086380Y-124688600D01*
X115816380Y-129768600D02*
X115816380Y-125958600D01*
X120388380Y-86080600D02*
X120896380Y-86588600D01*
X117086380Y-86080600D02*
X120388380Y-86080600D01*
X107942380Y-81000600D02*
X117086380Y-81000600D01*
X107180380Y-80238600D02*
X107942380Y-81000600D01*
X104386380Y-80238600D02*
X107180380Y-80238600D01*
X103624380Y-81000600D02*
X104386380Y-80238600D01*
X90924380Y-81000600D02*
X103624380Y-81000600D01*
X90416380Y-81508600D02*
X90924380Y-81000600D01*
X51046380Y-87096600D02*
X56126380Y-82016600D01*
X29456380Y-86588600D02*
X29964380Y-87096600D01*
X4564380Y-87096600D02*
X17264380Y-87096600D01*
X21328380Y-87096600D02*
X28948380Y-87096600D01*
X17264380Y-87096600D02*
X18026380Y-87858600D01*
X28948380Y-87096600D02*
X29456380Y-86588600D01*
X46728380Y-87096600D02*
X51046380Y-87096600D01*
X20566380Y-87858600D02*
X21328380Y-87096600D01*
X56126380Y-82016600D02*
X59428380Y-82016600D01*
X45966380Y-87858600D02*
X46728380Y-87096600D01*
X59428380Y-82016600D02*
X59936380Y-81508600D01*
X43426380Y-87858600D02*
X45966380Y-87858600D01*
X4056380Y-86588600D02*
X4564380Y-87096600D01*
X29964380Y-87096600D02*
X42664380Y-87096600D01*
X18026380Y-87858600D02*
X20566380Y-87858600D01*
X42664380Y-87096600D02*
X43426380Y-87858600D01*
X90416380Y-81508600D02*
X90162380Y-81508600D01*
X90162380Y-81508600D02*
X89654380Y-81000600D01*
X89654380Y-81000600D02*
X77716380Y-81000600D01*
X77716380Y-81000600D02*
X76954380Y-80238600D01*
X76954380Y-80238600D02*
X73144380Y-80238600D01*
X73144380Y-80238600D02*
X72382380Y-81000600D01*
X60444380Y-81000600D02*
X59936380Y-81508600D01*
X72382380Y-81000600D02*
X60444380Y-81000600D01*
G04 #@! TO.N,/A11*
X122928380Y-97256600D02*
X122166380Y-98018600D01*
X145026380Y-98018600D02*
X144264380Y-97256600D01*
X161536380Y-96748600D02*
X161028380Y-97256600D01*
X144264380Y-97256600D02*
X136644380Y-97256600D01*
X135628380Y-97256600D02*
X122928380Y-97256600D01*
X136644380Y-97256600D02*
X136136380Y-96748600D01*
X148328380Y-97256600D02*
X147566380Y-98018600D01*
X147566380Y-98018600D02*
X145026380Y-98018600D01*
X161028380Y-97256600D02*
X148328380Y-97256600D01*
X136136380Y-96748600D02*
X135628380Y-97256600D01*
X113276380Y-125958600D02*
X114546380Y-124688600D01*
X113276380Y-129768600D02*
X113276380Y-125958600D01*
X122166380Y-98018600D02*
X119626380Y-98018600D01*
X118864380Y-97256600D02*
X114546380Y-97256600D01*
X119626380Y-98018600D02*
X118864380Y-97256600D01*
X106164380Y-92176600D02*
X105656380Y-91668600D01*
X109466380Y-92176600D02*
X106164380Y-92176600D01*
X114546380Y-97256600D02*
X109466380Y-92176600D01*
X58412380Y-90398600D02*
X57904380Y-90906600D01*
X50792380Y-96240600D02*
X45204380Y-96240600D01*
X44188380Y-96240600D02*
X31488380Y-96240600D01*
X57904380Y-90906600D02*
X56126380Y-90906600D01*
X27424380Y-96240600D02*
X19804380Y-96240600D01*
X30726380Y-95478600D02*
X28186380Y-95478600D01*
X44696380Y-96748600D02*
X44188380Y-96240600D01*
X19804380Y-96240600D02*
X19296380Y-96748600D01*
X61206380Y-90398600D02*
X58412380Y-90398600D01*
X31488380Y-96240600D02*
X30726380Y-95478600D01*
X74668380Y-91160600D02*
X61968380Y-91160600D01*
X75176380Y-91668600D02*
X74668380Y-91160600D01*
X61968380Y-91160600D02*
X61206380Y-90398600D01*
X28186380Y-95478600D02*
X27424380Y-96240600D01*
X56126380Y-90906600D02*
X50792380Y-96240600D01*
X45204380Y-96240600D02*
X44696380Y-96748600D01*
X75176380Y-91668600D02*
X77716380Y-91668600D01*
X78986380Y-92938600D02*
X91686380Y-92938600D01*
X91686380Y-92938600D02*
X92448380Y-92176600D01*
X92448380Y-92176600D02*
X105148380Y-92176600D01*
X105148380Y-92176600D02*
X105656380Y-91668600D01*
G04 #@! TO.N,/A10*
X144264380Y-102336600D02*
X136644380Y-102336600D01*
X148328380Y-102336600D02*
X147566380Y-103098600D01*
X161028380Y-102336600D02*
X148328380Y-102336600D01*
X147566380Y-103098600D02*
X145026380Y-103098600D01*
X136644380Y-102336600D02*
X136136380Y-101828600D01*
X145026380Y-103098600D02*
X144264380Y-102336600D01*
X161536380Y-101828600D02*
X161028380Y-102336600D01*
X110736380Y-125958600D02*
X112006380Y-124688600D01*
X110736380Y-129768600D02*
X110736380Y-125958600D01*
X106164380Y-97256600D02*
X105656380Y-96748600D01*
X109466380Y-97256600D02*
X106164380Y-97256600D01*
X114546380Y-102336600D02*
X109466380Y-97256600D01*
X119626380Y-103098600D02*
X118864380Y-102336600D01*
X122928380Y-102336600D02*
X122166380Y-103098600D01*
X118864380Y-102336600D02*
X114546380Y-102336600D01*
X135628380Y-102336600D02*
X122928380Y-102336600D01*
X122166380Y-103098600D02*
X119626380Y-103098600D01*
X136136380Y-101828600D02*
X135628380Y-102336600D01*
X44188380Y-101320600D02*
X31488380Y-101320600D01*
X74668380Y-96240600D02*
X61968380Y-96240600D01*
X44696380Y-101828600D02*
X44188380Y-101320600D01*
X75176380Y-96748600D02*
X74668380Y-96240600D01*
X50792380Y-101320600D02*
X45204380Y-101320600D01*
X30726380Y-100558600D02*
X28186380Y-100558600D01*
X57904380Y-95986600D02*
X56126380Y-95986600D01*
X31488380Y-101320600D02*
X30726380Y-100558600D01*
X58412380Y-95478600D02*
X57904380Y-95986600D01*
X56126380Y-95986600D02*
X50792380Y-101320600D01*
X61968380Y-96240600D02*
X61206380Y-95478600D01*
X61206380Y-95478600D02*
X58412380Y-95478600D01*
X19804380Y-101320600D02*
X19296380Y-101828600D01*
X28186380Y-100558600D02*
X27424380Y-101320600D01*
X27424380Y-101320600D02*
X19804380Y-101320600D01*
X45204380Y-101320600D02*
X44696380Y-101828600D01*
X78986380Y-98018600D02*
X91686380Y-98018600D01*
X75176380Y-96748600D02*
X77716380Y-96748600D01*
X105148380Y-97256600D02*
X105656380Y-96748600D01*
X92448380Y-97256600D02*
X105148380Y-97256600D01*
X91686380Y-98018600D02*
X92448380Y-97256600D01*
G04 #@! TO.N,/A9*
X147566380Y-95478600D02*
X145026380Y-95478600D01*
X161028380Y-94716600D02*
X148328380Y-94716600D01*
X161536380Y-94208600D02*
X161028380Y-94716600D01*
X145026380Y-95478600D02*
X144264380Y-94716600D01*
X148328380Y-94716600D02*
X147566380Y-95478600D01*
X136644380Y-94716600D02*
X136136380Y-94208600D01*
X144264380Y-94716600D02*
X136644380Y-94716600D01*
X106164380Y-89636600D02*
X105656380Y-89128600D01*
X136136380Y-94208600D02*
X135628380Y-94716600D01*
X135628380Y-94716600D02*
X122928380Y-94716600D01*
X109466380Y-89636600D02*
X106164380Y-89636600D01*
X122928380Y-94716600D02*
X122166380Y-95478600D01*
X108196380Y-125958600D02*
X109466380Y-124688600D01*
X108196380Y-129768600D02*
X108196380Y-125958600D01*
X119626380Y-95478600D02*
X118864380Y-94716600D01*
X122166380Y-95478600D02*
X119626380Y-95478600D01*
X118864380Y-94716600D02*
X114546380Y-94716600D01*
X114546380Y-94716600D02*
X109466380Y-89636600D01*
X61206380Y-87858600D02*
X58412380Y-87858600D01*
X50792380Y-93700600D02*
X45204380Y-93700600D01*
X44696380Y-94208600D02*
X44188380Y-93700600D01*
X31488380Y-93700600D02*
X30726380Y-92938600D01*
X74668380Y-88620600D02*
X61968380Y-88620600D01*
X19804380Y-93700600D02*
X19296380Y-94208600D01*
X75176380Y-89128600D02*
X74668380Y-88620600D01*
X56126380Y-88366600D02*
X50792380Y-93700600D01*
X45204380Y-93700600D02*
X44696380Y-94208600D01*
X58412380Y-87858600D02*
X57904380Y-88366600D01*
X57904380Y-88366600D02*
X56126380Y-88366600D01*
X30726380Y-92938600D02*
X28186380Y-92938600D01*
X61968380Y-88620600D02*
X61206380Y-87858600D01*
X44188380Y-93700600D02*
X31488380Y-93700600D01*
X28186380Y-92938600D02*
X27424380Y-93700600D01*
X27424380Y-93700600D02*
X19804380Y-93700600D01*
X75176380Y-89128600D02*
X77716380Y-89128600D01*
X78986380Y-90398600D02*
X91686380Y-90398600D01*
X91686380Y-90398600D02*
X92448380Y-89636600D01*
X105148380Y-89636600D02*
X105656380Y-89128600D01*
X92448380Y-89636600D02*
X105148380Y-89636600D01*
G04 #@! TO.N,/A8*
X148328380Y-92176600D02*
X147566380Y-92938600D01*
X145026380Y-92938600D02*
X144264380Y-92176600D01*
X161536380Y-91668600D02*
X161028380Y-92176600D01*
X147566380Y-92938600D02*
X145026380Y-92938600D01*
X161028380Y-92176600D02*
X148328380Y-92176600D01*
X136644380Y-92176600D02*
X136136380Y-91668600D01*
X144264380Y-92176600D02*
X136644380Y-92176600D01*
X105656380Y-129768600D02*
X105656380Y-125958600D01*
X105656380Y-125958600D02*
X106926380Y-124688600D01*
X106164380Y-87096600D02*
X105656380Y-86588600D01*
X109466380Y-87096600D02*
X106164380Y-87096600D01*
X114546380Y-92176600D02*
X109466380Y-87096600D01*
X118864380Y-92176600D02*
X114546380Y-92176600D01*
X119626380Y-92938600D02*
X118864380Y-92176600D01*
X122166380Y-92938600D02*
X119626380Y-92938600D01*
X122928380Y-92176600D02*
X122166380Y-92938600D01*
X135628380Y-92176600D02*
X122928380Y-92176600D01*
X136136380Y-91668600D02*
X135628380Y-92176600D01*
X27424380Y-91160600D02*
X19804380Y-91160600D01*
X61206380Y-85318600D02*
X58412380Y-85318600D01*
X19804380Y-91160600D02*
X19296380Y-91668600D01*
X50792380Y-91160600D02*
X45204380Y-91160600D01*
X57904380Y-85826600D02*
X56126380Y-85826600D01*
X44696380Y-91668600D02*
X44188380Y-91160600D01*
X56126380Y-85826600D02*
X50792380Y-91160600D01*
X31488380Y-91160600D02*
X30726380Y-90398600D01*
X30726380Y-90398600D02*
X28186380Y-90398600D01*
X61968380Y-86080600D02*
X61206380Y-85318600D01*
X44188380Y-91160600D02*
X31488380Y-91160600D01*
X74668380Y-86080600D02*
X61968380Y-86080600D01*
X58412380Y-85318600D02*
X57904380Y-85826600D01*
X45204380Y-91160600D02*
X44696380Y-91668600D01*
X28186380Y-90398600D02*
X27424380Y-91160600D01*
X75176380Y-86588600D02*
X74668380Y-86080600D01*
X75176380Y-86588600D02*
X77716380Y-86588600D01*
X78986380Y-87858600D02*
X91686380Y-87858600D01*
X91686380Y-87858600D02*
X92448380Y-87096600D01*
X105148380Y-87096600D02*
X105656380Y-86588600D01*
X92448380Y-87096600D02*
X105148380Y-87096600D01*
G04 #@! TO.N,/A7*
X138168380Y-88620600D02*
X145788380Y-88620600D01*
X134866380Y-87858600D02*
X137406380Y-87858600D01*
X145788380Y-88620600D02*
X146296380Y-89128600D01*
X120896380Y-89128600D02*
X121404380Y-88620600D01*
X121404380Y-88620600D02*
X134104380Y-88620600D01*
X137406380Y-87858600D02*
X138168380Y-88620600D01*
X134104380Y-88620600D02*
X134866380Y-87858600D01*
X120388380Y-88620600D02*
X120896380Y-89128600D01*
X113276380Y-88620600D02*
X120388380Y-88620600D01*
X107942380Y-83286600D02*
X113276380Y-88620600D01*
X107688380Y-83286600D02*
X107942380Y-83286600D01*
X107180380Y-82778600D02*
X107688380Y-83286600D01*
X104386380Y-82778600D02*
X107180380Y-82778600D01*
X103624380Y-83540600D02*
X104386380Y-82778600D01*
X90924380Y-83540600D02*
X103624380Y-83540600D01*
X90416380Y-84048600D02*
X90924380Y-83540600D01*
X103116380Y-125196600D02*
X103624380Y-124688600D01*
X103116380Y-129768600D02*
X103116380Y-125196600D01*
X4564380Y-89636600D02*
X17264380Y-89636600D01*
X51046380Y-89636600D02*
X56126380Y-84556600D01*
X59428380Y-84556600D02*
X59936380Y-84048600D01*
X29964380Y-89636600D02*
X42664380Y-89636600D01*
X21328380Y-89636600D02*
X28948380Y-89636600D01*
X18026380Y-90398600D02*
X20566380Y-90398600D01*
X56126380Y-84556600D02*
X59428380Y-84556600D01*
X42664380Y-89636600D02*
X43426380Y-90398600D01*
X4056380Y-89128600D02*
X4564380Y-89636600D01*
X46728380Y-89636600D02*
X51046380Y-89636600D01*
X45966380Y-90398600D02*
X46728380Y-89636600D01*
X28948380Y-89636600D02*
X29456380Y-89128600D01*
X17264380Y-89636600D02*
X18026380Y-90398600D01*
X20566380Y-90398600D02*
X21328380Y-89636600D01*
X29456380Y-89128600D02*
X29964380Y-89636600D01*
X43426380Y-90398600D02*
X45966380Y-90398600D01*
X77970380Y-85318600D02*
X73398380Y-85318600D01*
X60444380Y-84556600D02*
X59936380Y-84048600D01*
X72636380Y-84556600D02*
X60444380Y-84556600D01*
X73398380Y-85318600D02*
X72636380Y-84556600D01*
X90416380Y-84048600D02*
X89908380Y-84556600D01*
X90416380Y-84048600D02*
X83812380Y-84048600D01*
X77970380Y-85318600D02*
X78732380Y-86080600D01*
X78732380Y-86080600D02*
X83812380Y-86080600D01*
G04 #@! TO.N,/A6*
X138168380Y-91160600D02*
X145788380Y-91160600D01*
X137406380Y-90398600D02*
X138168380Y-91160600D01*
X120896380Y-91668600D02*
X121404380Y-91160600D01*
X134866380Y-90398600D02*
X137406380Y-90398600D01*
X145788380Y-91160600D02*
X146296380Y-91668600D01*
X134104380Y-91160600D02*
X134866380Y-90398600D01*
X121404380Y-91160600D02*
X134104380Y-91160600D01*
X120388380Y-91160600D02*
X120896380Y-91668600D01*
X114292380Y-91160600D02*
X120388380Y-91160600D01*
X107688380Y-85826600D02*
X108958380Y-85826600D01*
X107180380Y-85318600D02*
X107688380Y-85826600D01*
X104386380Y-85318600D02*
X107180380Y-85318600D01*
X103624380Y-86080600D02*
X104386380Y-85318600D01*
X108958380Y-85826600D02*
X114292380Y-91160600D01*
X90924380Y-86080600D02*
X101846380Y-86080600D01*
X90416380Y-86588600D02*
X90924380Y-86080600D01*
X100576380Y-129768600D02*
X100576380Y-125958600D01*
X100576380Y-125958600D02*
X101846380Y-124688600D01*
X101846380Y-86080600D02*
X103624380Y-86080600D01*
X21328380Y-92176600D02*
X28948380Y-92176600D01*
X18026380Y-92938600D02*
X20566380Y-92938600D01*
X45966380Y-92938600D02*
X46728380Y-92176600D01*
X4564380Y-92176600D02*
X17264380Y-92176600D01*
X43426380Y-92938600D02*
X45966380Y-92938600D01*
X46728380Y-92176600D02*
X51046380Y-92176600D01*
X4056380Y-91668600D02*
X4564380Y-92176600D01*
X29964380Y-92176600D02*
X42664380Y-92176600D01*
X20566380Y-92938600D02*
X21328380Y-92176600D01*
X17264380Y-92176600D02*
X18026380Y-92938600D01*
X42664380Y-92176600D02*
X43426380Y-92938600D01*
X28948380Y-92176600D02*
X29456380Y-91668600D01*
X59428380Y-87096600D02*
X59936380Y-86588600D01*
X56126380Y-87096600D02*
X59428380Y-87096600D01*
X51046380Y-92176600D02*
X56126380Y-87096600D01*
X29456380Y-91668600D02*
X29964380Y-92176600D01*
X72636380Y-87096600D02*
X60444380Y-87096600D01*
X73398380Y-87858600D02*
X72636380Y-87096600D01*
X60444380Y-87096600D02*
X59936380Y-86588600D01*
X77716380Y-87858600D02*
X73398380Y-87858600D01*
X89908380Y-87096600D02*
X78478380Y-87096600D01*
X78478380Y-87096600D02*
X77716380Y-87858600D01*
X90416380Y-86588600D02*
X89908380Y-87096600D01*
G04 #@! TO.N,/A5*
X73398380Y-90398600D02*
X72636380Y-89636600D01*
X77716380Y-90398600D02*
X73398380Y-90398600D01*
X78478380Y-89636600D02*
X77716380Y-90398600D01*
X72636380Y-89636600D02*
X60444380Y-89636600D01*
X90416380Y-89128600D02*
X89908380Y-89636600D01*
X60444380Y-89636600D02*
X59936380Y-89128600D01*
X89908380Y-89636600D02*
X78478380Y-89636600D01*
X56126380Y-89636600D02*
X59428380Y-89636600D01*
X29964380Y-94716600D02*
X42664380Y-94716600D01*
X20566380Y-95478600D02*
X21328380Y-94716600D01*
X4564380Y-94716600D02*
X17264380Y-94716600D01*
X4056380Y-94208600D02*
X4564380Y-94716600D01*
X28948380Y-94716600D02*
X29456380Y-94208600D01*
X46728380Y-94716600D02*
X51046380Y-94716600D01*
X29456380Y-94208600D02*
X29964380Y-94716600D01*
X45966380Y-95478600D02*
X46728380Y-94716600D01*
X42664380Y-94716600D02*
X43426380Y-95478600D01*
X43426380Y-95478600D02*
X45966380Y-95478600D01*
X59428380Y-89636600D02*
X59936380Y-89128600D01*
X17264380Y-94716600D02*
X18026380Y-95478600D01*
X51046380Y-94716600D02*
X56126380Y-89636600D01*
X21328380Y-94716600D02*
X28948380Y-94716600D01*
X18026380Y-95478600D02*
X20566380Y-95478600D01*
X114800380Y-93700600D02*
X120388380Y-93700600D01*
X104386380Y-87858600D02*
X107180380Y-87858600D01*
X90924380Y-88620600D02*
X99306380Y-88620600D01*
X107180380Y-87858600D02*
X107688380Y-88366600D01*
X120388380Y-93700600D02*
X120896380Y-94208600D01*
X103624380Y-88620600D02*
X104386380Y-87858600D01*
X109466380Y-88366600D02*
X114800380Y-93700600D01*
X107688380Y-88366600D02*
X109466380Y-88366600D01*
X90416380Y-89128600D02*
X90924380Y-88620600D01*
X138168380Y-93700600D02*
X145788380Y-93700600D01*
X134866380Y-92938600D02*
X137406380Y-92938600D01*
X145788380Y-93700600D02*
X146296380Y-94208600D01*
X120896380Y-94208600D02*
X121404380Y-93700600D01*
X121404380Y-93700600D02*
X134104380Y-93700600D01*
X137406380Y-92938600D02*
X138168380Y-93700600D01*
X134104380Y-93700600D02*
X134866380Y-92938600D01*
X98036380Y-125958600D02*
X99306380Y-124688600D01*
X98036380Y-129768600D02*
X98036380Y-125958600D01*
X99306380Y-88620600D02*
X103624380Y-88620600D01*
X90416380Y-89128600D02*
X90162380Y-89128600D01*
G04 #@! TO.N,/A4*
X73398380Y-92938600D02*
X72636380Y-92176600D01*
X77716380Y-92938600D02*
X73398380Y-92938600D01*
X78478380Y-92176600D02*
X77716380Y-92938600D01*
X72636380Y-92176600D02*
X60444380Y-92176600D01*
X90416380Y-91668600D02*
X89908380Y-92176600D01*
X60444380Y-92176600D02*
X59936380Y-91668600D01*
X89908380Y-92176600D02*
X78478380Y-92176600D01*
X103624380Y-91160600D02*
X104386380Y-90398600D01*
X121404380Y-96240600D02*
X134104380Y-96240600D01*
X109466380Y-90906600D02*
X114800380Y-96240600D01*
X134866380Y-95478600D02*
X137406380Y-95478600D01*
X134104380Y-96240600D02*
X134866380Y-95478600D01*
X120896380Y-96748600D02*
X121404380Y-96240600D01*
X104386380Y-90398600D02*
X107180380Y-90398600D01*
X107180380Y-90398600D02*
X107688380Y-90906600D01*
X120388380Y-96240600D02*
X120896380Y-96748600D01*
X90416380Y-91668600D02*
X90924380Y-91160600D01*
X145788380Y-96240600D02*
X146296380Y-96748600D01*
X138168380Y-96240600D02*
X145788380Y-96240600D01*
X107688380Y-90906600D02*
X109466380Y-90906600D01*
X90924380Y-91160600D02*
X96766380Y-91160600D01*
X137406380Y-95478600D02*
X138168380Y-96240600D01*
X114800380Y-96240600D02*
X120388380Y-96240600D01*
X95496380Y-129768600D02*
X95496380Y-125958600D01*
X95496380Y-125958600D02*
X96766380Y-124688600D01*
X96766380Y-91160600D02*
X103624380Y-91160600D01*
X56126380Y-92176600D02*
X59428380Y-92176600D01*
X21328380Y-97256600D02*
X28948380Y-97256600D01*
X18026380Y-98018600D02*
X20566380Y-98018600D01*
X29964380Y-97256600D02*
X42664380Y-97256600D01*
X28948380Y-97256600D02*
X29456380Y-96748600D01*
X4564380Y-97256600D02*
X17264380Y-97256600D01*
X29456380Y-96748600D02*
X29964380Y-97256600D01*
X4056380Y-96748600D02*
X4564380Y-97256600D01*
X17264380Y-97256600D02*
X18026380Y-98018600D01*
X59428380Y-92176600D02*
X59936380Y-91668600D01*
X43426380Y-98018600D02*
X45966380Y-98018600D01*
X46728380Y-97256600D02*
X51046380Y-97256600D01*
X42664380Y-97256600D02*
X43426380Y-98018600D01*
X20566380Y-98018600D02*
X21328380Y-97256600D01*
X51046380Y-97256600D02*
X56126380Y-92176600D01*
X45966380Y-98018600D02*
X46728380Y-97256600D01*
G04 #@! TO.N,/A3*
X72636380Y-94716600D02*
X60444380Y-94716600D01*
X78478380Y-94716600D02*
X77716380Y-95478600D01*
X90416380Y-94208600D02*
X89908380Y-94716600D01*
X60444380Y-94716600D02*
X59936380Y-94208600D01*
X73398380Y-95478600D02*
X72636380Y-94716600D01*
X77716380Y-95478600D02*
X73398380Y-95478600D01*
X89908380Y-94716600D02*
X78478380Y-94716600D01*
X103624380Y-93700600D02*
X104386380Y-92938600D01*
X121404380Y-98780600D02*
X134104380Y-98780600D01*
X134866380Y-98018600D02*
X137406380Y-98018600D01*
X134104380Y-98780600D02*
X134866380Y-98018600D01*
X104386380Y-92938600D02*
X107180380Y-92938600D01*
X120388380Y-98780600D02*
X120896380Y-99288600D01*
X120896380Y-99288600D02*
X121404380Y-98780600D01*
X90416380Y-94208600D02*
X90924380Y-93700600D01*
X107180380Y-92938600D02*
X107688380Y-93446600D01*
X145788380Y-98780600D02*
X146296380Y-99288600D01*
X138168380Y-98780600D02*
X145788380Y-98780600D01*
X107688380Y-93446600D02*
X109466380Y-93446600D01*
X90924380Y-93700600D02*
X94226380Y-93700600D01*
X137406380Y-98018600D02*
X138168380Y-98780600D01*
X109466380Y-93446600D02*
X114800380Y-98780600D01*
X114800380Y-98780600D02*
X120388380Y-98780600D01*
X92956380Y-125958600D02*
X94226380Y-124688600D01*
X92956380Y-129768600D02*
X92956380Y-125958600D01*
X94226380Y-93700600D02*
X103624380Y-93700600D01*
X20566380Y-100558600D02*
X21328380Y-99796600D01*
X17264380Y-99796600D02*
X18026380Y-100558600D01*
X21328380Y-99796600D02*
X28948380Y-99796600D01*
X56126380Y-94716600D02*
X59428380Y-94716600D01*
X18026380Y-100558600D02*
X20566380Y-100558600D01*
X29456380Y-99288600D02*
X29964380Y-99796600D01*
X4564380Y-99796600D02*
X17264380Y-99796600D01*
X59428380Y-94716600D02*
X59936380Y-94208600D01*
X45966380Y-100558600D02*
X46728380Y-99796600D01*
X4056380Y-99288600D02*
X4564380Y-99796600D01*
X51046380Y-99796600D02*
X56126380Y-94716600D01*
X42664380Y-99796600D02*
X43426380Y-100558600D01*
X28948380Y-99796600D02*
X29456380Y-99288600D01*
X43426380Y-100558600D02*
X45966380Y-100558600D01*
X29964380Y-99796600D02*
X42664380Y-99796600D01*
X46728380Y-99796600D02*
X51046380Y-99796600D01*
G04 #@! TO.N,/A2*
X90416380Y-96748600D02*
X89908380Y-97256600D01*
X60444380Y-97256600D02*
X59936380Y-96748600D01*
X78478380Y-97256600D02*
X77716380Y-98018600D01*
X72636380Y-97256600D02*
X60444380Y-97256600D01*
X73398380Y-98018600D02*
X72636380Y-97256600D01*
X77716380Y-98018600D02*
X73398380Y-98018600D01*
X89908380Y-97256600D02*
X78478380Y-97256600D01*
X90416380Y-96748600D02*
X90924380Y-96240600D01*
X138168380Y-101320600D02*
X145788380Y-101320600D01*
X137406380Y-100558600D02*
X138168380Y-101320600D01*
X90924380Y-96240600D02*
X103624380Y-96240600D01*
X120388380Y-101320600D02*
X120896380Y-101828600D01*
X107688380Y-95986600D02*
X109466380Y-95986600D01*
X104386380Y-95478600D02*
X107180380Y-95478600D01*
X145788380Y-101320600D02*
X146296380Y-101828600D01*
X134104380Y-101320600D02*
X134866380Y-100558600D01*
X120896380Y-101828600D02*
X121404380Y-101320600D01*
X114800380Y-101320600D02*
X120388380Y-101320600D01*
X121404380Y-101320600D02*
X134104380Y-101320600D01*
X109466380Y-95986600D02*
X114800380Y-101320600D01*
X103624380Y-96240600D02*
X104386380Y-95478600D01*
X107180380Y-95478600D02*
X107688380Y-95986600D01*
X134866380Y-100558600D02*
X137406380Y-100558600D01*
X90416380Y-125958600D02*
X91686380Y-124688600D01*
X90416380Y-129768600D02*
X90416380Y-125958600D01*
X21328380Y-102336600D02*
X28948380Y-102336600D01*
X20566380Y-103098600D02*
X21328380Y-102336600D01*
X43426380Y-103098600D02*
X45966380Y-103098600D01*
X17264380Y-102336600D02*
X18026380Y-103098600D01*
X46728380Y-102336600D02*
X51046380Y-102336600D01*
X4056380Y-101828600D02*
X4564380Y-102336600D01*
X4564380Y-102336600D02*
X17264380Y-102336600D01*
X56126380Y-97256600D02*
X59428380Y-97256600D01*
X42664380Y-102336600D02*
X43426380Y-103098600D01*
X29456380Y-101828600D02*
X29964380Y-102336600D01*
X51046380Y-102336600D02*
X56126380Y-97256600D01*
X28948380Y-102336600D02*
X29456380Y-101828600D01*
X29964380Y-102336600D02*
X42664380Y-102336600D01*
X45966380Y-103098600D02*
X46728380Y-102336600D01*
X18026380Y-103098600D02*
X20566380Y-103098600D01*
X59428380Y-97256600D02*
X59936380Y-96748600D01*
G04 #@! TO.N,/A1*
X104386380Y-98018600D02*
X107180380Y-98018600D01*
X120896380Y-104368600D02*
X121404380Y-103860600D01*
X145788380Y-103860600D02*
X146296380Y-104368600D01*
X114800380Y-103860600D02*
X120388380Y-103860600D01*
X109466380Y-98526600D02*
X114800380Y-103860600D01*
X103624380Y-98780600D02*
X104386380Y-98018600D01*
X120388380Y-103860600D02*
X120896380Y-104368600D01*
X107180380Y-98018600D02*
X107688380Y-98526600D01*
X137406380Y-103098600D02*
X138168380Y-103860600D01*
X138168380Y-103860600D02*
X145788380Y-103860600D01*
X121404380Y-103860600D02*
X134104380Y-103860600D01*
X134104380Y-103860600D02*
X134866380Y-103098600D01*
X90416380Y-99288600D02*
X90924380Y-98780600D01*
X90924380Y-98780600D02*
X103624380Y-98780600D01*
X107688380Y-98526600D02*
X109466380Y-98526600D01*
X134866380Y-103098600D02*
X137406380Y-103098600D01*
X87876380Y-125196600D02*
X88384380Y-124688600D01*
X87876380Y-129768600D02*
X87876380Y-125196600D01*
X56126380Y-99796600D02*
X59428380Y-99796600D01*
X59428380Y-99796600D02*
X59936380Y-99288600D01*
X51046380Y-104876600D02*
X56126380Y-99796600D01*
X45966380Y-105638600D02*
X46728380Y-104876600D01*
X28948380Y-104876600D02*
X29456380Y-104368600D01*
X18026380Y-105638600D02*
X20566380Y-105638600D01*
X4564380Y-104876600D02*
X17264380Y-104876600D01*
X29456380Y-104368600D02*
X29964380Y-104876600D01*
X42664380Y-104876600D02*
X43426380Y-105638600D01*
X29964380Y-104876600D02*
X42664380Y-104876600D01*
X20566380Y-105638600D02*
X21328380Y-104876600D01*
X17264380Y-104876600D02*
X18026380Y-105638600D01*
X46728380Y-104876600D02*
X51046380Y-104876600D01*
X4056380Y-104368600D02*
X4564380Y-104876600D01*
X43426380Y-105638600D02*
X45966380Y-105638600D01*
X21328380Y-104876600D02*
X28948380Y-104876600D01*
X60444380Y-99796600D02*
X59936380Y-99288600D01*
X72636380Y-99796600D02*
X60444380Y-99796600D01*
X89908380Y-99796600D02*
X88384380Y-99796600D01*
X73398380Y-100558600D02*
X72636380Y-99796600D01*
X78478380Y-99796600D02*
X77716380Y-100558600D01*
X90416380Y-99288600D02*
X89908380Y-99796600D01*
X77716380Y-100558600D02*
X73398380Y-100558600D01*
X88384380Y-99796600D02*
X78478380Y-99796600D01*
D18*
G04 #@! TO.N,/A0*
X172204380Y-73380600D02*
X171696380Y-73888600D01*
D19*
X85336380Y-129768600D02*
X85336380Y-125958600D01*
X85336380Y-125958600D02*
X86606380Y-124688600D01*
X171696380Y-68046600D02*
X86606380Y-68046600D01*
G04 #@! TO.N,/MWR*
X19804380Y-86080600D02*
X19296380Y-86588600D01*
X31488380Y-86080600D02*
X30726380Y-85318600D01*
X28186380Y-85318600D02*
X27424380Y-86080600D01*
X30726380Y-85318600D02*
X28186380Y-85318600D01*
X27424380Y-86080600D02*
X19804380Y-86080600D01*
X44188380Y-86080600D02*
X31488380Y-86080600D01*
X44696380Y-86588600D02*
X44188380Y-86080600D01*
X147566380Y-87858600D02*
X145026380Y-87858600D01*
X161028380Y-87096600D02*
X148328380Y-87096600D01*
X144264380Y-87096600D02*
X136644380Y-87096600D01*
X148328380Y-87096600D02*
X147566380Y-87858600D01*
X145026380Y-87858600D02*
X144264380Y-87096600D01*
X161536380Y-86588600D02*
X161028380Y-87096600D01*
X136644380Y-87096600D02*
X136136380Y-86588600D01*
X136136380Y-86588600D02*
X135628380Y-87096600D01*
X136136380Y-123164600D02*
X138168380Y-123164600D01*
X136136380Y-123164600D02*
X47236380Y-123164600D01*
X45204380Y-86080600D02*
X44696380Y-86588600D01*
X47236380Y-86080600D02*
X45204380Y-86080600D01*
G04 #@! TO.N,/MRD*
X92448380Y-94716600D02*
X105148380Y-94716600D01*
X105148380Y-94716600D02*
X105656380Y-94208600D01*
X75176380Y-94208600D02*
X77716380Y-94208600D01*
X78986380Y-95478600D02*
X91686380Y-95478600D01*
X91686380Y-95478600D02*
X92448380Y-94716600D01*
X136644380Y-99796600D02*
X136136380Y-99288600D01*
X148328380Y-99796600D02*
X147566380Y-100558600D01*
X145026380Y-100558600D02*
X144264380Y-99796600D01*
X161536380Y-99288600D02*
X161028380Y-99796600D01*
X144264380Y-99796600D02*
X136644380Y-99796600D01*
X161028380Y-99796600D02*
X148328380Y-99796600D01*
X147566380Y-100558600D02*
X145026380Y-100558600D01*
X106164380Y-94716600D02*
X105656380Y-94208600D01*
X109466380Y-94716600D02*
X106164380Y-94716600D01*
X119626380Y-100558600D02*
X118864380Y-99796600D01*
X122166380Y-100558600D02*
X119626380Y-100558600D01*
X122928380Y-99796600D02*
X122166380Y-100558600D01*
X114546380Y-99796600D02*
X109466380Y-94716600D01*
X135628380Y-99796600D02*
X122928380Y-99796600D01*
X118864380Y-99796600D02*
X114546380Y-99796600D01*
X136136380Y-99288600D02*
X135628380Y-99796600D01*
X50792380Y-98780600D02*
X45204380Y-98780600D01*
X75176380Y-94208600D02*
X74668380Y-93700600D01*
X58412380Y-92938600D02*
X57904380Y-93446600D01*
X56126380Y-93446600D02*
X50792380Y-98780600D01*
X74668380Y-93700600D02*
X61968380Y-93700600D01*
X28186380Y-98018600D02*
X27424380Y-98780600D01*
X45204380Y-98780600D02*
X44696380Y-99288600D01*
X44188380Y-98780600D02*
X31488380Y-98780600D01*
X61968380Y-93700600D02*
X61206380Y-92938600D01*
X31488380Y-98780600D02*
X30726380Y-98018600D01*
X19804380Y-98780600D02*
X19296380Y-99288600D01*
X61206380Y-92938600D02*
X58412380Y-92938600D01*
X30726380Y-98018600D02*
X28186380Y-98018600D01*
X27424380Y-98780600D02*
X19804380Y-98780600D01*
X44696380Y-99288600D02*
X44188380Y-98780600D01*
X57904380Y-93446600D02*
X56126380Y-93446600D01*
G04 #@! TO.N,/32K_RAM_CS_EVEN*
X170064379Y-115690599D02*
X169664380Y-115290600D01*
X177938379Y-115690599D02*
X170064379Y-115690599D01*
X179316380Y-117068600D02*
X177938379Y-115690599D01*
X136136380Y-104368600D02*
X136644380Y-104876600D01*
X136644380Y-104876600D02*
X140200380Y-104876600D01*
X140200380Y-71856600D02*
X169664380Y-71856600D01*
G04 #@! TO.N,/32K_ROM_CS_EVEN*
X171696380Y-114528600D02*
X171188380Y-114020600D01*
X171188380Y-114020600D02*
X168902380Y-114020600D01*
X105656380Y-99288600D02*
X105148380Y-99796600D01*
X105148380Y-99796600D02*
X100576380Y-99796600D01*
X168902380Y-72618600D02*
X100576380Y-72618600D01*
G04 #@! TO.N,/512K_CS_EVEN*
X162044380Y-103860600D02*
X161536380Y-104368600D01*
X164076380Y-103860600D02*
X162044380Y-103860600D01*
X171188380Y-81000600D02*
X164076380Y-81000600D01*
X171696380Y-81508600D02*
X171188380Y-81000600D01*
G04 #@! TO.N,/UPPER_512K_EVEN*
X171696380Y-84048600D02*
X172204380Y-84556600D01*
X172204380Y-84556600D02*
X175506380Y-84556600D01*
X171950380Y-107162600D02*
X171696380Y-106908600D01*
X175506380Y-107162600D02*
X171950380Y-107162600D01*
G04 #@! TO.N,/D11*
X50792380Y-116560600D02*
X45204380Y-116560600D01*
X61968380Y-111480600D02*
X61206380Y-110718600D01*
X19804380Y-116560600D02*
X19296380Y-117068600D01*
X45204380Y-116560600D02*
X44696380Y-117068600D01*
X57904380Y-111226600D02*
X56126380Y-111226600D01*
X61206380Y-110718600D02*
X58412380Y-110718600D01*
X28186380Y-115798600D02*
X27424380Y-116560600D01*
X44696380Y-117068600D02*
X44188380Y-116560600D01*
X56126380Y-111226600D02*
X50792380Y-116560600D01*
X58412380Y-110718600D02*
X57904380Y-111226600D01*
X27424380Y-116560600D02*
X19804380Y-116560600D01*
X44188380Y-116560600D02*
X31488380Y-116560600D01*
X31488380Y-116560600D02*
X30726380Y-115798600D01*
X75176380Y-111988600D02*
X74668380Y-111480600D01*
X74668380Y-111480600D02*
X61968380Y-111480600D01*
X30726380Y-115798600D02*
X28186380Y-115798600D01*
X42156380Y-129768600D02*
X42156380Y-125196600D01*
X42156380Y-125196600D02*
X42664380Y-124688600D01*
G04 #@! TO.N,/D12*
X75176380Y-109448600D02*
X74668380Y-108940600D01*
X31488380Y-114020600D02*
X30726380Y-113258600D01*
X61968380Y-108940600D02*
X61206380Y-108178600D01*
X44696380Y-114528600D02*
X44188380Y-114020600D01*
X74668380Y-108940600D02*
X61968380Y-108940600D01*
X56126380Y-108686600D02*
X50792380Y-114020600D01*
X50792380Y-114020600D02*
X45204380Y-114020600D01*
X44188380Y-114020600D02*
X31488380Y-114020600D01*
X61206380Y-108178600D02*
X58412380Y-108178600D01*
X30726380Y-113258600D02*
X28186380Y-113258600D01*
X19804380Y-114020600D02*
X19296380Y-114528600D01*
X57904380Y-108686600D02*
X56126380Y-108686600D01*
X58412380Y-108178600D02*
X57904380Y-108686600D01*
X18788380Y-114020600D02*
X19296380Y-114528600D01*
X45204380Y-114020600D02*
X44696380Y-114528600D01*
X28186380Y-113258600D02*
X27424380Y-114020600D01*
X27424380Y-114020600D02*
X19804380Y-114020600D01*
X39616380Y-125196600D02*
X40124380Y-124688600D01*
X39616380Y-129768600D02*
X39616380Y-125196600D01*
G04 #@! TO.N,/D10*
X46728380Y-115036600D02*
X51046380Y-115036600D01*
X21328380Y-115036600D02*
X28948380Y-115036600D01*
X4056380Y-114528600D02*
X4564380Y-115036600D01*
X20566380Y-115798600D02*
X21328380Y-115036600D01*
X43426380Y-115798600D02*
X45966380Y-115798600D01*
X17264380Y-115036600D02*
X18026380Y-115798600D01*
X18026380Y-115798600D02*
X20566380Y-115798600D01*
X4564380Y-115036600D02*
X17264380Y-115036600D01*
X51046380Y-115036600D02*
X56126380Y-109956600D01*
X42664380Y-115036600D02*
X43426380Y-115798600D01*
X29456380Y-114528600D02*
X29964380Y-115036600D01*
X45966380Y-115798600D02*
X46728380Y-115036600D01*
X59428380Y-109956600D02*
X59936380Y-109448600D01*
X56126380Y-109956600D02*
X59428380Y-109956600D01*
X28948380Y-115036600D02*
X29456380Y-114528600D01*
X29964380Y-115036600D02*
X42664380Y-115036600D01*
X44696380Y-129768600D02*
X44696380Y-125196600D01*
X44696380Y-125196600D02*
X45204380Y-124688600D01*
G04 #@! TO.N,/D13*
X30726380Y-110718600D02*
X28186380Y-110718600D01*
X44188380Y-111480600D02*
X31488380Y-111480600D01*
X45204380Y-111480600D02*
X44696380Y-111988600D01*
X61968380Y-106400600D02*
X61206380Y-105638600D01*
X31488380Y-111480600D02*
X30726380Y-110718600D01*
X61206380Y-105638600D02*
X58412380Y-105638600D01*
X27424380Y-111480600D02*
X19804380Y-111480600D01*
X50792380Y-111480600D02*
X45204380Y-111480600D01*
X19804380Y-111480600D02*
X19296380Y-111988600D01*
X44696380Y-111988600D02*
X44188380Y-111480600D01*
X75176380Y-106908600D02*
X74668380Y-106400600D01*
X58412380Y-105638600D02*
X57904380Y-106146600D01*
X56126380Y-106146600D02*
X50792380Y-111480600D01*
X74668380Y-106400600D02*
X61968380Y-106400600D01*
X28186380Y-110718600D02*
X27424380Y-111480600D01*
X57904380Y-106146600D02*
X56126380Y-106146600D01*
X37076380Y-125196600D02*
X37584380Y-124688600D01*
X37076380Y-129768600D02*
X37076380Y-125196600D01*
G04 #@! TO.N,/D9*
X45966380Y-113258600D02*
X46728380Y-112496600D01*
X4564380Y-112496600D02*
X17264380Y-112496600D01*
X56126380Y-107416600D02*
X59428380Y-107416600D01*
X20566380Y-113258600D02*
X21328380Y-112496600D01*
X17264380Y-112496600D02*
X18026380Y-113258600D01*
X4056380Y-111988600D02*
X4564380Y-112496600D01*
X21328380Y-112496600D02*
X28948380Y-112496600D01*
X59428380Y-107416600D02*
X59936380Y-106908600D01*
X18026380Y-113258600D02*
X20566380Y-113258600D01*
X29456380Y-111988600D02*
X29964380Y-112496600D01*
X29964380Y-112496600D02*
X42664380Y-112496600D01*
X28948380Y-112496600D02*
X29456380Y-111988600D01*
X43426380Y-113258600D02*
X45966380Y-113258600D01*
X46728380Y-112496600D02*
X47998380Y-112496600D01*
X42664380Y-112496600D02*
X43426380Y-113258600D01*
X51046380Y-112496600D02*
X56126380Y-107416600D01*
X47236380Y-125196600D02*
X47744380Y-124688600D01*
X47236380Y-129768600D02*
X47236380Y-125196600D01*
X47998380Y-112496600D02*
X51046380Y-112496600D01*
G04 #@! TO.N,/D14*
X58412380Y-103098600D02*
X57904380Y-103606600D01*
X50792380Y-108940600D02*
X45204380Y-108940600D01*
X44188380Y-108940600D02*
X31488380Y-108940600D01*
X56126380Y-103606600D02*
X50792380Y-108940600D01*
X27424380Y-108940600D02*
X19804380Y-108940600D01*
X57904380Y-103606600D02*
X56126380Y-103606600D01*
X74668380Y-103860600D02*
X61968380Y-103860600D01*
X28186380Y-108178600D02*
X27424380Y-108940600D01*
X45204380Y-108940600D02*
X44696380Y-109448600D01*
X75176380Y-104368600D02*
X74668380Y-103860600D01*
X61206380Y-103098600D02*
X58412380Y-103098600D01*
X44696380Y-109448600D02*
X44188380Y-108940600D01*
X31488380Y-108940600D02*
X30726380Y-108178600D01*
X19804380Y-108940600D02*
X19296380Y-109448600D01*
X61968380Y-103860600D02*
X61206380Y-103098600D01*
X30726380Y-108178600D02*
X28186380Y-108178600D01*
X34536380Y-125196600D02*
X35044380Y-124688600D01*
X34536380Y-129768600D02*
X34536380Y-125196600D01*
G04 #@! TO.N,/D8*
X21328380Y-109956600D02*
X28948380Y-109956600D01*
X4056380Y-109448600D02*
X4564380Y-109956600D01*
X56126380Y-104876600D02*
X59428380Y-104876600D01*
X4564380Y-109956600D02*
X17264380Y-109956600D01*
X18026380Y-110718600D02*
X20566380Y-110718600D01*
X17264380Y-109956600D02*
X18026380Y-110718600D01*
X29964380Y-109956600D02*
X42664380Y-109956600D01*
X28948380Y-109956600D02*
X29456380Y-109448600D01*
X29456380Y-109448600D02*
X29964380Y-109956600D01*
X45966380Y-110718600D02*
X46728380Y-109956600D01*
X20566380Y-110718600D02*
X21328380Y-109956600D01*
X43426380Y-110718600D02*
X45966380Y-110718600D01*
X46728380Y-109956600D02*
X51046380Y-109956600D01*
X59428380Y-104876600D02*
X59936380Y-104368600D01*
X51046380Y-109956600D02*
X56126380Y-104876600D01*
X42664380Y-109956600D02*
X43426380Y-110718600D01*
X49776380Y-125196600D02*
X50284380Y-124688600D01*
X49776380Y-129768600D02*
X49776380Y-125196600D01*
G04 #@! TO.N,/D15*
X31996380Y-125196600D02*
X32504380Y-124688600D01*
X31996380Y-129768600D02*
X31996380Y-125196600D01*
X44696380Y-106908600D02*
X44188380Y-106400600D01*
X61206380Y-100558600D02*
X58412380Y-100558600D01*
X45204380Y-106400600D02*
X44696380Y-106908600D01*
X74668380Y-101320600D02*
X61968380Y-101320600D01*
X50792380Y-106400600D02*
X45204380Y-106400600D01*
X31488380Y-106400600D02*
X30726380Y-105638600D01*
X19804380Y-106400600D02*
X19296380Y-106908600D01*
X75176380Y-101828600D02*
X74668380Y-101320600D01*
X56126380Y-101066600D02*
X50792380Y-106400600D01*
X61968380Y-101320600D02*
X61206380Y-100558600D01*
X57904380Y-101066600D02*
X56126380Y-101066600D01*
X30726380Y-105638600D02*
X28186380Y-105638600D01*
X28186380Y-105638600D02*
X27424380Y-106400600D01*
X58412380Y-100558600D02*
X57904380Y-101066600D01*
X27424380Y-106400600D02*
X19804380Y-106400600D01*
X44188380Y-106400600D02*
X31488380Y-106400600D01*
G04 #@! TO.N,/32K_ROM_CS_ODD*
X75176380Y-99288600D02*
X74668380Y-99288600D01*
X74668380Y-99288600D02*
X74160380Y-98780600D01*
X74160380Y-98780600D02*
X62476380Y-98780600D01*
X62476380Y-77698600D02*
X62222380Y-77444600D01*
X62222380Y-77444600D02*
X57396380Y-77444600D01*
X57396380Y-77444600D02*
X57142380Y-77698600D01*
X57142380Y-77698600D02*
X21328380Y-77698600D01*
X21328380Y-77698600D02*
X20820380Y-77190600D01*
X20820380Y-77190600D02*
X7866380Y-77190600D01*
X-13215620Y-115036600D02*
X-13723620Y-114528600D01*
X-9913620Y-115036600D02*
X-13215620Y-115036600D01*
X-9151620Y-115798600D02*
X-9913620Y-115036600D01*
X7866380Y-115798600D02*
X-9151620Y-115798600D01*
G04 #@! TO.N,/UPPER_512K_ODD*
X-13723620Y-106908600D02*
X-8897620Y-106908600D01*
X-8897620Y-84048600D02*
X-13723620Y-84048600D01*
G04 #@! TO.N,/SBHE*
X75176380Y-125450600D02*
X74414380Y-124688600D01*
X75176380Y-129768600D02*
X75176380Y-125450600D01*
X-13723620Y-68046600D02*
X72636380Y-68046600D01*
G04 #@! TO.N,/32K_RAM_CS_ODD*
X44696380Y-104368600D02*
X44188380Y-103860600D01*
X44188380Y-103860600D02*
X33520380Y-103860600D01*
X33520380Y-103860600D02*
X32758380Y-103098600D01*
X32758380Y-103098600D02*
X27678380Y-103098600D01*
X27678380Y-103098600D02*
X27170380Y-103606600D01*
X27170380Y-103606600D02*
X21836380Y-103606600D01*
X21836380Y-123164600D02*
X-6103620Y-123164600D01*
G04 #@! TO.N,/512K_CS_ODD*
X19296380Y-104368600D02*
X18788380Y-103860600D01*
X18788380Y-103860600D02*
X6342380Y-103860600D01*
X6342380Y-103860600D02*
X5580380Y-103098600D01*
X5580380Y-103098600D02*
X2786380Y-103098600D01*
X2786380Y-103098600D02*
X1770380Y-102082600D01*
X1770380Y-102082600D02*
X-1531620Y-102082600D01*
X-1531620Y-82778600D02*
X-9659620Y-82778600D01*
X-9659620Y-82778600D02*
X-10421620Y-82016600D01*
X-13215620Y-82016600D02*
X-13723620Y-81508600D01*
X-10421620Y-82016600D02*
X-13215620Y-82016600D01*
G04 #@! TO.N,/MEMCS16*
X75176380Y-118592600D02*
X51046380Y-118592600D01*
X51046380Y-67030600D02*
X12184380Y-67030600D01*
X12184380Y-67030600D02*
X4564380Y-67030600D01*
G04 #@! TO.N,/LA19*
X61202380Y-124434600D02*
X58666380Y-124434600D01*
X62476380Y-125708600D02*
X61202380Y-124434600D01*
X62476380Y-129768600D02*
X62476380Y-125708600D01*
X57650380Y-73888600D02*
X57650380Y-73888600D01*
X57650380Y-73888600D02*
X40886386Y-73888600D01*
G04 #@! TO.N,/LA17*
X57396380Y-125708600D02*
X56126380Y-124438600D01*
X57396380Y-129768600D02*
X57396380Y-125708600D01*
X56126380Y-124438600D02*
X56126380Y-124438600D01*
X56126380Y-72364600D02*
X56126380Y-72364600D01*
X56126380Y-72364600D02*
X37076380Y-72364600D01*
G04 #@! TO.N,/LA18*
X57396380Y-124434600D02*
X57396380Y-124434600D01*
X59936380Y-125704600D02*
X59428380Y-125196600D01*
X58158380Y-125196600D02*
X57396380Y-124434600D01*
X59428380Y-125196600D02*
X58158380Y-125196600D01*
X59936380Y-129768600D02*
X59936380Y-125704600D01*
X56888380Y-73126600D02*
X56888380Y-73126600D01*
X39813376Y-73126600D02*
X34536380Y-73126600D01*
X56888380Y-73126600D02*
X39813376Y-73126600D01*
G04 #@! TO.N,/HIGH_MEM*
X22852380Y-63982600D02*
X22344380Y-63474600D01*
X22344380Y-63474600D02*
X19042380Y-63474600D01*
X19042380Y-63474600D02*
X18534380Y-63982600D01*
X18534380Y-63982600D02*
X9136380Y-63982600D01*
X9136380Y-63982600D02*
X9136380Y-63982600D01*
X25646380Y-63982600D02*
X22852380Y-63982600D01*
G04 #@! TO.N,/LOW_MEM*
X16756380Y-66268600D02*
X16756380Y-66268600D01*
X16756380Y-66268600D02*
X34536380Y-66268600D01*
X34536380Y-66268600D02*
X34536380Y-66268600D01*
G04 #@! TO.N,/NOT_LOW*
X38346380Y-60680600D02*
X31996380Y-60680600D01*
X31996380Y-60680600D02*
X31996380Y-60680600D01*
G04 #@! TD*
M02*
