G04 #@! TF.GenerationSoftware,KiCad,Pcbnew,(5.1.8)-1*
G04 #@! TF.CreationDate,2021-12-06T13:40:29-07:00*
G04 #@! TF.ProjectId,512k,3531326b-2e6b-4696-9361-645f70636258,rev?*
G04 #@! TF.SameCoordinates,Original*
G04 #@! TF.FileFunction,Copper,L2,Bot*
G04 #@! TF.FilePolarity,Positive*
%FSLAX46Y46*%
G04 Gerber Fmt 4.6, Leading zero omitted, Abs format (unit mm)*
G04 Created by KiCad (PCBNEW (5.1.8)-1) date 2021-12-06 13:40:29*
%MOMM*%
%LPD*%
G01*
G04 APERTURE LIST*
G04 #@! TA.AperFunction,ComponentPad*
%ADD10O,1.600000X1.600000*%
G04 #@! TD*
G04 #@! TA.AperFunction,ComponentPad*
%ADD11R,1.600000X1.600000*%
G04 #@! TD*
G04 #@! TA.AperFunction,ComponentPad*
%ADD12C,1.600000*%
G04 #@! TD*
G04 #@! TA.AperFunction,ConnectorPad*
%ADD13R,1.780000X7.620000*%
G04 #@! TD*
G04 #@! TA.AperFunction,ComponentPad*
%ADD14O,2.000000X1.440000*%
G04 #@! TD*
G04 #@! TA.AperFunction,ComponentPad*
%ADD15R,2.000000X1.440000*%
G04 #@! TD*
G04 #@! TA.AperFunction,ComponentPad*
%ADD16C,3.556000*%
G04 #@! TD*
G04 #@! TA.AperFunction,ViaPad*
%ADD17C,0.800000*%
G04 #@! TD*
G04 #@! TA.AperFunction,Conductor*
%ADD18C,0.330200*%
G04 #@! TD*
G04 #@! TA.AperFunction,Conductor*
%ADD19C,0.250000*%
G04 #@! TD*
G04 APERTURE END LIST*
D10*
G04 #@! TO.P,U12,16*
G04 #@! TO.N,/5+*
X42156380Y-70078600D03*
G04 #@! TO.P,U12,8*
G04 #@! TO.N,/GND*
X24376380Y-62458600D03*
G04 #@! TO.P,U12,15*
G04 #@! TO.N,/NOT_LOW*
X39616380Y-70078600D03*
G04 #@! TO.P,U12,7*
G04 #@! TO.N,Net-(U12-Pad7)*
X26916380Y-62458600D03*
G04 #@! TO.P,U12,14*
G04 #@! TO.N,/LA17*
X37076380Y-70078600D03*
G04 #@! TO.P,U12,6*
G04 #@! TO.N,Net-(U12-Pad6)*
X29456380Y-62458600D03*
G04 #@! TO.P,U12,13*
G04 #@! TO.N,/LA18*
X34536380Y-70078600D03*
G04 #@! TO.P,U12,5*
G04 #@! TO.N,/NOT_LOW*
X31996380Y-62458600D03*
G04 #@! TO.P,U12,12*
G04 #@! TO.N,Net-(U12-Pad12)*
X31996380Y-70078600D03*
G04 #@! TO.P,U12,4*
G04 #@! TO.N,/LOW_MEM*
X34536380Y-62458600D03*
G04 #@! TO.P,U12,11*
G04 #@! TO.N,Net-(U12-Pad11)*
X29456380Y-70078600D03*
G04 #@! TO.P,U12,3*
G04 #@! TO.N,/GND*
X37076380Y-62458600D03*
G04 #@! TO.P,U12,10*
G04 #@! TO.N,Net-(U12-Pad10)*
X26916380Y-70078600D03*
G04 #@! TO.P,U12,2*
G04 #@! TO.N,/LA19*
X39616380Y-62458600D03*
G04 #@! TO.P,U12,9*
G04 #@! TO.N,/HIGH_MEM*
X24376380Y-70078600D03*
D11*
G04 #@! TO.P,U12,1*
G04 #@! TO.N,/GND*
X42156380Y-62458600D03*
G04 #@! TD*
D10*
G04 #@! TO.P,U11,14*
G04 #@! TO.N,/5+*
X16756380Y-70078600D03*
G04 #@! TO.P,U11,7*
G04 #@! TO.N,/GND*
X1516380Y-62458600D03*
G04 #@! TO.P,U11,13*
G04 #@! TO.N,N/C*
X14216380Y-70078600D03*
G04 #@! TO.P,U11,6*
G04 #@! TO.N,/MEMCS16*
X4056380Y-62458600D03*
G04 #@! TO.P,U11,12*
G04 #@! TO.N,N/C*
X11676380Y-70078600D03*
G04 #@! TO.P,U11,5*
G04 #@! TO.N,/GND*
X6596380Y-62458600D03*
G04 #@! TO.P,U11,11*
G04 #@! TO.N,N/C*
X9136380Y-70078600D03*
G04 #@! TO.P,U11,4*
G04 #@! TO.N,/HIGH_MEM*
X9136380Y-62458600D03*
G04 #@! TO.P,U11,10*
G04 #@! TO.N,N/C*
X6596380Y-70078600D03*
G04 #@! TO.P,U11,3*
G04 #@! TO.N,/MEMCS16*
X11676380Y-62458600D03*
G04 #@! TO.P,U11,9*
G04 #@! TO.N,N/C*
X4056380Y-70078600D03*
G04 #@! TO.P,U11,2*
G04 #@! TO.N,/GND*
X14216380Y-62458600D03*
G04 #@! TO.P,U11,8*
G04 #@! TO.N,N/C*
X1516380Y-70078600D03*
D11*
G04 #@! TO.P,U11,1*
G04 #@! TO.N,/LOW_MEM*
X16756380Y-62458600D03*
G04 #@! TD*
D12*
G04 #@! TO.P,C12,2*
G04 #@! TO.N,/5+*
X45458380Y-70078600D03*
G04 #@! TO.P,C12,1*
G04 #@! TO.N,/GND*
X45458380Y-65078600D03*
G04 #@! TD*
G04 #@! TO.P,C11,2*
G04 #@! TO.N,/5+*
X20058380Y-70078600D03*
G04 #@! TO.P,C11,1*
G04 #@! TO.N,/GND*
X20058380Y-65078600D03*
G04 #@! TD*
D13*
G04 #@! TO.P,J1,17*
G04 #@! TO.N,Net-(J1-Pad17)*
X34536380Y-129768600D03*
G04 #@! TO.P,J1,16*
G04 #@! TO.N,/5+*
X37076380Y-129768600D03*
G04 #@! TO.P,J1,13*
G04 #@! TO.N,Net-(J1-Pad13)*
X44696380Y-129768600D03*
G04 #@! TO.P,J1,10*
G04 #@! TO.N,Net-(J1-Pad10)*
X52316380Y-129768600D03*
G04 #@! TO.P,J1,9*
G04 #@! TO.N,Net-(J1-Pad9)*
X54856380Y-129768600D03*
G04 #@! TO.P,J1,14*
G04 #@! TO.N,Net-(J1-Pad14)*
X42156380Y-129768600D03*
G04 #@! TO.P,J1,15*
G04 #@! TO.N,Net-(J1-Pad15)*
X39616380Y-129768600D03*
G04 #@! TO.P,J1,11*
G04 #@! TO.N,Net-(J1-Pad11)*
X49776380Y-129768600D03*
G04 #@! TO.P,J1,12*
G04 #@! TO.N,Net-(J1-Pad12)*
X47236380Y-129768600D03*
G04 #@! TO.P,J1,8*
G04 #@! TO.N,Net-(J1-Pad8)*
X57396380Y-129768600D03*
G04 #@! TO.P,J1,18*
G04 #@! TO.N,/GND*
X31996380Y-129768600D03*
G04 #@! TO.P,J1,7*
G04 #@! TO.N,Net-(J1-Pad7)*
X59936380Y-129768600D03*
G04 #@! TO.P,J1,6*
G04 #@! TO.N,Net-(J1-Pad6)*
X62476380Y-129768600D03*
G04 #@! TO.P,J1,5*
G04 #@! TO.N,Net-(J1-Pad5)*
X65016380Y-129768600D03*
G04 #@! TO.P,J1,4*
G04 #@! TO.N,Net-(J1-Pad4)*
X67556380Y-129768600D03*
G04 #@! TO.P,J1,3*
G04 #@! TO.N,Net-(J1-Pad3)*
X70096380Y-129768600D03*
G04 #@! TO.P,J1,2*
G04 #@! TO.N,Net-(J1-Pad2)*
X72636380Y-129768600D03*
G04 #@! TO.P,J1,1*
G04 #@! TO.N,/MEMCS16*
X75176380Y-129768600D03*
G04 #@! TD*
D10*
G04 #@! TO.P,U10,16*
G04 #@! TO.N,/5+*
X-6103620Y-99288600D03*
G04 #@! TO.P,U10,8*
G04 #@! TO.N,/GND*
X-13723620Y-117068600D03*
G04 #@! TO.P,U10,15*
G04 #@! TO.N,Net-(U10-Pad15)*
X-6103620Y-101828600D03*
G04 #@! TO.P,U10,7*
G04 #@! TO.N,/32K_ROM_CS_ODD*
X-13723620Y-114528600D03*
G04 #@! TO.P,U10,14*
G04 #@! TO.N,Net-(U10-Pad14)*
X-6103620Y-104368600D03*
G04 #@! TO.P,U10,6*
G04 #@! TO.N,/A18*
X-13723620Y-111988600D03*
G04 #@! TO.P,U10,13*
G04 #@! TO.N,Net-(U10-Pad13)*
X-6103620Y-106908600D03*
G04 #@! TO.P,U10,5*
G04 #@! TO.N,/GND*
X-13723620Y-109448600D03*
G04 #@! TO.P,U10,12*
G04 #@! TO.N,Net-(U10-Pad12)*
X-6103620Y-109448600D03*
G04 #@! TO.P,U10,4*
G04 #@! TO.N,/UPPER_512K_ODD*
X-13723620Y-106908600D03*
G04 #@! TO.P,U10,11*
G04 #@! TO.N,Net-(U10-Pad11)*
X-6103620Y-111988600D03*
G04 #@! TO.P,U10,3*
G04 #@! TO.N,/A17*
X-13723620Y-104368600D03*
G04 #@! TO.P,U10,10*
G04 #@! TO.N,Net-(U10-Pad10)*
X-6103620Y-114528600D03*
G04 #@! TO.P,U10,2*
G04 #@! TO.N,/A16*
X-13723620Y-101828600D03*
G04 #@! TO.P,U10,9*
G04 #@! TO.N,/32K_RAM_CS_ODD*
X-6103620Y-117068600D03*
D11*
G04 #@! TO.P,U10,1*
G04 #@! TO.N,/A15*
X-13723620Y-99288600D03*
G04 #@! TD*
D10*
G04 #@! TO.P,U9,32*
G04 #@! TO.N,/5+*
X19296380Y-78968600D03*
G04 #@! TO.P,U9,16*
G04 #@! TO.N,/GND*
X4056380Y-117068600D03*
G04 #@! TO.P,U9,31*
G04 #@! TO.N,/A15*
X19296380Y-81508600D03*
G04 #@! TO.P,U9,15*
G04 #@! TO.N,/D10*
X4056380Y-114528600D03*
G04 #@! TO.P,U9,30*
G04 #@! TO.N,/A17*
X19296380Y-84048600D03*
G04 #@! TO.P,U9,14*
G04 #@! TO.N,/D9*
X4056380Y-111988600D03*
G04 #@! TO.P,U9,29*
G04 #@! TO.N,/MWR*
X19296380Y-86588600D03*
G04 #@! TO.P,U9,13*
G04 #@! TO.N,/D8*
X4056380Y-109448600D03*
G04 #@! TO.P,U9,28*
G04 #@! TO.N,/A13*
X19296380Y-89128600D03*
G04 #@! TO.P,U9,12*
G04 #@! TO.N,/5+*
X4056380Y-106908600D03*
G04 #@! TO.P,U9,27*
G04 #@! TO.N,/A8*
X19296380Y-91668600D03*
G04 #@! TO.P,U9,11*
G04 #@! TO.N,/A1*
X4056380Y-104368600D03*
G04 #@! TO.P,U9,26*
G04 #@! TO.N,/A9*
X19296380Y-94208600D03*
G04 #@! TO.P,U9,10*
G04 #@! TO.N,/A2*
X4056380Y-101828600D03*
G04 #@! TO.P,U9,25*
G04 #@! TO.N,/A11*
X19296380Y-96748600D03*
G04 #@! TO.P,U9,9*
G04 #@! TO.N,/A3*
X4056380Y-99288600D03*
G04 #@! TO.P,U9,24*
G04 #@! TO.N,/MRD*
X19296380Y-99288600D03*
G04 #@! TO.P,U9,8*
G04 #@! TO.N,/A4*
X4056380Y-96748600D03*
G04 #@! TO.P,U9,23*
G04 #@! TO.N,/A10*
X19296380Y-101828600D03*
G04 #@! TO.P,U9,7*
G04 #@! TO.N,/A5*
X4056380Y-94208600D03*
G04 #@! TO.P,U9,22*
G04 #@! TO.N,/512K_CS_ODD*
X19296380Y-104368600D03*
G04 #@! TO.P,U9,6*
G04 #@! TO.N,/A6*
X4056380Y-91668600D03*
G04 #@! TO.P,U9,21*
G04 #@! TO.N,/D15*
X19296380Y-106908600D03*
G04 #@! TO.P,U9,5*
G04 #@! TO.N,/A7*
X4056380Y-89128600D03*
G04 #@! TO.P,U9,20*
G04 #@! TO.N,/D14*
X19296380Y-109448600D03*
G04 #@! TO.P,U9,4*
G04 #@! TO.N,/A12*
X4056380Y-86588600D03*
G04 #@! TO.P,U9,19*
G04 #@! TO.N,/D13*
X19296380Y-111988600D03*
G04 #@! TO.P,U9,3*
G04 #@! TO.N,/A14*
X4056380Y-84048600D03*
G04 #@! TO.P,U9,18*
G04 #@! TO.N,/D12*
X19296380Y-114528600D03*
G04 #@! TO.P,U9,2*
G04 #@! TO.N,/A16*
X4056380Y-81508600D03*
G04 #@! TO.P,U9,17*
G04 #@! TO.N,/D11*
X19296380Y-117068600D03*
D11*
G04 #@! TO.P,U9,1*
G04 #@! TO.N,/A18*
X4056380Y-78968600D03*
G04 #@! TD*
D10*
G04 #@! TO.P,U8,28*
G04 #@! TO.N,/5+*
X44696380Y-84048600D03*
G04 #@! TO.P,U8,14*
G04 #@! TO.N,/GND*
X29456380Y-117068600D03*
G04 #@! TO.P,U8,27*
G04 #@! TO.N,/MWR*
X44696380Y-86588600D03*
G04 #@! TO.P,U8,13*
G04 #@! TO.N,/D10*
X29456380Y-114528600D03*
G04 #@! TO.P,U8,26*
G04 #@! TO.N,/A13*
X44696380Y-89128600D03*
G04 #@! TO.P,U8,12*
G04 #@! TO.N,/D9*
X29456380Y-111988600D03*
G04 #@! TO.P,U8,25*
G04 #@! TO.N,/A8*
X44696380Y-91668600D03*
G04 #@! TO.P,U8,11*
G04 #@! TO.N,/D8*
X29456380Y-109448600D03*
G04 #@! TO.P,U8,24*
G04 #@! TO.N,/A9*
X44696380Y-94208600D03*
G04 #@! TO.P,U8,10*
G04 #@! TO.N,/5+*
X29456380Y-106908600D03*
G04 #@! TO.P,U8,23*
G04 #@! TO.N,/A11*
X44696380Y-96748600D03*
G04 #@! TO.P,U8,9*
G04 #@! TO.N,/A1*
X29456380Y-104368600D03*
G04 #@! TO.P,U8,22*
G04 #@! TO.N,/MRD*
X44696380Y-99288600D03*
G04 #@! TO.P,U8,8*
G04 #@! TO.N,/A2*
X29456380Y-101828600D03*
G04 #@! TO.P,U8,21*
G04 #@! TO.N,/A10*
X44696380Y-101828600D03*
G04 #@! TO.P,U8,7*
G04 #@! TO.N,/A3*
X29456380Y-99288600D03*
G04 #@! TO.P,U8,20*
G04 #@! TO.N,/32K_RAM_CS_ODD*
X44696380Y-104368600D03*
G04 #@! TO.P,U8,6*
G04 #@! TO.N,/A4*
X29456380Y-96748600D03*
G04 #@! TO.P,U8,19*
G04 #@! TO.N,/D15*
X44696380Y-106908600D03*
G04 #@! TO.P,U8,5*
G04 #@! TO.N,/A5*
X29456380Y-94208600D03*
G04 #@! TO.P,U8,18*
G04 #@! TO.N,/D14*
X44696380Y-109448600D03*
G04 #@! TO.P,U8,4*
G04 #@! TO.N,/A6*
X29456380Y-91668600D03*
G04 #@! TO.P,U8,17*
G04 #@! TO.N,/D13*
X44696380Y-111988600D03*
G04 #@! TO.P,U8,3*
G04 #@! TO.N,/A7*
X29456380Y-89128600D03*
G04 #@! TO.P,U8,16*
G04 #@! TO.N,/D12*
X44696380Y-114528600D03*
G04 #@! TO.P,U8,2*
G04 #@! TO.N,/A12*
X29456380Y-86588600D03*
G04 #@! TO.P,U8,15*
G04 #@! TO.N,/D11*
X44696380Y-117068600D03*
D11*
G04 #@! TO.P,U8,1*
G04 #@! TO.N,/A14*
X29456380Y-84048600D03*
G04 #@! TD*
D10*
G04 #@! TO.P,U7,16*
G04 #@! TO.N,/5+*
X-6103620Y-73888600D03*
G04 #@! TO.P,U7,8*
G04 #@! TO.N,/GND*
X-13723620Y-91668600D03*
G04 #@! TO.P,U7,15*
G04 #@! TO.N,N/C*
X-6103620Y-76428600D03*
G04 #@! TO.P,U7,7*
G04 #@! TO.N,Net-(U7-Pad7)*
X-13723620Y-89128600D03*
G04 #@! TO.P,U7,14*
G04 #@! TO.N,N/C*
X-6103620Y-78968600D03*
G04 #@! TO.P,U7,6*
G04 #@! TO.N,Net-(U7-Pad6)*
X-13723620Y-86588600D03*
G04 #@! TO.P,U7,13*
G04 #@! TO.N,N/C*
X-6103620Y-81508600D03*
G04 #@! TO.P,U7,5*
G04 #@! TO.N,/UPPER_512K_ODD*
X-13723620Y-84048600D03*
G04 #@! TO.P,U7,12*
G04 #@! TO.N,N/C*
X-6103620Y-84048600D03*
G04 #@! TO.P,U7,4*
G04 #@! TO.N,/512K_CS_ODD*
X-13723620Y-81508600D03*
G04 #@! TO.P,U7,11*
G04 #@! TO.N,N/C*
X-6103620Y-86588600D03*
G04 #@! TO.P,U7,3*
G04 #@! TO.N,/GND*
X-13723620Y-78968600D03*
G04 #@! TO.P,U7,10*
G04 #@! TO.N,N/C*
X-6103620Y-89128600D03*
G04 #@! TO.P,U7,2*
G04 #@! TO.N,/A19*
X-13723620Y-76428600D03*
G04 #@! TO.P,U7,9*
G04 #@! TO.N,N/C*
X-6103620Y-91668600D03*
D11*
G04 #@! TO.P,U7,1*
G04 #@! TO.N,/SBHE*
X-13723620Y-73888600D03*
G04 #@! TD*
D14*
G04 #@! TO.P,U6,15*
G04 #@! TO.N,/D11*
X75176380Y-111988600D03*
G04 #@! TO.P,U6,14*
G04 #@! TO.N,/GND*
X59936380Y-111988600D03*
G04 #@! TO.P,U6,16*
G04 #@! TO.N,/D12*
X75176380Y-109448600D03*
G04 #@! TO.P,U6,13*
G04 #@! TO.N,/D10*
X59936380Y-109448600D03*
G04 #@! TO.P,U6,17*
G04 #@! TO.N,/D13*
X75176380Y-106908600D03*
G04 #@! TO.P,U6,12*
G04 #@! TO.N,/D9*
X59936380Y-106908600D03*
G04 #@! TO.P,U6,18*
G04 #@! TO.N,/D14*
X75176380Y-104368600D03*
G04 #@! TO.P,U6,11*
G04 #@! TO.N,/D8*
X59936380Y-104368600D03*
G04 #@! TO.P,U6,19*
G04 #@! TO.N,/D15*
X75176380Y-101828600D03*
G04 #@! TO.P,U6,10*
G04 #@! TO.N,/5+*
X59936380Y-101828600D03*
G04 #@! TO.P,U6,20*
G04 #@! TO.N,/32K_ROM_CS_ODD*
X75176380Y-99288600D03*
G04 #@! TO.P,U6,9*
G04 #@! TO.N,/A1*
X59936380Y-99288600D03*
G04 #@! TO.P,U6,21*
G04 #@! TO.N,/A10*
X75176380Y-96748600D03*
G04 #@! TO.P,U6,8*
G04 #@! TO.N,/A2*
X59936380Y-96748600D03*
G04 #@! TO.P,U6,22*
G04 #@! TO.N,/MRD*
X75176380Y-94208600D03*
G04 #@! TO.P,U6,7*
G04 #@! TO.N,/A3*
X59936380Y-94208600D03*
G04 #@! TO.P,U6,23*
G04 #@! TO.N,/A11*
X75176380Y-91668600D03*
G04 #@! TO.P,U6,6*
G04 #@! TO.N,/A4*
X59936380Y-91668600D03*
G04 #@! TO.P,U6,24*
G04 #@! TO.N,/A9*
X75176380Y-89128600D03*
G04 #@! TO.P,U6,5*
G04 #@! TO.N,/A5*
X59936380Y-89128600D03*
G04 #@! TO.P,U6,25*
G04 #@! TO.N,/A8*
X75176380Y-86588600D03*
G04 #@! TO.P,U6,4*
G04 #@! TO.N,/A6*
X59936380Y-86588600D03*
G04 #@! TO.P,U6,26*
G04 #@! TO.N,/A13*
X75176380Y-84048600D03*
G04 #@! TO.P,U6,3*
G04 #@! TO.N,/A7*
X59936380Y-84048600D03*
G04 #@! TO.P,U6,27*
G04 #@! TO.N,/5+*
X75176380Y-81508600D03*
G04 #@! TO.P,U6,2*
G04 #@! TO.N,/A12*
X59936380Y-81508600D03*
G04 #@! TO.P,U6,28*
G04 #@! TO.N,/5+*
X75176380Y-78968600D03*
D15*
G04 #@! TO.P,U6,1*
G04 #@! TO.N,/A14*
X59936380Y-78968600D03*
G04 #@! TD*
D12*
G04 #@! TO.P,C10,2*
G04 #@! TO.N,/5+*
X44696380Y-80746600D03*
G04 #@! TO.P,C10,1*
G04 #@! TO.N,/GND*
X39696380Y-80746600D03*
G04 #@! TD*
G04 #@! TO.P,C9,2*
G04 #@! TO.N,/5+*
X19296380Y-75666600D03*
G04 #@! TO.P,C9,1*
G04 #@! TO.N,/GND*
X14296380Y-75666600D03*
G04 #@! TD*
G04 #@! TO.P,C8,2*
G04 #@! TO.N,/5+*
X80764380Y-78968600D03*
G04 #@! TO.P,C8,1*
G04 #@! TO.N,/GND*
X80764380Y-83968600D03*
G04 #@! TD*
G04 #@! TO.P,C7,2*
G04 #@! TO.N,/5+*
X-6103620Y-70586600D03*
G04 #@! TO.P,C7,1*
G04 #@! TO.N,/GND*
X-11103620Y-70586600D03*
G04 #@! TD*
G04 #@! TO.P,C6,2*
G04 #@! TO.N,/5+*
X-6103620Y-95986600D03*
G04 #@! TO.P,C6,1*
G04 #@! TO.N,/GND*
X-11103620Y-95986600D03*
G04 #@! TD*
D16*
G04 #@! TO.P,R,1*
G04 #@! TO.N,/GND*
X181602380Y-122148600D03*
G04 #@! TD*
G04 #@! TO.P,R,1*
G04 #@! TO.N,/GND*
X181602380Y-64998600D03*
G04 #@! TD*
D10*
G04 #@! TO.P,U5,16*
G04 #@! TO.N,/5+*
X179316380Y-99288600D03*
G04 #@! TO.P,U5,8*
G04 #@! TO.N,/GND*
X171696380Y-117068600D03*
G04 #@! TO.P,U5,15*
G04 #@! TO.N,Net-(U5-Pad15)*
X179316380Y-101828600D03*
G04 #@! TO.P,U5,7*
G04 #@! TO.N,/32K_ROM_CS_EVEN*
X171696380Y-114528600D03*
G04 #@! TO.P,U5,14*
G04 #@! TO.N,Net-(U5-Pad14)*
X179316380Y-104368600D03*
G04 #@! TO.P,U5,6*
G04 #@! TO.N,/A18*
X171696380Y-111988600D03*
G04 #@! TO.P,U5,13*
G04 #@! TO.N,Net-(U5-Pad13)*
X179316380Y-106908600D03*
G04 #@! TO.P,U5,5*
G04 #@! TO.N,/GND*
X171696380Y-109448600D03*
G04 #@! TO.P,U5,12*
G04 #@! TO.N,Net-(U5-Pad12)*
X179316380Y-109448600D03*
G04 #@! TO.P,U5,4*
G04 #@! TO.N,/UPPER_512K_EVEN*
X171696380Y-106908600D03*
G04 #@! TO.P,U5,11*
G04 #@! TO.N,Net-(U5-Pad11)*
X179316380Y-111988600D03*
G04 #@! TO.P,U5,3*
G04 #@! TO.N,/A17*
X171696380Y-104368600D03*
G04 #@! TO.P,U5,10*
G04 #@! TO.N,Net-(U5-Pad10)*
X179316380Y-114528600D03*
G04 #@! TO.P,U5,2*
G04 #@! TO.N,/A16*
X171696380Y-101828600D03*
G04 #@! TO.P,U5,9*
G04 #@! TO.N,/32K_RAM_CS_EVEN*
X179316380Y-117068600D03*
D11*
G04 #@! TO.P,U5,1*
G04 #@! TO.N,/A15*
X171696380Y-99288600D03*
G04 #@! TD*
D10*
G04 #@! TO.P,U4,16*
G04 #@! TO.N,/5+*
X179316380Y-73888600D03*
G04 #@! TO.P,U4,8*
G04 #@! TO.N,/GND*
X171696380Y-91668600D03*
G04 #@! TO.P,U4,15*
G04 #@! TO.N,N/C*
X179316380Y-76428600D03*
G04 #@! TO.P,U4,7*
G04 #@! TO.N,Net-(U4-Pad7)*
X171696380Y-89128600D03*
G04 #@! TO.P,U4,14*
G04 #@! TO.N,N/C*
X179316380Y-78968600D03*
G04 #@! TO.P,U4,6*
G04 #@! TO.N,Net-(U4-Pad6)*
X171696380Y-86588600D03*
G04 #@! TO.P,U4,13*
G04 #@! TO.N,N/C*
X179316380Y-81508600D03*
G04 #@! TO.P,U4,5*
G04 #@! TO.N,/UPPER_512K_EVEN*
X171696380Y-84048600D03*
G04 #@! TO.P,U4,12*
G04 #@! TO.N,N/C*
X179316380Y-84048600D03*
G04 #@! TO.P,U4,4*
G04 #@! TO.N,/512K_CS_EVEN*
X171696380Y-81508600D03*
G04 #@! TO.P,U4,11*
G04 #@! TO.N,N/C*
X179316380Y-86588600D03*
G04 #@! TO.P,U4,3*
G04 #@! TO.N,/GND*
X171696380Y-78968600D03*
G04 #@! TO.P,U4,10*
G04 #@! TO.N,N/C*
X179316380Y-89128600D03*
G04 #@! TO.P,U4,2*
G04 #@! TO.N,/A19*
X171696380Y-76428600D03*
G04 #@! TO.P,U4,9*
G04 #@! TO.N,N/C*
X179316380Y-91668600D03*
D11*
G04 #@! TO.P,U4,1*
G04 #@! TO.N,/A0*
X171696380Y-73888600D03*
G04 #@! TD*
D12*
G04 #@! TO.P,C5,2*
G04 #@! TO.N,/5+*
X179316380Y-95986600D03*
G04 #@! TO.P,C5,1*
G04 #@! TO.N,/GND*
X174316380Y-95986600D03*
G04 #@! TD*
G04 #@! TO.P,C4,2*
G04 #@! TO.N,/5+*
X179316380Y-70586600D03*
G04 #@! TO.P,C4,1*
G04 #@! TO.N,/GND*
X174316380Y-70586600D03*
G04 #@! TD*
G04 #@! TO.P,C3,2*
G04 #@! TO.N,/5+*
X161536380Y-75666600D03*
G04 #@! TO.P,C3,1*
G04 #@! TO.N,/GND*
X156536380Y-75666600D03*
G04 #@! TD*
G04 #@! TO.P,C2,2*
G04 #@! TO.N,/5+*
X136136380Y-80746600D03*
G04 #@! TO.P,C2,1*
G04 #@! TO.N,/GND*
X131136380Y-80746600D03*
G04 #@! TD*
D14*
G04 #@! TO.P,U2,15*
G04 #@! TO.N,/D3*
X105656380Y-111988600D03*
G04 #@! TO.P,U2,14*
G04 #@! TO.N,/GND*
X90416380Y-111988600D03*
G04 #@! TO.P,U2,16*
G04 #@! TO.N,/D4*
X105656380Y-109448600D03*
G04 #@! TO.P,U2,13*
G04 #@! TO.N,/D2*
X90416380Y-109448600D03*
G04 #@! TO.P,U2,17*
G04 #@! TO.N,/D5*
X105656380Y-106908600D03*
G04 #@! TO.P,U2,12*
G04 #@! TO.N,/D1*
X90416380Y-106908600D03*
G04 #@! TO.P,U2,18*
G04 #@! TO.N,/D6*
X105656380Y-104368600D03*
G04 #@! TO.P,U2,11*
G04 #@! TO.N,/D0*
X90416380Y-104368600D03*
G04 #@! TO.P,U2,19*
G04 #@! TO.N,/D7*
X105656380Y-101828600D03*
G04 #@! TO.P,U2,10*
G04 #@! TO.N,/GND*
X90416380Y-101828600D03*
G04 #@! TO.P,U2,20*
G04 #@! TO.N,/32K_ROM_CS_EVEN*
X105656380Y-99288600D03*
G04 #@! TO.P,U2,9*
G04 #@! TO.N,/A1*
X90416380Y-99288600D03*
G04 #@! TO.P,U2,21*
G04 #@! TO.N,/A10*
X105656380Y-96748600D03*
G04 #@! TO.P,U2,8*
G04 #@! TO.N,/A2*
X90416380Y-96748600D03*
G04 #@! TO.P,U2,22*
G04 #@! TO.N,/MRD*
X105656380Y-94208600D03*
G04 #@! TO.P,U2,7*
G04 #@! TO.N,/A3*
X90416380Y-94208600D03*
G04 #@! TO.P,U2,23*
G04 #@! TO.N,/A11*
X105656380Y-91668600D03*
G04 #@! TO.P,U2,6*
G04 #@! TO.N,/A4*
X90416380Y-91668600D03*
G04 #@! TO.P,U2,24*
G04 #@! TO.N,/A9*
X105656380Y-89128600D03*
G04 #@! TO.P,U2,5*
G04 #@! TO.N,/A5*
X90416380Y-89128600D03*
G04 #@! TO.P,U2,25*
G04 #@! TO.N,/A8*
X105656380Y-86588600D03*
G04 #@! TO.P,U2,4*
G04 #@! TO.N,/A6*
X90416380Y-86588600D03*
G04 #@! TO.P,U2,26*
G04 #@! TO.N,/A13*
X105656380Y-84048600D03*
G04 #@! TO.P,U2,3*
G04 #@! TO.N,/A7*
X90416380Y-84048600D03*
G04 #@! TO.P,U2,27*
G04 #@! TO.N,/5+*
X105656380Y-81508600D03*
G04 #@! TO.P,U2,2*
G04 #@! TO.N,/A12*
X90416380Y-81508600D03*
G04 #@! TO.P,U2,28*
G04 #@! TO.N,/5+*
X105656380Y-78968600D03*
D15*
G04 #@! TO.P,U2,1*
G04 #@! TO.N,/A14*
X90416380Y-78968600D03*
G04 #@! TD*
D10*
G04 #@! TO.P,U1,28*
G04 #@! TO.N,/5+*
X136136380Y-84048600D03*
G04 #@! TO.P,U1,14*
G04 #@! TO.N,/GND*
X120896380Y-117068600D03*
G04 #@! TO.P,U1,27*
G04 #@! TO.N,/MWR*
X136136380Y-86588600D03*
G04 #@! TO.P,U1,13*
G04 #@! TO.N,/D2*
X120896380Y-114528600D03*
G04 #@! TO.P,U1,26*
G04 #@! TO.N,/A13*
X136136380Y-89128600D03*
G04 #@! TO.P,U1,12*
G04 #@! TO.N,/D1*
X120896380Y-111988600D03*
G04 #@! TO.P,U1,25*
G04 #@! TO.N,/A8*
X136136380Y-91668600D03*
G04 #@! TO.P,U1,11*
G04 #@! TO.N,/D0*
X120896380Y-109448600D03*
G04 #@! TO.P,U1,24*
G04 #@! TO.N,/A9*
X136136380Y-94208600D03*
G04 #@! TO.P,U1,10*
G04 #@! TO.N,/GND*
X120896380Y-106908600D03*
G04 #@! TO.P,U1,23*
G04 #@! TO.N,/A11*
X136136380Y-96748600D03*
G04 #@! TO.P,U1,9*
G04 #@! TO.N,/A1*
X120896380Y-104368600D03*
G04 #@! TO.P,U1,22*
G04 #@! TO.N,/MRD*
X136136380Y-99288600D03*
G04 #@! TO.P,U1,8*
G04 #@! TO.N,/A2*
X120896380Y-101828600D03*
G04 #@! TO.P,U1,21*
G04 #@! TO.N,/A10*
X136136380Y-101828600D03*
G04 #@! TO.P,U1,7*
G04 #@! TO.N,/A3*
X120896380Y-99288600D03*
G04 #@! TO.P,U1,20*
G04 #@! TO.N,/32K_RAM_CS_EVEN*
X136136380Y-104368600D03*
G04 #@! TO.P,U1,6*
G04 #@! TO.N,/A4*
X120896380Y-96748600D03*
G04 #@! TO.P,U1,19*
G04 #@! TO.N,/D7*
X136136380Y-106908600D03*
G04 #@! TO.P,U1,5*
G04 #@! TO.N,/A5*
X120896380Y-94208600D03*
G04 #@! TO.P,U1,18*
G04 #@! TO.N,/D6*
X136136380Y-109448600D03*
G04 #@! TO.P,U1,4*
G04 #@! TO.N,/A6*
X120896380Y-91668600D03*
G04 #@! TO.P,U1,17*
G04 #@! TO.N,/D5*
X136136380Y-111988600D03*
G04 #@! TO.P,U1,3*
G04 #@! TO.N,/A7*
X120896380Y-89128600D03*
G04 #@! TO.P,U1,16*
G04 #@! TO.N,/D4*
X136136380Y-114528600D03*
G04 #@! TO.P,U1,2*
G04 #@! TO.N,/A12*
X120896380Y-86588600D03*
G04 #@! TO.P,U1,15*
G04 #@! TO.N,/D3*
X136136380Y-117068600D03*
D11*
G04 #@! TO.P,U1,1*
G04 #@! TO.N,/A14*
X120896380Y-84048600D03*
G04 #@! TD*
D13*
G04 #@! TO.P,J9,31*
G04 #@! TO.N,/GND*
X85336380Y-129768600D03*
G04 #@! TO.P,J9,30*
G04 #@! TO.N,/OSC88*
X87876380Y-129768600D03*
G04 #@! TO.P,J9,29*
G04 #@! TO.N,/5+*
X90416380Y-129768600D03*
G04 #@! TO.P,J9,28*
G04 #@! TO.N,/ALE*
X92956380Y-129768600D03*
G04 #@! TO.P,J9,27*
G04 #@! TO.N,/TC*
X95496380Y-129768600D03*
G04 #@! TO.P,J9,26*
G04 #@! TO.N,/DACK2*
X98036380Y-129768600D03*
G04 #@! TO.P,J9,25*
G04 #@! TO.N,/IRQ3*
X100576380Y-129768600D03*
G04 #@! TO.P,J9,24*
G04 #@! TO.N,/IRQ4*
X103116380Y-129768600D03*
G04 #@! TO.P,J9,23*
G04 #@! TO.N,/IRQ5*
X105656380Y-129768600D03*
G04 #@! TO.P,J9,22*
G04 #@! TO.N,/IRQ6*
X108196380Y-129768600D03*
G04 #@! TO.P,J9,21*
G04 #@! TO.N,/IRQ7*
X110736380Y-129768600D03*
G04 #@! TO.P,J9,20*
G04 #@! TO.N,/CLK88*
X113276380Y-129768600D03*
G04 #@! TO.P,J9,19*
G04 #@! TO.N,/REFRQ*
X115816380Y-129768600D03*
G04 #@! TO.P,J9,18*
G04 #@! TO.N,/DRQ1*
X118356380Y-129768600D03*
G04 #@! TO.P,J9,17*
G04 #@! TO.N,/DACK1*
X120896380Y-129768600D03*
G04 #@! TO.P,J9,16*
G04 #@! TO.N,/DRQ3*
X123436380Y-129768600D03*
G04 #@! TO.P,J9,15*
G04 #@! TO.N,/DACK3*
X125976380Y-129768600D03*
G04 #@! TO.P,J9,14*
G04 #@! TO.N,/IORD*
X128516380Y-129768600D03*
G04 #@! TO.P,J9,13*
G04 #@! TO.N,/IOWR*
X131056380Y-129768600D03*
G04 #@! TO.P,J9,12*
G04 #@! TO.N,/MRD*
X133596380Y-129768600D03*
G04 #@! TO.P,J9,11*
G04 #@! TO.N,/MWR*
X136136380Y-129768600D03*
G04 #@! TO.P,J9,10*
G04 #@! TO.N,/GND*
X138676380Y-129768600D03*
G04 #@! TO.P,J9,9*
G04 #@! TO.N,/12+*
X141216380Y-129768600D03*
G04 #@! TO.P,J9,8*
G04 #@! TO.N,/NC*
X143756380Y-129768600D03*
G04 #@! TO.P,J9,7*
G04 #@! TO.N,/12-*
X146296380Y-129768600D03*
G04 #@! TO.P,J9,6*
G04 #@! TO.N,/DRQ2*
X148836380Y-129768600D03*
G04 #@! TO.P,J9,5*
G04 #@! TO.N,/5-*
X151376380Y-129768600D03*
G04 #@! TO.P,J9,4*
G04 #@! TO.N,/IRQ2*
X153916380Y-129768600D03*
G04 #@! TO.P,J9,3*
G04 #@! TO.N,/5+*
X156456380Y-129768600D03*
G04 #@! TO.P,J9,2*
G04 #@! TO.N,/RESOUT*
X158996380Y-129768600D03*
G04 #@! TO.P,J9,1*
G04 #@! TO.N,/GND*
X161536380Y-129768600D03*
G04 #@! TD*
D12*
G04 #@! TO.P,C1,2*
G04 #@! TO.N,/5+*
X111244380Y-79048600D03*
G04 #@! TO.P,C1,1*
G04 #@! TO.N,/GND*
X111244380Y-84048600D03*
G04 #@! TD*
D10*
G04 #@! TO.P,U3,32*
G04 #@! TO.N,/5+*
X161536380Y-78968600D03*
G04 #@! TO.P,U3,16*
G04 #@! TO.N,/GND*
X146296380Y-117068600D03*
G04 #@! TO.P,U3,31*
G04 #@! TO.N,/A15*
X161536380Y-81508600D03*
G04 #@! TO.P,U3,15*
G04 #@! TO.N,/D2*
X146296380Y-114528600D03*
G04 #@! TO.P,U3,30*
G04 #@! TO.N,/A17*
X161536380Y-84048600D03*
G04 #@! TO.P,U3,14*
G04 #@! TO.N,/D1*
X146296380Y-111988600D03*
G04 #@! TO.P,U3,29*
G04 #@! TO.N,/MWR*
X161536380Y-86588600D03*
G04 #@! TO.P,U3,13*
G04 #@! TO.N,/D0*
X146296380Y-109448600D03*
G04 #@! TO.P,U3,28*
G04 #@! TO.N,/A13*
X161536380Y-89128600D03*
G04 #@! TO.P,U3,12*
G04 #@! TO.N,/GND*
X146296380Y-106908600D03*
G04 #@! TO.P,U3,27*
G04 #@! TO.N,/A8*
X161536380Y-91668600D03*
G04 #@! TO.P,U3,11*
G04 #@! TO.N,/A1*
X146296380Y-104368600D03*
G04 #@! TO.P,U3,26*
G04 #@! TO.N,/A9*
X161536380Y-94208600D03*
G04 #@! TO.P,U3,10*
G04 #@! TO.N,/A2*
X146296380Y-101828600D03*
G04 #@! TO.P,U3,25*
G04 #@! TO.N,/A11*
X161536380Y-96748600D03*
G04 #@! TO.P,U3,9*
G04 #@! TO.N,/A3*
X146296380Y-99288600D03*
G04 #@! TO.P,U3,24*
G04 #@! TO.N,/MRD*
X161536380Y-99288600D03*
G04 #@! TO.P,U3,8*
G04 #@! TO.N,/A4*
X146296380Y-96748600D03*
G04 #@! TO.P,U3,23*
G04 #@! TO.N,/A10*
X161536380Y-101828600D03*
G04 #@! TO.P,U3,7*
G04 #@! TO.N,/A5*
X146296380Y-94208600D03*
G04 #@! TO.P,U3,22*
G04 #@! TO.N,/512K_CS_EVEN*
X161536380Y-104368600D03*
G04 #@! TO.P,U3,6*
G04 #@! TO.N,/A6*
X146296380Y-91668600D03*
G04 #@! TO.P,U3,21*
G04 #@! TO.N,/D7*
X161536380Y-106908600D03*
G04 #@! TO.P,U3,5*
G04 #@! TO.N,/A7*
X146296380Y-89128600D03*
G04 #@! TO.P,U3,20*
G04 #@! TO.N,/D6*
X161536380Y-109448600D03*
G04 #@! TO.P,U3,4*
G04 #@! TO.N,/A12*
X146296380Y-86588600D03*
G04 #@! TO.P,U3,19*
G04 #@! TO.N,/D5*
X161536380Y-111988600D03*
G04 #@! TO.P,U3,3*
G04 #@! TO.N,/A14*
X146296380Y-84048600D03*
G04 #@! TO.P,U3,18*
G04 #@! TO.N,/D4*
X161536380Y-114528600D03*
G04 #@! TO.P,U3,2*
G04 #@! TO.N,/A16*
X146296380Y-81508600D03*
G04 #@! TO.P,U3,17*
G04 #@! TO.N,/D3*
X161536380Y-117068600D03*
D11*
G04 #@! TO.P,U3,1*
G04 #@! TO.N,/A18*
X146296380Y-78968600D03*
G04 #@! TD*
D17*
G04 #@! TO.N,/5+*
X161536380Y-69062600D03*
X161536380Y-73634600D03*
X136136380Y-73634600D03*
X136136380Y-79048600D03*
X111244380Y-82016600D03*
X179316380Y-69062600D03*
X176776380Y-69062600D03*
X176776380Y-95986600D03*
X90416380Y-115036600D03*
X95496380Y-115036600D03*
X95496380Y-82016600D03*
X156456380Y-105638600D03*
X176776380Y-105638600D03*
X36314380Y-107416600D03*
X80764380Y-82016600D03*
X80764380Y-76682600D03*
X44696380Y-76682600D03*
X36314380Y-76682600D03*
X-3817618Y-107416600D03*
X-3817620Y-96494600D03*
X-3817620Y-71094600D03*
G04 #@! TO.N,/GND*
X85336380Y-111480600D03*
X139184380Y-116560600D03*
X161536380Y-124688600D03*
X163568380Y-124688600D03*
X181602380Y-124688600D03*
X174236380Y-116560600D03*
X174236380Y-108940600D03*
X174236380Y-78460600D03*
X174236380Y-91160600D03*
X131310380Y-75666600D03*
X156710380Y-70586600D03*
X139184380Y-75666600D03*
X163568380Y-116560600D03*
X39870380Y-75666600D03*
X80764380Y-111480600D03*
X-11183620Y-117576600D03*
X-11183620Y-91668600D03*
X-11183620Y-109448600D03*
X-11183620Y-78968600D03*
X139184380Y-106400600D03*
X80764380Y-113258600D03*
X31234380Y-117576600D03*
X174316380Y-65680600D03*
X-11183624Y-64998604D03*
X6596380Y-64998600D03*
X1516380Y-64998600D03*
X14216380Y-64998600D03*
X37076380Y-64998600D03*
X24376380Y-64998600D03*
X42156380Y-64998600D03*
G04 #@! TO.N,/D7*
X159758380Y-107416600D03*
X159758380Y-124688608D03*
G04 #@! TO.N,/D6*
X157726380Y-124688600D03*
X157726380Y-109956600D03*
G04 #@! TO.N,/D5*
X155186380Y-124688600D03*
X155186380Y-112496600D03*
G04 #@! TO.N,/D4*
X152646380Y-124688600D03*
X152646380Y-115036600D03*
G04 #@! TO.N,/D3*
X150106380Y-124688600D03*
X150106380Y-117576600D03*
G04 #@! TO.N,/D2*
X147566380Y-124688600D03*
X148074380Y-114020600D03*
G04 #@! TO.N,/D1*
X144518380Y-124688600D03*
X144518380Y-111480600D03*
G04 #@! TO.N,/D0*
X142486380Y-124688600D03*
X142486380Y-108940600D03*
G04 #@! TO.N,/A19*
X134866380Y-124688600D03*
X134866380Y-122402600D03*
X168140380Y-122402600D03*
X168140380Y-75920600D03*
X-2293620Y-77698600D03*
X-2293610Y-122402600D03*
G04 #@! TO.N,/A18*
X132326380Y-124688600D03*
X132326380Y-121640600D03*
X167378380Y-121640600D03*
X167378380Y-111480600D03*
X167378380Y-77698600D03*
X-769620Y-121640600D03*
X-769620Y-78460600D03*
X-769620Y-113258600D03*
G04 #@! TO.N,/A17*
X129786380Y-124688600D03*
X129786380Y-120878600D03*
X166616380Y-120878622D03*
X166616380Y-103860600D03*
X166616380Y-83540600D03*
X-7620Y-120878600D03*
X-7620Y-82778600D03*
X-7620Y-105638600D03*
G04 #@! TO.N,/A16*
X127246380Y-124688600D03*
X127246380Y-120116600D03*
X165600380Y-120116600D03*
X165600380Y-101320600D03*
X165600380Y-80238600D03*
X754380Y-120116600D03*
X754380Y-81000600D03*
X754380Y-103098600D03*
G04 #@! TO.N,/A15*
X124706380Y-124688600D03*
X124706380Y-119354600D03*
X164838380Y-119354600D03*
X164838380Y-98780600D03*
X164838380Y-82016600D03*
X1516380Y-119354600D03*
X1516380Y-80238600D03*
X1516380Y-100558600D03*
G04 #@! TO.N,/A14*
X122166380Y-124688600D03*
X122928380Y-83540600D03*
X122928380Y-77698600D03*
G04 #@! TO.N,/A13*
X119118380Y-124688600D03*
X119118380Y-89890600D03*
G04 #@! TO.N,/A12*
X117086380Y-124688600D03*
X117086380Y-86080600D03*
X117086380Y-81000600D03*
G04 #@! TO.N,/A11*
X114546380Y-124688600D03*
X114546380Y-97256600D03*
X77716380Y-91668600D03*
X78986380Y-92938600D03*
G04 #@! TO.N,/A10*
X112006380Y-124688600D03*
X112006380Y-99796600D03*
X77716380Y-96748600D03*
X78986380Y-98018600D03*
G04 #@! TO.N,/A9*
X109466380Y-124688600D03*
X109466380Y-89636600D03*
X77716380Y-89128600D03*
X78986380Y-90398600D03*
G04 #@! TO.N,/A8*
X106926380Y-124688600D03*
X107942380Y-87096600D03*
X77716380Y-86588600D03*
X78986380Y-87858600D03*
G04 #@! TO.N,/A7*
X103624380Y-83540600D03*
X103624380Y-124688600D03*
X83812380Y-84048600D03*
X83812380Y-86080600D03*
G04 #@! TO.N,/A6*
X101846380Y-124688600D03*
X101846380Y-86080600D03*
G04 #@! TO.N,/A5*
X99306380Y-124688600D03*
X99306380Y-88620600D03*
G04 #@! TO.N,/A4*
X96766380Y-124688600D03*
X96766380Y-91160600D03*
G04 #@! TO.N,/A3*
X94226380Y-124688600D03*
X94226380Y-93700600D03*
G04 #@! TO.N,/A2*
X91686380Y-124688600D03*
X92448380Y-96240600D03*
G04 #@! TO.N,/A1*
X88384380Y-124688600D03*
X88384380Y-99796600D03*
G04 #@! TO.N,/A0*
X86606380Y-124688600D03*
X171696380Y-68046600D03*
X86606380Y-68046600D03*
G04 #@! TO.N,/MWR*
X136136380Y-123164600D03*
X138168380Y-123164600D03*
X138168380Y-87096600D03*
X47236380Y-86080600D03*
X47236380Y-123164600D03*
G04 #@! TO.N,/MRD*
X77716380Y-94208600D03*
X78986380Y-95478600D03*
X133596380Y-99796600D03*
G04 #@! TO.N,/32K_RAM_CS_EVEN*
X169664380Y-115290600D03*
X140200380Y-104876600D03*
X140200380Y-71856600D03*
X169664380Y-71856600D03*
G04 #@! TO.N,/32K_ROM_CS_EVEN*
X168902380Y-114020600D03*
X168902380Y-72618600D03*
X100576380Y-99796600D03*
X100576380Y-72618600D03*
G04 #@! TO.N,/512K_CS_EVEN*
X164076380Y-103860600D03*
X164076380Y-81000600D03*
G04 #@! TO.N,/UPPER_512K_EVEN*
X175506380Y-84556600D03*
X175506380Y-107162600D03*
G04 #@! TO.N,/D11*
X42664380Y-124688600D03*
X42664380Y-116560600D03*
G04 #@! TO.N,/D12*
X40124380Y-124688600D03*
X40124380Y-114020600D03*
G04 #@! TO.N,/D10*
X45204380Y-124688600D03*
X46474380Y-115290600D03*
G04 #@! TO.N,/D13*
X37584380Y-124688600D03*
X37584380Y-111480600D03*
G04 #@! TO.N,/D9*
X47744380Y-124688600D03*
X47998380Y-112496600D03*
G04 #@! TO.N,/D14*
X35044380Y-124688600D03*
X35044380Y-108940600D03*
G04 #@! TO.N,/D8*
X50284380Y-124688600D03*
X50284380Y-109956600D03*
G04 #@! TO.N,/D15*
X32504380Y-124688600D03*
X32504380Y-106400600D03*
G04 #@! TO.N,/32K_ROM_CS_ODD*
X62476380Y-98780600D03*
X62476380Y-77698600D03*
X7866380Y-77190600D03*
X7866380Y-115798600D03*
G04 #@! TO.N,/UPPER_512K_ODD*
X-8897620Y-106908600D03*
X-8897620Y-84048600D03*
G04 #@! TO.N,/SBHE*
X-13723620Y-68046600D03*
X74414380Y-124688600D03*
X72636380Y-68046600D03*
G04 #@! TO.N,/32K_RAM_CS_ODD*
X21836380Y-103606600D03*
X21836380Y-123164600D03*
X-6103620Y-123164600D03*
G04 #@! TO.N,/512K_CS_ODD*
X-1531620Y-102082600D03*
X-1531620Y-82778600D03*
G04 #@! TO.N,/MEMCS16*
X75176380Y-118592600D03*
X51046380Y-118592600D03*
X51046380Y-67030600D03*
X12184380Y-67030600D03*
X4564380Y-67030600D03*
G04 #@! TO.N,/LA19*
X58666380Y-124434600D03*
X57650380Y-73888600D03*
X40886386Y-73888600D03*
G04 #@! TO.N,/LA17*
X56126380Y-124438600D03*
X56126380Y-72364600D03*
X37076380Y-72364600D03*
G04 #@! TO.N,/LA18*
X57396380Y-124434600D03*
X56888380Y-73126600D03*
X34536380Y-73126600D03*
G04 #@! TO.N,/HIGH_MEM*
X9136380Y-63982600D03*
X25646380Y-63982600D03*
G04 #@! TO.N,/LOW_MEM*
X16756380Y-66268600D03*
X34536380Y-66268600D03*
G04 #@! TO.N,/NOT_LOW*
X38346380Y-60680600D03*
X31996380Y-60680600D03*
G04 #@! TD*
D18*
G04 #@! TO.N,/5+*
X161536380Y-69062600D02*
X161536380Y-73634600D01*
X161536380Y-75666600D02*
X161536380Y-73634600D01*
X161536380Y-78968600D02*
X161536380Y-75666600D01*
X136136380Y-73634600D02*
X136136380Y-79048600D01*
X136136380Y-79048600D02*
X136136380Y-80746600D01*
X136136380Y-80746600D02*
X136136380Y-84048600D01*
X105736380Y-79048600D02*
X105656380Y-78968600D01*
X111244380Y-79048600D02*
X105736380Y-79048600D01*
X111244380Y-79048600D02*
X111244380Y-82016600D01*
X179316380Y-69062600D02*
X179316380Y-70586600D01*
X179316380Y-70586600D02*
X179316380Y-73888600D01*
X176776380Y-69062600D02*
X176776380Y-95986600D01*
X179316380Y-95986600D02*
X179316380Y-99288600D01*
X90416380Y-129768600D02*
X90416380Y-115036600D01*
X95496380Y-115036600D02*
X95496380Y-82016600D01*
X156456380Y-129768600D02*
X156456380Y-105638600D01*
X176776380Y-95986600D02*
X176776380Y-105638600D01*
X37076380Y-129768600D02*
X37076380Y-125450600D01*
X37076380Y-125450600D02*
X36314380Y-124688600D01*
X36314380Y-124688600D02*
X36314380Y-107416600D01*
X44696380Y-80746600D02*
X44696380Y-84048600D01*
X19296380Y-75666600D02*
X19296380Y-78968600D01*
X80764380Y-78968600D02*
X80764380Y-82016600D01*
X80764380Y-78968600D02*
X80764380Y-76682600D01*
X44696380Y-76682600D02*
X44696380Y-80746600D01*
X36314380Y-107416600D02*
X36314380Y-76682600D01*
X-6103620Y-70586600D02*
X-6103620Y-73888600D01*
X-6103620Y-95986600D02*
X-6103620Y-99288600D01*
X-3817618Y-107416600D02*
X-3817618Y-96494602D01*
X-3817618Y-96494602D02*
X-3817620Y-96494600D01*
X-3817620Y-96494600D02*
X-3817620Y-71094600D01*
X19296380Y-75666600D02*
X19296380Y-75412600D01*
X19296380Y-75412600D02*
X19550380Y-75158600D01*
X19550380Y-70586600D02*
X20058380Y-70078600D01*
X19550380Y-75158600D02*
X19550380Y-70586600D01*
X44696380Y-70840600D02*
X45458380Y-70078600D01*
X44696380Y-76682600D02*
X44696380Y-70840600D01*
G04 #@! TO.N,/GND*
X85336380Y-129768600D02*
X85336380Y-111480600D01*
X138676380Y-129768600D02*
X138676380Y-127482600D01*
X138676380Y-127482600D02*
X139184380Y-126974600D01*
X139184380Y-126974600D02*
X139184380Y-116560600D01*
X161536380Y-129768600D02*
X161536380Y-124688600D01*
X163568380Y-124688600D02*
X163568380Y-116560600D01*
X181602380Y-124688600D02*
X181602380Y-122148600D01*
X174236380Y-96066600D02*
X174236380Y-108940600D01*
X174316380Y-95986600D02*
X174236380Y-96066600D01*
X174236380Y-108940600D02*
X174236380Y-116560600D01*
X174236380Y-95906600D02*
X174316380Y-95986600D01*
X174236380Y-70666600D02*
X174236380Y-78460600D01*
X174316380Y-70586600D02*
X174236380Y-70666600D01*
X174236380Y-78460600D02*
X174236380Y-91160600D01*
X174236380Y-91160600D02*
X174236380Y-95906600D01*
X111244380Y-84048600D02*
X111498380Y-84048600D01*
X131310380Y-80572600D02*
X131136380Y-80746600D01*
X131310380Y-75666600D02*
X131310380Y-80572600D01*
X156710380Y-75492600D02*
X156710380Y-70586600D01*
X156536380Y-75666600D02*
X156710380Y-75492600D01*
X139184380Y-116560600D02*
X139184380Y-106400600D01*
X31996380Y-129768600D02*
X31996380Y-125958600D01*
X31996380Y-125958600D02*
X31234380Y-125196600D01*
X31234380Y-125196600D02*
X31234380Y-117576600D01*
X14216380Y-75666600D02*
X13962380Y-75412600D01*
X14296380Y-75666600D02*
X14216380Y-75666600D01*
X39870380Y-80746600D02*
X39870380Y-75666600D01*
X39696380Y-80746600D02*
X39870380Y-80746600D01*
X80764380Y-83968600D02*
X80764380Y-111480600D01*
X-11183620Y-96066600D02*
X-11103620Y-95986600D01*
X-11183620Y-117576600D02*
X-11183620Y-109448600D01*
X-11103620Y-95986600D02*
X-11103620Y-95558600D01*
X-11103620Y-95558600D02*
X-11183620Y-95478600D01*
X-11183620Y-70666600D02*
X-11103620Y-70586600D01*
X-11183620Y-95478600D02*
X-11183620Y-91668600D01*
X-11183620Y-91668600D02*
X-11183620Y-78968600D01*
X-11183620Y-109448600D02*
X-11183620Y-96066600D01*
X-11183620Y-78968600D02*
X-11183620Y-70666600D01*
X139184380Y-106400600D02*
X139184380Y-75666600D01*
X80764380Y-111480600D02*
X80764380Y-113258600D01*
X174316380Y-70586600D02*
X174316380Y-65680600D01*
X-11183620Y-70506600D02*
X-11183620Y-64998608D01*
X-11183620Y-64998608D02*
X-11183624Y-64998604D01*
X-11103620Y-70586600D02*
X-11183620Y-70506600D01*
X6596380Y-62458600D02*
X6596380Y-64998600D01*
X1516380Y-62458600D02*
X1516380Y-64998600D01*
X14216380Y-62458600D02*
X14216380Y-64998600D01*
X37076380Y-64998600D02*
X37076380Y-62458600D01*
X24376380Y-64998600D02*
X24376380Y-62458600D01*
X42156380Y-64998600D02*
X42156380Y-62458600D01*
D19*
G04 #@! TO.N,/D7*
X159758380Y-107416600D02*
X159758380Y-124688608D01*
G04 #@! TO.N,/D6*
X157726380Y-124688600D02*
X157726380Y-109956600D01*
G04 #@! TO.N,/D5*
X155186380Y-124688600D02*
X155186380Y-112496600D01*
G04 #@! TO.N,/D4*
X152646380Y-124688600D02*
X152646380Y-115036600D01*
G04 #@! TO.N,/D3*
X150106380Y-124688600D02*
X150106380Y-117576600D01*
G04 #@! TO.N,/D2*
X147566380Y-124688600D02*
X148074380Y-124180600D01*
X148074380Y-124180600D02*
X148074380Y-114020600D01*
G04 #@! TO.N,/D1*
X144518380Y-111480600D02*
X144518380Y-124688600D01*
G04 #@! TO.N,/D0*
X142486380Y-124688600D02*
X142486380Y-108940600D01*
G04 #@! TO.N,/A19*
X134866380Y-124688600D02*
X134866380Y-122402600D01*
X168140380Y-122402600D02*
X168140380Y-75920600D01*
X-2293620Y-77698600D02*
X-2293620Y-122402600D01*
G04 #@! TO.N,/A18*
X132326380Y-124688600D02*
X132326380Y-121640600D01*
X167378380Y-121640600D02*
X167378380Y-111480600D01*
X167378380Y-77698600D02*
X167378380Y-111480600D01*
X-769620Y-121640600D02*
X-769620Y-78460600D01*
G04 #@! TO.N,/A17*
X129786380Y-124688600D02*
X129786380Y-120878600D01*
X166616380Y-120878622D02*
X166616380Y-103860600D01*
X166616380Y-103860600D02*
X166616380Y-83540600D01*
X-7620Y-120878600D02*
X-7620Y-82778600D01*
G04 #@! TO.N,/A16*
X127246380Y-124688600D02*
X127246380Y-120116600D01*
X165600380Y-120116600D02*
X165600380Y-101320600D01*
X165600380Y-101320600D02*
X165600380Y-80238600D01*
X754380Y-120116600D02*
X754380Y-81000600D01*
G04 #@! TO.N,/A15*
X124706380Y-124688600D02*
X124706380Y-119354600D01*
X164838380Y-119354600D02*
X164838380Y-98780600D01*
X164838380Y-98780600D02*
X164838380Y-82016600D01*
X1516380Y-119354600D02*
X1516380Y-80238600D01*
G04 #@! TO.N,/A14*
X122166380Y-124688600D02*
X122928380Y-123926600D01*
X122928380Y-123926600D02*
X122928380Y-83540600D01*
X122928380Y-77698600D02*
X122928380Y-83540600D01*
G04 #@! TO.N,/A13*
X119118380Y-89890600D02*
X119118380Y-124688600D01*
G04 #@! TO.N,/A12*
X117086380Y-124688600D02*
X117086380Y-86080600D01*
X117086380Y-81000600D02*
X117086380Y-86080600D01*
G04 #@! TO.N,/A11*
X114546380Y-124688600D02*
X114546380Y-97256600D01*
X77716380Y-91668600D02*
X78986380Y-92938600D01*
G04 #@! TO.N,/A10*
X112006380Y-124688600D02*
X112006380Y-99796600D01*
X77716380Y-96748600D02*
X78986380Y-98018600D01*
G04 #@! TO.N,/A9*
X109466380Y-124688600D02*
X109466380Y-89636600D01*
X77716380Y-89128600D02*
X78986380Y-90398600D01*
G04 #@! TO.N,/A8*
X106926380Y-124688600D02*
X107942380Y-123672600D01*
X107942380Y-123672600D02*
X107942380Y-87096600D01*
X77716380Y-86588600D02*
X78986380Y-87858600D01*
G04 #@! TO.N,/A7*
X103624380Y-83540600D02*
X103624380Y-124688600D01*
X83812380Y-84048600D02*
X83812380Y-86080600D01*
G04 #@! TO.N,/A6*
X101846380Y-124688600D02*
X101846380Y-86080600D01*
G04 #@! TO.N,/A5*
X99306380Y-124688600D02*
X99306380Y-88620600D01*
G04 #@! TO.N,/A4*
X96766380Y-124688600D02*
X96766380Y-91160600D01*
G04 #@! TO.N,/A3*
X94226380Y-124688600D02*
X94226380Y-93700600D01*
G04 #@! TO.N,/A2*
X91686380Y-124688600D02*
X92448380Y-123926600D01*
X92448380Y-123926600D02*
X92448380Y-96240600D01*
G04 #@! TO.N,/A1*
X88384380Y-99796600D02*
X88384380Y-124688600D01*
G04 #@! TO.N,/A0*
X86606380Y-124688600D02*
X86606380Y-75666600D01*
X171696380Y-73888600D02*
X171696380Y-68046600D01*
X86606380Y-68046600D02*
X86606380Y-75666600D01*
X86606380Y-75666600D02*
X86606380Y-74396600D01*
G04 #@! TO.N,/MWR*
X136136380Y-129768600D02*
X136136380Y-123164600D01*
X138168380Y-123164600D02*
X138168380Y-87096600D01*
X47236380Y-86080600D02*
X47236380Y-123164600D01*
G04 #@! TO.N,/MRD*
X77716380Y-94208600D02*
X78986380Y-95478600D01*
X133596380Y-129768600D02*
X133596380Y-99796600D01*
G04 #@! TO.N,/32K_RAM_CS_EVEN*
X169664380Y-115290600D02*
X169664380Y-71856600D01*
X140200380Y-104876600D02*
X140200380Y-71856600D01*
G04 #@! TO.N,/32K_ROM_CS_EVEN*
X168902380Y-114020600D02*
X168902380Y-72618600D01*
X100576380Y-99796600D02*
X100576380Y-72618600D01*
G04 #@! TO.N,/512K_CS_EVEN*
X164076380Y-103860600D02*
X164076380Y-81000600D01*
G04 #@! TO.N,/UPPER_512K_EVEN*
X175506380Y-97002600D02*
X175506380Y-107162600D01*
X175760380Y-96748600D02*
X175506380Y-97002600D01*
X175760380Y-94970600D02*
X175760380Y-96748600D01*
X175506380Y-94716600D02*
X175760380Y-94970600D01*
X175506380Y-84556600D02*
X175506380Y-94716600D01*
G04 #@! TO.N,/D11*
X42664380Y-124688600D02*
X42664380Y-116560600D01*
G04 #@! TO.N,/D12*
X40124380Y-124688600D02*
X40124380Y-114020600D01*
G04 #@! TO.N,/D10*
X45204380Y-124688600D02*
X46474380Y-123418600D01*
X46474380Y-123418600D02*
X46474380Y-115290600D01*
G04 #@! TO.N,/D13*
X37584380Y-124688600D02*
X37584380Y-111480600D01*
G04 #@! TO.N,/D9*
X47998380Y-124434600D02*
X47744380Y-124688600D01*
X47998380Y-112496600D02*
X47998380Y-124434600D01*
G04 #@! TO.N,/D14*
X35044380Y-124688600D02*
X35044380Y-108940600D01*
G04 #@! TO.N,/D8*
X50284380Y-124688600D02*
X50284380Y-109956600D01*
G04 #@! TO.N,/D15*
X32504380Y-124688600D02*
X32504380Y-106400600D01*
G04 #@! TO.N,/32K_ROM_CS_ODD*
X62476380Y-98780600D02*
X62476380Y-77698600D01*
X7866380Y-77190600D02*
X7866380Y-115798600D01*
G04 #@! TO.N,/UPPER_512K_ODD*
X-8897620Y-106908600D02*
X-8897620Y-84048600D01*
G04 #@! TO.N,/SBHE*
X-13723620Y-73888600D02*
X-13723620Y-68046600D01*
X74414380Y-124688600D02*
X72636380Y-122910600D01*
X72636380Y-122910600D02*
X72636380Y-68046600D01*
G04 #@! TO.N,/32K_RAM_CS_ODD*
X21836380Y-103606600D02*
X21836380Y-123164600D01*
X-6103620Y-117068600D02*
X-6103620Y-123164600D01*
G04 #@! TO.N,/512K_CS_ODD*
X-1531620Y-102082600D02*
X-1531620Y-82778600D01*
G04 #@! TO.N,/MEMCS16*
X75176380Y-129768600D02*
X75176380Y-118592600D01*
X51046380Y-118592600D02*
X51046380Y-67030600D01*
X12184380Y-62966600D02*
X11676380Y-62458600D01*
X12184380Y-67030600D02*
X12184380Y-62966600D01*
X4564380Y-62966600D02*
X4056380Y-62458600D01*
X4564380Y-67030600D02*
X4564380Y-62966600D01*
G04 #@! TO.N,/LA19*
X57650380Y-122656600D02*
X57650380Y-73888600D01*
X58666380Y-123672600D02*
X57650380Y-122656600D01*
X58666380Y-124434600D02*
X58666380Y-123672600D01*
X40886386Y-73888600D02*
X40886386Y-68554606D01*
X40886386Y-68554606D02*
X39870380Y-67538600D01*
X39870380Y-62712600D02*
X39616380Y-62458600D01*
X39870380Y-67538600D02*
X39870380Y-62712600D01*
G04 #@! TO.N,/LA17*
X56126380Y-124438600D02*
X56126380Y-72364600D01*
X37076380Y-70078600D02*
X37076380Y-72364600D01*
G04 #@! TO.N,/LA18*
X56888380Y-123164600D02*
X56888380Y-73126600D01*
X57396380Y-123672600D02*
X56888380Y-123164600D01*
X57396380Y-124434600D02*
X57396380Y-123672600D01*
X34536380Y-70078600D02*
X34536380Y-73126600D01*
G04 #@! TO.N,/HIGH_MEM*
X9136380Y-62458600D02*
X9136380Y-63982600D01*
X24376380Y-66776600D02*
X24376380Y-70078600D01*
X25646380Y-65506600D02*
X24376380Y-66776600D01*
X25646380Y-63982600D02*
X25646380Y-65506600D01*
G04 #@! TO.N,/LOW_MEM*
X16756380Y-62458600D02*
X16756380Y-66268600D01*
X34536380Y-66268600D02*
X34536380Y-62458600D01*
G04 #@! TO.N,/NOT_LOW*
X39616380Y-70078600D02*
X39616380Y-69824600D01*
X39616380Y-69824600D02*
X39108380Y-69316600D01*
X39108380Y-69316600D02*
X39108380Y-64998600D01*
X39108380Y-64998600D02*
X38346380Y-64236600D01*
X38346380Y-64236600D02*
X38346380Y-60680600D01*
X38346380Y-60680600D02*
X38346380Y-60680600D01*
X31996380Y-60680600D02*
X31996380Y-62458600D01*
G04 #@! TD*
M02*
