G04 #@! TF.GenerationSoftware,KiCad,Pcbnew,(5.1.8)-1*
G04 #@! TF.CreationDate,2021-12-06T13:40:29-07:00*
G04 #@! TF.ProjectId,512k,3531326b-2e6b-4696-9361-645f70636258,rev?*
G04 #@! TF.SameCoordinates,Original*
G04 #@! TF.FileFunction,Legend,Top*
G04 #@! TF.FilePolarity,Positive*
%FSLAX46Y46*%
G04 Gerber Fmt 4.6, Leading zero omitted, Abs format (unit mm)*
G04 Created by KiCad (PCBNEW (5.1.8)-1) date 2021-12-06 13:40:29*
%MOMM*%
%LPD*%
G01*
G04 APERTURE LIST*
%ADD10C,0.150000*%
%ADD11C,0.120000*%
G04 APERTURE END LIST*
D10*
X2890665Y-121584980D02*
X2890665Y-120584980D01*
X3223999Y-121299266D01*
X3557332Y-120584980D01*
X3557332Y-121584980D01*
X4033522Y-121061171D02*
X4366856Y-121061171D01*
X4509713Y-121584980D02*
X4033522Y-121584980D01*
X4033522Y-120584980D01*
X4509713Y-120584980D01*
X4938284Y-121584980D02*
X4938284Y-120584980D01*
X5271618Y-121299266D01*
X5604951Y-120584980D01*
X5604951Y-121584980D01*
X6795427Y-121299266D02*
X7271618Y-121299266D01*
X6700189Y-121584980D02*
X7033522Y-120584980D01*
X7366856Y-121584980D01*
X7700189Y-121584980D02*
X7700189Y-120584980D01*
X7938284Y-120584980D01*
X8081141Y-120632600D01*
X8176380Y-120727838D01*
X8223999Y-120823076D01*
X8271618Y-121013552D01*
X8271618Y-121156409D01*
X8223999Y-121346885D01*
X8176380Y-121442123D01*
X8081141Y-121537361D01*
X7938284Y-121584980D01*
X7700189Y-121584980D01*
X8700189Y-121584980D02*
X8700189Y-120584980D01*
X8938284Y-120584980D01*
X9081141Y-120632600D01*
X9176380Y-120727838D01*
X9223999Y-120823076D01*
X9271618Y-121013552D01*
X9271618Y-121156409D01*
X9223999Y-121346885D01*
X9176380Y-121442123D01*
X9081141Y-121537361D01*
X8938284Y-121584980D01*
X8700189Y-121584980D01*
X10271618Y-121584980D02*
X9938284Y-121108790D01*
X9700189Y-121584980D02*
X9700189Y-120584980D01*
X10081141Y-120584980D01*
X10176380Y-120632600D01*
X10223999Y-120680219D01*
X10271618Y-120775457D01*
X10271618Y-120918314D01*
X10223999Y-121013552D01*
X10176380Y-121061171D01*
X10081141Y-121108790D01*
X9700189Y-121108790D01*
X10700189Y-121061171D02*
X11033522Y-121061171D01*
X11176380Y-121584980D02*
X10700189Y-121584980D01*
X10700189Y-120584980D01*
X11176380Y-120584980D01*
X11557332Y-121537361D02*
X11700189Y-121584980D01*
X11938284Y-121584980D01*
X12033522Y-121537361D01*
X12081141Y-121489742D01*
X12128760Y-121394504D01*
X12128760Y-121299266D01*
X12081141Y-121204028D01*
X12033522Y-121156409D01*
X11938284Y-121108790D01*
X11747808Y-121061171D01*
X11652570Y-121013552D01*
X11604951Y-120965933D01*
X11557332Y-120870695D01*
X11557332Y-120775457D01*
X11604951Y-120680219D01*
X11652570Y-120632600D01*
X11747808Y-120584980D01*
X11985903Y-120584980D01*
X12128760Y-120632600D01*
X12509713Y-121537361D02*
X12652570Y-121584980D01*
X12890665Y-121584980D01*
X12985903Y-121537361D01*
X13033522Y-121489742D01*
X13081141Y-121394504D01*
X13081141Y-121299266D01*
X13033522Y-121204028D01*
X12985903Y-121156409D01*
X12890665Y-121108790D01*
X12700189Y-121061171D01*
X12604951Y-121013552D01*
X12557332Y-120965933D01*
X12509713Y-120870695D01*
X12509713Y-120775457D01*
X12557332Y-120680219D01*
X12604951Y-120632600D01*
X12700189Y-120584980D01*
X12938284Y-120584980D01*
X13081141Y-120632600D01*
X14462094Y-120584980D02*
X14557332Y-120584980D01*
X14652570Y-120632600D01*
X14700189Y-120680219D01*
X14747808Y-120775457D01*
X14795427Y-120965933D01*
X14795427Y-121204028D01*
X14747808Y-121394504D01*
X14700189Y-121489742D01*
X14652570Y-121537361D01*
X14557332Y-121584980D01*
X14462094Y-121584980D01*
X14366856Y-121537361D01*
X14319237Y-121489742D01*
X14271618Y-121394504D01*
X14223999Y-121204028D01*
X14223999Y-120965933D01*
X14271618Y-120775457D01*
X14319237Y-120680219D01*
X14366856Y-120632600D01*
X14462094Y-120584980D01*
X15128760Y-120584980D02*
X15795427Y-121584980D01*
X15795427Y-120584980D02*
X15128760Y-121584980D01*
X16366856Y-120584980D02*
X16462094Y-120584980D01*
X16557332Y-120632600D01*
X16604951Y-120680219D01*
X16652570Y-120775457D01*
X16700189Y-120965933D01*
X16700189Y-121204028D01*
X16652570Y-121394504D01*
X16604951Y-121489742D01*
X16557332Y-121537361D01*
X16462094Y-121584980D01*
X16366856Y-121584980D01*
X16271618Y-121537361D01*
X16223999Y-121489742D01*
X16176379Y-121394504D01*
X16128760Y-121204028D01*
X16128760Y-120965933D01*
X16176379Y-120775457D01*
X16223999Y-120680219D01*
X16271618Y-120632600D01*
X16366856Y-120584980D01*
X17319237Y-120584980D02*
X17414475Y-120584980D01*
X17509713Y-120632600D01*
X17557332Y-120680219D01*
X17604951Y-120775457D01*
X17652570Y-120965933D01*
X17652570Y-121204028D01*
X17604951Y-121394504D01*
X17557332Y-121489742D01*
X17509713Y-121537361D01*
X17414475Y-121584980D01*
X17319237Y-121584980D01*
X17223999Y-121537361D01*
X17176379Y-121489742D01*
X17128760Y-121394504D01*
X17081141Y-121204028D01*
X17081141Y-120965933D01*
X17128760Y-120775457D01*
X17176379Y-120680219D01*
X17223999Y-120632600D01*
X17319237Y-120584980D01*
X18271618Y-120584980D02*
X18366856Y-120584980D01*
X18462094Y-120632600D01*
X18509713Y-120680219D01*
X18557332Y-120775457D01*
X18604951Y-120965933D01*
X18604951Y-121204028D01*
X18557332Y-121394504D01*
X18509713Y-121489742D01*
X18462094Y-121537361D01*
X18366856Y-121584980D01*
X18271618Y-121584980D01*
X18176379Y-121537361D01*
X18128760Y-121489742D01*
X18081141Y-121394504D01*
X18033522Y-121204028D01*
X18033522Y-120965933D01*
X18081141Y-120775457D01*
X18128760Y-120680219D01*
X18176379Y-120632600D01*
X18271618Y-120584980D01*
X19223999Y-120584980D02*
X19319237Y-120584980D01*
X19414475Y-120632600D01*
X19462094Y-120680219D01*
X19509713Y-120775457D01*
X19557332Y-120965933D01*
X19557332Y-121204028D01*
X19509713Y-121394504D01*
X19462094Y-121489742D01*
X19414475Y-121537361D01*
X19319237Y-121584980D01*
X19223999Y-121584980D01*
X19128760Y-121537361D01*
X19081141Y-121489742D01*
X19033522Y-121394504D01*
X18985903Y-121204028D01*
X18985903Y-120965933D01*
X19033522Y-120775457D01*
X19081141Y-120680219D01*
X19128760Y-120632600D01*
X19223999Y-120584980D01*
X20509713Y-121584980D02*
X19938284Y-121584980D01*
X20223999Y-121584980D02*
X20223999Y-120584980D01*
X20128760Y-120727838D01*
X20033522Y-120823076D01*
X19938284Y-120870695D01*
X28338284Y-121584980D02*
X28338284Y-120584980D01*
X28671618Y-121299266D01*
X29004951Y-120584980D01*
X29004951Y-121584980D01*
X29481141Y-121061171D02*
X29814475Y-121061171D01*
X29957332Y-121584980D02*
X29481141Y-121584980D01*
X29481141Y-120584980D01*
X29957332Y-120584980D01*
X30385903Y-121584980D02*
X30385903Y-120584980D01*
X30719237Y-121299266D01*
X31052570Y-120584980D01*
X31052570Y-121584980D01*
X32243046Y-121299266D02*
X32719237Y-121299266D01*
X32147808Y-121584980D02*
X32481141Y-120584980D01*
X32814475Y-121584980D01*
X33147808Y-121584980D02*
X33147808Y-120584980D01*
X33385903Y-120584980D01*
X33528760Y-120632600D01*
X33623999Y-120727838D01*
X33671618Y-120823076D01*
X33719237Y-121013552D01*
X33719237Y-121156409D01*
X33671618Y-121346885D01*
X33623999Y-121442123D01*
X33528760Y-121537361D01*
X33385903Y-121584980D01*
X33147808Y-121584980D01*
X34147808Y-121584980D02*
X34147808Y-120584980D01*
X34385903Y-120584980D01*
X34528760Y-120632600D01*
X34623999Y-120727838D01*
X34671618Y-120823076D01*
X34719237Y-121013552D01*
X34719237Y-121156409D01*
X34671618Y-121346885D01*
X34623999Y-121442123D01*
X34528760Y-121537361D01*
X34385903Y-121584980D01*
X34147808Y-121584980D01*
X35719237Y-121584980D02*
X35385903Y-121108790D01*
X35147808Y-121584980D02*
X35147808Y-120584980D01*
X35528760Y-120584980D01*
X35623999Y-120632600D01*
X35671618Y-120680219D01*
X35719237Y-120775457D01*
X35719237Y-120918314D01*
X35671618Y-121013552D01*
X35623999Y-121061171D01*
X35528760Y-121108790D01*
X35147808Y-121108790D01*
X36147808Y-121061171D02*
X36481141Y-121061171D01*
X36623999Y-121584980D02*
X36147808Y-121584980D01*
X36147808Y-120584980D01*
X36623999Y-120584980D01*
X37004951Y-121537361D02*
X37147808Y-121584980D01*
X37385903Y-121584980D01*
X37481141Y-121537361D01*
X37528760Y-121489742D01*
X37576380Y-121394504D01*
X37576380Y-121299266D01*
X37528760Y-121204028D01*
X37481141Y-121156409D01*
X37385903Y-121108790D01*
X37195427Y-121061171D01*
X37100189Y-121013552D01*
X37052570Y-120965933D01*
X37004951Y-120870695D01*
X37004951Y-120775457D01*
X37052570Y-120680219D01*
X37100189Y-120632600D01*
X37195427Y-120584980D01*
X37433522Y-120584980D01*
X37576380Y-120632600D01*
X37957332Y-121537361D02*
X38100189Y-121584980D01*
X38338284Y-121584980D01*
X38433522Y-121537361D01*
X38481141Y-121489742D01*
X38528760Y-121394504D01*
X38528760Y-121299266D01*
X38481141Y-121204028D01*
X38433522Y-121156409D01*
X38338284Y-121108790D01*
X38147808Y-121061171D01*
X38052570Y-121013552D01*
X38004951Y-120965933D01*
X37957332Y-120870695D01*
X37957332Y-120775457D01*
X38004951Y-120680219D01*
X38052570Y-120632600D01*
X38147808Y-120584980D01*
X38385903Y-120584980D01*
X38528760Y-120632600D01*
X39909713Y-120584980D02*
X40004951Y-120584980D01*
X40100189Y-120632600D01*
X40147808Y-120680219D01*
X40195427Y-120775457D01*
X40243046Y-120965933D01*
X40243046Y-121204028D01*
X40195427Y-121394504D01*
X40147808Y-121489742D01*
X40100189Y-121537361D01*
X40004951Y-121584980D01*
X39909713Y-121584980D01*
X39814475Y-121537361D01*
X39766856Y-121489742D01*
X39719237Y-121394504D01*
X39671618Y-121204028D01*
X39671618Y-120965933D01*
X39719237Y-120775457D01*
X39766856Y-120680219D01*
X39814475Y-120632600D01*
X39909713Y-120584980D01*
X40576380Y-120584980D02*
X41243046Y-121584980D01*
X41243046Y-120584980D02*
X40576380Y-121584980D01*
X41957332Y-121061171D02*
X41623999Y-121061171D01*
X41623999Y-121584980D02*
X41623999Y-120584980D01*
X42100189Y-120584980D01*
X42671618Y-120584980D02*
X42766856Y-120584980D01*
X42862094Y-120632600D01*
X42909713Y-120680219D01*
X42957332Y-120775457D01*
X43004951Y-120965933D01*
X43004951Y-121204028D01*
X42957332Y-121394504D01*
X42909713Y-121489742D01*
X42862094Y-121537361D01*
X42766856Y-121584980D01*
X42671618Y-121584980D01*
X42576379Y-121537361D01*
X42528760Y-121489742D01*
X42481141Y-121394504D01*
X42433522Y-121204028D01*
X42433522Y-120965933D01*
X42481141Y-120775457D01*
X42528760Y-120680219D01*
X42576379Y-120632600D01*
X42671618Y-120584980D01*
X43623999Y-120584980D02*
X43719237Y-120584980D01*
X43814475Y-120632600D01*
X43862094Y-120680219D01*
X43909713Y-120775457D01*
X43957332Y-120965933D01*
X43957332Y-121204028D01*
X43909713Y-121394504D01*
X43862094Y-121489742D01*
X43814475Y-121537361D01*
X43719237Y-121584980D01*
X43623999Y-121584980D01*
X43528760Y-121537361D01*
X43481141Y-121489742D01*
X43433522Y-121394504D01*
X43385903Y-121204028D01*
X43385903Y-120965933D01*
X43433522Y-120775457D01*
X43481141Y-120680219D01*
X43528760Y-120632600D01*
X43623999Y-120584980D01*
X44576379Y-120584980D02*
X44671618Y-120584980D01*
X44766856Y-120632600D01*
X44814475Y-120680219D01*
X44862094Y-120775457D01*
X44909713Y-120965933D01*
X44909713Y-121204028D01*
X44862094Y-121394504D01*
X44814475Y-121489742D01*
X44766856Y-121537361D01*
X44671618Y-121584980D01*
X44576379Y-121584980D01*
X44481141Y-121537361D01*
X44433522Y-121489742D01*
X44385903Y-121394504D01*
X44338284Y-121204028D01*
X44338284Y-120965933D01*
X44385903Y-120775457D01*
X44433522Y-120680219D01*
X44481141Y-120632600D01*
X44576379Y-120584980D01*
X45862094Y-121584980D02*
X45290665Y-121584980D01*
X45576379Y-121584980D02*
X45576379Y-120584980D01*
X45481141Y-120727838D01*
X45385903Y-120823076D01*
X45290665Y-120870695D01*
X59072284Y-121838980D02*
X59072284Y-120838980D01*
X59405618Y-121553266D01*
X59738951Y-120838980D01*
X59738951Y-121838980D01*
X60215141Y-121315171D02*
X60548475Y-121315171D01*
X60691332Y-121838980D02*
X60215141Y-121838980D01*
X60215141Y-120838980D01*
X60691332Y-120838980D01*
X61119903Y-121838980D02*
X61119903Y-120838980D01*
X61453237Y-121553266D01*
X61786570Y-120838980D01*
X61786570Y-121838980D01*
X62977046Y-121553266D02*
X63453237Y-121553266D01*
X62881808Y-121838980D02*
X63215141Y-120838980D01*
X63548475Y-121838980D01*
X63881808Y-121838980D02*
X63881808Y-120838980D01*
X64119903Y-120838980D01*
X64262760Y-120886600D01*
X64357999Y-120981838D01*
X64405618Y-121077076D01*
X64453237Y-121267552D01*
X64453237Y-121410409D01*
X64405618Y-121600885D01*
X64357999Y-121696123D01*
X64262760Y-121791361D01*
X64119903Y-121838980D01*
X63881808Y-121838980D01*
X64881808Y-121838980D02*
X64881808Y-120838980D01*
X65119903Y-120838980D01*
X65262760Y-120886600D01*
X65357999Y-120981838D01*
X65405618Y-121077076D01*
X65453237Y-121267552D01*
X65453237Y-121410409D01*
X65405618Y-121600885D01*
X65357999Y-121696123D01*
X65262760Y-121791361D01*
X65119903Y-121838980D01*
X64881808Y-121838980D01*
X66453237Y-121838980D02*
X66119903Y-121362790D01*
X65881808Y-121838980D02*
X65881808Y-120838980D01*
X66262760Y-120838980D01*
X66357999Y-120886600D01*
X66405618Y-120934219D01*
X66453237Y-121029457D01*
X66453237Y-121172314D01*
X66405618Y-121267552D01*
X66357999Y-121315171D01*
X66262760Y-121362790D01*
X65881808Y-121362790D01*
X66881808Y-121315171D02*
X67215141Y-121315171D01*
X67357999Y-121838980D02*
X66881808Y-121838980D01*
X66881808Y-120838980D01*
X67357999Y-120838980D01*
X67738951Y-121791361D02*
X67881808Y-121838980D01*
X68119903Y-121838980D01*
X68215141Y-121791361D01*
X68262760Y-121743742D01*
X68310380Y-121648504D01*
X68310380Y-121553266D01*
X68262760Y-121458028D01*
X68215141Y-121410409D01*
X68119903Y-121362790D01*
X67929427Y-121315171D01*
X67834189Y-121267552D01*
X67786570Y-121219933D01*
X67738951Y-121124695D01*
X67738951Y-121029457D01*
X67786570Y-120934219D01*
X67834189Y-120886600D01*
X67929427Y-120838980D01*
X68167522Y-120838980D01*
X68310380Y-120886600D01*
X68691332Y-121791361D02*
X68834189Y-121838980D01*
X69072284Y-121838980D01*
X69167522Y-121791361D01*
X69215141Y-121743742D01*
X69262760Y-121648504D01*
X69262760Y-121553266D01*
X69215141Y-121458028D01*
X69167522Y-121410409D01*
X69072284Y-121362790D01*
X68881808Y-121315171D01*
X68786570Y-121267552D01*
X68738951Y-121219933D01*
X68691332Y-121124695D01*
X68691332Y-121029457D01*
X68738951Y-120934219D01*
X68786570Y-120886600D01*
X68881808Y-120838980D01*
X69119903Y-120838980D01*
X69262760Y-120886600D01*
X70643713Y-120838980D02*
X70738951Y-120838980D01*
X70834189Y-120886600D01*
X70881808Y-120934219D01*
X70929427Y-121029457D01*
X70977046Y-121219933D01*
X70977046Y-121458028D01*
X70929427Y-121648504D01*
X70881808Y-121743742D01*
X70834189Y-121791361D01*
X70738951Y-121838980D01*
X70643713Y-121838980D01*
X70548475Y-121791361D01*
X70500856Y-121743742D01*
X70453237Y-121648504D01*
X70405618Y-121458028D01*
X70405618Y-121219933D01*
X70453237Y-121029457D01*
X70500856Y-120934219D01*
X70548475Y-120886600D01*
X70643713Y-120838980D01*
X71310380Y-120838980D02*
X71977046Y-121838980D01*
X71977046Y-120838980D02*
X71310380Y-121838980D01*
X72691332Y-121315171D02*
X72357999Y-121315171D01*
X72357999Y-121838980D02*
X72357999Y-120838980D01*
X72834189Y-120838980D01*
X73357999Y-121267552D02*
X73262760Y-121219933D01*
X73215141Y-121172314D01*
X73167522Y-121077076D01*
X73167522Y-121029457D01*
X73215141Y-120934219D01*
X73262760Y-120886600D01*
X73357999Y-120838980D01*
X73548475Y-120838980D01*
X73643713Y-120886600D01*
X73691332Y-120934219D01*
X73738951Y-121029457D01*
X73738951Y-121077076D01*
X73691332Y-121172314D01*
X73643713Y-121219933D01*
X73548475Y-121267552D01*
X73357999Y-121267552D01*
X73262760Y-121315171D01*
X73215141Y-121362790D01*
X73167522Y-121458028D01*
X73167522Y-121648504D01*
X73215141Y-121743742D01*
X73262760Y-121791361D01*
X73357999Y-121838980D01*
X73548475Y-121838980D01*
X73643713Y-121791361D01*
X73691332Y-121743742D01*
X73738951Y-121648504D01*
X73738951Y-121458028D01*
X73691332Y-121362790D01*
X73643713Y-121315171D01*
X73548475Y-121267552D01*
X74357999Y-120838980D02*
X74453237Y-120838980D01*
X74548475Y-120886600D01*
X74596094Y-120934219D01*
X74643713Y-121029457D01*
X74691332Y-121219933D01*
X74691332Y-121458028D01*
X74643713Y-121648504D01*
X74596094Y-121743742D01*
X74548475Y-121791361D01*
X74453237Y-121838980D01*
X74357999Y-121838980D01*
X74262760Y-121791361D01*
X74215141Y-121743742D01*
X74167522Y-121648504D01*
X74119903Y-121458028D01*
X74119903Y-121219933D01*
X74167522Y-121029457D01*
X74215141Y-120934219D01*
X74262760Y-120886600D01*
X74357999Y-120838980D01*
X75310380Y-120838980D02*
X75405618Y-120838980D01*
X75500856Y-120886600D01*
X75548475Y-120934219D01*
X75596094Y-121029457D01*
X75643713Y-121219933D01*
X75643713Y-121458028D01*
X75596094Y-121648504D01*
X75548475Y-121743742D01*
X75500856Y-121791361D01*
X75405618Y-121838980D01*
X75310380Y-121838980D01*
X75215141Y-121791361D01*
X75167522Y-121743742D01*
X75119903Y-121648504D01*
X75072284Y-121458028D01*
X75072284Y-121219933D01*
X75119903Y-121029457D01*
X75167522Y-120934219D01*
X75215141Y-120886600D01*
X75310380Y-120838980D01*
X76596094Y-121838980D02*
X76024665Y-121838980D01*
X76310380Y-121838980D02*
X76310380Y-120838980D01*
X76215141Y-120981838D01*
X76119903Y-121077076D01*
X76024665Y-121124695D01*
X89552284Y-121838980D02*
X89552284Y-120838980D01*
X89885618Y-121553266D01*
X90218951Y-120838980D01*
X90218951Y-121838980D01*
X90695141Y-121315171D02*
X91028475Y-121315171D01*
X91171332Y-121838980D02*
X90695141Y-121838980D01*
X90695141Y-120838980D01*
X91171332Y-120838980D01*
X91599903Y-121838980D02*
X91599903Y-120838980D01*
X91933237Y-121553266D01*
X92266570Y-120838980D01*
X92266570Y-121838980D01*
X93457046Y-121553266D02*
X93933237Y-121553266D01*
X93361808Y-121838980D02*
X93695141Y-120838980D01*
X94028475Y-121838980D01*
X94361808Y-121838980D02*
X94361808Y-120838980D01*
X94599903Y-120838980D01*
X94742760Y-120886600D01*
X94837999Y-120981838D01*
X94885618Y-121077076D01*
X94933237Y-121267552D01*
X94933237Y-121410409D01*
X94885618Y-121600885D01*
X94837999Y-121696123D01*
X94742760Y-121791361D01*
X94599903Y-121838980D01*
X94361808Y-121838980D01*
X95361808Y-121838980D02*
X95361808Y-120838980D01*
X95599903Y-120838980D01*
X95742760Y-120886600D01*
X95837999Y-120981838D01*
X95885618Y-121077076D01*
X95933237Y-121267552D01*
X95933237Y-121410409D01*
X95885618Y-121600885D01*
X95837999Y-121696123D01*
X95742760Y-121791361D01*
X95599903Y-121838980D01*
X95361808Y-121838980D01*
X96933237Y-121838980D02*
X96599903Y-121362790D01*
X96361808Y-121838980D02*
X96361808Y-120838980D01*
X96742760Y-120838980D01*
X96837999Y-120886600D01*
X96885618Y-120934219D01*
X96933237Y-121029457D01*
X96933237Y-121172314D01*
X96885618Y-121267552D01*
X96837999Y-121315171D01*
X96742760Y-121362790D01*
X96361808Y-121362790D01*
X97361808Y-121315171D02*
X97695141Y-121315171D01*
X97837999Y-121838980D02*
X97361808Y-121838980D01*
X97361808Y-120838980D01*
X97837999Y-120838980D01*
X98218951Y-121791361D02*
X98361808Y-121838980D01*
X98599903Y-121838980D01*
X98695141Y-121791361D01*
X98742760Y-121743742D01*
X98790380Y-121648504D01*
X98790380Y-121553266D01*
X98742760Y-121458028D01*
X98695141Y-121410409D01*
X98599903Y-121362790D01*
X98409427Y-121315171D01*
X98314189Y-121267552D01*
X98266570Y-121219933D01*
X98218951Y-121124695D01*
X98218951Y-121029457D01*
X98266570Y-120934219D01*
X98314189Y-120886600D01*
X98409427Y-120838980D01*
X98647522Y-120838980D01*
X98790380Y-120886600D01*
X99171332Y-121791361D02*
X99314189Y-121838980D01*
X99552284Y-121838980D01*
X99647522Y-121791361D01*
X99695141Y-121743742D01*
X99742760Y-121648504D01*
X99742760Y-121553266D01*
X99695141Y-121458028D01*
X99647522Y-121410409D01*
X99552284Y-121362790D01*
X99361808Y-121315171D01*
X99266570Y-121267552D01*
X99218951Y-121219933D01*
X99171332Y-121124695D01*
X99171332Y-121029457D01*
X99218951Y-120934219D01*
X99266570Y-120886600D01*
X99361808Y-120838980D01*
X99599903Y-120838980D01*
X99742760Y-120886600D01*
X101123713Y-120838980D02*
X101218951Y-120838980D01*
X101314189Y-120886600D01*
X101361808Y-120934219D01*
X101409427Y-121029457D01*
X101457046Y-121219933D01*
X101457046Y-121458028D01*
X101409427Y-121648504D01*
X101361808Y-121743742D01*
X101314189Y-121791361D01*
X101218951Y-121838980D01*
X101123713Y-121838980D01*
X101028475Y-121791361D01*
X100980856Y-121743742D01*
X100933237Y-121648504D01*
X100885618Y-121458028D01*
X100885618Y-121219933D01*
X100933237Y-121029457D01*
X100980856Y-120934219D01*
X101028475Y-120886600D01*
X101123713Y-120838980D01*
X101790380Y-120838980D02*
X102457046Y-121838980D01*
X102457046Y-120838980D02*
X101790380Y-121838980D01*
X103171332Y-121315171D02*
X102837999Y-121315171D01*
X102837999Y-121838980D02*
X102837999Y-120838980D01*
X103314189Y-120838980D01*
X103837999Y-121267552D02*
X103742760Y-121219933D01*
X103695141Y-121172314D01*
X103647522Y-121077076D01*
X103647522Y-121029457D01*
X103695141Y-120934219D01*
X103742760Y-120886600D01*
X103837999Y-120838980D01*
X104028475Y-120838980D01*
X104123713Y-120886600D01*
X104171332Y-120934219D01*
X104218951Y-121029457D01*
X104218951Y-121077076D01*
X104171332Y-121172314D01*
X104123713Y-121219933D01*
X104028475Y-121267552D01*
X103837999Y-121267552D01*
X103742760Y-121315171D01*
X103695141Y-121362790D01*
X103647522Y-121458028D01*
X103647522Y-121648504D01*
X103695141Y-121743742D01*
X103742760Y-121791361D01*
X103837999Y-121838980D01*
X104028475Y-121838980D01*
X104123713Y-121791361D01*
X104171332Y-121743742D01*
X104218951Y-121648504D01*
X104218951Y-121458028D01*
X104171332Y-121362790D01*
X104123713Y-121315171D01*
X104028475Y-121267552D01*
X104837999Y-120838980D02*
X104933237Y-120838980D01*
X105028475Y-120886600D01*
X105076094Y-120934219D01*
X105123713Y-121029457D01*
X105171332Y-121219933D01*
X105171332Y-121458028D01*
X105123713Y-121648504D01*
X105076094Y-121743742D01*
X105028475Y-121791361D01*
X104933237Y-121838980D01*
X104837999Y-121838980D01*
X104742760Y-121791361D01*
X104695141Y-121743742D01*
X104647522Y-121648504D01*
X104599903Y-121458028D01*
X104599903Y-121219933D01*
X104647522Y-121029457D01*
X104695141Y-120934219D01*
X104742760Y-120886600D01*
X104837999Y-120838980D01*
X105790380Y-120838980D02*
X105885618Y-120838980D01*
X105980856Y-120886600D01*
X106028475Y-120934219D01*
X106076094Y-121029457D01*
X106123713Y-121219933D01*
X106123713Y-121458028D01*
X106076094Y-121648504D01*
X106028475Y-121743742D01*
X105980856Y-121791361D01*
X105885618Y-121838980D01*
X105790380Y-121838980D01*
X105695141Y-121791361D01*
X105647522Y-121743742D01*
X105599903Y-121648504D01*
X105552284Y-121458028D01*
X105552284Y-121219933D01*
X105599903Y-121029457D01*
X105647522Y-120934219D01*
X105695141Y-120886600D01*
X105790380Y-120838980D01*
X106742760Y-120838980D02*
X106837999Y-120838980D01*
X106933237Y-120886600D01*
X106980856Y-120934219D01*
X107028475Y-121029457D01*
X107076094Y-121219933D01*
X107076094Y-121458028D01*
X107028475Y-121648504D01*
X106980856Y-121743742D01*
X106933237Y-121791361D01*
X106837999Y-121838980D01*
X106742760Y-121838980D01*
X106647522Y-121791361D01*
X106599903Y-121743742D01*
X106552284Y-121648504D01*
X106504665Y-121458028D01*
X106504665Y-121219933D01*
X106552284Y-121029457D01*
X106599903Y-120934219D01*
X106647522Y-120886600D01*
X106742760Y-120838980D01*
X145130665Y-121584980D02*
X145130665Y-120584980D01*
X145463999Y-121299266D01*
X145797332Y-120584980D01*
X145797332Y-121584980D01*
X146273522Y-121061171D02*
X146606856Y-121061171D01*
X146749713Y-121584980D02*
X146273522Y-121584980D01*
X146273522Y-120584980D01*
X146749713Y-120584980D01*
X147178284Y-121584980D02*
X147178284Y-120584980D01*
X147511618Y-121299266D01*
X147844951Y-120584980D01*
X147844951Y-121584980D01*
X149035427Y-121299266D02*
X149511618Y-121299266D01*
X148940189Y-121584980D02*
X149273522Y-120584980D01*
X149606856Y-121584980D01*
X149940189Y-121584980D02*
X149940189Y-120584980D01*
X150178284Y-120584980D01*
X150321141Y-120632600D01*
X150416380Y-120727838D01*
X150463999Y-120823076D01*
X150511618Y-121013552D01*
X150511618Y-121156409D01*
X150463999Y-121346885D01*
X150416380Y-121442123D01*
X150321141Y-121537361D01*
X150178284Y-121584980D01*
X149940189Y-121584980D01*
X150940189Y-121584980D02*
X150940189Y-120584980D01*
X151178284Y-120584980D01*
X151321141Y-120632600D01*
X151416380Y-120727838D01*
X151463999Y-120823076D01*
X151511618Y-121013552D01*
X151511618Y-121156409D01*
X151463999Y-121346885D01*
X151416380Y-121442123D01*
X151321141Y-121537361D01*
X151178284Y-121584980D01*
X150940189Y-121584980D01*
X152511618Y-121584980D02*
X152178284Y-121108790D01*
X151940189Y-121584980D02*
X151940189Y-120584980D01*
X152321141Y-120584980D01*
X152416380Y-120632600D01*
X152463999Y-120680219D01*
X152511618Y-120775457D01*
X152511618Y-120918314D01*
X152463999Y-121013552D01*
X152416380Y-121061171D01*
X152321141Y-121108790D01*
X151940189Y-121108790D01*
X152940189Y-121061171D02*
X153273522Y-121061171D01*
X153416380Y-121584980D02*
X152940189Y-121584980D01*
X152940189Y-120584980D01*
X153416380Y-120584980D01*
X153797332Y-121537361D02*
X153940189Y-121584980D01*
X154178284Y-121584980D01*
X154273522Y-121537361D01*
X154321141Y-121489742D01*
X154368760Y-121394504D01*
X154368760Y-121299266D01*
X154321141Y-121204028D01*
X154273522Y-121156409D01*
X154178284Y-121108790D01*
X153987808Y-121061171D01*
X153892570Y-121013552D01*
X153844951Y-120965933D01*
X153797332Y-120870695D01*
X153797332Y-120775457D01*
X153844951Y-120680219D01*
X153892570Y-120632600D01*
X153987808Y-120584980D01*
X154225903Y-120584980D01*
X154368760Y-120632600D01*
X154749713Y-121537361D02*
X154892570Y-121584980D01*
X155130665Y-121584980D01*
X155225903Y-121537361D01*
X155273522Y-121489742D01*
X155321141Y-121394504D01*
X155321141Y-121299266D01*
X155273522Y-121204028D01*
X155225903Y-121156409D01*
X155130665Y-121108790D01*
X154940189Y-121061171D01*
X154844951Y-121013552D01*
X154797332Y-120965933D01*
X154749713Y-120870695D01*
X154749713Y-120775457D01*
X154797332Y-120680219D01*
X154844951Y-120632600D01*
X154940189Y-120584980D01*
X155178284Y-120584980D01*
X155321141Y-120632600D01*
X156702094Y-120584980D02*
X156797332Y-120584980D01*
X156892570Y-120632600D01*
X156940189Y-120680219D01*
X156987808Y-120775457D01*
X157035427Y-120965933D01*
X157035427Y-121204028D01*
X156987808Y-121394504D01*
X156940189Y-121489742D01*
X156892570Y-121537361D01*
X156797332Y-121584980D01*
X156702094Y-121584980D01*
X156606856Y-121537361D01*
X156559237Y-121489742D01*
X156511618Y-121394504D01*
X156463999Y-121204028D01*
X156463999Y-120965933D01*
X156511618Y-120775457D01*
X156559237Y-120680219D01*
X156606856Y-120632600D01*
X156702094Y-120584980D01*
X157368760Y-120584980D02*
X158035427Y-121584980D01*
X158035427Y-120584980D02*
X157368760Y-121584980D01*
X158606856Y-120584980D02*
X158702094Y-120584980D01*
X158797332Y-120632600D01*
X158844951Y-120680219D01*
X158892570Y-120775457D01*
X158940189Y-120965933D01*
X158940189Y-121204028D01*
X158892570Y-121394504D01*
X158844951Y-121489742D01*
X158797332Y-121537361D01*
X158702094Y-121584980D01*
X158606856Y-121584980D01*
X158511618Y-121537361D01*
X158463999Y-121489742D01*
X158416380Y-121394504D01*
X158368760Y-121204028D01*
X158368760Y-120965933D01*
X158416380Y-120775457D01*
X158463999Y-120680219D01*
X158511618Y-120632600D01*
X158606856Y-120584980D01*
X159559237Y-120584980D02*
X159654475Y-120584980D01*
X159749713Y-120632600D01*
X159797332Y-120680219D01*
X159844951Y-120775457D01*
X159892570Y-120965933D01*
X159892570Y-121204028D01*
X159844951Y-121394504D01*
X159797332Y-121489742D01*
X159749713Y-121537361D01*
X159654475Y-121584980D01*
X159559237Y-121584980D01*
X159463999Y-121537361D01*
X159416380Y-121489742D01*
X159368760Y-121394504D01*
X159321141Y-121204028D01*
X159321141Y-120965933D01*
X159368760Y-120775457D01*
X159416380Y-120680219D01*
X159463999Y-120632600D01*
X159559237Y-120584980D01*
X160511618Y-120584980D02*
X160606856Y-120584980D01*
X160702094Y-120632600D01*
X160749713Y-120680219D01*
X160797332Y-120775457D01*
X160844951Y-120965933D01*
X160844951Y-121204028D01*
X160797332Y-121394504D01*
X160749713Y-121489742D01*
X160702094Y-121537361D01*
X160606856Y-121584980D01*
X160511618Y-121584980D01*
X160416380Y-121537361D01*
X160368760Y-121489742D01*
X160321141Y-121394504D01*
X160273522Y-121204028D01*
X160273522Y-120965933D01*
X160321141Y-120775457D01*
X160368760Y-120680219D01*
X160416380Y-120632600D01*
X160511618Y-120584980D01*
X161463999Y-120584980D02*
X161559237Y-120584980D01*
X161654475Y-120632600D01*
X161702094Y-120680219D01*
X161749713Y-120775457D01*
X161797332Y-120965933D01*
X161797332Y-121204028D01*
X161749713Y-121394504D01*
X161702094Y-121489742D01*
X161654475Y-121537361D01*
X161559237Y-121584980D01*
X161463999Y-121584980D01*
X161368760Y-121537361D01*
X161321141Y-121489742D01*
X161273522Y-121394504D01*
X161225903Y-121204028D01*
X161225903Y-120965933D01*
X161273522Y-120775457D01*
X161321141Y-120680219D01*
X161368760Y-120632600D01*
X161463999Y-120584980D01*
X162416380Y-120584980D02*
X162511618Y-120584980D01*
X162606856Y-120632600D01*
X162654475Y-120680219D01*
X162702094Y-120775457D01*
X162749713Y-120965933D01*
X162749713Y-121204028D01*
X162702094Y-121394504D01*
X162654475Y-121489742D01*
X162606856Y-121537361D01*
X162511618Y-121584980D01*
X162416380Y-121584980D01*
X162321141Y-121537361D01*
X162273522Y-121489742D01*
X162225903Y-121394504D01*
X162178284Y-121204028D01*
X162178284Y-120965933D01*
X162225903Y-120775457D01*
X162273522Y-120680219D01*
X162321141Y-120632600D01*
X162416380Y-120584980D01*
X148917975Y-61436171D02*
X149251308Y-61436171D01*
X149394165Y-61959980D02*
X148917975Y-61959980D01*
X148917975Y-60959980D01*
X149394165Y-60959980D01*
X149822737Y-61959980D02*
X149822737Y-60959980D01*
X150156070Y-61674266D01*
X150489403Y-60959980D01*
X150489403Y-61959980D01*
X150965594Y-61959980D02*
X150965594Y-60959980D01*
X151298927Y-61674266D01*
X151632260Y-60959980D01*
X151632260Y-61959980D01*
X153441784Y-61864742D02*
X153394165Y-61912361D01*
X153251308Y-61959980D01*
X153156070Y-61959980D01*
X153013213Y-61912361D01*
X152917975Y-61817123D01*
X152870356Y-61721885D01*
X152822737Y-61531409D01*
X152822737Y-61388552D01*
X152870356Y-61198076D01*
X152917975Y-61102838D01*
X153013213Y-61007600D01*
X153156070Y-60959980D01*
X153251308Y-60959980D01*
X153394165Y-61007600D01*
X153441784Y-61055219D01*
X154060832Y-60959980D02*
X154251308Y-60959980D01*
X154346546Y-61007600D01*
X154441784Y-61102838D01*
X154489403Y-61293314D01*
X154489403Y-61626647D01*
X154441784Y-61817123D01*
X154346546Y-61912361D01*
X154251308Y-61959980D01*
X154060832Y-61959980D01*
X153965594Y-61912361D01*
X153870356Y-61817123D01*
X153822737Y-61626647D01*
X153822737Y-61293314D01*
X153870356Y-61102838D01*
X153965594Y-61007600D01*
X154060832Y-60959980D01*
X154917975Y-61959980D02*
X154917975Y-60959980D01*
X155251308Y-61674266D01*
X155584641Y-60959980D01*
X155584641Y-61959980D01*
X156060832Y-61959980D02*
X156060832Y-60959980D01*
X156441784Y-60959980D01*
X156537022Y-61007600D01*
X156584641Y-61055219D01*
X156632260Y-61150457D01*
X156632260Y-61293314D01*
X156584641Y-61388552D01*
X156537022Y-61436171D01*
X156441784Y-61483790D01*
X156060832Y-61483790D01*
X157060832Y-60959980D02*
X157060832Y-61769504D01*
X157108451Y-61864742D01*
X157156070Y-61912361D01*
X157251308Y-61959980D01*
X157441784Y-61959980D01*
X157537022Y-61912361D01*
X157584641Y-61864742D01*
X157632260Y-61769504D01*
X157632260Y-60959980D01*
X157965594Y-60959980D02*
X158537022Y-60959980D01*
X158251308Y-61959980D02*
X158251308Y-60959980D01*
X158870356Y-61436171D02*
X159203689Y-61436171D01*
X159346546Y-61959980D02*
X158870356Y-61959980D01*
X158870356Y-60959980D01*
X159346546Y-60959980D01*
X160346546Y-61959980D02*
X160013213Y-61483790D01*
X159775118Y-61959980D02*
X159775118Y-60959980D01*
X160156070Y-60959980D01*
X160251308Y-61007600D01*
X160298927Y-61055219D01*
X160346546Y-61150457D01*
X160346546Y-61293314D01*
X160298927Y-61388552D01*
X160251308Y-61436171D01*
X160156070Y-61483790D01*
X159775118Y-61483790D01*
X160727499Y-61912361D02*
X160870356Y-61959980D01*
X161108451Y-61959980D01*
X161203689Y-61912361D01*
X161251308Y-61864742D01*
X161298927Y-61769504D01*
X161298927Y-61674266D01*
X161251308Y-61579028D01*
X161203689Y-61531409D01*
X161108451Y-61483790D01*
X160917975Y-61436171D01*
X160822737Y-61388552D01*
X160775118Y-61340933D01*
X160727499Y-61245695D01*
X160727499Y-61150457D01*
X160775118Y-61055219D01*
X160822737Y-61007600D01*
X160917975Y-60959980D01*
X161156070Y-60959980D01*
X161298927Y-61007600D01*
X149441784Y-63609980D02*
X148870356Y-63609980D01*
X149156070Y-63609980D02*
X149156070Y-62609980D01*
X149060832Y-62752838D01*
X148965594Y-62848076D01*
X148870356Y-62895695D01*
X150298927Y-62609980D02*
X150108451Y-62609980D01*
X150013213Y-62657600D01*
X149965594Y-62705219D01*
X149870356Y-62848076D01*
X149822737Y-63038552D01*
X149822737Y-63419504D01*
X149870356Y-63514742D01*
X149917975Y-63562361D01*
X150013213Y-63609980D01*
X150203689Y-63609980D01*
X150298927Y-63562361D01*
X150346546Y-63514742D01*
X150394165Y-63419504D01*
X150394165Y-63181409D01*
X150346546Y-63086171D01*
X150298927Y-63038552D01*
X150203689Y-62990933D01*
X150013213Y-62990933D01*
X149917975Y-63038552D01*
X149870356Y-63086171D01*
X149822737Y-63181409D01*
X151917975Y-63086171D02*
X152060832Y-63133790D01*
X152108451Y-63181409D01*
X152156070Y-63276647D01*
X152156070Y-63419504D01*
X152108451Y-63514742D01*
X152060832Y-63562361D01*
X151965594Y-63609980D01*
X151584641Y-63609980D01*
X151584641Y-62609980D01*
X151917975Y-62609980D01*
X152013213Y-62657600D01*
X152060832Y-62705219D01*
X152108451Y-62800457D01*
X152108451Y-62895695D01*
X152060832Y-62990933D01*
X152013213Y-63038552D01*
X151917975Y-63086171D01*
X151584641Y-63086171D01*
X152584641Y-63609980D02*
X152584641Y-62609980D01*
X152917975Y-62609980D02*
X153489403Y-62609980D01*
X153203689Y-63609980D02*
X153203689Y-62609980D01*
X155060832Y-62609980D02*
X154584641Y-62609980D01*
X154537022Y-63086171D01*
X154584641Y-63038552D01*
X154679880Y-62990933D01*
X154917975Y-62990933D01*
X155013213Y-63038552D01*
X155060832Y-63086171D01*
X155108451Y-63181409D01*
X155108451Y-63419504D01*
X155060832Y-63514742D01*
X155013213Y-63562361D01*
X154917975Y-63609980D01*
X154679880Y-63609980D01*
X154584641Y-63562361D01*
X154537022Y-63514742D01*
X156060832Y-63609980D02*
X155489403Y-63609980D01*
X155775118Y-63609980D02*
X155775118Y-62609980D01*
X155679880Y-62752838D01*
X155584641Y-62848076D01*
X155489403Y-62895695D01*
X156441784Y-62705219D02*
X156489403Y-62657600D01*
X156584641Y-62609980D01*
X156822737Y-62609980D01*
X156917975Y-62657600D01*
X156965594Y-62705219D01*
X157013213Y-62800457D01*
X157013213Y-62895695D01*
X156965594Y-63038552D01*
X156394165Y-63609980D01*
X157013213Y-63609980D01*
X157441784Y-63609980D02*
X157441784Y-62609980D01*
X158013213Y-63609980D02*
X157584641Y-63038552D01*
X158013213Y-62609980D02*
X157441784Y-63181409D01*
X159775118Y-63609980D02*
X159441784Y-63133790D01*
X159203689Y-63609980D02*
X159203689Y-62609980D01*
X159584641Y-62609980D01*
X159679880Y-62657600D01*
X159727499Y-62705219D01*
X159775118Y-62800457D01*
X159775118Y-62943314D01*
X159727499Y-63038552D01*
X159679880Y-63086171D01*
X159584641Y-63133790D01*
X159203689Y-63133790D01*
X160156070Y-63324266D02*
X160632260Y-63324266D01*
X160060832Y-63609980D02*
X160394165Y-62609980D01*
X160727499Y-63609980D01*
X161060832Y-63609980D02*
X161060832Y-62609980D01*
X161394165Y-63324266D01*
X161727499Y-62609980D01*
X161727499Y-63609980D01*
X162251308Y-63562361D02*
X162251308Y-63609980D01*
X162203689Y-63705219D01*
X162156070Y-63752838D01*
X163346546Y-62609980D02*
X163965594Y-62609980D01*
X163632260Y-62990933D01*
X163775118Y-62990933D01*
X163870356Y-63038552D01*
X163917975Y-63086171D01*
X163965594Y-63181409D01*
X163965594Y-63419504D01*
X163917975Y-63514742D01*
X163870356Y-63562361D01*
X163775118Y-63609980D01*
X163489403Y-63609980D01*
X163394165Y-63562361D01*
X163346546Y-63514742D01*
X164346546Y-62705219D02*
X164394165Y-62657600D01*
X164489403Y-62609980D01*
X164727499Y-62609980D01*
X164822737Y-62657600D01*
X164870356Y-62705219D01*
X164917975Y-62800457D01*
X164917975Y-62895695D01*
X164870356Y-63038552D01*
X164298927Y-63609980D01*
X164917975Y-63609980D01*
X165346546Y-63609980D02*
X165346546Y-62609980D01*
X165917975Y-63609980D02*
X165489403Y-63038552D01*
X165917975Y-62609980D02*
X165346546Y-63181409D01*
X167679880Y-63609980D02*
X167346546Y-63133790D01*
X167108451Y-63609980D02*
X167108451Y-62609980D01*
X167489403Y-62609980D01*
X167584641Y-62657600D01*
X167632260Y-62705219D01*
X167679880Y-62800457D01*
X167679880Y-62943314D01*
X167632260Y-63038552D01*
X167584641Y-63086171D01*
X167489403Y-63133790D01*
X167108451Y-63133790D01*
X168298927Y-62609980D02*
X168489403Y-62609980D01*
X168584641Y-62657600D01*
X168679880Y-62752838D01*
X168727499Y-62943314D01*
X168727499Y-63276647D01*
X168679880Y-63467123D01*
X168584641Y-63562361D01*
X168489403Y-63609980D01*
X168298927Y-63609980D01*
X168203689Y-63562361D01*
X168108451Y-63467123D01*
X168060832Y-63276647D01*
X168060832Y-62943314D01*
X168108451Y-62752838D01*
X168203689Y-62657600D01*
X168298927Y-62609980D01*
X169156070Y-63609980D02*
X169156070Y-62609980D01*
X169489403Y-63324266D01*
X169822737Y-62609980D01*
X169822737Y-63609980D01*
X171013213Y-62562361D02*
X170156070Y-63848076D01*
X171917975Y-63609980D02*
X171584641Y-63133790D01*
X171346546Y-63609980D02*
X171346546Y-62609980D01*
X171727499Y-62609980D01*
X171822737Y-62657600D01*
X171870356Y-62705219D01*
X171917975Y-62800457D01*
X171917975Y-62943314D01*
X171870356Y-63038552D01*
X171822737Y-63086171D01*
X171727499Y-63133790D01*
X171346546Y-63133790D01*
X172298927Y-63324266D02*
X172775118Y-63324266D01*
X172203689Y-63609980D02*
X172537022Y-62609980D01*
X172870356Y-63609980D01*
X173203689Y-63609980D02*
X173203689Y-62609980D01*
X173537022Y-63324266D01*
X173870356Y-62609980D01*
X173870356Y-63609980D01*
X149489403Y-65164742D02*
X149441784Y-65212361D01*
X149298927Y-65259980D01*
X149203689Y-65259980D01*
X149060832Y-65212361D01*
X148965594Y-65117123D01*
X148917975Y-65021885D01*
X148870356Y-64831409D01*
X148870356Y-64688552D01*
X148917975Y-64498076D01*
X148965594Y-64402838D01*
X149060832Y-64307600D01*
X149203689Y-64259980D01*
X149298927Y-64259980D01*
X149441784Y-64307600D01*
X149489403Y-64355219D01*
X150060832Y-65259980D02*
X149965594Y-65212361D01*
X149917975Y-65164742D01*
X149870356Y-65069504D01*
X149870356Y-64783790D01*
X149917975Y-64688552D01*
X149965594Y-64640933D01*
X150060832Y-64593314D01*
X150203689Y-64593314D01*
X150298927Y-64640933D01*
X150346546Y-64688552D01*
X150394165Y-64783790D01*
X150394165Y-65069504D01*
X150346546Y-65164742D01*
X150298927Y-65212361D01*
X150203689Y-65259980D01*
X150060832Y-65259980D01*
X150822737Y-64593314D02*
X150822737Y-65593314D01*
X150822737Y-64640933D02*
X150917975Y-64593314D01*
X151108451Y-64593314D01*
X151203689Y-64640933D01*
X151251308Y-64688552D01*
X151298927Y-64783790D01*
X151298927Y-65069504D01*
X151251308Y-65164742D01*
X151203689Y-65212361D01*
X151108451Y-65259980D01*
X150917975Y-65259980D01*
X150822737Y-65212361D01*
X151632260Y-64593314D02*
X151870356Y-65259980D01*
X152108451Y-64593314D02*
X151870356Y-65259980D01*
X151775118Y-65498076D01*
X151727499Y-65545695D01*
X151632260Y-65593314D01*
X152489403Y-65259980D02*
X152489403Y-64593314D01*
X152489403Y-64783790D02*
X152537022Y-64688552D01*
X152584641Y-64640933D01*
X152679880Y-64593314D01*
X152775118Y-64593314D01*
X153108451Y-65259980D02*
X153108451Y-64593314D01*
X153108451Y-64259980D02*
X153060832Y-64307600D01*
X153108451Y-64355219D01*
X153156070Y-64307600D01*
X153108451Y-64259980D01*
X153108451Y-64355219D01*
X154013213Y-64593314D02*
X154013213Y-65402838D01*
X153965594Y-65498076D01*
X153917975Y-65545695D01*
X153822737Y-65593314D01*
X153679880Y-65593314D01*
X153584641Y-65545695D01*
X154013213Y-65212361D02*
X153917975Y-65259980D01*
X153727499Y-65259980D01*
X153632260Y-65212361D01*
X153584641Y-65164742D01*
X153537022Y-65069504D01*
X153537022Y-64783790D01*
X153584641Y-64688552D01*
X153632260Y-64640933D01*
X153727499Y-64593314D01*
X153917975Y-64593314D01*
X154013213Y-64640933D01*
X154489403Y-65259980D02*
X154489403Y-64259980D01*
X154917975Y-65259980D02*
X154917975Y-64736171D01*
X154870356Y-64640933D01*
X154775118Y-64593314D01*
X154632260Y-64593314D01*
X154537022Y-64640933D01*
X154489403Y-64688552D01*
X155251308Y-64593314D02*
X155632260Y-64593314D01*
X155394165Y-64259980D02*
X155394165Y-65117123D01*
X155441784Y-65212361D01*
X155537022Y-65259980D01*
X155632260Y-65259980D01*
X157013213Y-65640933D02*
X156965594Y-65593314D01*
X156870356Y-65450457D01*
X156822737Y-65355219D01*
X156775118Y-65212361D01*
X156727499Y-64974266D01*
X156727499Y-64783790D01*
X156775118Y-64545695D01*
X156822737Y-64402838D01*
X156870356Y-64307600D01*
X156965594Y-64164742D01*
X157013213Y-64117123D01*
X157965594Y-65164742D02*
X157917975Y-65212361D01*
X157775118Y-65259980D01*
X157679880Y-65259980D01*
X157537022Y-65212361D01*
X157441784Y-65117123D01*
X157394165Y-65021885D01*
X157346546Y-64831409D01*
X157346546Y-64688552D01*
X157394165Y-64498076D01*
X157441784Y-64402838D01*
X157537022Y-64307600D01*
X157679880Y-64259980D01*
X157775118Y-64259980D01*
X157917975Y-64307600D01*
X157965594Y-64355219D01*
X158298927Y-65640933D02*
X158346546Y-65593314D01*
X158441784Y-65450457D01*
X158489403Y-65355219D01*
X158537022Y-65212361D01*
X158584641Y-64974266D01*
X158584641Y-64783790D01*
X158537022Y-64545695D01*
X158489403Y-64402838D01*
X158441784Y-64307600D01*
X158346546Y-64164742D01*
X158298927Y-64117123D01*
X159775118Y-64355219D02*
X159822737Y-64307600D01*
X159917975Y-64259980D01*
X160156070Y-64259980D01*
X160251308Y-64307600D01*
X160298927Y-64355219D01*
X160346546Y-64450457D01*
X160346546Y-64545695D01*
X160298927Y-64688552D01*
X159727499Y-65259980D01*
X160346546Y-65259980D01*
X160965594Y-64259980D02*
X161060832Y-64259980D01*
X161156070Y-64307600D01*
X161203689Y-64355219D01*
X161251308Y-64450457D01*
X161298927Y-64640933D01*
X161298927Y-64879028D01*
X161251308Y-65069504D01*
X161203689Y-65164742D01*
X161156070Y-65212361D01*
X161060832Y-65259980D01*
X160965594Y-65259980D01*
X160870356Y-65212361D01*
X160822737Y-65164742D01*
X160775118Y-65069504D01*
X160727499Y-64879028D01*
X160727499Y-64640933D01*
X160775118Y-64450457D01*
X160822737Y-64355219D01*
X160870356Y-64307600D01*
X160965594Y-64259980D01*
X161679880Y-64355219D02*
X161727499Y-64307600D01*
X161822737Y-64259980D01*
X162060832Y-64259980D01*
X162156070Y-64307600D01*
X162203689Y-64355219D01*
X162251308Y-64450457D01*
X162251308Y-64545695D01*
X162203689Y-64688552D01*
X161632260Y-65259980D01*
X162251308Y-65259980D01*
X162632260Y-64355219D02*
X162679880Y-64307600D01*
X162775118Y-64259980D01*
X163013213Y-64259980D01*
X163108451Y-64307600D01*
X163156070Y-64355219D01*
X163203689Y-64450457D01*
X163203689Y-64545695D01*
X163156070Y-64688552D01*
X162584641Y-65259980D01*
X163203689Y-65259980D01*
X164394165Y-64736171D02*
X164727499Y-64736171D01*
X164870356Y-65259980D02*
X164394165Y-65259980D01*
X164394165Y-64259980D01*
X164870356Y-64259980D01*
X165298927Y-65259980D02*
X165298927Y-64259980D01*
X165632260Y-64974266D01*
X165965594Y-64259980D01*
X165965594Y-65259980D01*
X166441784Y-65259980D02*
X166441784Y-64259980D01*
X166775118Y-64974266D01*
X167108451Y-64259980D01*
X167108451Y-65259980D01*
X148822737Y-66243314D02*
X149013213Y-66909980D01*
X149203689Y-66433790D01*
X149394165Y-66909980D01*
X149584641Y-66243314D01*
X149870356Y-66243314D02*
X150060832Y-66909980D01*
X150251308Y-66433790D01*
X150441784Y-66909980D01*
X150632260Y-66243314D01*
X150917975Y-66243314D02*
X151108451Y-66909980D01*
X151298927Y-66433790D01*
X151489403Y-66909980D01*
X151679880Y-66243314D01*
X152060832Y-66814742D02*
X152108451Y-66862361D01*
X152060832Y-66909980D01*
X152013213Y-66862361D01*
X152060832Y-66814742D01*
X152060832Y-66909980D01*
X152537022Y-66909980D02*
X152537022Y-65909980D01*
X152965594Y-66909980D02*
X152965594Y-66386171D01*
X152917975Y-66290933D01*
X152822737Y-66243314D01*
X152679880Y-66243314D01*
X152584641Y-66290933D01*
X152537022Y-66338552D01*
X153584641Y-66909980D02*
X153489403Y-66862361D01*
X153441784Y-66814742D01*
X153394165Y-66719504D01*
X153394165Y-66433790D01*
X153441784Y-66338552D01*
X153489403Y-66290933D01*
X153584641Y-66243314D01*
X153727499Y-66243314D01*
X153822737Y-66290933D01*
X153870356Y-66338552D01*
X153917975Y-66433790D01*
X153917975Y-66719504D01*
X153870356Y-66814742D01*
X153822737Y-66862361D01*
X153727499Y-66909980D01*
X153584641Y-66909980D01*
X154346546Y-66909980D02*
X154346546Y-66243314D01*
X154346546Y-66338552D02*
X154394165Y-66290933D01*
X154489403Y-66243314D01*
X154632260Y-66243314D01*
X154727499Y-66290933D01*
X154775118Y-66386171D01*
X154775118Y-66909980D01*
X154775118Y-66386171D02*
X154822737Y-66290933D01*
X154917975Y-66243314D01*
X155060832Y-66243314D01*
X155156070Y-66290933D01*
X155203689Y-66386171D01*
X155203689Y-66909980D01*
X156060832Y-66862361D02*
X155965594Y-66909980D01*
X155775118Y-66909980D01*
X155679880Y-66862361D01*
X155632260Y-66767123D01*
X155632260Y-66386171D01*
X155679880Y-66290933D01*
X155775118Y-66243314D01*
X155965594Y-66243314D01*
X156060832Y-66290933D01*
X156108451Y-66386171D01*
X156108451Y-66481409D01*
X155632260Y-66576647D01*
X156537022Y-66909980D02*
X156537022Y-65909980D01*
X156537022Y-66290933D02*
X156632260Y-66243314D01*
X156822737Y-66243314D01*
X156917975Y-66290933D01*
X156965594Y-66338552D01*
X157013213Y-66433790D01*
X157013213Y-66719504D01*
X156965594Y-66814742D01*
X156917975Y-66862361D01*
X156822737Y-66909980D01*
X156632260Y-66909980D01*
X156537022Y-66862361D01*
X157441784Y-66909980D02*
X157441784Y-66243314D01*
X157441784Y-66433790D02*
X157489403Y-66338552D01*
X157537022Y-66290933D01*
X157632260Y-66243314D01*
X157727499Y-66243314D01*
X158441784Y-66862361D02*
X158346546Y-66909980D01*
X158156070Y-66909980D01*
X158060832Y-66862361D01*
X158013213Y-66767123D01*
X158013213Y-66386171D01*
X158060832Y-66290933D01*
X158156070Y-66243314D01*
X158346546Y-66243314D01*
X158441784Y-66290933D01*
X158489403Y-66386171D01*
X158489403Y-66481409D01*
X158013213Y-66576647D01*
X158822737Y-66243314D02*
X159013213Y-66909980D01*
X159203689Y-66433790D01*
X159394165Y-66909980D01*
X159584641Y-66243314D01*
X160108451Y-66338552D02*
X160013213Y-66290933D01*
X159965594Y-66243314D01*
X159917975Y-66148076D01*
X159917975Y-66100457D01*
X159965594Y-66005219D01*
X160013213Y-65957600D01*
X160108451Y-65909980D01*
X160298927Y-65909980D01*
X160394165Y-65957600D01*
X160441784Y-66005219D01*
X160489403Y-66100457D01*
X160489403Y-66148076D01*
X160441784Y-66243314D01*
X160394165Y-66290933D01*
X160298927Y-66338552D01*
X160108451Y-66338552D01*
X160013213Y-66386171D01*
X159965594Y-66433790D01*
X159917975Y-66529028D01*
X159917975Y-66719504D01*
X159965594Y-66814742D01*
X160013213Y-66862361D01*
X160108451Y-66909980D01*
X160298927Y-66909980D01*
X160394165Y-66862361D01*
X160441784Y-66814742D01*
X160489403Y-66719504D01*
X160489403Y-66529028D01*
X160441784Y-66433790D01*
X160394165Y-66386171D01*
X160298927Y-66338552D01*
X161108451Y-65909980D02*
X161203689Y-65909980D01*
X161298927Y-65957600D01*
X161346546Y-66005219D01*
X161394165Y-66100457D01*
X161441784Y-66290933D01*
X161441784Y-66529028D01*
X161394165Y-66719504D01*
X161346546Y-66814742D01*
X161298927Y-66862361D01*
X161203689Y-66909980D01*
X161108451Y-66909980D01*
X161013213Y-66862361D01*
X160965594Y-66814742D01*
X160917975Y-66719504D01*
X160870356Y-66529028D01*
X160870356Y-66290933D01*
X160917975Y-66100457D01*
X160965594Y-66005219D01*
X161013213Y-65957600D01*
X161108451Y-65909980D01*
X162013213Y-66338552D02*
X161917975Y-66290933D01*
X161870356Y-66243314D01*
X161822737Y-66148076D01*
X161822737Y-66100457D01*
X161870356Y-66005219D01*
X161917975Y-65957600D01*
X162013213Y-65909980D01*
X162203689Y-65909980D01*
X162298927Y-65957600D01*
X162346546Y-66005219D01*
X162394165Y-66100457D01*
X162394165Y-66148076D01*
X162346546Y-66243314D01*
X162298927Y-66290933D01*
X162203689Y-66338552D01*
X162013213Y-66338552D01*
X161917975Y-66386171D01*
X161870356Y-66433790D01*
X161822737Y-66529028D01*
X161822737Y-66719504D01*
X161870356Y-66814742D01*
X161917975Y-66862361D01*
X162013213Y-66909980D01*
X162203689Y-66909980D01*
X162298927Y-66862361D01*
X162346546Y-66814742D01*
X162394165Y-66719504D01*
X162394165Y-66529028D01*
X162346546Y-66433790D01*
X162298927Y-66386171D01*
X162203689Y-66338552D01*
X162965594Y-66338552D02*
X162870356Y-66290933D01*
X162822737Y-66243314D01*
X162775118Y-66148076D01*
X162775118Y-66100457D01*
X162822737Y-66005219D01*
X162870356Y-65957600D01*
X162965594Y-65909980D01*
X163156070Y-65909980D01*
X163251308Y-65957600D01*
X163298927Y-66005219D01*
X163346546Y-66100457D01*
X163346546Y-66148076D01*
X163298927Y-66243314D01*
X163251308Y-66290933D01*
X163156070Y-66338552D01*
X162965594Y-66338552D01*
X162870356Y-66386171D01*
X162822737Y-66433790D01*
X162775118Y-66529028D01*
X162775118Y-66719504D01*
X162822737Y-66814742D01*
X162870356Y-66862361D01*
X162965594Y-66909980D01*
X163156070Y-66909980D01*
X163251308Y-66862361D01*
X163298927Y-66814742D01*
X163346546Y-66719504D01*
X163346546Y-66529028D01*
X163298927Y-66433790D01*
X163251308Y-66386171D01*
X163156070Y-66338552D01*
X163775118Y-66814742D02*
X163822737Y-66862361D01*
X163775118Y-66909980D01*
X163727499Y-66862361D01*
X163775118Y-66814742D01*
X163775118Y-66909980D01*
X164679880Y-66862361D02*
X164584641Y-66909980D01*
X164394165Y-66909980D01*
X164298927Y-66862361D01*
X164251308Y-66814742D01*
X164203689Y-66719504D01*
X164203689Y-66433790D01*
X164251308Y-66338552D01*
X164298927Y-66290933D01*
X164394165Y-66243314D01*
X164584641Y-66243314D01*
X164679880Y-66290933D01*
X165251308Y-66909980D02*
X165156070Y-66862361D01*
X165108451Y-66814742D01*
X165060832Y-66719504D01*
X165060832Y-66433790D01*
X165108451Y-66338552D01*
X165156070Y-66290933D01*
X165251308Y-66243314D01*
X165394165Y-66243314D01*
X165489403Y-66290933D01*
X165537022Y-66338552D01*
X165584641Y-66433790D01*
X165584641Y-66719504D01*
X165537022Y-66814742D01*
X165489403Y-66862361D01*
X165394165Y-66909980D01*
X165251308Y-66909980D01*
X166013213Y-66909980D02*
X166013213Y-66243314D01*
X166013213Y-66338552D02*
X166060832Y-66290933D01*
X166156070Y-66243314D01*
X166298927Y-66243314D01*
X166394165Y-66290933D01*
X166441784Y-66386171D01*
X166441784Y-66909980D01*
X166441784Y-66386171D02*
X166489403Y-66290933D01*
X166584641Y-66243314D01*
X166727499Y-66243314D01*
X166822737Y-66290933D01*
X166870356Y-66386171D01*
X166870356Y-66909980D01*
X120032284Y-121584980D02*
X120032284Y-120584980D01*
X120365618Y-121299266D01*
X120698951Y-120584980D01*
X120698951Y-121584980D01*
X121175141Y-121061171D02*
X121508475Y-121061171D01*
X121651332Y-121584980D02*
X121175141Y-121584980D01*
X121175141Y-120584980D01*
X121651332Y-120584980D01*
X122079903Y-121584980D02*
X122079903Y-120584980D01*
X122413237Y-121299266D01*
X122746570Y-120584980D01*
X122746570Y-121584980D01*
X123937046Y-121299266D02*
X124413237Y-121299266D01*
X123841808Y-121584980D02*
X124175141Y-120584980D01*
X124508475Y-121584980D01*
X124841808Y-121584980D02*
X124841808Y-120584980D01*
X125079903Y-120584980D01*
X125222760Y-120632600D01*
X125317999Y-120727838D01*
X125365618Y-120823076D01*
X125413237Y-121013552D01*
X125413237Y-121156409D01*
X125365618Y-121346885D01*
X125317999Y-121442123D01*
X125222760Y-121537361D01*
X125079903Y-121584980D01*
X124841808Y-121584980D01*
X125841808Y-121584980D02*
X125841808Y-120584980D01*
X126079903Y-120584980D01*
X126222760Y-120632600D01*
X126317999Y-120727838D01*
X126365618Y-120823076D01*
X126413237Y-121013552D01*
X126413237Y-121156409D01*
X126365618Y-121346885D01*
X126317999Y-121442123D01*
X126222760Y-121537361D01*
X126079903Y-121584980D01*
X125841808Y-121584980D01*
X127413237Y-121584980D02*
X127079903Y-121108790D01*
X126841808Y-121584980D02*
X126841808Y-120584980D01*
X127222760Y-120584980D01*
X127317999Y-120632600D01*
X127365618Y-120680219D01*
X127413237Y-120775457D01*
X127413237Y-120918314D01*
X127365618Y-121013552D01*
X127317999Y-121061171D01*
X127222760Y-121108790D01*
X126841808Y-121108790D01*
X127841808Y-121061171D02*
X128175141Y-121061171D01*
X128317999Y-121584980D02*
X127841808Y-121584980D01*
X127841808Y-120584980D01*
X128317999Y-120584980D01*
X128698951Y-121537361D02*
X128841808Y-121584980D01*
X129079903Y-121584980D01*
X129175141Y-121537361D01*
X129222760Y-121489742D01*
X129270380Y-121394504D01*
X129270380Y-121299266D01*
X129222760Y-121204028D01*
X129175141Y-121156409D01*
X129079903Y-121108790D01*
X128889427Y-121061171D01*
X128794189Y-121013552D01*
X128746570Y-120965933D01*
X128698951Y-120870695D01*
X128698951Y-120775457D01*
X128746570Y-120680219D01*
X128794189Y-120632600D01*
X128889427Y-120584980D01*
X129127522Y-120584980D01*
X129270380Y-120632600D01*
X129651332Y-121537361D02*
X129794189Y-121584980D01*
X130032284Y-121584980D01*
X130127522Y-121537361D01*
X130175141Y-121489742D01*
X130222760Y-121394504D01*
X130222760Y-121299266D01*
X130175141Y-121204028D01*
X130127522Y-121156409D01*
X130032284Y-121108790D01*
X129841808Y-121061171D01*
X129746570Y-121013552D01*
X129698951Y-120965933D01*
X129651332Y-120870695D01*
X129651332Y-120775457D01*
X129698951Y-120680219D01*
X129746570Y-120632600D01*
X129841808Y-120584980D01*
X130079903Y-120584980D01*
X130222760Y-120632600D01*
X131603713Y-120584980D02*
X131698951Y-120584980D01*
X131794189Y-120632600D01*
X131841808Y-120680219D01*
X131889427Y-120775457D01*
X131937046Y-120965933D01*
X131937046Y-121204028D01*
X131889427Y-121394504D01*
X131841808Y-121489742D01*
X131794189Y-121537361D01*
X131698951Y-121584980D01*
X131603713Y-121584980D01*
X131508475Y-121537361D01*
X131460856Y-121489742D01*
X131413237Y-121394504D01*
X131365618Y-121204028D01*
X131365618Y-120965933D01*
X131413237Y-120775457D01*
X131460856Y-120680219D01*
X131508475Y-120632600D01*
X131603713Y-120584980D01*
X132270380Y-120584980D02*
X132937046Y-121584980D01*
X132937046Y-120584980D02*
X132270380Y-121584980D01*
X133651332Y-121061171D02*
X133317999Y-121061171D01*
X133317999Y-121584980D02*
X133317999Y-120584980D01*
X133794189Y-120584980D01*
X134365618Y-120584980D02*
X134460856Y-120584980D01*
X134556094Y-120632600D01*
X134603713Y-120680219D01*
X134651332Y-120775457D01*
X134698951Y-120965933D01*
X134698951Y-121204028D01*
X134651332Y-121394504D01*
X134603713Y-121489742D01*
X134556094Y-121537361D01*
X134460856Y-121584980D01*
X134365618Y-121584980D01*
X134270380Y-121537361D01*
X134222760Y-121489742D01*
X134175141Y-121394504D01*
X134127522Y-121204028D01*
X134127522Y-120965933D01*
X134175141Y-120775457D01*
X134222760Y-120680219D01*
X134270380Y-120632600D01*
X134365618Y-120584980D01*
X135317999Y-120584980D02*
X135413237Y-120584980D01*
X135508475Y-120632600D01*
X135556094Y-120680219D01*
X135603713Y-120775457D01*
X135651332Y-120965933D01*
X135651332Y-121204028D01*
X135603713Y-121394504D01*
X135556094Y-121489742D01*
X135508475Y-121537361D01*
X135413237Y-121584980D01*
X135317999Y-121584980D01*
X135222760Y-121537361D01*
X135175141Y-121489742D01*
X135127522Y-121394504D01*
X135079903Y-121204028D01*
X135079903Y-120965933D01*
X135127522Y-120775457D01*
X135175141Y-120680219D01*
X135222760Y-120632600D01*
X135317999Y-120584980D01*
X136270380Y-120584980D02*
X136365618Y-120584980D01*
X136460856Y-120632600D01*
X136508475Y-120680219D01*
X136556094Y-120775457D01*
X136603713Y-120965933D01*
X136603713Y-121204028D01*
X136556094Y-121394504D01*
X136508475Y-121489742D01*
X136460856Y-121537361D01*
X136365618Y-121584980D01*
X136270380Y-121584980D01*
X136175141Y-121537361D01*
X136127522Y-121489742D01*
X136079903Y-121394504D01*
X136032284Y-121204028D01*
X136032284Y-120965933D01*
X136079903Y-120775457D01*
X136127522Y-120680219D01*
X136175141Y-120632600D01*
X136270380Y-120584980D01*
X137222760Y-120584980D02*
X137317999Y-120584980D01*
X137413237Y-120632600D01*
X137460856Y-120680219D01*
X137508475Y-120775457D01*
X137556094Y-120965933D01*
X137556094Y-121204028D01*
X137508475Y-121394504D01*
X137460856Y-121489742D01*
X137413237Y-121537361D01*
X137317999Y-121584980D01*
X137222760Y-121584980D01*
X137127522Y-121537361D01*
X137079903Y-121489742D01*
X137032284Y-121394504D01*
X136984665Y-121204028D01*
X136984665Y-120965933D01*
X137032284Y-120775457D01*
X137079903Y-120680219D01*
X137127522Y-120632600D01*
X137222760Y-120584980D01*
D11*
G04 #@! TO.C,U12*
X43486380Y-65268600D02*
X43486380Y-63618600D01*
X43486380Y-63618600D02*
X23046380Y-63618600D01*
X23046380Y-63618600D02*
X23046380Y-68918600D01*
X23046380Y-68918600D02*
X43486380Y-68918600D01*
X43486380Y-68918600D02*
X43486380Y-67268600D01*
X43486380Y-67268600D02*
G75*
G02*
X43486380Y-65268600I0J1000000D01*
G01*
G04 #@! TO.C,U11*
X18086380Y-68918600D02*
X18086380Y-67268600D01*
X186380Y-68918600D02*
X18086380Y-68918600D01*
X186380Y-63618600D02*
X186380Y-68918600D01*
X18086380Y-63618600D02*
X186380Y-63618600D01*
X18086380Y-65268600D02*
X18086380Y-63618600D01*
X18086380Y-67268600D02*
G75*
G02*
X18086380Y-65268600I0J1000000D01*
G01*
G04 #@! TO.C,C12*
X44403380Y-69848600D02*
X44388380Y-69848600D01*
X46528380Y-69848600D02*
X46513380Y-69848600D01*
X44403380Y-65308600D02*
X44388380Y-65308600D01*
X46528380Y-65308600D02*
X46513380Y-65308600D01*
X44388380Y-65308600D02*
X44388380Y-69848600D01*
X46528380Y-65308600D02*
X46528380Y-69848600D01*
G04 #@! TO.C,C11*
X19003380Y-69848600D02*
X18988380Y-69848600D01*
X21128380Y-69848600D02*
X21113380Y-69848600D01*
X19003380Y-65308600D02*
X18988380Y-65308600D01*
X21128380Y-65308600D02*
X21113380Y-65308600D01*
X18988380Y-65308600D02*
X18988380Y-69848600D01*
X21128380Y-65308600D02*
X21128380Y-69848600D01*
G04 #@! TO.C,U10*
X-10913620Y-97958600D02*
X-12563620Y-97958600D01*
X-12563620Y-97958600D02*
X-12563620Y-118398600D01*
X-12563620Y-118398600D02*
X-7263620Y-118398600D01*
X-7263620Y-118398600D02*
X-7263620Y-97958600D01*
X-7263620Y-97958600D02*
X-8913620Y-97958600D01*
X-8913620Y-97958600D02*
G75*
G02*
X-10913620Y-97958600I-1000000J0D01*
G01*
G04 #@! TO.C,U9*
X10676380Y-77638600D02*
X5216380Y-77638600D01*
X5216380Y-77638600D02*
X5216380Y-118398600D01*
X5216380Y-118398600D02*
X18136380Y-118398600D01*
X18136380Y-118398600D02*
X18136380Y-77638600D01*
X18136380Y-77638600D02*
X12676380Y-77638600D01*
X12676380Y-77638600D02*
G75*
G02*
X10676380Y-77638600I-1000000J0D01*
G01*
G04 #@! TO.C,U8*
X36076380Y-82718600D02*
X30616380Y-82718600D01*
X30616380Y-82718600D02*
X30616380Y-118398600D01*
X30616380Y-118398600D02*
X43536380Y-118398600D01*
X43536380Y-118398600D02*
X43536380Y-82718600D01*
X43536380Y-82718600D02*
X38076380Y-82718600D01*
X38076380Y-82718600D02*
G75*
G02*
X36076380Y-82718600I-1000000J0D01*
G01*
G04 #@! TO.C,U7*
X-10913620Y-72558600D02*
X-12563620Y-72558600D01*
X-12563620Y-72558600D02*
X-12563620Y-92998600D01*
X-12563620Y-92998600D02*
X-7263620Y-92998600D01*
X-7263620Y-92998600D02*
X-7263620Y-72558600D01*
X-7263620Y-72558600D02*
X-8913620Y-72558600D01*
X-8913620Y-72558600D02*
G75*
G02*
X-10913620Y-72558600I-1000000J0D01*
G01*
G04 #@! TO.C,U6*
X59286380Y-72618600D02*
G75*
G03*
X59286380Y-72618600I-2550000J0D01*
G01*
X57636380Y-72618600D02*
G75*
G03*
X57636380Y-72618600I-900000J0D01*
G01*
X56006380Y-75068600D02*
X56006380Y-118908600D01*
X56006380Y-118908600D02*
X79106380Y-118908600D01*
X79106380Y-118908600D02*
X79106380Y-68308600D01*
X79106380Y-68308600D02*
X56006380Y-68308600D01*
X56006380Y-68308600D02*
X56006380Y-70168600D01*
X58286380Y-68308600D02*
X58286380Y-70568600D01*
X54986380Y-80238600D02*
X54986380Y-77698600D01*
G04 #@! TO.C,C10*
X39926380Y-79676600D02*
X44466380Y-79676600D01*
X39926380Y-81816600D02*
X44466380Y-81816600D01*
X39926380Y-79676600D02*
X39926380Y-79691600D01*
X39926380Y-81801600D02*
X39926380Y-81816600D01*
X44466380Y-79676600D02*
X44466380Y-79691600D01*
X44466380Y-81801600D02*
X44466380Y-81816600D01*
G04 #@! TO.C,C9*
X14526380Y-74596600D02*
X19066380Y-74596600D01*
X14526380Y-76736600D02*
X19066380Y-76736600D01*
X14526380Y-74596600D02*
X14526380Y-74611600D01*
X14526380Y-76721600D02*
X14526380Y-76736600D01*
X19066380Y-74596600D02*
X19066380Y-74611600D01*
X19066380Y-76721600D02*
X19066380Y-76736600D01*
G04 #@! TO.C,C8*
X79694380Y-83738600D02*
X79694380Y-79198600D01*
X81834380Y-83738600D02*
X81834380Y-79198600D01*
X79694380Y-83738600D02*
X79709380Y-83738600D01*
X81819380Y-83738600D02*
X81834380Y-83738600D01*
X79694380Y-79198600D02*
X79709380Y-79198600D01*
X81819380Y-79198600D02*
X81834380Y-79198600D01*
G04 #@! TO.C,C7*
X-10873620Y-69516600D02*
X-6333620Y-69516600D01*
X-10873620Y-71656600D02*
X-6333620Y-71656600D01*
X-10873620Y-69516600D02*
X-10873620Y-69531600D01*
X-10873620Y-71641600D02*
X-10873620Y-71656600D01*
X-6333620Y-69516600D02*
X-6333620Y-69531600D01*
X-6333620Y-71641600D02*
X-6333620Y-71656600D01*
G04 #@! TO.C,C6*
X-10873620Y-94916600D02*
X-6333620Y-94916600D01*
X-10873620Y-97056600D02*
X-6333620Y-97056600D01*
X-10873620Y-94916600D02*
X-10873620Y-94931600D01*
X-10873620Y-97041600D02*
X-10873620Y-97056600D01*
X-6333620Y-94916600D02*
X-6333620Y-94931600D01*
X-6333620Y-97041600D02*
X-6333620Y-97056600D01*
G04 #@! TO.C,U5*
X174506380Y-97958600D02*
X172856380Y-97958600D01*
X172856380Y-97958600D02*
X172856380Y-118398600D01*
X172856380Y-118398600D02*
X178156380Y-118398600D01*
X178156380Y-118398600D02*
X178156380Y-97958600D01*
X178156380Y-97958600D02*
X176506380Y-97958600D01*
X176506380Y-97958600D02*
G75*
G02*
X174506380Y-97958600I-1000000J0D01*
G01*
G04 #@! TO.C,U4*
X174506380Y-72558600D02*
X172856380Y-72558600D01*
X172856380Y-72558600D02*
X172856380Y-92998600D01*
X172856380Y-92998600D02*
X178156380Y-92998600D01*
X178156380Y-92998600D02*
X178156380Y-72558600D01*
X178156380Y-72558600D02*
X176506380Y-72558600D01*
X176506380Y-72558600D02*
G75*
G02*
X174506380Y-72558600I-1000000J0D01*
G01*
G04 #@! TO.C,C5*
X174546380Y-94916600D02*
X179086380Y-94916600D01*
X174546380Y-97056600D02*
X179086380Y-97056600D01*
X174546380Y-94916600D02*
X174546380Y-94931600D01*
X174546380Y-97041600D02*
X174546380Y-97056600D01*
X179086380Y-94916600D02*
X179086380Y-94931600D01*
X179086380Y-97041600D02*
X179086380Y-97056600D01*
G04 #@! TO.C,C4*
X174546380Y-69516600D02*
X179086380Y-69516600D01*
X174546380Y-71656600D02*
X179086380Y-71656600D01*
X174546380Y-69516600D02*
X174546380Y-69531600D01*
X174546380Y-71641600D02*
X174546380Y-71656600D01*
X179086380Y-69516600D02*
X179086380Y-69531600D01*
X179086380Y-71641600D02*
X179086380Y-71656600D01*
G04 #@! TO.C,C3*
X156766380Y-74596600D02*
X161306380Y-74596600D01*
X156766380Y-76736600D02*
X161306380Y-76736600D01*
X156766380Y-74596600D02*
X156766380Y-74611600D01*
X156766380Y-76721600D02*
X156766380Y-76736600D01*
X161306380Y-74596600D02*
X161306380Y-74611600D01*
X161306380Y-76721600D02*
X161306380Y-76736600D01*
G04 #@! TO.C,C2*
X131366380Y-79676600D02*
X135906380Y-79676600D01*
X131366380Y-81816600D02*
X135906380Y-81816600D01*
X131366380Y-79676600D02*
X131366380Y-79691600D01*
X131366380Y-81801600D02*
X131366380Y-81816600D01*
X135906380Y-79676600D02*
X135906380Y-79691600D01*
X135906380Y-81801600D02*
X135906380Y-81816600D01*
G04 #@! TO.C,U2*
X85466380Y-80238600D02*
X85466380Y-77698600D01*
X88766380Y-68308600D02*
X88766380Y-70568600D01*
X86486380Y-68308600D02*
X86486380Y-70168600D01*
X109586380Y-68308600D02*
X86486380Y-68308600D01*
X109586380Y-118908600D02*
X109586380Y-68308600D01*
X86486380Y-118908600D02*
X109586380Y-118908600D01*
X86486380Y-75068600D02*
X86486380Y-118908600D01*
X88116380Y-72618600D02*
G75*
G03*
X88116380Y-72618600I-900000J0D01*
G01*
X89766380Y-72618600D02*
G75*
G03*
X89766380Y-72618600I-2550000J0D01*
G01*
G04 #@! TO.C,U1*
X134976380Y-82718600D02*
X129516380Y-82718600D01*
X134976380Y-118398600D02*
X134976380Y-82718600D01*
X122056380Y-118398600D02*
X134976380Y-118398600D01*
X122056380Y-82718600D02*
X122056380Y-118398600D01*
X127516380Y-82718600D02*
X122056380Y-82718600D01*
X129516380Y-82718600D02*
G75*
G02*
X127516380Y-82718600I-1000000J0D01*
G01*
G04 #@! TO.C,C1*
X112299380Y-79278600D02*
X112314380Y-79278600D01*
X110174380Y-79278600D02*
X110189380Y-79278600D01*
X112299380Y-83818600D02*
X112314380Y-83818600D01*
X110174380Y-83818600D02*
X110189380Y-83818600D01*
X112314380Y-83818600D02*
X112314380Y-79278600D01*
X110174380Y-83818600D02*
X110174380Y-79278600D01*
G04 #@! TO.C,U3*
X160376380Y-77638600D02*
X154916380Y-77638600D01*
X160376380Y-118398600D02*
X160376380Y-77638600D01*
X147456380Y-118398600D02*
X160376380Y-118398600D01*
X147456380Y-77638600D02*
X147456380Y-118398600D01*
X152916380Y-77638600D02*
X147456380Y-77638600D01*
X154916380Y-77638600D02*
G75*
G02*
X152916380Y-77638600I-1000000J0D01*
G01*
G04 #@! TO.C,U12*
D10*
X22593999Y-63149552D02*
X22593999Y-63816219D01*
X21593999Y-63387647D01*
X22260665Y-64625742D02*
X21593999Y-64625742D01*
X22641618Y-64387647D02*
X21927332Y-64149552D01*
X21927332Y-64768600D01*
X21593999Y-65625742D02*
X21593999Y-65149552D01*
X22593999Y-65149552D01*
X21641618Y-65911457D02*
X21593999Y-66054314D01*
X21593999Y-66292409D01*
X21641618Y-66387647D01*
X21689237Y-66435266D01*
X21784475Y-66482885D01*
X21879713Y-66482885D01*
X21974951Y-66435266D01*
X22022570Y-66387647D01*
X22070189Y-66292409D01*
X22117808Y-66101933D01*
X22165427Y-66006695D01*
X22213046Y-65959076D01*
X22308284Y-65911457D01*
X22403522Y-65911457D01*
X22498760Y-65959076D01*
X22546380Y-66006695D01*
X22593999Y-66101933D01*
X22593999Y-66340028D01*
X22546380Y-66482885D01*
X21593999Y-67435266D02*
X21593999Y-66863838D01*
X21593999Y-67149552D02*
X22593999Y-67149552D01*
X22451141Y-67054314D01*
X22355903Y-66959076D01*
X22308284Y-66863838D01*
X22593999Y-67768600D02*
X22593999Y-68387647D01*
X22213046Y-68054314D01*
X22213046Y-68197171D01*
X22165427Y-68292409D01*
X22117808Y-68340028D01*
X22022570Y-68387647D01*
X21784475Y-68387647D01*
X21689237Y-68340028D01*
X21641618Y-68292409D01*
X21593999Y-68197171D01*
X21593999Y-67911457D01*
X21641618Y-67816219D01*
X21689237Y-67768600D01*
X21593999Y-68863838D02*
X21593999Y-69054314D01*
X21641618Y-69149552D01*
X21689237Y-69197171D01*
X21832094Y-69292409D01*
X22022570Y-69340028D01*
X22403522Y-69340028D01*
X22498760Y-69292409D01*
X22546380Y-69244790D01*
X22593999Y-69149552D01*
X22593999Y-68959076D01*
X22546380Y-68863838D01*
X22498760Y-68816219D01*
X22403522Y-68768600D01*
X22165427Y-68768600D01*
X22070189Y-68816219D01*
X22022570Y-68863838D01*
X21974951Y-68959076D01*
X21974951Y-69149552D01*
X22022570Y-69244790D01*
X22070189Y-69292409D01*
X22165427Y-69340028D01*
G04 #@! TO.C,U11*
X-266000Y-63149552D02*
X-266000Y-63816219D01*
X-1266000Y-63387647D01*
X-599334Y-64625742D02*
X-1266000Y-64625742D01*
X-218381Y-64387647D02*
X-932667Y-64149552D01*
X-932667Y-64768600D01*
X-1266000Y-65625742D02*
X-1266000Y-65149552D01*
X-266000Y-65149552D01*
X-1218381Y-65911457D02*
X-1266000Y-66054314D01*
X-1266000Y-66292409D01*
X-1218381Y-66387647D01*
X-1170762Y-66435266D01*
X-1075524Y-66482885D01*
X-980286Y-66482885D01*
X-885048Y-66435266D01*
X-837429Y-66387647D01*
X-789810Y-66292409D01*
X-742191Y-66101933D01*
X-694572Y-66006695D01*
X-646953Y-65959076D01*
X-551715Y-65911457D01*
X-456477Y-65911457D01*
X-361239Y-65959076D01*
X-313619Y-66006695D01*
X-266000Y-66101933D01*
X-266000Y-66340028D01*
X-313620Y-66482885D01*
X-1266000Y-67435266D02*
X-1266000Y-66863838D01*
X-1266000Y-67149552D02*
X-266000Y-67149552D01*
X-408858Y-67054314D01*
X-504096Y-66959076D01*
X-551715Y-66863838D01*
X-361239Y-67816219D02*
X-313620Y-67863838D01*
X-266000Y-67959076D01*
X-266000Y-68197171D01*
X-313620Y-68292409D01*
X-361239Y-68340028D01*
X-456477Y-68387647D01*
X-551715Y-68387647D01*
X-694572Y-68340028D01*
X-1266000Y-67768600D01*
X-1266000Y-68387647D01*
X-266000Y-69292409D02*
X-266000Y-68816219D01*
X-742191Y-68768600D01*
X-694572Y-68816219D01*
X-646953Y-68911457D01*
X-646953Y-69149552D01*
X-694572Y-69244790D01*
X-742191Y-69292409D01*
X-837429Y-69340028D01*
X-1075524Y-69340028D01*
X-1170762Y-69292409D01*
X-1218381Y-69244790D01*
X-1266000Y-69149552D01*
X-1266000Y-68911457D01*
X-1218381Y-68816219D01*
X-1170762Y-68768600D01*
G04 #@! TO.C,C12*
X46005999Y-65895742D02*
X46005999Y-65990980D01*
X45958380Y-66086219D01*
X45910760Y-66133838D01*
X45815522Y-66181457D01*
X45625046Y-66229076D01*
X45386951Y-66229076D01*
X45196475Y-66181457D01*
X45101237Y-66133838D01*
X45053618Y-66086219D01*
X45005999Y-65990980D01*
X45005999Y-65895742D01*
X45053618Y-65800504D01*
X45101237Y-65752885D01*
X45196475Y-65705266D01*
X45386951Y-65657647D01*
X45625046Y-65657647D01*
X45815522Y-65705266D01*
X45910760Y-65752885D01*
X45958380Y-65800504D01*
X46005999Y-65895742D01*
X45101237Y-66657647D02*
X45053618Y-66705266D01*
X45005999Y-66657647D01*
X45053618Y-66610028D01*
X45101237Y-66657647D01*
X45005999Y-66657647D01*
X45005999Y-67657647D02*
X45005999Y-67086219D01*
X45005999Y-67371933D02*
X46005999Y-67371933D01*
X45863141Y-67276695D01*
X45767903Y-67181457D01*
X45720284Y-67086219D01*
X45672665Y-68514790D02*
X45005999Y-68514790D01*
X45672665Y-68086219D02*
X45148856Y-68086219D01*
X45053618Y-68133838D01*
X45005999Y-68229076D01*
X45005999Y-68371933D01*
X45053618Y-68467171D01*
X45101237Y-68514790D01*
X45529808Y-69324314D02*
X45529808Y-68990980D01*
X45005999Y-68990980D02*
X46005999Y-68990980D01*
X46005999Y-69467171D01*
G04 #@! TO.C,C11*
X20605999Y-66149742D02*
X20605999Y-66244980D01*
X20558380Y-66340219D01*
X20510760Y-66387838D01*
X20415522Y-66435457D01*
X20225046Y-66483076D01*
X19986951Y-66483076D01*
X19796475Y-66435457D01*
X19701237Y-66387838D01*
X19653618Y-66340219D01*
X19605999Y-66244980D01*
X19605999Y-66149742D01*
X19653618Y-66054504D01*
X19701237Y-66006885D01*
X19796475Y-65959266D01*
X19986951Y-65911647D01*
X20225046Y-65911647D01*
X20415522Y-65959266D01*
X20510760Y-66006885D01*
X20558380Y-66054504D01*
X20605999Y-66149742D01*
X19701237Y-66911647D02*
X19653618Y-66959266D01*
X19605999Y-66911647D01*
X19653618Y-66864028D01*
X19701237Y-66911647D01*
X19605999Y-66911647D01*
X19605999Y-67911647D02*
X19605999Y-67340219D01*
X19605999Y-67625933D02*
X20605999Y-67625933D01*
X20463141Y-67530695D01*
X20367903Y-67435457D01*
X20320284Y-67340219D01*
X20272665Y-68768790D02*
X19605999Y-68768790D01*
X20272665Y-68340219D02*
X19748856Y-68340219D01*
X19653618Y-68387838D01*
X19605999Y-68483076D01*
X19605999Y-68625933D01*
X19653618Y-68721171D01*
X19701237Y-68768790D01*
X20129808Y-69578314D02*
X20129808Y-69244980D01*
X19605999Y-69244980D02*
X20605999Y-69244980D01*
X20605999Y-69721171D01*
G04 #@! TO.C,U10*
X-13032667Y-118850980D02*
X-12366000Y-118850980D01*
X-12794572Y-119850980D01*
X-11556477Y-119184314D02*
X-11556477Y-119850980D01*
X-11794572Y-118803361D02*
X-12032667Y-119517647D01*
X-11413620Y-119517647D01*
X-10556477Y-119850980D02*
X-11032667Y-119850980D01*
X-11032667Y-118850980D01*
X-10270762Y-119803361D02*
X-10127905Y-119850980D01*
X-9889810Y-119850980D01*
X-9794572Y-119803361D01*
X-9746953Y-119755742D01*
X-9699334Y-119660504D01*
X-9699334Y-119565266D01*
X-9746953Y-119470028D01*
X-9794572Y-119422409D01*
X-9889810Y-119374790D01*
X-10080286Y-119327171D01*
X-10175524Y-119279552D01*
X-10223143Y-119231933D01*
X-10270762Y-119136695D01*
X-10270762Y-119041457D01*
X-10223143Y-118946219D01*
X-10175524Y-118898600D01*
X-10080286Y-118850980D01*
X-9842191Y-118850980D01*
X-9699334Y-118898600D01*
X-8746953Y-119850980D02*
X-9318381Y-119850980D01*
X-9032667Y-119850980D02*
X-9032667Y-118850980D01*
X-9127905Y-118993838D01*
X-9223143Y-119089076D01*
X-9318381Y-119136695D01*
X-8413620Y-118850980D02*
X-7794572Y-118850980D01*
X-8127905Y-119231933D01*
X-7985048Y-119231933D01*
X-7889810Y-119279552D01*
X-7842191Y-119327171D01*
X-7794572Y-119422409D01*
X-7794572Y-119660504D01*
X-7842191Y-119755742D01*
X-7889810Y-119803361D01*
X-7985048Y-119850980D01*
X-8270762Y-119850980D01*
X-8366000Y-119803361D01*
X-8413620Y-119755742D01*
X-7223143Y-119279552D02*
X-7318381Y-119231933D01*
X-7366000Y-119184314D01*
X-7413620Y-119089076D01*
X-7413620Y-119041457D01*
X-7366000Y-118946219D01*
X-7318381Y-118898600D01*
X-7223143Y-118850980D01*
X-7032667Y-118850980D01*
X-6937429Y-118898600D01*
X-6889810Y-118946219D01*
X-6842191Y-119041457D01*
X-6842191Y-119089076D01*
X-6889810Y-119184314D01*
X-6937429Y-119231933D01*
X-7032667Y-119279552D01*
X-7223143Y-119279552D01*
X-7318381Y-119327171D01*
X-7366000Y-119374790D01*
X-7413620Y-119470028D01*
X-7413620Y-119660504D01*
X-7366000Y-119755742D01*
X-7318381Y-119803361D01*
X-7223143Y-119850980D01*
X-7032667Y-119850980D01*
X-6937429Y-119803361D01*
X-6889810Y-119755742D01*
X-6842191Y-119660504D01*
X-6842191Y-119470028D01*
X-6889810Y-119374790D01*
X-6937429Y-119327171D01*
X-7032667Y-119279552D01*
G04 #@! TO.C,U9*
X8081141Y-119565266D02*
X8557332Y-119565266D01*
X7985903Y-119850980D02*
X8319237Y-118850980D01*
X8652570Y-119850980D01*
X8938284Y-119803361D02*
X9081141Y-119850980D01*
X9319237Y-119850980D01*
X9414475Y-119803361D01*
X9462094Y-119755742D01*
X9509713Y-119660504D01*
X9509713Y-119565266D01*
X9462094Y-119470028D01*
X9414475Y-119422409D01*
X9319237Y-119374790D01*
X9128760Y-119327171D01*
X9033522Y-119279552D01*
X8985903Y-119231933D01*
X8938284Y-119136695D01*
X8938284Y-119041457D01*
X8985903Y-118946219D01*
X9033522Y-118898600D01*
X9128760Y-118850980D01*
X9366856Y-118850980D01*
X9509713Y-118898600D01*
X10366856Y-118850980D02*
X10176380Y-118850980D01*
X10081141Y-118898600D01*
X10033522Y-118946219D01*
X9938284Y-119089076D01*
X9890665Y-119279552D01*
X9890665Y-119660504D01*
X9938284Y-119755742D01*
X9985903Y-119803361D01*
X10081141Y-119850980D01*
X10271618Y-119850980D01*
X10366856Y-119803361D01*
X10414475Y-119755742D01*
X10462094Y-119660504D01*
X10462094Y-119422409D01*
X10414475Y-119327171D01*
X10366856Y-119279552D01*
X10271618Y-119231933D01*
X10081141Y-119231933D01*
X9985903Y-119279552D01*
X9938284Y-119327171D01*
X9890665Y-119422409D01*
X11462094Y-119755742D02*
X11414475Y-119803361D01*
X11271618Y-119850980D01*
X11176380Y-119850980D01*
X11033522Y-119803361D01*
X10938284Y-119708123D01*
X10890665Y-119612885D01*
X10843046Y-119422409D01*
X10843046Y-119279552D01*
X10890665Y-119089076D01*
X10938284Y-118993838D01*
X11033522Y-118898600D01*
X11176380Y-118850980D01*
X11271618Y-118850980D01*
X11414475Y-118898600D01*
X11462094Y-118946219D01*
X12319237Y-119184314D02*
X12319237Y-119850980D01*
X12081141Y-118803361D02*
X11843046Y-119517647D01*
X12462094Y-119517647D01*
X13033522Y-118850980D02*
X13128760Y-118850980D01*
X13223999Y-118898600D01*
X13271618Y-118946219D01*
X13319237Y-119041457D01*
X13366856Y-119231933D01*
X13366856Y-119470028D01*
X13319237Y-119660504D01*
X13271618Y-119755742D01*
X13223999Y-119803361D01*
X13128760Y-119850980D01*
X13033522Y-119850980D01*
X12938284Y-119803361D01*
X12890665Y-119755742D01*
X12843046Y-119660504D01*
X12795427Y-119470028D01*
X12795427Y-119231933D01*
X12843046Y-119041457D01*
X12890665Y-118946219D01*
X12938284Y-118898600D01*
X13033522Y-118850980D01*
X13985903Y-118850980D02*
X14081141Y-118850980D01*
X14176380Y-118898600D01*
X14223999Y-118946219D01*
X14271618Y-119041457D01*
X14319237Y-119231933D01*
X14319237Y-119470028D01*
X14271618Y-119660504D01*
X14223999Y-119755742D01*
X14176380Y-119803361D01*
X14081141Y-119850980D01*
X13985903Y-119850980D01*
X13890665Y-119803361D01*
X13843046Y-119755742D01*
X13795427Y-119660504D01*
X13747808Y-119470028D01*
X13747808Y-119231933D01*
X13795427Y-119041457D01*
X13843046Y-118946219D01*
X13890665Y-118898600D01*
X13985903Y-118850980D01*
X14890665Y-119279552D02*
X14795427Y-119231933D01*
X14747808Y-119184314D01*
X14700189Y-119089076D01*
X14700189Y-119041457D01*
X14747808Y-118946219D01*
X14795427Y-118898600D01*
X14890665Y-118850980D01*
X15081141Y-118850980D01*
X15176380Y-118898600D01*
X15223999Y-118946219D01*
X15271618Y-119041457D01*
X15271618Y-119089076D01*
X15223999Y-119184314D01*
X15176380Y-119231933D01*
X15081141Y-119279552D01*
X14890665Y-119279552D01*
X14795427Y-119327171D01*
X14747808Y-119374790D01*
X14700189Y-119470028D01*
X14700189Y-119660504D01*
X14747808Y-119755742D01*
X14795427Y-119803361D01*
X14890665Y-119850980D01*
X15081141Y-119850980D01*
X15176380Y-119803361D01*
X15223999Y-119755742D01*
X15271618Y-119660504D01*
X15271618Y-119470028D01*
X15223999Y-119374790D01*
X15176380Y-119327171D01*
X15081141Y-119279552D01*
G04 #@! TO.C,U8*
X35362094Y-118850980D02*
X35171618Y-118850980D01*
X35076380Y-118898600D01*
X35028760Y-118946219D01*
X34933522Y-119089076D01*
X34885903Y-119279552D01*
X34885903Y-119660504D01*
X34933522Y-119755742D01*
X34981141Y-119803361D01*
X35076380Y-119850980D01*
X35266856Y-119850980D01*
X35362094Y-119803361D01*
X35409713Y-119755742D01*
X35457332Y-119660504D01*
X35457332Y-119422409D01*
X35409713Y-119327171D01*
X35362094Y-119279552D01*
X35266856Y-119231933D01*
X35076380Y-119231933D01*
X34981141Y-119279552D01*
X34933522Y-119327171D01*
X34885903Y-119422409D01*
X35838284Y-118946219D02*
X35885903Y-118898600D01*
X35981141Y-118850980D01*
X36219237Y-118850980D01*
X36314475Y-118898600D01*
X36362094Y-118946219D01*
X36409713Y-119041457D01*
X36409713Y-119136695D01*
X36362094Y-119279552D01*
X35790665Y-119850980D01*
X36409713Y-119850980D01*
X36790665Y-118946219D02*
X36838284Y-118898600D01*
X36933522Y-118850980D01*
X37171618Y-118850980D01*
X37266856Y-118898600D01*
X37314475Y-118946219D01*
X37362094Y-119041457D01*
X37362094Y-119136695D01*
X37314475Y-119279552D01*
X36743046Y-119850980D01*
X37362094Y-119850980D01*
X38266856Y-118850980D02*
X37790665Y-118850980D01*
X37743046Y-119327171D01*
X37790665Y-119279552D01*
X37885903Y-119231933D01*
X38123999Y-119231933D01*
X38219237Y-119279552D01*
X38266856Y-119327171D01*
X38314475Y-119422409D01*
X38314475Y-119660504D01*
X38266856Y-119755742D01*
X38219237Y-119803361D01*
X38123999Y-119850980D01*
X37885903Y-119850980D01*
X37790665Y-119803361D01*
X37743046Y-119755742D01*
X39171618Y-118850980D02*
X38981141Y-118850980D01*
X38885903Y-118898600D01*
X38838284Y-118946219D01*
X38743046Y-119089076D01*
X38695427Y-119279552D01*
X38695427Y-119660504D01*
X38743046Y-119755742D01*
X38790665Y-119803361D01*
X38885903Y-119850980D01*
X39076380Y-119850980D01*
X39171618Y-119803361D01*
X39219237Y-119755742D01*
X39266856Y-119660504D01*
X39266856Y-119422409D01*
X39219237Y-119327171D01*
X39171618Y-119279552D01*
X39076380Y-119231933D01*
X38885903Y-119231933D01*
X38790665Y-119279552D01*
X38743046Y-119327171D01*
X38695427Y-119422409D01*
G04 #@! TO.C,U7*
X-13032667Y-93450980D02*
X-12366000Y-93450980D01*
X-12794572Y-94450980D01*
X-11556477Y-93784314D02*
X-11556477Y-94450980D01*
X-11794572Y-93403361D02*
X-12032667Y-94117647D01*
X-11413620Y-94117647D01*
X-10556477Y-94450980D02*
X-11032667Y-94450980D01*
X-11032667Y-93450980D01*
X-10270762Y-94403361D02*
X-10127905Y-94450980D01*
X-9889810Y-94450980D01*
X-9794572Y-94403361D01*
X-9746953Y-94355742D01*
X-9699334Y-94260504D01*
X-9699334Y-94165266D01*
X-9746953Y-94070028D01*
X-9794572Y-94022409D01*
X-9889810Y-93974790D01*
X-10080286Y-93927171D01*
X-10175524Y-93879552D01*
X-10223143Y-93831933D01*
X-10270762Y-93736695D01*
X-10270762Y-93641457D01*
X-10223143Y-93546219D01*
X-10175524Y-93498600D01*
X-10080286Y-93450980D01*
X-9842191Y-93450980D01*
X-9699334Y-93498600D01*
X-8746953Y-94450980D02*
X-9318381Y-94450980D01*
X-9032667Y-94450980D02*
X-9032667Y-93450980D01*
X-9127905Y-93593838D01*
X-9223143Y-93689076D01*
X-9318381Y-93736695D01*
X-8413620Y-93450980D02*
X-7794572Y-93450980D01*
X-8127905Y-93831933D01*
X-7985048Y-93831933D01*
X-7889810Y-93879552D01*
X-7842191Y-93927171D01*
X-7794572Y-94022409D01*
X-7794572Y-94260504D01*
X-7842191Y-94355742D01*
X-7889810Y-94403361D01*
X-7985048Y-94450980D01*
X-8270762Y-94450980D01*
X-8366000Y-94403361D01*
X-8413620Y-94355742D01*
X-7318381Y-94450980D02*
X-7127905Y-94450980D01*
X-7032667Y-94403361D01*
X-6985048Y-94355742D01*
X-6889810Y-94212885D01*
X-6842191Y-94022409D01*
X-6842191Y-93641457D01*
X-6889810Y-93546219D01*
X-6937429Y-93498600D01*
X-7032667Y-93450980D01*
X-7223143Y-93450980D01*
X-7318381Y-93498600D01*
X-7366000Y-93546219D01*
X-7413620Y-93641457D01*
X-7413620Y-93879552D01*
X-7366000Y-93974790D01*
X-7318381Y-94022409D01*
X-7223143Y-94070028D01*
X-7032667Y-94070028D01*
X-6937429Y-94022409D01*
X-6889810Y-93974790D01*
X-6842191Y-93879552D01*
G04 #@! TO.C,U6*
X64865903Y-119356219D02*
X64913522Y-119308600D01*
X65008760Y-119260980D01*
X65246856Y-119260980D01*
X65342094Y-119308600D01*
X65389713Y-119356219D01*
X65437332Y-119451457D01*
X65437332Y-119546695D01*
X65389713Y-119689552D01*
X64818284Y-120260980D01*
X65437332Y-120260980D01*
X66008760Y-119689552D02*
X65913522Y-119641933D01*
X65865903Y-119594314D01*
X65818284Y-119499076D01*
X65818284Y-119451457D01*
X65865903Y-119356219D01*
X65913522Y-119308600D01*
X66008760Y-119260980D01*
X66199237Y-119260980D01*
X66294475Y-119308600D01*
X66342094Y-119356219D01*
X66389713Y-119451457D01*
X66389713Y-119499076D01*
X66342094Y-119594314D01*
X66294475Y-119641933D01*
X66199237Y-119689552D01*
X66008760Y-119689552D01*
X65913522Y-119737171D01*
X65865903Y-119784790D01*
X65818284Y-119880028D01*
X65818284Y-120070504D01*
X65865903Y-120165742D01*
X65913522Y-120213361D01*
X66008760Y-120260980D01*
X66199237Y-120260980D01*
X66294475Y-120213361D01*
X66342094Y-120165742D01*
X66389713Y-120070504D01*
X66389713Y-119880028D01*
X66342094Y-119784790D01*
X66294475Y-119737171D01*
X66199237Y-119689552D01*
X67389713Y-120165742D02*
X67342094Y-120213361D01*
X67199237Y-120260980D01*
X67103999Y-120260980D01*
X66961141Y-120213361D01*
X66865903Y-120118123D01*
X66818284Y-120022885D01*
X66770665Y-119832409D01*
X66770665Y-119689552D01*
X66818284Y-119499076D01*
X66865903Y-119403838D01*
X66961141Y-119308600D01*
X67103999Y-119260980D01*
X67199237Y-119260980D01*
X67342094Y-119308600D01*
X67389713Y-119356219D01*
X67770665Y-119356219D02*
X67818284Y-119308600D01*
X67913522Y-119260980D01*
X68151618Y-119260980D01*
X68246856Y-119308600D01*
X68294475Y-119356219D01*
X68342094Y-119451457D01*
X68342094Y-119546695D01*
X68294475Y-119689552D01*
X67723046Y-120260980D01*
X68342094Y-120260980D01*
X69246856Y-119260980D02*
X68770665Y-119260980D01*
X68723046Y-119737171D01*
X68770665Y-119689552D01*
X68865903Y-119641933D01*
X69103999Y-119641933D01*
X69199237Y-119689552D01*
X69246856Y-119737171D01*
X69294475Y-119832409D01*
X69294475Y-120070504D01*
X69246856Y-120165742D01*
X69199237Y-120213361D01*
X69103999Y-120260980D01*
X68865903Y-120260980D01*
X68770665Y-120213361D01*
X68723046Y-120165742D01*
X70151618Y-119260980D02*
X69961141Y-119260980D01*
X69865903Y-119308600D01*
X69818284Y-119356219D01*
X69723046Y-119499076D01*
X69675427Y-119689552D01*
X69675427Y-120070504D01*
X69723046Y-120165742D01*
X69770665Y-120213361D01*
X69865903Y-120260980D01*
X70056380Y-120260980D01*
X70151618Y-120213361D01*
X70199237Y-120165742D01*
X70246856Y-120070504D01*
X70246856Y-119832409D01*
X70199237Y-119737171D01*
X70151618Y-119689552D01*
X70056380Y-119641933D01*
X69865903Y-119641933D01*
X69770665Y-119689552D01*
X69723046Y-119737171D01*
X69675427Y-119832409D01*
G04 #@! TO.C,C10*
X40513522Y-78166980D02*
X40608760Y-78166980D01*
X40703999Y-78214600D01*
X40751618Y-78262219D01*
X40799237Y-78357457D01*
X40846856Y-78547933D01*
X40846856Y-78786028D01*
X40799237Y-78976504D01*
X40751618Y-79071742D01*
X40703999Y-79119361D01*
X40608760Y-79166980D01*
X40513522Y-79166980D01*
X40418284Y-79119361D01*
X40370665Y-79071742D01*
X40323046Y-78976504D01*
X40275427Y-78786028D01*
X40275427Y-78547933D01*
X40323046Y-78357457D01*
X40370665Y-78262219D01*
X40418284Y-78214600D01*
X40513522Y-78166980D01*
X41275427Y-79071742D02*
X41323046Y-79119361D01*
X41275427Y-79166980D01*
X41227808Y-79119361D01*
X41275427Y-79071742D01*
X41275427Y-79166980D01*
X42275427Y-79166980D02*
X41703999Y-79166980D01*
X41989713Y-79166980D02*
X41989713Y-78166980D01*
X41894475Y-78309838D01*
X41799237Y-78405076D01*
X41703999Y-78452695D01*
X43132570Y-78500314D02*
X43132570Y-79166980D01*
X42703999Y-78500314D02*
X42703999Y-79024123D01*
X42751618Y-79119361D01*
X42846856Y-79166980D01*
X42989713Y-79166980D01*
X43084951Y-79119361D01*
X43132570Y-79071742D01*
X43942094Y-78643171D02*
X43608760Y-78643171D01*
X43608760Y-79166980D02*
X43608760Y-78166980D01*
X44084951Y-78166980D01*
G04 #@! TO.C,C9*
X15153522Y-73086980D02*
X15248760Y-73086980D01*
X15343999Y-73134600D01*
X15391618Y-73182219D01*
X15439237Y-73277457D01*
X15486856Y-73467933D01*
X15486856Y-73706028D01*
X15439237Y-73896504D01*
X15391618Y-73991742D01*
X15343999Y-74039361D01*
X15248760Y-74086980D01*
X15153522Y-74086980D01*
X15058284Y-74039361D01*
X15010665Y-73991742D01*
X14963046Y-73896504D01*
X14915427Y-73706028D01*
X14915427Y-73467933D01*
X14963046Y-73277457D01*
X15010665Y-73182219D01*
X15058284Y-73134600D01*
X15153522Y-73086980D01*
X15915427Y-73991742D02*
X15963046Y-74039361D01*
X15915427Y-74086980D01*
X15867808Y-74039361D01*
X15915427Y-73991742D01*
X15915427Y-74086980D01*
X16915427Y-74086980D02*
X16343999Y-74086980D01*
X16629713Y-74086980D02*
X16629713Y-73086980D01*
X16534475Y-73229838D01*
X16439237Y-73325076D01*
X16343999Y-73372695D01*
X17772570Y-73420314D02*
X17772570Y-74086980D01*
X17343999Y-73420314D02*
X17343999Y-73944123D01*
X17391618Y-74039361D01*
X17486856Y-74086980D01*
X17629713Y-74086980D01*
X17724951Y-74039361D01*
X17772570Y-73991742D01*
X18582094Y-73563171D02*
X18248760Y-73563171D01*
X18248760Y-74086980D02*
X18248760Y-73086980D01*
X18724951Y-73086980D01*
G04 #@! TO.C,C8*
X83343999Y-79611742D02*
X83343999Y-79706980D01*
X83296380Y-79802219D01*
X83248760Y-79849838D01*
X83153522Y-79897457D01*
X82963046Y-79945076D01*
X82724951Y-79945076D01*
X82534475Y-79897457D01*
X82439237Y-79849838D01*
X82391618Y-79802219D01*
X82343999Y-79706980D01*
X82343999Y-79611742D01*
X82391618Y-79516504D01*
X82439237Y-79468885D01*
X82534475Y-79421266D01*
X82724951Y-79373647D01*
X82963046Y-79373647D01*
X83153522Y-79421266D01*
X83248760Y-79468885D01*
X83296380Y-79516504D01*
X83343999Y-79611742D01*
X82439237Y-80373647D02*
X82391618Y-80421266D01*
X82343999Y-80373647D01*
X82391618Y-80326028D01*
X82439237Y-80373647D01*
X82343999Y-80373647D01*
X82343999Y-81373647D02*
X82343999Y-80802219D01*
X82343999Y-81087933D02*
X83343999Y-81087933D01*
X83201141Y-80992695D01*
X83105903Y-80897457D01*
X83058284Y-80802219D01*
X83010665Y-82230790D02*
X82343999Y-82230790D01*
X83010665Y-81802219D02*
X82486856Y-81802219D01*
X82391618Y-81849838D01*
X82343999Y-81945076D01*
X82343999Y-82087933D01*
X82391618Y-82183171D01*
X82439237Y-82230790D01*
X82867808Y-83040314D02*
X82867808Y-82706980D01*
X82343999Y-82706980D02*
X83343999Y-82706980D01*
X83343999Y-83183171D01*
G04 #@! TO.C,C7*
X-10246477Y-68006980D02*
X-10151239Y-68006980D01*
X-10056000Y-68054600D01*
X-10008381Y-68102219D01*
X-9960762Y-68197457D01*
X-9913143Y-68387933D01*
X-9913143Y-68626028D01*
X-9960762Y-68816504D01*
X-10008381Y-68911742D01*
X-10056000Y-68959361D01*
X-10151239Y-69006980D01*
X-10246477Y-69006980D01*
X-10341715Y-68959361D01*
X-10389334Y-68911742D01*
X-10436953Y-68816504D01*
X-10484572Y-68626028D01*
X-10484572Y-68387933D01*
X-10436953Y-68197457D01*
X-10389334Y-68102219D01*
X-10341715Y-68054600D01*
X-10246477Y-68006980D01*
X-9484572Y-68911742D02*
X-9436953Y-68959361D01*
X-9484572Y-69006980D01*
X-9532191Y-68959361D01*
X-9484572Y-68911742D01*
X-9484572Y-69006980D01*
X-8484572Y-69006980D02*
X-9056000Y-69006980D01*
X-8770286Y-69006980D02*
X-8770286Y-68006980D01*
X-8865524Y-68149838D01*
X-8960762Y-68245076D01*
X-9056000Y-68292695D01*
X-7627429Y-68340314D02*
X-7627429Y-69006980D01*
X-8056000Y-68340314D02*
X-8056000Y-68864123D01*
X-8008381Y-68959361D01*
X-7913143Y-69006980D01*
X-7770286Y-69006980D01*
X-7675048Y-68959361D01*
X-7627429Y-68911742D01*
X-6817905Y-68483171D02*
X-7151239Y-68483171D01*
X-7151239Y-69006980D02*
X-7151239Y-68006980D01*
X-6675048Y-68006980D01*
G04 #@! TO.C,C6*
X-10246477Y-95438980D02*
X-10151239Y-95438980D01*
X-10056000Y-95486600D01*
X-10008381Y-95534219D01*
X-9960762Y-95629457D01*
X-9913143Y-95819933D01*
X-9913143Y-96058028D01*
X-9960762Y-96248504D01*
X-10008381Y-96343742D01*
X-10056000Y-96391361D01*
X-10151239Y-96438980D01*
X-10246477Y-96438980D01*
X-10341715Y-96391361D01*
X-10389334Y-96343742D01*
X-10436953Y-96248504D01*
X-10484572Y-96058028D01*
X-10484572Y-95819933D01*
X-10436953Y-95629457D01*
X-10389334Y-95534219D01*
X-10341715Y-95486600D01*
X-10246477Y-95438980D01*
X-9484572Y-96343742D02*
X-9436953Y-96391361D01*
X-9484572Y-96438980D01*
X-9532191Y-96391361D01*
X-9484572Y-96343742D01*
X-9484572Y-96438980D01*
X-8484572Y-96438980D02*
X-9056000Y-96438980D01*
X-8770286Y-96438980D02*
X-8770286Y-95438980D01*
X-8865524Y-95581838D01*
X-8960762Y-95677076D01*
X-9056000Y-95724695D01*
X-7627429Y-95772314D02*
X-7627429Y-96438980D01*
X-8056000Y-95772314D02*
X-8056000Y-96296123D01*
X-8008381Y-96391361D01*
X-7913143Y-96438980D01*
X-7770286Y-96438980D01*
X-7675048Y-96391361D01*
X-7627429Y-96343742D01*
X-6817905Y-95915171D02*
X-7151239Y-95915171D01*
X-7151239Y-96438980D02*
X-7151239Y-95438980D01*
X-6675048Y-95438980D01*
G04 #@! TO.C,U5*
X172387332Y-118850980D02*
X173053999Y-118850980D01*
X172625427Y-119850980D01*
X173863522Y-119184314D02*
X173863522Y-119850980D01*
X173625427Y-118803361D02*
X173387332Y-119517647D01*
X174006380Y-119517647D01*
X174863522Y-119850980D02*
X174387332Y-119850980D01*
X174387332Y-118850980D01*
X175149237Y-119803361D02*
X175292094Y-119850980D01*
X175530189Y-119850980D01*
X175625427Y-119803361D01*
X175673046Y-119755742D01*
X175720665Y-119660504D01*
X175720665Y-119565266D01*
X175673046Y-119470028D01*
X175625427Y-119422409D01*
X175530189Y-119374790D01*
X175339713Y-119327171D01*
X175244475Y-119279552D01*
X175196856Y-119231933D01*
X175149237Y-119136695D01*
X175149237Y-119041457D01*
X175196856Y-118946219D01*
X175244475Y-118898600D01*
X175339713Y-118850980D01*
X175577808Y-118850980D01*
X175720665Y-118898600D01*
X176673046Y-119850980D02*
X176101618Y-119850980D01*
X176387332Y-119850980D02*
X176387332Y-118850980D01*
X176292094Y-118993838D01*
X176196856Y-119089076D01*
X176101618Y-119136695D01*
X177006380Y-118850980D02*
X177625427Y-118850980D01*
X177292094Y-119231933D01*
X177434951Y-119231933D01*
X177530189Y-119279552D01*
X177577808Y-119327171D01*
X177625427Y-119422409D01*
X177625427Y-119660504D01*
X177577808Y-119755742D01*
X177530189Y-119803361D01*
X177434951Y-119850980D01*
X177149237Y-119850980D01*
X177053999Y-119803361D01*
X177006380Y-119755742D01*
X178196856Y-119279552D02*
X178101618Y-119231933D01*
X178053999Y-119184314D01*
X178006380Y-119089076D01*
X178006380Y-119041457D01*
X178053999Y-118946219D01*
X178101618Y-118898600D01*
X178196856Y-118850980D01*
X178387332Y-118850980D01*
X178482570Y-118898600D01*
X178530189Y-118946219D01*
X178577808Y-119041457D01*
X178577808Y-119089076D01*
X178530189Y-119184314D01*
X178482570Y-119231933D01*
X178387332Y-119279552D01*
X178196856Y-119279552D01*
X178101618Y-119327171D01*
X178053999Y-119374790D01*
X178006380Y-119470028D01*
X178006380Y-119660504D01*
X178053999Y-119755742D01*
X178101618Y-119803361D01*
X178196856Y-119850980D01*
X178387332Y-119850980D01*
X178482570Y-119803361D01*
X178530189Y-119755742D01*
X178577808Y-119660504D01*
X178577808Y-119470028D01*
X178530189Y-119374790D01*
X178482570Y-119327171D01*
X178387332Y-119279552D01*
G04 #@! TO.C,U4*
X172387332Y-93450980D02*
X173053999Y-93450980D01*
X172625427Y-94450980D01*
X173863522Y-93784314D02*
X173863522Y-94450980D01*
X173625427Y-93403361D02*
X173387332Y-94117647D01*
X174006380Y-94117647D01*
X174863522Y-94450980D02*
X174387332Y-94450980D01*
X174387332Y-93450980D01*
X175149237Y-94403361D02*
X175292094Y-94450980D01*
X175530189Y-94450980D01*
X175625427Y-94403361D01*
X175673046Y-94355742D01*
X175720665Y-94260504D01*
X175720665Y-94165266D01*
X175673046Y-94070028D01*
X175625427Y-94022409D01*
X175530189Y-93974790D01*
X175339713Y-93927171D01*
X175244475Y-93879552D01*
X175196856Y-93831933D01*
X175149237Y-93736695D01*
X175149237Y-93641457D01*
X175196856Y-93546219D01*
X175244475Y-93498600D01*
X175339713Y-93450980D01*
X175577808Y-93450980D01*
X175720665Y-93498600D01*
X176673046Y-94450980D02*
X176101618Y-94450980D01*
X176387332Y-94450980D02*
X176387332Y-93450980D01*
X176292094Y-93593838D01*
X176196856Y-93689076D01*
X176101618Y-93736695D01*
X177006380Y-93450980D02*
X177625427Y-93450980D01*
X177292094Y-93831933D01*
X177434951Y-93831933D01*
X177530189Y-93879552D01*
X177577808Y-93927171D01*
X177625427Y-94022409D01*
X177625427Y-94260504D01*
X177577808Y-94355742D01*
X177530189Y-94403361D01*
X177434951Y-94450980D01*
X177149237Y-94450980D01*
X177053999Y-94403361D01*
X177006380Y-94355742D01*
X178101618Y-94450980D02*
X178292094Y-94450980D01*
X178387332Y-94403361D01*
X178434951Y-94355742D01*
X178530189Y-94212885D01*
X178577808Y-94022409D01*
X178577808Y-93641457D01*
X178530189Y-93546219D01*
X178482570Y-93498600D01*
X178387332Y-93450980D01*
X178196856Y-93450980D01*
X178101618Y-93498600D01*
X178053999Y-93546219D01*
X178006380Y-93641457D01*
X178006380Y-93879552D01*
X178053999Y-93974790D01*
X178101618Y-94022409D01*
X178196856Y-94070028D01*
X178387332Y-94070028D01*
X178482570Y-94022409D01*
X178530189Y-93974790D01*
X178577808Y-93879552D01*
G04 #@! TO.C,C5*
X175173522Y-95438980D02*
X175268760Y-95438980D01*
X175363999Y-95486600D01*
X175411618Y-95534219D01*
X175459237Y-95629457D01*
X175506856Y-95819933D01*
X175506856Y-96058028D01*
X175459237Y-96248504D01*
X175411618Y-96343742D01*
X175363999Y-96391361D01*
X175268760Y-96438980D01*
X175173522Y-96438980D01*
X175078284Y-96391361D01*
X175030665Y-96343742D01*
X174983046Y-96248504D01*
X174935427Y-96058028D01*
X174935427Y-95819933D01*
X174983046Y-95629457D01*
X175030665Y-95534219D01*
X175078284Y-95486600D01*
X175173522Y-95438980D01*
X175935427Y-96343742D02*
X175983046Y-96391361D01*
X175935427Y-96438980D01*
X175887808Y-96391361D01*
X175935427Y-96343742D01*
X175935427Y-96438980D01*
X176935427Y-96438980D02*
X176363999Y-96438980D01*
X176649713Y-96438980D02*
X176649713Y-95438980D01*
X176554475Y-95581838D01*
X176459237Y-95677076D01*
X176363999Y-95724695D01*
X177792570Y-95772314D02*
X177792570Y-96438980D01*
X177363999Y-95772314D02*
X177363999Y-96296123D01*
X177411618Y-96391361D01*
X177506856Y-96438980D01*
X177649713Y-96438980D01*
X177744951Y-96391361D01*
X177792570Y-96343742D01*
X178602094Y-95915171D02*
X178268760Y-95915171D01*
X178268760Y-96438980D02*
X178268760Y-95438980D01*
X178744951Y-95438980D01*
G04 #@! TO.C,C4*
X175173522Y-68006980D02*
X175268760Y-68006980D01*
X175363999Y-68054600D01*
X175411618Y-68102219D01*
X175459237Y-68197457D01*
X175506856Y-68387933D01*
X175506856Y-68626028D01*
X175459237Y-68816504D01*
X175411618Y-68911742D01*
X175363999Y-68959361D01*
X175268760Y-69006980D01*
X175173522Y-69006980D01*
X175078284Y-68959361D01*
X175030665Y-68911742D01*
X174983046Y-68816504D01*
X174935427Y-68626028D01*
X174935427Y-68387933D01*
X174983046Y-68197457D01*
X175030665Y-68102219D01*
X175078284Y-68054600D01*
X175173522Y-68006980D01*
X175935427Y-68911742D02*
X175983046Y-68959361D01*
X175935427Y-69006980D01*
X175887808Y-68959361D01*
X175935427Y-68911742D01*
X175935427Y-69006980D01*
X176935427Y-69006980D02*
X176363999Y-69006980D01*
X176649713Y-69006980D02*
X176649713Y-68006980D01*
X176554475Y-68149838D01*
X176459237Y-68245076D01*
X176363999Y-68292695D01*
X177792570Y-68340314D02*
X177792570Y-69006980D01*
X177363999Y-68340314D02*
X177363999Y-68864123D01*
X177411618Y-68959361D01*
X177506856Y-69006980D01*
X177649713Y-69006980D01*
X177744951Y-68959361D01*
X177792570Y-68911742D01*
X178602094Y-68483171D02*
X178268760Y-68483171D01*
X178268760Y-69006980D02*
X178268760Y-68006980D01*
X178744951Y-68006980D01*
G04 #@! TO.C,C3*
X157353522Y-73086980D02*
X157448760Y-73086980D01*
X157543999Y-73134600D01*
X157591618Y-73182219D01*
X157639237Y-73277457D01*
X157686856Y-73467933D01*
X157686856Y-73706028D01*
X157639237Y-73896504D01*
X157591618Y-73991742D01*
X157543999Y-74039361D01*
X157448760Y-74086980D01*
X157353522Y-74086980D01*
X157258284Y-74039361D01*
X157210665Y-73991742D01*
X157163046Y-73896504D01*
X157115427Y-73706028D01*
X157115427Y-73467933D01*
X157163046Y-73277457D01*
X157210665Y-73182219D01*
X157258284Y-73134600D01*
X157353522Y-73086980D01*
X158115427Y-73991742D02*
X158163046Y-74039361D01*
X158115427Y-74086980D01*
X158067808Y-74039361D01*
X158115427Y-73991742D01*
X158115427Y-74086980D01*
X159115427Y-74086980D02*
X158543999Y-74086980D01*
X158829713Y-74086980D02*
X158829713Y-73086980D01*
X158734475Y-73229838D01*
X158639237Y-73325076D01*
X158543999Y-73372695D01*
X159972570Y-73420314D02*
X159972570Y-74086980D01*
X159543999Y-73420314D02*
X159543999Y-73944123D01*
X159591618Y-74039361D01*
X159686856Y-74086980D01*
X159829713Y-74086980D01*
X159924951Y-74039361D01*
X159972570Y-73991742D01*
X160782094Y-73563171D02*
X160448760Y-73563171D01*
X160448760Y-74086980D02*
X160448760Y-73086980D01*
X160924951Y-73086980D01*
G04 #@! TO.C,C2*
X131993522Y-78166980D02*
X132088760Y-78166980D01*
X132183999Y-78214600D01*
X132231618Y-78262219D01*
X132279237Y-78357457D01*
X132326856Y-78547933D01*
X132326856Y-78786028D01*
X132279237Y-78976504D01*
X132231618Y-79071742D01*
X132183999Y-79119361D01*
X132088760Y-79166980D01*
X131993522Y-79166980D01*
X131898284Y-79119361D01*
X131850665Y-79071742D01*
X131803046Y-78976504D01*
X131755427Y-78786028D01*
X131755427Y-78547933D01*
X131803046Y-78357457D01*
X131850665Y-78262219D01*
X131898284Y-78214600D01*
X131993522Y-78166980D01*
X132755427Y-79071742D02*
X132803046Y-79119361D01*
X132755427Y-79166980D01*
X132707808Y-79119361D01*
X132755427Y-79071742D01*
X132755427Y-79166980D01*
X133755427Y-79166980D02*
X133183999Y-79166980D01*
X133469713Y-79166980D02*
X133469713Y-78166980D01*
X133374475Y-78309838D01*
X133279237Y-78405076D01*
X133183999Y-78452695D01*
X134612570Y-78500314D02*
X134612570Y-79166980D01*
X134183999Y-78500314D02*
X134183999Y-79024123D01*
X134231618Y-79119361D01*
X134326856Y-79166980D01*
X134469713Y-79166980D01*
X134564951Y-79119361D01*
X134612570Y-79071742D01*
X135422094Y-78643171D02*
X135088760Y-78643171D01*
X135088760Y-79166980D02*
X135088760Y-78166980D01*
X135564951Y-78166980D01*
G04 #@! TO.C,U2*
X95345903Y-119356219D02*
X95393522Y-119308600D01*
X95488760Y-119260980D01*
X95726856Y-119260980D01*
X95822094Y-119308600D01*
X95869713Y-119356219D01*
X95917332Y-119451457D01*
X95917332Y-119546695D01*
X95869713Y-119689552D01*
X95298284Y-120260980D01*
X95917332Y-120260980D01*
X96488760Y-119689552D02*
X96393522Y-119641933D01*
X96345903Y-119594314D01*
X96298284Y-119499076D01*
X96298284Y-119451457D01*
X96345903Y-119356219D01*
X96393522Y-119308600D01*
X96488760Y-119260980D01*
X96679237Y-119260980D01*
X96774475Y-119308600D01*
X96822094Y-119356219D01*
X96869713Y-119451457D01*
X96869713Y-119499076D01*
X96822094Y-119594314D01*
X96774475Y-119641933D01*
X96679237Y-119689552D01*
X96488760Y-119689552D01*
X96393522Y-119737171D01*
X96345903Y-119784790D01*
X96298284Y-119880028D01*
X96298284Y-120070504D01*
X96345903Y-120165742D01*
X96393522Y-120213361D01*
X96488760Y-120260980D01*
X96679237Y-120260980D01*
X96774475Y-120213361D01*
X96822094Y-120165742D01*
X96869713Y-120070504D01*
X96869713Y-119880028D01*
X96822094Y-119784790D01*
X96774475Y-119737171D01*
X96679237Y-119689552D01*
X97869713Y-120165742D02*
X97822094Y-120213361D01*
X97679237Y-120260980D01*
X97583999Y-120260980D01*
X97441141Y-120213361D01*
X97345903Y-120118123D01*
X97298284Y-120022885D01*
X97250665Y-119832409D01*
X97250665Y-119689552D01*
X97298284Y-119499076D01*
X97345903Y-119403838D01*
X97441141Y-119308600D01*
X97583999Y-119260980D01*
X97679237Y-119260980D01*
X97822094Y-119308600D01*
X97869713Y-119356219D01*
X98250665Y-119356219D02*
X98298284Y-119308600D01*
X98393522Y-119260980D01*
X98631618Y-119260980D01*
X98726856Y-119308600D01*
X98774475Y-119356219D01*
X98822094Y-119451457D01*
X98822094Y-119546695D01*
X98774475Y-119689552D01*
X98203046Y-120260980D01*
X98822094Y-120260980D01*
X99726856Y-119260980D02*
X99250665Y-119260980D01*
X99203046Y-119737171D01*
X99250665Y-119689552D01*
X99345903Y-119641933D01*
X99583999Y-119641933D01*
X99679237Y-119689552D01*
X99726856Y-119737171D01*
X99774475Y-119832409D01*
X99774475Y-120070504D01*
X99726856Y-120165742D01*
X99679237Y-120213361D01*
X99583999Y-120260980D01*
X99345903Y-120260980D01*
X99250665Y-120213361D01*
X99203046Y-120165742D01*
X100631618Y-119260980D02*
X100441141Y-119260980D01*
X100345903Y-119308600D01*
X100298284Y-119356219D01*
X100203046Y-119499076D01*
X100155427Y-119689552D01*
X100155427Y-120070504D01*
X100203046Y-120165742D01*
X100250665Y-120213361D01*
X100345903Y-120260980D01*
X100536380Y-120260980D01*
X100631618Y-120213361D01*
X100679237Y-120165742D01*
X100726856Y-120070504D01*
X100726856Y-119832409D01*
X100679237Y-119737171D01*
X100631618Y-119689552D01*
X100536380Y-119641933D01*
X100345903Y-119641933D01*
X100250665Y-119689552D01*
X100203046Y-119737171D01*
X100155427Y-119832409D01*
G04 #@! TO.C,U1*
X126802094Y-118850980D02*
X126611618Y-118850980D01*
X126516380Y-118898600D01*
X126468760Y-118946219D01*
X126373522Y-119089076D01*
X126325903Y-119279552D01*
X126325903Y-119660504D01*
X126373522Y-119755742D01*
X126421141Y-119803361D01*
X126516380Y-119850980D01*
X126706856Y-119850980D01*
X126802094Y-119803361D01*
X126849713Y-119755742D01*
X126897332Y-119660504D01*
X126897332Y-119422409D01*
X126849713Y-119327171D01*
X126802094Y-119279552D01*
X126706856Y-119231933D01*
X126516380Y-119231933D01*
X126421141Y-119279552D01*
X126373522Y-119327171D01*
X126325903Y-119422409D01*
X127278284Y-118946219D02*
X127325903Y-118898600D01*
X127421141Y-118850980D01*
X127659237Y-118850980D01*
X127754475Y-118898600D01*
X127802094Y-118946219D01*
X127849713Y-119041457D01*
X127849713Y-119136695D01*
X127802094Y-119279552D01*
X127230665Y-119850980D01*
X127849713Y-119850980D01*
X128230665Y-118946219D02*
X128278284Y-118898600D01*
X128373522Y-118850980D01*
X128611618Y-118850980D01*
X128706856Y-118898600D01*
X128754475Y-118946219D01*
X128802094Y-119041457D01*
X128802094Y-119136695D01*
X128754475Y-119279552D01*
X128183046Y-119850980D01*
X128802094Y-119850980D01*
X129706856Y-118850980D02*
X129230665Y-118850980D01*
X129183046Y-119327171D01*
X129230665Y-119279552D01*
X129325903Y-119231933D01*
X129563999Y-119231933D01*
X129659237Y-119279552D01*
X129706856Y-119327171D01*
X129754475Y-119422409D01*
X129754475Y-119660504D01*
X129706856Y-119755742D01*
X129659237Y-119803361D01*
X129563999Y-119850980D01*
X129325903Y-119850980D01*
X129230665Y-119803361D01*
X129183046Y-119755742D01*
X130611618Y-118850980D02*
X130421141Y-118850980D01*
X130325903Y-118898600D01*
X130278284Y-118946219D01*
X130183046Y-119089076D01*
X130135427Y-119279552D01*
X130135427Y-119660504D01*
X130183046Y-119755742D01*
X130230665Y-119803361D01*
X130325903Y-119850980D01*
X130516380Y-119850980D01*
X130611618Y-119803361D01*
X130659237Y-119755742D01*
X130706856Y-119660504D01*
X130706856Y-119422409D01*
X130659237Y-119327171D01*
X130611618Y-119279552D01*
X130516380Y-119231933D01*
X130325903Y-119231933D01*
X130230665Y-119279552D01*
X130183046Y-119327171D01*
X130135427Y-119422409D01*
G04 #@! TO.C,C1*
X113823999Y-79945742D02*
X113823999Y-80040980D01*
X113776380Y-80136219D01*
X113728760Y-80183838D01*
X113633522Y-80231457D01*
X113443046Y-80279076D01*
X113204951Y-80279076D01*
X113014475Y-80231457D01*
X112919237Y-80183838D01*
X112871618Y-80136219D01*
X112823999Y-80040980D01*
X112823999Y-79945742D01*
X112871618Y-79850504D01*
X112919237Y-79802885D01*
X113014475Y-79755266D01*
X113204951Y-79707647D01*
X113443046Y-79707647D01*
X113633522Y-79755266D01*
X113728760Y-79802885D01*
X113776380Y-79850504D01*
X113823999Y-79945742D01*
X112919237Y-80707647D02*
X112871618Y-80755266D01*
X112823999Y-80707647D01*
X112871618Y-80660028D01*
X112919237Y-80707647D01*
X112823999Y-80707647D01*
X112823999Y-81707647D02*
X112823999Y-81136219D01*
X112823999Y-81421933D02*
X113823999Y-81421933D01*
X113681141Y-81326695D01*
X113585903Y-81231457D01*
X113538284Y-81136219D01*
X113490665Y-82564790D02*
X112823999Y-82564790D01*
X113490665Y-82136219D02*
X112966856Y-82136219D01*
X112871618Y-82183838D01*
X112823999Y-82279076D01*
X112823999Y-82421933D01*
X112871618Y-82517171D01*
X112919237Y-82564790D01*
X113347808Y-83374314D02*
X113347808Y-83040980D01*
X112823999Y-83040980D02*
X113823999Y-83040980D01*
X113823999Y-83517171D01*
G04 #@! TO.C,U3*
X150321141Y-119565266D02*
X150797332Y-119565266D01*
X150225903Y-119850980D02*
X150559237Y-118850980D01*
X150892570Y-119850980D01*
X151178284Y-119803361D02*
X151321141Y-119850980D01*
X151559237Y-119850980D01*
X151654475Y-119803361D01*
X151702094Y-119755742D01*
X151749713Y-119660504D01*
X151749713Y-119565266D01*
X151702094Y-119470028D01*
X151654475Y-119422409D01*
X151559237Y-119374790D01*
X151368760Y-119327171D01*
X151273522Y-119279552D01*
X151225903Y-119231933D01*
X151178284Y-119136695D01*
X151178284Y-119041457D01*
X151225903Y-118946219D01*
X151273522Y-118898600D01*
X151368760Y-118850980D01*
X151606856Y-118850980D01*
X151749713Y-118898600D01*
X152606856Y-118850980D02*
X152416380Y-118850980D01*
X152321141Y-118898600D01*
X152273522Y-118946219D01*
X152178284Y-119089076D01*
X152130665Y-119279552D01*
X152130665Y-119660504D01*
X152178284Y-119755742D01*
X152225903Y-119803361D01*
X152321141Y-119850980D01*
X152511618Y-119850980D01*
X152606856Y-119803361D01*
X152654475Y-119755742D01*
X152702094Y-119660504D01*
X152702094Y-119422409D01*
X152654475Y-119327171D01*
X152606856Y-119279552D01*
X152511618Y-119231933D01*
X152321141Y-119231933D01*
X152225903Y-119279552D01*
X152178284Y-119327171D01*
X152130665Y-119422409D01*
X153702094Y-119755742D02*
X153654475Y-119803361D01*
X153511618Y-119850980D01*
X153416380Y-119850980D01*
X153273522Y-119803361D01*
X153178284Y-119708123D01*
X153130665Y-119612885D01*
X153083046Y-119422409D01*
X153083046Y-119279552D01*
X153130665Y-119089076D01*
X153178284Y-118993838D01*
X153273522Y-118898600D01*
X153416380Y-118850980D01*
X153511618Y-118850980D01*
X153654475Y-118898600D01*
X153702094Y-118946219D01*
X154559237Y-119184314D02*
X154559237Y-119850980D01*
X154321141Y-118803361D02*
X154083046Y-119517647D01*
X154702094Y-119517647D01*
X155273522Y-118850980D02*
X155368760Y-118850980D01*
X155463999Y-118898600D01*
X155511618Y-118946219D01*
X155559237Y-119041457D01*
X155606856Y-119231933D01*
X155606856Y-119470028D01*
X155559237Y-119660504D01*
X155511618Y-119755742D01*
X155463999Y-119803361D01*
X155368760Y-119850980D01*
X155273522Y-119850980D01*
X155178284Y-119803361D01*
X155130665Y-119755742D01*
X155083046Y-119660504D01*
X155035427Y-119470028D01*
X155035427Y-119231933D01*
X155083046Y-119041457D01*
X155130665Y-118946219D01*
X155178284Y-118898600D01*
X155273522Y-118850980D01*
X156225903Y-118850980D02*
X156321141Y-118850980D01*
X156416380Y-118898600D01*
X156463999Y-118946219D01*
X156511618Y-119041457D01*
X156559237Y-119231933D01*
X156559237Y-119470028D01*
X156511618Y-119660504D01*
X156463999Y-119755742D01*
X156416380Y-119803361D01*
X156321141Y-119850980D01*
X156225903Y-119850980D01*
X156130665Y-119803361D01*
X156083046Y-119755742D01*
X156035427Y-119660504D01*
X155987808Y-119470028D01*
X155987808Y-119231933D01*
X156035427Y-119041457D01*
X156083046Y-118946219D01*
X156130665Y-118898600D01*
X156225903Y-118850980D01*
X157130665Y-119279552D02*
X157035427Y-119231933D01*
X156987808Y-119184314D01*
X156940189Y-119089076D01*
X156940189Y-119041457D01*
X156987808Y-118946219D01*
X157035427Y-118898600D01*
X157130665Y-118850980D01*
X157321141Y-118850980D01*
X157416380Y-118898600D01*
X157463999Y-118946219D01*
X157511618Y-119041457D01*
X157511618Y-119089076D01*
X157463999Y-119184314D01*
X157416380Y-119231933D01*
X157321141Y-119279552D01*
X157130665Y-119279552D01*
X157035427Y-119327171D01*
X156987808Y-119374790D01*
X156940189Y-119470028D01*
X156940189Y-119660504D01*
X156987808Y-119755742D01*
X157035427Y-119803361D01*
X157130665Y-119850980D01*
X157321141Y-119850980D01*
X157416380Y-119803361D01*
X157463999Y-119755742D01*
X157511618Y-119660504D01*
X157511618Y-119470028D01*
X157463999Y-119374790D01*
X157416380Y-119327171D01*
X157321141Y-119279552D01*
G04 #@! TO.C,*
G04 #@! TD*
M02*
