G04 #@! TF.GenerationSoftware,KiCad,Pcbnew,(5.1.8)-1*
G04 #@! TF.CreationDate,2025-04-29T02:13:44-06:00*
G04 #@! TF.ProjectId,8086,38303836-2e6b-4696-9361-645f70636258,rev?*
G04 #@! TF.SameCoordinates,Original*
G04 #@! TF.FileFunction,Soldermask,Top*
G04 #@! TF.FilePolarity,Negative*
%FSLAX46Y46*%
G04 Gerber Fmt 4.6, Leading zero omitted, Abs format (unit mm)*
G04 Created by KiCad (PCBNEW (5.1.8)-1) date 2025-04-29 02:13:44*
%MOMM*%
%LPD*%
G01*
G04 APERTURE LIST*
%ADD10O,1.600000X1.600000*%
%ADD11R,1.600000X1.600000*%
%ADD12C,1.600000*%
%ADD13R,1.780000X7.620000*%
%ADD14C,2.000000*%
%ADD15C,1.200000*%
%ADD16R,1.200000X1.200000*%
%ADD17C,1.500000*%
%ADD18C,3.556000*%
G04 APERTURE END LIST*
D10*
G04 #@! TO.C,RN5*
X107434380Y-104876600D03*
X104894380Y-104876600D03*
X102354380Y-104876600D03*
D11*
X99814380Y-104876600D03*
G04 #@! TD*
D10*
G04 #@! TO.C,R6*
X102608380Y-95478600D03*
D12*
X92448380Y-95478600D03*
G04 #@! TD*
D10*
G04 #@! TO.C,R5*
X235196380Y-112750600D03*
D12*
X235196380Y-102590600D03*
G04 #@! TD*
D10*
G04 #@! TO.C,RN4*
X211574380Y-82016600D03*
X209034380Y-82016600D03*
X206494380Y-82016600D03*
D11*
X203954380Y-82016600D03*
G04 #@! TD*
D10*
G04 #@! TO.C,RN3*
X137406380Y-80238600D03*
X134866380Y-80238600D03*
X132326380Y-80238600D03*
D11*
X129786380Y-80238600D03*
G04 #@! TD*
D10*
G04 #@! TO.C,RN1*
X107434380Y-111734600D03*
X104894380Y-111734600D03*
X102354380Y-111734600D03*
D11*
X99814380Y-111734600D03*
G04 #@! TD*
D13*
G04 #@! TO.C,J9*
X146296380Y-134848600D03*
X148836380Y-134848600D03*
X151376380Y-134848600D03*
X153916380Y-134848600D03*
X156456380Y-134848600D03*
X158996380Y-134848600D03*
X161536380Y-134848600D03*
X164076380Y-134848600D03*
X166616380Y-134848600D03*
X169156380Y-134848600D03*
X171696380Y-134848600D03*
X174236380Y-134848600D03*
X176776380Y-134848600D03*
X179316380Y-134848600D03*
X181856380Y-134848600D03*
X184396380Y-134848600D03*
X186936380Y-134848600D03*
X189476380Y-134848600D03*
X192016380Y-134848600D03*
X194556380Y-134848600D03*
X197096380Y-134848600D03*
X199636380Y-134848600D03*
X202176380Y-134848600D03*
X204716380Y-134848600D03*
X207256380Y-134848600D03*
X209796380Y-134848600D03*
X212336380Y-134848600D03*
X214876380Y-134848600D03*
X217416380Y-134848600D03*
X219956380Y-134848600D03*
X222496380Y-134848600D03*
G04 #@! TD*
D10*
G04 #@! TO.C,RN2*
X134358380Y-124688600D03*
X131818380Y-124688600D03*
X129278380Y-124688600D03*
X126738380Y-124688600D03*
D11*
X124198380Y-124688600D03*
G04 #@! TD*
D12*
G04 #@! TO.C,C12*
X136644380Y-73888600D03*
X136644380Y-68888600D03*
G04 #@! TD*
G04 #@! TO.C,C16*
X154424380Y-94208600D03*
X154424380Y-89208600D03*
G04 #@! TD*
D10*
G04 #@! TO.C,R4*
X241800380Y-94208600D03*
D12*
X241800380Y-104368600D03*
G04 #@! TD*
D10*
G04 #@! TO.C,R3*
X238752380Y-94208600D03*
D12*
X238752380Y-104368600D03*
G04 #@! TD*
G04 #@! TO.C,C18*
X129024380Y-91668600D03*
X129024380Y-86668600D03*
G04 #@! TD*
D14*
G04 #@! TO.C,SW1*
X238498380Y-67792600D03*
X238498380Y-72292600D03*
X231998380Y-67792600D03*
X231998380Y-72292600D03*
G04 #@! TD*
D15*
G04 #@! TO.C,C25*
X233926380Y-99542600D03*
D16*
X233926380Y-98042600D03*
G04 #@! TD*
D12*
G04 #@! TO.C,C7*
X113784380Y-73888600D03*
X113784380Y-68888600D03*
G04 #@! TD*
D17*
G04 #@! TO.C,Y1*
X241800380Y-89128600D03*
X236900380Y-89128600D03*
G04 #@! TD*
D10*
G04 #@! TO.C,R2*
X195318380Y-76682600D03*
D12*
X195318380Y-66522600D03*
G04 #@! TD*
G04 #@! TO.C,C14*
X189984380Y-114528600D03*
X189984380Y-109528600D03*
G04 #@! TD*
G04 #@! TO.C,C13*
X141724380Y-114528600D03*
X141724380Y-109528600D03*
G04 #@! TD*
G04 #@! TO.C,C11*
X118864380Y-124688600D03*
X118864380Y-119688600D03*
G04 #@! TD*
G04 #@! TO.C,C9*
X230624380Y-94208600D03*
X230624380Y-89208600D03*
G04 #@! TD*
G04 #@! TO.C,C8*
X141724380Y-104368600D03*
X141724380Y-99368600D03*
G04 #@! TD*
G04 #@! TO.C,C6*
X228084380Y-104368600D03*
X228084380Y-99368600D03*
G04 #@! TD*
G04 #@! TO.C,C5*
X192524380Y-81508600D03*
X192524380Y-76508600D03*
G04 #@! TD*
G04 #@! TO.C,C4*
X228084380Y-114528600D03*
X228084380Y-109528600D03*
G04 #@! TD*
G04 #@! TO.C,C3*
X210304380Y-124688600D03*
X210304380Y-119688600D03*
G04 #@! TD*
G04 #@! TO.C,C2*
X169664380Y-124688600D03*
X169664380Y-119688600D03*
G04 #@! TD*
G04 #@! TO.C,C1*
X245864380Y-84048600D03*
X245864380Y-79048600D03*
G04 #@! TD*
D10*
G04 #@! TO.C,U2*
X166616380Y-124688600D03*
X143756380Y-117068600D03*
X164076380Y-124688600D03*
X146296380Y-117068600D03*
X161536380Y-124688600D03*
X148836380Y-117068600D03*
X158996380Y-124688600D03*
X151376380Y-117068600D03*
X156456380Y-124688600D03*
X153916380Y-117068600D03*
X153916380Y-124688600D03*
X156456380Y-117068600D03*
X151376380Y-124688600D03*
X158996380Y-117068600D03*
X148836380Y-124688600D03*
X161536380Y-117068600D03*
X146296380Y-124688600D03*
X164076380Y-117068600D03*
X143756380Y-124688600D03*
D11*
X166616380Y-117068600D03*
G04 #@! TD*
D10*
G04 #@! TO.C,U18*
X125976380Y-91668600D03*
X92956380Y-76428600D03*
X123436380Y-91668600D03*
X95496380Y-76428600D03*
X120896380Y-91668600D03*
X98036380Y-76428600D03*
X118356380Y-91668600D03*
X100576380Y-76428600D03*
X115816380Y-91668600D03*
X103116380Y-76428600D03*
X113276380Y-91668600D03*
X105656380Y-76428600D03*
X110736380Y-91668600D03*
X108196380Y-76428600D03*
X108196380Y-91668600D03*
X110736380Y-76428600D03*
X105656380Y-91668600D03*
X113276380Y-76428600D03*
X103116380Y-91668600D03*
X115816380Y-76428600D03*
X100576380Y-91668600D03*
X118356380Y-76428600D03*
X98036380Y-91668600D03*
X120896380Y-76428600D03*
X95496380Y-91668600D03*
X123436380Y-76428600D03*
X92956380Y-91668600D03*
D11*
X125976380Y-76428600D03*
G04 #@! TD*
D10*
G04 #@! TO.C,U7*
X110736380Y-73888600D03*
X92956380Y-66268600D03*
X108196380Y-73888600D03*
X95496380Y-66268600D03*
X105656380Y-73888600D03*
X98036380Y-66268600D03*
X103116380Y-73888600D03*
X100576380Y-66268600D03*
X100576380Y-73888600D03*
X103116380Y-66268600D03*
X98036380Y-73888600D03*
X105656380Y-66268600D03*
X95496380Y-73888600D03*
X108196380Y-66268600D03*
X92956380Y-73888600D03*
D11*
X110736380Y-66268600D03*
G04 #@! TD*
D10*
G04 #@! TO.C,U6*
X225036380Y-104368600D03*
X202176380Y-96748600D03*
X222496380Y-104368600D03*
X204716380Y-96748600D03*
X219956380Y-104368600D03*
X207256380Y-96748600D03*
X217416380Y-104368600D03*
X209796380Y-96748600D03*
X214876380Y-104368600D03*
X212336380Y-96748600D03*
X212336380Y-104368600D03*
X214876380Y-96748600D03*
X209796380Y-104368600D03*
X217416380Y-96748600D03*
X207256380Y-104368600D03*
X219956380Y-96748600D03*
X204716380Y-104368600D03*
X222496380Y-96748600D03*
X202176380Y-104368600D03*
D11*
X225036380Y-96748600D03*
G04 #@! TD*
D10*
G04 #@! TO.C,U17*
X133596380Y-73888600D03*
X118356380Y-66268600D03*
X131056380Y-73888600D03*
X120896380Y-66268600D03*
X128516380Y-73888600D03*
X123436380Y-66268600D03*
X125976380Y-73888600D03*
X125976380Y-66268600D03*
X123436380Y-73888600D03*
X128516380Y-66268600D03*
X120896380Y-73888600D03*
X131056380Y-66268600D03*
X118356380Y-73888600D03*
D11*
X133596380Y-66268600D03*
G04 #@! TD*
D10*
G04 #@! TO.C,U16*
X151376380Y-94208600D03*
X133596380Y-86588600D03*
X148836380Y-94208600D03*
X136136380Y-86588600D03*
X146296380Y-94208600D03*
X138676380Y-86588600D03*
X143756380Y-94208600D03*
X141216380Y-86588600D03*
X141216380Y-94208600D03*
X143756380Y-86588600D03*
X138676380Y-94208600D03*
X146296380Y-86588600D03*
X136136380Y-94208600D03*
X148836380Y-86588600D03*
X133596380Y-94208600D03*
D11*
X151376380Y-86588600D03*
G04 #@! TD*
D10*
G04 #@! TO.C,U14*
X186936380Y-114528600D03*
X164076380Y-106908600D03*
X184396380Y-114528600D03*
X166616380Y-106908600D03*
X181856380Y-114528600D03*
X169156380Y-106908600D03*
X179316380Y-114528600D03*
X171696380Y-106908600D03*
X176776380Y-114528600D03*
X174236380Y-106908600D03*
X174236380Y-114528600D03*
X176776380Y-106908600D03*
X171696380Y-114528600D03*
X179316380Y-106908600D03*
X169156380Y-114528600D03*
X181856380Y-106908600D03*
X166616380Y-114528600D03*
X184396380Y-106908600D03*
X164076380Y-114528600D03*
D11*
X186936380Y-106908600D03*
G04 #@! TD*
D10*
G04 #@! TO.C,U13*
X138676380Y-114528600D03*
X123436380Y-106908600D03*
X136136380Y-114528600D03*
X125976380Y-106908600D03*
X133596380Y-114528600D03*
X128516380Y-106908600D03*
X131056380Y-114528600D03*
X131056380Y-106908600D03*
X128516380Y-114528600D03*
X133596380Y-106908600D03*
X125976380Y-114528600D03*
X136136380Y-106908600D03*
X123436380Y-114528600D03*
D11*
X138676380Y-106908600D03*
G04 #@! TD*
D10*
G04 #@! TO.C,U11*
X115816380Y-124688600D03*
X92956380Y-117068600D03*
X113276380Y-124688600D03*
X95496380Y-117068600D03*
X110736380Y-124688600D03*
X98036380Y-117068600D03*
X108196380Y-124688600D03*
X100576380Y-117068600D03*
X105656380Y-124688600D03*
X103116380Y-117068600D03*
X103116380Y-124688600D03*
X105656380Y-117068600D03*
X100576380Y-124688600D03*
X108196380Y-117068600D03*
X98036380Y-124688600D03*
X110736380Y-117068600D03*
X95496380Y-124688600D03*
X113276380Y-117068600D03*
X92956380Y-124688600D03*
D11*
X115816380Y-117068600D03*
G04 #@! TD*
D10*
G04 #@! TO.C,U9*
X227576380Y-94208600D03*
X204716380Y-86588600D03*
X225036380Y-94208600D03*
X207256380Y-86588600D03*
X222496380Y-94208600D03*
X209796380Y-86588600D03*
X219956380Y-94208600D03*
X212336380Y-86588600D03*
X217416380Y-94208600D03*
X214876380Y-86588600D03*
X214876380Y-94208600D03*
X217416380Y-86588600D03*
X212336380Y-94208600D03*
X219956380Y-86588600D03*
X209796380Y-94208600D03*
X222496380Y-86588600D03*
X207256380Y-94208600D03*
X225036380Y-86588600D03*
X204716380Y-94208600D03*
D11*
X227576380Y-86588600D03*
G04 #@! TD*
D10*
G04 #@! TO.C,U8*
X138676380Y-104368600D03*
X120896380Y-96748600D03*
X136136380Y-104368600D03*
X123436380Y-96748600D03*
X133596380Y-104368600D03*
X125976380Y-96748600D03*
X131056380Y-104368600D03*
X128516380Y-96748600D03*
X128516380Y-104368600D03*
X131056380Y-96748600D03*
X125976380Y-104368600D03*
X133596380Y-96748600D03*
X123436380Y-104368600D03*
X136136380Y-96748600D03*
X120896380Y-104368600D03*
D11*
X138676380Y-96748600D03*
G04 #@! TD*
D10*
G04 #@! TO.C,U5*
X189476380Y-81508600D03*
X141216380Y-66268600D03*
X186936380Y-81508600D03*
X143756380Y-66268600D03*
X184396380Y-81508600D03*
X146296380Y-66268600D03*
X181856380Y-81508600D03*
X148836380Y-66268600D03*
X179316380Y-81508600D03*
X151376380Y-66268600D03*
X176776380Y-81508600D03*
X153916380Y-66268600D03*
X174236380Y-81508600D03*
X156456380Y-66268600D03*
X171696380Y-81508600D03*
X158996380Y-66268600D03*
X169156380Y-81508600D03*
X161536380Y-66268600D03*
X166616380Y-81508600D03*
X164076380Y-66268600D03*
X164076380Y-81508600D03*
X166616380Y-66268600D03*
X161536380Y-81508600D03*
X169156380Y-66268600D03*
X158996380Y-81508600D03*
X171696380Y-66268600D03*
X156456380Y-81508600D03*
X174236380Y-66268600D03*
X153916380Y-81508600D03*
X176776380Y-66268600D03*
X151376380Y-81508600D03*
X179316380Y-66268600D03*
X148836380Y-81508600D03*
X181856380Y-66268600D03*
X146296380Y-81508600D03*
X184396380Y-66268600D03*
X143756380Y-81508600D03*
X186936380Y-66268600D03*
X141216380Y-81508600D03*
D11*
X189476380Y-66268600D03*
G04 #@! TD*
D10*
G04 #@! TO.C,U4*
X225036380Y-114528600D03*
X202176380Y-106908600D03*
X222496380Y-114528600D03*
X204716380Y-106908600D03*
X219956380Y-114528600D03*
X207256380Y-106908600D03*
X217416380Y-114528600D03*
X209796380Y-106908600D03*
X214876380Y-114528600D03*
X212336380Y-106908600D03*
X212336380Y-114528600D03*
X214876380Y-106908600D03*
X209796380Y-114528600D03*
X217416380Y-106908600D03*
X207256380Y-114528600D03*
X219956380Y-106908600D03*
X204716380Y-114528600D03*
X222496380Y-106908600D03*
X202176380Y-114528600D03*
D11*
X225036380Y-106908600D03*
G04 #@! TD*
D10*
G04 #@! TO.C,U3*
X207256380Y-124688600D03*
X184396380Y-117068600D03*
X204716380Y-124688600D03*
X186936380Y-117068600D03*
X202176380Y-124688600D03*
X189476380Y-117068600D03*
X199636380Y-124688600D03*
X192016380Y-117068600D03*
X197096380Y-124688600D03*
X194556380Y-117068600D03*
X194556380Y-124688600D03*
X197096380Y-117068600D03*
X192016380Y-124688600D03*
X199636380Y-117068600D03*
X189476380Y-124688600D03*
X202176380Y-117068600D03*
X186936380Y-124688600D03*
X204716380Y-117068600D03*
X184396380Y-124688600D03*
D11*
X207256380Y-117068600D03*
G04 #@! TD*
D10*
G04 #@! TO.C,U1*
X242816380Y-84048600D03*
X222496380Y-76428600D03*
X240276380Y-84048600D03*
X225036380Y-76428600D03*
X237736380Y-84048600D03*
X227576380Y-76428600D03*
X235196380Y-84048600D03*
X230116380Y-76428600D03*
X232656380Y-84048600D03*
X232656380Y-76428600D03*
X230116380Y-84048600D03*
X235196380Y-76428600D03*
X227576380Y-84048600D03*
X237736380Y-76428600D03*
X225036380Y-84048600D03*
X240276380Y-76428600D03*
X222496380Y-84048600D03*
D11*
X242816380Y-76428600D03*
G04 #@! TD*
D13*
G04 #@! TO.C,J2*
X136136380Y-134848600D03*
X133596380Y-134848600D03*
X100576380Y-134848600D03*
X115816380Y-134848600D03*
X105656380Y-134848600D03*
X98036380Y-134848600D03*
X103116380Y-134848600D03*
X95496380Y-134848600D03*
X128516380Y-134848600D03*
X123436380Y-134848600D03*
X92956380Y-134848600D03*
X118356380Y-134848600D03*
X113276380Y-134848600D03*
X108196380Y-134848600D03*
X131056380Y-134848600D03*
X125976380Y-134848600D03*
X120896380Y-134848600D03*
X110736380Y-134848600D03*
G04 #@! TD*
G04 #@! TO.C,J1*
X222496380Y-68554600D03*
X219956380Y-68554600D03*
X217416380Y-68554600D03*
X214876380Y-68554600D03*
X212336380Y-68554600D03*
X209796380Y-68554600D03*
X207256380Y-68554600D03*
X204716380Y-68554600D03*
G04 #@! TD*
D18*
G04 #@! TO.C,R*
X242562380Y-127228600D03*
G04 #@! TD*
G04 #@! TO.C,R*
X242562380Y-70078600D03*
G04 #@! TD*
M02*
