M48
; DRILL file {KiCad (5.1.8)-1} date 04/29/25 02:13:46
; FORMAT={-:-/ absolute / inch / decimal}
; #@! TF.CreationDate,2025-04-29T02:13:46-06:00
; #@! TF.GenerationSoftware,Kicad,Pcbnew,(5.1.8)-1
; #@! TF.FileFunction,Plated,1,2,PTH
FMAT,2
INCH
T1C0.0157
T2C0.0236
T3C0.0315
T4C0.0433
T5C0.1200
%
G90
G05
T1
X3.6397Y-2.709
X3.6397Y-4.719
X3.6397Y-5.109
X3.6797Y-2.799
X3.6997Y-4.719
X3.7397Y-2.839
X3.7397Y-5.109
X3.7497Y-4.759
X3.7797Y-3.509
X3.7797Y-4.049
X3.8097Y-3.539
X3.8397Y-3.199
X3.8397Y-4.849
X3.8397Y-5.109
X3.8697Y-4.019
X3.8797Y-3.169
X3.8897Y-4.969
X3.9397Y-3.109
X3.9397Y-5.109
X3.9697Y-3.739
X3.9797Y-3.479
X3.9797Y-3.539
X3.9797Y-3.989
X4.0397Y-3.079
X4.0397Y-5.109
X4.0497Y-4.339
X4.0797Y-3.139
X4.0897Y-3.959
X4.1397Y-5.109
X4.1497Y-4.459
X4.1797Y-3.929
X4.2097Y-2.839
X4.2397Y-2.749
X4.2397Y-3.079
X4.2397Y-5.109
X4.2797Y-3.899
X4.3097Y-2.779
X4.3097Y-4.309
X4.3097Y-4.369
X4.3097Y-5.009
X4.3397Y-2.669
X4.3397Y-3.109
X4.3397Y-5.109
X4.3797Y-3.369
X4.3797Y-3.869
X4.4397Y-5.039
X4.4397Y-5.109
X4.4497Y-4.789
X4.4597Y-2.819
X4.4797Y-3.839
X4.4797Y-4.679
X4.5097Y-3.229
X4.5397Y-4.819
X4.5397Y-5.009
X4.5397Y-5.069
X4.5397Y-5.109
X4.5697Y-3.679
X4.6297Y-4.399
X4.6397Y-2.709
X4.6397Y-3.539
X4.6397Y-5.109
X4.6597Y-4.429
X4.6797Y-3.269
X4.6797Y-3.319
X4.7097Y-3.109
X4.7097Y-4.189
X4.7097Y-4.589
X4.7097Y-4.969
X4.7397Y-3.339
X4.7397Y-3.679
X4.7397Y-5.109
X4.7697Y-5.009
X4.7797Y-2.779
X4.7797Y-3.139
X4.8397Y-3.409
X4.8397Y-5.109
X4.8697Y-5.069
X4.8797Y-2.779
X4.8797Y-3.109
X4.8797Y-4.049
X4.9097Y-4.589
X4.9397Y-3.709
X4.9397Y-4.719
X4.9397Y-5.099
X4.9797Y-2.809
X4.9797Y-3.739
X4.9797Y-4.279
X4.9897Y-3.199
X5.0097Y-5.039
X5.0397Y-3.169
X5.0797Y-4.049
X5.0797Y-4.449
X5.1097Y-4.639
X5.1097Y-5.069
X5.1297Y-3.029
X5.1297Y-3.239
X5.1397Y-2.669
X5.1497Y-3.619
X5.1497Y-3.709
X5.1797Y-3.569
X5.1797Y-3.649
X5.1797Y-3.739
X5.1797Y-4.309
X5.1997Y-5.009
X5.2097Y-2.809
X5.2197Y-3.079
X5.2397Y-2.669
X5.2397Y-4.049
X5.2397Y-4.309
X5.2797Y-2.989
X5.2797Y-4.279
X5.3097Y-3.619
X5.3097Y-4.729
X5.3297Y-3.249
X5.3395Y-4.2788
X5.3397Y-4.849
X5.3397Y-5.109
X5.3797Y-4.449
X5.3797Y-4.309
X5.3997Y-3.029
X5.4097Y-4.639
X5.4097Y-4.929
X5.4097Y-5.009
X5.4397Y-2.799
X5.4797Y-3.649
X5.4997Y-3.249
X5.5197Y-4.589
X5.5397Y-2.709
X5.5397Y-3.109
X5.5397Y-3.789
X5.5597Y-4.199
X5.5597Y-4.969
X5.5797Y-3.619
X5.5997Y-4.699
X5.6097Y-3.139
X5.6397Y-2.749
X5.6797Y-3.279
X5.6797Y-3.509
X5.6797Y-4.849
X5.6997Y-4.159
X5.6997Y-4.249
X5.7097Y-3.139
X5.7097Y-4.529
X5.7097Y-4.759
X5.7397Y-2.889
X5.7397Y-3.509
X5.7497Y-2.989
X5.7597Y-4.239
X5.7797Y-3.549
X5.7797Y-4.079
X5.7797Y-4.789
X5.7797Y-5.109
X5.8397Y-2.949
X5.8397Y-3.299
X5.8397Y-3.469
X5.8397Y-4.269
X5.8397Y-5.109
X5.8797Y-2.919
X5.8797Y-3.649
X5.9097Y-4.239
X5.9097Y-4.369
X5.9397Y-3.649
X5.9397Y-4.299
X5.9397Y-4.809
X5.9397Y-5.109
X5.9797Y-2.669
X5.9797Y-3.139
X5.9797Y-4.969
X5.9997Y-4.389
X6.0097Y-4.269
X6.0397Y-3.389
X6.0397Y-4.329
X6.0397Y-4.789
X6.0397Y-5.109
X6.0597Y-4.119
X6.0797Y-3.079
X6.0797Y-3.319
X6.0797Y-3.419
X6.1097Y-4.299
X6.1097Y-4.669
X6.1397Y-4.359
X6.1397Y-5.109
X6.1597Y-4.079
X6.2097Y-4.329
X6.2097Y-4.439
X6.2397Y-4.389
X6.2397Y-4.769
X6.2397Y-5.109
X6.2797Y-2.779
X6.3097Y-4.359
X6.3397Y-4.419
X6.3397Y-5.109
X6.4097Y-4.389
X6.4097Y-4.449
X6.4397Y-3.349
X6.4397Y-4.139
X6.4397Y-5.109
X6.4797Y-3.089
X6.4797Y-3.509
X6.5097Y-4.399
X6.5397Y-5.109
X6.5797Y-3.059
X6.5797Y-3.839
X6.6097Y-4.419
X6.6397Y-5.109
X6.6797Y-3.869
X6.6997Y-4.579
X6.6997Y-4.969
X6.7097Y-3.439
X6.7097Y-3.839
X6.7397Y-5.109
X6.7797Y-3.029
X6.7797Y-3.899
X6.8097Y-3.469
X6.8097Y-3.869
X6.8397Y-5.109
X6.8597Y-3.869
X6.8797Y-3.929
X6.9097Y-3.499
X6.9097Y-3.899
X6.9397Y-5.109
X6.9597Y-3.899
X6.9697Y-3.569
X6.9697Y-3.679
X6.9797Y-3.959
X7.0097Y-3.529
X7.0097Y-3.929
X7.0397Y-5.109
X7.0597Y-3.929
X7.0797Y-3.989
X7.1097Y-3.559
X7.1097Y-3.959
X7.1397Y-5.109
X7.1597Y-3.959
X7.1797Y-4.019
X7.2097Y-3.589
X7.2097Y-3.989
X7.2397Y-4.749
X7.2397Y-5.109
X7.2597Y-3.989
X7.2797Y-4.049
X7.3097Y-3.619
X7.3097Y-4.019
X7.3097Y-4.669
X7.3397Y-3.649
X7.3397Y-4.049
X7.3397Y-5.109
X7.3797Y-4.149
X7.4197Y-3.989
X7.4397Y-4.819
X7.4397Y-5.109
X7.4597Y-4.169
X7.4697Y-2.989
X7.4797Y-5.009
X7.4997Y-3.959
X7.5097Y-3.029
X7.5297Y-3.369
X7.5397Y-4.809
X7.5397Y-5.109
X7.5797Y-3.929
X7.5797Y-5.019
X7.6097Y-4.969
X7.6197Y-4.529
X7.6397Y-5.109
X7.6497Y-4.809
X7.6697Y-2.749
X7.6797Y-3.899
X7.6797Y-5.079
X7.7097Y-4.759
X7.7097Y-2.839
X7.7797Y-3.869
X7.7797Y-4.849
X7.7797Y-5.059
X7.8097Y-4.759
X7.8397Y-3.409
X7.8397Y-5.109
X7.8797Y-4.729
X7.8797Y-5.069
X7.9397Y-4.439
X7.9397Y-5.109
X7.9797Y-3.679
X8.0397Y-4.259
X8.0397Y-5.109
X8.1097Y-2.889
X8.1397Y-3.459
X8.1397Y-4.279
X8.1397Y-4.669
X8.1397Y-5.109
X8.2197Y-2.949
X8.2397Y-3.479
X8.2397Y-4.299
X8.2397Y-5.109
X8.2997Y-4.969
X8.3297Y-2.899
X8.3297Y-3.059
X8.3397Y-3.499
X8.3397Y-4.319
X8.3397Y-5.109
X8.3697Y-4.699
X8.3697Y-5.069
X8.4297Y-2.899
X8.4297Y-3.089
X8.4397Y-3.519
X8.4397Y-4.339
X8.4397Y-5.109
X8.5397Y-3.539
X8.5397Y-4.359
X8.5397Y-5.109
X8.5797Y-4.969
X8.6397Y-3.559
X8.6397Y-4.379
X8.6397Y-5.109
X8.6897Y-4.689
X8.7397Y-3.119
X8.7397Y-3.579
X8.7397Y-4.399
X8.7397Y-4.659
X8.7797Y-3.159
X8.7997Y-5.069
X8.8097Y-3.469
X8.8097Y-4.049
X8.8397Y-3.079
X8.8397Y-3.599
X8.8397Y-3.869
X8.8797Y-3.229
X8.9297Y-5.069
X8.9397Y-3.469
X8.9447Y-4.174
X8.9597Y-4.439
X8.9997Y-4.409
X8.9997Y-4.969
X9.0797Y-3.119
X9.0897Y-3.429
X9.1197Y-3.159
X9.1297Y-3.389
X9.1597Y-4.689
X9.1697Y-3.429
X9.2097Y-2.669
X9.2097Y-2.949
X9.2097Y-3.229
X9.2797Y-3.119
X9.5797Y-3.119
X9.6597Y-3.389
T2
X9.2097Y-3.8599
X9.2097Y-3.919
T3
X5.5597Y-2.609
X5.5597Y-3.209
X5.6597Y-2.609
X5.6597Y-3.209
X5.7597Y-2.609
X5.7597Y-3.209
X5.8597Y-2.609
X5.8597Y-3.209
X5.9597Y-2.609
X5.9597Y-3.209
X6.0597Y-2.609
X6.0597Y-3.209
X6.1597Y-2.609
X6.1597Y-3.209
X6.2597Y-2.609
X6.2597Y-3.209
X6.3597Y-2.609
X6.3597Y-3.209
X6.4597Y-2.609
X6.4597Y-3.209
X6.5597Y-2.609
X6.5597Y-3.209
X6.6597Y-2.609
X6.6597Y-3.209
X6.7597Y-2.609
X6.7597Y-3.209
X6.8597Y-2.609
X6.8597Y-3.209
X6.9597Y-2.609
X6.9597Y-3.209
X7.0597Y-2.609
X7.0597Y-3.209
X7.1597Y-2.609
X7.1597Y-3.209
X7.2597Y-2.609
X7.2597Y-3.209
X7.3597Y-2.609
X7.3597Y-3.209
X7.4597Y-2.609
X7.4597Y-3.209
X6.0797Y-3.5121
X6.0797Y-3.709
X4.8897Y-4.909
X4.9897Y-4.909
X5.0897Y-4.909
X5.1897Y-4.909
X5.2897Y-4.909
X9.5197Y-3.709
X9.5197Y-4.109
X5.5797Y-3.9121
X5.5797Y-4.109
X7.6897Y-2.619
X7.6897Y-3.019
X7.2597Y-4.609
X7.2597Y-4.909
X7.3597Y-4.609
X7.3597Y-4.909
X7.4597Y-4.609
X7.4597Y-4.909
X7.5597Y-4.609
X7.5597Y-4.909
X7.6597Y-4.609
X7.6597Y-4.909
X7.7597Y-4.609
X7.7597Y-4.909
X7.8597Y-4.609
X7.8597Y-4.909
X7.9597Y-4.609
X7.9597Y-4.909
X8.0597Y-4.609
X8.0597Y-4.909
X8.1597Y-4.609
X8.1597Y-4.909
X4.6597Y-2.609
X4.6597Y-2.909
X4.7597Y-2.609
X4.7597Y-2.909
X4.8597Y-2.609
X4.8597Y-2.909
X4.9597Y-2.609
X4.9597Y-2.909
X5.0597Y-2.609
X5.0597Y-2.909
X5.1597Y-2.609
X5.1597Y-2.909
X5.2597Y-2.609
X5.2597Y-2.909
X9.2597Y-4.039
X9.2597Y-4.439
X6.6797Y-4.7121
X6.6797Y-4.909
X5.6597Y-4.609
X5.6597Y-4.909
X5.7597Y-4.609
X5.7597Y-4.909
X5.8597Y-4.609
X5.8597Y-4.909
X5.9597Y-4.609
X5.9597Y-4.909
X6.0597Y-4.609
X6.0597Y-4.909
X6.1597Y-4.609
X6.1597Y-4.909
X6.2597Y-4.609
X6.2597Y-4.909
X6.3597Y-4.609
X6.3597Y-4.909
X6.4597Y-4.609
X6.4597Y-4.909
X6.5597Y-4.609
X6.5597Y-4.909
X4.8597Y-4.209
X4.8597Y-4.509
X4.9597Y-4.209
X4.9597Y-4.509
X5.0597Y-4.209
X5.0597Y-4.509
X5.1597Y-4.209
X5.1597Y-4.509
X5.2597Y-4.209
X5.2597Y-4.509
X5.3597Y-4.209
X5.3597Y-4.509
X5.4597Y-4.209
X5.4597Y-4.509
X7.9597Y-4.209
X7.9597Y-4.509
X8.0597Y-4.209
X8.0597Y-4.509
X8.1597Y-4.209
X8.1597Y-4.509
X8.2597Y-4.209
X8.2597Y-4.509
X8.3597Y-4.209
X8.3597Y-4.509
X8.4597Y-4.209
X8.4597Y-4.509
X8.5597Y-4.209
X8.5597Y-4.509
X8.6597Y-4.209
X8.6597Y-4.509
X8.7597Y-4.209
X8.7597Y-4.509
X8.8597Y-4.209
X8.8597Y-4.509
X9.3997Y-3.709
X9.3997Y-4.109
X3.6597Y-3.009
X3.6597Y-3.609
X3.7597Y-3.009
X3.7597Y-3.609
X3.8597Y-3.009
X3.8597Y-3.609
X3.9597Y-3.009
X3.9597Y-3.609
X4.0597Y-3.009
X4.0597Y-3.609
X4.1597Y-3.009
X4.1597Y-3.609
X4.2597Y-3.009
X4.2597Y-3.609
X4.3597Y-3.009
X4.3597Y-3.609
X4.4597Y-3.009
X4.4597Y-3.609
X4.5597Y-3.009
X4.5597Y-3.609
X4.6597Y-3.009
X4.6597Y-3.609
X4.7597Y-3.009
X4.7597Y-3.609
X4.8597Y-3.009
X4.8597Y-3.609
X4.9597Y-3.009
X4.9597Y-3.609
X3.9297Y-4.399
X4.0297Y-4.399
X4.1297Y-4.399
X4.2297Y-4.399
X4.4797Y-2.7121
X4.4797Y-2.909
X9.6797Y-3.1121
X9.6797Y-3.309
X4.7597Y-3.809
X4.7597Y-4.109
X4.8597Y-3.809
X4.8597Y-4.109
X4.9597Y-3.809
X4.9597Y-4.109
X5.0597Y-3.809
X5.0597Y-4.109
X5.1597Y-3.809
X5.1597Y-4.109
X5.2597Y-3.809
X5.2597Y-4.109
X5.3597Y-3.809
X5.3597Y-4.109
X5.4597Y-3.809
X5.4597Y-4.109
X8.0597Y-3.409
X8.0597Y-3.709
X8.1597Y-3.409
X8.1597Y-3.709
X8.2597Y-3.409
X8.2597Y-3.709
X8.3597Y-3.409
X8.3597Y-3.709
X8.4597Y-3.409
X8.4597Y-3.709
X8.5597Y-3.409
X8.5597Y-3.709
X8.6597Y-3.409
X8.6597Y-3.709
X8.7597Y-3.409
X8.7597Y-3.709
X8.8597Y-3.409
X8.8597Y-3.709
X8.9597Y-3.409
X8.9597Y-3.709
X5.1097Y-3.159
X5.2097Y-3.159
X5.3097Y-3.159
X5.4097Y-3.159
X5.0797Y-3.4121
X5.0797Y-3.609
X8.9797Y-4.3121
X8.9797Y-4.509
X6.4597Y-4.209
X6.4597Y-4.509
X6.5597Y-4.209
X6.5597Y-4.509
X6.6597Y-4.209
X6.6597Y-4.509
X6.7597Y-4.209
X6.7597Y-4.509
X6.8597Y-4.209
X6.8597Y-4.509
X6.9597Y-4.209
X6.9597Y-4.509
X7.0597Y-4.209
X7.0597Y-4.509
X7.1597Y-4.209
X7.1597Y-4.509
X7.2597Y-4.209
X7.2597Y-4.509
X7.3597Y-4.209
X7.3597Y-4.509
X3.6597Y-4.609
X3.6597Y-4.909
X3.7597Y-4.609
X3.7597Y-4.909
X3.8597Y-4.609
X3.8597Y-4.909
X3.9597Y-4.609
X3.9597Y-4.909
X4.0597Y-4.609
X4.0597Y-4.909
X4.1597Y-4.609
X4.1597Y-4.909
X4.2597Y-4.609
X4.2597Y-4.909
X4.3597Y-4.609
X4.3597Y-4.909
X4.4597Y-4.609
X4.4597Y-4.909
X4.5597Y-4.609
X4.5597Y-4.909
X5.2597Y-3.409
X5.2597Y-3.709
X5.3597Y-3.409
X5.3597Y-3.709
X5.4597Y-3.409
X5.4597Y-3.709
X5.5597Y-3.409
X5.5597Y-3.709
X5.6597Y-3.409
X5.6597Y-3.709
X5.7597Y-3.409
X5.7597Y-3.709
X5.8597Y-3.409
X5.8597Y-3.709
X5.9597Y-3.409
X5.9597Y-3.709
X5.3797Y-2.7121
X5.3797Y-2.909
X8.2797Y-4.7121
X8.2797Y-4.909
X7.5797Y-3.0121
X7.5797Y-3.209
X7.9597Y-3.809
X7.9597Y-4.109
X8.0597Y-3.809
X8.0597Y-4.109
X8.1597Y-3.809
X8.1597Y-4.109
X8.2597Y-3.809
X8.2597Y-4.109
X8.3597Y-3.809
X8.3597Y-4.109
X8.4597Y-3.809
X8.4597Y-4.109
X8.5597Y-3.809
X8.5597Y-4.109
X8.6597Y-3.809
X8.6597Y-4.109
X8.7597Y-3.809
X8.7597Y-4.109
X8.8597Y-3.809
X8.8597Y-4.109
X8.7597Y-3.009
X8.7597Y-3.309
X8.8597Y-3.009
X8.8597Y-3.309
X8.9597Y-3.009
X8.9597Y-3.309
X9.0597Y-3.009
X9.0597Y-3.309
X9.1597Y-3.009
X9.1597Y-3.309
X9.2597Y-3.009
X9.2597Y-3.309
X9.3597Y-3.009
X9.3597Y-3.309
X9.4597Y-3.009
X9.4597Y-3.309
X9.5597Y-3.009
X9.5597Y-3.309
X3.6397Y-3.759
X4.0397Y-3.759
X3.9297Y-4.129
X4.0297Y-4.129
X4.1297Y-4.129
X4.2297Y-4.129
X7.4797Y-4.3121
X7.4797Y-4.509
X9.0797Y-3.5121
X9.0797Y-3.709
X9.3268Y-3.509
X9.5197Y-3.509
X3.6597Y-2.609
X3.6597Y-2.909
X3.7597Y-2.609
X3.7597Y-2.909
X3.8597Y-2.609
X3.8597Y-2.909
X3.9597Y-2.609
X3.9597Y-2.909
X4.0597Y-2.609
X4.0597Y-2.909
X4.1597Y-2.609
X4.1597Y-2.909
X4.2597Y-2.609
X4.2597Y-2.909
X4.3597Y-2.609
X4.3597Y-2.909
X8.0297Y-3.229
X8.1297Y-3.229
X8.2297Y-3.229
X8.3297Y-3.229
X5.5797Y-4.3121
X5.5797Y-4.509
X4.6797Y-4.7121
X4.6797Y-4.909
X8.9797Y-3.9121
X8.9797Y-4.109
T4
X9.1338Y-2.669
X9.1338Y-2.8462
X9.3897Y-2.669
X9.3897Y-2.8462
T5
X9.5497Y-2.759
X9.5497Y-5.009
T0
M30
