G04 #@! TF.GenerationSoftware,KiCad,Pcbnew,(5.1.8)-1*
G04 #@! TF.CreationDate,2025-04-29T02:13:44-06:00*
G04 #@! TF.ProjectId,8086,38303836-2e6b-4696-9361-645f70636258,rev?*
G04 #@! TF.SameCoordinates,Original*
G04 #@! TF.FileFunction,Legend,Top*
G04 #@! TF.FilePolarity,Positive*
%FSLAX46Y46*%
G04 Gerber Fmt 4.6, Leading zero omitted, Abs format (unit mm)*
G04 Created by KiCad (PCBNEW (5.1.8)-1) date 2025-04-29 02:13:44*
%MOMM*%
%LPD*%
G01*
G04 APERTURE LIST*
%ADD10C,0.127000*%
%ADD11C,0.300000*%
%ADD12C,0.120000*%
%ADD13C,0.150000*%
G04 APERTURE END LIST*
D10*
X222024665Y-73610409D02*
X221855332Y-73368504D01*
X221734380Y-73610409D02*
X221734380Y-73102409D01*
X221927903Y-73102409D01*
X221976284Y-73126600D01*
X222000475Y-73150790D01*
X222024665Y-73199171D01*
X222024665Y-73271742D01*
X222000475Y-73320123D01*
X221976284Y-73344314D01*
X221927903Y-73368504D01*
X221734380Y-73368504D01*
X222218189Y-73586219D02*
X222290760Y-73610409D01*
X222411713Y-73610409D01*
X222460094Y-73586219D01*
X222484284Y-73562028D01*
X222508475Y-73513647D01*
X222508475Y-73465266D01*
X222484284Y-73416885D01*
X222460094Y-73392695D01*
X222411713Y-73368504D01*
X222314951Y-73344314D01*
X222266570Y-73320123D01*
X222242380Y-73295933D01*
X222218189Y-73247552D01*
X222218189Y-73199171D01*
X222242380Y-73150790D01*
X222266570Y-73126600D01*
X222314951Y-73102409D01*
X222435903Y-73102409D01*
X222508475Y-73126600D01*
X222653618Y-73102409D02*
X222943903Y-73102409D01*
X222798760Y-73610409D02*
X222798760Y-73102409D01*
X222992284Y-73658790D02*
X223379332Y-73658790D01*
X214053903Y-73610409D02*
X214053903Y-73102409D01*
X214053903Y-73344314D02*
X214344189Y-73344314D01*
X214344189Y-73610409D02*
X214344189Y-73102409D01*
X214827999Y-73610409D02*
X214586094Y-73610409D01*
X214586094Y-73102409D01*
X214997332Y-73610409D02*
X214997332Y-73102409D01*
X215118284Y-73102409D01*
X215190856Y-73126600D01*
X215239237Y-73174980D01*
X215263427Y-73223361D01*
X215287618Y-73320123D01*
X215287618Y-73392695D01*
X215263427Y-73489457D01*
X215239237Y-73537838D01*
X215190856Y-73586219D01*
X215118284Y-73610409D01*
X214997332Y-73610409D01*
X215481141Y-73465266D02*
X215723046Y-73465266D01*
X215432760Y-73610409D02*
X215602094Y-73102409D01*
X215771427Y-73610409D01*
X211465522Y-73610409D02*
X211465522Y-73102409D01*
X211465522Y-73344314D02*
X211755808Y-73344314D01*
X211755808Y-73610409D02*
X211755808Y-73102409D01*
X212094475Y-73102409D02*
X212191237Y-73102409D01*
X212239618Y-73126600D01*
X212287999Y-73174980D01*
X212312189Y-73271742D01*
X212312189Y-73441076D01*
X212287999Y-73537838D01*
X212239618Y-73586219D01*
X212191237Y-73610409D01*
X212094475Y-73610409D01*
X212046094Y-73586219D01*
X211997713Y-73537838D01*
X211973522Y-73441076D01*
X211973522Y-73271742D01*
X211997713Y-73174980D01*
X212046094Y-73126600D01*
X212094475Y-73102409D01*
X212771808Y-73610409D02*
X212529903Y-73610409D01*
X212529903Y-73102409D01*
X212941141Y-73610409D02*
X212941141Y-73102409D01*
X213062094Y-73102409D01*
X213134665Y-73126600D01*
X213183046Y-73174980D01*
X213207237Y-73223361D01*
X213231427Y-73320123D01*
X213231427Y-73392695D01*
X213207237Y-73489457D01*
X213183046Y-73537838D01*
X213134665Y-73586219D01*
X213062094Y-73610409D01*
X212941141Y-73610409D01*
X209239999Y-73610409D02*
X209239999Y-73102409D01*
X209530284Y-73610409D01*
X209530284Y-73102409D01*
X209772189Y-73610409D02*
X209772189Y-73102409D01*
X209941522Y-73465266D01*
X210110856Y-73102409D01*
X210110856Y-73610409D01*
X210352760Y-73610409D02*
X210352760Y-73102409D01*
X206579046Y-73610409D02*
X206579046Y-73102409D01*
X206820951Y-73610409D02*
X206820951Y-73102409D01*
X207111237Y-73610409D01*
X207111237Y-73102409D01*
X207280570Y-73102409D02*
X207570856Y-73102409D01*
X207425713Y-73610409D02*
X207425713Y-73102409D01*
X207715999Y-73465266D02*
X207957903Y-73465266D01*
X207667618Y-73610409D02*
X207836951Y-73102409D01*
X208006284Y-73610409D01*
X204002760Y-73610409D02*
X204002760Y-73102409D01*
X204244665Y-73610409D02*
X204244665Y-73102409D01*
X204534951Y-73610409D01*
X204534951Y-73102409D01*
X204704284Y-73102409D02*
X204994570Y-73102409D01*
X204849427Y-73610409D02*
X204849427Y-73102409D01*
X205454189Y-73610409D02*
X205284856Y-73368504D01*
X205163903Y-73610409D02*
X205163903Y-73102409D01*
X205357427Y-73102409D01*
X205405808Y-73126600D01*
X205429999Y-73150790D01*
X205454189Y-73199171D01*
X205454189Y-73271742D01*
X205429999Y-73320123D01*
X205405808Y-73344314D01*
X205357427Y-73368504D01*
X205163903Y-73368504D01*
D11*
X159294522Y-86466457D02*
X159794522Y-86466457D01*
X160008808Y-87252171D02*
X159294522Y-87252171D01*
X159294522Y-85752171D01*
X160008808Y-85752171D01*
X160651665Y-87252171D02*
X160651665Y-85752171D01*
X161151665Y-86823600D01*
X161651665Y-85752171D01*
X161651665Y-87252171D01*
X162365951Y-87252171D02*
X162365951Y-85752171D01*
X162865951Y-86823600D01*
X163365951Y-85752171D01*
X163365951Y-87252171D01*
X166080237Y-87109314D02*
X166008808Y-87180742D01*
X165794522Y-87252171D01*
X165651665Y-87252171D01*
X165437380Y-87180742D01*
X165294522Y-87037885D01*
X165223094Y-86895028D01*
X165151665Y-86609314D01*
X165151665Y-86395028D01*
X165223094Y-86109314D01*
X165294522Y-85966457D01*
X165437380Y-85823600D01*
X165651665Y-85752171D01*
X165794522Y-85752171D01*
X166008808Y-85823600D01*
X166080237Y-85895028D01*
X167008808Y-85752171D02*
X167294522Y-85752171D01*
X167437380Y-85823600D01*
X167580237Y-85966457D01*
X167651665Y-86252171D01*
X167651665Y-86752171D01*
X167580237Y-87037885D01*
X167437380Y-87180742D01*
X167294522Y-87252171D01*
X167008808Y-87252171D01*
X166865951Y-87180742D01*
X166723094Y-87037885D01*
X166651665Y-86752171D01*
X166651665Y-86252171D01*
X166723094Y-85966457D01*
X166865951Y-85823600D01*
X167008808Y-85752171D01*
X168294522Y-87252171D02*
X168294522Y-85752171D01*
X168794522Y-86823600D01*
X169294522Y-85752171D01*
X169294522Y-87252171D01*
X170008808Y-87252171D02*
X170008808Y-85752171D01*
X170580237Y-85752171D01*
X170723094Y-85823600D01*
X170794522Y-85895028D01*
X170865951Y-86037885D01*
X170865951Y-86252171D01*
X170794522Y-86395028D01*
X170723094Y-86466457D01*
X170580237Y-86537885D01*
X170008808Y-86537885D01*
X171508808Y-85752171D02*
X171508808Y-86966457D01*
X171580237Y-87109314D01*
X171651665Y-87180742D01*
X171794522Y-87252171D01*
X172080237Y-87252171D01*
X172223094Y-87180742D01*
X172294522Y-87109314D01*
X172365951Y-86966457D01*
X172365951Y-85752171D01*
X172865951Y-85752171D02*
X173723094Y-85752171D01*
X173294522Y-87252171D02*
X173294522Y-85752171D01*
X174223094Y-86466457D02*
X174723094Y-86466457D01*
X174937380Y-87252171D02*
X174223094Y-87252171D01*
X174223094Y-85752171D01*
X174937380Y-85752171D01*
X176437380Y-87252171D02*
X175937380Y-86537885D01*
X175580237Y-87252171D02*
X175580237Y-85752171D01*
X176151665Y-85752171D01*
X176294522Y-85823600D01*
X176365951Y-85895028D01*
X176437380Y-86037885D01*
X176437380Y-86252171D01*
X176365951Y-86395028D01*
X176294522Y-86466457D01*
X176151665Y-86537885D01*
X175580237Y-86537885D01*
X177008808Y-87180742D02*
X177223094Y-87252171D01*
X177580237Y-87252171D01*
X177723094Y-87180742D01*
X177794522Y-87109314D01*
X177865951Y-86966457D01*
X177865951Y-86823600D01*
X177794522Y-86680742D01*
X177723094Y-86609314D01*
X177580237Y-86537885D01*
X177294522Y-86466457D01*
X177151665Y-86395028D01*
X177080237Y-86323600D01*
X177008808Y-86180742D01*
X177008808Y-86037885D01*
X177080237Y-85895028D01*
X177151665Y-85823600D01*
X177294522Y-85752171D01*
X177651665Y-85752171D01*
X177865951Y-85823600D01*
X159508808Y-88945028D02*
X159365951Y-88873600D01*
X159294522Y-88802171D01*
X159223094Y-88659314D01*
X159223094Y-88587885D01*
X159294522Y-88445028D01*
X159365951Y-88373600D01*
X159508808Y-88302171D01*
X159794522Y-88302171D01*
X159937380Y-88373600D01*
X160008808Y-88445028D01*
X160080237Y-88587885D01*
X160080237Y-88659314D01*
X160008808Y-88802171D01*
X159937380Y-88873600D01*
X159794522Y-88945028D01*
X159508808Y-88945028D01*
X159365951Y-89016457D01*
X159294522Y-89087885D01*
X159223094Y-89230742D01*
X159223094Y-89516457D01*
X159294522Y-89659314D01*
X159365951Y-89730742D01*
X159508808Y-89802171D01*
X159794522Y-89802171D01*
X159937380Y-89730742D01*
X160008808Y-89659314D01*
X160080237Y-89516457D01*
X160080237Y-89230742D01*
X160008808Y-89087885D01*
X159937380Y-89016457D01*
X159794522Y-88945028D01*
X161008808Y-88302171D02*
X161151665Y-88302171D01*
X161294522Y-88373600D01*
X161365951Y-88445028D01*
X161437380Y-88587885D01*
X161508808Y-88873600D01*
X161508808Y-89230742D01*
X161437380Y-89516457D01*
X161365951Y-89659314D01*
X161294522Y-89730742D01*
X161151665Y-89802171D01*
X161008808Y-89802171D01*
X160865951Y-89730742D01*
X160794522Y-89659314D01*
X160723094Y-89516457D01*
X160651665Y-89230742D01*
X160651665Y-88873600D01*
X160723094Y-88587885D01*
X160794522Y-88445028D01*
X160865951Y-88373600D01*
X161008808Y-88302171D01*
X162365951Y-88945028D02*
X162223094Y-88873600D01*
X162151665Y-88802171D01*
X162080237Y-88659314D01*
X162080237Y-88587885D01*
X162151665Y-88445028D01*
X162223094Y-88373600D01*
X162365951Y-88302171D01*
X162651665Y-88302171D01*
X162794522Y-88373600D01*
X162865951Y-88445028D01*
X162937380Y-88587885D01*
X162937380Y-88659314D01*
X162865951Y-88802171D01*
X162794522Y-88873600D01*
X162651665Y-88945028D01*
X162365951Y-88945028D01*
X162223094Y-89016457D01*
X162151665Y-89087885D01*
X162080237Y-89230742D01*
X162080237Y-89516457D01*
X162151665Y-89659314D01*
X162223094Y-89730742D01*
X162365951Y-89802171D01*
X162651665Y-89802171D01*
X162794522Y-89730742D01*
X162865951Y-89659314D01*
X162937380Y-89516457D01*
X162937380Y-89230742D01*
X162865951Y-89087885D01*
X162794522Y-89016457D01*
X162651665Y-88945028D01*
X164223094Y-88302171D02*
X163937380Y-88302171D01*
X163794522Y-88373600D01*
X163723094Y-88445028D01*
X163580237Y-88659314D01*
X163508808Y-88945028D01*
X163508808Y-89516457D01*
X163580237Y-89659314D01*
X163651665Y-89730742D01*
X163794522Y-89802171D01*
X164080237Y-89802171D01*
X164223094Y-89730742D01*
X164294522Y-89659314D01*
X164365951Y-89516457D01*
X164365951Y-89159314D01*
X164294522Y-89016457D01*
X164223094Y-88945028D01*
X164080237Y-88873600D01*
X163794522Y-88873600D01*
X163651665Y-88945028D01*
X163580237Y-89016457D01*
X163508808Y-89159314D01*
X165080237Y-89730742D02*
X165080237Y-89802171D01*
X165008808Y-89945028D01*
X164937380Y-90016457D01*
X167651665Y-89802171D02*
X166794522Y-89802171D01*
X167223094Y-89802171D02*
X167223094Y-88302171D01*
X167080237Y-88516457D01*
X166937380Y-88659314D01*
X166794522Y-88730742D01*
X168937380Y-88302171D02*
X168651665Y-88302171D01*
X168508808Y-88373600D01*
X168437380Y-88445028D01*
X168294522Y-88659314D01*
X168223094Y-88945028D01*
X168223094Y-89516457D01*
X168294522Y-89659314D01*
X168365951Y-89730742D01*
X168508808Y-89802171D01*
X168794522Y-89802171D01*
X168937380Y-89730742D01*
X169008808Y-89659314D01*
X169080237Y-89516457D01*
X169080237Y-89159314D01*
X169008808Y-89016457D01*
X168937380Y-88945028D01*
X168794522Y-88873600D01*
X168508808Y-88873600D01*
X168365951Y-88945028D01*
X168294522Y-89016457D01*
X168223094Y-89159314D01*
X171365951Y-89016457D02*
X171580237Y-89087885D01*
X171651665Y-89159314D01*
X171723094Y-89302171D01*
X171723094Y-89516457D01*
X171651665Y-89659314D01*
X171580237Y-89730742D01*
X171437380Y-89802171D01*
X170865951Y-89802171D01*
X170865951Y-88302171D01*
X171365951Y-88302171D01*
X171508808Y-88373600D01*
X171580237Y-88445028D01*
X171651665Y-88587885D01*
X171651665Y-88730742D01*
X171580237Y-88873600D01*
X171508808Y-88945028D01*
X171365951Y-89016457D01*
X170865951Y-89016457D01*
X172365951Y-89802171D02*
X172365951Y-88302171D01*
X172865951Y-88302171D02*
X173723094Y-88302171D01*
X173294522Y-89802171D02*
X173294522Y-88302171D01*
X175365951Y-89802171D02*
X175365951Y-88302171D01*
X175937380Y-88302171D01*
X176080237Y-88373600D01*
X176151665Y-88445028D01*
X176223094Y-88587885D01*
X176223094Y-88802171D01*
X176151665Y-88945028D01*
X176080237Y-89016457D01*
X175937380Y-89087885D01*
X175365951Y-89087885D01*
X177723094Y-89802171D02*
X177223094Y-89087885D01*
X176865951Y-89802171D02*
X176865951Y-88302171D01*
X177437380Y-88302171D01*
X177580237Y-88373600D01*
X177651665Y-88445028D01*
X177723094Y-88587885D01*
X177723094Y-88802171D01*
X177651665Y-88945028D01*
X177580237Y-89016457D01*
X177437380Y-89087885D01*
X176865951Y-89087885D01*
X178651665Y-88302171D02*
X178937380Y-88302171D01*
X179080237Y-88373600D01*
X179223094Y-88516457D01*
X179294522Y-88802171D01*
X179294522Y-89302171D01*
X179223094Y-89587885D01*
X179080237Y-89730742D01*
X178937380Y-89802171D01*
X178651665Y-89802171D01*
X178508808Y-89730742D01*
X178365951Y-89587885D01*
X178294522Y-89302171D01*
X178294522Y-88802171D01*
X178365951Y-88516457D01*
X178508808Y-88373600D01*
X178651665Y-88302171D01*
X180794522Y-89659314D02*
X180723094Y-89730742D01*
X180508808Y-89802171D01*
X180365951Y-89802171D01*
X180151665Y-89730742D01*
X180008808Y-89587885D01*
X179937380Y-89445028D01*
X179865951Y-89159314D01*
X179865951Y-88945028D01*
X179937380Y-88659314D01*
X180008808Y-88516457D01*
X180151665Y-88373600D01*
X180365951Y-88302171D01*
X180508808Y-88302171D01*
X180723094Y-88373600D01*
X180794522Y-88445028D01*
X181437380Y-89016457D02*
X181937380Y-89016457D01*
X182151665Y-89802171D02*
X181437380Y-89802171D01*
X181437380Y-88302171D01*
X182151665Y-88302171D01*
X182723094Y-89730742D02*
X182937380Y-89802171D01*
X183294522Y-89802171D01*
X183437380Y-89730742D01*
X183508808Y-89659314D01*
X183580237Y-89516457D01*
X183580237Y-89373600D01*
X183508808Y-89230742D01*
X183437380Y-89159314D01*
X183294522Y-89087885D01*
X183008808Y-89016457D01*
X182865951Y-88945028D01*
X182794522Y-88873600D01*
X182723094Y-88730742D01*
X182723094Y-88587885D01*
X182794522Y-88445028D01*
X182865951Y-88373600D01*
X183008808Y-88302171D01*
X183365951Y-88302171D01*
X183580237Y-88373600D01*
X184151665Y-89730742D02*
X184365951Y-89802171D01*
X184723094Y-89802171D01*
X184865951Y-89730742D01*
X184937380Y-89659314D01*
X185008808Y-89516457D01*
X185008808Y-89373600D01*
X184937380Y-89230742D01*
X184865951Y-89159314D01*
X184723094Y-89087885D01*
X184437380Y-89016457D01*
X184294522Y-88945028D01*
X184223094Y-88873600D01*
X184151665Y-88730742D01*
X184151665Y-88587885D01*
X184223094Y-88445028D01*
X184294522Y-88373600D01*
X184437380Y-88302171D01*
X184794522Y-88302171D01*
X185008808Y-88373600D01*
X185937380Y-88302171D02*
X186223094Y-88302171D01*
X186365951Y-88373600D01*
X186508808Y-88516457D01*
X186580237Y-88802171D01*
X186580237Y-89302171D01*
X186508808Y-89587885D01*
X186365951Y-89730742D01*
X186223094Y-89802171D01*
X185937380Y-89802171D01*
X185794522Y-89730742D01*
X185651665Y-89587885D01*
X185580237Y-89302171D01*
X185580237Y-88802171D01*
X185651665Y-88516457D01*
X185794522Y-88373600D01*
X185937380Y-88302171D01*
X188080237Y-89802171D02*
X187580237Y-89087885D01*
X187223094Y-89802171D02*
X187223094Y-88302171D01*
X187794522Y-88302171D01*
X187937380Y-88373600D01*
X188008808Y-88445028D01*
X188080237Y-88587885D01*
X188080237Y-88802171D01*
X188008808Y-88945028D01*
X187937380Y-89016457D01*
X187794522Y-89087885D01*
X187223094Y-89087885D01*
X190723094Y-89659314D02*
X190651665Y-89730742D01*
X190437380Y-89802171D01*
X190294522Y-89802171D01*
X190080237Y-89730742D01*
X189937380Y-89587885D01*
X189865951Y-89445028D01*
X189794522Y-89159314D01*
X189794522Y-88945028D01*
X189865951Y-88659314D01*
X189937380Y-88516457D01*
X190080237Y-88373600D01*
X190294522Y-88302171D01*
X190437380Y-88302171D01*
X190651665Y-88373600D01*
X190723094Y-88445028D01*
X191294522Y-89373600D02*
X192008808Y-89373600D01*
X191151665Y-89802171D02*
X191651665Y-88302171D01*
X192151665Y-89802171D01*
X193508808Y-89802171D02*
X193008808Y-89087885D01*
X192651665Y-89802171D02*
X192651665Y-88302171D01*
X193223094Y-88302171D01*
X193365951Y-88373600D01*
X193437380Y-88445028D01*
X193508808Y-88587885D01*
X193508808Y-88802171D01*
X193437380Y-88945028D01*
X193365951Y-89016457D01*
X193223094Y-89087885D01*
X192651665Y-89087885D01*
X194151665Y-89802171D02*
X194151665Y-88302171D01*
X194508808Y-88302171D01*
X194723094Y-88373600D01*
X194865951Y-88516457D01*
X194937380Y-88659314D01*
X195008808Y-88945028D01*
X195008808Y-89159314D01*
X194937380Y-89445028D01*
X194865951Y-89587885D01*
X194723094Y-89730742D01*
X194508808Y-89802171D01*
X194151665Y-89802171D01*
X160151665Y-92209314D02*
X160080237Y-92280742D01*
X159865951Y-92352171D01*
X159723094Y-92352171D01*
X159508808Y-92280742D01*
X159365951Y-92137885D01*
X159294522Y-91995028D01*
X159223094Y-91709314D01*
X159223094Y-91495028D01*
X159294522Y-91209314D01*
X159365951Y-91066457D01*
X159508808Y-90923600D01*
X159723094Y-90852171D01*
X159865951Y-90852171D01*
X160080237Y-90923600D01*
X160151665Y-90995028D01*
X161008808Y-92352171D02*
X160865951Y-92280742D01*
X160794522Y-92209314D01*
X160723094Y-92066457D01*
X160723094Y-91637885D01*
X160794522Y-91495028D01*
X160865951Y-91423600D01*
X161008808Y-91352171D01*
X161223094Y-91352171D01*
X161365951Y-91423600D01*
X161437380Y-91495028D01*
X161508808Y-91637885D01*
X161508808Y-92066457D01*
X161437380Y-92209314D01*
X161365951Y-92280742D01*
X161223094Y-92352171D01*
X161008808Y-92352171D01*
X162151665Y-91352171D02*
X162151665Y-92852171D01*
X162151665Y-91423600D02*
X162294522Y-91352171D01*
X162580237Y-91352171D01*
X162723094Y-91423600D01*
X162794522Y-91495028D01*
X162865951Y-91637885D01*
X162865951Y-92066457D01*
X162794522Y-92209314D01*
X162723094Y-92280742D01*
X162580237Y-92352171D01*
X162294522Y-92352171D01*
X162151665Y-92280742D01*
X163365951Y-91352171D02*
X163723094Y-92352171D01*
X164080237Y-91352171D02*
X163723094Y-92352171D01*
X163580237Y-92709314D01*
X163508808Y-92780742D01*
X163365951Y-92852171D01*
X164651665Y-92352171D02*
X164651665Y-91352171D01*
X164651665Y-91637885D02*
X164723094Y-91495028D01*
X164794522Y-91423600D01*
X164937380Y-91352171D01*
X165080237Y-91352171D01*
X165580237Y-92352171D02*
X165580237Y-91352171D01*
X165580237Y-90852171D02*
X165508808Y-90923600D01*
X165580237Y-90995028D01*
X165651665Y-90923600D01*
X165580237Y-90852171D01*
X165580237Y-90995028D01*
X166937380Y-91352171D02*
X166937380Y-92566457D01*
X166865951Y-92709314D01*
X166794522Y-92780742D01*
X166651665Y-92852171D01*
X166437380Y-92852171D01*
X166294522Y-92780742D01*
X166937380Y-92280742D02*
X166794522Y-92352171D01*
X166508808Y-92352171D01*
X166365951Y-92280742D01*
X166294522Y-92209314D01*
X166223094Y-92066457D01*
X166223094Y-91637885D01*
X166294522Y-91495028D01*
X166365951Y-91423600D01*
X166508808Y-91352171D01*
X166794522Y-91352171D01*
X166937380Y-91423600D01*
X167651665Y-92352171D02*
X167651665Y-90852171D01*
X168294522Y-92352171D02*
X168294522Y-91566457D01*
X168223094Y-91423600D01*
X168080237Y-91352171D01*
X167865951Y-91352171D01*
X167723094Y-91423600D01*
X167651665Y-91495028D01*
X168794522Y-91352171D02*
X169365951Y-91352171D01*
X169008808Y-90852171D02*
X169008808Y-92137885D01*
X169080237Y-92280742D01*
X169223094Y-92352171D01*
X169365951Y-92352171D01*
X171437380Y-92923600D02*
X171365951Y-92852171D01*
X171223094Y-92637885D01*
X171151665Y-92495028D01*
X171080237Y-92280742D01*
X171008808Y-91923600D01*
X171008808Y-91637885D01*
X171080237Y-91280742D01*
X171151665Y-91066457D01*
X171223094Y-90923600D01*
X171365951Y-90709314D01*
X171437380Y-90637885D01*
X172865951Y-92209314D02*
X172794522Y-92280742D01*
X172580237Y-92352171D01*
X172437380Y-92352171D01*
X172223094Y-92280742D01*
X172080237Y-92137885D01*
X172008808Y-91995028D01*
X171937380Y-91709314D01*
X171937380Y-91495028D01*
X172008808Y-91209314D01*
X172080237Y-91066457D01*
X172223094Y-90923600D01*
X172437380Y-90852171D01*
X172580237Y-90852171D01*
X172794522Y-90923600D01*
X172865951Y-90995028D01*
X173365951Y-92923600D02*
X173437380Y-92852171D01*
X173580237Y-92637885D01*
X173651665Y-92495028D01*
X173723094Y-92280742D01*
X173794522Y-91923600D01*
X173794522Y-91637885D01*
X173723094Y-91280742D01*
X173651665Y-91066457D01*
X173580237Y-90923600D01*
X173437380Y-90709314D01*
X173365951Y-90637885D01*
X175580237Y-90995028D02*
X175651665Y-90923600D01*
X175794522Y-90852171D01*
X176151665Y-90852171D01*
X176294522Y-90923600D01*
X176365951Y-90995028D01*
X176437380Y-91137885D01*
X176437380Y-91280742D01*
X176365951Y-91495028D01*
X175508808Y-92352171D01*
X176437380Y-92352171D01*
X177365951Y-90852171D02*
X177508808Y-90852171D01*
X177651665Y-90923600D01*
X177723094Y-90995028D01*
X177794522Y-91137885D01*
X177865951Y-91423600D01*
X177865951Y-91780742D01*
X177794522Y-92066457D01*
X177723094Y-92209314D01*
X177651665Y-92280742D01*
X177508808Y-92352171D01*
X177365951Y-92352171D01*
X177223094Y-92280742D01*
X177151665Y-92209314D01*
X177080237Y-92066457D01*
X177008808Y-91780742D01*
X177008808Y-91423600D01*
X177080237Y-91137885D01*
X177151665Y-90995028D01*
X177223094Y-90923600D01*
X177365951Y-90852171D01*
X178437380Y-90995028D02*
X178508808Y-90923600D01*
X178651665Y-90852171D01*
X179008808Y-90852171D01*
X179151665Y-90923600D01*
X179223094Y-90995028D01*
X179294522Y-91137885D01*
X179294522Y-91280742D01*
X179223094Y-91495028D01*
X178365951Y-92352171D01*
X179294522Y-92352171D01*
X180651665Y-90852171D02*
X179937380Y-90852171D01*
X179865951Y-91566457D01*
X179937380Y-91495028D01*
X180080237Y-91423600D01*
X180437380Y-91423600D01*
X180580237Y-91495028D01*
X180651665Y-91566457D01*
X180723094Y-91709314D01*
X180723094Y-92066457D01*
X180651665Y-92209314D01*
X180580237Y-92280742D01*
X180437380Y-92352171D01*
X180080237Y-92352171D01*
X179937380Y-92280742D01*
X179865951Y-92209314D01*
X182508808Y-91566457D02*
X183008808Y-91566457D01*
X183223094Y-92352171D02*
X182508808Y-92352171D01*
X182508808Y-90852171D01*
X183223094Y-90852171D01*
X183865951Y-92352171D02*
X183865951Y-90852171D01*
X184365951Y-91923600D01*
X184865951Y-90852171D01*
X184865951Y-92352171D01*
X185580237Y-92352171D02*
X185580237Y-90852171D01*
X186080237Y-91923600D01*
X186580237Y-90852171D01*
X186580237Y-92352171D01*
X159151665Y-93902171D02*
X159437380Y-94902171D01*
X159723094Y-94187885D01*
X160008808Y-94902171D01*
X160294522Y-93902171D01*
X160723094Y-93902171D02*
X161008808Y-94902171D01*
X161294522Y-94187885D01*
X161580237Y-94902171D01*
X161865951Y-93902171D01*
X162294522Y-93902171D02*
X162580237Y-94902171D01*
X162865951Y-94187885D01*
X163151665Y-94902171D01*
X163437380Y-93902171D01*
X164008808Y-94759314D02*
X164080237Y-94830742D01*
X164008808Y-94902171D01*
X163937380Y-94830742D01*
X164008808Y-94759314D01*
X164008808Y-94902171D01*
X164723094Y-94902171D02*
X164723094Y-93402171D01*
X165365951Y-94902171D02*
X165365951Y-94116457D01*
X165294522Y-93973600D01*
X165151665Y-93902171D01*
X164937380Y-93902171D01*
X164794522Y-93973600D01*
X164723094Y-94045028D01*
X166294522Y-94902171D02*
X166151665Y-94830742D01*
X166080237Y-94759314D01*
X166008808Y-94616457D01*
X166008808Y-94187885D01*
X166080237Y-94045028D01*
X166151665Y-93973600D01*
X166294522Y-93902171D01*
X166508808Y-93902171D01*
X166651665Y-93973600D01*
X166723094Y-94045028D01*
X166794522Y-94187885D01*
X166794522Y-94616457D01*
X166723094Y-94759314D01*
X166651665Y-94830742D01*
X166508808Y-94902171D01*
X166294522Y-94902171D01*
X167437380Y-94902171D02*
X167437380Y-93902171D01*
X167437380Y-94045028D02*
X167508808Y-93973600D01*
X167651665Y-93902171D01*
X167865951Y-93902171D01*
X168008808Y-93973600D01*
X168080237Y-94116457D01*
X168080237Y-94902171D01*
X168080237Y-94116457D02*
X168151665Y-93973600D01*
X168294522Y-93902171D01*
X168508808Y-93902171D01*
X168651665Y-93973600D01*
X168723094Y-94116457D01*
X168723094Y-94902171D01*
X170008808Y-94830742D02*
X169865951Y-94902171D01*
X169580237Y-94902171D01*
X169437380Y-94830742D01*
X169365951Y-94687885D01*
X169365951Y-94116457D01*
X169437380Y-93973600D01*
X169580237Y-93902171D01*
X169865951Y-93902171D01*
X170008808Y-93973600D01*
X170080237Y-94116457D01*
X170080237Y-94259314D01*
X169365951Y-94402171D01*
X170723094Y-94902171D02*
X170723094Y-93402171D01*
X170723094Y-93973600D02*
X170865951Y-93902171D01*
X171151665Y-93902171D01*
X171294522Y-93973600D01*
X171365951Y-94045028D01*
X171437380Y-94187885D01*
X171437380Y-94616457D01*
X171365951Y-94759314D01*
X171294522Y-94830742D01*
X171151665Y-94902171D01*
X170865951Y-94902171D01*
X170723094Y-94830742D01*
X172080237Y-94902171D02*
X172080237Y-93902171D01*
X172080237Y-94187885D02*
X172151665Y-94045028D01*
X172223094Y-93973600D01*
X172365951Y-93902171D01*
X172508808Y-93902171D01*
X173580237Y-94830742D02*
X173437380Y-94902171D01*
X173151665Y-94902171D01*
X173008808Y-94830742D01*
X172937380Y-94687885D01*
X172937380Y-94116457D01*
X173008808Y-93973600D01*
X173151665Y-93902171D01*
X173437380Y-93902171D01*
X173580237Y-93973600D01*
X173651665Y-94116457D01*
X173651665Y-94259314D01*
X172937380Y-94402171D01*
X174151665Y-93902171D02*
X174437380Y-94902171D01*
X174723094Y-94187885D01*
X175008808Y-94902171D01*
X175294522Y-93902171D01*
X176080237Y-94045028D02*
X175937380Y-93973600D01*
X175865951Y-93902171D01*
X175794522Y-93759314D01*
X175794522Y-93687885D01*
X175865951Y-93545028D01*
X175937380Y-93473600D01*
X176080237Y-93402171D01*
X176365951Y-93402171D01*
X176508808Y-93473600D01*
X176580237Y-93545028D01*
X176651665Y-93687885D01*
X176651665Y-93759314D01*
X176580237Y-93902171D01*
X176508808Y-93973600D01*
X176365951Y-94045028D01*
X176080237Y-94045028D01*
X175937380Y-94116457D01*
X175865951Y-94187885D01*
X175794522Y-94330742D01*
X175794522Y-94616457D01*
X175865951Y-94759314D01*
X175937380Y-94830742D01*
X176080237Y-94902171D01*
X176365951Y-94902171D01*
X176508808Y-94830742D01*
X176580237Y-94759314D01*
X176651665Y-94616457D01*
X176651665Y-94330742D01*
X176580237Y-94187885D01*
X176508808Y-94116457D01*
X176365951Y-94045028D01*
X177580237Y-93402171D02*
X177723094Y-93402171D01*
X177865951Y-93473600D01*
X177937380Y-93545028D01*
X178008808Y-93687885D01*
X178080237Y-93973600D01*
X178080237Y-94330742D01*
X178008808Y-94616457D01*
X177937380Y-94759314D01*
X177865951Y-94830742D01*
X177723094Y-94902171D01*
X177580237Y-94902171D01*
X177437380Y-94830742D01*
X177365951Y-94759314D01*
X177294522Y-94616457D01*
X177223094Y-94330742D01*
X177223094Y-93973600D01*
X177294522Y-93687885D01*
X177365951Y-93545028D01*
X177437380Y-93473600D01*
X177580237Y-93402171D01*
X178937380Y-94045028D02*
X178794522Y-93973600D01*
X178723094Y-93902171D01*
X178651665Y-93759314D01*
X178651665Y-93687885D01*
X178723094Y-93545028D01*
X178794522Y-93473600D01*
X178937380Y-93402171D01*
X179223094Y-93402171D01*
X179365951Y-93473600D01*
X179437380Y-93545028D01*
X179508808Y-93687885D01*
X179508808Y-93759314D01*
X179437380Y-93902171D01*
X179365951Y-93973600D01*
X179223094Y-94045028D01*
X178937380Y-94045028D01*
X178794522Y-94116457D01*
X178723094Y-94187885D01*
X178651665Y-94330742D01*
X178651665Y-94616457D01*
X178723094Y-94759314D01*
X178794522Y-94830742D01*
X178937380Y-94902171D01*
X179223094Y-94902171D01*
X179365951Y-94830742D01*
X179437380Y-94759314D01*
X179508808Y-94616457D01*
X179508808Y-94330742D01*
X179437380Y-94187885D01*
X179365951Y-94116457D01*
X179223094Y-94045028D01*
X180365951Y-94045028D02*
X180223094Y-93973600D01*
X180151665Y-93902171D01*
X180080237Y-93759314D01*
X180080237Y-93687885D01*
X180151665Y-93545028D01*
X180223094Y-93473600D01*
X180365951Y-93402171D01*
X180651665Y-93402171D01*
X180794522Y-93473600D01*
X180865951Y-93545028D01*
X180937380Y-93687885D01*
X180937380Y-93759314D01*
X180865951Y-93902171D01*
X180794522Y-93973600D01*
X180651665Y-94045028D01*
X180365951Y-94045028D01*
X180223094Y-94116457D01*
X180151665Y-94187885D01*
X180080237Y-94330742D01*
X180080237Y-94616457D01*
X180151665Y-94759314D01*
X180223094Y-94830742D01*
X180365951Y-94902171D01*
X180651665Y-94902171D01*
X180794522Y-94830742D01*
X180865951Y-94759314D01*
X180937380Y-94616457D01*
X180937380Y-94330742D01*
X180865951Y-94187885D01*
X180794522Y-94116457D01*
X180651665Y-94045028D01*
X181580237Y-94759314D02*
X181651665Y-94830742D01*
X181580237Y-94902171D01*
X181508808Y-94830742D01*
X181580237Y-94759314D01*
X181580237Y-94902171D01*
X182937380Y-94830742D02*
X182794522Y-94902171D01*
X182508808Y-94902171D01*
X182365951Y-94830742D01*
X182294522Y-94759314D01*
X182223094Y-94616457D01*
X182223094Y-94187885D01*
X182294522Y-94045028D01*
X182365951Y-93973600D01*
X182508808Y-93902171D01*
X182794522Y-93902171D01*
X182937380Y-93973600D01*
X183794522Y-94902171D02*
X183651665Y-94830742D01*
X183580237Y-94759314D01*
X183508808Y-94616457D01*
X183508808Y-94187885D01*
X183580237Y-94045028D01*
X183651665Y-93973600D01*
X183794522Y-93902171D01*
X184008808Y-93902171D01*
X184151665Y-93973600D01*
X184223094Y-94045028D01*
X184294522Y-94187885D01*
X184294522Y-94616457D01*
X184223094Y-94759314D01*
X184151665Y-94830742D01*
X184008808Y-94902171D01*
X183794522Y-94902171D01*
X184937380Y-94902171D02*
X184937380Y-93902171D01*
X184937380Y-94045028D02*
X185008808Y-93973600D01*
X185151665Y-93902171D01*
X185365951Y-93902171D01*
X185508808Y-93973600D01*
X185580237Y-94116457D01*
X185580237Y-94902171D01*
X185580237Y-94116457D02*
X185651665Y-93973600D01*
X185794522Y-93902171D01*
X186008808Y-93902171D01*
X186151665Y-93973600D01*
X186223094Y-94116457D01*
X186223094Y-94902171D01*
D12*
G04 #@! TO.C,RN5*
X101084380Y-103476600D02*
X101084380Y-106276600D01*
X108874380Y-103476600D02*
X98374380Y-103476600D01*
X108874380Y-106276600D02*
X108874380Y-103476600D01*
X98374380Y-106276600D02*
X108874380Y-106276600D01*
X98374380Y-103476600D02*
X98374380Y-106276600D01*
G04 #@! TO.C,R6*
X101568380Y-95478600D02*
X100798380Y-95478600D01*
X93488380Y-95478600D02*
X94258380Y-95478600D01*
X100798380Y-94108600D02*
X94258380Y-94108600D01*
X100798380Y-96848600D02*
X100798380Y-94108600D01*
X94258380Y-96848600D02*
X100798380Y-96848600D01*
X94258380Y-94108600D02*
X94258380Y-96848600D01*
G04 #@! TO.C,R5*
X235196380Y-111710600D02*
X235196380Y-110940600D01*
X235196380Y-103630600D02*
X235196380Y-104400600D01*
X236566380Y-110940600D02*
X236566380Y-104400600D01*
X233826380Y-110940600D02*
X236566380Y-110940600D01*
X233826380Y-104400600D02*
X233826380Y-110940600D01*
X236566380Y-104400600D02*
X233826380Y-104400600D01*
G04 #@! TO.C,RN4*
X202514380Y-80616600D02*
X202514380Y-83416600D01*
X202514380Y-83416600D02*
X213014380Y-83416600D01*
X213014380Y-83416600D02*
X213014380Y-80616600D01*
X213014380Y-80616600D02*
X202514380Y-80616600D01*
X205224380Y-80616600D02*
X205224380Y-83416600D01*
G04 #@! TO.C,RN3*
X128346380Y-78838600D02*
X128346380Y-81638600D01*
X128346380Y-81638600D02*
X138846380Y-81638600D01*
X138846380Y-81638600D02*
X138846380Y-78838600D01*
X138846380Y-78838600D02*
X128346380Y-78838600D01*
X131056380Y-78838600D02*
X131056380Y-81638600D01*
G04 #@! TO.C,RN1*
X98374380Y-110334600D02*
X98374380Y-113134600D01*
X98374380Y-113134600D02*
X108874380Y-113134600D01*
X108874380Y-113134600D02*
X108874380Y-110334600D01*
X108874380Y-110334600D02*
X98374380Y-110334600D01*
X101084380Y-110334600D02*
X101084380Y-113134600D01*
G04 #@! TO.C,RN2*
X122758380Y-123288600D02*
X122758380Y-126088600D01*
X122758380Y-126088600D02*
X135798380Y-126088600D01*
X135798380Y-126088600D02*
X135798380Y-123288600D01*
X135798380Y-123288600D02*
X122758380Y-123288600D01*
X125468380Y-123288600D02*
X125468380Y-126088600D01*
G04 #@! TO.C,C12*
X135589380Y-73658600D02*
X135574380Y-73658600D01*
X137714380Y-73658600D02*
X137699380Y-73658600D01*
X135589380Y-69118600D02*
X135574380Y-69118600D01*
X137714380Y-69118600D02*
X137699380Y-69118600D01*
X135574380Y-69118600D02*
X135574380Y-73658600D01*
X137714380Y-69118600D02*
X137714380Y-73658600D01*
G04 #@! TO.C,C16*
X153369380Y-93978600D02*
X153354380Y-93978600D01*
X155494380Y-93978600D02*
X155479380Y-93978600D01*
X153369380Y-89438600D02*
X153354380Y-89438600D01*
X155494380Y-89438600D02*
X155479380Y-89438600D01*
X153354380Y-89438600D02*
X153354380Y-93978600D01*
X155494380Y-89438600D02*
X155494380Y-93978600D01*
G04 #@! TO.C,R4*
X241800380Y-95248600D02*
X241800380Y-96018600D01*
X241800380Y-103328600D02*
X241800380Y-102558600D01*
X240430380Y-96018600D02*
X240430380Y-102558600D01*
X243170380Y-96018600D02*
X240430380Y-96018600D01*
X243170380Y-102558600D02*
X243170380Y-96018600D01*
X240430380Y-102558600D02*
X243170380Y-102558600D01*
G04 #@! TO.C,R3*
X238752380Y-95248600D02*
X238752380Y-96018600D01*
X238752380Y-103328600D02*
X238752380Y-102558600D01*
X237382380Y-96018600D02*
X237382380Y-102558600D01*
X240122380Y-96018600D02*
X237382380Y-96018600D01*
X240122380Y-102558600D02*
X240122380Y-96018600D01*
X237382380Y-102558600D02*
X240122380Y-102558600D01*
G04 #@! TO.C,C18*
X127969380Y-91438600D02*
X127954380Y-91438600D01*
X130094380Y-91438600D02*
X130079380Y-91438600D01*
X127969380Y-86898600D02*
X127954380Y-86898600D01*
X130094380Y-86898600D02*
X130079380Y-86898600D01*
X127954380Y-86898600D02*
X127954380Y-91438600D01*
X130094380Y-86898600D02*
X130094380Y-91438600D01*
G04 #@! TO.C,SW1*
X238748380Y-70792600D02*
X238748380Y-69292600D01*
X237498380Y-66792600D02*
X232998380Y-66792600D01*
X231748380Y-69292600D02*
X231748380Y-70792600D01*
X232998380Y-73292600D02*
X237498380Y-73292600D01*
G04 #@! TO.C,C25*
X235321380Y-96722799D02*
X234921380Y-96722799D01*
X235121380Y-96522799D02*
X235121380Y-96922799D01*
X234296380Y-100873600D02*
X233556380Y-100873600D01*
X234463380Y-100833600D02*
X233389380Y-100833600D01*
X234590380Y-100793600D02*
X233262380Y-100793600D01*
X234694380Y-100753600D02*
X233158380Y-100753600D01*
X234785380Y-100713600D02*
X233067380Y-100713600D01*
X234866380Y-100673600D02*
X232986380Y-100673600D01*
X234939380Y-100633600D02*
X232913380Y-100633600D01*
X235006380Y-100593600D02*
X232846380Y-100593600D01*
X235068380Y-100553600D02*
X232784380Y-100553600D01*
X235126380Y-100513600D02*
X232726380Y-100513600D01*
X235180380Y-100473600D02*
X232672380Y-100473600D01*
X235230380Y-100433600D02*
X232622380Y-100433600D01*
X235277380Y-100393600D02*
X232575380Y-100393600D01*
X233086380Y-100353600D02*
X232530380Y-100353600D01*
X235322380Y-100353600D02*
X234766380Y-100353600D01*
X233086380Y-100313600D02*
X232488380Y-100313600D01*
X235364380Y-100313600D02*
X234766380Y-100313600D01*
X233086380Y-100273600D02*
X232448380Y-100273600D01*
X235404380Y-100273600D02*
X234766380Y-100273600D01*
X233086380Y-100233600D02*
X232410380Y-100233600D01*
X235442380Y-100233600D02*
X234766380Y-100233600D01*
X233086380Y-100193600D02*
X232374380Y-100193600D01*
X235478380Y-100193600D02*
X234766380Y-100193600D01*
X233086380Y-100153600D02*
X232339380Y-100153600D01*
X235513380Y-100153600D02*
X234766380Y-100153600D01*
X233086380Y-100113600D02*
X232307380Y-100113600D01*
X235545380Y-100113600D02*
X234766380Y-100113600D01*
X233086380Y-100073600D02*
X232276380Y-100073600D01*
X235576380Y-100073600D02*
X234766380Y-100073600D01*
X233086380Y-100033600D02*
X232246380Y-100033600D01*
X235606380Y-100033600D02*
X234766380Y-100033600D01*
X233086380Y-99993600D02*
X232218380Y-99993600D01*
X235634380Y-99993600D02*
X234766380Y-99993600D01*
X233086380Y-99953600D02*
X232191380Y-99953600D01*
X235661380Y-99953600D02*
X234766380Y-99953600D01*
X233086380Y-99913600D02*
X232166380Y-99913600D01*
X235686380Y-99913600D02*
X234766380Y-99913600D01*
X233086380Y-99873600D02*
X232141380Y-99873600D01*
X235711380Y-99873600D02*
X234766380Y-99873600D01*
X233086380Y-99833600D02*
X232118380Y-99833600D01*
X235734380Y-99833600D02*
X234766380Y-99833600D01*
X233086380Y-99793600D02*
X232096380Y-99793600D01*
X235756380Y-99793600D02*
X234766380Y-99793600D01*
X233086380Y-99753600D02*
X232075380Y-99753600D01*
X235777380Y-99753600D02*
X234766380Y-99753600D01*
X233086380Y-99713600D02*
X232056380Y-99713600D01*
X235796380Y-99713600D02*
X234766380Y-99713600D01*
X233086380Y-99673600D02*
X232037380Y-99673600D01*
X235815380Y-99673600D02*
X234766380Y-99673600D01*
X233086380Y-99633600D02*
X232019380Y-99633600D01*
X235833380Y-99633600D02*
X234766380Y-99633600D01*
X233086380Y-99593600D02*
X232002380Y-99593600D01*
X235850380Y-99593600D02*
X234766380Y-99593600D01*
X233086380Y-99553600D02*
X231986380Y-99553600D01*
X235866380Y-99553600D02*
X234766380Y-99553600D01*
X233086380Y-99513600D02*
X231972380Y-99513600D01*
X235880380Y-99513600D02*
X234766380Y-99513600D01*
X233086380Y-99472600D02*
X231958380Y-99472600D01*
X235894380Y-99472600D02*
X234766380Y-99472600D01*
X233086380Y-99432600D02*
X231944380Y-99432600D01*
X235908380Y-99432600D02*
X234766380Y-99432600D01*
X233086380Y-99392600D02*
X231932380Y-99392600D01*
X235920380Y-99392600D02*
X234766380Y-99392600D01*
X233086380Y-99352600D02*
X231921380Y-99352600D01*
X235931380Y-99352600D02*
X234766380Y-99352600D01*
X233086380Y-99312600D02*
X231910380Y-99312600D01*
X235942380Y-99312600D02*
X234766380Y-99312600D01*
X233086380Y-99272600D02*
X231901380Y-99272600D01*
X235951380Y-99272600D02*
X234766380Y-99272600D01*
X233086380Y-99232600D02*
X231892380Y-99232600D01*
X235960380Y-99232600D02*
X234766380Y-99232600D01*
X233086380Y-99192600D02*
X231884380Y-99192600D01*
X235968380Y-99192600D02*
X234766380Y-99192600D01*
X233086380Y-99152600D02*
X231876380Y-99152600D01*
X235976380Y-99152600D02*
X234766380Y-99152600D01*
X233086380Y-99112600D02*
X231870380Y-99112600D01*
X235982380Y-99112600D02*
X234766380Y-99112600D01*
X233086380Y-99072600D02*
X231864380Y-99072600D01*
X235988380Y-99072600D02*
X234766380Y-99072600D01*
X233086380Y-99032600D02*
X231859380Y-99032600D01*
X235993380Y-99032600D02*
X234766380Y-99032600D01*
X233086380Y-98992600D02*
X231855380Y-98992600D01*
X235997380Y-98992600D02*
X234766380Y-98992600D01*
X233086380Y-98952600D02*
X231852380Y-98952600D01*
X236000380Y-98952600D02*
X234766380Y-98952600D01*
X233086380Y-98912600D02*
X231849380Y-98912600D01*
X236003380Y-98912600D02*
X234766380Y-98912600D01*
X236005380Y-98872600D02*
X234766380Y-98872600D01*
X233086380Y-98872600D02*
X231847380Y-98872600D01*
X236006380Y-98832600D02*
X234766380Y-98832600D01*
X233086380Y-98832600D02*
X231846380Y-98832600D01*
X236006380Y-98792600D02*
X234766380Y-98792600D01*
X233086380Y-98792600D02*
X231846380Y-98792600D01*
X236046380Y-98792600D02*
G75*
G03*
X236046380Y-98792600I-2120000J0D01*
G01*
G04 #@! TO.C,C7*
X112729380Y-73658600D02*
X112714380Y-73658600D01*
X114854380Y-73658600D02*
X114839380Y-73658600D01*
X112729380Y-69118600D02*
X112714380Y-69118600D01*
X114854380Y-69118600D02*
X114839380Y-69118600D01*
X112714380Y-69118600D02*
X112714380Y-73658600D01*
X114854380Y-69118600D02*
X114854380Y-73658600D01*
G04 #@! TO.C,Y1*
X236225380Y-91653600D02*
X242475380Y-91653600D01*
X236225380Y-86603600D02*
X242475380Y-86603600D01*
X242475380Y-91653600D02*
G75*
G03*
X242475380Y-86603600I0J2525000D01*
G01*
X236225380Y-91653600D02*
G75*
G02*
X236225380Y-86603600I0J2525000D01*
G01*
G04 #@! TO.C,R2*
X195318380Y-75642600D02*
X195318380Y-74872600D01*
X195318380Y-67562600D02*
X195318380Y-68332600D01*
X196688380Y-74872600D02*
X196688380Y-68332600D01*
X193948380Y-74872600D02*
X196688380Y-74872600D01*
X193948380Y-68332600D02*
X193948380Y-74872600D01*
X196688380Y-68332600D02*
X193948380Y-68332600D01*
G04 #@! TO.C,C14*
X188929380Y-114298600D02*
X188914380Y-114298600D01*
X191054380Y-114298600D02*
X191039380Y-114298600D01*
X188929380Y-109758600D02*
X188914380Y-109758600D01*
X191054380Y-109758600D02*
X191039380Y-109758600D01*
X188914380Y-109758600D02*
X188914380Y-114298600D01*
X191054380Y-109758600D02*
X191054380Y-114298600D01*
G04 #@! TO.C,C13*
X140669380Y-114298600D02*
X140654380Y-114298600D01*
X142794380Y-114298600D02*
X142779380Y-114298600D01*
X140669380Y-109758600D02*
X140654380Y-109758600D01*
X142794380Y-109758600D02*
X142779380Y-109758600D01*
X140654380Y-109758600D02*
X140654380Y-114298600D01*
X142794380Y-109758600D02*
X142794380Y-114298600D01*
G04 #@! TO.C,C11*
X117809380Y-124458600D02*
X117794380Y-124458600D01*
X119934380Y-124458600D02*
X119919380Y-124458600D01*
X117809380Y-119918600D02*
X117794380Y-119918600D01*
X119934380Y-119918600D02*
X119919380Y-119918600D01*
X117794380Y-119918600D02*
X117794380Y-124458600D01*
X119934380Y-119918600D02*
X119934380Y-124458600D01*
G04 #@! TO.C,C9*
X229569380Y-93978600D02*
X229554380Y-93978600D01*
X231694380Y-93978600D02*
X231679380Y-93978600D01*
X229569380Y-89438600D02*
X229554380Y-89438600D01*
X231694380Y-89438600D02*
X231679380Y-89438600D01*
X229554380Y-89438600D02*
X229554380Y-93978600D01*
X231694380Y-89438600D02*
X231694380Y-93978600D01*
G04 #@! TO.C,C8*
X140669380Y-104138600D02*
X140654380Y-104138600D01*
X142794380Y-104138600D02*
X142779380Y-104138600D01*
X140669380Y-99598600D02*
X140654380Y-99598600D01*
X142794380Y-99598600D02*
X142779380Y-99598600D01*
X140654380Y-99598600D02*
X140654380Y-104138600D01*
X142794380Y-99598600D02*
X142794380Y-104138600D01*
G04 #@! TO.C,C6*
X227029380Y-104138600D02*
X227014380Y-104138600D01*
X229154380Y-104138600D02*
X229139380Y-104138600D01*
X227029380Y-99598600D02*
X227014380Y-99598600D01*
X229154380Y-99598600D02*
X229139380Y-99598600D01*
X227014380Y-99598600D02*
X227014380Y-104138600D01*
X229154380Y-99598600D02*
X229154380Y-104138600D01*
G04 #@! TO.C,C5*
X191469380Y-81278600D02*
X191454380Y-81278600D01*
X193594380Y-81278600D02*
X193579380Y-81278600D01*
X191469380Y-76738600D02*
X191454380Y-76738600D01*
X193594380Y-76738600D02*
X193579380Y-76738600D01*
X191454380Y-76738600D02*
X191454380Y-81278600D01*
X193594380Y-76738600D02*
X193594380Y-81278600D01*
G04 #@! TO.C,C4*
X227029380Y-114298600D02*
X227014380Y-114298600D01*
X229154380Y-114298600D02*
X229139380Y-114298600D01*
X227029380Y-109758600D02*
X227014380Y-109758600D01*
X229154380Y-109758600D02*
X229139380Y-109758600D01*
X227014380Y-109758600D02*
X227014380Y-114298600D01*
X229154380Y-109758600D02*
X229154380Y-114298600D01*
G04 #@! TO.C,C3*
X209249380Y-124458600D02*
X209234380Y-124458600D01*
X211374380Y-124458600D02*
X211359380Y-124458600D01*
X209249380Y-119918600D02*
X209234380Y-119918600D01*
X211374380Y-119918600D02*
X211359380Y-119918600D01*
X209234380Y-119918600D02*
X209234380Y-124458600D01*
X211374380Y-119918600D02*
X211374380Y-124458600D01*
G04 #@! TO.C,C2*
X168609380Y-124458600D02*
X168594380Y-124458600D01*
X170734380Y-124458600D02*
X170719380Y-124458600D01*
X168609380Y-119918600D02*
X168594380Y-119918600D01*
X170734380Y-119918600D02*
X170719380Y-119918600D01*
X168594380Y-119918600D02*
X168594380Y-124458600D01*
X170734380Y-119918600D02*
X170734380Y-124458600D01*
G04 #@! TO.C,C1*
X244809380Y-83818600D02*
X244794380Y-83818600D01*
X246934380Y-83818600D02*
X246919380Y-83818600D01*
X244809380Y-79278600D02*
X244794380Y-79278600D01*
X246934380Y-79278600D02*
X246919380Y-79278600D01*
X244794380Y-79278600D02*
X244794380Y-83818600D01*
X246934380Y-79278600D02*
X246934380Y-83818600D01*
G04 #@! TO.C,U2*
X167946380Y-119878600D02*
X167946380Y-118228600D01*
X167946380Y-118228600D02*
X142426380Y-118228600D01*
X142426380Y-118228600D02*
X142426380Y-123528600D01*
X142426380Y-123528600D02*
X167946380Y-123528600D01*
X167946380Y-123528600D02*
X167946380Y-121878600D01*
X167946380Y-121878600D02*
G75*
G02*
X167946380Y-119878600I0J1000000D01*
G01*
G04 #@! TO.C,U18*
X127306380Y-83048600D02*
X127306380Y-77588600D01*
X127306380Y-77588600D02*
X91626380Y-77588600D01*
X91626380Y-77588600D02*
X91626380Y-90508600D01*
X91626380Y-90508600D02*
X127306380Y-90508600D01*
X127306380Y-90508600D02*
X127306380Y-85048600D01*
X127306380Y-85048600D02*
G75*
G02*
X127306380Y-83048600I0J1000000D01*
G01*
G04 #@! TO.C,U7*
X112066380Y-69078600D02*
X112066380Y-67428600D01*
X112066380Y-67428600D02*
X91626380Y-67428600D01*
X91626380Y-67428600D02*
X91626380Y-72728600D01*
X91626380Y-72728600D02*
X112066380Y-72728600D01*
X112066380Y-72728600D02*
X112066380Y-71078600D01*
X112066380Y-71078600D02*
G75*
G02*
X112066380Y-69078600I0J1000000D01*
G01*
G04 #@! TO.C,U6*
X226366380Y-99558600D02*
X226366380Y-97908600D01*
X226366380Y-97908600D02*
X200846380Y-97908600D01*
X200846380Y-97908600D02*
X200846380Y-103208600D01*
X200846380Y-103208600D02*
X226366380Y-103208600D01*
X226366380Y-103208600D02*
X226366380Y-101558600D01*
X226366380Y-101558600D02*
G75*
G02*
X226366380Y-99558600I0J1000000D01*
G01*
G04 #@! TO.C,U17*
X134926380Y-69078600D02*
X134926380Y-67428600D01*
X134926380Y-67428600D02*
X117026380Y-67428600D01*
X117026380Y-67428600D02*
X117026380Y-72728600D01*
X117026380Y-72728600D02*
X134926380Y-72728600D01*
X134926380Y-72728600D02*
X134926380Y-71078600D01*
X134926380Y-71078600D02*
G75*
G02*
X134926380Y-69078600I0J1000000D01*
G01*
G04 #@! TO.C,U16*
X152706380Y-89398600D02*
X152706380Y-87748600D01*
X152706380Y-87748600D02*
X132266380Y-87748600D01*
X132266380Y-87748600D02*
X132266380Y-93048600D01*
X132266380Y-93048600D02*
X152706380Y-93048600D01*
X152706380Y-93048600D02*
X152706380Y-91398600D01*
X152706380Y-91398600D02*
G75*
G02*
X152706380Y-89398600I0J1000000D01*
G01*
G04 #@! TO.C,U14*
X188266380Y-109718600D02*
X188266380Y-108068600D01*
X188266380Y-108068600D02*
X162746380Y-108068600D01*
X162746380Y-108068600D02*
X162746380Y-113368600D01*
X162746380Y-113368600D02*
X188266380Y-113368600D01*
X188266380Y-113368600D02*
X188266380Y-111718600D01*
X188266380Y-111718600D02*
G75*
G02*
X188266380Y-109718600I0J1000000D01*
G01*
G04 #@! TO.C,U13*
X140006380Y-109718600D02*
X140006380Y-108068600D01*
X140006380Y-108068600D02*
X122106380Y-108068600D01*
X122106380Y-108068600D02*
X122106380Y-113368600D01*
X122106380Y-113368600D02*
X140006380Y-113368600D01*
X140006380Y-113368600D02*
X140006380Y-111718600D01*
X140006380Y-111718600D02*
G75*
G02*
X140006380Y-109718600I0J1000000D01*
G01*
G04 #@! TO.C,U11*
X117146380Y-119878600D02*
X117146380Y-118228600D01*
X117146380Y-118228600D02*
X91626380Y-118228600D01*
X91626380Y-118228600D02*
X91626380Y-123528600D01*
X91626380Y-123528600D02*
X117146380Y-123528600D01*
X117146380Y-123528600D02*
X117146380Y-121878600D01*
X117146380Y-121878600D02*
G75*
G02*
X117146380Y-119878600I0J1000000D01*
G01*
G04 #@! TO.C,U9*
X228906380Y-89398600D02*
X228906380Y-87748600D01*
X228906380Y-87748600D02*
X203386380Y-87748600D01*
X203386380Y-87748600D02*
X203386380Y-93048600D01*
X203386380Y-93048600D02*
X228906380Y-93048600D01*
X228906380Y-93048600D02*
X228906380Y-91398600D01*
X228906380Y-91398600D02*
G75*
G02*
X228906380Y-89398600I0J1000000D01*
G01*
G04 #@! TO.C,U8*
X140006380Y-99558600D02*
X140006380Y-97908600D01*
X140006380Y-97908600D02*
X119566380Y-97908600D01*
X119566380Y-97908600D02*
X119566380Y-103208600D01*
X119566380Y-103208600D02*
X140006380Y-103208600D01*
X140006380Y-103208600D02*
X140006380Y-101558600D01*
X140006380Y-101558600D02*
G75*
G02*
X140006380Y-99558600I0J1000000D01*
G01*
G04 #@! TO.C,U5*
X190806380Y-72888600D02*
X190806380Y-67428600D01*
X190806380Y-67428600D02*
X139886380Y-67428600D01*
X139886380Y-67428600D02*
X139886380Y-80348600D01*
X139886380Y-80348600D02*
X190806380Y-80348600D01*
X190806380Y-80348600D02*
X190806380Y-74888600D01*
X190806380Y-74888600D02*
G75*
G02*
X190806380Y-72888600I0J1000000D01*
G01*
G04 #@! TO.C,U4*
X226366380Y-109718600D02*
X226366380Y-108068600D01*
X226366380Y-108068600D02*
X200846380Y-108068600D01*
X200846380Y-108068600D02*
X200846380Y-113368600D01*
X200846380Y-113368600D02*
X226366380Y-113368600D01*
X226366380Y-113368600D02*
X226366380Y-111718600D01*
X226366380Y-111718600D02*
G75*
G02*
X226366380Y-109718600I0J1000000D01*
G01*
G04 #@! TO.C,U3*
X208586380Y-119878600D02*
X208586380Y-118228600D01*
X208586380Y-118228600D02*
X183066380Y-118228600D01*
X183066380Y-118228600D02*
X183066380Y-123528600D01*
X183066380Y-123528600D02*
X208586380Y-123528600D01*
X208586380Y-123528600D02*
X208586380Y-121878600D01*
X208586380Y-121878600D02*
G75*
G02*
X208586380Y-119878600I0J1000000D01*
G01*
G04 #@! TO.C,U1*
X244146380Y-79238600D02*
X244146380Y-77588600D01*
X244146380Y-77588600D02*
X221166380Y-77588600D01*
X221166380Y-77588600D02*
X221166380Y-82888600D01*
X221166380Y-82888600D02*
X244146380Y-82888600D01*
X244146380Y-82888600D02*
X244146380Y-81238600D01*
X244146380Y-81238600D02*
G75*
G02*
X244146380Y-79238600I0J1000000D01*
G01*
G04 #@! TO.C,RN5*
D13*
X101965808Y-106728980D02*
X101489618Y-106728980D01*
X101441999Y-107205171D01*
X101489618Y-107157552D01*
X101584856Y-107109933D01*
X101822951Y-107109933D01*
X101918189Y-107157552D01*
X101965808Y-107205171D01*
X102013427Y-107300409D01*
X102013427Y-107538504D01*
X101965808Y-107633742D01*
X101918189Y-107681361D01*
X101822951Y-107728980D01*
X101584856Y-107728980D01*
X101489618Y-107681361D01*
X101441999Y-107633742D01*
X102441999Y-107633742D02*
X102489618Y-107681361D01*
X102441999Y-107728980D01*
X102394380Y-107681361D01*
X102441999Y-107633742D01*
X102441999Y-107728980D01*
X103441999Y-107728980D02*
X102870570Y-107728980D01*
X103156284Y-107728980D02*
X103156284Y-106728980D01*
X103061046Y-106871838D01*
X102965808Y-106967076D01*
X102870570Y-107014695D01*
X103870570Y-107728980D02*
X103870570Y-106728980D01*
X104441999Y-107728980D02*
X104013427Y-107157552D01*
X104441999Y-106728980D02*
X103870570Y-107300409D01*
X105775332Y-107728980D02*
X105680094Y-107681361D01*
X105632475Y-107633742D01*
X105584856Y-107538504D01*
X105584856Y-107252790D01*
X105632475Y-107157552D01*
X105680094Y-107109933D01*
X105775332Y-107062314D01*
X105918189Y-107062314D01*
X106013427Y-107109933D01*
X106061046Y-107157552D01*
X106108665Y-107252790D01*
X106108665Y-107538504D01*
X106061046Y-107633742D01*
X106013427Y-107681361D01*
X105918189Y-107728980D01*
X105775332Y-107728980D01*
X106537237Y-107728980D02*
X106537237Y-106728980D01*
X106965808Y-107728980D02*
X106965808Y-107205171D01*
X106918189Y-107109933D01*
X106822951Y-107062314D01*
X106680094Y-107062314D01*
X106584856Y-107109933D01*
X106537237Y-107157552D01*
X107441999Y-107728980D02*
X107441999Y-107062314D01*
X107441999Y-107157552D02*
X107489618Y-107109933D01*
X107584856Y-107062314D01*
X107727713Y-107062314D01*
X107822951Y-107109933D01*
X107870570Y-107205171D01*
X107870570Y-107728980D01*
X107870570Y-107205171D02*
X107918189Y-107109933D01*
X108013427Y-107062314D01*
X108156284Y-107062314D01*
X108251522Y-107109933D01*
X108299141Y-107205171D01*
X108299141Y-107728980D01*
G04 #@! TO.C,R6*
X94599808Y-94930980D02*
X94123618Y-94930980D01*
X94075999Y-95407171D01*
X94123618Y-95359552D01*
X94218856Y-95311933D01*
X94456951Y-95311933D01*
X94552189Y-95359552D01*
X94599808Y-95407171D01*
X94647427Y-95502409D01*
X94647427Y-95740504D01*
X94599808Y-95835742D01*
X94552189Y-95883361D01*
X94456951Y-95930980D01*
X94218856Y-95930980D01*
X94123618Y-95883361D01*
X94075999Y-95835742D01*
X95075999Y-95835742D02*
X95123618Y-95883361D01*
X95075999Y-95930980D01*
X95028380Y-95883361D01*
X95075999Y-95835742D01*
X95075999Y-95930980D01*
X96075999Y-95930980D02*
X95504570Y-95930980D01*
X95790284Y-95930980D02*
X95790284Y-94930980D01*
X95695046Y-95073838D01*
X95599808Y-95169076D01*
X95504570Y-95216695D01*
X96504570Y-95930980D02*
X96504570Y-94930980D01*
X97075999Y-95930980D02*
X96647427Y-95359552D01*
X97075999Y-94930980D02*
X96504570Y-95502409D01*
X98409332Y-95930980D02*
X98314094Y-95883361D01*
X98266475Y-95835742D01*
X98218856Y-95740504D01*
X98218856Y-95454790D01*
X98266475Y-95359552D01*
X98314094Y-95311933D01*
X98409332Y-95264314D01*
X98552189Y-95264314D01*
X98647427Y-95311933D01*
X98695046Y-95359552D01*
X98742665Y-95454790D01*
X98742665Y-95740504D01*
X98695046Y-95835742D01*
X98647427Y-95883361D01*
X98552189Y-95930980D01*
X98409332Y-95930980D01*
X99171237Y-95930980D02*
X99171237Y-94930980D01*
X99599808Y-95930980D02*
X99599808Y-95407171D01*
X99552189Y-95311933D01*
X99456951Y-95264314D01*
X99314094Y-95264314D01*
X99218856Y-95311933D01*
X99171237Y-95359552D01*
X100075999Y-95930980D02*
X100075999Y-95264314D01*
X100075999Y-95359552D02*
X100123618Y-95311933D01*
X100218856Y-95264314D01*
X100361713Y-95264314D01*
X100456951Y-95311933D01*
X100504570Y-95407171D01*
X100504570Y-95930980D01*
X100504570Y-95407171D02*
X100552189Y-95311933D01*
X100647427Y-95264314D01*
X100790284Y-95264314D01*
X100885522Y-95311933D01*
X100933141Y-95407171D01*
X100933141Y-95930980D01*
G04 #@! TO.C,R5*
X234743999Y-105027742D02*
X234743999Y-104456314D01*
X234743999Y-104742028D02*
X235743999Y-104742028D01*
X235601141Y-104646790D01*
X235505903Y-104551552D01*
X235458284Y-104456314D01*
X235743999Y-105646790D02*
X235743999Y-105742028D01*
X235696380Y-105837266D01*
X235648760Y-105884885D01*
X235553522Y-105932504D01*
X235363046Y-105980123D01*
X235124951Y-105980123D01*
X234934475Y-105932504D01*
X234839237Y-105884885D01*
X234791618Y-105837266D01*
X234743999Y-105742028D01*
X234743999Y-105646790D01*
X234791618Y-105551552D01*
X234839237Y-105503933D01*
X234934475Y-105456314D01*
X235124951Y-105408695D01*
X235363046Y-105408695D01*
X235553522Y-105456314D01*
X235648760Y-105503933D01*
X235696380Y-105551552D01*
X235743999Y-105646790D01*
X234743999Y-106408695D02*
X235743999Y-106408695D01*
X234743999Y-106980123D02*
X235315427Y-106551552D01*
X235743999Y-106980123D02*
X235172570Y-106408695D01*
X234743999Y-108313457D02*
X234791618Y-108218219D01*
X234839237Y-108170600D01*
X234934475Y-108122980D01*
X235220189Y-108122980D01*
X235315427Y-108170600D01*
X235363046Y-108218219D01*
X235410665Y-108313457D01*
X235410665Y-108456314D01*
X235363046Y-108551552D01*
X235315427Y-108599171D01*
X235220189Y-108646790D01*
X234934475Y-108646790D01*
X234839237Y-108599171D01*
X234791618Y-108551552D01*
X234743999Y-108456314D01*
X234743999Y-108313457D01*
X234743999Y-109075361D02*
X235743999Y-109075361D01*
X234743999Y-109503933D02*
X235267808Y-109503933D01*
X235363046Y-109456314D01*
X235410665Y-109361076D01*
X235410665Y-109218219D01*
X235363046Y-109122980D01*
X235315427Y-109075361D01*
X234743999Y-109980123D02*
X235410665Y-109980123D01*
X235315427Y-109980123D02*
X235363046Y-110027742D01*
X235410665Y-110122980D01*
X235410665Y-110265838D01*
X235363046Y-110361076D01*
X235267808Y-110408695D01*
X234743999Y-110408695D01*
X235267808Y-110408695D02*
X235363046Y-110456314D01*
X235410665Y-110551552D01*
X235410665Y-110694409D01*
X235363046Y-110789647D01*
X235267808Y-110837266D01*
X234743999Y-110837266D01*
G04 #@! TO.C,RN4*
X206105808Y-83868980D02*
X205629618Y-83868980D01*
X205581999Y-84345171D01*
X205629618Y-84297552D01*
X205724856Y-84249933D01*
X205962951Y-84249933D01*
X206058189Y-84297552D01*
X206105808Y-84345171D01*
X206153427Y-84440409D01*
X206153427Y-84678504D01*
X206105808Y-84773742D01*
X206058189Y-84821361D01*
X205962951Y-84868980D01*
X205724856Y-84868980D01*
X205629618Y-84821361D01*
X205581999Y-84773742D01*
X206581999Y-84773742D02*
X206629618Y-84821361D01*
X206581999Y-84868980D01*
X206534380Y-84821361D01*
X206581999Y-84773742D01*
X206581999Y-84868980D01*
X207581999Y-84868980D02*
X207010570Y-84868980D01*
X207296284Y-84868980D02*
X207296284Y-83868980D01*
X207201046Y-84011838D01*
X207105808Y-84107076D01*
X207010570Y-84154695D01*
X208010570Y-84868980D02*
X208010570Y-83868980D01*
X208581999Y-84868980D02*
X208153427Y-84297552D01*
X208581999Y-83868980D02*
X208010570Y-84440409D01*
X209915332Y-84868980D02*
X209820094Y-84821361D01*
X209772475Y-84773742D01*
X209724856Y-84678504D01*
X209724856Y-84392790D01*
X209772475Y-84297552D01*
X209820094Y-84249933D01*
X209915332Y-84202314D01*
X210058189Y-84202314D01*
X210153427Y-84249933D01*
X210201046Y-84297552D01*
X210248665Y-84392790D01*
X210248665Y-84678504D01*
X210201046Y-84773742D01*
X210153427Y-84821361D01*
X210058189Y-84868980D01*
X209915332Y-84868980D01*
X210677237Y-84868980D02*
X210677237Y-83868980D01*
X211105808Y-84868980D02*
X211105808Y-84345171D01*
X211058189Y-84249933D01*
X210962951Y-84202314D01*
X210820094Y-84202314D01*
X210724856Y-84249933D01*
X210677237Y-84297552D01*
X211581999Y-84868980D02*
X211581999Y-84202314D01*
X211581999Y-84297552D02*
X211629618Y-84249933D01*
X211724856Y-84202314D01*
X211867713Y-84202314D01*
X211962951Y-84249933D01*
X212010570Y-84345171D01*
X212010570Y-84868980D01*
X212010570Y-84345171D02*
X212058189Y-84249933D01*
X212153427Y-84202314D01*
X212296284Y-84202314D01*
X212391522Y-84249933D01*
X212439141Y-84345171D01*
X212439141Y-84868980D01*
G04 #@! TO.C,RN3*
X131937808Y-82090980D02*
X131461618Y-82090980D01*
X131413999Y-82567171D01*
X131461618Y-82519552D01*
X131556856Y-82471933D01*
X131794951Y-82471933D01*
X131890189Y-82519552D01*
X131937808Y-82567171D01*
X131985427Y-82662409D01*
X131985427Y-82900504D01*
X131937808Y-82995742D01*
X131890189Y-83043361D01*
X131794951Y-83090980D01*
X131556856Y-83090980D01*
X131461618Y-83043361D01*
X131413999Y-82995742D01*
X132413999Y-82995742D02*
X132461618Y-83043361D01*
X132413999Y-83090980D01*
X132366380Y-83043361D01*
X132413999Y-82995742D01*
X132413999Y-83090980D01*
X133413999Y-83090980D02*
X132842570Y-83090980D01*
X133128284Y-83090980D02*
X133128284Y-82090980D01*
X133033046Y-82233838D01*
X132937808Y-82329076D01*
X132842570Y-82376695D01*
X133842570Y-83090980D02*
X133842570Y-82090980D01*
X134413999Y-83090980D02*
X133985427Y-82519552D01*
X134413999Y-82090980D02*
X133842570Y-82662409D01*
X135747332Y-83090980D02*
X135652094Y-83043361D01*
X135604475Y-82995742D01*
X135556856Y-82900504D01*
X135556856Y-82614790D01*
X135604475Y-82519552D01*
X135652094Y-82471933D01*
X135747332Y-82424314D01*
X135890189Y-82424314D01*
X135985427Y-82471933D01*
X136033046Y-82519552D01*
X136080665Y-82614790D01*
X136080665Y-82900504D01*
X136033046Y-82995742D01*
X135985427Y-83043361D01*
X135890189Y-83090980D01*
X135747332Y-83090980D01*
X136509237Y-83090980D02*
X136509237Y-82090980D01*
X136937808Y-83090980D02*
X136937808Y-82567171D01*
X136890189Y-82471933D01*
X136794951Y-82424314D01*
X136652094Y-82424314D01*
X136556856Y-82471933D01*
X136509237Y-82519552D01*
X137413999Y-83090980D02*
X137413999Y-82424314D01*
X137413999Y-82519552D02*
X137461618Y-82471933D01*
X137556856Y-82424314D01*
X137699713Y-82424314D01*
X137794951Y-82471933D01*
X137842570Y-82567171D01*
X137842570Y-83090980D01*
X137842570Y-82567171D02*
X137890189Y-82471933D01*
X137985427Y-82424314D01*
X138128284Y-82424314D01*
X138223522Y-82471933D01*
X138271141Y-82567171D01*
X138271141Y-83090980D01*
G04 #@! TO.C,RN1*
X101965808Y-113586980D02*
X101489618Y-113586980D01*
X101441999Y-114063171D01*
X101489618Y-114015552D01*
X101584856Y-113967933D01*
X101822951Y-113967933D01*
X101918189Y-114015552D01*
X101965808Y-114063171D01*
X102013427Y-114158409D01*
X102013427Y-114396504D01*
X101965808Y-114491742D01*
X101918189Y-114539361D01*
X101822951Y-114586980D01*
X101584856Y-114586980D01*
X101489618Y-114539361D01*
X101441999Y-114491742D01*
X102441999Y-114491742D02*
X102489618Y-114539361D01*
X102441999Y-114586980D01*
X102394380Y-114539361D01*
X102441999Y-114491742D01*
X102441999Y-114586980D01*
X103441999Y-114586980D02*
X102870570Y-114586980D01*
X103156284Y-114586980D02*
X103156284Y-113586980D01*
X103061046Y-113729838D01*
X102965808Y-113825076D01*
X102870570Y-113872695D01*
X103870570Y-114586980D02*
X103870570Y-113586980D01*
X104441999Y-114586980D02*
X104013427Y-114015552D01*
X104441999Y-113586980D02*
X103870570Y-114158409D01*
X105775332Y-114586980D02*
X105680094Y-114539361D01*
X105632475Y-114491742D01*
X105584856Y-114396504D01*
X105584856Y-114110790D01*
X105632475Y-114015552D01*
X105680094Y-113967933D01*
X105775332Y-113920314D01*
X105918189Y-113920314D01*
X106013427Y-113967933D01*
X106061046Y-114015552D01*
X106108665Y-114110790D01*
X106108665Y-114396504D01*
X106061046Y-114491742D01*
X106013427Y-114539361D01*
X105918189Y-114586980D01*
X105775332Y-114586980D01*
X106537237Y-114586980D02*
X106537237Y-113586980D01*
X106965808Y-114586980D02*
X106965808Y-114063171D01*
X106918189Y-113967933D01*
X106822951Y-113920314D01*
X106680094Y-113920314D01*
X106584856Y-113967933D01*
X106537237Y-114015552D01*
X107441999Y-114586980D02*
X107441999Y-113920314D01*
X107441999Y-114015552D02*
X107489618Y-113967933D01*
X107584856Y-113920314D01*
X107727713Y-113920314D01*
X107822951Y-113967933D01*
X107870570Y-114063171D01*
X107870570Y-114586980D01*
X107870570Y-114063171D02*
X107918189Y-113967933D01*
X108013427Y-113920314D01*
X108156284Y-113920314D01*
X108251522Y-113967933D01*
X108299141Y-114063171D01*
X108299141Y-114586980D01*
G04 #@! TO.C,RN2*
X127619808Y-126540980D02*
X127143618Y-126540980D01*
X127095999Y-127017171D01*
X127143618Y-126969552D01*
X127238856Y-126921933D01*
X127476951Y-126921933D01*
X127572189Y-126969552D01*
X127619808Y-127017171D01*
X127667427Y-127112409D01*
X127667427Y-127350504D01*
X127619808Y-127445742D01*
X127572189Y-127493361D01*
X127476951Y-127540980D01*
X127238856Y-127540980D01*
X127143618Y-127493361D01*
X127095999Y-127445742D01*
X128095999Y-127445742D02*
X128143618Y-127493361D01*
X128095999Y-127540980D01*
X128048380Y-127493361D01*
X128095999Y-127445742D01*
X128095999Y-127540980D01*
X129095999Y-127540980D02*
X128524570Y-127540980D01*
X128810284Y-127540980D02*
X128810284Y-126540980D01*
X128715046Y-126683838D01*
X128619808Y-126779076D01*
X128524570Y-126826695D01*
X129524570Y-127540980D02*
X129524570Y-126540980D01*
X130095999Y-127540980D02*
X129667427Y-126969552D01*
X130095999Y-126540980D02*
X129524570Y-127112409D01*
X131429332Y-127540980D02*
X131334094Y-127493361D01*
X131286475Y-127445742D01*
X131238856Y-127350504D01*
X131238856Y-127064790D01*
X131286475Y-126969552D01*
X131334094Y-126921933D01*
X131429332Y-126874314D01*
X131572189Y-126874314D01*
X131667427Y-126921933D01*
X131715046Y-126969552D01*
X131762665Y-127064790D01*
X131762665Y-127350504D01*
X131715046Y-127445742D01*
X131667427Y-127493361D01*
X131572189Y-127540980D01*
X131429332Y-127540980D01*
X132191237Y-127540980D02*
X132191237Y-126540980D01*
X132619808Y-127540980D02*
X132619808Y-127017171D01*
X132572189Y-126921933D01*
X132476951Y-126874314D01*
X132334094Y-126874314D01*
X132238856Y-126921933D01*
X132191237Y-126969552D01*
X133095999Y-127540980D02*
X133095999Y-126874314D01*
X133095999Y-126969552D02*
X133143618Y-126921933D01*
X133238856Y-126874314D01*
X133381713Y-126874314D01*
X133476951Y-126921933D01*
X133524570Y-127017171D01*
X133524570Y-127540980D01*
X133524570Y-127017171D02*
X133572189Y-126921933D01*
X133667427Y-126874314D01*
X133810284Y-126874314D01*
X133905522Y-126921933D01*
X133953141Y-127017171D01*
X133953141Y-127540980D01*
G04 #@! TO.C,C12*
X137191999Y-69705742D02*
X137191999Y-69800980D01*
X137144380Y-69896219D01*
X137096760Y-69943838D01*
X137001522Y-69991457D01*
X136811046Y-70039076D01*
X136572951Y-70039076D01*
X136382475Y-69991457D01*
X136287237Y-69943838D01*
X136239618Y-69896219D01*
X136191999Y-69800980D01*
X136191999Y-69705742D01*
X136239618Y-69610504D01*
X136287237Y-69562885D01*
X136382475Y-69515266D01*
X136572951Y-69467647D01*
X136811046Y-69467647D01*
X137001522Y-69515266D01*
X137096760Y-69562885D01*
X137144380Y-69610504D01*
X137191999Y-69705742D01*
X136287237Y-70467647D02*
X136239618Y-70515266D01*
X136191999Y-70467647D01*
X136239618Y-70420028D01*
X136287237Y-70467647D01*
X136191999Y-70467647D01*
X136191999Y-71467647D02*
X136191999Y-70896219D01*
X136191999Y-71181933D02*
X137191999Y-71181933D01*
X137049141Y-71086695D01*
X136953903Y-70991457D01*
X136906284Y-70896219D01*
X136858665Y-72324790D02*
X136191999Y-72324790D01*
X136858665Y-71896219D02*
X136334856Y-71896219D01*
X136239618Y-71943838D01*
X136191999Y-72039076D01*
X136191999Y-72181933D01*
X136239618Y-72277171D01*
X136287237Y-72324790D01*
X136715808Y-73134314D02*
X136715808Y-72800980D01*
X136191999Y-72800980D02*
X137191999Y-72800980D01*
X137191999Y-73277171D01*
G04 #@! TO.C,C16*
X154971999Y-90025742D02*
X154971999Y-90120980D01*
X154924380Y-90216219D01*
X154876760Y-90263838D01*
X154781522Y-90311457D01*
X154591046Y-90359076D01*
X154352951Y-90359076D01*
X154162475Y-90311457D01*
X154067237Y-90263838D01*
X154019618Y-90216219D01*
X153971999Y-90120980D01*
X153971999Y-90025742D01*
X154019618Y-89930504D01*
X154067237Y-89882885D01*
X154162475Y-89835266D01*
X154352951Y-89787647D01*
X154591046Y-89787647D01*
X154781522Y-89835266D01*
X154876760Y-89882885D01*
X154924380Y-89930504D01*
X154971999Y-90025742D01*
X154067237Y-90787647D02*
X154019618Y-90835266D01*
X153971999Y-90787647D01*
X154019618Y-90740028D01*
X154067237Y-90787647D01*
X153971999Y-90787647D01*
X153971999Y-91787647D02*
X153971999Y-91216219D01*
X153971999Y-91501933D02*
X154971999Y-91501933D01*
X154829141Y-91406695D01*
X154733903Y-91311457D01*
X154686284Y-91216219D01*
X154638665Y-92644790D02*
X153971999Y-92644790D01*
X154638665Y-92216219D02*
X154114856Y-92216219D01*
X154019618Y-92263838D01*
X153971999Y-92359076D01*
X153971999Y-92501933D01*
X154019618Y-92597171D01*
X154067237Y-92644790D01*
X154495808Y-93454314D02*
X154495808Y-93120980D01*
X153971999Y-93120980D02*
X154971999Y-93120980D01*
X154971999Y-93597171D01*
G04 #@! TO.C,R4*
X242347999Y-96621933D02*
X242347999Y-96145742D01*
X241871808Y-96098123D01*
X241919427Y-96145742D01*
X241967046Y-96240980D01*
X241967046Y-96479076D01*
X241919427Y-96574314D01*
X241871808Y-96621933D01*
X241776570Y-96669552D01*
X241538475Y-96669552D01*
X241443237Y-96621933D01*
X241395618Y-96574314D01*
X241347999Y-96479076D01*
X241347999Y-96240980D01*
X241395618Y-96145742D01*
X241443237Y-96098123D01*
X241347999Y-97621933D02*
X241347999Y-97050504D01*
X241347999Y-97336219D02*
X242347999Y-97336219D01*
X242205141Y-97240980D01*
X242109903Y-97145742D01*
X242062284Y-97050504D01*
X242347999Y-98240980D02*
X242347999Y-98336219D01*
X242300380Y-98431457D01*
X242252760Y-98479076D01*
X242157522Y-98526695D01*
X241967046Y-98574314D01*
X241728951Y-98574314D01*
X241538475Y-98526695D01*
X241443237Y-98479076D01*
X241395618Y-98431457D01*
X241347999Y-98336219D01*
X241347999Y-98240980D01*
X241395618Y-98145742D01*
X241443237Y-98098123D01*
X241538475Y-98050504D01*
X241728951Y-98002885D01*
X241967046Y-98002885D01*
X242157522Y-98050504D01*
X242252760Y-98098123D01*
X242300380Y-98145742D01*
X242347999Y-98240980D01*
X241347999Y-99907647D02*
X241395618Y-99812409D01*
X241443237Y-99764790D01*
X241538475Y-99717171D01*
X241824189Y-99717171D01*
X241919427Y-99764790D01*
X241967046Y-99812409D01*
X242014665Y-99907647D01*
X242014665Y-100050504D01*
X241967046Y-100145742D01*
X241919427Y-100193361D01*
X241824189Y-100240980D01*
X241538475Y-100240980D01*
X241443237Y-100193361D01*
X241395618Y-100145742D01*
X241347999Y-100050504D01*
X241347999Y-99907647D01*
X241347999Y-100669552D02*
X242347999Y-100669552D01*
X241347999Y-101098123D02*
X241871808Y-101098123D01*
X241967046Y-101050504D01*
X242014665Y-100955266D01*
X242014665Y-100812409D01*
X241967046Y-100717171D01*
X241919427Y-100669552D01*
X241347999Y-101574314D02*
X242014665Y-101574314D01*
X241919427Y-101574314D02*
X241967046Y-101621933D01*
X242014665Y-101717171D01*
X242014665Y-101860028D01*
X241967046Y-101955266D01*
X241871808Y-102002885D01*
X241347999Y-102002885D01*
X241871808Y-102002885D02*
X241967046Y-102050504D01*
X242014665Y-102145742D01*
X242014665Y-102288600D01*
X241967046Y-102383838D01*
X241871808Y-102431457D01*
X241347999Y-102431457D01*
G04 #@! TO.C,R3*
X239299999Y-96621933D02*
X239299999Y-96145742D01*
X238823808Y-96098123D01*
X238871427Y-96145742D01*
X238919046Y-96240980D01*
X238919046Y-96479076D01*
X238871427Y-96574314D01*
X238823808Y-96621933D01*
X238728570Y-96669552D01*
X238490475Y-96669552D01*
X238395237Y-96621933D01*
X238347618Y-96574314D01*
X238299999Y-96479076D01*
X238299999Y-96240980D01*
X238347618Y-96145742D01*
X238395237Y-96098123D01*
X238299999Y-97621933D02*
X238299999Y-97050504D01*
X238299999Y-97336219D02*
X239299999Y-97336219D01*
X239157141Y-97240980D01*
X239061903Y-97145742D01*
X239014284Y-97050504D01*
X239299999Y-98240980D02*
X239299999Y-98336219D01*
X239252380Y-98431457D01*
X239204760Y-98479076D01*
X239109522Y-98526695D01*
X238919046Y-98574314D01*
X238680951Y-98574314D01*
X238490475Y-98526695D01*
X238395237Y-98479076D01*
X238347618Y-98431457D01*
X238299999Y-98336219D01*
X238299999Y-98240980D01*
X238347618Y-98145742D01*
X238395237Y-98098123D01*
X238490475Y-98050504D01*
X238680951Y-98002885D01*
X238919046Y-98002885D01*
X239109522Y-98050504D01*
X239204760Y-98098123D01*
X239252380Y-98145742D01*
X239299999Y-98240980D01*
X238299999Y-99907647D02*
X238347618Y-99812409D01*
X238395237Y-99764790D01*
X238490475Y-99717171D01*
X238776189Y-99717171D01*
X238871427Y-99764790D01*
X238919046Y-99812409D01*
X238966665Y-99907647D01*
X238966665Y-100050504D01*
X238919046Y-100145742D01*
X238871427Y-100193361D01*
X238776189Y-100240980D01*
X238490475Y-100240980D01*
X238395237Y-100193361D01*
X238347618Y-100145742D01*
X238299999Y-100050504D01*
X238299999Y-99907647D01*
X238299999Y-100669552D02*
X239299999Y-100669552D01*
X238299999Y-101098123D02*
X238823808Y-101098123D01*
X238919046Y-101050504D01*
X238966665Y-100955266D01*
X238966665Y-100812409D01*
X238919046Y-100717171D01*
X238871427Y-100669552D01*
X238299999Y-101574314D02*
X238966665Y-101574314D01*
X238871427Y-101574314D02*
X238919046Y-101621933D01*
X238966665Y-101717171D01*
X238966665Y-101860028D01*
X238919046Y-101955266D01*
X238823808Y-102002885D01*
X238299999Y-102002885D01*
X238823808Y-102002885D02*
X238919046Y-102050504D01*
X238966665Y-102145742D01*
X238966665Y-102288600D01*
X238919046Y-102383838D01*
X238823808Y-102431457D01*
X238299999Y-102431457D01*
G04 #@! TO.C,C18*
X129571999Y-87485742D02*
X129571999Y-87580980D01*
X129524380Y-87676219D01*
X129476760Y-87723838D01*
X129381522Y-87771457D01*
X129191046Y-87819076D01*
X128952951Y-87819076D01*
X128762475Y-87771457D01*
X128667237Y-87723838D01*
X128619618Y-87676219D01*
X128571999Y-87580980D01*
X128571999Y-87485742D01*
X128619618Y-87390504D01*
X128667237Y-87342885D01*
X128762475Y-87295266D01*
X128952951Y-87247647D01*
X129191046Y-87247647D01*
X129381522Y-87295266D01*
X129476760Y-87342885D01*
X129524380Y-87390504D01*
X129571999Y-87485742D01*
X128667237Y-88247647D02*
X128619618Y-88295266D01*
X128571999Y-88247647D01*
X128619618Y-88200028D01*
X128667237Y-88247647D01*
X128571999Y-88247647D01*
X128571999Y-89247647D02*
X128571999Y-88676219D01*
X128571999Y-88961933D02*
X129571999Y-88961933D01*
X129429141Y-88866695D01*
X129333903Y-88771457D01*
X129286284Y-88676219D01*
X129238665Y-90104790D02*
X128571999Y-90104790D01*
X129238665Y-89676219D02*
X128714856Y-89676219D01*
X128619618Y-89723838D01*
X128571999Y-89819076D01*
X128571999Y-89961933D01*
X128619618Y-90057171D01*
X128667237Y-90104790D01*
X129095808Y-90914314D02*
X129095808Y-90580980D01*
X128571999Y-90580980D02*
X129571999Y-90580980D01*
X129571999Y-91057171D01*
G04 #@! TO.C,SW1*
X234295999Y-74944980D02*
X233962665Y-74468790D01*
X233724570Y-74944980D02*
X233724570Y-73944980D01*
X234105522Y-73944980D01*
X234200760Y-73992600D01*
X234248380Y-74040219D01*
X234295999Y-74135457D01*
X234295999Y-74278314D01*
X234248380Y-74373552D01*
X234200760Y-74421171D01*
X234105522Y-74468790D01*
X233724570Y-74468790D01*
X234724570Y-74421171D02*
X235057903Y-74421171D01*
X235200760Y-74944980D02*
X234724570Y-74944980D01*
X234724570Y-73944980D01*
X235200760Y-73944980D01*
X235581713Y-74897361D02*
X235724570Y-74944980D01*
X235962665Y-74944980D01*
X236057903Y-74897361D01*
X236105522Y-74849742D01*
X236153141Y-74754504D01*
X236153141Y-74659266D01*
X236105522Y-74564028D01*
X236057903Y-74516409D01*
X235962665Y-74468790D01*
X235772189Y-74421171D01*
X235676951Y-74373552D01*
X235629332Y-74325933D01*
X235581713Y-74230695D01*
X235581713Y-74135457D01*
X235629332Y-74040219D01*
X235676951Y-73992600D01*
X235772189Y-73944980D01*
X236010284Y-73944980D01*
X236153141Y-73992600D01*
X236581713Y-74421171D02*
X236915046Y-74421171D01*
X237057903Y-74944980D02*
X236581713Y-74944980D01*
X236581713Y-73944980D01*
X237057903Y-73944980D01*
X237343618Y-73944980D02*
X237915046Y-73944980D01*
X237629332Y-74944980D02*
X237629332Y-73944980D01*
G04 #@! TO.C,C25*
X230890665Y-97387838D02*
X230223999Y-97387838D01*
X231271618Y-97149742D02*
X230557332Y-96911647D01*
X230557332Y-97530695D01*
X230319237Y-97911647D02*
X230271618Y-97959266D01*
X230223999Y-97911647D01*
X230271618Y-97864028D01*
X230319237Y-97911647D01*
X230223999Y-97911647D01*
X231223999Y-98292600D02*
X231223999Y-98959266D01*
X230223999Y-98530695D01*
X230890665Y-99768790D02*
X230223999Y-99768790D01*
X230890665Y-99340219D02*
X230366856Y-99340219D01*
X230271618Y-99387838D01*
X230223999Y-99483076D01*
X230223999Y-99625933D01*
X230271618Y-99721171D01*
X230319237Y-99768790D01*
X230747808Y-100578314D02*
X230747808Y-100244980D01*
X230223999Y-100244980D02*
X231223999Y-100244980D01*
X231223999Y-100721171D01*
G04 #@! TO.C,C7*
X114331999Y-69705742D02*
X114331999Y-69800980D01*
X114284380Y-69896219D01*
X114236760Y-69943838D01*
X114141522Y-69991457D01*
X113951046Y-70039076D01*
X113712951Y-70039076D01*
X113522475Y-69991457D01*
X113427237Y-69943838D01*
X113379618Y-69896219D01*
X113331999Y-69800980D01*
X113331999Y-69705742D01*
X113379618Y-69610504D01*
X113427237Y-69562885D01*
X113522475Y-69515266D01*
X113712951Y-69467647D01*
X113951046Y-69467647D01*
X114141522Y-69515266D01*
X114236760Y-69562885D01*
X114284380Y-69610504D01*
X114331999Y-69705742D01*
X113427237Y-70467647D02*
X113379618Y-70515266D01*
X113331999Y-70467647D01*
X113379618Y-70420028D01*
X113427237Y-70467647D01*
X113331999Y-70467647D01*
X113331999Y-71467647D02*
X113331999Y-70896219D01*
X113331999Y-71181933D02*
X114331999Y-71181933D01*
X114189141Y-71086695D01*
X114093903Y-70991457D01*
X114046284Y-70896219D01*
X113998665Y-72324790D02*
X113331999Y-72324790D01*
X113998665Y-71896219D02*
X113474856Y-71896219D01*
X113379618Y-71943838D01*
X113331999Y-72039076D01*
X113331999Y-72181933D01*
X113379618Y-72277171D01*
X113427237Y-72324790D01*
X113855808Y-73134314D02*
X113855808Y-72800980D01*
X113331999Y-72800980D02*
X114331999Y-72800980D01*
X114331999Y-73277171D01*
G04 #@! TO.C,Y1*
X237564665Y-93010742D02*
X237517046Y-93058361D01*
X237374189Y-93105980D01*
X237278951Y-93105980D01*
X237136094Y-93058361D01*
X237040856Y-92963123D01*
X236993237Y-92867885D01*
X236945618Y-92677409D01*
X236945618Y-92534552D01*
X236993237Y-92344076D01*
X237040856Y-92248838D01*
X237136094Y-92153600D01*
X237278951Y-92105980D01*
X237374189Y-92105980D01*
X237517046Y-92153600D01*
X237564665Y-92201219D01*
X237993237Y-93105980D02*
X237993237Y-92439314D01*
X237993237Y-92629790D02*
X238040856Y-92534552D01*
X238088475Y-92486933D01*
X238183713Y-92439314D01*
X238278951Y-92439314D01*
X238517046Y-92439314D02*
X238755141Y-93105980D01*
X238993237Y-92439314D02*
X238755141Y-93105980D01*
X238659903Y-93344076D01*
X238612284Y-93391695D01*
X238517046Y-93439314D01*
X239326570Y-93058361D02*
X239421808Y-93105980D01*
X239612284Y-93105980D01*
X239707522Y-93058361D01*
X239755141Y-92963123D01*
X239755141Y-92915504D01*
X239707522Y-92820266D01*
X239612284Y-92772647D01*
X239469427Y-92772647D01*
X239374189Y-92725028D01*
X239326570Y-92629790D01*
X239326570Y-92582171D01*
X239374189Y-92486933D01*
X239469427Y-92439314D01*
X239612284Y-92439314D01*
X239707522Y-92486933D01*
X240040856Y-92439314D02*
X240421808Y-92439314D01*
X240183713Y-92105980D02*
X240183713Y-92963123D01*
X240231332Y-93058361D01*
X240326570Y-93105980D01*
X240421808Y-93105980D01*
X241183713Y-93105980D02*
X241183713Y-92582171D01*
X241136094Y-92486933D01*
X241040856Y-92439314D01*
X240850380Y-92439314D01*
X240755141Y-92486933D01*
X241183713Y-93058361D02*
X241088475Y-93105980D01*
X240850380Y-93105980D01*
X240755141Y-93058361D01*
X240707522Y-92963123D01*
X240707522Y-92867885D01*
X240755141Y-92772647D01*
X240850380Y-92725028D01*
X241088475Y-92725028D01*
X241183713Y-92677409D01*
X241802760Y-93105980D02*
X241707522Y-93058361D01*
X241659903Y-92963123D01*
X241659903Y-92105980D01*
G04 #@! TO.C,R2*
X195770760Y-68888314D02*
X195818380Y-68935933D01*
X195865999Y-69031171D01*
X195865999Y-69269266D01*
X195818380Y-69364504D01*
X195770760Y-69412123D01*
X195675522Y-69459742D01*
X195580284Y-69459742D01*
X195437427Y-69412123D01*
X194865999Y-68840695D01*
X194865999Y-69459742D01*
X195865999Y-69793076D02*
X195865999Y-70459742D01*
X194865999Y-70031171D01*
X194865999Y-71745457D02*
X194913618Y-71650219D01*
X194961237Y-71602600D01*
X195056475Y-71554980D01*
X195342189Y-71554980D01*
X195437427Y-71602600D01*
X195485046Y-71650219D01*
X195532665Y-71745457D01*
X195532665Y-71888314D01*
X195485046Y-71983552D01*
X195437427Y-72031171D01*
X195342189Y-72078790D01*
X195056475Y-72078790D01*
X194961237Y-72031171D01*
X194913618Y-71983552D01*
X194865999Y-71888314D01*
X194865999Y-71745457D01*
X194865999Y-72507361D02*
X195865999Y-72507361D01*
X194865999Y-72935933D02*
X195389808Y-72935933D01*
X195485046Y-72888314D01*
X195532665Y-72793076D01*
X195532665Y-72650219D01*
X195485046Y-72554980D01*
X195437427Y-72507361D01*
X194865999Y-73412123D02*
X195532665Y-73412123D01*
X195437427Y-73412123D02*
X195485046Y-73459742D01*
X195532665Y-73554980D01*
X195532665Y-73697838D01*
X195485046Y-73793076D01*
X195389808Y-73840695D01*
X194865999Y-73840695D01*
X195389808Y-73840695D02*
X195485046Y-73888314D01*
X195532665Y-73983552D01*
X195532665Y-74126409D01*
X195485046Y-74221647D01*
X195389808Y-74269266D01*
X194865999Y-74269266D01*
G04 #@! TO.C,C14*
X190531999Y-110345742D02*
X190531999Y-110440980D01*
X190484380Y-110536219D01*
X190436760Y-110583838D01*
X190341522Y-110631457D01*
X190151046Y-110679076D01*
X189912951Y-110679076D01*
X189722475Y-110631457D01*
X189627237Y-110583838D01*
X189579618Y-110536219D01*
X189531999Y-110440980D01*
X189531999Y-110345742D01*
X189579618Y-110250504D01*
X189627237Y-110202885D01*
X189722475Y-110155266D01*
X189912951Y-110107647D01*
X190151046Y-110107647D01*
X190341522Y-110155266D01*
X190436760Y-110202885D01*
X190484380Y-110250504D01*
X190531999Y-110345742D01*
X189627237Y-111107647D02*
X189579618Y-111155266D01*
X189531999Y-111107647D01*
X189579618Y-111060028D01*
X189627237Y-111107647D01*
X189531999Y-111107647D01*
X189531999Y-112107647D02*
X189531999Y-111536219D01*
X189531999Y-111821933D02*
X190531999Y-111821933D01*
X190389141Y-111726695D01*
X190293903Y-111631457D01*
X190246284Y-111536219D01*
X190198665Y-112964790D02*
X189531999Y-112964790D01*
X190198665Y-112536219D02*
X189674856Y-112536219D01*
X189579618Y-112583838D01*
X189531999Y-112679076D01*
X189531999Y-112821933D01*
X189579618Y-112917171D01*
X189627237Y-112964790D01*
X190055808Y-113774314D02*
X190055808Y-113440980D01*
X189531999Y-113440980D02*
X190531999Y-113440980D01*
X190531999Y-113917171D01*
G04 #@! TO.C,C13*
X142271999Y-110345742D02*
X142271999Y-110440980D01*
X142224380Y-110536219D01*
X142176760Y-110583838D01*
X142081522Y-110631457D01*
X141891046Y-110679076D01*
X141652951Y-110679076D01*
X141462475Y-110631457D01*
X141367237Y-110583838D01*
X141319618Y-110536219D01*
X141271999Y-110440980D01*
X141271999Y-110345742D01*
X141319618Y-110250504D01*
X141367237Y-110202885D01*
X141462475Y-110155266D01*
X141652951Y-110107647D01*
X141891046Y-110107647D01*
X142081522Y-110155266D01*
X142176760Y-110202885D01*
X142224380Y-110250504D01*
X142271999Y-110345742D01*
X141367237Y-111107647D02*
X141319618Y-111155266D01*
X141271999Y-111107647D01*
X141319618Y-111060028D01*
X141367237Y-111107647D01*
X141271999Y-111107647D01*
X141271999Y-112107647D02*
X141271999Y-111536219D01*
X141271999Y-111821933D02*
X142271999Y-111821933D01*
X142129141Y-111726695D01*
X142033903Y-111631457D01*
X141986284Y-111536219D01*
X141938665Y-112964790D02*
X141271999Y-112964790D01*
X141938665Y-112536219D02*
X141414856Y-112536219D01*
X141319618Y-112583838D01*
X141271999Y-112679076D01*
X141271999Y-112821933D01*
X141319618Y-112917171D01*
X141367237Y-112964790D01*
X141795808Y-113774314D02*
X141795808Y-113440980D01*
X141271999Y-113440980D02*
X142271999Y-113440980D01*
X142271999Y-113917171D01*
G04 #@! TO.C,C11*
X119411999Y-120505742D02*
X119411999Y-120600980D01*
X119364380Y-120696219D01*
X119316760Y-120743838D01*
X119221522Y-120791457D01*
X119031046Y-120839076D01*
X118792951Y-120839076D01*
X118602475Y-120791457D01*
X118507237Y-120743838D01*
X118459618Y-120696219D01*
X118411999Y-120600980D01*
X118411999Y-120505742D01*
X118459618Y-120410504D01*
X118507237Y-120362885D01*
X118602475Y-120315266D01*
X118792951Y-120267647D01*
X119031046Y-120267647D01*
X119221522Y-120315266D01*
X119316760Y-120362885D01*
X119364380Y-120410504D01*
X119411999Y-120505742D01*
X118507237Y-121267647D02*
X118459618Y-121315266D01*
X118411999Y-121267647D01*
X118459618Y-121220028D01*
X118507237Y-121267647D01*
X118411999Y-121267647D01*
X118411999Y-122267647D02*
X118411999Y-121696219D01*
X118411999Y-121981933D02*
X119411999Y-121981933D01*
X119269141Y-121886695D01*
X119173903Y-121791457D01*
X119126284Y-121696219D01*
X119078665Y-123124790D02*
X118411999Y-123124790D01*
X119078665Y-122696219D02*
X118554856Y-122696219D01*
X118459618Y-122743838D01*
X118411999Y-122839076D01*
X118411999Y-122981933D01*
X118459618Y-123077171D01*
X118507237Y-123124790D01*
X118935808Y-123934314D02*
X118935808Y-123600980D01*
X118411999Y-123600980D02*
X119411999Y-123600980D01*
X119411999Y-124077171D01*
G04 #@! TO.C,C9*
X231171999Y-90025742D02*
X231171999Y-90120980D01*
X231124380Y-90216219D01*
X231076760Y-90263838D01*
X230981522Y-90311457D01*
X230791046Y-90359076D01*
X230552951Y-90359076D01*
X230362475Y-90311457D01*
X230267237Y-90263838D01*
X230219618Y-90216219D01*
X230171999Y-90120980D01*
X230171999Y-90025742D01*
X230219618Y-89930504D01*
X230267237Y-89882885D01*
X230362475Y-89835266D01*
X230552951Y-89787647D01*
X230791046Y-89787647D01*
X230981522Y-89835266D01*
X231076760Y-89882885D01*
X231124380Y-89930504D01*
X231171999Y-90025742D01*
X230267237Y-90787647D02*
X230219618Y-90835266D01*
X230171999Y-90787647D01*
X230219618Y-90740028D01*
X230267237Y-90787647D01*
X230171999Y-90787647D01*
X230171999Y-91787647D02*
X230171999Y-91216219D01*
X230171999Y-91501933D02*
X231171999Y-91501933D01*
X231029141Y-91406695D01*
X230933903Y-91311457D01*
X230886284Y-91216219D01*
X230838665Y-92644790D02*
X230171999Y-92644790D01*
X230838665Y-92216219D02*
X230314856Y-92216219D01*
X230219618Y-92263838D01*
X230171999Y-92359076D01*
X230171999Y-92501933D01*
X230219618Y-92597171D01*
X230267237Y-92644790D01*
X230695808Y-93454314D02*
X230695808Y-93120980D01*
X230171999Y-93120980D02*
X231171999Y-93120980D01*
X231171999Y-93597171D01*
G04 #@! TO.C,C8*
X142271999Y-100185742D02*
X142271999Y-100280980D01*
X142224380Y-100376219D01*
X142176760Y-100423838D01*
X142081522Y-100471457D01*
X141891046Y-100519076D01*
X141652951Y-100519076D01*
X141462475Y-100471457D01*
X141367237Y-100423838D01*
X141319618Y-100376219D01*
X141271999Y-100280980D01*
X141271999Y-100185742D01*
X141319618Y-100090504D01*
X141367237Y-100042885D01*
X141462475Y-99995266D01*
X141652951Y-99947647D01*
X141891046Y-99947647D01*
X142081522Y-99995266D01*
X142176760Y-100042885D01*
X142224380Y-100090504D01*
X142271999Y-100185742D01*
X141367237Y-100947647D02*
X141319618Y-100995266D01*
X141271999Y-100947647D01*
X141319618Y-100900028D01*
X141367237Y-100947647D01*
X141271999Y-100947647D01*
X141271999Y-101947647D02*
X141271999Y-101376219D01*
X141271999Y-101661933D02*
X142271999Y-101661933D01*
X142129141Y-101566695D01*
X142033903Y-101471457D01*
X141986284Y-101376219D01*
X141938665Y-102804790D02*
X141271999Y-102804790D01*
X141938665Y-102376219D02*
X141414856Y-102376219D01*
X141319618Y-102423838D01*
X141271999Y-102519076D01*
X141271999Y-102661933D01*
X141319618Y-102757171D01*
X141367237Y-102804790D01*
X141795808Y-103614314D02*
X141795808Y-103280980D01*
X141271999Y-103280980D02*
X142271999Y-103280980D01*
X142271999Y-103757171D01*
G04 #@! TO.C,C6*
X228631999Y-100185742D02*
X228631999Y-100280980D01*
X228584380Y-100376219D01*
X228536760Y-100423838D01*
X228441522Y-100471457D01*
X228251046Y-100519076D01*
X228012951Y-100519076D01*
X227822475Y-100471457D01*
X227727237Y-100423838D01*
X227679618Y-100376219D01*
X227631999Y-100280980D01*
X227631999Y-100185742D01*
X227679618Y-100090504D01*
X227727237Y-100042885D01*
X227822475Y-99995266D01*
X228012951Y-99947647D01*
X228251046Y-99947647D01*
X228441522Y-99995266D01*
X228536760Y-100042885D01*
X228584380Y-100090504D01*
X228631999Y-100185742D01*
X227727237Y-100947647D02*
X227679618Y-100995266D01*
X227631999Y-100947647D01*
X227679618Y-100900028D01*
X227727237Y-100947647D01*
X227631999Y-100947647D01*
X227631999Y-101947647D02*
X227631999Y-101376219D01*
X227631999Y-101661933D02*
X228631999Y-101661933D01*
X228489141Y-101566695D01*
X228393903Y-101471457D01*
X228346284Y-101376219D01*
X228298665Y-102804790D02*
X227631999Y-102804790D01*
X228298665Y-102376219D02*
X227774856Y-102376219D01*
X227679618Y-102423838D01*
X227631999Y-102519076D01*
X227631999Y-102661933D01*
X227679618Y-102757171D01*
X227727237Y-102804790D01*
X228155808Y-103614314D02*
X228155808Y-103280980D01*
X227631999Y-103280980D02*
X228631999Y-103280980D01*
X228631999Y-103757171D01*
G04 #@! TO.C,C5*
X193071999Y-77325742D02*
X193071999Y-77420980D01*
X193024380Y-77516219D01*
X192976760Y-77563838D01*
X192881522Y-77611457D01*
X192691046Y-77659076D01*
X192452951Y-77659076D01*
X192262475Y-77611457D01*
X192167237Y-77563838D01*
X192119618Y-77516219D01*
X192071999Y-77420980D01*
X192071999Y-77325742D01*
X192119618Y-77230504D01*
X192167237Y-77182885D01*
X192262475Y-77135266D01*
X192452951Y-77087647D01*
X192691046Y-77087647D01*
X192881522Y-77135266D01*
X192976760Y-77182885D01*
X193024380Y-77230504D01*
X193071999Y-77325742D01*
X192167237Y-78087647D02*
X192119618Y-78135266D01*
X192071999Y-78087647D01*
X192119618Y-78040028D01*
X192167237Y-78087647D01*
X192071999Y-78087647D01*
X192071999Y-79087647D02*
X192071999Y-78516219D01*
X192071999Y-78801933D02*
X193071999Y-78801933D01*
X192929141Y-78706695D01*
X192833903Y-78611457D01*
X192786284Y-78516219D01*
X192738665Y-79944790D02*
X192071999Y-79944790D01*
X192738665Y-79516219D02*
X192214856Y-79516219D01*
X192119618Y-79563838D01*
X192071999Y-79659076D01*
X192071999Y-79801933D01*
X192119618Y-79897171D01*
X192167237Y-79944790D01*
X192595808Y-80754314D02*
X192595808Y-80420980D01*
X192071999Y-80420980D02*
X193071999Y-80420980D01*
X193071999Y-80897171D01*
G04 #@! TO.C,C4*
X228631999Y-110345742D02*
X228631999Y-110440980D01*
X228584380Y-110536219D01*
X228536760Y-110583838D01*
X228441522Y-110631457D01*
X228251046Y-110679076D01*
X228012951Y-110679076D01*
X227822475Y-110631457D01*
X227727237Y-110583838D01*
X227679618Y-110536219D01*
X227631999Y-110440980D01*
X227631999Y-110345742D01*
X227679618Y-110250504D01*
X227727237Y-110202885D01*
X227822475Y-110155266D01*
X228012951Y-110107647D01*
X228251046Y-110107647D01*
X228441522Y-110155266D01*
X228536760Y-110202885D01*
X228584380Y-110250504D01*
X228631999Y-110345742D01*
X227727237Y-111107647D02*
X227679618Y-111155266D01*
X227631999Y-111107647D01*
X227679618Y-111060028D01*
X227727237Y-111107647D01*
X227631999Y-111107647D01*
X227631999Y-112107647D02*
X227631999Y-111536219D01*
X227631999Y-111821933D02*
X228631999Y-111821933D01*
X228489141Y-111726695D01*
X228393903Y-111631457D01*
X228346284Y-111536219D01*
X228298665Y-112964790D02*
X227631999Y-112964790D01*
X228298665Y-112536219D02*
X227774856Y-112536219D01*
X227679618Y-112583838D01*
X227631999Y-112679076D01*
X227631999Y-112821933D01*
X227679618Y-112917171D01*
X227727237Y-112964790D01*
X228155808Y-113774314D02*
X228155808Y-113440980D01*
X227631999Y-113440980D02*
X228631999Y-113440980D01*
X228631999Y-113917171D01*
G04 #@! TO.C,C3*
X210851999Y-120505742D02*
X210851999Y-120600980D01*
X210804380Y-120696219D01*
X210756760Y-120743838D01*
X210661522Y-120791457D01*
X210471046Y-120839076D01*
X210232951Y-120839076D01*
X210042475Y-120791457D01*
X209947237Y-120743838D01*
X209899618Y-120696219D01*
X209851999Y-120600980D01*
X209851999Y-120505742D01*
X209899618Y-120410504D01*
X209947237Y-120362885D01*
X210042475Y-120315266D01*
X210232951Y-120267647D01*
X210471046Y-120267647D01*
X210661522Y-120315266D01*
X210756760Y-120362885D01*
X210804380Y-120410504D01*
X210851999Y-120505742D01*
X209947237Y-121267647D02*
X209899618Y-121315266D01*
X209851999Y-121267647D01*
X209899618Y-121220028D01*
X209947237Y-121267647D01*
X209851999Y-121267647D01*
X209851999Y-122267647D02*
X209851999Y-121696219D01*
X209851999Y-121981933D02*
X210851999Y-121981933D01*
X210709141Y-121886695D01*
X210613903Y-121791457D01*
X210566284Y-121696219D01*
X210518665Y-123124790D02*
X209851999Y-123124790D01*
X210518665Y-122696219D02*
X209994856Y-122696219D01*
X209899618Y-122743838D01*
X209851999Y-122839076D01*
X209851999Y-122981933D01*
X209899618Y-123077171D01*
X209947237Y-123124790D01*
X210375808Y-123934314D02*
X210375808Y-123600980D01*
X209851999Y-123600980D02*
X210851999Y-123600980D01*
X210851999Y-124077171D01*
G04 #@! TO.C,C2*
X170211999Y-120505742D02*
X170211999Y-120600980D01*
X170164380Y-120696219D01*
X170116760Y-120743838D01*
X170021522Y-120791457D01*
X169831046Y-120839076D01*
X169592951Y-120839076D01*
X169402475Y-120791457D01*
X169307237Y-120743838D01*
X169259618Y-120696219D01*
X169211999Y-120600980D01*
X169211999Y-120505742D01*
X169259618Y-120410504D01*
X169307237Y-120362885D01*
X169402475Y-120315266D01*
X169592951Y-120267647D01*
X169831046Y-120267647D01*
X170021522Y-120315266D01*
X170116760Y-120362885D01*
X170164380Y-120410504D01*
X170211999Y-120505742D01*
X169307237Y-121267647D02*
X169259618Y-121315266D01*
X169211999Y-121267647D01*
X169259618Y-121220028D01*
X169307237Y-121267647D01*
X169211999Y-121267647D01*
X169211999Y-122267647D02*
X169211999Y-121696219D01*
X169211999Y-121981933D02*
X170211999Y-121981933D01*
X170069141Y-121886695D01*
X169973903Y-121791457D01*
X169926284Y-121696219D01*
X169878665Y-123124790D02*
X169211999Y-123124790D01*
X169878665Y-122696219D02*
X169354856Y-122696219D01*
X169259618Y-122743838D01*
X169211999Y-122839076D01*
X169211999Y-122981933D01*
X169259618Y-123077171D01*
X169307237Y-123124790D01*
X169735808Y-123934314D02*
X169735808Y-123600980D01*
X169211999Y-123600980D02*
X170211999Y-123600980D01*
X170211999Y-124077171D01*
G04 #@! TO.C,C1*
X246411999Y-79865742D02*
X246411999Y-79960980D01*
X246364380Y-80056219D01*
X246316760Y-80103838D01*
X246221522Y-80151457D01*
X246031046Y-80199076D01*
X245792951Y-80199076D01*
X245602475Y-80151457D01*
X245507237Y-80103838D01*
X245459618Y-80056219D01*
X245411999Y-79960980D01*
X245411999Y-79865742D01*
X245459618Y-79770504D01*
X245507237Y-79722885D01*
X245602475Y-79675266D01*
X245792951Y-79627647D01*
X246031046Y-79627647D01*
X246221522Y-79675266D01*
X246316760Y-79722885D01*
X246364380Y-79770504D01*
X246411999Y-79865742D01*
X245507237Y-80627647D02*
X245459618Y-80675266D01*
X245411999Y-80627647D01*
X245459618Y-80580028D01*
X245507237Y-80627647D01*
X245411999Y-80627647D01*
X245411999Y-81627647D02*
X245411999Y-81056219D01*
X245411999Y-81341933D02*
X246411999Y-81341933D01*
X246269141Y-81246695D01*
X246173903Y-81151457D01*
X246126284Y-81056219D01*
X246078665Y-82484790D02*
X245411999Y-82484790D01*
X246078665Y-82056219D02*
X245554856Y-82056219D01*
X245459618Y-82103838D01*
X245411999Y-82199076D01*
X245411999Y-82341933D01*
X245459618Y-82437171D01*
X245507237Y-82484790D01*
X245935808Y-83294314D02*
X245935808Y-82960980D01*
X245411999Y-82960980D02*
X246411999Y-82960980D01*
X246411999Y-83437171D01*
G04 #@! TO.C,U2*
X141973999Y-117759552D02*
X141973999Y-118426219D01*
X140973999Y-117997647D01*
X141640665Y-119235742D02*
X140973999Y-119235742D01*
X142021618Y-118997647D02*
X141307332Y-118759552D01*
X141307332Y-119378600D01*
X140973999Y-120235742D02*
X140973999Y-119759552D01*
X141973999Y-119759552D01*
X141021618Y-120521457D02*
X140973999Y-120664314D01*
X140973999Y-120902409D01*
X141021618Y-120997647D01*
X141069237Y-121045266D01*
X141164475Y-121092885D01*
X141259713Y-121092885D01*
X141354951Y-121045266D01*
X141402570Y-120997647D01*
X141450189Y-120902409D01*
X141497808Y-120711933D01*
X141545427Y-120616695D01*
X141593046Y-120569076D01*
X141688284Y-120521457D01*
X141783522Y-120521457D01*
X141878760Y-120569076D01*
X141926380Y-120616695D01*
X141973999Y-120711933D01*
X141973999Y-120950028D01*
X141926380Y-121092885D01*
X141973999Y-121997647D02*
X141973999Y-121521457D01*
X141497808Y-121473838D01*
X141545427Y-121521457D01*
X141593046Y-121616695D01*
X141593046Y-121854790D01*
X141545427Y-121950028D01*
X141497808Y-121997647D01*
X141402570Y-122045266D01*
X141164475Y-122045266D01*
X141069237Y-121997647D01*
X141021618Y-121950028D01*
X140973999Y-121854790D01*
X140973999Y-121616695D01*
X141021618Y-121521457D01*
X141069237Y-121473838D01*
X141973999Y-122378600D02*
X141973999Y-123045266D01*
X140973999Y-122616695D01*
X141973999Y-123330980D02*
X141973999Y-123950028D01*
X141593046Y-123616695D01*
X141593046Y-123759552D01*
X141545427Y-123854790D01*
X141497808Y-123902409D01*
X141402570Y-123950028D01*
X141164475Y-123950028D01*
X141069237Y-123902409D01*
X141021618Y-123854790D01*
X140973999Y-123759552D01*
X140973999Y-123473838D01*
X141021618Y-123378600D01*
X141069237Y-123330980D01*
G04 #@! TO.C,U18*
X91630760Y-81358123D02*
X91678380Y-81405742D01*
X91725999Y-81500980D01*
X91725999Y-81739076D01*
X91678380Y-81834314D01*
X91630760Y-81881933D01*
X91535522Y-81929552D01*
X91440284Y-81929552D01*
X91297427Y-81881933D01*
X90725999Y-81310504D01*
X90725999Y-81929552D01*
X91725999Y-82262885D02*
X91725999Y-82929552D01*
X90725999Y-82500980D01*
X90821237Y-83881933D02*
X90773618Y-83834314D01*
X90725999Y-83691457D01*
X90725999Y-83596219D01*
X90773618Y-83453361D01*
X90868856Y-83358123D01*
X90964094Y-83310504D01*
X91154570Y-83262885D01*
X91297427Y-83262885D01*
X91487903Y-83310504D01*
X91583141Y-83358123D01*
X91678380Y-83453361D01*
X91725999Y-83596219D01*
X91725999Y-83691457D01*
X91678380Y-83834314D01*
X91630760Y-83881933D01*
X91725999Y-84786695D02*
X91725999Y-84310504D01*
X91249808Y-84262885D01*
X91297427Y-84310504D01*
X91345046Y-84405742D01*
X91345046Y-84643838D01*
X91297427Y-84739076D01*
X91249808Y-84786695D01*
X91154570Y-84834314D01*
X90916475Y-84834314D01*
X90821237Y-84786695D01*
X90773618Y-84739076D01*
X90725999Y-84643838D01*
X90725999Y-84405742D01*
X90773618Y-84310504D01*
X90821237Y-84262885D01*
X90725999Y-85786695D02*
X90725999Y-85215266D01*
X90725999Y-85500980D02*
X91725999Y-85500980D01*
X91583141Y-85405742D01*
X91487903Y-85310504D01*
X91440284Y-85215266D01*
X91630760Y-86167647D02*
X91678380Y-86215266D01*
X91725999Y-86310504D01*
X91725999Y-86548600D01*
X91678380Y-86643838D01*
X91630760Y-86691457D01*
X91535522Y-86739076D01*
X91440284Y-86739076D01*
X91297427Y-86691457D01*
X90725999Y-86120028D01*
X90725999Y-86739076D01*
G04 #@! TO.C,U7*
X91725999Y-66959552D02*
X91725999Y-67626219D01*
X90725999Y-67197647D01*
X91392665Y-68435742D02*
X90725999Y-68435742D01*
X91773618Y-68197647D02*
X91059332Y-67959552D01*
X91059332Y-68578600D01*
X90725999Y-69435742D02*
X90725999Y-68959552D01*
X91725999Y-68959552D01*
X90773618Y-69721457D02*
X90725999Y-69864314D01*
X90725999Y-70102409D01*
X90773618Y-70197647D01*
X90821237Y-70245266D01*
X90916475Y-70292885D01*
X91011713Y-70292885D01*
X91106951Y-70245266D01*
X91154570Y-70197647D01*
X91202189Y-70102409D01*
X91249808Y-69911933D01*
X91297427Y-69816695D01*
X91345046Y-69769076D01*
X91440284Y-69721457D01*
X91535522Y-69721457D01*
X91630760Y-69769076D01*
X91678380Y-69816695D01*
X91725999Y-69911933D01*
X91725999Y-70150028D01*
X91678380Y-70292885D01*
X90725999Y-71245266D02*
X90725999Y-70673838D01*
X90725999Y-70959552D02*
X91725999Y-70959552D01*
X91583141Y-70864314D01*
X91487903Y-70769076D01*
X91440284Y-70673838D01*
X91725999Y-72102409D02*
X91725999Y-71911933D01*
X91678380Y-71816695D01*
X91630760Y-71769076D01*
X91487903Y-71673838D01*
X91297427Y-71626219D01*
X90916475Y-71626219D01*
X90821237Y-71673838D01*
X90773618Y-71721457D01*
X90725999Y-71816695D01*
X90725999Y-72007171D01*
X90773618Y-72102409D01*
X90821237Y-72150028D01*
X90916475Y-72197647D01*
X91154570Y-72197647D01*
X91249808Y-72150028D01*
X91297427Y-72102409D01*
X91345046Y-72007171D01*
X91345046Y-71816695D01*
X91297427Y-71721457D01*
X91249808Y-71673838D01*
X91154570Y-71626219D01*
X90725999Y-73150028D02*
X90725999Y-72578600D01*
X90725999Y-72864314D02*
X91725999Y-72864314D01*
X91583141Y-72769076D01*
X91487903Y-72673838D01*
X91440284Y-72578600D01*
G04 #@! TO.C,U6*
X200393999Y-97439552D02*
X200393999Y-98106219D01*
X199393999Y-97677647D01*
X200060665Y-98915742D02*
X199393999Y-98915742D01*
X200441618Y-98677647D02*
X199727332Y-98439552D01*
X199727332Y-99058600D01*
X199393999Y-99915742D02*
X199393999Y-99439552D01*
X200393999Y-99439552D01*
X199441618Y-100201457D02*
X199393999Y-100344314D01*
X199393999Y-100582409D01*
X199441618Y-100677647D01*
X199489237Y-100725266D01*
X199584475Y-100772885D01*
X199679713Y-100772885D01*
X199774951Y-100725266D01*
X199822570Y-100677647D01*
X199870189Y-100582409D01*
X199917808Y-100391933D01*
X199965427Y-100296695D01*
X200013046Y-100249076D01*
X200108284Y-100201457D01*
X200203522Y-100201457D01*
X200298760Y-100249076D01*
X200346380Y-100296695D01*
X200393999Y-100391933D01*
X200393999Y-100630028D01*
X200346380Y-100772885D01*
X200393999Y-101677647D02*
X200393999Y-101201457D01*
X199917808Y-101153838D01*
X199965427Y-101201457D01*
X200013046Y-101296695D01*
X200013046Y-101534790D01*
X199965427Y-101630028D01*
X199917808Y-101677647D01*
X199822570Y-101725266D01*
X199584475Y-101725266D01*
X199489237Y-101677647D01*
X199441618Y-101630028D01*
X199393999Y-101534790D01*
X199393999Y-101296695D01*
X199441618Y-101201457D01*
X199489237Y-101153838D01*
X200393999Y-102058600D02*
X200393999Y-102725266D01*
X199393999Y-102296695D01*
X200393999Y-103010980D02*
X200393999Y-103630028D01*
X200013046Y-103296695D01*
X200013046Y-103439552D01*
X199965427Y-103534790D01*
X199917808Y-103582409D01*
X199822570Y-103630028D01*
X199584475Y-103630028D01*
X199489237Y-103582409D01*
X199441618Y-103534790D01*
X199393999Y-103439552D01*
X199393999Y-103153838D01*
X199441618Y-103058600D01*
X199489237Y-103010980D01*
G04 #@! TO.C,U17*
X116573999Y-67435742D02*
X116573999Y-68102409D01*
X115573999Y-67673838D01*
X116240665Y-68911933D02*
X115573999Y-68911933D01*
X116621618Y-68673838D02*
X115907332Y-68435742D01*
X115907332Y-69054790D01*
X115573999Y-69911933D02*
X115573999Y-69435742D01*
X116573999Y-69435742D01*
X115621618Y-70197647D02*
X115573999Y-70340504D01*
X115573999Y-70578600D01*
X115621618Y-70673838D01*
X115669237Y-70721457D01*
X115764475Y-70769076D01*
X115859713Y-70769076D01*
X115954951Y-70721457D01*
X116002570Y-70673838D01*
X116050189Y-70578600D01*
X116097808Y-70388123D01*
X116145427Y-70292885D01*
X116193046Y-70245266D01*
X116288284Y-70197647D01*
X116383522Y-70197647D01*
X116478760Y-70245266D01*
X116526380Y-70292885D01*
X116573999Y-70388123D01*
X116573999Y-70626219D01*
X116526380Y-70769076D01*
X116573999Y-71388123D02*
X116573999Y-71483361D01*
X116526380Y-71578600D01*
X116478760Y-71626219D01*
X116383522Y-71673838D01*
X116193046Y-71721457D01*
X115954951Y-71721457D01*
X115764475Y-71673838D01*
X115669237Y-71626219D01*
X115621618Y-71578600D01*
X115573999Y-71483361D01*
X115573999Y-71388123D01*
X115621618Y-71292885D01*
X115669237Y-71245266D01*
X115764475Y-71197647D01*
X115954951Y-71150028D01*
X116193046Y-71150028D01*
X116383522Y-71197647D01*
X116478760Y-71245266D01*
X116526380Y-71292885D01*
X116573999Y-71388123D01*
X116240665Y-72578600D02*
X115573999Y-72578600D01*
X116621618Y-72340504D02*
X115907332Y-72102409D01*
X115907332Y-72721457D01*
G04 #@! TO.C,U16*
X131813999Y-87279552D02*
X131813999Y-87946219D01*
X130813999Y-87517647D01*
X131480665Y-88755742D02*
X130813999Y-88755742D01*
X131861618Y-88517647D02*
X131147332Y-88279552D01*
X131147332Y-88898600D01*
X130813999Y-89755742D02*
X130813999Y-89279552D01*
X131813999Y-89279552D01*
X130861618Y-90041457D02*
X130813999Y-90184314D01*
X130813999Y-90422409D01*
X130861618Y-90517647D01*
X130909237Y-90565266D01*
X131004475Y-90612885D01*
X131099713Y-90612885D01*
X131194951Y-90565266D01*
X131242570Y-90517647D01*
X131290189Y-90422409D01*
X131337808Y-90231933D01*
X131385427Y-90136695D01*
X131433046Y-90089076D01*
X131528284Y-90041457D01*
X131623522Y-90041457D01*
X131718760Y-90089076D01*
X131766380Y-90136695D01*
X131813999Y-90231933D01*
X131813999Y-90470028D01*
X131766380Y-90612885D01*
X130813999Y-91565266D02*
X130813999Y-90993838D01*
X130813999Y-91279552D02*
X131813999Y-91279552D01*
X131671141Y-91184314D01*
X131575903Y-91089076D01*
X131528284Y-90993838D01*
X131813999Y-91898600D02*
X131813999Y-92517647D01*
X131433046Y-92184314D01*
X131433046Y-92327171D01*
X131385427Y-92422409D01*
X131337808Y-92470028D01*
X131242570Y-92517647D01*
X131004475Y-92517647D01*
X130909237Y-92470028D01*
X130861618Y-92422409D01*
X130813999Y-92327171D01*
X130813999Y-92041457D01*
X130861618Y-91946219D01*
X130909237Y-91898600D01*
X130813999Y-92993838D02*
X130813999Y-93184314D01*
X130861618Y-93279552D01*
X130909237Y-93327171D01*
X131052094Y-93422409D01*
X131242570Y-93470028D01*
X131623522Y-93470028D01*
X131718760Y-93422409D01*
X131766380Y-93374790D01*
X131813999Y-93279552D01*
X131813999Y-93089076D01*
X131766380Y-92993838D01*
X131718760Y-92946219D01*
X131623522Y-92898600D01*
X131385427Y-92898600D01*
X131290189Y-92946219D01*
X131242570Y-92993838D01*
X131194951Y-93089076D01*
X131194951Y-93279552D01*
X131242570Y-93374790D01*
X131290189Y-93422409D01*
X131385427Y-93470028D01*
G04 #@! TO.C,U14*
X162293999Y-107599552D02*
X162293999Y-108266219D01*
X161293999Y-107837647D01*
X161960665Y-109075742D02*
X161293999Y-109075742D01*
X162341618Y-108837647D02*
X161627332Y-108599552D01*
X161627332Y-109218600D01*
X161293999Y-110075742D02*
X161293999Y-109599552D01*
X162293999Y-109599552D01*
X161341618Y-110361457D02*
X161293999Y-110504314D01*
X161293999Y-110742409D01*
X161341618Y-110837647D01*
X161389237Y-110885266D01*
X161484475Y-110932885D01*
X161579713Y-110932885D01*
X161674951Y-110885266D01*
X161722570Y-110837647D01*
X161770189Y-110742409D01*
X161817808Y-110551933D01*
X161865427Y-110456695D01*
X161913046Y-110409076D01*
X162008284Y-110361457D01*
X162103522Y-110361457D01*
X162198760Y-110409076D01*
X162246380Y-110456695D01*
X162293999Y-110551933D01*
X162293999Y-110790028D01*
X162246380Y-110932885D01*
X162293999Y-111837647D02*
X162293999Y-111361457D01*
X161817808Y-111313838D01*
X161865427Y-111361457D01*
X161913046Y-111456695D01*
X161913046Y-111694790D01*
X161865427Y-111790028D01*
X161817808Y-111837647D01*
X161722570Y-111885266D01*
X161484475Y-111885266D01*
X161389237Y-111837647D01*
X161341618Y-111790028D01*
X161293999Y-111694790D01*
X161293999Y-111456695D01*
X161341618Y-111361457D01*
X161389237Y-111313838D01*
X162293999Y-112218600D02*
X162293999Y-112885266D01*
X161293999Y-112456695D01*
X162293999Y-113170980D02*
X162293999Y-113790028D01*
X161913046Y-113456695D01*
X161913046Y-113599552D01*
X161865427Y-113694790D01*
X161817808Y-113742409D01*
X161722570Y-113790028D01*
X161484475Y-113790028D01*
X161389237Y-113742409D01*
X161341618Y-113694790D01*
X161293999Y-113599552D01*
X161293999Y-113313838D01*
X161341618Y-113218600D01*
X161389237Y-113170980D01*
G04 #@! TO.C,U13*
X121653999Y-107599552D02*
X121653999Y-108266219D01*
X120653999Y-107837647D01*
X121320665Y-109075742D02*
X120653999Y-109075742D01*
X121701618Y-108837647D02*
X120987332Y-108599552D01*
X120987332Y-109218600D01*
X120653999Y-110075742D02*
X120653999Y-109599552D01*
X121653999Y-109599552D01*
X120701618Y-110361457D02*
X120653999Y-110504314D01*
X120653999Y-110742409D01*
X120701618Y-110837647D01*
X120749237Y-110885266D01*
X120844475Y-110932885D01*
X120939713Y-110932885D01*
X121034951Y-110885266D01*
X121082570Y-110837647D01*
X121130189Y-110742409D01*
X121177808Y-110551933D01*
X121225427Y-110456695D01*
X121273046Y-110409076D01*
X121368284Y-110361457D01*
X121463522Y-110361457D01*
X121558760Y-110409076D01*
X121606380Y-110456695D01*
X121653999Y-110551933D01*
X121653999Y-110790028D01*
X121606380Y-110932885D01*
X120653999Y-111885266D02*
X120653999Y-111313838D01*
X120653999Y-111599552D02*
X121653999Y-111599552D01*
X121511141Y-111504314D01*
X121415903Y-111409076D01*
X121368284Y-111313838D01*
X121558760Y-112266219D02*
X121606380Y-112313838D01*
X121653999Y-112409076D01*
X121653999Y-112647171D01*
X121606380Y-112742409D01*
X121558760Y-112790028D01*
X121463522Y-112837647D01*
X121368284Y-112837647D01*
X121225427Y-112790028D01*
X120653999Y-112218600D01*
X120653999Y-112837647D01*
X121653999Y-113742409D02*
X121653999Y-113266219D01*
X121177808Y-113218600D01*
X121225427Y-113266219D01*
X121273046Y-113361457D01*
X121273046Y-113599552D01*
X121225427Y-113694790D01*
X121177808Y-113742409D01*
X121082570Y-113790028D01*
X120844475Y-113790028D01*
X120749237Y-113742409D01*
X120701618Y-113694790D01*
X120653999Y-113599552D01*
X120653999Y-113361457D01*
X120701618Y-113266219D01*
X120749237Y-113218600D01*
G04 #@! TO.C,U11*
X91725999Y-117759552D02*
X91725999Y-118426219D01*
X90725999Y-117997647D01*
X91392665Y-119235742D02*
X90725999Y-119235742D01*
X91773618Y-118997647D02*
X91059332Y-118759552D01*
X91059332Y-119378600D01*
X90725999Y-120235742D02*
X90725999Y-119759552D01*
X91725999Y-119759552D01*
X90773618Y-120521457D02*
X90725999Y-120664314D01*
X90725999Y-120902409D01*
X90773618Y-120997647D01*
X90821237Y-121045266D01*
X90916475Y-121092885D01*
X91011713Y-121092885D01*
X91106951Y-121045266D01*
X91154570Y-120997647D01*
X91202189Y-120902409D01*
X91249808Y-120711933D01*
X91297427Y-120616695D01*
X91345046Y-120569076D01*
X91440284Y-120521457D01*
X91535522Y-120521457D01*
X91630760Y-120569076D01*
X91678380Y-120616695D01*
X91725999Y-120711933D01*
X91725999Y-120950028D01*
X91678380Y-121092885D01*
X91630760Y-121473838D02*
X91678380Y-121521457D01*
X91725999Y-121616695D01*
X91725999Y-121854790D01*
X91678380Y-121950028D01*
X91630760Y-121997647D01*
X91535522Y-122045266D01*
X91440284Y-122045266D01*
X91297427Y-121997647D01*
X90725999Y-121426219D01*
X90725999Y-122045266D01*
X91392665Y-122902409D02*
X90725999Y-122902409D01*
X91773618Y-122664314D02*
X91059332Y-122426219D01*
X91059332Y-123045266D01*
X91725999Y-123902409D02*
X91725999Y-123426219D01*
X91249808Y-123378600D01*
X91297427Y-123426219D01*
X91345046Y-123521457D01*
X91345046Y-123759552D01*
X91297427Y-123854790D01*
X91249808Y-123902409D01*
X91154570Y-123950028D01*
X90916475Y-123950028D01*
X90821237Y-123902409D01*
X90773618Y-123854790D01*
X90725999Y-123759552D01*
X90725999Y-123521457D01*
X90773618Y-123426219D01*
X90821237Y-123378600D01*
G04 #@! TO.C,U9*
X202933999Y-87279552D02*
X202933999Y-87946219D01*
X201933999Y-87517647D01*
X202600665Y-88755742D02*
X201933999Y-88755742D01*
X202981618Y-88517647D02*
X202267332Y-88279552D01*
X202267332Y-88898600D01*
X201933999Y-89755742D02*
X201933999Y-89279552D01*
X202933999Y-89279552D01*
X201981618Y-90041457D02*
X201933999Y-90184314D01*
X201933999Y-90422409D01*
X201981618Y-90517647D01*
X202029237Y-90565266D01*
X202124475Y-90612885D01*
X202219713Y-90612885D01*
X202314951Y-90565266D01*
X202362570Y-90517647D01*
X202410189Y-90422409D01*
X202457808Y-90231933D01*
X202505427Y-90136695D01*
X202553046Y-90089076D01*
X202648284Y-90041457D01*
X202743522Y-90041457D01*
X202838760Y-90089076D01*
X202886380Y-90136695D01*
X202933999Y-90231933D01*
X202933999Y-90470028D01*
X202886380Y-90612885D01*
X202838760Y-90993838D02*
X202886380Y-91041457D01*
X202933999Y-91136695D01*
X202933999Y-91374790D01*
X202886380Y-91470028D01*
X202838760Y-91517647D01*
X202743522Y-91565266D01*
X202648284Y-91565266D01*
X202505427Y-91517647D01*
X201933999Y-90946219D01*
X201933999Y-91565266D01*
X202600665Y-92422409D02*
X201933999Y-92422409D01*
X202981618Y-92184314D02*
X202267332Y-91946219D01*
X202267332Y-92565266D01*
X202933999Y-93422409D02*
X202933999Y-92946219D01*
X202457808Y-92898600D01*
X202505427Y-92946219D01*
X202553046Y-93041457D01*
X202553046Y-93279552D01*
X202505427Y-93374790D01*
X202457808Y-93422409D01*
X202362570Y-93470028D01*
X202124475Y-93470028D01*
X202029237Y-93422409D01*
X201981618Y-93374790D01*
X201933999Y-93279552D01*
X201933999Y-93041457D01*
X201981618Y-92946219D01*
X202029237Y-92898600D01*
G04 #@! TO.C,U8*
X119113999Y-97439552D02*
X119113999Y-98106219D01*
X118113999Y-97677647D01*
X118780665Y-98915742D02*
X118113999Y-98915742D01*
X119161618Y-98677647D02*
X118447332Y-98439552D01*
X118447332Y-99058600D01*
X118113999Y-99915742D02*
X118113999Y-99439552D01*
X119113999Y-99439552D01*
X118161618Y-100201457D02*
X118113999Y-100344314D01*
X118113999Y-100582409D01*
X118161618Y-100677647D01*
X118209237Y-100725266D01*
X118304475Y-100772885D01*
X118399713Y-100772885D01*
X118494951Y-100725266D01*
X118542570Y-100677647D01*
X118590189Y-100582409D01*
X118637808Y-100391933D01*
X118685427Y-100296695D01*
X118733046Y-100249076D01*
X118828284Y-100201457D01*
X118923522Y-100201457D01*
X119018760Y-100249076D01*
X119066380Y-100296695D01*
X119113999Y-100391933D01*
X119113999Y-100630028D01*
X119066380Y-100772885D01*
X119018760Y-101153838D02*
X119066380Y-101201457D01*
X119113999Y-101296695D01*
X119113999Y-101534790D01*
X119066380Y-101630028D01*
X119018760Y-101677647D01*
X118923522Y-101725266D01*
X118828284Y-101725266D01*
X118685427Y-101677647D01*
X118113999Y-101106219D01*
X118113999Y-101725266D01*
X119113999Y-102630028D02*
X119113999Y-102153838D01*
X118637808Y-102106219D01*
X118685427Y-102153838D01*
X118733046Y-102249076D01*
X118733046Y-102487171D01*
X118685427Y-102582409D01*
X118637808Y-102630028D01*
X118542570Y-102677647D01*
X118304475Y-102677647D01*
X118209237Y-102630028D01*
X118161618Y-102582409D01*
X118113999Y-102487171D01*
X118113999Y-102249076D01*
X118161618Y-102153838D01*
X118209237Y-102106219D01*
X119113999Y-103010980D02*
X119113999Y-103677647D01*
X118113999Y-103249076D01*
G04 #@! TO.C,U5*
X139005427Y-72364790D02*
X139053046Y-72269552D01*
X139100665Y-72221933D01*
X139195903Y-72174314D01*
X139243522Y-72174314D01*
X139338760Y-72221933D01*
X139386380Y-72269552D01*
X139433999Y-72364790D01*
X139433999Y-72555266D01*
X139386380Y-72650504D01*
X139338760Y-72698123D01*
X139243522Y-72745742D01*
X139195903Y-72745742D01*
X139100665Y-72698123D01*
X139053046Y-72650504D01*
X139005427Y-72555266D01*
X139005427Y-72364790D01*
X138957808Y-72269552D01*
X138910189Y-72221933D01*
X138814951Y-72174314D01*
X138624475Y-72174314D01*
X138529237Y-72221933D01*
X138481618Y-72269552D01*
X138433999Y-72364790D01*
X138433999Y-72555266D01*
X138481618Y-72650504D01*
X138529237Y-72698123D01*
X138624475Y-72745742D01*
X138814951Y-72745742D01*
X138910189Y-72698123D01*
X138957808Y-72650504D01*
X139005427Y-72555266D01*
X139433999Y-73364790D02*
X139433999Y-73460028D01*
X139386380Y-73555266D01*
X139338760Y-73602885D01*
X139243522Y-73650504D01*
X139053046Y-73698123D01*
X138814951Y-73698123D01*
X138624475Y-73650504D01*
X138529237Y-73602885D01*
X138481618Y-73555266D01*
X138433999Y-73460028D01*
X138433999Y-73364790D01*
X138481618Y-73269552D01*
X138529237Y-73221933D01*
X138624475Y-73174314D01*
X138814951Y-73126695D01*
X139053046Y-73126695D01*
X139243522Y-73174314D01*
X139338760Y-73221933D01*
X139386380Y-73269552D01*
X139433999Y-73364790D01*
X139005427Y-74269552D02*
X139053046Y-74174314D01*
X139100665Y-74126695D01*
X139195903Y-74079076D01*
X139243522Y-74079076D01*
X139338760Y-74126695D01*
X139386380Y-74174314D01*
X139433999Y-74269552D01*
X139433999Y-74460028D01*
X139386380Y-74555266D01*
X139338760Y-74602885D01*
X139243522Y-74650504D01*
X139195903Y-74650504D01*
X139100665Y-74602885D01*
X139053046Y-74555266D01*
X139005427Y-74460028D01*
X139005427Y-74269552D01*
X138957808Y-74174314D01*
X138910189Y-74126695D01*
X138814951Y-74079076D01*
X138624475Y-74079076D01*
X138529237Y-74126695D01*
X138481618Y-74174314D01*
X138433999Y-74269552D01*
X138433999Y-74460028D01*
X138481618Y-74555266D01*
X138529237Y-74602885D01*
X138624475Y-74650504D01*
X138814951Y-74650504D01*
X138910189Y-74602885D01*
X138957808Y-74555266D01*
X139005427Y-74460028D01*
X139433999Y-75507647D02*
X139433999Y-75317171D01*
X139386380Y-75221933D01*
X139338760Y-75174314D01*
X139195903Y-75079076D01*
X139005427Y-75031457D01*
X138624475Y-75031457D01*
X138529237Y-75079076D01*
X138481618Y-75126695D01*
X138433999Y-75221933D01*
X138433999Y-75412409D01*
X138481618Y-75507647D01*
X138529237Y-75555266D01*
X138624475Y-75602885D01*
X138862570Y-75602885D01*
X138957808Y-75555266D01*
X139005427Y-75507647D01*
X139053046Y-75412409D01*
X139053046Y-75221933D01*
X139005427Y-75126695D01*
X138957808Y-75079076D01*
X138862570Y-75031457D01*
G04 #@! TO.C,U4*
X200393999Y-107599552D02*
X200393999Y-108266219D01*
X199393999Y-107837647D01*
X200060665Y-109075742D02*
X199393999Y-109075742D01*
X200441618Y-108837647D02*
X199727332Y-108599552D01*
X199727332Y-109218600D01*
X199393999Y-110075742D02*
X199393999Y-109599552D01*
X200393999Y-109599552D01*
X199441618Y-110361457D02*
X199393999Y-110504314D01*
X199393999Y-110742409D01*
X199441618Y-110837647D01*
X199489237Y-110885266D01*
X199584475Y-110932885D01*
X199679713Y-110932885D01*
X199774951Y-110885266D01*
X199822570Y-110837647D01*
X199870189Y-110742409D01*
X199917808Y-110551933D01*
X199965427Y-110456695D01*
X200013046Y-110409076D01*
X200108284Y-110361457D01*
X200203522Y-110361457D01*
X200298760Y-110409076D01*
X200346380Y-110456695D01*
X200393999Y-110551933D01*
X200393999Y-110790028D01*
X200346380Y-110932885D01*
X200298760Y-111313838D02*
X200346380Y-111361457D01*
X200393999Y-111456695D01*
X200393999Y-111694790D01*
X200346380Y-111790028D01*
X200298760Y-111837647D01*
X200203522Y-111885266D01*
X200108284Y-111885266D01*
X199965427Y-111837647D01*
X199393999Y-111266219D01*
X199393999Y-111885266D01*
X200060665Y-112742409D02*
X199393999Y-112742409D01*
X200441618Y-112504314D02*
X199727332Y-112266219D01*
X199727332Y-112885266D01*
X200393999Y-113742409D02*
X200393999Y-113266219D01*
X199917808Y-113218600D01*
X199965427Y-113266219D01*
X200013046Y-113361457D01*
X200013046Y-113599552D01*
X199965427Y-113694790D01*
X199917808Y-113742409D01*
X199822570Y-113790028D01*
X199584475Y-113790028D01*
X199489237Y-113742409D01*
X199441618Y-113694790D01*
X199393999Y-113599552D01*
X199393999Y-113361457D01*
X199441618Y-113266219D01*
X199489237Y-113218600D01*
G04 #@! TO.C,U3*
X182613999Y-117759552D02*
X182613999Y-118426219D01*
X181613999Y-117997647D01*
X182280665Y-119235742D02*
X181613999Y-119235742D01*
X182661618Y-118997647D02*
X181947332Y-118759552D01*
X181947332Y-119378600D01*
X181613999Y-120235742D02*
X181613999Y-119759552D01*
X182613999Y-119759552D01*
X181661618Y-120521457D02*
X181613999Y-120664314D01*
X181613999Y-120902409D01*
X181661618Y-120997647D01*
X181709237Y-121045266D01*
X181804475Y-121092885D01*
X181899713Y-121092885D01*
X181994951Y-121045266D01*
X182042570Y-120997647D01*
X182090189Y-120902409D01*
X182137808Y-120711933D01*
X182185427Y-120616695D01*
X182233046Y-120569076D01*
X182328284Y-120521457D01*
X182423522Y-120521457D01*
X182518760Y-120569076D01*
X182566380Y-120616695D01*
X182613999Y-120711933D01*
X182613999Y-120950028D01*
X182566380Y-121092885D01*
X182613999Y-121997647D02*
X182613999Y-121521457D01*
X182137808Y-121473838D01*
X182185427Y-121521457D01*
X182233046Y-121616695D01*
X182233046Y-121854790D01*
X182185427Y-121950028D01*
X182137808Y-121997647D01*
X182042570Y-122045266D01*
X181804475Y-122045266D01*
X181709237Y-121997647D01*
X181661618Y-121950028D01*
X181613999Y-121854790D01*
X181613999Y-121616695D01*
X181661618Y-121521457D01*
X181709237Y-121473838D01*
X182613999Y-122378600D02*
X182613999Y-123045266D01*
X181613999Y-122616695D01*
X182613999Y-123330980D02*
X182613999Y-123950028D01*
X182233046Y-123616695D01*
X182233046Y-123759552D01*
X182185427Y-123854790D01*
X182137808Y-123902409D01*
X182042570Y-123950028D01*
X181804475Y-123950028D01*
X181709237Y-123902409D01*
X181661618Y-123854790D01*
X181613999Y-123759552D01*
X181613999Y-123473838D01*
X181661618Y-123378600D01*
X181709237Y-123330980D01*
G04 #@! TO.C,U1*
X220285427Y-78714790D02*
X220333046Y-78619552D01*
X220380665Y-78571933D01*
X220475903Y-78524314D01*
X220523522Y-78524314D01*
X220618760Y-78571933D01*
X220666380Y-78619552D01*
X220713999Y-78714790D01*
X220713999Y-78905266D01*
X220666380Y-79000504D01*
X220618760Y-79048123D01*
X220523522Y-79095742D01*
X220475903Y-79095742D01*
X220380665Y-79048123D01*
X220333046Y-79000504D01*
X220285427Y-78905266D01*
X220285427Y-78714790D01*
X220237808Y-78619552D01*
X220190189Y-78571933D01*
X220094951Y-78524314D01*
X219904475Y-78524314D01*
X219809237Y-78571933D01*
X219761618Y-78619552D01*
X219713999Y-78714790D01*
X219713999Y-78905266D01*
X219761618Y-79000504D01*
X219809237Y-79048123D01*
X219904475Y-79095742D01*
X220094951Y-79095742D01*
X220190189Y-79048123D01*
X220237808Y-79000504D01*
X220285427Y-78905266D01*
X220618760Y-79476695D02*
X220666380Y-79524314D01*
X220713999Y-79619552D01*
X220713999Y-79857647D01*
X220666380Y-79952885D01*
X220618760Y-80000504D01*
X220523522Y-80048123D01*
X220428284Y-80048123D01*
X220285427Y-80000504D01*
X219713999Y-79429076D01*
X219713999Y-80048123D01*
X220285427Y-80619552D02*
X220333046Y-80524314D01*
X220380665Y-80476695D01*
X220475903Y-80429076D01*
X220523522Y-80429076D01*
X220618760Y-80476695D01*
X220666380Y-80524314D01*
X220713999Y-80619552D01*
X220713999Y-80810028D01*
X220666380Y-80905266D01*
X220618760Y-80952885D01*
X220523522Y-81000504D01*
X220475903Y-81000504D01*
X220380665Y-80952885D01*
X220333046Y-80905266D01*
X220285427Y-80810028D01*
X220285427Y-80619552D01*
X220237808Y-80524314D01*
X220190189Y-80476695D01*
X220094951Y-80429076D01*
X219904475Y-80429076D01*
X219809237Y-80476695D01*
X219761618Y-80524314D01*
X219713999Y-80619552D01*
X219713999Y-80810028D01*
X219761618Y-80905266D01*
X219809237Y-80952885D01*
X219904475Y-81000504D01*
X220094951Y-81000504D01*
X220190189Y-80952885D01*
X220237808Y-80905266D01*
X220285427Y-80810028D01*
X220380665Y-81857647D02*
X219713999Y-81857647D01*
X220761618Y-81619552D02*
X220047332Y-81381457D01*
X220047332Y-82000504D01*
G04 #@! TO.C,*
G04 #@! TD*
M02*
