M48
; DRILL file {KiCad (5.1.8)-1} date 12/28/21 18:56:54
; FORMAT={-:-/ absolute / inch / decimal}
; #@! TF.CreationDate,2021-12-28T18:56:54-07:00
; #@! TF.GenerationSoftware,Kicad,Pcbnew,(5.1.8)-1
; #@! TF.FileFunction,Plated,1,2,PTH
FMAT,2
INCH
T1C0.0157
T2C0.0300
T3C0.0315
T4C0.0354
T5C0.0394
T6C0.0433
T7C0.0709
T8C0.0800
T9C0.1000
T10C0.1560
%
G90
G05
T1
X-1.03Y-2.61
X-1.03Y-6.99
X-1.0Y-4.65
X-1.0Y-6.96
X-0.97Y-3.65
X-0.97Y-6.93
X-0.81Y-6.99
X-0.81Y-8.63
X-0.81Y-8.93
X-0.69Y-6.96
X-0.69Y-8.88
X-0.57Y-6.93
X-0.57Y-9.03
X-0.5Y-7.43
X-0.47Y-3.31
X-0.47Y-7.33
X-0.44Y-3.41
X-0.41Y-3.51
X-0.38Y-3.21
X-0.35Y-7.53
X-0.3Y-6.85
X-0.3Y-7.95
X-0.3Y-8.33
X-0.3Y-8.53
X-0.3Y-8.63
X-0.3Y-8.83
X-0.3Y-9.15
X-0.24Y-1.85
X-0.24Y-9.11
X-0.21Y-8.08
X-0.21Y-9.03
X-0.19Y-7.33
X-0.19Y-7.58
X-0.19Y-7.63
X-0.19Y-7.78
X0.0Y-7.12
X0.0Y-7.71
X0.0Y-8.22
X0.0Y-8.31
X0.0Y-8.98
X0.2Y-9.02
X0.3Y-7.43
X0.3Y-7.67
X0.3Y-8.83
X0.33Y-3.71
X0.33Y-7.33
X0.36Y-3.81
X0.39Y-3.91
X0.42Y-3.61
X0.45Y-7.53
X0.51Y-8.53
X0.51Y-8.93
X0.54Y-8.63
X0.54Y-9.03
X0.56Y-6.65
X0.56Y-7.12
X0.56Y-7.73
X0.6Y-8.35
X0.6Y-8.43
X0.6Y-8.53
X0.6Y-8.73
X0.6Y-8.83
X0.62Y-7.33
X0.62Y-7.58
X0.79Y-8.2
X0.79Y-8.93
X0.82Y-8.48
X0.95Y-3.65
X1.0Y-8.73
X1.03Y-7.12
X1.03Y-7.73
X1.09Y-8.11
X1.09Y-8.68
X1.1Y-7.43
X1.13Y-4.01
X1.13Y-7.33
X1.16Y-4.11
X1.17Y-1.75
X1.19Y-4.21
X1.22Y-4.31
X1.25Y-7.53
X1.26Y-3.45
X1.26Y-3.51
X1.28Y-7.83
X1.28Y-8.05
X1.3Y-8.71
X1.3Y-9.11
X1.34Y-3.25
X1.38Y-2.95
X1.38Y-7.01
X1.42Y-2.25
X1.42Y-7.33
X1.42Y-7.48
X1.45Y-1.85
X1.63Y-7.88
X1.63Y-8.63
X1.78Y-4.58
X1.92Y-8.17
X1.92Y-8.53
X1.98Y-8.28
X2.06Y-1.75
X2.06Y-2.65
X2.06Y-4.75
X2.06Y-6.85
X2.1Y-1.95
X2.1Y-4.55
X2.1Y-6.65
X2.1Y-8.63
X2.19Y-7.64
X2.19Y-8.53
X2.22Y-4.61
X2.22Y-6.96
X2.22Y-7.98
X2.22Y-8.73
X2.25Y-4.71
X2.25Y-6.93
X2.33Y-6.96
X2.33Y-7.98
X2.36Y-6.93
X2.36Y-8.63
X2.39Y-8.14
X2.39Y-8.83
X2.44Y-1.43
X2.51Y-7.35
X2.51Y-7.48
X2.54Y-1.3999
X2.54Y-7.51
X2.54Y-7.78
X2.57Y-6.81
X2.64Y-1.37
X2.65Y-8.58
X2.65Y-8.93
X2.68Y-8.0
X2.68Y-8.73
X2.72Y-5.04
X2.72Y-8.83
X2.73Y-1.43
X2.73Y-1.95
X2.74Y-1.34
X2.77Y-1.4
X2.77Y-2.75
X2.79Y-5.01
X2.8Y-1.37
X2.8Y-2.85
X2.82Y-7.21
X2.82Y-8.08
X2.83Y-3.05
X2.85Y-7.31
X2.85Y-8.11
X2.86Y-1.34
X2.86Y-2.95
X2.89Y-1.71
X2.89Y-8.17
X2.92Y-1.34
X2.92Y-4.25
X2.92Y-5.95
X2.92Y-7.61
X2.95Y-3.55
X2.96Y-6.92
X2.96Y-9.03
X2.98Y-3.35
X2.99Y-6.95
X2.99Y-8.83
X3.01Y-1.37
X3.01Y-3.15
X3.02Y-6.98
X3.02Y-8.73
X3.14Y-1.34
X3.24Y-1.37
X3.35Y-6.89
X3.35Y-7.81
X3.4Y-8.45
X3.4Y-8.88
X3.43Y-8.74
X3.43Y-8.91
X3.51Y-1.98
X3.51Y-1.67
X3.52Y-2.71
X3.52Y-4.51
X3.52Y-7.63
X3.52Y-7.85
X3.55Y-1.51
X3.55Y-7.21
X3.55Y-8.11
X3.58Y-2.81
X3.58Y-7.28
X3.58Y-7.43
X3.58Y-7.75
X3.6Y-1.98
X3.61Y-5.01
X3.61Y-5.88
X3.61Y-6.45
X3.61Y-7.01
X3.63Y-2.38
X3.64Y-5.04
X3.64Y-8.08
X3.65Y-7.01
X3.66Y-8.51
X3.69Y-2.9
X3.69Y-1.58
X3.7Y-6.31
X3.7Y-6.48
X3.7Y-8.61
X3.7Y-8.71
X3.7Y-9.11
X3.73Y-6.21
X3.73Y-6.28
X3.74Y-8.48
X3.76Y-6.41
X3.76Y-6.78
X3.79Y-3.03
X3.79Y-6.95
X3.8Y-8.41
X3.8Y-8.51
X3.82Y-2.98
X3.82Y-3.58
X3.82Y-6.98
X3.83Y-8.08
X3.83Y-8.62
X3.84Y-1.67
X3.84Y-2.76
X3.84Y-7.65
X3.85Y-2.84
X3.87Y-6.89
X3.8701Y-2.53
X3.9Y-3.04
X3.9Y-3.48
X3.9Y-7.01
X3.93Y-2.63
X3.95Y-6.92
X3.99Y-2.76
X4.0Y-5.46
X4.0Y-5.79
X4.0Y-6.68
X4.05Y-2.75
X4.05Y-8.14
X4.08Y-2.78
X4.08Y-8.2
X4.09Y-1.58
X4.11Y-3.43
X4.11Y-8.05
X4.12Y-2.96
X4.14Y-6.58
X4.14Y-7.07
X4.16Y-1.81
X4.16Y-1.91
X4.16Y-2.01
X4.16Y-2.11
X4.16Y-2.21
X4.16Y-2.31
X4.16Y-2.41
X4.16Y-2.51
X4.16Y-3.7
X4.16Y-4.78
X4.16Y-4.94
X4.16Y-6.38
X4.16Y-6.97
X4.18Y-6.18
X4.18Y-6.87
X4.2Y-1.91
X4.2Y-2.01
X4.2Y-2.11
X4.2Y-2.21
X4.2Y-2.31
X4.2Y-2.41
X4.2Y-2.51
X4.2Y-2.61
X4.24Y-2.88
X4.24Y-3.12
X4.24Y-4.54
X4.28Y-1.85
X4.28Y-8.81
X4.34Y-3.99
X4.34Y-4.38
X4.44Y-2.72
X4.44Y-3.87
X4.46Y-4.18
X4.46Y-4.54
X4.47Y-1.95
X4.47Y-3.48
X4.5Y-2.05
X4.5Y-3.58
X4.53Y-1.51
X4.53Y-1.78
X4.53Y-2.13
X4.53Y-2.75
X4.5585Y-3.18
X4.56Y-1.64
X4.58Y-3.38
X4.59Y-1.67
X4.6085Y-3.08
X4.62Y-1.7
X4.63Y-2.02
X4.63Y-3.34
X4.63Y-2.69
X4.66Y-4.74
X4.66Y-1.83
X4.66Y-2.13
X4.66Y-2.18
X4.66Y-2.43
X4.69Y-2.08
X4.69Y-2.28
X4.72Y-2.18
X4.72Y-2.58
X4.72Y-2.88
X4.73Y-2.02
X4.75Y-1.59
X4.75Y-2.48
X4.75Y-2.98
X4.81Y-3.18
X4.85Y-2.38
X4.85Y-3.08
X4.85Y-5.62
X4.85Y-6.77
X4.85Y-7.23
X4.88Y-8.28
X4.9Y-3.28
X4.95Y-1.98
X4.95Y-3.38
X4.98Y-6.68
X5.0Y-1.93
X5.0Y-3.48
X5.05Y-1.89
X5.05Y-3.58
X5.09Y-1.3
X5.09Y-8.32
X5.1Y-1.68
X5.1Y-2.93
X5.1Y-3.7
X5.1Y-5.535
X5.1316Y-8.6116
X5.15Y-2.78
X5.21Y-1.42
X5.25Y-2.84
X5.25Y-1.65
X5.25Y-1.92
X5.3Y-1.62
X5.3Y-5.62
X5.32Y-1.55
X5.33Y-8.28
X5.33Y-8.71
X5.35Y-1.98
X5.35Y-2.81
X5.47Y-5.08
X5.47Y-5.41
X5.5554Y-5.04
T2
X-1.56Y-5.13
X-1.56Y-5.23
X-1.56Y-5.33
X-1.56Y-5.43
X-1.56Y-5.53
X-1.56Y-5.63
X-1.56Y-5.73
X-1.56Y-5.83
X-1.56Y-5.93
X-1.56Y-6.03
X-1.56Y-6.13
X-1.56Y-6.23
X-1.56Y-6.33
X-1.56Y-6.43
X-1.56Y-6.53
X-1.56Y-6.63
X-1.56Y-6.73
X-1.56Y-6.83
X-1.36Y-5.13
X-1.36Y-5.23
X-1.36Y-5.33
X-1.36Y-5.43
X-1.36Y-5.53
X-1.36Y-5.63
X-1.36Y-5.73
X-1.36Y-5.83
X-1.36Y-5.93
X-1.36Y-6.03
X-1.36Y-6.13
X-1.36Y-6.23
X-1.36Y-6.33
X-1.36Y-6.43
X-1.36Y-6.53
X-1.36Y-6.63
X-1.36Y-6.73
X-1.36Y-6.83
X3.37Y-1.49
X5.19Y-5.7
X3.24Y-1.73
X3.24Y-1.83
X3.24Y-1.93
X3.24Y-2.03
X3.24Y-2.13
X3.24Y-2.23
X3.24Y-2.33
X3.24Y-2.43
X3.24Y-2.53
X3.24Y-2.63
X3.24Y-2.73
X3.24Y-2.83
X3.24Y-2.93
X3.24Y-3.03
X3.24Y-3.13
X3.24Y-3.23
X3.24Y-3.33
X3.24Y-3.43
X3.24Y-3.53
X3.24Y-3.63
X3.24Y-3.73
X3.24Y-3.83
X3.24Y-3.93
X3.24Y-4.03
X3.24Y-4.13
X3.24Y-4.23
X3.24Y-4.33
X3.24Y-4.43
X3.24Y-4.53
X3.24Y-4.63
X3.24Y-4.73
X3.44Y-1.73
X3.44Y-1.83
X3.44Y-1.93
X3.44Y-2.03
X3.44Y-2.13
X3.44Y-2.23
X3.44Y-2.33
X3.44Y-2.43
X3.44Y-2.53
X3.44Y-2.63
X3.44Y-2.73
X3.44Y-2.83
X3.44Y-2.93
X3.44Y-3.03
X3.44Y-3.13
X3.44Y-3.23
X3.44Y-3.33
X3.44Y-3.43
X3.44Y-3.53
X3.44Y-3.63
X3.44Y-3.73
X3.44Y-3.83
X3.44Y-3.93
X3.44Y-4.03
X3.44Y-4.13
X3.44Y-4.23
X3.44Y-4.33
X3.44Y-4.43
X3.44Y-4.53
X3.44Y-4.63
X3.44Y-4.73
X2.44Y-1.73
X2.44Y-1.83
X2.44Y-1.93
X2.44Y-2.03
X2.44Y-2.13
X2.44Y-2.23
X2.44Y-2.33
X2.44Y-2.43
X2.44Y-2.53
X2.44Y-2.63
X2.44Y-2.73
X2.44Y-2.83
X2.44Y-2.93
X2.44Y-3.03
X2.44Y-3.13
X2.44Y-3.23
X2.44Y-3.33
X2.44Y-3.43
X2.44Y-3.53
X2.44Y-3.63
X2.44Y-3.73
X2.44Y-3.83
X2.44Y-3.93
X2.44Y-4.03
X2.44Y-4.13
X2.44Y-4.23
X2.44Y-4.33
X2.44Y-4.43
X2.44Y-4.53
X2.44Y-4.63
X2.44Y-4.73
X2.64Y-1.73
X2.64Y-1.83
X2.64Y-1.93
X2.64Y-2.03
X2.64Y-2.13
X2.64Y-2.23
X2.64Y-2.33
X2.64Y-2.43
X2.64Y-2.53
X2.64Y-2.63
X2.64Y-2.73
X2.64Y-2.83
X2.64Y-2.93
X2.64Y-3.03
X2.64Y-3.13
X2.64Y-3.23
X2.64Y-3.33
X2.64Y-3.43
X2.64Y-3.53
X2.64Y-3.63
X2.64Y-3.73
X2.64Y-3.83
X2.64Y-3.93
X2.64Y-4.03
X2.64Y-4.13
X2.64Y-4.23
X2.64Y-4.33
X2.64Y-4.43
X2.64Y-4.53
X2.64Y-4.63
X2.64Y-4.73
X-0.76Y-1.73
X-0.76Y-1.83
X-0.76Y-1.93
X-0.76Y-2.03
X-0.76Y-2.13
X-0.76Y-2.23
X-0.76Y-2.33
X-0.76Y-2.43
X-0.76Y-2.53
X-0.76Y-2.63
X-0.76Y-2.73
X-0.76Y-2.83
X-0.76Y-2.93
X-0.76Y-3.03
X-0.76Y-3.13
X-0.76Y-3.23
X-0.76Y-3.33
X-0.76Y-3.43
X-0.76Y-3.53
X-0.76Y-3.63
X-0.76Y-3.73
X-0.76Y-3.83
X-0.76Y-3.93
X-0.76Y-4.03
X-0.76Y-4.13
X-0.76Y-4.23
X-0.76Y-4.33
X-0.76Y-4.43
X-0.76Y-4.53
X-0.76Y-4.63
X-0.76Y-4.73
X-0.56Y-1.73
X-0.56Y-1.83
X-0.56Y-1.93
X-0.56Y-2.03
X-0.56Y-2.13
X-0.56Y-2.23
X-0.56Y-2.33
X-0.56Y-2.43
X-0.56Y-2.53
X-0.56Y-2.63
X-0.56Y-2.73
X-0.56Y-2.83
X-0.56Y-2.93
X-0.56Y-3.03
X-0.56Y-3.13
X-0.56Y-3.23
X-0.56Y-3.33
X-0.56Y-3.43
X-0.56Y-3.53
X-0.56Y-3.63
X-0.56Y-3.73
X-0.56Y-3.83
X-0.56Y-3.93
X-0.56Y-4.03
X-0.56Y-4.13
X-0.56Y-4.23
X-0.56Y-4.33
X-0.56Y-4.43
X-0.56Y-4.53
X-0.56Y-4.63
X-0.56Y-4.73
X3.31Y-1.59
X1.64Y-1.73
X1.64Y-1.83
X1.64Y-1.93
X1.64Y-2.03
X1.64Y-2.13
X1.64Y-2.23
X1.64Y-2.33
X1.64Y-2.43
X1.64Y-2.53
X1.64Y-2.63
X1.64Y-2.73
X1.64Y-2.83
X1.64Y-2.93
X1.64Y-3.03
X1.64Y-3.13
X1.64Y-3.23
X1.64Y-3.33
X1.64Y-3.43
X1.64Y-3.53
X1.64Y-3.63
X1.64Y-3.73
X1.64Y-3.83
X1.64Y-3.93
X1.64Y-4.03
X1.64Y-4.13
X1.64Y-4.23
X1.64Y-4.33
X1.64Y-4.43
X1.64Y-4.53
X1.64Y-4.63
X1.64Y-4.73
X1.84Y-1.73
X1.84Y-1.83
X1.84Y-1.93
X1.84Y-2.03
X1.84Y-2.13
X1.84Y-2.23
X1.84Y-2.33
X1.84Y-2.43
X1.84Y-2.53
X1.84Y-2.63
X1.84Y-2.73
X1.84Y-2.83
X1.84Y-2.93
X1.84Y-3.03
X1.84Y-3.13
X1.84Y-3.23
X1.84Y-3.33
X1.84Y-3.43
X1.84Y-3.53
X1.84Y-3.63
X1.84Y-3.73
X1.84Y-3.83
X1.84Y-3.93
X1.84Y-4.03
X1.84Y-4.13
X1.84Y-4.23
X1.84Y-4.33
X1.84Y-4.43
X1.84Y-4.53
X1.84Y-4.63
X1.84Y-4.73
X-0.69Y-1.59
X-1.43Y-1.49
X2.57Y-1.49
X0.84Y-5.13
X0.84Y-5.23
X0.84Y-5.33
X0.84Y-5.43
X0.84Y-5.53
X0.84Y-5.63
X0.84Y-5.73
X0.84Y-5.83
X0.84Y-5.93
X0.84Y-6.03
X0.84Y-6.13
X0.84Y-6.23
X0.84Y-6.33
X0.84Y-6.43
X0.84Y-6.53
X0.84Y-6.63
X0.84Y-6.73
X0.84Y-6.83
X1.04Y-5.13
X1.04Y-5.23
X1.04Y-5.33
X1.04Y-5.43
X1.04Y-5.53
X1.04Y-5.63
X1.04Y-5.73
X1.04Y-5.83
X1.04Y-5.93
X1.04Y-6.03
X1.04Y-6.13
X1.04Y-6.23
X1.04Y-6.33
X1.04Y-6.43
X1.04Y-6.53
X1.04Y-6.63
X1.04Y-6.73
X1.04Y-6.83
X5.12Y-1.07
X5.12Y-1.168
X5.203Y-1.07
X5.305Y-1.07
X5.388Y-1.07
X5.388Y-1.168
X5.19Y-4.81
X0.04Y-1.73
X0.04Y-1.83
X0.04Y-1.93
X0.04Y-2.03
X0.04Y-2.13
X0.04Y-2.23
X0.04Y-2.33
X0.04Y-2.43
X0.04Y-2.53
X0.04Y-2.63
X0.04Y-2.73
X0.04Y-2.83
X0.04Y-2.93
X0.04Y-3.03
X0.04Y-3.13
X0.04Y-3.23
X0.04Y-3.33
X0.04Y-3.43
X0.04Y-3.53
X0.04Y-3.63
X0.04Y-3.73
X0.04Y-3.83
X0.04Y-3.93
X0.04Y-4.03
X0.04Y-4.13
X0.04Y-4.23
X0.04Y-4.33
X0.04Y-4.43
X0.04Y-4.53
X0.04Y-4.63
X0.04Y-4.73
X0.24Y-1.73
X0.24Y-1.83
X0.24Y-1.93
X0.24Y-2.03
X0.24Y-2.13
X0.24Y-2.23
X0.24Y-2.33
X0.24Y-2.43
X0.24Y-2.53
X0.24Y-2.63
X0.24Y-2.73
X0.24Y-2.83
X0.24Y-2.93
X0.24Y-3.03
X0.24Y-3.13
X0.24Y-3.23
X0.24Y-3.33
X0.24Y-3.43
X0.24Y-3.53
X0.24Y-3.63
X0.24Y-3.73
X0.24Y-3.83
X0.24Y-3.93
X0.24Y-4.03
X0.24Y-4.13
X0.24Y-4.23
X0.24Y-4.33
X0.24Y-4.43
X0.24Y-4.53
X0.24Y-4.63
X0.24Y-4.73
X1.71Y-1.59
X2.44Y-5.13
X2.44Y-5.23
X2.44Y-5.33
X2.44Y-5.43
X2.44Y-5.53
X2.44Y-5.63
X2.44Y-5.73
X2.44Y-5.83
X2.44Y-5.93
X2.44Y-6.03
X2.44Y-6.13
X2.44Y-6.23
X2.44Y-6.33
X2.44Y-6.43
X2.44Y-6.53
X2.44Y-6.63
X2.44Y-6.73
X2.44Y-6.83
X2.64Y-5.13
X2.64Y-5.23
X2.64Y-5.33
X2.64Y-5.43
X2.64Y-5.53
X2.64Y-5.63
X2.64Y-5.73
X2.64Y-5.83
X2.64Y-5.93
X2.64Y-6.03
X2.64Y-6.13
X2.64Y-6.23
X2.64Y-6.33
X2.64Y-6.43
X2.64Y-6.53
X2.64Y-6.63
X2.64Y-6.73
X2.64Y-6.83
X0.84Y-1.73
X0.84Y-1.83
X0.84Y-1.93
X0.84Y-2.03
X0.84Y-2.13
X0.84Y-2.23
X0.84Y-2.33
X0.84Y-2.43
X0.84Y-2.53
X0.84Y-2.63
X0.84Y-2.73
X0.84Y-2.83
X0.84Y-2.93
X0.84Y-3.03
X0.84Y-3.13
X0.84Y-3.23
X0.84Y-3.33
X0.84Y-3.43
X0.84Y-3.53
X0.84Y-3.63
X0.84Y-3.73
X0.84Y-3.83
X0.84Y-3.93
X0.84Y-4.03
X0.84Y-4.13
X0.84Y-4.23
X0.84Y-4.33
X0.84Y-4.43
X0.84Y-4.53
X0.84Y-4.63
X0.84Y-4.73
X1.04Y-1.73
X1.04Y-1.83
X1.04Y-1.93
X1.04Y-2.03
X1.04Y-2.13
X1.04Y-2.23
X1.04Y-2.33
X1.04Y-2.43
X1.04Y-2.53
X1.04Y-2.63
X1.04Y-2.73
X1.04Y-2.83
X1.04Y-2.93
X1.04Y-3.03
X1.04Y-3.13
X1.04Y-3.23
X1.04Y-3.33
X1.04Y-3.43
X1.04Y-3.53
X1.04Y-3.63
X1.04Y-3.73
X1.04Y-3.83
X1.04Y-3.93
X1.04Y-4.03
X1.04Y-4.13
X1.04Y-4.23
X1.04Y-4.33
X1.04Y-4.43
X1.04Y-4.53
X1.04Y-4.63
X1.04Y-4.73
X2.98Y-4.88
X0.11Y-1.59
X5.26Y-8.5131
X5.26Y-8.6116
X5.26Y-8.71
X5.4962Y-8.5131
X5.4962Y-8.6116
X5.4962Y-8.71
X0.97Y-1.49
X2.51Y-1.59
X2.44Y-7.23
X2.44Y-7.33
X2.44Y-7.43
X2.44Y-7.53
X2.44Y-7.63
X2.44Y-7.73
X2.44Y-7.83
X2.44Y-7.93
X2.64Y-7.23
X2.64Y-7.33
X2.64Y-7.43
X2.64Y-7.53
X2.64Y-7.63
X2.64Y-7.73
X2.64Y-7.83
X2.64Y-7.93
X1.77Y-1.49
X5.19Y-4.9
X-0.76Y-5.13
X-0.76Y-5.23
X-0.76Y-5.33
X-0.76Y-5.43
X-0.76Y-5.53
X-0.76Y-5.63
X-0.76Y-5.73
X-0.76Y-5.83
X-0.76Y-5.93
X-0.76Y-6.03
X-0.76Y-6.13
X-0.76Y-6.23
X-0.76Y-6.33
X-0.76Y-6.43
X-0.76Y-6.53
X-0.76Y-6.63
X-0.76Y-6.73
X-0.76Y-6.83
X-0.56Y-5.13
X-0.56Y-5.23
X-0.56Y-5.33
X-0.56Y-5.43
X-0.56Y-5.53
X-0.56Y-5.63
X-0.56Y-5.73
X-0.56Y-5.83
X-0.56Y-5.93
X-0.56Y-6.03
X-0.56Y-6.13
X-0.56Y-6.23
X-0.56Y-6.33
X-0.56Y-6.43
X-0.56Y-6.53
X-0.56Y-6.63
X-0.56Y-6.73
X-0.56Y-6.83
X0.17Y-1.49
X-1.56Y-1.73
X-1.56Y-1.83
X-1.56Y-1.93
X-1.56Y-2.03
X-1.56Y-2.13
X-1.56Y-2.23
X-1.56Y-2.33
X-1.56Y-2.43
X-1.56Y-2.53
X-1.56Y-2.63
X-1.56Y-2.73
X-1.56Y-2.83
X-1.56Y-2.93
X-1.56Y-3.03
X-1.56Y-3.13
X-1.56Y-3.23
X-1.56Y-3.33
X-1.56Y-3.43
X-1.56Y-3.53
X-1.56Y-3.63
X-1.56Y-3.73
X-1.56Y-3.83
X-1.56Y-3.93
X-1.56Y-4.03
X-1.56Y-4.13
X-1.56Y-4.23
X-1.56Y-4.33
X-1.56Y-4.43
X-1.56Y-4.53
X-1.56Y-4.63
X-1.56Y-4.73
X-1.36Y-1.73
X-1.36Y-1.83
X-1.36Y-1.93
X-1.36Y-2.03
X-1.36Y-2.13
X-1.36Y-2.23
X-1.36Y-2.33
X-1.36Y-2.43
X-1.36Y-2.53
X-1.36Y-2.63
X-1.36Y-2.73
X-1.36Y-2.83
X-1.36Y-2.93
X-1.36Y-3.03
X-1.36Y-3.13
X-1.36Y-3.23
X-1.36Y-3.33
X-1.36Y-3.43
X-1.36Y-3.53
X-1.36Y-3.63
X-1.36Y-3.73
X-1.36Y-3.83
X-1.36Y-3.93
X-1.36Y-4.03
X-1.36Y-4.13
X-1.36Y-4.23
X-1.36Y-4.33
X-1.36Y-4.43
X-1.36Y-4.53
X-1.36Y-4.63
X-1.36Y-4.73
X1.64Y-5.13
X1.64Y-5.23
X1.64Y-5.33
X1.64Y-5.43
X1.64Y-5.53
X1.64Y-5.63
X1.64Y-5.73
X1.64Y-5.83
X1.64Y-5.93
X1.64Y-6.03
X1.64Y-6.13
X1.64Y-6.23
X1.64Y-6.33
X1.64Y-6.43
X1.64Y-6.53
X1.64Y-6.63
X1.64Y-6.73
X1.64Y-6.83
X1.84Y-5.13
X1.84Y-5.23
X1.84Y-5.33
X1.84Y-5.43
X1.84Y-5.53
X1.84Y-5.63
X1.84Y-5.73
X1.84Y-5.83
X1.84Y-5.93
X1.84Y-6.03
X1.84Y-6.13
X1.84Y-6.23
X1.84Y-6.33
X1.84Y-6.43
X1.84Y-6.53
X1.84Y-6.63
X1.84Y-6.73
X1.84Y-6.83
X0.04Y-5.13
X0.04Y-5.23
X0.04Y-5.33
X0.04Y-5.43
X0.04Y-5.53
X0.04Y-5.63
X0.04Y-5.73
X0.04Y-5.83
X0.04Y-5.93
X0.04Y-6.03
X0.04Y-6.13
X0.04Y-6.23
X0.04Y-6.33
X0.04Y-6.43
X0.04Y-6.53
X0.04Y-6.63
X0.04Y-6.73
X0.04Y-6.83
X0.24Y-5.13
X0.24Y-5.23
X0.24Y-5.33
X0.24Y-5.43
X0.24Y-5.53
X0.24Y-5.63
X0.24Y-5.73
X0.24Y-5.83
X0.24Y-5.93
X0.24Y-6.03
X0.24Y-6.13
X0.24Y-6.23
X0.24Y-6.33
X0.24Y-6.43
X0.24Y-6.53
X0.24Y-6.63
X0.24Y-6.73
X0.24Y-6.83
X-0.63Y-1.49
X-1.49Y-1.59
X5.19Y-4.46
X0.91Y-1.59
X3.24Y-5.13
X3.24Y-5.23
X3.24Y-5.33
X3.24Y-5.43
X3.24Y-5.53
X3.24Y-5.63
X3.24Y-5.73
X3.24Y-5.83
X3.24Y-5.93
X3.24Y-6.03
X3.24Y-6.13
X3.24Y-6.23
X3.24Y-6.33
X3.24Y-6.43
X3.24Y-6.53
X3.24Y-6.63
X3.24Y-6.73
X3.24Y-6.83
X3.44Y-5.13
X3.44Y-5.23
X3.44Y-5.33
X3.44Y-5.43
X3.44Y-5.53
X3.44Y-5.63
X3.44Y-5.73
X3.44Y-5.83
X3.44Y-5.93
X3.44Y-6.03
X3.44Y-6.13
X3.44Y-6.23
X3.44Y-6.33
X3.44Y-6.43
X3.44Y-6.53
X3.44Y-6.63
X3.44Y-6.73
X3.44Y-6.83
X3.05Y-4.82
X3.24Y-7.23
X3.24Y-7.33
X3.24Y-7.43
X3.24Y-7.53
X3.24Y-7.63
X3.24Y-7.73
X3.24Y-7.83
X3.24Y-7.93
X3.44Y-7.23
X3.44Y-7.33
X3.44Y-7.43
X3.44Y-7.53
X3.44Y-7.63
X3.44Y-7.73
X3.44Y-7.83
X3.44Y-7.93
T3
X3.6931Y-8.3
X3.89Y-8.3
X0.39Y-7.23
X0.39Y-7.33
X0.39Y-7.43
X0.39Y-7.53
X0.39Y-7.63
X0.39Y-7.73
X0.39Y-7.83
X0.39Y-7.93
X0.69Y-7.23
X0.69Y-7.33
X0.69Y-7.43
X0.69Y-7.53
X0.69Y-7.63
X0.69Y-7.73
X0.69Y-7.83
X0.69Y-7.93
X-0.57Y-8.32
X-0.57Y-8.72
X4.09Y-1.73
X4.09Y-1.83
X4.09Y-1.93
X4.09Y-2.03
X4.09Y-2.13
X4.09Y-2.23
X4.09Y-2.33
X4.09Y-2.43
X4.09Y-2.53
X4.09Y-2.63
X4.39Y-1.73
X4.39Y-1.83
X4.39Y-1.93
X4.39Y-2.03
X4.39Y-2.13
X4.39Y-2.23
X4.39Y-2.33
X4.39Y-2.43
X4.39Y-2.53
X4.39Y-2.63
X1.0Y-8.53
X1.0Y-8.93
X-0.41Y-8.33
X-0.41Y-8.43
X-0.41Y-8.53
X-0.41Y-8.63
X-0.41Y-8.73
X-0.41Y-8.83
X-0.41Y-8.93
X-0.41Y-9.03
X-0.41Y-9.13
X-0.11Y-8.33
X-0.11Y-8.43
X-0.11Y-8.53
X-0.11Y-8.63
X-0.11Y-8.73
X-0.11Y-8.83
X-0.11Y-8.93
X-0.11Y-9.03
X-0.11Y-9.13
X1.52Y-4.55
X1.52Y-4.7469
X3.7931Y-2.9
X3.99Y-2.9
X4.16Y-3.87
X4.56Y-3.87
X4.16Y-3.99
X4.56Y-3.99
X0.4931Y-8.3
X0.69Y-8.3
X0.2Y-8.77
X0.2Y-9.17
X2.79Y-8.43
X2.79Y-8.53
X2.79Y-8.63
X2.79Y-8.73
X2.79Y-8.83
X2.79Y-8.93
X2.79Y-9.03
X3.09Y-8.43
X3.09Y-8.53
X3.09Y-8.63
X3.09Y-8.73
X3.09Y-8.83
X3.09Y-8.93
X3.09Y-9.03
X-0.3069Y-7.1
X-0.11Y-7.1
X1.73Y-8.8
X1.73Y-9.2
X3.12Y-4.55
X3.12Y-4.7469
X-0.08Y-1.76
X-0.08Y-1.9569
X-1.24Y-6.65
X-1.24Y-6.8469
X1.17Y-1.26
X1.27Y-1.26
X1.37Y-1.26
X1.47Y-1.26
X4.36Y-6.77
X4.36Y-6.87
X4.36Y-6.97
X4.36Y-7.07
X4.36Y-5.79
X4.36Y-5.89
X4.36Y-5.99
X4.36Y-6.09
X4.36Y-6.19
X4.36Y-6.29
X4.36Y-6.39
X4.36Y-6.49
X4.36Y-6.59
X0.14Y-8.3671
X0.14Y-8.56
X4.66Y-8.05
X5.06Y-8.05
X3.12Y-1.76
X3.12Y-1.9569
X3.12Y-6.65
X3.12Y-6.8469
X2.32Y-6.65
X2.32Y-6.8469
X1.2931Y-7.1
X1.49Y-7.1
X3.69Y-1.73
X3.69Y-1.83
X3.69Y-1.93
X3.69Y-2.03
X3.69Y-2.13
X3.69Y-2.23
X3.69Y-2.33
X3.69Y-2.43
X3.69Y-2.53
X3.69Y-2.63
X3.99Y-1.73
X3.99Y-1.83
X3.99Y-1.93
X3.99Y-2.03
X3.99Y-2.13
X3.99Y-2.23
X3.99Y-2.33
X3.99Y-2.43
X3.99Y-2.53
X3.99Y-2.63
X4.75Y-1.4189
X5.15Y-1.4189
X3.5898Y-8.4288
X3.5898Y-8.5288
X3.5898Y-8.6288
X3.5898Y-8.7288
X3.5898Y-8.8288
X3.5898Y-8.9288
X3.5898Y-9.0288
X3.5898Y-9.1288
X3.8898Y-8.4288
X3.8898Y-8.5288
X3.8898Y-8.6288
X3.8898Y-8.7288
X3.8898Y-8.8288
X3.8898Y-8.9288
X3.8898Y-9.0288
X3.8898Y-9.1288
X0.4931Y-7.1
X0.69Y-7.1
X0.39Y-8.43
X0.39Y-8.53
X0.39Y-8.63
X0.39Y-8.73
X0.39Y-8.83
X0.39Y-8.93
X0.39Y-9.03
X0.69Y-8.43
X0.69Y-8.53
X0.69Y-8.63
X0.69Y-8.73
X0.69Y-8.83
X0.69Y-8.93
X0.69Y-9.03
X0.88Y-8.53
X0.88Y-8.93
X-1.24Y-1.76
X-1.24Y-1.9569
X-0.88Y-1.76
X-0.88Y-1.9569
X3.74Y-7.65
X3.74Y-7.75
X3.74Y-7.85
X3.74Y-7.95
X-0.3069Y-8.2
X-0.11Y-8.2
X-1.24Y-4.55
X-1.24Y-4.7469
X-0.69Y-8.32
X-0.69Y-8.72
X2.32Y-1.76
X2.32Y-1.9569
X1.19Y-7.23
X1.19Y-7.33
X1.19Y-7.43
X1.19Y-7.53
X1.19Y-7.63
X1.19Y-7.73
X1.19Y-7.83
X1.19Y-7.93
X1.49Y-7.23
X1.49Y-7.33
X1.49Y-7.43
X1.49Y-7.53
X1.49Y-7.63
X1.49Y-7.73
X1.49Y-7.83
X1.49Y-7.93
X5.18Y-2.93
X5.18Y-3.1269
X1.2931Y-8.3
X1.49Y-8.3
X0.08Y-8.77
X0.08Y-9.17
X1.52Y-1.76
X1.52Y-1.9569
X-0.88Y-6.65
X-0.88Y-6.8469
X4.16Y-4.18
X4.56Y-4.18
X-0.88Y-4.55
X-0.88Y-4.7469
X2.8931Y-8.3
X3.09Y-8.3
X1.99Y-8.43
X1.99Y-8.53
X1.99Y-8.63
X1.99Y-8.73
X1.99Y-8.83
X1.99Y-8.93
X1.99Y-9.03
X1.99Y-9.13
X2.29Y-8.43
X2.29Y-8.53
X2.29Y-8.63
X2.29Y-8.73
X2.29Y-8.83
X2.29Y-8.93
X2.29Y-9.03
X2.29Y-9.13
X3.69Y-3.03
X3.69Y-3.13
X3.69Y-3.23
X3.69Y-3.33
X3.69Y-3.43
X3.69Y-3.53
X3.69Y-3.63
X3.99Y-3.03
X3.99Y-3.13
X3.99Y-3.23
X3.99Y-3.33
X3.99Y-3.43
X3.99Y-3.53
X3.99Y-3.63
X4.66Y-8.17
X5.06Y-8.17
X4.8Y-1.83
X4.8Y-1.93
X4.8Y-2.03
X4.8Y-2.13
X4.8Y-2.23
X4.8Y-2.33
X4.9Y-1.73
X4.9Y-1.83
X4.9Y-1.93
X4.9Y-2.03
X4.9Y-2.13
X4.9Y-2.23
X4.9Y-2.33
X4.9Y-2.43
X5.0Y-1.73
X5.0Y-1.83
X5.0Y-2.33
X5.0Y-2.43
X5.1Y-1.73
X5.1Y-1.83
X5.1Y-2.33
X5.1Y-2.43
X5.2Y-1.73
X5.2Y-1.83
X5.2Y-2.33
X5.2Y-2.43
X5.3Y-1.73
X5.3Y-1.83
X5.3Y-2.33
X5.3Y-2.43
X5.4Y-1.73
X5.4Y-1.83
X5.4Y-1.93
X5.4Y-2.03
X5.4Y-2.13
X5.4Y-2.23
X5.4Y-2.33
X5.4Y-2.43
X5.5Y-1.83
X5.5Y-1.93
X5.5Y-2.03
X5.5Y-2.13
X5.5Y-2.23
X5.5Y-2.33
X5.0031Y-1.53
X5.2Y-1.53
X0.72Y-6.65
X0.72Y-6.8469
X3.7931Y-1.6
X3.99Y-1.6
X-0.08Y-6.65
X-0.08Y-6.8469
X0.72Y-4.55
X0.72Y-4.7469
X2.44Y-1.26
X2.54Y-1.26
X2.64Y-1.26
X2.74Y-1.26
X2.84Y-1.26
X2.94Y-1.26
X3.04Y-1.26
X3.14Y-1.26
X3.24Y-1.26
X4.1931Y-1.6
X4.39Y-1.6
X2.0931Y-8.3
X2.29Y-8.3
X-0.81Y-8.32
X-0.81Y-8.72
X4.75Y-1.3
X5.15Y-1.3
X1.19Y-8.43
X1.19Y-8.53
X1.19Y-8.63
X1.19Y-8.73
X1.19Y-8.83
X1.19Y-8.93
X1.19Y-9.03
X1.19Y-9.13
X1.49Y-8.43
X1.49Y-8.53
X1.49Y-8.63
X1.49Y-8.73
X1.49Y-8.83
X1.49Y-8.93
X1.49Y-9.03
X1.49Y-9.13
X2.32Y-4.55
X2.32Y-4.7469
X-0.08Y-4.55
X-0.08Y-4.7469
X1.52Y-6.65
X1.52Y-6.8469
X0.72Y-1.76
X0.72Y-1.9569
X-0.41Y-7.23
X-0.41Y-7.33
X-0.41Y-7.43
X-0.41Y-7.53
X-0.41Y-7.63
X-0.41Y-7.73
X-0.41Y-7.83
X-0.41Y-7.93
X-0.11Y-7.23
X-0.11Y-7.33
X-0.11Y-7.43
X-0.11Y-7.53
X-0.11Y-7.63
X-0.11Y-7.73
X-0.11Y-7.83
X-0.11Y-7.93
T4
X4.46Y-4.31
X4.46Y-4.41
T5
X5.01Y-8.61
X5.01Y-8.71
X5.34Y-2.93
X5.34Y-3.03
X5.34Y-3.13
X5.34Y-3.23
X5.34Y-3.33
X5.34Y-3.43
X5.34Y-3.53
X5.34Y-3.63
X5.44Y-2.93
X5.44Y-3.03
X5.44Y-3.13
X5.44Y-3.23
X5.44Y-3.33
X5.44Y-3.43
X5.44Y-3.53
X5.44Y-3.63
X4.79Y-9.16
X4.89Y-9.16
X4.99Y-9.16
X5.09Y-9.16
T6
X5.26Y-8.1
X5.26Y-8.2772
X5.5159Y-8.1
X5.5159Y-8.2772
T7
X5.39Y-4.13
X5.39Y-4.2954
X5.39Y-4.4607
X5.39Y-4.6261
X5.39Y-4.7914
X5.39Y-4.9568
X5.39Y-5.1221
X5.39Y-5.2875
X5.39Y-5.4528
X5.39Y-5.6182
X5.39Y-5.7835
X5.39Y-5.9489
X5.5554Y-4.13
X5.5554Y-4.2954
X5.5554Y-4.4607
X5.5554Y-4.6261
X5.5554Y-4.7914
X5.5554Y-4.9568
X5.5554Y-5.1221
X5.5554Y-5.2875
X5.5554Y-5.4528
X5.5554Y-5.6182
X5.5554Y-5.7835
X5.5554Y-5.9489
T8
X4.988Y-0.952
X5.52Y-0.952
T9
X5.254Y-0.92
T10
X3.84Y-7.23
X3.84Y-1.13
T0
M30
