%TF.GenerationSoftware,KiCad,Pcbnew,(5.1.8)-1*%
%TF.CreationDate,2022-06-03T11:47:02-06:00*%
%TF.ProjectId,Bus_Bridge,4275735f-4272-4696-9467-652e6b696361,rev?*%
%TF.SameCoordinates,Original*%
%TF.FileFunction,Copper,L2,Bot*%
%TF.FilePolarity,Positive*%
%FSLAX46Y46*%
G04 Gerber Fmt 4.6, Leading zero omitted, Abs format (unit mm)*
G04 Created by KiCad (PCBNEW (5.1.8)-1) date 2022-06-03 11:47:02*
%MOMM*%
%LPD*%
G01*
G04 APERTURE LIST*
%TA.AperFunction,ComponentPad*%
%ADD10O,1.700000X1.700000*%
%TD*%
%TA.AperFunction,ComponentPad*%
%ADD11R,1.700000X1.700000*%
%TD*%
%TA.AperFunction,ComponentPad*%
%ADD12O,1.600000X1.600000*%
%TD*%
%TA.AperFunction,ComponentPad*%
%ADD13R,1.600000X1.600000*%
%TD*%
%TA.AperFunction,ComponentPad*%
%ADD14C,1.600000*%
%TD*%
%TA.AperFunction,ViaPad*%
%ADD15C,0.800000*%
%TD*%
%TA.AperFunction,Conductor*%
%ADD16C,0.330200*%
%TD*%
%TA.AperFunction,Conductor*%
%ADD17C,0.250000*%
%TD*%
G04 APERTURE END LIST*
D10*
%TO.P,J6,8*%
%TO.N,/BUS_D7*%
X104140000Y-111760000D03*
%TO.P,J6,7*%
%TO.N,/BUS_D6*%
X104140000Y-109220000D03*
%TO.P,J6,6*%
%TO.N,/BUS_D5*%
X104140000Y-106680000D03*
%TO.P,J6,5*%
%TO.N,/BUS_D4*%
X104140000Y-104140000D03*
%TO.P,J6,4*%
%TO.N,/BUS_D3*%
X104140000Y-101600000D03*
%TO.P,J6,3*%
%TO.N,/BUS_D2*%
X104140000Y-99060000D03*
%TO.P,J6,2*%
%TO.N,/BUS_D1*%
X104140000Y-96520000D03*
D11*
%TO.P,J6,1*%
%TO.N,/BUS_D0*%
X104140000Y-93980000D03*
%TD*%
D10*
%TO.P,J5,8*%
%TO.N,/8_15_573_E*%
X104140000Y-142240000D03*
%TO.P,J5,7*%
%TO.N,/8_15_573_LATCH*%
X104140000Y-139700000D03*
%TO.P,J5,6*%
%TO.N,/GND*%
X104140000Y-137160000D03*
%TO.P,J5,5*%
%TO.N,Net-(J5-Pad5)*%
X104140000Y-134620000D03*
%TO.P,J5,4*%
%TO.N,Net-(J5-Pad4)*%
X104140000Y-132080000D03*
%TO.P,J5,3*%
%TO.N,/5+*%
X104140000Y-129540000D03*
%TO.P,J5,2*%
%TO.N,/0_7_573_E*%
X104140000Y-127000000D03*
D11*
%TO.P,J5,1*%
%TO.N,/0_7_573_LATCH*%
X104140000Y-124460000D03*
%TD*%
D10*
%TO.P,J4,8*%
%TO.N,/BUS_D15*%
X104140000Y-172720000D03*
%TO.P,J4,7*%
%TO.N,/BUS_D14*%
X104140000Y-170180000D03*
%TO.P,J4,6*%
%TO.N,/BUS_D13*%
X104140000Y-167640000D03*
%TO.P,J4,5*%
%TO.N,/BUS_D12*%
X104140000Y-165100000D03*
%TO.P,J4,4*%
%TO.N,/BUS_D11*%
X104140000Y-162560000D03*
%TO.P,J4,3*%
%TO.N,/BUS_D10*%
X104140000Y-160020000D03*
%TO.P,J4,2*%
%TO.N,/BUS_D9*%
X104140000Y-157480000D03*
D11*
%TO.P,J4,1*%
%TO.N,/BUS_D8*%
X104140000Y-154940000D03*
%TD*%
D10*
%TO.P,J3,8*%
%TO.N,/8_15_245_E*%
X81280000Y-142240000D03*
%TO.P,J3,7*%
%TO.N,/8_15_245_DIR*%
X81280000Y-139700000D03*
%TO.P,J3,6*%
%TO.N,/GND*%
X81280000Y-137160000D03*
%TO.P,J3,5*%
%TO.N,/BRIDGE_E*%
X81280000Y-134620000D03*
%TO.P,J3,4*%
%TO.N,/BRIDGE_DIR*%
X81280000Y-132080000D03*
%TO.P,J3,3*%
%TO.N,/5+*%
X81280000Y-129540000D03*
%TO.P,J3,2*%
%TO.N,/0_7_245_E*%
X81280000Y-127000000D03*
D11*
%TO.P,J3,1*%
%TO.N,/0_7_245_DIR*%
X81280000Y-124460000D03*
%TD*%
D10*
%TO.P,J2,8*%
%TO.N,/CPU_D15*%
X81280000Y-172720000D03*
%TO.P,J2,7*%
%TO.N,/CPU_D14*%
X81280000Y-170180000D03*
%TO.P,J2,6*%
%TO.N,/CPU_D13*%
X81280000Y-167640000D03*
%TO.P,J2,5*%
%TO.N,/CPU_D12*%
X81280000Y-165100000D03*
%TO.P,J2,4*%
%TO.N,/CPU_D11*%
X81280000Y-162560000D03*
%TO.P,J2,3*%
%TO.N,/CPU_D10*%
X81280000Y-160020000D03*
%TO.P,J2,2*%
%TO.N,/CPU_D9*%
X81280000Y-157480000D03*
D11*
%TO.P,J2,1*%
%TO.N,/CPU_D8*%
X81280000Y-154940000D03*
%TD*%
D10*
%TO.P,J1,8*%
%TO.N,/CPU_D7*%
X81280000Y-111760000D03*
%TO.P,J1,7*%
%TO.N,/CPU_D6*%
X81280000Y-109220000D03*
%TO.P,J1,6*%
%TO.N,/CPU_D5*%
X81280000Y-106680000D03*
%TO.P,J1,5*%
%TO.N,/CPU_D4*%
X81280000Y-104140000D03*
%TO.P,J1,4*%
%TO.N,/CPU_D3*%
X81280000Y-101600000D03*
%TO.P,J1,3*%
%TO.N,/CPU_D2*%
X81280000Y-99060000D03*
%TO.P,J1,2*%
%TO.N,/CPU_D1*%
X81280000Y-96520000D03*
D11*
%TO.P,J1,1*%
%TO.N,/CPU_D0*%
X81280000Y-93980000D03*
%TD*%
D12*
%TO.P,U5,20*%
%TO.N,/5+*%
X101600000Y-91440000D03*
%TO.P,U5,10*%
%TO.N,/GND*%
X93980000Y-114300000D03*
%TO.P,U5,19*%
%TO.N,/CPU_D0*%
X101600000Y-93980000D03*
%TO.P,U5,9*%
%TO.N,/BUS_D7*%
X93980000Y-111760000D03*
%TO.P,U5,18*%
%TO.N,/CPU_D1*%
X101600000Y-96520000D03*
%TO.P,U5,8*%
%TO.N,/BUS_D6*%
X93980000Y-109220000D03*
%TO.P,U5,17*%
%TO.N,/CPU_D2*%
X101600000Y-99060000D03*
%TO.P,U5,7*%
%TO.N,/BUS_D5*%
X93980000Y-106680000D03*
%TO.P,U5,16*%
%TO.N,/CPU_D3*%
X101600000Y-101600000D03*
%TO.P,U5,6*%
%TO.N,/BUS_D4*%
X93980000Y-104140000D03*
%TO.P,U5,15*%
%TO.N,/CPU_D4*%
X101600000Y-104140000D03*
%TO.P,U5,5*%
%TO.N,/BUS_D3*%
X93980000Y-101600000D03*
%TO.P,U5,14*%
%TO.N,/CPU_D5*%
X101600000Y-106680000D03*
%TO.P,U5,4*%
%TO.N,/BUS_D2*%
X93980000Y-99060000D03*
%TO.P,U5,13*%
%TO.N,/CPU_D6*%
X101600000Y-109220000D03*
%TO.P,U5,3*%
%TO.N,/BUS_D1*%
X93980000Y-96520000D03*
%TO.P,U5,12*%
%TO.N,/CPU_D7*%
X101600000Y-111760000D03*
%TO.P,U5,2*%
%TO.N,/BUS_D0*%
X93980000Y-93980000D03*
%TO.P,U5,11*%
%TO.N,/0_7_573_LATCH*%
X101600000Y-114300000D03*
D13*
%TO.P,U5,1*%
%TO.N,/0_7_573_E*%
X93980000Y-91440000D03*
%TD*%
D12*
%TO.P,U4,20*%
%TO.N,/5+*%
X101600000Y-152400000D03*
%TO.P,U4,10*%
%TO.N,/GND*%
X93980000Y-175260000D03*
%TO.P,U4,19*%
%TO.N,/CPU_D8*%
X101600000Y-154940000D03*
%TO.P,U4,9*%
%TO.N,/BUS_D15*%
X93980000Y-172720000D03*
%TO.P,U4,18*%
%TO.N,/CPU_D9*%
X101600000Y-157480000D03*
%TO.P,U4,8*%
%TO.N,/BUS_D14*%
X93980000Y-170180000D03*
%TO.P,U4,17*%
%TO.N,/CPU_D10*%
X101600000Y-160020000D03*
%TO.P,U4,7*%
%TO.N,/BUS_D13*%
X93980000Y-167640000D03*
%TO.P,U4,16*%
%TO.N,/CPU_D11*%
X101600000Y-162560000D03*
%TO.P,U4,6*%
%TO.N,/BUS_D12*%
X93980000Y-165100000D03*
%TO.P,U4,15*%
%TO.N,/CPU_D12*%
X101600000Y-165100000D03*
%TO.P,U4,5*%
%TO.N,/BUS_D11*%
X93980000Y-162560000D03*
%TO.P,U4,14*%
%TO.N,/CPU_D13*%
X101600000Y-167640000D03*
%TO.P,U4,4*%
%TO.N,/BUS_D10*%
X93980000Y-160020000D03*
%TO.P,U4,13*%
%TO.N,/CPU_D14*%
X101600000Y-170180000D03*
%TO.P,U4,3*%
%TO.N,/BUS_D9*%
X93980000Y-157480000D03*
%TO.P,U4,12*%
%TO.N,/CPU_D15*%
X101600000Y-172720000D03*
%TO.P,U4,2*%
%TO.N,/BUS_D8*%
X93980000Y-154940000D03*
%TO.P,U4,11*%
%TO.N,/8_15_573_LATCH*%
X101600000Y-175260000D03*
D13*
%TO.P,U4,1*%
%TO.N,/8_15_573_E*%
X93980000Y-152400000D03*
%TD*%
D12*
%TO.P,U3,20*%
%TO.N,/5+*%
X91440000Y-121920000D03*
%TO.P,U3,10*%
%TO.N,/GND*%
X83820000Y-144780000D03*
%TO.P,U3,19*%
%TO.N,/BRIDGE_E*%
X91440000Y-124460000D03*
%TO.P,U3,9*%
%TO.N,/BUS_D15*%
X83820000Y-142240000D03*
%TO.P,U3,18*%
%TO.N,/BUS_D0*%
X91440000Y-127000000D03*
%TO.P,U3,8*%
%TO.N,/BUS_D14*%
X83820000Y-139700000D03*
%TO.P,U3,17*%
%TO.N,/BUS_D1*%
X91440000Y-129540000D03*
%TO.P,U3,7*%
%TO.N,/BUS_D13*%
X83820000Y-137160000D03*
%TO.P,U3,16*%
%TO.N,/BUS_D2*%
X91440000Y-132080000D03*
%TO.P,U3,6*%
%TO.N,/BUS_D12*%
X83820000Y-134620000D03*
%TO.P,U3,15*%
%TO.N,/BUS_D3*%
X91440000Y-134620000D03*
%TO.P,U3,5*%
%TO.N,/BUS_D11*%
X83820000Y-132080000D03*
%TO.P,U3,14*%
%TO.N,/BUS_D4*%
X91440000Y-137160000D03*
%TO.P,U3,4*%
%TO.N,/BUS_D10*%
X83820000Y-129540000D03*
%TO.P,U3,13*%
%TO.N,/BUS_D5*%
X91440000Y-139700000D03*
%TO.P,U3,3*%
%TO.N,/BUS_D9*%
X83820000Y-127000000D03*
%TO.P,U3,12*%
%TO.N,/BUS_D6*%
X91440000Y-142240000D03*
%TO.P,U3,2*%
%TO.N,/BUS_D8*%
X83820000Y-124460000D03*
%TO.P,U3,11*%
%TO.N,/BUS_D7*%
X91440000Y-144780000D03*
D13*
%TO.P,U3,1*%
%TO.N,/BRIDGE_DIR*%
X83820000Y-121920000D03*
%TD*%
D12*
%TO.P,U2,20*%
%TO.N,/5+*%
X91440000Y-152400000D03*
%TO.P,U2,10*%
%TO.N,/GND*%
X83820000Y-175260000D03*
%TO.P,U2,19*%
%TO.N,/8_15_245_E*%
X91440000Y-154940000D03*
%TO.P,U2,9*%
%TO.N,/CPU_D15*%
X83820000Y-172720000D03*
%TO.P,U2,18*%
%TO.N,/BUS_D8*%
X91440000Y-157480000D03*
%TO.P,U2,8*%
%TO.N,/CPU_D14*%
X83820000Y-170180000D03*
%TO.P,U2,17*%
%TO.N,/BUS_D9*%
X91440000Y-160020000D03*
%TO.P,U2,7*%
%TO.N,/CPU_D13*%
X83820000Y-167640000D03*
%TO.P,U2,16*%
%TO.N,/BUS_D10*%
X91440000Y-162560000D03*
%TO.P,U2,6*%
%TO.N,/CPU_D12*%
X83820000Y-165100000D03*
%TO.P,U2,15*%
%TO.N,/BUS_D11*%
X91440000Y-165100000D03*
%TO.P,U2,5*%
%TO.N,/CPU_D11*%
X83820000Y-162560000D03*
%TO.P,U2,14*%
%TO.N,/BUS_D12*%
X91440000Y-167640000D03*
%TO.P,U2,4*%
%TO.N,/CPU_D10*%
X83820000Y-160020000D03*
%TO.P,U2,13*%
%TO.N,/BUS_D13*%
X91440000Y-170180000D03*
%TO.P,U2,3*%
%TO.N,/CPU_D9*%
X83820000Y-157480000D03*
%TO.P,U2,12*%
%TO.N,/BUS_D14*%
X91440000Y-172720000D03*
%TO.P,U2,2*%
%TO.N,/CPU_D8*%
X83820000Y-154940000D03*
%TO.P,U2,11*%
%TO.N,/BUS_D15*%
X91440000Y-175260000D03*
D13*
%TO.P,U2,1*%
%TO.N,/8_15_245_DIR*%
X83820000Y-152400000D03*
%TD*%
D12*
%TO.P,U1,20*%
%TO.N,/5+*%
X91440000Y-91440000D03*
%TO.P,U1,10*%
%TO.N,/GND*%
X83820000Y-114300000D03*
%TO.P,U1,19*%
%TO.N,/0_7_245_E*%
X91440000Y-93980000D03*
%TO.P,U1,9*%
%TO.N,/CPU_D7*%
X83820000Y-111760000D03*
%TO.P,U1,18*%
%TO.N,/BUS_D0*%
X91440000Y-96520000D03*
%TO.P,U1,8*%
%TO.N,/CPU_D6*%
X83820000Y-109220000D03*
%TO.P,U1,17*%
%TO.N,/BUS_D1*%
X91440000Y-99060000D03*
%TO.P,U1,7*%
%TO.N,/CPU_D5*%
X83820000Y-106680000D03*
%TO.P,U1,16*%
%TO.N,/BUS_D2*%
X91440000Y-101600000D03*
%TO.P,U1,6*%
%TO.N,/CPU_D4*%
X83820000Y-104140000D03*
%TO.P,U1,15*%
%TO.N,/BUS_D3*%
X91440000Y-104140000D03*
%TO.P,U1,5*%
%TO.N,/CPU_D3*%
X83820000Y-101600000D03*
%TO.P,U1,14*%
%TO.N,/BUS_D4*%
X91440000Y-106680000D03*
%TO.P,U1,4*%
%TO.N,/CPU_D2*%
X83820000Y-99060000D03*
%TO.P,U1,13*%
%TO.N,/BUS_D5*%
X91440000Y-109220000D03*
%TO.P,U1,3*%
%TO.N,/CPU_D1*%
X83820000Y-96520000D03*
%TO.P,U1,12*%
%TO.N,/BUS_D6*%
X91440000Y-111760000D03*
%TO.P,U1,2*%
%TO.N,/CPU_D0*%
X83820000Y-93980000D03*
%TO.P,U1,11*%
%TO.N,/BUS_D7*%
X91440000Y-114300000D03*
D13*
%TO.P,U1,1*%
%TO.N,/0_7_245_DIR*%
X83820000Y-91440000D03*
%TD*%
D14*
%TO.P,C5,2*%
%TO.N,/GND*%
X96600000Y-88392000D03*
%TO.P,C5,1*%
%TO.N,/5+*%
X101600000Y-88392000D03*
%TD*%
%TO.P,C4,2*%
%TO.N,/GND*%
X96600000Y-146812000D03*
%TO.P,C4,1*%
%TO.N,/5+*%
X101600000Y-146812000D03*
%TD*%
%TO.P,C3,2*%
%TO.N,/GND*%
X86440000Y-118872000D03*
%TO.P,C3,1*%
%TO.N,/5+*%
X91440000Y-118872000D03*
%TD*%
%TO.P,C2,2*%
%TO.N,/GND*%
X96440000Y-149352000D03*
%TO.P,C2,1*%
%TO.N,/5+*%
X91440000Y-149352000D03*
%TD*%
%TO.P,C1,2*%
%TO.N,/GND*%
X86440000Y-88392000D03*
%TO.P,C1,1*%
%TO.N,/5+*%
X91440000Y-88392000D03*
%TD*%
D15*
%TO.N,/GND*%
X93218000Y-89408000D03*
X86614000Y-114808000D03*
X94742000Y-146812000D03*
X94742000Y-135890000D03*
X96520000Y-175260000D03*
%TO.N,/5+*%
X99822000Y-88900000D03*
X89408000Y-128270000D03*
X89408000Y-88392000D03*
X89408000Y-118872000D03*
X101600000Y-148082000D03*
X101600000Y-129540000D03*
%TO.N,/8_15_245_DIR*%
X85090000Y-140970000D03*
%TO.N,/BRIDGE_E*%
X93472000Y-133350000D03*
X93472000Y-124460000D03*
%TO.N,/BRIDGE_DIR*%
X88138000Y-130810000D03*
X87122000Y-121920000D03*
%TO.N,/0_7_245_E*%
X88138000Y-94488000D03*
X88138000Y-125730000D03*
%TO.N,/0_7_245_DIR*%
X85598000Y-91440000D03*
X85598000Y-116332000D03*
X81280000Y-116332000D03*
%TO.N,/BUS_D14*%
X88646000Y-173228000D03*
X89154000Y-140208000D03*
%TO.N,/BUS_D13*%
X88138000Y-170688000D03*
X88646000Y-137668000D03*
%TO.N,/BUS_D12*%
X87630000Y-168148000D03*
X88138000Y-134874000D03*
%TO.N,/BUS_D11*%
X87122000Y-165608000D03*
X87630000Y-132588000D03*
%TO.N,/BUS_D10*%
X86614000Y-163068000D03*
X87122000Y-130048000D03*
%TO.N,/BUS_D9*%
X86106000Y-160528000D03*
X86614000Y-127254000D03*
%TO.N,/BUS_D8*%
X85598000Y-157988000D03*
X85852000Y-124968000D03*
%TO.N,/8_15_573_LATCH*%
X100584000Y-139700000D03*
X99568000Y-175260000D03*
%TO.N,/0_7_573_E*%
X95504000Y-91440000D03*
X95250000Y-125984000D03*
%TO.N,/0_7_573_LATCH*%
X104140000Y-114300000D03*
%TO.N,/BUS_D6*%
X99314000Y-109728000D03*
X98806000Y-142240000D03*
%TO.N,/BUS_D5*%
X98806000Y-107188000D03*
X98298000Y-139700000D03*
%TO.N,/BUS_D4*%
X98298000Y-104648000D03*
X97790000Y-137160000D03*
%TO.N,/BUS_D3*%
X97790000Y-102108000D03*
X97282000Y-134620000D03*
%TO.N,/BUS_D2*%
X97282000Y-99568000D03*
X96774000Y-132080000D03*
%TO.N,/BUS_D1*%
X96774000Y-97028000D03*
X96266000Y-129540000D03*
%TO.N,/BUS_D0*%
X96012000Y-94488000D03*
X95758000Y-127000000D03*
%TO.N,/BUS_D7*%
X99822000Y-112268000D03*
X99568000Y-144780000D03*
%TO.N,/8_15_245_E*%
X90170000Y-147828000D03*
X81280000Y-147828000D03*
%TO.N,/BUS_D15*%
X89408000Y-175768000D03*
X89662000Y-142748000D03*
%TO.N,/8_15_573_E*%
X93726000Y-143510000D03*
%TD*%
D16*
%TO.N,/GND*%
X96600000Y-88392000D02*
X96520000Y-88392000D01*
X86440000Y-88392000D02*
X86360000Y-88392000D01*
X96600000Y-88392000D02*
X95584000Y-89408000D01*
X95584000Y-89408000D02*
X93218000Y-89408000D01*
X86614000Y-88994000D02*
X86614000Y-114808000D01*
X86440000Y-88820000D02*
X86614000Y-88994000D01*
X86614000Y-118698000D02*
X86440000Y-118872000D01*
X86440000Y-88392000D02*
X86440000Y-88820000D01*
X86614000Y-114808000D02*
X86614000Y-118698000D01*
X96600000Y-149192000D02*
X96440000Y-149352000D01*
X96600000Y-146812000D02*
X96600000Y-149192000D01*
X96440000Y-149352000D02*
X96440000Y-149526000D01*
X96440000Y-149526000D02*
X96520000Y-149606000D01*
X96520000Y-149606000D02*
X96520000Y-175260000D01*
X94742000Y-128016000D02*
X94742000Y-146812000D01*
X94234000Y-127508000D02*
X94742000Y-128016000D01*
X94234000Y-125222000D02*
X94234000Y-127508000D01*
X94742000Y-124714000D02*
X94234000Y-125222000D01*
X94742000Y-115062000D02*
X94742000Y-124714000D01*
X93980000Y-114300000D02*
X94742000Y-115062000D01*
%TO.N,/5+*%
X91440000Y-88392000D02*
X91440000Y-91440000D01*
X101600000Y-88392000D02*
X101600000Y-91440000D01*
X89408000Y-128270000D02*
X89408000Y-88392000D01*
X91440000Y-118872000D02*
X91440000Y-121920000D01*
X101600000Y-146812000D02*
X101600000Y-148082000D01*
X91440000Y-149352000D02*
X91440000Y-152400000D01*
X101600000Y-148082000D02*
X101600000Y-152400000D01*
X101600000Y-146812000D02*
X101600000Y-129540000D01*
D17*
%TO.N,/8_15_245_DIR*%
X85344000Y-150876000D02*
X83820000Y-152400000D01*
X85344000Y-141224000D02*
X85344000Y-150876000D01*
X85090000Y-140970000D02*
X85344000Y-141224000D01*
%TO.N,/BRIDGE_E*%
X93472000Y-133350000D02*
X93472000Y-124460000D01*
%TO.N,/BRIDGE_DIR*%
X88138000Y-130810000D02*
X88138000Y-127254000D01*
X88138000Y-127254000D02*
X87122000Y-126238000D01*
X87122000Y-126238000D02*
X87122000Y-121920000D01*
%TO.N,/0_7_245_E*%
X88138000Y-125730000D02*
X88138000Y-94488000D01*
%TO.N,/0_7_245_DIR*%
X81280000Y-124460000D02*
X81280000Y-116332000D01*
X85598000Y-91440000D02*
X85598000Y-116332000D01*
%TO.N,/BUS_D14*%
X93980000Y-170180000D02*
X91440000Y-172720000D01*
X88900000Y-140462000D02*
X89154000Y-140208000D01*
X88900000Y-172974000D02*
X88900000Y-140462000D01*
%TO.N,/BUS_D13*%
X93980000Y-167640000D02*
X91440000Y-170180000D01*
X88392000Y-137922000D02*
X88392000Y-170434000D01*
X88646000Y-137668000D02*
X88392000Y-137922000D01*
%TO.N,/BUS_D12*%
X93980000Y-165100000D02*
X91440000Y-167640000D01*
X87884000Y-135128000D02*
X88138000Y-134874000D01*
X87884000Y-167894000D02*
X87884000Y-135128000D01*
%TO.N,/BUS_D11*%
X93980000Y-162560000D02*
X91440000Y-165100000D01*
X87376000Y-132842000D02*
X87630000Y-132588000D01*
X87376000Y-165354000D02*
X87376000Y-132842000D01*
%TO.N,/BUS_D10*%
X93980000Y-160020000D02*
X91440000Y-162560000D01*
X86868000Y-130302000D02*
X86868000Y-162814000D01*
X87122000Y-130048000D02*
X86868000Y-130302000D01*
%TO.N,/BUS_D9*%
X93980000Y-157480000D02*
X91440000Y-160020000D01*
X86360000Y-149272000D02*
X86417989Y-149329989D01*
X86417989Y-149329989D02*
X86417989Y-149352000D01*
X86417989Y-149352000D02*
X86360000Y-149352000D01*
X86360000Y-160274000D02*
X86360000Y-127508000D01*
X86360000Y-127508000D02*
X86614000Y-127254000D01*
%TO.N,/BUS_D8*%
X93980000Y-154940000D02*
X91440000Y-157480000D01*
X85852000Y-157734000D02*
X85852000Y-124968000D01*
%TO.N,/8_15_573_LATCH*%
X100584000Y-139700000D02*
X100584000Y-145542000D01*
X100584000Y-145542000D02*
X99568000Y-146558000D01*
X99568000Y-146558000D02*
X99568000Y-175260000D01*
%TO.N,/0_7_573_E*%
X95250000Y-124206000D02*
X95250000Y-125984000D01*
X95504000Y-123952000D02*
X95250000Y-124206000D01*
X95504000Y-95504000D02*
X95504000Y-123952000D01*
X95250000Y-95250000D02*
X95504000Y-95504000D01*
X95250000Y-93980000D02*
X95250000Y-95250000D01*
X95504000Y-93726000D02*
X95250000Y-93980000D01*
X95504000Y-91440000D02*
X95504000Y-93726000D01*
%TO.N,/0_7_573_LATCH*%
X104140000Y-124460000D02*
X104140000Y-114300000D01*
%TO.N,/BUS_D6*%
X93980000Y-109220000D02*
X91440000Y-111760000D01*
X99060000Y-141986000D02*
X99060000Y-109982000D01*
X98806000Y-142240000D02*
X99060000Y-141986000D01*
%TO.N,/BUS_D5*%
X93980000Y-106680000D02*
X91440000Y-109220000D01*
X98552000Y-139446000D02*
X98298000Y-139700000D01*
X98552000Y-107442000D02*
X98552000Y-139446000D01*
%TO.N,/BUS_D4*%
X93980000Y-104140000D02*
X91440000Y-106680000D01*
X98044000Y-136906000D02*
X97790000Y-137160000D01*
X98044000Y-104902000D02*
X98044000Y-136906000D01*
%TO.N,/BUS_D3*%
X93980000Y-101600000D02*
X91440000Y-104140000D01*
X97536000Y-134366000D02*
X97536000Y-102362000D01*
X97282000Y-134620000D02*
X97536000Y-134366000D01*
%TO.N,/BUS_D2*%
X93980000Y-99060000D02*
X91440000Y-101600000D01*
X97028000Y-131826000D02*
X97028000Y-99822000D01*
X96774000Y-132080000D02*
X97028000Y-131826000D01*
%TO.N,/BUS_D1*%
X93980000Y-96520000D02*
X91440000Y-99060000D01*
X96520000Y-129286000D02*
X96266000Y-129540000D01*
X96520000Y-97282000D02*
X96520000Y-129286000D01*
%TO.N,/BUS_D0*%
X93980000Y-93980000D02*
X91440000Y-96520000D01*
X96012000Y-126746000D02*
X95758000Y-127000000D01*
X96012000Y-94488000D02*
X96012000Y-126746000D01*
%TO.N,/BUS_D7*%
X93980000Y-111760000D02*
X91440000Y-114300000D01*
X99822000Y-112268000D02*
X99568000Y-112522000D01*
X99568000Y-112522000D02*
X99568000Y-144780000D01*
%TO.N,/8_15_245_E*%
X91440000Y-154940000D02*
X89916000Y-153416000D01*
X89916000Y-153416000D02*
X89916000Y-148082000D01*
X89916000Y-148082000D02*
X90170000Y-147828000D01*
X81280000Y-142240000D02*
X81280000Y-147828000D01*
%TO.N,/BUS_D15*%
X93980000Y-172720000D02*
X91440000Y-175260000D01*
X89408000Y-143002000D02*
X89662000Y-142748000D01*
X89408000Y-175768000D02*
X89408000Y-143002000D01*
%TO.N,/8_15_573_E*%
X93980000Y-152400000D02*
X93726000Y-152146000D01*
X93726000Y-152146000D02*
X93726000Y-143510000D01*
%TD*%
M02*
