M48
; DRILL file {KiCad (5.1.8)-1} date 06/03/22 11:47:04
; FORMAT={-:-/ absolute / inch / decimal}
; #@! TF.CreationDate,2022-06-03T11:47:04-06:00
; #@! TF.GenerationSoftware,Kicad,Pcbnew,(5.1.8)-1
; #@! TF.FileFunction,Plated,1,2,PTH
FMAT,2
INCH
T1C0.0157
T2C0.0315
T3C0.0394
%
G90
G05
T1
X3.2Y-4.58
X3.2Y-5.82
X3.35Y-5.55
X3.37Y-3.6
X3.37Y-4.58
X3.37Y-6.22
X3.38Y-4.92
X3.39Y-6.32
X3.41Y-4.52
X3.41Y-5.01
X3.41Y-6.42
X3.43Y-4.8
X3.43Y-5.12
X3.43Y-6.52
X3.45Y-5.22
X3.45Y-6.62
X3.47Y-3.72
X3.47Y-4.95
X3.47Y-5.15
X3.47Y-5.31
X3.47Y-6.72
X3.49Y-5.42
X3.49Y-6.82
X3.51Y-5.52
X3.52Y-3.48
X3.52Y-4.68
X3.52Y-5.05
X3.52Y-6.92
X3.53Y-5.62
X3.55Y-5.82
X3.67Y-3.52
X3.68Y-4.9
X3.68Y-5.25
X3.69Y-5.65
X3.73Y-5.35
X3.73Y-5.78
X3.75Y-4.96
X3.76Y-3.6
X3.77Y-5.0
X3.78Y-3.72
X3.79Y-5.1
X3.8Y-6.9
X3.81Y-3.82
X3.81Y-5.2
X3.83Y-3.92
X3.83Y-5.3
X3.85Y-4.02
X3.85Y-5.4
X3.87Y-4.12
X3.87Y-5.5
X3.89Y-4.22
X3.89Y-5.6
X3.91Y-4.32
X3.92Y-5.7
X3.92Y-6.9
X3.93Y-3.5
X3.93Y-4.42
X3.96Y-5.5
X4.0Y-5.1
X4.0Y-5.83
X4.1Y-4.5
T2
X3.8031Y-3.48
X4.0Y-3.48
X3.3Y-3.6
X3.3Y-3.7
X3.3Y-3.8
X3.3Y-3.9
X3.3Y-4.0
X3.3Y-4.1
X3.3Y-4.2
X3.3Y-4.3
X3.3Y-4.4
X3.3Y-4.5
X3.6Y-3.6
X3.6Y-3.7
X3.6Y-3.8
X3.6Y-3.9
X3.6Y-4.0
X3.6Y-4.1
X3.6Y-4.2
X3.6Y-4.3
X3.6Y-4.4
X3.6Y-4.5
X3.6Y-5.88
X3.7969Y-5.88
X3.7Y-6.0
X3.7Y-6.1
X3.7Y-6.2
X3.7Y-6.3
X3.7Y-6.4
X3.7Y-6.5
X3.7Y-6.6
X3.7Y-6.7
X3.7Y-6.8
X3.7Y-6.9
X4.0Y-6.0
X4.0Y-6.1
X4.0Y-6.2
X4.0Y-6.3
X4.0Y-6.4
X4.0Y-6.5
X4.0Y-6.6
X4.0Y-6.7
X4.0Y-6.8
X4.0Y-6.9
X3.8031Y-5.78
X4.0Y-5.78
X3.4031Y-4.68
X3.6Y-4.68
X3.7Y-3.6
X3.7Y-3.7
X3.7Y-3.8
X3.7Y-3.9
X3.7Y-4.0
X3.7Y-4.1
X3.7Y-4.2
X3.7Y-4.3
X3.7Y-4.4
X3.7Y-4.5
X4.0Y-3.6
X4.0Y-3.7
X4.0Y-3.8
X4.0Y-3.9
X4.0Y-4.0
X4.0Y-4.1
X4.0Y-4.2
X4.0Y-4.3
X4.0Y-4.4
X4.0Y-4.5
X3.3Y-6.0
X3.3Y-6.1
X3.3Y-6.2
X3.3Y-6.3
X3.3Y-6.4
X3.3Y-6.5
X3.3Y-6.6
X3.3Y-6.7
X3.3Y-6.8
X3.3Y-6.9
X3.6Y-6.0
X3.6Y-6.1
X3.6Y-6.2
X3.6Y-6.3
X3.6Y-6.4
X3.6Y-6.5
X3.6Y-6.6
X3.6Y-6.7
X3.6Y-6.8
X3.6Y-6.9
X3.4031Y-3.48
X3.6Y-3.48
X3.3Y-4.8
X3.3Y-4.9
X3.3Y-5.0
X3.3Y-5.1
X3.3Y-5.2
X3.3Y-5.3
X3.3Y-5.4
X3.3Y-5.5
X3.3Y-5.6
X3.3Y-5.7
X3.6Y-4.8
X3.6Y-4.9
X3.6Y-5.0
X3.6Y-5.1
X3.6Y-5.2
X3.6Y-5.3
X3.6Y-5.4
X3.6Y-5.5
X3.6Y-5.6
X3.6Y-5.7
T3
X4.1Y-6.1
X4.1Y-6.2
X4.1Y-6.3
X4.1Y-6.4
X4.1Y-6.5
X4.1Y-6.6
X4.1Y-6.7
X4.1Y-6.8
X4.1Y-3.7
X4.1Y-3.8
X4.1Y-3.9
X4.1Y-4.0
X4.1Y-4.1
X4.1Y-4.2
X4.1Y-4.3
X4.1Y-4.4
X3.2Y-3.7
X3.2Y-3.8
X3.2Y-3.9
X3.2Y-4.0
X3.2Y-4.1
X3.2Y-4.2
X3.2Y-4.3
X3.2Y-4.4
X3.2Y-6.1
X3.2Y-6.2
X3.2Y-6.3
X3.2Y-6.4
X3.2Y-6.5
X3.2Y-6.6
X3.2Y-6.7
X3.2Y-6.8
X4.1Y-4.9
X4.1Y-5.0
X4.1Y-5.1
X4.1Y-5.2
X4.1Y-5.3
X4.1Y-5.4
X4.1Y-5.5
X4.1Y-5.6
X3.2Y-4.9
X3.2Y-5.0
X3.2Y-5.1
X3.2Y-5.2
X3.2Y-5.3
X3.2Y-5.4
X3.2Y-5.5
X3.2Y-5.6
T0
M30
