%TF.GenerationSoftware,KiCad,Pcbnew,(5.1.8)-1*%
%TF.CreationDate,2022-06-03T11:47:02-06:00*%
%TF.ProjectId,Bus_Bridge,4275735f-4272-4696-9467-652e6b696361,rev?*%
%TF.SameCoordinates,Original*%
%TF.FileFunction,Soldermask,Top*%
%TF.FilePolarity,Negative*%
%FSLAX46Y46*%
G04 Gerber Fmt 4.6, Leading zero omitted, Abs format (unit mm)*
G04 Created by KiCad (PCBNEW (5.1.8)-1) date 2022-06-03 11:47:02*
%MOMM*%
%LPD*%
G01*
G04 APERTURE LIST*
%ADD10O,1.700000X1.700000*%
%ADD11R,1.700000X1.700000*%
%ADD12O,1.600000X1.600000*%
%ADD13R,1.600000X1.600000*%
%ADD14C,1.600000*%
G04 APERTURE END LIST*
D10*
%TO.C,J6*%
X104140000Y-111760000D03*
X104140000Y-109220000D03*
X104140000Y-106680000D03*
X104140000Y-104140000D03*
X104140000Y-101600000D03*
X104140000Y-99060000D03*
X104140000Y-96520000D03*
D11*
X104140000Y-93980000D03*
%TD*%
D10*
%TO.C,J5*%
X104140000Y-142240000D03*
X104140000Y-139700000D03*
X104140000Y-137160000D03*
X104140000Y-134620000D03*
X104140000Y-132080000D03*
X104140000Y-129540000D03*
X104140000Y-127000000D03*
D11*
X104140000Y-124460000D03*
%TD*%
D10*
%TO.C,J4*%
X104140000Y-172720000D03*
X104140000Y-170180000D03*
X104140000Y-167640000D03*
X104140000Y-165100000D03*
X104140000Y-162560000D03*
X104140000Y-160020000D03*
X104140000Y-157480000D03*
D11*
X104140000Y-154940000D03*
%TD*%
D10*
%TO.C,J3*%
X81280000Y-142240000D03*
X81280000Y-139700000D03*
X81280000Y-137160000D03*
X81280000Y-134620000D03*
X81280000Y-132080000D03*
X81280000Y-129540000D03*
X81280000Y-127000000D03*
D11*
X81280000Y-124460000D03*
%TD*%
D10*
%TO.C,J2*%
X81280000Y-172720000D03*
X81280000Y-170180000D03*
X81280000Y-167640000D03*
X81280000Y-165100000D03*
X81280000Y-162560000D03*
X81280000Y-160020000D03*
X81280000Y-157480000D03*
D11*
X81280000Y-154940000D03*
%TD*%
D10*
%TO.C,J1*%
X81280000Y-111760000D03*
X81280000Y-109220000D03*
X81280000Y-106680000D03*
X81280000Y-104140000D03*
X81280000Y-101600000D03*
X81280000Y-99060000D03*
X81280000Y-96520000D03*
D11*
X81280000Y-93980000D03*
%TD*%
D12*
%TO.C,U5*%
X101600000Y-91440000D03*
X93980000Y-114300000D03*
X101600000Y-93980000D03*
X93980000Y-111760000D03*
X101600000Y-96520000D03*
X93980000Y-109220000D03*
X101600000Y-99060000D03*
X93980000Y-106680000D03*
X101600000Y-101600000D03*
X93980000Y-104140000D03*
X101600000Y-104140000D03*
X93980000Y-101600000D03*
X101600000Y-106680000D03*
X93980000Y-99060000D03*
X101600000Y-109220000D03*
X93980000Y-96520000D03*
X101600000Y-111760000D03*
X93980000Y-93980000D03*
X101600000Y-114300000D03*
D13*
X93980000Y-91440000D03*
%TD*%
D12*
%TO.C,U4*%
X101600000Y-152400000D03*
X93980000Y-175260000D03*
X101600000Y-154940000D03*
X93980000Y-172720000D03*
X101600000Y-157480000D03*
X93980000Y-170180000D03*
X101600000Y-160020000D03*
X93980000Y-167640000D03*
X101600000Y-162560000D03*
X93980000Y-165100000D03*
X101600000Y-165100000D03*
X93980000Y-162560000D03*
X101600000Y-167640000D03*
X93980000Y-160020000D03*
X101600000Y-170180000D03*
X93980000Y-157480000D03*
X101600000Y-172720000D03*
X93980000Y-154940000D03*
X101600000Y-175260000D03*
D13*
X93980000Y-152400000D03*
%TD*%
D12*
%TO.C,U3*%
X91440000Y-121920000D03*
X83820000Y-144780000D03*
X91440000Y-124460000D03*
X83820000Y-142240000D03*
X91440000Y-127000000D03*
X83820000Y-139700000D03*
X91440000Y-129540000D03*
X83820000Y-137160000D03*
X91440000Y-132080000D03*
X83820000Y-134620000D03*
X91440000Y-134620000D03*
X83820000Y-132080000D03*
X91440000Y-137160000D03*
X83820000Y-129540000D03*
X91440000Y-139700000D03*
X83820000Y-127000000D03*
X91440000Y-142240000D03*
X83820000Y-124460000D03*
X91440000Y-144780000D03*
D13*
X83820000Y-121920000D03*
%TD*%
D12*
%TO.C,U2*%
X91440000Y-152400000D03*
X83820000Y-175260000D03*
X91440000Y-154940000D03*
X83820000Y-172720000D03*
X91440000Y-157480000D03*
X83820000Y-170180000D03*
X91440000Y-160020000D03*
X83820000Y-167640000D03*
X91440000Y-162560000D03*
X83820000Y-165100000D03*
X91440000Y-165100000D03*
X83820000Y-162560000D03*
X91440000Y-167640000D03*
X83820000Y-160020000D03*
X91440000Y-170180000D03*
X83820000Y-157480000D03*
X91440000Y-172720000D03*
X83820000Y-154940000D03*
X91440000Y-175260000D03*
D13*
X83820000Y-152400000D03*
%TD*%
D12*
%TO.C,U1*%
X91440000Y-91440000D03*
X83820000Y-114300000D03*
X91440000Y-93980000D03*
X83820000Y-111760000D03*
X91440000Y-96520000D03*
X83820000Y-109220000D03*
X91440000Y-99060000D03*
X83820000Y-106680000D03*
X91440000Y-101600000D03*
X83820000Y-104140000D03*
X91440000Y-104140000D03*
X83820000Y-101600000D03*
X91440000Y-106680000D03*
X83820000Y-99060000D03*
X91440000Y-109220000D03*
X83820000Y-96520000D03*
X91440000Y-111760000D03*
X83820000Y-93980000D03*
X91440000Y-114300000D03*
D13*
X83820000Y-91440000D03*
%TD*%
D14*
%TO.C,C5*%
X96600000Y-88392000D03*
X101600000Y-88392000D03*
%TD*%
%TO.C,C4*%
X96600000Y-146812000D03*
X101600000Y-146812000D03*
%TD*%
%TO.C,C3*%
X86440000Y-118872000D03*
X91440000Y-118872000D03*
%TD*%
%TO.C,C2*%
X96440000Y-149352000D03*
X91440000Y-149352000D03*
%TD*%
%TO.C,C1*%
X86440000Y-88392000D03*
X91440000Y-88392000D03*
%TD*%
M02*
