G04 #@! TF.GenerationSoftware,KiCad,Pcbnew,(5.1.8)-1*
G04 #@! TF.CreationDate,2021-12-28T18:56:34-07:00*
G04 #@! TF.ProjectId,8086,38303836-2e6b-4696-9361-645f70636258,rev?*
G04 #@! TF.SameCoordinates,Original*
G04 #@! TF.FileFunction,Copper,L1,Top*
G04 #@! TF.FilePolarity,Positive*
%FSLAX46Y46*%
G04 Gerber Fmt 4.6, Leading zero omitted, Abs format (unit mm)*
G04 Created by KiCad (PCBNEW (5.1.8)-1) date 2021-12-28 18:56:34*
%MOMM*%
%LPD*%
G01*
G04 APERTURE LIST*
G04 #@! TA.AperFunction,ComponentPad*
%ADD10O,1.600000X1.600000*%
G04 #@! TD*
G04 #@! TA.AperFunction,ComponentPad*
%ADD11R,1.600000X1.600000*%
G04 #@! TD*
G04 #@! TA.AperFunction,ComponentPad*
%ADD12C,1.600000*%
G04 #@! TD*
G04 #@! TA.AperFunction,ConnectorPad*
%ADD13R,1.780000X7.620000*%
G04 #@! TD*
G04 #@! TA.AperFunction,ComponentPad*
%ADD14C,1.500000*%
G04 #@! TD*
G04 #@! TA.AperFunction,ComponentPad*
%ADD15C,3.556000*%
G04 #@! TD*
G04 #@! TA.AperFunction,ViaPad*
%ADD16C,0.800000*%
G04 #@! TD*
G04 #@! TA.AperFunction,Conductor*
%ADD17C,0.330200*%
G04 #@! TD*
G04 #@! TA.AperFunction,Conductor*
%ADD18C,0.250000*%
G04 #@! TD*
G04 APERTURE END LIST*
D10*
G04 #@! TO.P,RN1,9*
G04 #@! TO.N,/PU_257*
X54602380Y-37058600D03*
G04 #@! TO.P,RN1,8*
G04 #@! TO.N,/PU257*
X52062380Y-37058600D03*
G04 #@! TO.P,RN1,7*
G04 #@! TO.N,/IOCS16*
X49522380Y-37058600D03*
G04 #@! TO.P,RN1,6*
G04 #@! TO.N,/CS16*
X46982380Y-37058600D03*
G04 #@! TO.P,RN1,5*
G04 #@! TO.N,/DEN_NOT_NORMAL*
X44442380Y-37058600D03*
G04 #@! TO.P,RN1,4*
G04 #@! TO.N,/DEN_NORMAL*
X41902380Y-37058600D03*
G04 #@! TO.P,RN1,3*
G04 #@! TO.N,/MEMCS16*
X39362380Y-37058600D03*
G04 #@! TO.P,RN1,2*
G04 #@! TO.N,/DEN*
X36822380Y-37058600D03*
D11*
G04 #@! TO.P,RN1,1*
G04 #@! TO.N,/5+*
X34282380Y-37058600D03*
G04 #@! TD*
D10*
G04 #@! TO.P,U18,28*
G04 #@! TO.N,/5+*
X100576380Y-78968600D03*
G04 #@! TO.P,U18,14*
G04 #@! TO.N,/GND*
X67556380Y-63728600D03*
G04 #@! TO.P,U18,27*
G04 #@! TO.N,/A0*
X98036380Y-78968600D03*
G04 #@! TO.P,U18,13*
G04 #@! TO.N,/CAS1*
X70096380Y-63728600D03*
G04 #@! TO.P,U18,26*
G04 #@! TO.N,/INTA*
X95496380Y-78968600D03*
G04 #@! TO.P,U18,12*
G04 #@! TO.N,/CAS0*
X72636380Y-63728600D03*
G04 #@! TO.P,U18,25*
G04 #@! TO.N,/IRQ8*
X92956380Y-78968600D03*
G04 #@! TO.P,U18,11*
G04 #@! TO.N,/D0*
X75176380Y-63728600D03*
G04 #@! TO.P,U18,24*
G04 #@! TO.N,/IRQ9*
X90416380Y-78968600D03*
G04 #@! TO.P,U18,10*
G04 #@! TO.N,/D1*
X77716380Y-63728600D03*
G04 #@! TO.P,U18,23*
G04 #@! TO.N,/IRQ10*
X87876380Y-78968600D03*
G04 #@! TO.P,U18,9*
G04 #@! TO.N,/D2*
X80256380Y-63728600D03*
G04 #@! TO.P,U18,22*
G04 #@! TO.N,/IRQ11*
X85336380Y-78968600D03*
G04 #@! TO.P,U18,8*
G04 #@! TO.N,/D3*
X82796380Y-63728600D03*
G04 #@! TO.P,U18,21*
G04 #@! TO.N,/IRQ12*
X82796380Y-78968600D03*
G04 #@! TO.P,U18,7*
G04 #@! TO.N,/D4*
X85336380Y-63728600D03*
G04 #@! TO.P,U18,20*
G04 #@! TO.N,/IRQ13*
X80256380Y-78968600D03*
G04 #@! TO.P,U18,6*
G04 #@! TO.N,/D5*
X87876380Y-63728600D03*
G04 #@! TO.P,U18,19*
G04 #@! TO.N,/IRQ14*
X77716380Y-78968600D03*
G04 #@! TO.P,U18,5*
G04 #@! TO.N,/D6*
X90416380Y-63728600D03*
G04 #@! TO.P,U18,18*
G04 #@! TO.N,/IRQ15*
X75176380Y-78968600D03*
G04 #@! TO.P,U18,4*
G04 #@! TO.N,/D7*
X92956380Y-63728600D03*
G04 #@! TO.P,U18,17*
G04 #@! TO.N,/IRQ2*
X72636380Y-78968600D03*
G04 #@! TO.P,U18,3*
G04 #@! TO.N,/IORD*
X95496380Y-63728600D03*
G04 #@! TO.P,U18,16*
G04 #@! TO.N,/GND*
X70096380Y-78968600D03*
G04 #@! TO.P,U18,2*
G04 #@! TO.N,/IOWR*
X98036380Y-63728600D03*
G04 #@! TO.P,U18,15*
G04 #@! TO.N,/CAS2*
X67556380Y-78968600D03*
D11*
G04 #@! TO.P,U18,1*
G04 #@! TO.N,/IO_00AX*
X100576380Y-63728600D03*
G04 #@! TD*
D10*
G04 #@! TO.P,R10,2*
G04 #@! TO.N,/CS16_INTA*
X45204380Y-108432600D03*
D12*
G04 #@! TO.P,R10,1*
G04 #@! TO.N,/GND*
X35044380Y-108432600D03*
G04 #@! TD*
G04 #@! TO.P,C18,2*
G04 #@! TO.N,/5+*
X103878380Y-78968600D03*
G04 #@! TO.P,C18,1*
G04 #@! TO.N,/GND*
X103878380Y-73968600D03*
G04 #@! TD*
D13*
G04 #@! TO.P,J9,62*
G04 #@! TO.N,/A0*
X146296380Y-134848600D03*
G04 #@! TO.P,J9,61*
G04 #@! TO.N,/A1*
X148836380Y-134848600D03*
G04 #@! TO.P,J9,60*
G04 #@! TO.N,/A2*
X151376380Y-134848600D03*
G04 #@! TO.P,J9,59*
G04 #@! TO.N,/A3*
X153916380Y-134848600D03*
G04 #@! TO.P,J9,58*
G04 #@! TO.N,/A4*
X156456380Y-134848600D03*
G04 #@! TO.P,J9,57*
G04 #@! TO.N,/A5*
X158996380Y-134848600D03*
G04 #@! TO.P,J9,56*
G04 #@! TO.N,/A6*
X161536380Y-134848600D03*
G04 #@! TO.P,J9,55*
G04 #@! TO.N,/A7*
X164076380Y-134848600D03*
G04 #@! TO.P,J9,54*
G04 #@! TO.N,/A8*
X166616380Y-134848600D03*
G04 #@! TO.P,J9,53*
G04 #@! TO.N,/A9*
X169156380Y-134848600D03*
G04 #@! TO.P,J9,52*
G04 #@! TO.N,/A10*
X171696380Y-134848600D03*
G04 #@! TO.P,J9,51*
G04 #@! TO.N,/A11*
X174236380Y-134848600D03*
G04 #@! TO.P,J9,50*
G04 #@! TO.N,/A12*
X176776380Y-134848600D03*
G04 #@! TO.P,J9,49*
G04 #@! TO.N,/A13*
X179316380Y-134848600D03*
G04 #@! TO.P,J9,48*
G04 #@! TO.N,/A14*
X181856380Y-134848600D03*
G04 #@! TO.P,J9,47*
G04 #@! TO.N,/A15*
X184396380Y-134848600D03*
G04 #@! TO.P,J9,46*
G04 #@! TO.N,/A16*
X186936380Y-134848600D03*
G04 #@! TO.P,J9,45*
G04 #@! TO.N,/A17*
X189476380Y-134848600D03*
G04 #@! TO.P,J9,44*
G04 #@! TO.N,/A18*
X192016380Y-134848600D03*
G04 #@! TO.P,J9,43*
G04 #@! TO.N,/A19*
X194556380Y-134848600D03*
G04 #@! TO.P,J9,42*
G04 #@! TO.N,/AEN*
X197096380Y-134848600D03*
G04 #@! TO.P,J9,41*
G04 #@! TO.N,/RDY1*
X199636380Y-134848600D03*
G04 #@! TO.P,J9,40*
G04 #@! TO.N,/D0*
X202176380Y-134848600D03*
G04 #@! TO.P,J9,39*
G04 #@! TO.N,/D1*
X204716380Y-134848600D03*
G04 #@! TO.P,J9,38*
G04 #@! TO.N,/D2*
X207256380Y-134848600D03*
G04 #@! TO.P,J9,37*
G04 #@! TO.N,/D3*
X209796380Y-134848600D03*
G04 #@! TO.P,J9,36*
G04 #@! TO.N,/D4*
X212336380Y-134848600D03*
G04 #@! TO.P,J9,35*
G04 #@! TO.N,/D5*
X214876380Y-134848600D03*
G04 #@! TO.P,J9,34*
G04 #@! TO.N,/D6*
X217416380Y-134848600D03*
G04 #@! TO.P,J9,33*
G04 #@! TO.N,/D7*
X219956380Y-134848600D03*
G04 #@! TO.P,J9,32*
G04 #@! TO.N,/CH_CK*
X222496380Y-134848600D03*
G04 #@! TD*
D10*
G04 #@! TO.P,R4,2*
G04 #@! TO.N,/X1*
X229100380Y-56870600D03*
D12*
G04 #@! TO.P,R4,1*
G04 #@! TO.N,/GND*
X239260380Y-56870600D03*
G04 #@! TD*
D10*
G04 #@! TO.P,R3,2*
G04 #@! TO.N,/X2*
X229100380Y-59918600D03*
D12*
G04 #@! TO.P,R3,1*
G04 #@! TO.N,/GND*
X239260380Y-59918600D03*
G04 #@! TD*
D10*
G04 #@! TO.P,R2,2*
G04 #@! TO.N,/CLK1*
X162806380Y-33756600D03*
D12*
G04 #@! TO.P,R2,1*
G04 #@! TO.N,/CLK_86*
X152646380Y-33756600D03*
G04 #@! TD*
D10*
G04 #@! TO.P,U2,20*
G04 #@! TO.N,/5+*
X171442380Y-72618600D03*
G04 #@! TO.P,U2,10*
G04 #@! TO.N,/GND*
X148582380Y-64998600D03*
G04 #@! TO.P,U2,19*
G04 #@! TO.N,/A7*
X168902380Y-72618600D03*
G04 #@! TO.P,U2,9*
G04 #@! TO.N,/AD0*
X151122380Y-64998600D03*
G04 #@! TO.P,U2,18*
G04 #@! TO.N,/A6*
X166362380Y-72618600D03*
G04 #@! TO.P,U2,8*
G04 #@! TO.N,/AD1*
X153662380Y-64998600D03*
G04 #@! TO.P,U2,17*
G04 #@! TO.N,/A5*
X163822380Y-72618600D03*
G04 #@! TO.P,U2,7*
G04 #@! TO.N,/AD2*
X156202380Y-64998600D03*
G04 #@! TO.P,U2,16*
G04 #@! TO.N,/A4*
X161282380Y-72618600D03*
G04 #@! TO.P,U2,6*
G04 #@! TO.N,/AD3*
X158742380Y-64998600D03*
G04 #@! TO.P,U2,15*
G04 #@! TO.N,/A3*
X158742380Y-72618600D03*
G04 #@! TO.P,U2,5*
G04 #@! TO.N,/AD4*
X161282380Y-64998600D03*
G04 #@! TO.P,U2,14*
G04 #@! TO.N,/A2*
X156202380Y-72618600D03*
G04 #@! TO.P,U2,4*
G04 #@! TO.N,/AD5*
X163822380Y-64998600D03*
G04 #@! TO.P,U2,13*
G04 #@! TO.N,/A1*
X153662380Y-72618600D03*
G04 #@! TO.P,U2,3*
G04 #@! TO.N,/AD6*
X166362380Y-64998600D03*
G04 #@! TO.P,U2,12*
G04 #@! TO.N,/A0*
X151122380Y-72618600D03*
G04 #@! TO.P,U2,2*
G04 #@! TO.N,/AD7*
X168902380Y-64998600D03*
G04 #@! TO.P,U2,11*
G04 #@! TO.N,/ALE*
X148582380Y-72618600D03*
D11*
G04 #@! TO.P,U2,1*
G04 #@! TO.N,/HOLDA*
X171442380Y-64998600D03*
G04 #@! TD*
D14*
G04 #@! TO.P,Y1,2*
G04 #@! TO.N,/X1*
X229174380Y-51028600D03*
G04 #@! TO.P,Y1,1*
G04 #@! TO.N,/X2*
X224274380Y-51028600D03*
G04 #@! TD*
D10*
G04 #@! TO.P,U17,14*
G04 #@! TO.N,/5+*
X51300380Y-66268600D03*
G04 #@! TO.P,U17,7*
G04 #@! TO.N,/GND*
X36060380Y-58648600D03*
G04 #@! TO.P,U17,13*
G04 #@! TO.N,N/C*
X48760380Y-66268600D03*
G04 #@! TO.P,U17,6*
X38600380Y-58648600D03*
G04 #@! TO.P,U17,12*
X46220380Y-66268600D03*
G04 #@! TO.P,U17,5*
X41140380Y-58648600D03*
G04 #@! TO.P,U17,11*
X43680380Y-66268600D03*
G04 #@! TO.P,U17,4*
X43680380Y-58648600D03*
G04 #@! TO.P,U17,10*
X41140380Y-66268600D03*
G04 #@! TO.P,U17,3*
X46220380Y-58648600D03*
G04 #@! TO.P,U17,9*
X38600380Y-66268600D03*
G04 #@! TO.P,U17,2*
G04 #@! TO.N,/ODD_ODD_EVEN__EVEN_245*
X48760380Y-58648600D03*
G04 #@! TO.P,U17,8*
G04 #@! TO.N,N/C*
X36060380Y-66268600D03*
D11*
G04 #@! TO.P,U17,1*
G04 #@! TO.N,/ODD_BYTE_EVEN_245*
X51300380Y-58648600D03*
G04 #@! TD*
D10*
G04 #@! TO.P,U16,16*
G04 #@! TO.N,/5+*
X53840380Y-104368600D03*
G04 #@! TO.P,U16,8*
G04 #@! TO.N,/GND*
X36060380Y-96748600D03*
G04 #@! TO.P,U16,15*
X51300380Y-104368600D03*
G04 #@! TO.P,U16,7*
G04 #@! TO.N,Net-(U16-Pad7)*
X38600380Y-96748600D03*
G04 #@! TO.P,U16,14*
G04 #@! TO.N,/CS16_INTA*
X48760380Y-104368600D03*
G04 #@! TO.P,U16,6*
G04 #@! TO.N,Net-(U16-Pad6)*
X41140380Y-96748600D03*
G04 #@! TO.P,U16,13*
G04 #@! TO.N,/ODD_8_BYTE*
X46220380Y-104368600D03*
G04 #@! TO.P,U16,5*
X43680380Y-96748600D03*
G04 #@! TO.P,U16,12*
G04 #@! TO.N,Net-(U16-Pad12)*
X43680380Y-104368600D03*
G04 #@! TO.P,U16,4*
G04 #@! TO.N,Net-(U16-Pad4)*
X46220380Y-96748600D03*
G04 #@! TO.P,U16,11*
G04 #@! TO.N,/ODD_BYTE_EVEN_245*
X41140380Y-104368600D03*
G04 #@! TO.P,U16,3*
G04 #@! TO.N,/BHE*
X48760380Y-96748600D03*
G04 #@! TO.P,U16,10*
G04 #@! TO.N,Net-(U16-Pad10)*
X38600380Y-104368600D03*
G04 #@! TO.P,U16,2*
G04 #@! TO.N,/A0*
X51300380Y-96748600D03*
G04 #@! TO.P,U16,9*
G04 #@! TO.N,Net-(U16-Pad9)*
X36060380Y-104368600D03*
D11*
G04 #@! TO.P,U16,1*
G04 #@! TO.N,/GND*
X53840380Y-96748600D03*
G04 #@! TD*
D10*
G04 #@! TO.P,U15,14*
G04 #@! TO.N,/5+*
X51300380Y-91668600D03*
G04 #@! TO.P,U15,7*
G04 #@! TO.N,/GND*
X36060380Y-84048600D03*
G04 #@! TO.P,U15,13*
G04 #@! TO.N,N/C*
X48760380Y-91668600D03*
G04 #@! TO.P,U15,6*
G04 #@! TO.N,/CS16_INTA*
X38600380Y-84048600D03*
G04 #@! TO.P,U15,12*
G04 #@! TO.N,N/C*
X46220380Y-91668600D03*
G04 #@! TO.P,U15,5*
G04 #@! TO.N,/CS16*
X41140380Y-84048600D03*
G04 #@! TO.P,U15,11*
G04 #@! TO.N,N/C*
X43680380Y-91668600D03*
G04 #@! TO.P,U15,4*
G04 #@! TO.N,/INTA*
X43680380Y-84048600D03*
G04 #@! TO.P,U15,10*
G04 #@! TO.N,N/C*
X41140380Y-91668600D03*
G04 #@! TO.P,U15,3*
G04 #@! TO.N,/CS16*
X46220380Y-84048600D03*
G04 #@! TO.P,U15,9*
G04 #@! TO.N,N/C*
X38600380Y-91668600D03*
G04 #@! TO.P,U15,2*
G04 #@! TO.N,/LACHED_MEMCS16*
X48760380Y-84048600D03*
G04 #@! TO.P,U15,8*
G04 #@! TO.N,N/C*
X36060380Y-91668600D03*
D11*
G04 #@! TO.P,U15,1*
G04 #@! TO.N,/IO_M*
X51300380Y-84048600D03*
G04 #@! TD*
D10*
G04 #@! TO.P,U14,20*
G04 #@! TO.N,/5+*
X200906380Y-72618600D03*
G04 #@! TO.P,U14,10*
G04 #@! TO.N,/GND*
X178046380Y-64998600D03*
G04 #@! TO.P,U14,19*
G04 #@! TO.N,/A15*
X198366380Y-72618600D03*
G04 #@! TO.P,U14,9*
G04 #@! TO.N,/AD8*
X180586380Y-64998600D03*
G04 #@! TO.P,U14,18*
G04 #@! TO.N,/A14*
X195826380Y-72618600D03*
G04 #@! TO.P,U14,8*
G04 #@! TO.N,/AD9*
X183126380Y-64998600D03*
G04 #@! TO.P,U14,17*
G04 #@! TO.N,/A13*
X193286380Y-72618600D03*
G04 #@! TO.P,U14,7*
G04 #@! TO.N,/AD10*
X185666380Y-64998600D03*
G04 #@! TO.P,U14,16*
G04 #@! TO.N,/A12*
X190746380Y-72618600D03*
G04 #@! TO.P,U14,6*
G04 #@! TO.N,/AD11*
X188206380Y-64998600D03*
G04 #@! TO.P,U14,15*
G04 #@! TO.N,/A11*
X188206380Y-72618600D03*
G04 #@! TO.P,U14,5*
G04 #@! TO.N,/AD12*
X190746380Y-64998600D03*
G04 #@! TO.P,U14,14*
G04 #@! TO.N,/A10*
X185666380Y-72618600D03*
G04 #@! TO.P,U14,4*
G04 #@! TO.N,/AD13*
X193286380Y-64998600D03*
G04 #@! TO.P,U14,13*
G04 #@! TO.N,/A9*
X183126380Y-72618600D03*
G04 #@! TO.P,U14,3*
G04 #@! TO.N,/AD14*
X195826380Y-64998600D03*
G04 #@! TO.P,U14,12*
G04 #@! TO.N,/A8*
X180586380Y-72618600D03*
G04 #@! TO.P,U14,2*
G04 #@! TO.N,/AD15*
X198366380Y-64998600D03*
G04 #@! TO.P,U14,11*
G04 #@! TO.N,/ALE*
X178046380Y-72618600D03*
D11*
G04 #@! TO.P,U14,1*
G04 #@! TO.N,/HOLDA*
X200906380Y-64998600D03*
G04 #@! TD*
D10*
G04 #@! TO.P,U13,14*
G04 #@! TO.N,/5+*
X51300380Y-78968600D03*
G04 #@! TO.P,U13,7*
G04 #@! TO.N,/GND*
X36060380Y-71348600D03*
G04 #@! TO.P,U13,13*
G04 #@! TO.N,/DEN*
X48760380Y-78968600D03*
G04 #@! TO.P,U13,6*
G04 #@! TO.N,N/C*
X38600380Y-71348600D03*
G04 #@! TO.P,U13,12*
G04 #@! TO.N,/ODD_BYTE_EVEN_245*
X46220380Y-78968600D03*
G04 #@! TO.P,U13,5*
G04 #@! TO.N,N/C*
X41140380Y-71348600D03*
G04 #@! TO.P,U13,11*
G04 #@! TO.N,/DEN_NOT_NORMAL*
X43680380Y-78968600D03*
G04 #@! TO.P,U13,4*
G04 #@! TO.N,N/C*
X43680380Y-71348600D03*
G04 #@! TO.P,U13,10*
G04 #@! TO.N,/DEN*
X41140380Y-78968600D03*
G04 #@! TO.P,U13,3*
G04 #@! TO.N,/CS16*
X46220380Y-71348600D03*
G04 #@! TO.P,U13,9*
G04 #@! TO.N,/ODD_ODD_EVEN__EVEN_245*
X38600380Y-78968600D03*
G04 #@! TO.P,U13,2*
G04 #@! TO.N,/IOCS16*
X48760380Y-71348600D03*
G04 #@! TO.P,U13,8*
G04 #@! TO.N,/DEN_NORMAL*
X36060380Y-78968600D03*
D11*
G04 #@! TO.P,U13,1*
G04 #@! TO.N,/IO_M*
X51300380Y-71348600D03*
G04 #@! TD*
D10*
G04 #@! TO.P,U12,20*
G04 #@! TO.N,/5+*
X230370380Y-84048600D03*
G04 #@! TO.P,U12,10*
G04 #@! TO.N,/GND*
X207510380Y-76428600D03*
G04 #@! TO.P,U12,19*
G04 #@! TO.N,/HOLDA*
X227830380Y-84048600D03*
G04 #@! TO.P,U12,9*
G04 #@! TO.N,/GND*
X210050380Y-76428600D03*
G04 #@! TO.P,U12,18*
G04 #@! TO.N,/LA23*
X225290380Y-84048600D03*
G04 #@! TO.P,U12,8*
G04 #@! TO.N,/A17_*
X212590380Y-76428600D03*
G04 #@! TO.P,U12,17*
G04 #@! TO.N,/LA22*
X222750380Y-84048600D03*
G04 #@! TO.P,U12,7*
G04 #@! TO.N,/A18_*
X215130380Y-76428600D03*
G04 #@! TO.P,U12,16*
G04 #@! TO.N,/LA21*
X220210380Y-84048600D03*
G04 #@! TO.P,U12,6*
G04 #@! TO.N,/A19_*
X217670380Y-76428600D03*
G04 #@! TO.P,U12,15*
G04 #@! TO.N,/LA20*
X217670380Y-84048600D03*
G04 #@! TO.P,U12,5*
G04 #@! TO.N,/GND*
X220210380Y-76428600D03*
G04 #@! TO.P,U12,14*
G04 #@! TO.N,/LA19*
X215130380Y-84048600D03*
G04 #@! TO.P,U12,4*
G04 #@! TO.N,/GND*
X222750380Y-76428600D03*
G04 #@! TO.P,U12,13*
G04 #@! TO.N,/LA18*
X212590380Y-84048600D03*
G04 #@! TO.P,U12,3*
G04 #@! TO.N,/GND*
X225290380Y-76428600D03*
G04 #@! TO.P,U12,12*
G04 #@! TO.N,/LA17*
X210050380Y-84048600D03*
G04 #@! TO.P,U12,2*
G04 #@! TO.N,/GND*
X227830380Y-76428600D03*
G04 #@! TO.P,U12,11*
G04 #@! TO.N,Net-(U12-Pad11)*
X207510380Y-84048600D03*
D11*
G04 #@! TO.P,U12,1*
G04 #@! TO.N,/5+*
X230370380Y-76428600D03*
G04 #@! TD*
D10*
G04 #@! TO.P,U11,20*
G04 #@! TO.N,/5+*
X200906380Y-84048600D03*
G04 #@! TO.P,U11,10*
G04 #@! TO.N,/GND*
X178046380Y-76428600D03*
G04 #@! TO.P,U11,19*
G04 #@! TO.N,/DEN_NORMAL*
X198366380Y-84048600D03*
G04 #@! TO.P,U11,9*
G04 #@! TO.N,/AD8*
X180586380Y-76428600D03*
G04 #@! TO.P,U11,18*
G04 #@! TO.N,/D15*
X195826380Y-84048600D03*
G04 #@! TO.P,U11,8*
G04 #@! TO.N,/AD9*
X183126380Y-76428600D03*
G04 #@! TO.P,U11,17*
G04 #@! TO.N,/D14*
X193286380Y-84048600D03*
G04 #@! TO.P,U11,7*
G04 #@! TO.N,/AD10*
X185666380Y-76428600D03*
G04 #@! TO.P,U11,16*
G04 #@! TO.N,/D13*
X190746380Y-84048600D03*
G04 #@! TO.P,U11,6*
G04 #@! TO.N,/AD11*
X188206380Y-76428600D03*
G04 #@! TO.P,U11,15*
G04 #@! TO.N,/D12*
X188206380Y-84048600D03*
G04 #@! TO.P,U11,5*
G04 #@! TO.N,/AD12*
X190746380Y-76428600D03*
G04 #@! TO.P,U11,14*
G04 #@! TO.N,/D11*
X185666380Y-84048600D03*
G04 #@! TO.P,U11,4*
G04 #@! TO.N,/AD13*
X193286380Y-76428600D03*
G04 #@! TO.P,U11,13*
G04 #@! TO.N,/D10*
X183126380Y-84048600D03*
G04 #@! TO.P,U11,3*
G04 #@! TO.N,/AD14*
X195826380Y-76428600D03*
G04 #@! TO.P,U11,12*
G04 #@! TO.N,/D9*
X180586380Y-84048600D03*
G04 #@! TO.P,U11,2*
G04 #@! TO.N,/AD15*
X198366380Y-76428600D03*
G04 #@! TO.P,U11,11*
G04 #@! TO.N,/D8*
X178046380Y-84048600D03*
D11*
G04 #@! TO.P,U11,1*
G04 #@! TO.N,/DTR*
X200906380Y-76428600D03*
G04 #@! TD*
D10*
G04 #@! TO.P,U10,16*
G04 #@! TO.N,/5+*
X114292380Y-44678600D03*
G04 #@! TO.P,U10,8*
G04 #@! TO.N,/GND*
X96512380Y-37058600D03*
G04 #@! TO.P,U10,15*
G04 #@! TO.N,/HOLDA*
X111752380Y-44678600D03*
G04 #@! TO.P,U10,7*
G04 #@! TO.N,/MEMR*
X99052380Y-37058600D03*
G04 #@! TO.P,U10,14*
G04 #@! TO.N,/PU257*
X109212380Y-44678600D03*
G04 #@! TO.P,U10,6*
G04 #@! TO.N,/RD*
X101592380Y-37058600D03*
G04 #@! TO.P,U10,13*
G04 #@! TO.N,/WR*
X106672380Y-44678600D03*
G04 #@! TO.P,U10,5*
G04 #@! TO.N,/PU257*
X104132380Y-37058600D03*
G04 #@! TO.P,U10,12*
G04 #@! TO.N,/MEMW*
X104132380Y-44678600D03*
G04 #@! TO.P,U10,4*
G04 #@! TO.N,Net-(U10-Pad4)*
X106672380Y-37058600D03*
G04 #@! TO.P,U10,11*
G04 #@! TO.N,/WR*
X101592380Y-44678600D03*
G04 #@! TO.P,U10,3*
G04 #@! TO.N,/PU257*
X109212380Y-37058600D03*
G04 #@! TO.P,U10,10*
X99052380Y-44678600D03*
G04 #@! TO.P,U10,2*
G04 #@! TO.N,/RD*
X111752380Y-37058600D03*
G04 #@! TO.P,U10,9*
G04 #@! TO.N,Net-(U10-Pad9)*
X96512380Y-44678600D03*
D11*
G04 #@! TO.P,U10,1*
G04 #@! TO.N,/IO_M*
X114292380Y-37058600D03*
G04 #@! TD*
D10*
G04 #@! TO.P,U9,20*
G04 #@! TO.N,/5+*
X141978380Y-84048600D03*
G04 #@! TO.P,U9,10*
G04 #@! TO.N,/GND*
X119118380Y-76428600D03*
G04 #@! TO.P,U9,19*
G04 #@! TO.N,/DEN_NOT_NORMAL*
X139438380Y-84048600D03*
G04 #@! TO.P,U9,9*
G04 #@! TO.N,/AD8*
X121658380Y-76428600D03*
G04 #@! TO.P,U9,18*
G04 #@! TO.N,/D7*
X136898380Y-84048600D03*
G04 #@! TO.P,U9,8*
G04 #@! TO.N,/AD9*
X124198380Y-76428600D03*
G04 #@! TO.P,U9,17*
G04 #@! TO.N,/D6*
X134358380Y-84048600D03*
G04 #@! TO.P,U9,7*
G04 #@! TO.N,/AD10*
X126738380Y-76428600D03*
G04 #@! TO.P,U9,16*
G04 #@! TO.N,/D5*
X131818380Y-84048600D03*
G04 #@! TO.P,U9,6*
G04 #@! TO.N,/AD11*
X129278380Y-76428600D03*
G04 #@! TO.P,U9,15*
G04 #@! TO.N,/D4*
X129278380Y-84048600D03*
G04 #@! TO.P,U9,5*
G04 #@! TO.N,/AD12*
X131818380Y-76428600D03*
G04 #@! TO.P,U9,14*
G04 #@! TO.N,/D3*
X126738380Y-84048600D03*
G04 #@! TO.P,U9,4*
G04 #@! TO.N,/AD13*
X134358380Y-76428600D03*
G04 #@! TO.P,U9,13*
G04 #@! TO.N,/D2*
X124198380Y-84048600D03*
G04 #@! TO.P,U9,3*
G04 #@! TO.N,/AD14*
X136898380Y-76428600D03*
G04 #@! TO.P,U9,12*
G04 #@! TO.N,/D1*
X121658380Y-84048600D03*
G04 #@! TO.P,U9,2*
G04 #@! TO.N,/AD15*
X139438380Y-76428600D03*
G04 #@! TO.P,U9,11*
G04 #@! TO.N,/D0*
X119118380Y-84048600D03*
D11*
G04 #@! TO.P,U9,1*
G04 #@! TO.N,/DTR*
X141978380Y-76428600D03*
G04 #@! TD*
D10*
G04 #@! TO.P,U8,16*
G04 #@! TO.N,/5+*
X139946380Y-44678600D03*
G04 #@! TO.P,U8,8*
G04 #@! TO.N,/GND*
X122166380Y-37058600D03*
G04 #@! TO.P,U8,15*
G04 #@! TO.N,/HOLDA*
X137406380Y-44678600D03*
G04 #@! TO.P,U8,7*
G04 #@! TO.N,/SMRD*
X124706380Y-37058600D03*
G04 #@! TO.P,U8,14*
G04 #@! TO.N,/PU_257*
X134866380Y-44678600D03*
G04 #@! TO.P,U8,6*
G04 #@! TO.N,/RD*
X127246380Y-37058600D03*
G04 #@! TO.P,U8,13*
G04 #@! TO.N,/WR*
X132326380Y-44678600D03*
G04 #@! TO.P,U8,5*
G04 #@! TO.N,/PU_257*
X129786380Y-37058600D03*
G04 #@! TO.P,U8,12*
G04 #@! TO.N,/SMWR*
X129786380Y-44678600D03*
G04 #@! TO.P,U8,4*
G04 #@! TO.N,/IORD*
X132326380Y-37058600D03*
G04 #@! TO.P,U8,11*
G04 #@! TO.N,/WR*
X127246380Y-44678600D03*
G04 #@! TO.P,U8,3*
G04 #@! TO.N,/PU_257*
X134866380Y-37058600D03*
G04 #@! TO.P,U8,10*
X124706380Y-44678600D03*
G04 #@! TO.P,U8,2*
G04 #@! TO.N,/RD*
X137406380Y-37058600D03*
G04 #@! TO.P,U8,9*
G04 #@! TO.N,/IOWR*
X122166380Y-44678600D03*
D11*
G04 #@! TO.P,U8,1*
G04 #@! TO.N,/IO_M*
X139946380Y-37058600D03*
G04 #@! TD*
D10*
G04 #@! TO.P,U7,24*
G04 #@! TO.N,/5+*
X90416380Y-52298600D03*
G04 #@! TO.P,U7,12*
G04 #@! TO.N,/GND*
X62476380Y-37058600D03*
G04 #@! TO.P,U7,23*
G04 #@! TO.N,/IOWR*
X87876380Y-52298600D03*
G04 #@! TO.P,U7,11*
G04 #@! TO.N,/5+*
X65016380Y-37058600D03*
G04 #@! TO.P,U7,22*
G04 #@! TO.N,/IORD*
X85336380Y-52298600D03*
G04 #@! TO.P,U7,10*
G04 #@! TO.N,/IRQ0*
X67556380Y-37058600D03*
G04 #@! TO.P,U7,21*
G04 #@! TO.N,/IO_004X*
X82796380Y-52298600D03*
G04 #@! TO.P,U7,9*
G04 #@! TO.N,/HF_PCLK*
X70096380Y-37058600D03*
G04 #@! TO.P,U7,20*
G04 #@! TO.N,/A1*
X80256380Y-52298600D03*
G04 #@! TO.P,U7,8*
G04 #@! TO.N,/D0*
X72636380Y-37058600D03*
G04 #@! TO.P,U7,19*
G04 #@! TO.N,/A0*
X77716380Y-52298600D03*
G04 #@! TO.P,U7,7*
G04 #@! TO.N,/D1*
X75176380Y-37058600D03*
G04 #@! TO.P,U7,18*
G04 #@! TO.N,/HF_PCLK*
X75176380Y-52298600D03*
G04 #@! TO.P,U7,6*
G04 #@! TO.N,/D2*
X77716380Y-37058600D03*
G04 #@! TO.P,U7,17*
G04 #@! TO.N,/SPK_OUT*
X72636380Y-52298600D03*
G04 #@! TO.P,U7,5*
G04 #@! TO.N,/D3*
X80256380Y-37058600D03*
G04 #@! TO.P,U7,16*
G04 #@! TO.N,/SPK_GO*
X70096380Y-52298600D03*
G04 #@! TO.P,U7,4*
G04 #@! TO.N,/D4*
X82796380Y-37058600D03*
G04 #@! TO.P,U7,15*
G04 #@! TO.N,/HF_PCLK*
X67556380Y-52298600D03*
G04 #@! TO.P,U7,3*
G04 #@! TO.N,/D5*
X85336380Y-37058600D03*
G04 #@! TO.P,U7,14*
G04 #@! TO.N,/5+*
X65016380Y-52298600D03*
G04 #@! TO.P,U7,2*
G04 #@! TO.N,/D6*
X87876380Y-37058600D03*
G04 #@! TO.P,U7,13*
G04 #@! TO.N,Net-(U7-Pad13)*
X62476380Y-52298600D03*
D11*
G04 #@! TO.P,U7,1*
G04 #@! TO.N,/D7*
X90416380Y-37058600D03*
G04 #@! TD*
D10*
G04 #@! TO.P,U6,28*
G04 #@! TO.N,/5+*
X100576380Y-98780600D03*
G04 #@! TO.P,U6,14*
G04 #@! TO.N,/GND*
X67556380Y-83540600D03*
G04 #@! TO.P,U6,27*
G04 #@! TO.N,/A0*
X98036380Y-98780600D03*
G04 #@! TO.P,U6,13*
G04 #@! TO.N,/CAS1*
X70096380Y-83540600D03*
G04 #@! TO.P,U6,26*
G04 #@! TO.N,/INTA*
X95496380Y-98780600D03*
G04 #@! TO.P,U6,12*
G04 #@! TO.N,/CAS0*
X72636380Y-83540600D03*
G04 #@! TO.P,U6,25*
G04 #@! TO.N,/IRQ7*
X92956380Y-98780600D03*
G04 #@! TO.P,U6,11*
G04 #@! TO.N,/D0*
X75176380Y-83540600D03*
G04 #@! TO.P,U6,24*
G04 #@! TO.N,/IRQ6*
X90416380Y-98780600D03*
G04 #@! TO.P,U6,10*
G04 #@! TO.N,/D1*
X77716380Y-83540600D03*
G04 #@! TO.P,U6,23*
G04 #@! TO.N,/IRQ5*
X87876380Y-98780600D03*
G04 #@! TO.P,U6,9*
G04 #@! TO.N,/D2*
X80256380Y-83540600D03*
G04 #@! TO.P,U6,22*
G04 #@! TO.N,/IRQ4*
X85336380Y-98780600D03*
G04 #@! TO.P,U6,8*
G04 #@! TO.N,/D3*
X82796380Y-83540600D03*
G04 #@! TO.P,U6,21*
G04 #@! TO.N,/IRQ3*
X82796380Y-98780600D03*
G04 #@! TO.P,U6,7*
G04 #@! TO.N,/D4*
X85336380Y-83540600D03*
G04 #@! TO.P,U6,20*
G04 #@! TO.N,/IRQ2*
X80256380Y-98780600D03*
G04 #@! TO.P,U6,6*
G04 #@! TO.N,/D5*
X87876380Y-83540600D03*
G04 #@! TO.P,U6,19*
G04 #@! TO.N,/IRQ1*
X77716380Y-98780600D03*
G04 #@! TO.P,U6,5*
G04 #@! TO.N,/D6*
X90416380Y-83540600D03*
G04 #@! TO.P,U6,18*
G04 #@! TO.N,/IRQ0*
X75176380Y-98780600D03*
G04 #@! TO.P,U6,4*
G04 #@! TO.N,/D7*
X92956380Y-83540600D03*
G04 #@! TO.P,U6,17*
G04 #@! TO.N,/INTR*
X72636380Y-98780600D03*
G04 #@! TO.P,U6,3*
G04 #@! TO.N,/IORD*
X95496380Y-83540600D03*
G04 #@! TO.P,U6,16*
G04 #@! TO.N,/5+*
X70096380Y-98780600D03*
G04 #@! TO.P,U6,2*
G04 #@! TO.N,/IOWR*
X98036380Y-83540600D03*
G04 #@! TO.P,U6,15*
G04 #@! TO.N,/CAS2*
X67556380Y-98780600D03*
D11*
G04 #@! TO.P,U6,1*
G04 #@! TO.N,/IO_002X*
X100576380Y-83540600D03*
G04 #@! TD*
D10*
G04 #@! TO.P,U5,40*
G04 #@! TO.N,/5+*
X198366380Y-52298600D03*
G04 #@! TO.P,U5,20*
G04 #@! TO.N,/GND*
X150106380Y-37058600D03*
G04 #@! TO.P,U5,39*
G04 #@! TO.N,/AD15*
X195826380Y-52298600D03*
G04 #@! TO.P,U5,19*
G04 #@! TO.N,/CLK_86*
X152646380Y-37058600D03*
G04 #@! TO.P,U5,38*
G04 #@! TO.N,/A16_*
X193286380Y-52298600D03*
G04 #@! TO.P,U5,18*
G04 #@! TO.N,/INTR*
X155186380Y-37058600D03*
G04 #@! TO.P,U5,37*
G04 #@! TO.N,/A17_*
X190746380Y-52298600D03*
G04 #@! TO.P,U5,17*
G04 #@! TO.N,/NMI*
X157726380Y-37058600D03*
G04 #@! TO.P,U5,36*
G04 #@! TO.N,/A18_*
X188206380Y-52298600D03*
G04 #@! TO.P,U5,16*
G04 #@! TO.N,/AD0*
X160266380Y-37058600D03*
G04 #@! TO.P,U5,35*
G04 #@! TO.N,/A19_*
X185666380Y-52298600D03*
G04 #@! TO.P,U5,15*
G04 #@! TO.N,/AD1*
X162806380Y-37058600D03*
G04 #@! TO.P,U5,34*
G04 #@! TO.N,/BHE_*
X183126380Y-52298600D03*
G04 #@! TO.P,U5,14*
G04 #@! TO.N,/AD2*
X165346380Y-37058600D03*
G04 #@! TO.P,U5,33*
G04 #@! TO.N,/5+*
X180586380Y-52298600D03*
G04 #@! TO.P,U5,13*
G04 #@! TO.N,/AD3*
X167886380Y-37058600D03*
G04 #@! TO.P,U5,32*
G04 #@! TO.N,/RD*
X178046380Y-52298600D03*
G04 #@! TO.P,U5,12*
G04 #@! TO.N,/AD4*
X170426380Y-37058600D03*
G04 #@! TO.P,U5,31*
G04 #@! TO.N,/HOLD*
X175506380Y-52298600D03*
G04 #@! TO.P,U5,11*
G04 #@! TO.N,/AD5*
X172966380Y-37058600D03*
G04 #@! TO.P,U5,30*
G04 #@! TO.N,/HOLDA*
X172966380Y-52298600D03*
G04 #@! TO.P,U5,10*
G04 #@! TO.N,/AD6*
X175506380Y-37058600D03*
G04 #@! TO.P,U5,29*
G04 #@! TO.N,/WR*
X170426380Y-52298600D03*
G04 #@! TO.P,U5,9*
G04 #@! TO.N,/AD7*
X178046380Y-37058600D03*
G04 #@! TO.P,U5,28*
G04 #@! TO.N,/IO_M*
X167886380Y-52298600D03*
G04 #@! TO.P,U5,8*
G04 #@! TO.N,/AD8*
X180586380Y-37058600D03*
G04 #@! TO.P,U5,27*
G04 #@! TO.N,/DTR*
X165346380Y-52298600D03*
G04 #@! TO.P,U5,7*
G04 #@! TO.N,/AD9*
X183126380Y-37058600D03*
G04 #@! TO.P,U5,26*
G04 #@! TO.N,/DEN*
X162806380Y-52298600D03*
G04 #@! TO.P,U5,6*
G04 #@! TO.N,/AD10*
X185666380Y-37058600D03*
G04 #@! TO.P,U5,25*
G04 #@! TO.N,/ALE*
X160266380Y-52298600D03*
G04 #@! TO.P,U5,5*
G04 #@! TO.N,/AD11*
X188206380Y-37058600D03*
G04 #@! TO.P,U5,24*
G04 #@! TO.N,/INTA*
X157726380Y-52298600D03*
G04 #@! TO.P,U5,4*
G04 #@! TO.N,/AD12*
X190746380Y-37058600D03*
G04 #@! TO.P,U5,23*
G04 #@! TO.N,/GND*
X155186380Y-52298600D03*
G04 #@! TO.P,U5,3*
G04 #@! TO.N,/AD13*
X193286380Y-37058600D03*
G04 #@! TO.P,U5,22*
G04 #@! TO.N,/READY1*
X152646380Y-52298600D03*
G04 #@! TO.P,U5,2*
G04 #@! TO.N,/AD14*
X195826380Y-37058600D03*
G04 #@! TO.P,U5,21*
G04 #@! TO.N,/RESET1*
X150106380Y-52298600D03*
D11*
G04 #@! TO.P,U5,1*
G04 #@! TO.N,/GND*
X198366380Y-37058600D03*
G04 #@! TD*
D10*
G04 #@! TO.P,U4,20*
G04 #@! TO.N,/5+*
X171442380Y-84048600D03*
G04 #@! TO.P,U4,10*
G04 #@! TO.N,/GND*
X148582380Y-76428600D03*
G04 #@! TO.P,U4,19*
G04 #@! TO.N,/DEN_NORMAL*
X168902380Y-84048600D03*
G04 #@! TO.P,U4,9*
G04 #@! TO.N,/AD0*
X151122380Y-76428600D03*
G04 #@! TO.P,U4,18*
G04 #@! TO.N,/D7*
X166362380Y-84048600D03*
G04 #@! TO.P,U4,8*
G04 #@! TO.N,/AD1*
X153662380Y-76428600D03*
G04 #@! TO.P,U4,17*
G04 #@! TO.N,/D6*
X163822380Y-84048600D03*
G04 #@! TO.P,U4,7*
G04 #@! TO.N,/AD2*
X156202380Y-76428600D03*
G04 #@! TO.P,U4,16*
G04 #@! TO.N,/D5*
X161282380Y-84048600D03*
G04 #@! TO.P,U4,6*
G04 #@! TO.N,/AD3*
X158742380Y-76428600D03*
G04 #@! TO.P,U4,15*
G04 #@! TO.N,/D4*
X158742380Y-84048600D03*
G04 #@! TO.P,U4,5*
G04 #@! TO.N,/AD4*
X161282380Y-76428600D03*
G04 #@! TO.P,U4,14*
G04 #@! TO.N,/D3*
X156202380Y-84048600D03*
G04 #@! TO.P,U4,4*
G04 #@! TO.N,/AD5*
X163822380Y-76428600D03*
G04 #@! TO.P,U4,13*
G04 #@! TO.N,/D2*
X153662380Y-84048600D03*
G04 #@! TO.P,U4,3*
G04 #@! TO.N,/AD6*
X166362380Y-76428600D03*
G04 #@! TO.P,U4,12*
G04 #@! TO.N,/D1*
X151122380Y-84048600D03*
G04 #@! TO.P,U4,2*
G04 #@! TO.N,/AD7*
X168902380Y-76428600D03*
G04 #@! TO.P,U4,11*
G04 #@! TO.N,/D0*
X148582380Y-84048600D03*
D11*
G04 #@! TO.P,U4,1*
G04 #@! TO.N,/DTR*
X171442380Y-76428600D03*
G04 #@! TD*
D10*
G04 #@! TO.P,U3,20*
G04 #@! TO.N,/5+*
X230370380Y-72618600D03*
G04 #@! TO.P,U3,10*
G04 #@! TO.N,/GND*
X207510380Y-64998600D03*
G04 #@! TO.P,U3,19*
G04 #@! TO.N,/BHE*
X227830380Y-72618600D03*
G04 #@! TO.P,U3,9*
G04 #@! TO.N,/A16_*
X210050380Y-64998600D03*
G04 #@! TO.P,U3,18*
G04 #@! TO.N,/LACHED_MEMCS16*
X225290380Y-72618600D03*
G04 #@! TO.P,U3,8*
G04 #@! TO.N,/A17_*
X212590380Y-64998600D03*
G04 #@! TO.P,U3,17*
G04 #@! TO.N,Net-(U3-Pad17)*
X222750380Y-72618600D03*
G04 #@! TO.P,U3,7*
G04 #@! TO.N,/A18_*
X215130380Y-64998600D03*
G04 #@! TO.P,U3,16*
G04 #@! TO.N,Net-(U3-Pad16)*
X220210380Y-72618600D03*
G04 #@! TO.P,U3,6*
G04 #@! TO.N,/A19_*
X217670380Y-64998600D03*
G04 #@! TO.P,U3,15*
G04 #@! TO.N,/A19*
X217670380Y-72618600D03*
G04 #@! TO.P,U3,5*
G04 #@! TO.N,Net-(U3-Pad5)*
X220210380Y-64998600D03*
G04 #@! TO.P,U3,14*
G04 #@! TO.N,/A18*
X215130380Y-72618600D03*
G04 #@! TO.P,U3,4*
G04 #@! TO.N,Net-(U3-Pad4)*
X222750380Y-64998600D03*
G04 #@! TO.P,U3,13*
G04 #@! TO.N,/A17*
X212590380Y-72618600D03*
G04 #@! TO.P,U3,3*
G04 #@! TO.N,/MEMCS16*
X225290380Y-64998600D03*
G04 #@! TO.P,U3,12*
G04 #@! TO.N,/A16*
X210050380Y-72618600D03*
G04 #@! TO.P,U3,2*
G04 #@! TO.N,/BHE_*
X227830380Y-64998600D03*
G04 #@! TO.P,U3,11*
G04 #@! TO.N,/ALE*
X207510380Y-72618600D03*
D11*
G04 #@! TO.P,U3,1*
G04 #@! TO.N,/HOLDA*
X230370380Y-64998600D03*
G04 #@! TD*
D10*
G04 #@! TO.P,U1,18*
G04 #@! TO.N,/5+*
X230370380Y-44678600D03*
G04 #@! TO.P,U1,9*
G04 #@! TO.N,/GND*
X210050380Y-37058600D03*
G04 #@! TO.P,U1,17*
G04 #@! TO.N,/X1*
X227830380Y-44678600D03*
G04 #@! TO.P,U1,8*
G04 #@! TO.N,/CLK1*
X212590380Y-37058600D03*
G04 #@! TO.P,U1,16*
G04 #@! TO.N,/X2*
X225290380Y-44678600D03*
G04 #@! TO.P,U1,7*
G04 #@! TO.N,/5+*
X215130380Y-37058600D03*
G04 #@! TO.P,U1,15*
G04 #@! TO.N,/GND*
X222750380Y-44678600D03*
G04 #@! TO.P,U1,6*
X217670380Y-37058600D03*
G04 #@! TO.P,U1,14*
G04 #@! TO.N,Net-(U1-Pad14)*
X220210380Y-44678600D03*
G04 #@! TO.P,U1,5*
G04 #@! TO.N,/READY1*
X220210380Y-37058600D03*
G04 #@! TO.P,U1,13*
G04 #@! TO.N,/GND*
X217670380Y-44678600D03*
G04 #@! TO.P,U1,4*
G04 #@! TO.N,/RDY1*
X222750380Y-37058600D03*
G04 #@! TO.P,U1,12*
G04 #@! TO.N,Net-(U1-Pad12)*
X215130380Y-44678600D03*
G04 #@! TO.P,U1,3*
G04 #@! TO.N,/GND*
X225290380Y-37058600D03*
G04 #@! TO.P,U1,11*
G04 #@! TO.N,/RESET*
X212590380Y-44678600D03*
G04 #@! TO.P,U1,2*
G04 #@! TO.N,Net-(U1-Pad2)*
X227830380Y-37058600D03*
G04 #@! TO.P,U1,10*
G04 #@! TO.N,/RESET1*
X210050380Y-44678600D03*
D11*
G04 #@! TO.P,U1,1*
G04 #@! TO.N,/GND*
X230370380Y-37058600D03*
G04 #@! TD*
D12*
G04 #@! TO.P,C17,2*
G04 #@! TO.N,/5+*
X233672380Y-44678600D03*
G04 #@! TO.P,C17,1*
G04 #@! TO.N,/GND*
X233672380Y-39678600D03*
G04 #@! TD*
G04 #@! TO.P,C16,2*
G04 #@! TO.N,/5+*
X233672380Y-84048600D03*
G04 #@! TO.P,C16,1*
G04 #@! TO.N,/GND*
X233672380Y-79048600D03*
G04 #@! TD*
G04 #@! TO.P,C15,2*
G04 #@! TO.N,/5+*
X54602380Y-91668600D03*
G04 #@! TO.P,C15,1*
G04 #@! TO.N,/GND*
X54602380Y-86668600D03*
G04 #@! TD*
G04 #@! TO.P,C14,2*
G04 #@! TO.N,/5+*
X54602380Y-78968600D03*
G04 #@! TO.P,C14,1*
G04 #@! TO.N,/GND*
X54602380Y-73968600D03*
G04 #@! TD*
G04 #@! TO.P,C13,2*
G04 #@! TO.N,/5+*
X143248380Y-44678600D03*
G04 #@! TO.P,C13,1*
G04 #@! TO.N,/GND*
X143248380Y-39678600D03*
G04 #@! TD*
G04 #@! TO.P,C12,2*
G04 #@! TO.N,/5+*
X103878380Y-98780600D03*
G04 #@! TO.P,C12,1*
G04 #@! TO.N,/GND*
X103878380Y-93780600D03*
G04 #@! TD*
G04 #@! TO.P,C11,2*
G04 #@! TO.N,/5+*
X174744380Y-84048600D03*
G04 #@! TO.P,C11,1*
G04 #@! TO.N,/GND*
X174744380Y-79048600D03*
G04 #@! TD*
G04 #@! TO.P,C10,2*
G04 #@! TO.N,/5+*
X117594380Y-44678600D03*
G04 #@! TO.P,C10,1*
G04 #@! TO.N,/GND*
X117594380Y-39678600D03*
G04 #@! TD*
G04 #@! TO.P,C9,2*
G04 #@! TO.N,/5+*
X204208380Y-72618600D03*
G04 #@! TO.P,C9,1*
G04 #@! TO.N,/GND*
X204208380Y-67618600D03*
G04 #@! TD*
G04 #@! TO.P,C8,2*
G04 #@! TO.N,/5+*
X204208380Y-84048600D03*
G04 #@! TO.P,C8,1*
G04 #@! TO.N,/GND*
X204208380Y-79048600D03*
G04 #@! TD*
G04 #@! TO.P,C7,2*
G04 #@! TO.N,/5+*
X174744380Y-72618600D03*
G04 #@! TO.P,C7,1*
G04 #@! TO.N,/GND*
X174744380Y-67618600D03*
G04 #@! TD*
G04 #@! TO.P,C6,2*
G04 #@! TO.N,/5+*
X145280380Y-84048600D03*
G04 #@! TO.P,C6,1*
G04 #@! TO.N,/GND*
X145280380Y-79048600D03*
G04 #@! TD*
G04 #@! TO.P,C5,2*
G04 #@! TO.N,/5+*
X201668380Y-52298600D03*
G04 #@! TO.P,C5,1*
G04 #@! TO.N,/GND*
X201668380Y-47298600D03*
G04 #@! TD*
G04 #@! TO.P,C4,2*
G04 #@! TO.N,/5+*
X93718380Y-52298600D03*
G04 #@! TO.P,C4,1*
G04 #@! TO.N,/GND*
X93718380Y-47298600D03*
G04 #@! TD*
G04 #@! TO.P,C3,2*
G04 #@! TO.N,/5+*
X57142380Y-104368600D03*
G04 #@! TO.P,C3,1*
G04 #@! TO.N,/GND*
X57142380Y-99368600D03*
G04 #@! TD*
G04 #@! TO.P,C2,2*
G04 #@! TO.N,/5+*
X233672380Y-72618600D03*
G04 #@! TO.P,C2,1*
G04 #@! TO.N,/GND*
X233672380Y-67618600D03*
G04 #@! TD*
G04 #@! TO.P,C1,2*
G04 #@! TO.N,/5+*
X54602380Y-66268600D03*
G04 #@! TO.P,C1,1*
G04 #@! TO.N,/GND*
X54602380Y-61268600D03*
G04 #@! TD*
D13*
G04 #@! TO.P,J2,36*
G04 #@! TO.N,/BHE*
X136136380Y-134848600D03*
G04 #@! TO.P,J2,35*
G04 #@! TO.N,/LA23*
X133596380Y-134848600D03*
G04 #@! TO.P,J2,22*
G04 #@! TO.N,/D12*
X100576380Y-134848600D03*
G04 #@! TO.P,J2,28*
G04 #@! TO.N,/MEMR*
X115816380Y-134848600D03*
G04 #@! TO.P,J2,24*
G04 #@! TO.N,/D10*
X105656380Y-134848600D03*
G04 #@! TO.P,J2,21*
G04 #@! TO.N,/D13*
X98036380Y-134848600D03*
G04 #@! TO.P,J2,23*
G04 #@! TO.N,/D11*
X103116380Y-134848600D03*
G04 #@! TO.P,J2,20*
G04 #@! TO.N,/D14*
X95496380Y-134848600D03*
G04 #@! TO.P,J2,33*
G04 #@! TO.N,/LA21*
X128516380Y-134848600D03*
G04 #@! TO.P,J2,31*
G04 #@! TO.N,/LA19*
X123436380Y-134848600D03*
G04 #@! TO.P,J2,19*
G04 #@! TO.N,/D15*
X92956380Y-134848600D03*
G04 #@! TO.P,J2,29*
G04 #@! TO.N,/LA17*
X118356380Y-134848600D03*
G04 #@! TO.P,J2,27*
G04 #@! TO.N,/MEMW*
X113276380Y-134848600D03*
G04 #@! TO.P,J2,25*
G04 #@! TO.N,/D9*
X108196380Y-134848600D03*
G04 #@! TO.P,J2,34*
G04 #@! TO.N,/LA22*
X131056380Y-134848600D03*
G04 #@! TO.P,J2,32*
G04 #@! TO.N,/LA20*
X125976380Y-134848600D03*
G04 #@! TO.P,J2,30*
G04 #@! TO.N,/LA18*
X120896380Y-134848600D03*
G04 #@! TO.P,J2,26*
G04 #@! TO.N,/D8*
X110736380Y-134848600D03*
G04 #@! TD*
G04 #@! TO.P,J1,9*
G04 #@! TO.N,/SPK_OUT*
X65016380Y-134848600D03*
G04 #@! TO.P,J1,10*
G04 #@! TO.N,/SPK_GO*
X67556380Y-134848600D03*
G04 #@! TO.P,J1,11*
G04 #@! TO.N,/HF_PCLK*
X70096380Y-134848600D03*
G04 #@! TO.P,J1,12*
G04 #@! TO.N,/DRQ0*
X72636380Y-134848600D03*
G04 #@! TO.P,J1,13*
G04 #@! TO.N,/HOLDA*
X75176380Y-134848600D03*
G04 #@! TO.P,J1,14*
G04 #@! TO.N,/HOLD*
X77716380Y-134848600D03*
G04 #@! TO.P,J1,15*
G04 #@! TO.N,/READY*
X80256380Y-134848600D03*
G04 #@! TO.P,J1,16*
G04 #@! TO.N,/RESET*
X82796380Y-134848600D03*
G04 #@! TD*
D15*
G04 #@! TO.P,R,1*
G04 #@! TO.N,/GND*
X242562380Y-127228600D03*
G04 #@! TD*
G04 #@! TO.P,R,1*
G04 #@! TO.N,/GND*
X242562380Y-70078600D03*
G04 #@! TD*
D16*
G04 #@! TO.N,/5+*
X145280380Y-81762600D03*
X204208380Y-81762600D03*
X204208380Y-70332600D03*
X233672380Y-70332600D03*
X233672380Y-81762600D03*
X233672380Y-42392600D03*
X174744370Y-70332600D03*
X174744390Y-81762600D03*
X234180380Y-127736600D03*
X217416380Y-127736600D03*
X174236380Y-97764600D03*
X151376380Y-97764600D03*
X215130380Y-42392600D03*
X205478380Y-42392600D03*
X205478380Y-52298600D03*
X180078380Y-42392600D03*
X233164380Y-76428600D03*
X143248380Y-41376600D03*
X117594380Y-41376600D03*
X140708380Y-81762600D03*
X104386380Y-81762600D03*
X105402380Y-127736600D03*
X98036380Y-127736600D03*
X94480380Y-40614600D03*
X93210380Y-55092600D03*
X65016380Y-55092600D03*
X57904380Y-91668600D03*
X34790380Y-55092600D03*
X55872380Y-55092600D03*
X55110380Y-82270600D03*
X57904380Y-95986600D03*
X70096380Y-95986600D03*
G04 #@! TO.N,/GND*
X227830380Y-79222600D03*
X148582380Y-79222600D03*
X178046380Y-79222600D03*
X222496380Y-128752600D03*
X199636380Y-128752600D03*
X198366380Y-39852600D03*
X201668380Y-39852600D03*
X210050380Y-39852600D03*
X217670380Y-39852600D03*
X225290380Y-39852600D03*
X230370380Y-39852600D03*
X223258380Y-39852600D03*
X208018380Y-67792600D03*
X233164380Y-59918600D03*
X235196380Y-128752600D03*
X146296380Y-97764600D03*
X144010380Y-97764600D03*
X122166380Y-39852600D03*
X150106380Y-39852600D03*
X155186380Y-39852600D03*
X155186380Y-46964600D03*
X102608380Y-80746600D03*
X119118380Y-80746600D03*
X103370380Y-128752600D03*
X92956380Y-128752600D03*
X96512374Y-39598600D03*
X93210380Y-39598600D03*
X68826380Y-39598600D03*
X62984380Y-39598600D03*
X36568380Y-86588600D03*
X36568380Y-73888600D03*
X36568380Y-61188600D03*
X51300380Y-99288600D03*
X53840380Y-99288600D03*
X35552376Y-99288600D03*
X54094380Y-63728600D03*
X54094380Y-83540600D03*
X68826380Y-80746600D03*
G04 #@! TO.N,/IRQ2*
X79748380Y-91414600D03*
X72128380Y-91414600D03*
G04 #@! TO.N,/IRQ7*
X93464380Y-114782600D03*
X171696380Y-114782600D03*
G04 #@! TO.N,/IRQ6*
X90924380Y-114020600D03*
X169156380Y-114020600D03*
G04 #@! TO.N,/IRQ5*
X88384380Y-113258600D03*
X166616380Y-113258600D03*
G04 #@! TO.N,/IRQ4*
X85844380Y-112496600D03*
X164076380Y-112496600D03*
G04 #@! TO.N,/IRQ3*
X83304380Y-111734600D03*
X161536380Y-111734600D03*
G04 #@! TO.N,/ALE*
X177538380Y-69316600D03*
X148074380Y-69316600D03*
X207002380Y-69316600D03*
X160012380Y-69316600D03*
X153916380Y-95224600D03*
X146804380Y-95224600D03*
X146804380Y-69316600D03*
G04 #@! TO.N,/D7*
X166362380Y-92938600D03*
X221226380Y-129768600D03*
X221226380Y-93446600D03*
X137406380Y-94462600D03*
X166362380Y-94462600D03*
X93464380Y-95986600D03*
G04 #@! TO.N,/D6*
X163822380Y-91922600D03*
X218686380Y-129768600D03*
X218686380Y-92430600D03*
X134866380Y-93446600D03*
X163822380Y-93446600D03*
X90924380Y-95224600D03*
G04 #@! TO.N,/D5*
X161282380Y-90906600D03*
X216146380Y-129768600D03*
X215638380Y-91414600D03*
X132326380Y-92430600D03*
X161282380Y-92430600D03*
X88384380Y-92430600D03*
G04 #@! TO.N,/D4*
X158742380Y-89890600D03*
X213606380Y-129768600D03*
X213098380Y-90398600D03*
X129786380Y-91414600D03*
X158742380Y-91414600D03*
X85844380Y-91414600D03*
G04 #@! TO.N,/D3*
X156202380Y-88874600D03*
X211066380Y-129768600D03*
X210558380Y-89382600D03*
X127246380Y-90398600D03*
X156202380Y-90398600D03*
X83304380Y-90398600D03*
G04 #@! TO.N,/D2*
X153662380Y-87858600D03*
X208526380Y-129768600D03*
X208018380Y-88366600D03*
X124706380Y-89382600D03*
X153662380Y-89382600D03*
X80764380Y-89382600D03*
G04 #@! TO.N,/D1*
X151122380Y-86842600D03*
X205986380Y-129768600D03*
X205986380Y-87350600D03*
X151122380Y-88366600D03*
X78224380Y-88366600D03*
X122166380Y-88620600D03*
G04 #@! TO.N,/D0*
X148582380Y-85826600D03*
X203446380Y-129768600D03*
X203446380Y-86334600D03*
X148582380Y-87350600D03*
X75684380Y-87350600D03*
X119626377Y-87096597D03*
G04 #@! TO.N,/RDY1*
X200906380Y-129768600D03*
X202176380Y-59156600D03*
X221480380Y-59156600D03*
G04 #@! TO.N,/A19*
X195826380Y-129768600D03*
X195826380Y-103098600D03*
X216400380Y-103098600D03*
G04 #@! TO.N,/A18*
X193286380Y-129768600D03*
X193286380Y-102336600D03*
X213860380Y-102336600D03*
G04 #@! TO.N,/A17*
X190746380Y-129768600D03*
X190746380Y-101574600D03*
X211320380Y-101574600D03*
G04 #@! TO.N,/A16*
X188206380Y-129768600D03*
X188206380Y-100812600D03*
X208780380Y-100812600D03*
G04 #@! TO.N,/A15*
X185666380Y-129768600D03*
X185666380Y-100050600D03*
X197096380Y-100050600D03*
G04 #@! TO.N,/A14*
X183126380Y-129768600D03*
X183126380Y-99288600D03*
X194556380Y-99288600D03*
G04 #@! TO.N,/A13*
X180586380Y-129768600D03*
X180586380Y-98526600D03*
X192016380Y-98526600D03*
G04 #@! TO.N,/A12*
X178046380Y-129768600D03*
X178046380Y-97764600D03*
X189476380Y-97764600D03*
G04 #@! TO.N,/A11*
X175506380Y-129768600D03*
X175506380Y-97002600D03*
X186936380Y-97002600D03*
G04 #@! TO.N,/A10*
X172966380Y-129768600D03*
X172966380Y-96240600D03*
X184396380Y-96240600D03*
G04 #@! TO.N,/A9*
X170426380Y-129768600D03*
X170426380Y-95478600D03*
X181856380Y-95478600D03*
G04 #@! TO.N,/A8*
X167886380Y-129768600D03*
X167886380Y-94716600D03*
X179316380Y-94716600D03*
G04 #@! TO.N,/A7*
X165346380Y-129768600D03*
X167632380Y-93700600D03*
X165346380Y-93700600D03*
G04 #@! TO.N,/A6*
X162806380Y-129768600D03*
X165092380Y-92684600D03*
X162806380Y-92684596D03*
G04 #@! TO.N,/A5*
X160266380Y-129768600D03*
X162552380Y-91668600D03*
X160266380Y-91668592D03*
G04 #@! TO.N,/A4*
X157726380Y-129768600D03*
X160012380Y-90652600D03*
X157726380Y-90652590D03*
G04 #@! TO.N,/A3*
X155186380Y-129768600D03*
X157472380Y-89636600D03*
X155186380Y-89636600D03*
G04 #@! TO.N,/A2*
X152646380Y-129768600D03*
X154932380Y-88620600D03*
X152646348Y-88620600D03*
G04 #@! TO.N,/A1*
X150106380Y-129768600D03*
X152392380Y-87604600D03*
X150106374Y-87604600D03*
X80764380Y-58394600D03*
X112260380Y-58394600D03*
X112260380Y-87858600D03*
G04 #@! TO.N,/A0*
X147566380Y-129768600D03*
X149852380Y-86588600D03*
X147566380Y-86588600D03*
X97528380Y-86588600D03*
X78224380Y-59156600D03*
X96766380Y-59156600D03*
X97528380Y-94462600D03*
X51300380Y-94462600D03*
G04 #@! TO.N,/IOWR*
X192016380Y-117830600D03*
X122928380Y-117830600D03*
X122928380Y-57632600D03*
X88384380Y-57632600D03*
X97528380Y-57632600D03*
G04 #@! TO.N,/IORD*
X189476380Y-118592600D03*
X133088380Y-118592600D03*
X133596380Y-56870600D03*
X85844380Y-56870600D03*
X94988380Y-56870600D03*
G04 #@! TO.N,/AD0*
X160774380Y-44424600D03*
X151376380Y-44424600D03*
G04 #@! TO.N,/AD2*
X165854380Y-42900600D03*
X156456380Y-42900600D03*
G04 #@! TO.N,/AD4*
X170934380Y-41376600D03*
X161536380Y-41376600D03*
G04 #@! TO.N,/AD6*
X176014380Y-39852600D03*
X166616380Y-39852600D03*
G04 #@! TO.N,/AD1*
X163314380Y-43662600D03*
X153916380Y-43662600D03*
G04 #@! TO.N,/AD3*
X168394380Y-42138600D03*
X158996380Y-42138600D03*
G04 #@! TO.N,/AD5*
X173474380Y-40614600D03*
X164076380Y-40614600D03*
G04 #@! TO.N,/AD7*
X178554380Y-39090600D03*
X169156380Y-39090600D03*
G04 #@! TO.N,/A16_*
X192778380Y-62204600D03*
X210558380Y-62204600D03*
G04 #@! TO.N,/A18_*
X187698380Y-60680600D03*
X215638380Y-60680600D03*
G04 #@! TO.N,/A17_*
X190238380Y-61442600D03*
X213098380Y-61442600D03*
G04 #@! TO.N,/A19_*
X185158380Y-59918600D03*
X218178380Y-59918600D03*
G04 #@! TO.N,/SPK_OUT*
X66286380Y-129768600D03*
X66286380Y-102844600D03*
X63746380Y-102844600D03*
X72128380Y-58394600D03*
X63746380Y-58394600D03*
G04 #@! TO.N,/SPK_GO*
X68826380Y-129768600D03*
X68826380Y-102082600D03*
X64508380Y-102082600D03*
X64508380Y-59156600D03*
X69588380Y-59156600D03*
G04 #@! TO.N,/HF_PCLK*
X71366380Y-129768600D03*
X71366380Y-101320600D03*
X65270380Y-101320600D03*
X65270380Y-57632600D03*
X67048380Y-57632600D03*
X74668380Y-43662600D03*
X70096380Y-43662600D03*
X70096380Y-43662600D03*
X67048380Y-43662600D03*
G04 #@! TO.N,/HOLDA*
X171950380Y-66776600D03*
X201414380Y-66776600D03*
X230878380Y-66776600D03*
X229100380Y-66776600D03*
X76446380Y-129768600D03*
X136644380Y-66776600D03*
X111752380Y-46456600D03*
X136898380Y-46456600D03*
X113784380Y-66776600D03*
X113784380Y-107924600D03*
X76446380Y-107924600D03*
G04 #@! TO.N,/HOLD*
X78986380Y-129768600D03*
X174998380Y-62204600D03*
X78986380Y-109448600D03*
X115308380Y-62204600D03*
X115308380Y-109448600D03*
G04 #@! TO.N,/RESET*
X84066380Y-129768600D03*
X236720380Y-119354600D03*
X236720380Y-46964600D03*
X212590380Y-46964600D03*
X84066380Y-119354600D03*
G04 #@! TO.N,/NMI*
X157218380Y-41630600D03*
X147566380Y-41630600D03*
X147566380Y-51028600D03*
X116324380Y-51028600D03*
X116324380Y-108686600D03*
X65016380Y-108686600D03*
G04 #@! TO.N,/IO_004X*
X83304380Y-59918600D03*
X62222380Y-59918600D03*
X62222380Y-121640600D03*
X75176380Y-121640600D03*
G04 #@! TO.N,/IO_002X*
X100068380Y-106400600D03*
X77970380Y-106400600D03*
G04 #@! TO.N,/IRQ1*
X82542380Y-101066600D03*
X78224380Y-101066600D03*
G04 #@! TO.N,/DEN*
X162298380Y-61442600D03*
X58412380Y-61442600D03*
X58412380Y-81254600D03*
X49268380Y-81254600D03*
X40632380Y-81254600D03*
X58412380Y-44678600D03*
X37330380Y-44678600D03*
G04 #@! TO.N,/DTR*
X172712380Y-61442600D03*
X165346380Y-61442600D03*
X171950380Y-80746600D03*
X201414380Y-80746600D03*
X142486380Y-80746600D03*
G04 #@! TO.N,/X2*
X224274380Y-59918600D03*
G04 #@! TO.N,/CLK1*
X212590380Y-33756600D03*
G04 #@! TO.N,/READY1*
X152646380Y-45948600D03*
X220210380Y-41122600D03*
X208018380Y-41122600D03*
X208018380Y-45948600D03*
G04 #@! TO.N,/RESET1*
X150106380Y-47980600D03*
X210050380Y-47980600D03*
G04 #@! TO.N,/INTR*
X154170380Y-40868600D03*
X146804380Y-40868600D03*
X146804380Y-51790600D03*
X113022380Y-51790600D03*
X113022380Y-96748600D03*
X73144380Y-96748600D03*
G04 #@! TO.N,/RD*
X178046380Y-48742600D03*
X128516380Y-48742600D03*
X138676380Y-48742600D03*
X113022380Y-48742600D03*
X102862380Y-48742600D03*
G04 #@! TO.N,/WR*
X170426380Y-49504600D03*
X132834380Y-49504600D03*
X127754380Y-49504600D03*
X107180380Y-49504600D03*
X102100380Y-49504600D03*
G04 #@! TO.N,/IO_M*
X167886380Y-50266600D03*
X141216380Y-50266600D03*
X115562380Y-50266600D03*
X60698380Y-50266600D03*
X60698380Y-71348600D03*
G04 #@! TO.N,/INTA*
X157726380Y-54584600D03*
X94226380Y-54584600D03*
X94988380Y-93700600D03*
X44950380Y-93700600D03*
G04 #@! TO.N,/IRQ0*
X75684380Y-90652600D03*
X62984380Y-90652600D03*
X67048380Y-40868600D03*
X63746380Y-40868600D03*
G04 #@! TO.N,/BHE*
X137406380Y-129768600D03*
X137406380Y-110210600D03*
X226560380Y-110210600D03*
X49268380Y-101574600D03*
X52570380Y-101574600D03*
X52570380Y-110210600D03*
G04 #@! TO.N,/D12*
X101846380Y-129768600D03*
X187444380Y-101828600D03*
X101846380Y-101828600D03*
G04 #@! TO.N,/MEMR*
X117086380Y-129768600D03*
X117086380Y-47980600D03*
X100322380Y-47980600D03*
G04 #@! TO.N,/D10*
X106926380Y-129768600D03*
X182364380Y-100304600D03*
X106926380Y-100304600D03*
G04 #@! TO.N,/D13*
X99306380Y-129768600D03*
X189984380Y-102590600D03*
X99306380Y-102590600D03*
G04 #@! TO.N,/D11*
X104386380Y-129768600D03*
X184904380Y-101066600D03*
X104386380Y-101066600D03*
G04 #@! TO.N,/D14*
X96766380Y-129768600D03*
X192524380Y-103352600D03*
X96766380Y-103352600D03*
G04 #@! TO.N,/LA19*
X124706380Y-129768600D03*
X214876380Y-106400600D03*
X124706380Y-106400600D03*
G04 #@! TO.N,/D15*
X94226380Y-129768600D03*
X195064380Y-104114600D03*
X94226380Y-104114600D03*
G04 #@! TO.N,/LA17*
X119626380Y-129768600D03*
X209796380Y-104876600D03*
X119626380Y-104876600D03*
G04 #@! TO.N,/MEMW*
X114546380Y-129768600D03*
X114546380Y-47218600D03*
X104640380Y-47218600D03*
G04 #@! TO.N,/D9*
X109466380Y-129768600D03*
X179824380Y-99542600D03*
X109466380Y-99542600D03*
G04 #@! TO.N,/LA18*
X122166380Y-129768600D03*
X212336380Y-105638600D03*
X122166380Y-105638600D03*
G04 #@! TO.N,/D8*
X112006380Y-129768600D03*
X177284380Y-98780600D03*
X112006380Y-98780600D03*
G04 #@! TO.N,/IOCS16*
X133596380Y-120878600D03*
X47490380Y-120878600D03*
G04 #@! TO.N,/MEMCS16*
X136136380Y-115544600D03*
X224020380Y-115544600D03*
X59174380Y-115544600D03*
X59174380Y-43916600D03*
X39870380Y-43916600D03*
G04 #@! TO.N,/CS16*
X45712380Y-82016600D03*
X41648380Y-82016600D03*
G04 #@! TO.N,/BHE_*
X182618380Y-62966600D03*
X228338380Y-62966600D03*
G04 #@! TO.N,/DEN_NORMAL*
X169410380Y-78206600D03*
X198874380Y-78206600D03*
X111498380Y-78206600D03*
X111498380Y-75920600D03*
X39870380Y-75920600D03*
X39870380Y-45440600D03*
X42410380Y-45440600D03*
X36060380Y-75920600D03*
G04 #@! TO.N,/AD15*
X195318380Y-55346600D03*
X139946380Y-55346600D03*
X198874380Y-59156600D03*
X195318380Y-59156600D03*
G04 #@! TO.N,/AD8*
X181094380Y-60680600D03*
X122166380Y-60680600D03*
G04 #@! TO.N,/AD9*
X183634380Y-59918600D03*
X124706380Y-59918600D03*
G04 #@! TO.N,/AD10*
X186174380Y-59156600D03*
X127246380Y-59156600D03*
G04 #@! TO.N,/AD11*
X188714380Y-58394600D03*
X129786380Y-58394600D03*
G04 #@! TO.N,/AD12*
X191254380Y-57632600D03*
X132326380Y-57632600D03*
G04 #@! TO.N,/AD13*
X193794380Y-56870600D03*
X134866380Y-56870600D03*
G04 #@! TO.N,/AD14*
X196334380Y-56108600D03*
X137406380Y-56108600D03*
G04 #@! TO.N,/DEN_NOT_NORMAL*
X138930380Y-78968600D03*
X110736380Y-78968600D03*
X110736380Y-76682600D03*
X44188380Y-76682600D03*
G04 #@! TO.N,/LA23*
X134866380Y-129768600D03*
X225036380Y-109448600D03*
X134866380Y-109448600D03*
G04 #@! TO.N,/LA21*
X129786380Y-129768600D03*
X219956380Y-107924600D03*
X129786380Y-107924600D03*
G04 #@! TO.N,/LA22*
X132326380Y-129768600D03*
X222496380Y-108686600D03*
X132326380Y-108686600D03*
G04 #@! TO.N,/LA20*
X127246380Y-129768600D03*
X217416380Y-107162600D03*
X127246380Y-107162600D03*
G04 #@! TO.N,/SMRD*
X194556380Y-117068600D03*
X125468380Y-117068600D03*
G04 #@! TO.N,/SMWR*
X197096380Y-116306600D03*
X130548380Y-116306600D03*
G04 #@! TO.N,/CS16_INTA*
X48760380Y-108432600D03*
X39870380Y-102336600D03*
X48252380Y-102336600D03*
G04 #@! TO.N,/LACHED_MEMCS16*
X225290380Y-74396600D03*
X221480380Y-74396600D03*
X220464380Y-120116600D03*
X50030380Y-120116600D03*
G04 #@! TO.N,/ODD_BYTE_EVEN_245*
X42410380Y-63220600D03*
X50792380Y-63220600D03*
X46728380Y-75158600D03*
X42410380Y-75158600D03*
G04 #@! TO.N,/ODD_ODD_EVEN__EVEN_245*
X48252380Y-63982600D03*
X34790380Y-63982600D03*
X34790380Y-76936600D03*
X38600380Y-76936600D03*
G04 #@! TO.N,/ODD_8_BYTE*
X45712380Y-101066600D03*
X44188380Y-101066600D03*
G04 #@! TO.N,/IRQ14*
X120896380Y-107162600D03*
X77208380Y-107162600D03*
G04 #@! TO.N,/IRQ15*
X123944380Y-117068600D03*
X73906380Y-117068600D03*
G04 #@! TO.N,/IRQ12*
X125976380Y-121640600D03*
X81526380Y-121640600D03*
G04 #@! TO.N,/IRQ11*
X128516380Y-116306600D03*
X84066380Y-116306600D03*
G04 #@! TO.N,/IRQ10*
X131056380Y-118592600D03*
X86606380Y-118592600D03*
G04 #@! TO.N,/IRQ9*
X214876380Y-110972600D03*
X89146380Y-110972600D03*
G04 #@! TO.N,/IO_00AX*
X67556380Y-105638600D03*
X107688380Y-105638600D03*
X107688380Y-63728600D03*
G04 #@! TO.N,/PU_257*
X134866380Y-42392600D03*
X130294380Y-42392600D03*
X124198380Y-42392600D03*
X55110380Y-41630600D03*
G04 #@! TO.N,/PU257*
X104640380Y-42392600D03*
X109212380Y-42392600D03*
X98544380Y-42392600D03*
X52570380Y-42392600D03*
G04 #@! TD*
D17*
G04 #@! TO.N,/5+*
X233672380Y-70332600D02*
X204208380Y-70332600D01*
X174744380Y-72618600D02*
X171442380Y-72618600D01*
X204208380Y-70332600D02*
X174744370Y-70332600D01*
X204208380Y-72618600D02*
X200906380Y-72618600D01*
X230370380Y-72618600D02*
X233672380Y-72618600D01*
X230370380Y-84048600D02*
X233672380Y-84048600D01*
X233672380Y-81762600D02*
X204208380Y-81762600D01*
X204208380Y-84048600D02*
X200906380Y-84048600D01*
X204208380Y-81762600D02*
X174744390Y-81762600D01*
X174744380Y-84048600D02*
X171442380Y-84048600D01*
X174744390Y-81762600D02*
X145280380Y-81762600D01*
X145280380Y-84048600D02*
X141978380Y-84048600D01*
X145280380Y-81762600D02*
X140708380Y-81762600D01*
X103878380Y-98780600D02*
X100576380Y-98780600D01*
X234180380Y-127736600D02*
X217416380Y-127736600D01*
X217416380Y-127736600D02*
X217416380Y-127736600D01*
X233672380Y-44678600D02*
X230370380Y-44678600D01*
X174236380Y-97764600D02*
X151376380Y-97764600D01*
X151376380Y-97764600D02*
X151376380Y-97764600D01*
X233672380Y-42392600D02*
X205478380Y-42392600D01*
X198366380Y-52298600D02*
X201668380Y-52298600D01*
X201668380Y-52298600D02*
X205478380Y-52298600D01*
X205478380Y-52298600D02*
X205478380Y-52298600D01*
X205478380Y-42392600D02*
X180078380Y-42392600D01*
X180078380Y-42392600D02*
X180078380Y-42392600D01*
X230370380Y-76428600D02*
X233164380Y-76428600D01*
X114292380Y-44678600D02*
X117594380Y-44678600D01*
X143248380Y-44678600D02*
X139946380Y-44678600D01*
X143248380Y-41376600D02*
X117594380Y-41376600D01*
X117594380Y-41376600D02*
X117594380Y-41376600D01*
X140708380Y-81762600D02*
X105656380Y-81762600D01*
X105656380Y-81762600D02*
X104386380Y-81762600D01*
X103878380Y-78968600D02*
X100576380Y-78968600D01*
X93718380Y-52298600D02*
X90416380Y-52298600D01*
X105402380Y-127736600D02*
X98036380Y-127736600D01*
X117594380Y-41376600D02*
X113784380Y-41376600D01*
X113784380Y-41376600D02*
X113276380Y-40868600D01*
X113276380Y-40868600D02*
X94734380Y-40868600D01*
X94734380Y-40868600D02*
X94480380Y-40614600D01*
X94480380Y-40614600D02*
X94480380Y-40614600D01*
X93210380Y-55092600D02*
X65016380Y-55092600D01*
X65016380Y-55092600D02*
X65016380Y-55092600D01*
X51300380Y-66268600D02*
X54602380Y-66268600D01*
X51300380Y-78968600D02*
X54602380Y-78968600D01*
X54602380Y-91668600D02*
X51300380Y-91668600D01*
X54602380Y-91668600D02*
X57904380Y-91668600D01*
X53840380Y-104368600D02*
X57142380Y-104368600D01*
X58158380Y-55092600D02*
X34790380Y-55092600D01*
X65016380Y-55092600D02*
X58158380Y-55092600D01*
X104386380Y-81762600D02*
X61968380Y-81762600D01*
X61968380Y-81762600D02*
X60698380Y-81762600D01*
X60698380Y-81762600D02*
X60190380Y-82270600D01*
X60190380Y-82270600D02*
X55110380Y-82270600D01*
X55110380Y-82270600D02*
X55110380Y-82270600D01*
X57904380Y-95986600D02*
X70096380Y-95986600D01*
X70096380Y-95986600D02*
X70096380Y-95986600D01*
G04 #@! TO.N,/GND*
X241546380Y-71094600D02*
X242562380Y-70078600D01*
X242562380Y-70078600D02*
X242562380Y-69570600D01*
X242562380Y-69570600D02*
X242054380Y-69062600D01*
X145280380Y-79048600D02*
X145360380Y-79048600D01*
X145360380Y-79048600D02*
X145534380Y-79222600D01*
X174570380Y-79222600D02*
X174744380Y-79048600D01*
X145534380Y-79222600D02*
X174570380Y-79222600D01*
X174744380Y-79048600D02*
X174824380Y-79048600D01*
X174824380Y-79048600D02*
X174998380Y-79222600D01*
X204034380Y-79222600D02*
X204208380Y-79048600D01*
X174998380Y-79222600D02*
X204034380Y-79222600D01*
X204208380Y-79048600D02*
X204288380Y-79048600D01*
X204288380Y-79048600D02*
X204462380Y-79222600D01*
X233498380Y-79222600D02*
X233672380Y-79048600D01*
X204462380Y-79222600D02*
X227830380Y-79222600D01*
X227830380Y-76428600D02*
X225290380Y-76428600D01*
X225290380Y-76428600D02*
X222750380Y-76428600D01*
X222750380Y-76428600D02*
X220210380Y-76428600D01*
X227830380Y-79222600D02*
X233498380Y-79222600D01*
X174824380Y-67618600D02*
X174998380Y-67792600D01*
X174998380Y-67792600D02*
X204034380Y-67792600D01*
X204034380Y-67792600D02*
X204208380Y-67618600D01*
X174744380Y-67618600D02*
X174824380Y-67618600D01*
X204462380Y-67792600D02*
X208018380Y-67792600D01*
X233498380Y-67792600D02*
X233672380Y-67618600D01*
X241038380Y-128752600D02*
X235196380Y-128752600D01*
X242562380Y-127228600D02*
X241038380Y-128752600D01*
X222496380Y-128752600D02*
X199636380Y-128752600D01*
X233672380Y-39678600D02*
X233592380Y-39678600D01*
X233592380Y-39678600D02*
X233418380Y-39852600D01*
X233418380Y-39852600D02*
X230370380Y-39852600D01*
X198366380Y-39852600D02*
X198366380Y-39852600D01*
X201668380Y-39852600D02*
X198366380Y-39852600D01*
X210050380Y-39852600D02*
X201668380Y-39852600D01*
X217670380Y-39852600D02*
X210050380Y-39852600D01*
X225290380Y-39852600D02*
X217670380Y-39852600D01*
X230370380Y-39852600D02*
X225290380Y-39852600D01*
X204288380Y-67618600D02*
X204462380Y-67792600D01*
X204208380Y-67618600D02*
X204288380Y-67618600D01*
X208018380Y-67792600D02*
X233498380Y-67792600D01*
X239260380Y-59918600D02*
X233164380Y-59918600D01*
X233672380Y-67618600D02*
X233752380Y-67618600D01*
X233752380Y-67618600D02*
X234688380Y-68554600D01*
X241038380Y-68554600D02*
X242562380Y-70078600D01*
X234688380Y-68554600D02*
X241038380Y-68554600D01*
X235196380Y-128752600D02*
X222496380Y-128752600D01*
X146296380Y-97764600D02*
X144010380Y-97764600D01*
X143248380Y-39678600D02*
X143328380Y-39678600D01*
X143328380Y-39678600D02*
X143502380Y-39852600D01*
X143502380Y-39852600D02*
X150106380Y-39852600D01*
X143248380Y-39678600D02*
X143168380Y-39678600D01*
X143168380Y-39678600D02*
X142994380Y-39852600D01*
X117768380Y-39852600D02*
X117594380Y-39678600D01*
X142994380Y-39852600D02*
X117768380Y-39852600D01*
X150106380Y-39852600D02*
X155186380Y-39852600D01*
X155186380Y-39852600D02*
X155186380Y-39852600D01*
X155186380Y-46964600D02*
X155186380Y-46964600D01*
X201160380Y-46964600D02*
X155186380Y-46964600D01*
X201494380Y-47298600D02*
X201160380Y-46964600D01*
X201668380Y-47298600D02*
X201494380Y-47298600D01*
X207510380Y-76428600D02*
X210050380Y-76428600D01*
X145280380Y-79048600D02*
X145200380Y-79048600D01*
X145200380Y-79048600D02*
X144772380Y-79476600D01*
X144772380Y-79476600D02*
X140708380Y-79476600D01*
X140708380Y-79476600D02*
X139438380Y-80746600D01*
X139438380Y-80746600D02*
X102608380Y-80746600D01*
X102608380Y-80746600D02*
X102608380Y-80746600D01*
X103370380Y-128752600D02*
X92956380Y-128752600D01*
X96592374Y-39678600D02*
X96512374Y-39598600D01*
X117594380Y-39678600D02*
X96592374Y-39678600D01*
X96512374Y-39598600D02*
X93210380Y-39598600D01*
X93210380Y-39598600D02*
X68826380Y-39598600D01*
X68826380Y-39598600D02*
X62984380Y-39598600D01*
X68826380Y-39598600D02*
X68826380Y-39598600D01*
X62984380Y-39598600D02*
X62984380Y-39598600D01*
X57142380Y-99368600D02*
X57062380Y-99368600D01*
X57062380Y-99368600D02*
X56982380Y-99288600D01*
X56982380Y-99288600D02*
X53840380Y-99288600D01*
X54602380Y-86668600D02*
X36648380Y-86668600D01*
X36648380Y-86668600D02*
X36568380Y-86588600D01*
X54602380Y-73968600D02*
X36648380Y-73968600D01*
X36648380Y-73968600D02*
X36568380Y-73888600D01*
X54602380Y-61268600D02*
X36648380Y-61268600D01*
X36648380Y-61268600D02*
X36568380Y-61188600D01*
X53840380Y-99288600D02*
X51300380Y-99288600D01*
X51300380Y-99288600D02*
X35552376Y-99288600D01*
X67556380Y-63728600D02*
X54094380Y-63728600D01*
X54094380Y-63728600D02*
X54094380Y-63728600D01*
X67556380Y-83540600D02*
X54094380Y-83540600D01*
X54094380Y-83540600D02*
X54094380Y-83540600D01*
X102608380Y-80746600D02*
X68826380Y-80746600D01*
X68826380Y-80746600D02*
X68826380Y-80746600D01*
D18*
G04 #@! TO.N,/IRQ2*
X79748380Y-91414600D02*
X72128380Y-91414600D01*
G04 #@! TO.N,/IRQ7*
X93464380Y-114782600D02*
X171696380Y-114782600D01*
G04 #@! TO.N,/IRQ6*
X90924380Y-114020600D02*
X166490790Y-114020600D01*
X166490790Y-114020600D02*
X169156380Y-114020600D01*
G04 #@! TO.N,/IRQ5*
X88384380Y-113258600D02*
X166616380Y-113258600D01*
G04 #@! TO.N,/IRQ4*
X85844380Y-112496600D02*
X164076380Y-112496600D01*
G04 #@! TO.N,/IRQ3*
X83304380Y-111734600D02*
X161536380Y-111734600D01*
G04 #@! TO.N,/ALE*
X207002380Y-69316600D02*
X177538380Y-69316600D01*
X177538380Y-69316600D02*
X160012380Y-69316600D01*
X160012380Y-69316600D02*
X148074380Y-69316600D01*
X153916380Y-95224600D02*
X146804380Y-95224600D01*
X146804380Y-95224600D02*
X146804380Y-95224600D01*
X148074380Y-69316600D02*
X146804380Y-69316600D01*
G04 #@! TO.N,/D7*
X219956380Y-134848600D02*
X219956380Y-131038600D01*
X219956380Y-131038600D02*
X221226380Y-129768600D01*
X166362380Y-92938600D02*
X169664380Y-92938600D01*
X169664380Y-92938600D02*
X170172380Y-92938600D01*
X170680380Y-93446600D02*
X221226380Y-93446600D01*
X170172380Y-92938600D02*
X170680380Y-93446600D01*
X166362380Y-94462600D02*
X137406380Y-94462600D01*
X105656380Y-95986600D02*
X93464380Y-95986600D01*
X107180380Y-94462600D02*
X105656380Y-95986600D01*
X137406380Y-94462600D02*
X107180380Y-94462600D01*
X93464380Y-95986600D02*
X93464380Y-95986600D01*
G04 #@! TO.N,/D6*
X217416380Y-134848600D02*
X217416380Y-131038600D01*
X217416380Y-131038600D02*
X218686380Y-129768600D01*
X163822380Y-91922600D02*
X167124380Y-91922600D01*
X168140380Y-92430600D02*
X218686380Y-92430600D01*
X167632380Y-91922600D02*
X168140380Y-92430600D01*
X167124380Y-91922600D02*
X167632380Y-91922600D01*
X163822380Y-93446600D02*
X134866380Y-93446600D01*
X104894380Y-95224600D02*
X90924380Y-95224600D01*
X106672380Y-93446600D02*
X104894380Y-95224600D01*
X134866380Y-93446600D02*
X106672380Y-93446600D01*
X90924380Y-95224600D02*
X90924380Y-95224600D01*
G04 #@! TO.N,/D5*
X214876380Y-131038600D02*
X216146380Y-129768600D01*
X214876380Y-134848600D02*
X214876380Y-131038600D01*
X165600380Y-91414600D02*
X215638380Y-91414600D01*
X165092380Y-90906600D02*
X165600380Y-91414600D01*
X161282380Y-90906600D02*
X165092380Y-90906600D01*
X161282380Y-92430600D02*
X132326380Y-92430600D01*
X132326380Y-92430600D02*
X88384380Y-92430600D01*
X88384380Y-92430600D02*
X88384380Y-92430600D01*
G04 #@! TO.N,/D4*
X212336380Y-131038600D02*
X213606380Y-129768600D01*
X212336380Y-134848600D02*
X212336380Y-131038600D01*
X163060380Y-90398600D02*
X213098380Y-90398600D01*
X162552380Y-89890600D02*
X163060380Y-90398600D01*
X158742380Y-89890600D02*
X162552380Y-89890600D01*
X158742380Y-91414600D02*
X129786380Y-91414600D01*
X129220695Y-91414600D02*
X85844380Y-91414600D01*
X129786380Y-91414600D02*
X129220695Y-91414600D01*
G04 #@! TO.N,/D3*
X209796380Y-131038600D02*
X211066380Y-129768600D01*
X209796380Y-134848600D02*
X209796380Y-131038600D01*
X160520380Y-89382600D02*
X210558380Y-89382600D01*
X160012380Y-88874600D02*
X160520380Y-89382600D01*
X156202380Y-88874600D02*
X160012380Y-88874600D01*
X156202380Y-90398600D02*
X127246380Y-90398600D01*
X127246380Y-90398600D02*
X83304380Y-90398600D01*
G04 #@! TO.N,/D2*
X207256380Y-131038600D02*
X208526380Y-129768600D01*
X207256380Y-134848600D02*
X207256380Y-131038600D01*
X157980380Y-88366600D02*
X208018380Y-88366600D01*
X157472380Y-87858600D02*
X157980380Y-88366600D01*
X153662380Y-87858600D02*
X157472380Y-87858600D01*
X153662380Y-89382600D02*
X124706380Y-89382600D01*
X124706380Y-89382600D02*
X80764380Y-89382600D01*
G04 #@! TO.N,/D1*
X204716380Y-134848600D02*
X204716380Y-131038600D01*
X204716380Y-131038600D02*
X205986380Y-129768600D01*
X155440380Y-87350600D02*
X205986380Y-87350600D01*
X154932380Y-86842600D02*
X155440380Y-87350600D01*
X151122380Y-86842600D02*
X154424380Y-86842600D01*
X154424380Y-86842600D02*
X154932380Y-86842600D01*
X150614380Y-88874600D02*
X151122380Y-88366600D01*
X146804380Y-88874600D02*
X150614380Y-88874600D01*
X123182380Y-88366600D02*
X146296380Y-88366600D01*
X122928380Y-88620600D02*
X123182380Y-88366600D01*
X146296380Y-88366600D02*
X146804380Y-88874600D01*
X122166380Y-88620600D02*
X122928380Y-88620600D01*
X121150380Y-88366600D02*
X121404380Y-88620600D01*
X121404380Y-88620600D02*
X122166380Y-88620600D01*
X113784380Y-88366600D02*
X121150380Y-88366600D01*
X113530380Y-88620600D02*
X113784380Y-88366600D01*
X110228380Y-88620600D02*
X113530380Y-88620600D01*
X109974380Y-88366600D02*
X110228380Y-88620600D01*
X78224380Y-88366600D02*
X109974380Y-88366600D01*
G04 #@! TO.N,/D0*
X202176380Y-134848600D02*
X202176380Y-131038600D01*
X202176380Y-131038600D02*
X203446380Y-129768600D01*
X148582380Y-85826600D02*
X151884380Y-85826600D01*
X151884380Y-85826600D02*
X152392380Y-85826600D01*
X152392380Y-85826600D02*
X152900380Y-86334600D01*
X152900380Y-86334600D02*
X203446380Y-86334600D01*
X203446380Y-86334600D02*
X203446380Y-86334600D01*
X119626380Y-87350600D02*
X119626380Y-87350600D01*
X119626380Y-87096600D02*
X119626377Y-87096597D01*
X120388380Y-87096600D02*
X119626380Y-87096600D01*
X120642380Y-87350600D02*
X120388380Y-87096600D01*
X148582380Y-87350600D02*
X120642380Y-87350600D01*
X109974380Y-87350600D02*
X75684380Y-87350600D01*
X110228380Y-87096600D02*
X109974380Y-87350600D01*
X119626374Y-87096600D02*
X110228380Y-87096600D01*
X119626377Y-87096597D02*
X119626374Y-87096600D01*
G04 #@! TO.N,/RDY1*
X199636380Y-134848600D02*
X199636380Y-131038600D01*
X199636380Y-131038600D02*
X200906380Y-129768600D01*
X202176380Y-59156600D02*
X221480380Y-59156600D01*
X221480380Y-59156600D02*
X221480380Y-59156600D01*
G04 #@! TO.N,/A19*
X194556380Y-134848600D02*
X194556380Y-131038600D01*
X194556380Y-131038600D02*
X195826380Y-129768600D01*
X195826380Y-103098600D02*
X216400380Y-103098600D01*
G04 #@! TO.N,/A18*
X192016380Y-131038600D02*
X193286380Y-129768600D01*
X192016380Y-134848600D02*
X192016380Y-131038600D01*
X193286380Y-102336600D02*
X213860380Y-102336600D01*
G04 #@! TO.N,/A17*
X189476380Y-131038600D02*
X190746380Y-129768600D01*
X189476380Y-134848600D02*
X189476380Y-131038600D01*
X190746380Y-101574600D02*
X211320380Y-101574600D01*
G04 #@! TO.N,/A16*
X186936380Y-131038600D02*
X188206380Y-129768600D01*
X186936380Y-134848600D02*
X186936380Y-131038600D01*
X188206380Y-100812600D02*
X208780380Y-100812600D01*
G04 #@! TO.N,/A15*
X184396380Y-134848600D02*
X184396380Y-131038600D01*
X184396380Y-131038600D02*
X185666380Y-129768600D01*
X185666380Y-100050600D02*
X197096380Y-100050600D01*
G04 #@! TO.N,/A14*
X181856380Y-134848600D02*
X181856380Y-131038600D01*
X181856380Y-131038600D02*
X183126380Y-129768600D01*
X183126380Y-99288600D02*
X194556380Y-99288600D01*
G04 #@! TO.N,/A13*
X179316380Y-134848600D02*
X179316380Y-131038600D01*
X179316380Y-131038600D02*
X180586380Y-129768600D01*
X180586380Y-98526600D02*
X192016380Y-98526600D01*
G04 #@! TO.N,/A12*
X176776380Y-134848600D02*
X176776380Y-131038600D01*
X176776380Y-131038600D02*
X178046380Y-129768600D01*
X178046380Y-97764600D02*
X189476380Y-97764600D01*
G04 #@! TO.N,/A11*
X174236380Y-134848600D02*
X174236380Y-131038600D01*
X174236380Y-131038600D02*
X175506380Y-129768600D01*
X175506380Y-97002600D02*
X186936380Y-97002600D01*
G04 #@! TO.N,/A10*
X171696380Y-134848600D02*
X171696380Y-131038600D01*
X171696380Y-131038600D02*
X172966380Y-129768600D01*
X172966380Y-96240600D02*
X184396380Y-96240600D01*
G04 #@! TO.N,/A9*
X169156380Y-131038600D02*
X170426380Y-129768600D01*
X169156380Y-134848600D02*
X169156380Y-131038600D01*
X170426380Y-95478600D02*
X181856380Y-95478600D01*
G04 #@! TO.N,/A8*
X166616380Y-131038600D02*
X167886380Y-129768600D01*
X166616380Y-134848600D02*
X166616380Y-131038600D01*
X167886380Y-94716600D02*
X179316380Y-94716600D01*
G04 #@! TO.N,/A7*
X164076380Y-131038600D02*
X165346380Y-129768600D01*
X164076380Y-134848600D02*
X164076380Y-131038600D01*
X167632380Y-93700600D02*
X165346380Y-93700600D01*
G04 #@! TO.N,/A6*
X161536380Y-134848600D02*
X161536380Y-131038600D01*
X161536380Y-131038600D02*
X162806380Y-129768600D01*
X165092380Y-92684600D02*
X162806384Y-92684600D01*
X162806384Y-92684600D02*
X162806380Y-92684596D01*
G04 #@! TO.N,/A5*
X158996380Y-134848600D02*
X158996380Y-131038600D01*
X158996380Y-131038600D02*
X160266380Y-129768600D01*
X162552380Y-91668600D02*
X160266388Y-91668600D01*
X160266388Y-91668600D02*
X160266380Y-91668592D01*
G04 #@! TO.N,/A4*
X156456380Y-134848600D02*
X156456380Y-131038600D01*
X156456380Y-131038600D02*
X157726380Y-129768600D01*
X160012380Y-90652600D02*
X157726390Y-90652600D01*
X157726390Y-90652600D02*
X157726380Y-90652590D01*
G04 #@! TO.N,/A3*
X153916380Y-131038600D02*
X155186380Y-129768600D01*
X153916380Y-134848600D02*
X153916380Y-131038600D01*
X157472380Y-89636600D02*
X155186380Y-89636600D01*
G04 #@! TO.N,/A2*
X151376380Y-134848600D02*
X151376380Y-131038600D01*
X151376380Y-131038600D02*
X152646380Y-129768600D01*
X154932380Y-88620600D02*
X152646348Y-88620600D01*
G04 #@! TO.N,/A1*
X148836380Y-134848600D02*
X148836380Y-131038600D01*
X148836380Y-131038600D02*
X150106380Y-129768600D01*
X152392380Y-87604600D02*
X150106374Y-87604600D01*
X147566380Y-88366600D02*
X147058380Y-87858600D01*
X149344380Y-88366600D02*
X147566380Y-88366600D01*
X147058380Y-87858600D02*
X112260380Y-87858600D01*
X149598374Y-88112606D02*
X149344380Y-88366600D01*
X149598374Y-88112600D02*
X149598374Y-88112606D01*
X150106374Y-87604600D02*
X149598374Y-88112600D01*
X80764380Y-58394600D02*
X112260380Y-58394600D01*
X112260380Y-58394600D02*
X112260380Y-58394600D01*
G04 #@! TO.N,/A0*
X146296380Y-134848600D02*
X146296380Y-131038600D01*
X146296380Y-131038600D02*
X147566380Y-129768600D01*
X147566380Y-129768600D02*
X147566380Y-129768600D01*
X149852380Y-86588600D02*
X147566380Y-86588600D01*
X120388380Y-86334600D02*
X120642380Y-86588600D01*
X120642380Y-86588600D02*
X147566380Y-86588600D01*
X118864380Y-86334600D02*
X120388380Y-86334600D01*
X118610380Y-86588600D02*
X118864380Y-86334600D01*
X97528380Y-86588600D02*
X118610380Y-86588600D01*
X78224380Y-59156600D02*
X96766380Y-59156600D01*
X96766380Y-59156600D02*
X96766380Y-59156600D01*
X97528380Y-94462600D02*
X97528380Y-94462600D01*
X97528380Y-94462600D02*
X51300380Y-94462600D01*
G04 #@! TO.N,/IOWR*
X192016380Y-117830600D02*
X122928380Y-117830600D01*
X122928380Y-57632600D02*
X88384380Y-57632600D01*
X88384380Y-57632600D02*
X88384380Y-57632600D01*
G04 #@! TO.N,/IORD*
X189476380Y-118592600D02*
X133088380Y-118592600D01*
X133596380Y-56870600D02*
X85844380Y-56870600D01*
X85844380Y-56870600D02*
X85844380Y-56870600D01*
G04 #@! TO.N,/AD0*
X160774380Y-44424600D02*
X151376380Y-44424600D01*
G04 #@! TO.N,/AD2*
X165854380Y-42900600D02*
X156456380Y-42900600D01*
G04 #@! TO.N,/AD4*
X170934380Y-41376600D02*
X161536380Y-41376600D01*
X161536380Y-41376600D02*
X161536380Y-41376600D01*
G04 #@! TO.N,/AD6*
X176014380Y-39852600D02*
X166616380Y-39852600D01*
X166616380Y-39852600D02*
X166616380Y-39852600D01*
G04 #@! TO.N,/AD1*
X163314380Y-43662600D02*
X153916380Y-43662600D01*
G04 #@! TO.N,/AD3*
X168394380Y-42138600D02*
X158996380Y-42138600D01*
G04 #@! TO.N,/AD5*
X173474380Y-40614600D02*
X164076380Y-40614600D01*
X164076380Y-40614600D02*
X164076380Y-40614600D01*
G04 #@! TO.N,/AD7*
X178554380Y-39090600D02*
X169156380Y-39090600D01*
X169156380Y-39090600D02*
X169156380Y-39090600D01*
G04 #@! TO.N,/A16_*
X192778380Y-62204600D02*
X210558380Y-62204600D01*
G04 #@! TO.N,/A18_*
X187698380Y-60680600D02*
X215638380Y-60680600D01*
G04 #@! TO.N,/A17_*
X190238380Y-61442600D02*
X213098380Y-61442600D01*
G04 #@! TO.N,/A19_*
X185158380Y-59918600D02*
X218178380Y-59918600D01*
G04 #@! TO.N,/SPK_OUT*
X65016380Y-131038600D02*
X66286380Y-129768600D01*
X65016380Y-134848600D02*
X65016380Y-131038600D01*
X66286380Y-102844600D02*
X63746380Y-102844600D01*
X63746380Y-102844600D02*
X63746380Y-102844600D01*
X72128380Y-58394600D02*
X63746380Y-58394600D01*
X63746380Y-58394600D02*
X63746380Y-58394600D01*
G04 #@! TO.N,/SPK_GO*
X67556380Y-134848600D02*
X67556380Y-131038600D01*
X67556380Y-131038600D02*
X68826380Y-129768600D01*
X68826380Y-102082600D02*
X64508380Y-102082600D01*
X64508380Y-102082600D02*
X64508380Y-102082600D01*
X64508380Y-59156600D02*
X69588380Y-59156600D01*
X69588380Y-59156600D02*
X69588380Y-59156600D01*
G04 #@! TO.N,/HF_PCLK*
X70096380Y-131038600D02*
X71366380Y-129768600D01*
X70096380Y-134848600D02*
X70096380Y-131038600D01*
X71366380Y-101320600D02*
X65270380Y-101320600D01*
X65270380Y-101320600D02*
X65270380Y-101320600D01*
X65270380Y-57632600D02*
X67048380Y-57632600D01*
X67048380Y-57632600D02*
X67048380Y-57632600D01*
X74668380Y-43662600D02*
X70096380Y-43662600D01*
X70096380Y-43662600D02*
X67048380Y-43662600D01*
G04 #@! TO.N,/HOLDA*
X203192380Y-66014600D02*
X202430380Y-66776600D01*
X205986380Y-66014600D02*
X203192380Y-66014600D01*
X202430380Y-66776600D02*
X201414380Y-66776600D01*
X206748380Y-66776600D02*
X205986380Y-66014600D01*
X230878380Y-66776600D02*
X206748380Y-66776600D01*
X173728380Y-66014600D02*
X172966380Y-66776600D01*
X201414380Y-66776600D02*
X177284380Y-66776600D01*
X172966380Y-66776600D02*
X171950380Y-66776600D01*
X176522380Y-66014600D02*
X173728380Y-66014600D01*
X177284380Y-66776600D02*
X176522380Y-66014600D01*
X75176380Y-131038600D02*
X76446380Y-129768600D01*
X75176380Y-134848600D02*
X75176380Y-131038600D01*
X171950380Y-66776600D02*
X136644380Y-66776600D01*
X136644380Y-66776600D02*
X136644380Y-66776600D01*
X111752380Y-46456600D02*
X136898380Y-46456600D01*
X136898380Y-46456600D02*
X136898380Y-46456600D01*
X136644380Y-66776600D02*
X113784380Y-66776600D01*
X113784380Y-66776600D02*
X113784380Y-66776600D01*
X113784380Y-107924600D02*
X76446380Y-107924600D01*
X76446380Y-107924600D02*
X76446380Y-107924600D01*
G04 #@! TO.N,/HOLD*
X77716380Y-131038600D02*
X78986380Y-129768600D01*
X77716380Y-134848600D02*
X77716380Y-131038600D01*
X78986380Y-109448600D02*
X78986380Y-109448600D01*
X174998380Y-62204600D02*
X115308380Y-62204600D01*
X78986380Y-109448600D02*
X115308380Y-109448600D01*
G04 #@! TO.N,/RESET*
X82796380Y-134848600D02*
X82796380Y-131038600D01*
X82796380Y-131038600D02*
X84066380Y-129768600D01*
X236720380Y-119354600D02*
X236720380Y-119354600D01*
X236720380Y-46964600D02*
X212590380Y-46964600D01*
X212590380Y-46964600D02*
X212590380Y-46964600D01*
X236720380Y-119354600D02*
X84066380Y-119354600D01*
G04 #@! TO.N,/NMI*
X157218380Y-41630600D02*
X147566380Y-41630600D01*
X147566380Y-41630600D02*
X147566380Y-41630600D01*
X147566380Y-51028600D02*
X116324380Y-51028600D01*
X116324380Y-51028600D02*
X116324380Y-51028600D01*
X116324380Y-108686600D02*
X65016380Y-108686600D01*
X65016380Y-108686600D02*
X65016380Y-108686600D01*
G04 #@! TO.N,/IO_004X*
X83304380Y-59918600D02*
X62222380Y-59918600D01*
X62222380Y-59918600D02*
X62222380Y-59918600D01*
X62222380Y-121640600D02*
X75176380Y-121640600D01*
X75176380Y-121640600D02*
X75176380Y-121640600D01*
G04 #@! TO.N,/IO_002X*
X100068380Y-106400600D02*
X77970380Y-106400600D01*
X77970380Y-106400600D02*
X77970380Y-106400600D01*
G04 #@! TO.N,/IRQ1*
X82542380Y-101066600D02*
X78224380Y-101066600D01*
G04 #@! TO.N,/DEN*
X101846380Y-61442600D02*
X58412380Y-61442600D01*
X162298380Y-61442600D02*
X101846380Y-61442600D01*
X58412380Y-61442600D02*
X58412380Y-61442600D01*
X58412380Y-81254600D02*
X49268380Y-81254600D01*
X49268380Y-81254600D02*
X40632380Y-81254600D01*
X58412380Y-44678600D02*
X37330380Y-44678600D01*
X37330380Y-44678600D02*
X37330380Y-44678600D01*
G04 #@! TO.N,/DTR*
X172712380Y-61442600D02*
X165346380Y-61442600D01*
X165346380Y-61442600D02*
X165346380Y-61442600D01*
X142486380Y-80746600D02*
X171950380Y-80746600D01*
X171950380Y-80746600D02*
X201414380Y-80746600D01*
G04 #@! TO.N,/X2*
X224274380Y-59918600D02*
X224274380Y-59918600D01*
X229100380Y-59918600D02*
X224528380Y-59918600D01*
X224274380Y-59918600D02*
X224528380Y-59918600D01*
G04 #@! TO.N,/CLK1*
X162806380Y-33756600D02*
X167632380Y-33756600D01*
X167632380Y-33756600D02*
X212590380Y-33756600D01*
X212590380Y-33756600D02*
X212590380Y-33756600D01*
G04 #@! TO.N,/READY1*
X208018380Y-45948600D02*
X208018380Y-45948600D01*
X220210380Y-41122600D02*
X208018380Y-41122600D01*
X208018380Y-41122600D02*
X208018380Y-41122600D01*
X208018380Y-45948600D02*
X152646380Y-45948600D01*
G04 #@! TO.N,/RESET1*
X150106380Y-47980600D02*
X178357382Y-47980600D01*
X178357382Y-47980600D02*
X197350380Y-47980600D01*
X197350380Y-47980600D02*
X198112380Y-48742600D01*
X198112380Y-48742600D02*
X203446380Y-48742600D01*
X203446380Y-48742600D02*
X204208380Y-47980600D01*
X204208380Y-47980600D02*
X210050380Y-47980600D01*
X210050380Y-47980600D02*
X210050380Y-47980600D01*
G04 #@! TO.N,/INTR*
X154170380Y-40868600D02*
X146804380Y-40868600D01*
X146804380Y-40868600D02*
X146804380Y-40868600D01*
X146804380Y-51790600D02*
X113022380Y-51790600D01*
X113022380Y-51790600D02*
X113022380Y-51790600D01*
X113022380Y-96748600D02*
X73144380Y-96748600D01*
X73144380Y-96748600D02*
X73144380Y-96748600D01*
G04 #@! TO.N,/RD*
X102862380Y-48742600D02*
X178046380Y-48742600D01*
G04 #@! TO.N,/WR*
X102100380Y-49504600D02*
X170426380Y-49504600D01*
G04 #@! TO.N,/IO_M*
X100576380Y-50266600D02*
X167886380Y-50266600D01*
X100576380Y-50266600D02*
X60698380Y-50266600D01*
X60698380Y-71348600D02*
X51300380Y-71348600D01*
G04 #@! TO.N,/INTA*
X157726380Y-54584600D02*
X157726380Y-54584600D01*
X157726380Y-54584600D02*
X94226380Y-54584600D01*
X94988380Y-93700600D02*
X44950380Y-93700600D01*
X44950380Y-93700600D02*
X44950380Y-93700600D01*
G04 #@! TO.N,/IRQ0*
X75684380Y-90652600D02*
X62984380Y-90652600D01*
X62984380Y-90652600D02*
X62984380Y-90652600D01*
X67048380Y-40868600D02*
X63746380Y-40868600D01*
G04 #@! TO.N,/BHE*
X136136380Y-131038600D02*
X137406380Y-129768600D01*
X136136380Y-134848600D02*
X136136380Y-131038600D01*
X225347382Y-110210600D02*
X226560380Y-110210600D01*
X137406380Y-110210600D02*
X225347382Y-110210600D01*
X49268380Y-101574600D02*
X52570380Y-101574600D01*
X52570380Y-101574600D02*
X52570380Y-101574600D01*
X137406380Y-110210600D02*
X52570380Y-110210600D01*
G04 #@! TO.N,/D12*
X100576380Y-134848600D02*
X100576380Y-131038600D01*
X100576380Y-131038600D02*
X101846380Y-129768600D01*
X187444380Y-101828600D02*
X101846380Y-101828600D01*
G04 #@! TO.N,/MEMR*
X115816380Y-134848600D02*
X115816380Y-131038600D01*
X115816380Y-131038600D02*
X117086380Y-129768600D01*
X117086380Y-47980600D02*
X100322380Y-47980600D01*
X100322380Y-47980600D02*
X100322380Y-47980600D01*
G04 #@! TO.N,/D10*
X105656380Y-131038600D02*
X106926380Y-129768600D01*
X105656380Y-134848600D02*
X105656380Y-131038600D01*
X182364380Y-100304600D02*
X106926380Y-100304600D01*
G04 #@! TO.N,/D13*
X98036380Y-134848600D02*
X98036380Y-131038600D01*
X98036380Y-131038600D02*
X99306380Y-129768600D01*
X189984380Y-102590600D02*
X99306380Y-102590600D01*
G04 #@! TO.N,/D11*
X103116380Y-134848600D02*
X103116380Y-131038600D01*
X103116380Y-131038600D02*
X104386380Y-129768600D01*
X184904380Y-101066600D02*
X104386380Y-101066600D01*
G04 #@! TO.N,/D14*
X95496380Y-134848600D02*
X95496380Y-131038600D01*
X95496380Y-131038600D02*
X96766380Y-129768600D01*
X192524380Y-103352600D02*
X96766380Y-103352600D01*
G04 #@! TO.N,/LA19*
X123436380Y-134848600D02*
X123436380Y-131038600D01*
X123436380Y-131038600D02*
X124706380Y-129768600D01*
X214876380Y-106400600D02*
X124706380Y-106400600D01*
X124706380Y-106400600D02*
X124706380Y-106400600D01*
G04 #@! TO.N,/D15*
X92956380Y-134848600D02*
X92956380Y-131038600D01*
X92956380Y-131038600D02*
X94226380Y-129768600D01*
X195064380Y-104114600D02*
X94226380Y-104114600D01*
G04 #@! TO.N,/LA17*
X118356380Y-134848600D02*
X118356380Y-131038600D01*
X118356380Y-131038600D02*
X119626380Y-129768600D01*
X209796380Y-104876600D02*
X119626380Y-104876600D01*
X119626380Y-104876600D02*
X119626380Y-104876600D01*
G04 #@! TO.N,/MEMW*
X113276380Y-134848600D02*
X113276380Y-131038600D01*
X113276380Y-131038600D02*
X114546380Y-129768600D01*
X114546380Y-47218600D02*
X104640380Y-47218600D01*
X104640380Y-47218600D02*
X104640380Y-47218600D01*
G04 #@! TO.N,/D9*
X108196380Y-131038600D02*
X109466380Y-129768600D01*
X108196380Y-134848600D02*
X108196380Y-131038600D01*
X179824380Y-99542600D02*
X109466380Y-99542600D01*
G04 #@! TO.N,/LA18*
X120896380Y-131038600D02*
X122166380Y-129768600D01*
X120896380Y-134848600D02*
X120896380Y-131038600D01*
X212336380Y-105638600D02*
X122166380Y-105638600D01*
X122166380Y-105638600D02*
X122166380Y-105638600D01*
G04 #@! TO.N,/D8*
X110736380Y-134848600D02*
X110736380Y-131038600D01*
X110736380Y-131038600D02*
X112006380Y-129768600D01*
X177284380Y-98780600D02*
X112006380Y-98780600D01*
G04 #@! TO.N,/IOCS16*
X133596380Y-120878600D02*
X47490380Y-120878600D01*
G04 #@! TO.N,/MEMCS16*
X136136380Y-115544600D02*
X136136380Y-115544600D01*
X223454695Y-115544600D02*
X224020380Y-115544600D01*
X136136380Y-115544600D02*
X223454695Y-115544600D01*
X136136380Y-115544600D02*
X59174380Y-115544600D01*
X47490380Y-43916600D02*
X47490380Y-43916600D01*
X52259378Y-43916600D02*
X39870380Y-43916600D01*
X59174380Y-43916600D02*
X52259378Y-43916600D01*
G04 #@! TO.N,/CS16*
X41648380Y-82016600D02*
X45712380Y-82016600D01*
G04 #@! TO.N,/BHE_*
X182618380Y-62966600D02*
X182618380Y-62966600D01*
X183184065Y-62966600D02*
X228338380Y-62966600D01*
X182618380Y-62966600D02*
X183184065Y-62966600D01*
G04 #@! TO.N,/DEN_NORMAL*
X172966380Y-78206600D02*
X169410380Y-78206600D01*
X173474380Y-77698600D02*
X172966380Y-78206600D01*
X176014380Y-77698600D02*
X173474380Y-77698600D01*
X176522380Y-78206600D02*
X176014380Y-77698600D01*
X198874380Y-78206600D02*
X176522380Y-78206600D01*
X143248380Y-78206600D02*
X111498380Y-78206600D01*
X143756380Y-77698600D02*
X143248380Y-78206600D01*
X147566380Y-77698600D02*
X143756380Y-77698600D01*
X148074380Y-78206600D02*
X147566380Y-77698600D01*
X169410380Y-78206600D02*
X148074380Y-78206600D01*
X111498380Y-78206600D02*
X111498380Y-78206600D01*
X111498380Y-75920600D02*
X39870380Y-75920600D01*
X42410380Y-45440600D02*
X39870380Y-45440600D01*
X39870380Y-75920600D02*
X36060380Y-75920600D01*
G04 #@! TO.N,/AD15*
X195318380Y-55346600D02*
X139946380Y-55346600D01*
X195318380Y-59156600D02*
X198874380Y-59156600D01*
G04 #@! TO.N,/AD8*
X181094380Y-60680600D02*
X122166380Y-60680600D01*
G04 #@! TO.N,/AD9*
X183634380Y-59918600D02*
X124706380Y-59918600D01*
G04 #@! TO.N,/AD10*
X186174380Y-59156600D02*
X127246380Y-59156600D01*
G04 #@! TO.N,/AD11*
X188714380Y-58394600D02*
X129786380Y-58394600D01*
G04 #@! TO.N,/AD12*
X191254380Y-57632600D02*
X132326380Y-57632600D01*
G04 #@! TO.N,/AD13*
X193794380Y-56870600D02*
X134866380Y-56870600D01*
G04 #@! TO.N,/AD14*
X196334380Y-56108600D02*
X137406380Y-56108600D01*
G04 #@! TO.N,/DEN_NOT_NORMAL*
X138930380Y-78968600D02*
X110736380Y-78968600D01*
X110736380Y-78968600D02*
X110736380Y-78968600D01*
X110736380Y-76682600D02*
X44188380Y-76682600D01*
X44188380Y-76682600D02*
X44188380Y-76682600D01*
G04 #@! TO.N,/LA23*
X133596380Y-134848600D02*
X133596380Y-131038600D01*
X133596380Y-131038600D02*
X134866380Y-129768600D01*
X225036380Y-109448600D02*
X134866380Y-109448600D01*
X134866380Y-109448600D02*
X134866380Y-109448600D01*
G04 #@! TO.N,/LA21*
X128516380Y-134848600D02*
X128516380Y-131038600D01*
X128516380Y-131038600D02*
X129786380Y-129768600D01*
X219956380Y-107924600D02*
X129786380Y-107924600D01*
X129786380Y-107924600D02*
X129786380Y-107924600D01*
G04 #@! TO.N,/LA22*
X131056380Y-134848600D02*
X131056380Y-131038600D01*
X131056380Y-131038600D02*
X132326380Y-129768600D01*
X222496380Y-108686600D02*
X132326380Y-108686600D01*
X132326380Y-108686600D02*
X132326380Y-108686600D01*
G04 #@! TO.N,/LA20*
X125976380Y-134848600D02*
X125976380Y-131038600D01*
X125976380Y-131038600D02*
X127246380Y-129768600D01*
X217416380Y-107162600D02*
X127246380Y-107162600D01*
X127246380Y-107162600D02*
X127246380Y-107162600D01*
G04 #@! TO.N,/SMRD*
X194556380Y-117068600D02*
X125468380Y-117068600D01*
G04 #@! TO.N,/SMWR*
X197096380Y-116306600D02*
X130548380Y-116306600D01*
G04 #@! TO.N,/CS16_INTA*
X45204380Y-108432600D02*
X48760380Y-108432600D01*
X48760380Y-108432600D02*
X48760380Y-108432600D01*
X39870380Y-102336600D02*
X48252380Y-102336600D01*
X48252380Y-102336600D02*
X48252380Y-102336600D01*
G04 #@! TO.N,/LACHED_MEMCS16*
X225290380Y-74396600D02*
X221480380Y-74396600D01*
X221480380Y-74396600D02*
X221480380Y-74396600D01*
X220464380Y-120116600D02*
X50030380Y-120116600D01*
G04 #@! TO.N,/ODD_BYTE_EVEN_245*
X42410380Y-63220600D02*
X50792380Y-63220600D01*
X50792380Y-63220600D02*
X50792380Y-63220600D01*
X46728380Y-75158600D02*
X42410380Y-75158600D01*
X42410380Y-75158600D02*
X42410380Y-75158600D01*
G04 #@! TO.N,/ODD_ODD_EVEN__EVEN_245*
X48252380Y-63982600D02*
X34790380Y-63982600D01*
X34790380Y-63982600D02*
X34790380Y-63982600D01*
X34790380Y-76936600D02*
X38600380Y-76936600D01*
X38600380Y-76936600D02*
X38600380Y-76936600D01*
G04 #@! TO.N,/ODD_8_BYTE*
X45712380Y-101066600D02*
X44188380Y-101066600D01*
G04 #@! TO.N,/IRQ14*
X120896380Y-107162600D02*
X77208380Y-107162600D01*
X77208380Y-107162600D02*
X77208380Y-107162600D01*
G04 #@! TO.N,/IRQ15*
X123944380Y-117068600D02*
X73906380Y-117068600D01*
X73906380Y-117068600D02*
X73906380Y-117068600D01*
G04 #@! TO.N,/IRQ12*
X125976380Y-121640600D02*
X81526380Y-121640600D01*
X81526380Y-121640600D02*
X81526380Y-121640600D01*
G04 #@! TO.N,/IRQ11*
X128516380Y-116306600D02*
X84066380Y-116306600D01*
X84066380Y-116306600D02*
X84066380Y-116306600D01*
G04 #@! TO.N,/IRQ10*
X131056380Y-118592600D02*
X122617378Y-118592600D01*
X122617378Y-118592600D02*
X86606380Y-118592600D01*
X86606380Y-118592600D02*
X86606380Y-118592600D01*
G04 #@! TO.N,/IRQ9*
X214876380Y-110972600D02*
X89146380Y-110972600D01*
X89146380Y-110972600D02*
X89146380Y-110972600D01*
G04 #@! TO.N,/IO_00AX*
X67556380Y-105638600D02*
X107688380Y-105638600D01*
X107688380Y-105638600D02*
X107688380Y-105638600D01*
X107688380Y-63728600D02*
X100576380Y-63728600D01*
G04 #@! TO.N,/PU_257*
X134866380Y-42392600D02*
X130294380Y-42392600D01*
X130294380Y-42392600D02*
X124198380Y-42392600D01*
X111752380Y-42392600D02*
X110990380Y-41630600D01*
X110990380Y-41630600D02*
X55110380Y-41630600D01*
X124198380Y-42392600D02*
X111752380Y-42392600D01*
X55110380Y-41630600D02*
X55110380Y-41630600D01*
G04 #@! TO.N,/PU257*
X109212380Y-42392600D02*
X104640380Y-42392600D01*
X104640380Y-42392600D02*
X98544380Y-42392600D01*
X104640380Y-42392600D02*
X104640380Y-42392600D01*
X109212380Y-42392600D02*
X109212380Y-42392600D01*
X98544380Y-42392600D02*
X98544380Y-42392600D01*
X98544380Y-42392600D02*
X52570380Y-42392600D01*
X52570380Y-42392600D02*
X52570380Y-42392600D01*
G04 #@! TD*
M02*
