G04 #@! TF.GenerationSoftware,KiCad,Pcbnew,(5.1.8)-1*
G04 #@! TF.CreationDate,2021-12-28T18:56:34-07:00*
G04 #@! TF.ProjectId,8086,38303836-2e6b-4696-9361-645f70636258,rev?*
G04 #@! TF.SameCoordinates,Original*
G04 #@! TF.FileFunction,Legend,Top*
G04 #@! TF.FilePolarity,Positive*
%FSLAX46Y46*%
G04 Gerber Fmt 4.6, Leading zero omitted, Abs format (unit mm)*
G04 Created by KiCad (PCBNEW (5.1.8)-1) date 2021-12-28 18:56:34*
%MOMM*%
%LPD*%
G01*
G04 APERTURE LIST*
%ADD10C,0.150000*%
%ADD11C,0.120000*%
G04 APERTURE END LIST*
D10*
X32839975Y-46450171D02*
X33173308Y-46450171D01*
X33316165Y-46973980D02*
X32839975Y-46973980D01*
X32839975Y-45973980D01*
X33316165Y-45973980D01*
X33744737Y-46973980D02*
X33744737Y-45973980D01*
X34078070Y-46688266D01*
X34411403Y-45973980D01*
X34411403Y-46973980D01*
X34887594Y-46973980D02*
X34887594Y-45973980D01*
X35220927Y-46688266D01*
X35554260Y-45973980D01*
X35554260Y-46973980D01*
X37363784Y-46878742D02*
X37316165Y-46926361D01*
X37173308Y-46973980D01*
X37078070Y-46973980D01*
X36935213Y-46926361D01*
X36839975Y-46831123D01*
X36792356Y-46735885D01*
X36744737Y-46545409D01*
X36744737Y-46402552D01*
X36792356Y-46212076D01*
X36839975Y-46116838D01*
X36935213Y-46021600D01*
X37078070Y-45973980D01*
X37173308Y-45973980D01*
X37316165Y-46021600D01*
X37363784Y-46069219D01*
X37982832Y-45973980D02*
X38173308Y-45973980D01*
X38268546Y-46021600D01*
X38363784Y-46116838D01*
X38411403Y-46307314D01*
X38411403Y-46640647D01*
X38363784Y-46831123D01*
X38268546Y-46926361D01*
X38173308Y-46973980D01*
X37982832Y-46973980D01*
X37887594Y-46926361D01*
X37792356Y-46831123D01*
X37744737Y-46640647D01*
X37744737Y-46307314D01*
X37792356Y-46116838D01*
X37887594Y-46021600D01*
X37982832Y-45973980D01*
X38839975Y-46973980D02*
X38839975Y-45973980D01*
X39173308Y-46688266D01*
X39506641Y-45973980D01*
X39506641Y-46973980D01*
X39982832Y-46973980D02*
X39982832Y-45973980D01*
X40363784Y-45973980D01*
X40459022Y-46021600D01*
X40506641Y-46069219D01*
X40554260Y-46164457D01*
X40554260Y-46307314D01*
X40506641Y-46402552D01*
X40459022Y-46450171D01*
X40363784Y-46497790D01*
X39982832Y-46497790D01*
X40982832Y-45973980D02*
X40982832Y-46783504D01*
X41030451Y-46878742D01*
X41078070Y-46926361D01*
X41173308Y-46973980D01*
X41363784Y-46973980D01*
X41459022Y-46926361D01*
X41506641Y-46878742D01*
X41554260Y-46783504D01*
X41554260Y-45973980D01*
X41887594Y-45973980D02*
X42459022Y-45973980D01*
X42173308Y-46973980D02*
X42173308Y-45973980D01*
X42792356Y-46450171D02*
X43125689Y-46450171D01*
X43268546Y-46973980D02*
X42792356Y-46973980D01*
X42792356Y-45973980D01*
X43268546Y-45973980D01*
X44268546Y-46973980D02*
X43935213Y-46497790D01*
X43697118Y-46973980D02*
X43697118Y-45973980D01*
X44078070Y-45973980D01*
X44173308Y-46021600D01*
X44220927Y-46069219D01*
X44268546Y-46164457D01*
X44268546Y-46307314D01*
X44220927Y-46402552D01*
X44173308Y-46450171D01*
X44078070Y-46497790D01*
X43697118Y-46497790D01*
X44649499Y-46926361D02*
X44792356Y-46973980D01*
X45030451Y-46973980D01*
X45125689Y-46926361D01*
X45173308Y-46878742D01*
X45220927Y-46783504D01*
X45220927Y-46688266D01*
X45173308Y-46593028D01*
X45125689Y-46545409D01*
X45030451Y-46497790D01*
X44839975Y-46450171D01*
X44744737Y-46402552D01*
X44697118Y-46354933D01*
X44649499Y-46259695D01*
X44649499Y-46164457D01*
X44697118Y-46069219D01*
X44744737Y-46021600D01*
X44839975Y-45973980D01*
X45078070Y-45973980D01*
X45220927Y-46021600D01*
X32982832Y-48052552D02*
X32887594Y-48004933D01*
X32839975Y-47957314D01*
X32792356Y-47862076D01*
X32792356Y-47814457D01*
X32839975Y-47719219D01*
X32887594Y-47671600D01*
X32982832Y-47623980D01*
X33173308Y-47623980D01*
X33268546Y-47671600D01*
X33316165Y-47719219D01*
X33363784Y-47814457D01*
X33363784Y-47862076D01*
X33316165Y-47957314D01*
X33268546Y-48004933D01*
X33173308Y-48052552D01*
X32982832Y-48052552D01*
X32887594Y-48100171D01*
X32839975Y-48147790D01*
X32792356Y-48243028D01*
X32792356Y-48433504D01*
X32839975Y-48528742D01*
X32887594Y-48576361D01*
X32982832Y-48623980D01*
X33173308Y-48623980D01*
X33268546Y-48576361D01*
X33316165Y-48528742D01*
X33363784Y-48433504D01*
X33363784Y-48243028D01*
X33316165Y-48147790D01*
X33268546Y-48100171D01*
X33173308Y-48052552D01*
X33982832Y-47623980D02*
X34078070Y-47623980D01*
X34173308Y-47671600D01*
X34220927Y-47719219D01*
X34268546Y-47814457D01*
X34316165Y-48004933D01*
X34316165Y-48243028D01*
X34268546Y-48433504D01*
X34220927Y-48528742D01*
X34173308Y-48576361D01*
X34078070Y-48623980D01*
X33982832Y-48623980D01*
X33887594Y-48576361D01*
X33839975Y-48528742D01*
X33792356Y-48433504D01*
X33744737Y-48243028D01*
X33744737Y-48004933D01*
X33792356Y-47814457D01*
X33839975Y-47719219D01*
X33887594Y-47671600D01*
X33982832Y-47623980D01*
X34887594Y-48052552D02*
X34792356Y-48004933D01*
X34744737Y-47957314D01*
X34697118Y-47862076D01*
X34697118Y-47814457D01*
X34744737Y-47719219D01*
X34792356Y-47671600D01*
X34887594Y-47623980D01*
X35078070Y-47623980D01*
X35173308Y-47671600D01*
X35220927Y-47719219D01*
X35268546Y-47814457D01*
X35268546Y-47862076D01*
X35220927Y-47957314D01*
X35173308Y-48004933D01*
X35078070Y-48052552D01*
X34887594Y-48052552D01*
X34792356Y-48100171D01*
X34744737Y-48147790D01*
X34697118Y-48243028D01*
X34697118Y-48433504D01*
X34744737Y-48528742D01*
X34792356Y-48576361D01*
X34887594Y-48623980D01*
X35078070Y-48623980D01*
X35173308Y-48576361D01*
X35220927Y-48528742D01*
X35268546Y-48433504D01*
X35268546Y-48243028D01*
X35220927Y-48147790D01*
X35173308Y-48100171D01*
X35078070Y-48052552D01*
X36125689Y-47623980D02*
X35935213Y-47623980D01*
X35839975Y-47671600D01*
X35792356Y-47719219D01*
X35697118Y-47862076D01*
X35649499Y-48052552D01*
X35649499Y-48433504D01*
X35697118Y-48528742D01*
X35744737Y-48576361D01*
X35839975Y-48623980D01*
X36030451Y-48623980D01*
X36125689Y-48576361D01*
X36173308Y-48528742D01*
X36220927Y-48433504D01*
X36220927Y-48195409D01*
X36173308Y-48100171D01*
X36125689Y-48052552D01*
X36030451Y-48004933D01*
X35839975Y-48004933D01*
X35744737Y-48052552D01*
X35697118Y-48100171D01*
X35649499Y-48195409D01*
X37363784Y-47576361D02*
X36506641Y-48862076D01*
X37554260Y-47623980D02*
X37887594Y-48623980D01*
X38220927Y-47623980D01*
X38459022Y-47623980D02*
X39078070Y-47623980D01*
X38744737Y-48004933D01*
X38887594Y-48004933D01*
X38982832Y-48052552D01*
X39030451Y-48100171D01*
X39078070Y-48195409D01*
X39078070Y-48433504D01*
X39030451Y-48528742D01*
X38982832Y-48576361D01*
X38887594Y-48623980D01*
X38601880Y-48623980D01*
X38506641Y-48576361D01*
X38459022Y-48528742D01*
X39697118Y-47623980D02*
X39792356Y-47623980D01*
X39887594Y-47671600D01*
X39935213Y-47719219D01*
X39982832Y-47814457D01*
X40030451Y-48004933D01*
X40030451Y-48243028D01*
X39982832Y-48433504D01*
X39935213Y-48528742D01*
X39887594Y-48576361D01*
X39792356Y-48623980D01*
X39697118Y-48623980D01*
X39601880Y-48576361D01*
X39554260Y-48528742D01*
X39506641Y-48433504D01*
X39459022Y-48243028D01*
X39459022Y-48004933D01*
X39506641Y-47814457D01*
X39554260Y-47719219D01*
X39601880Y-47671600D01*
X39697118Y-47623980D01*
X41220927Y-48623980D02*
X41220927Y-47623980D01*
X41601880Y-47623980D01*
X41697118Y-47671600D01*
X41744737Y-47719219D01*
X41792356Y-47814457D01*
X41792356Y-47957314D01*
X41744737Y-48052552D01*
X41697118Y-48100171D01*
X41601880Y-48147790D01*
X41220927Y-48147790D01*
X42792356Y-48623980D02*
X42459022Y-48147790D01*
X42220927Y-48623980D02*
X42220927Y-47623980D01*
X42601880Y-47623980D01*
X42697118Y-47671600D01*
X42744737Y-47719219D01*
X42792356Y-47814457D01*
X42792356Y-47957314D01*
X42744737Y-48052552D01*
X42697118Y-48100171D01*
X42601880Y-48147790D01*
X42220927Y-48147790D01*
X43411403Y-47623980D02*
X43601880Y-47623980D01*
X43697118Y-47671600D01*
X43792356Y-47766838D01*
X43839975Y-47957314D01*
X43839975Y-48290647D01*
X43792356Y-48481123D01*
X43697118Y-48576361D01*
X43601880Y-48623980D01*
X43411403Y-48623980D01*
X43316165Y-48576361D01*
X43220927Y-48481123D01*
X43173308Y-48290647D01*
X43173308Y-47957314D01*
X43220927Y-47766838D01*
X43316165Y-47671600D01*
X43411403Y-47623980D01*
X44839975Y-48528742D02*
X44792356Y-48576361D01*
X44649499Y-48623980D01*
X44554260Y-48623980D01*
X44411403Y-48576361D01*
X44316165Y-48481123D01*
X44268546Y-48385885D01*
X44220927Y-48195409D01*
X44220927Y-48052552D01*
X44268546Y-47862076D01*
X44316165Y-47766838D01*
X44411403Y-47671600D01*
X44554260Y-47623980D01*
X44649499Y-47623980D01*
X44792356Y-47671600D01*
X44839975Y-47719219D01*
X45268546Y-48100171D02*
X45601880Y-48100171D01*
X45744737Y-48623980D02*
X45268546Y-48623980D01*
X45268546Y-47623980D01*
X45744737Y-47623980D01*
X46125689Y-48576361D02*
X46268546Y-48623980D01*
X46506641Y-48623980D01*
X46601880Y-48576361D01*
X46649499Y-48528742D01*
X46697118Y-48433504D01*
X46697118Y-48338266D01*
X46649499Y-48243028D01*
X46601880Y-48195409D01*
X46506641Y-48147790D01*
X46316165Y-48100171D01*
X46220927Y-48052552D01*
X46173308Y-48004933D01*
X46125689Y-47909695D01*
X46125689Y-47814457D01*
X46173308Y-47719219D01*
X46220927Y-47671600D01*
X46316165Y-47623980D01*
X46554260Y-47623980D01*
X46697118Y-47671600D01*
X47078070Y-48576361D02*
X47220927Y-48623980D01*
X47459022Y-48623980D01*
X47554260Y-48576361D01*
X47601880Y-48528742D01*
X47649499Y-48433504D01*
X47649499Y-48338266D01*
X47601880Y-48243028D01*
X47554260Y-48195409D01*
X47459022Y-48147790D01*
X47268546Y-48100171D01*
X47173308Y-48052552D01*
X47125689Y-48004933D01*
X47078070Y-47909695D01*
X47078070Y-47814457D01*
X47125689Y-47719219D01*
X47173308Y-47671600D01*
X47268546Y-47623980D01*
X47506641Y-47623980D01*
X47649499Y-47671600D01*
X48268546Y-47623980D02*
X48459022Y-47623980D01*
X48554260Y-47671600D01*
X48649499Y-47766838D01*
X48697118Y-47957314D01*
X48697118Y-48290647D01*
X48649499Y-48481123D01*
X48554260Y-48576361D01*
X48459022Y-48623980D01*
X48268546Y-48623980D01*
X48173308Y-48576361D01*
X48078070Y-48481123D01*
X48030451Y-48290647D01*
X48030451Y-47957314D01*
X48078070Y-47766838D01*
X48173308Y-47671600D01*
X48268546Y-47623980D01*
X49697118Y-48623980D02*
X49363784Y-48147790D01*
X49125689Y-48623980D02*
X49125689Y-47623980D01*
X49506641Y-47623980D01*
X49601880Y-47671600D01*
X49649499Y-47719219D01*
X49697118Y-47814457D01*
X49697118Y-47957314D01*
X49649499Y-48052552D01*
X49601880Y-48100171D01*
X49506641Y-48147790D01*
X49125689Y-48147790D01*
X50173308Y-48576361D02*
X50173308Y-48623980D01*
X50125689Y-48719219D01*
X50078070Y-48766838D01*
X51506641Y-48052552D02*
X51411403Y-48004933D01*
X51363784Y-47957314D01*
X51316165Y-47862076D01*
X51316165Y-47814457D01*
X51363784Y-47719219D01*
X51411403Y-47671600D01*
X51506641Y-47623980D01*
X51697118Y-47623980D01*
X51792356Y-47671600D01*
X51839975Y-47719219D01*
X51887594Y-47814457D01*
X51887594Y-47862076D01*
X51839975Y-47957314D01*
X51792356Y-48004933D01*
X51697118Y-48052552D01*
X51506641Y-48052552D01*
X51411403Y-48100171D01*
X51363784Y-48147790D01*
X51316165Y-48243028D01*
X51316165Y-48433504D01*
X51363784Y-48528742D01*
X51411403Y-48576361D01*
X51506641Y-48623980D01*
X51697118Y-48623980D01*
X51792356Y-48576361D01*
X51839975Y-48528742D01*
X51887594Y-48433504D01*
X51887594Y-48243028D01*
X51839975Y-48147790D01*
X51792356Y-48100171D01*
X51697118Y-48052552D01*
X52268546Y-47719219D02*
X52316165Y-47671600D01*
X52411403Y-47623980D01*
X52649499Y-47623980D01*
X52744737Y-47671600D01*
X52792356Y-47719219D01*
X52839975Y-47814457D01*
X52839975Y-47909695D01*
X52792356Y-48052552D01*
X52220927Y-48623980D01*
X52839975Y-48623980D01*
X53744737Y-47623980D02*
X53268546Y-47623980D01*
X53220927Y-48100171D01*
X53268546Y-48052552D01*
X53363784Y-48004933D01*
X53601879Y-48004933D01*
X53697118Y-48052552D01*
X53744737Y-48100171D01*
X53792356Y-48195409D01*
X53792356Y-48433504D01*
X53744737Y-48528742D01*
X53697118Y-48576361D01*
X53601879Y-48623980D01*
X53363784Y-48623980D01*
X53268546Y-48576361D01*
X53220927Y-48528742D01*
X54268546Y-48623980D02*
X54459022Y-48623980D01*
X54554260Y-48576361D01*
X54601879Y-48528742D01*
X54697118Y-48385885D01*
X54744737Y-48195409D01*
X54744737Y-47814457D01*
X54697118Y-47719219D01*
X54649499Y-47671600D01*
X54554260Y-47623980D01*
X54363784Y-47623980D01*
X54268546Y-47671600D01*
X54220927Y-47719219D01*
X54173308Y-47814457D01*
X54173308Y-48052552D01*
X54220927Y-48147790D01*
X54268546Y-48195409D01*
X54363784Y-48243028D01*
X54554260Y-48243028D01*
X54649499Y-48195409D01*
X54697118Y-48147790D01*
X54744737Y-48052552D01*
X55220927Y-48576361D02*
X55220927Y-48623980D01*
X55173308Y-48719219D01*
X55125689Y-48766838D01*
X56554260Y-48052552D02*
X56459022Y-48004933D01*
X56411403Y-47957314D01*
X56363784Y-47862076D01*
X56363784Y-47814457D01*
X56411403Y-47719219D01*
X56459022Y-47671600D01*
X56554260Y-47623980D01*
X56744737Y-47623980D01*
X56839975Y-47671600D01*
X56887594Y-47719219D01*
X56935213Y-47814457D01*
X56935213Y-47862076D01*
X56887594Y-47957314D01*
X56839975Y-48004933D01*
X56744737Y-48052552D01*
X56554260Y-48052552D01*
X56459022Y-48100171D01*
X56411403Y-48147790D01*
X56363784Y-48243028D01*
X56363784Y-48433504D01*
X56411403Y-48528742D01*
X56459022Y-48576361D01*
X56554260Y-48623980D01*
X56744737Y-48623980D01*
X56839975Y-48576361D01*
X56887594Y-48528742D01*
X56935213Y-48433504D01*
X56935213Y-48243028D01*
X56887594Y-48147790D01*
X56839975Y-48100171D01*
X56744737Y-48052552D01*
X57316165Y-47719219D02*
X57363784Y-47671600D01*
X57459022Y-47623980D01*
X57697118Y-47623980D01*
X57792356Y-47671600D01*
X57839975Y-47719219D01*
X57887594Y-47814457D01*
X57887594Y-47909695D01*
X57839975Y-48052552D01*
X57268546Y-48623980D01*
X57887594Y-48623980D01*
X58792356Y-47623980D02*
X58316165Y-47623980D01*
X58268546Y-48100171D01*
X58316165Y-48052552D01*
X58411403Y-48004933D01*
X58649499Y-48004933D01*
X58744737Y-48052552D01*
X58792356Y-48100171D01*
X58839975Y-48195409D01*
X58839975Y-48433504D01*
X58792356Y-48528742D01*
X58744737Y-48576361D01*
X58649499Y-48623980D01*
X58411403Y-48623980D01*
X58316165Y-48576361D01*
X58268546Y-48528742D01*
X59173308Y-47623980D02*
X59792356Y-47623980D01*
X59459022Y-48004933D01*
X59601879Y-48004933D01*
X59697118Y-48052552D01*
X59744737Y-48100171D01*
X59792356Y-48195409D01*
X59792356Y-48433504D01*
X59744737Y-48528742D01*
X59697118Y-48576361D01*
X59601879Y-48623980D01*
X59316165Y-48623980D01*
X59220927Y-48576361D01*
X59173308Y-48528742D01*
X33411403Y-50178742D02*
X33363784Y-50226361D01*
X33220927Y-50273980D01*
X33125689Y-50273980D01*
X32982832Y-50226361D01*
X32887594Y-50131123D01*
X32839975Y-50035885D01*
X32792356Y-49845409D01*
X32792356Y-49702552D01*
X32839975Y-49512076D01*
X32887594Y-49416838D01*
X32982832Y-49321600D01*
X33125689Y-49273980D01*
X33220927Y-49273980D01*
X33363784Y-49321600D01*
X33411403Y-49369219D01*
X33982832Y-50273980D02*
X33887594Y-50226361D01*
X33839975Y-50178742D01*
X33792356Y-50083504D01*
X33792356Y-49797790D01*
X33839975Y-49702552D01*
X33887594Y-49654933D01*
X33982832Y-49607314D01*
X34125689Y-49607314D01*
X34220927Y-49654933D01*
X34268546Y-49702552D01*
X34316165Y-49797790D01*
X34316165Y-50083504D01*
X34268546Y-50178742D01*
X34220927Y-50226361D01*
X34125689Y-50273980D01*
X33982832Y-50273980D01*
X34744737Y-49607314D02*
X34744737Y-50607314D01*
X34744737Y-49654933D02*
X34839975Y-49607314D01*
X35030451Y-49607314D01*
X35125689Y-49654933D01*
X35173308Y-49702552D01*
X35220927Y-49797790D01*
X35220927Y-50083504D01*
X35173308Y-50178742D01*
X35125689Y-50226361D01*
X35030451Y-50273980D01*
X34839975Y-50273980D01*
X34744737Y-50226361D01*
X35554260Y-49607314D02*
X35792356Y-50273980D01*
X36030451Y-49607314D02*
X35792356Y-50273980D01*
X35697118Y-50512076D01*
X35649499Y-50559695D01*
X35554260Y-50607314D01*
X36411403Y-50273980D02*
X36411403Y-49607314D01*
X36411403Y-49797790D02*
X36459022Y-49702552D01*
X36506641Y-49654933D01*
X36601880Y-49607314D01*
X36697118Y-49607314D01*
X37030451Y-50273980D02*
X37030451Y-49607314D01*
X37030451Y-49273980D02*
X36982832Y-49321600D01*
X37030451Y-49369219D01*
X37078070Y-49321600D01*
X37030451Y-49273980D01*
X37030451Y-49369219D01*
X37935213Y-49607314D02*
X37935213Y-50416838D01*
X37887594Y-50512076D01*
X37839975Y-50559695D01*
X37744737Y-50607314D01*
X37601880Y-50607314D01*
X37506641Y-50559695D01*
X37935213Y-50226361D02*
X37839975Y-50273980D01*
X37649499Y-50273980D01*
X37554260Y-50226361D01*
X37506641Y-50178742D01*
X37459022Y-50083504D01*
X37459022Y-49797790D01*
X37506641Y-49702552D01*
X37554260Y-49654933D01*
X37649499Y-49607314D01*
X37839975Y-49607314D01*
X37935213Y-49654933D01*
X38411403Y-50273980D02*
X38411403Y-49273980D01*
X38839975Y-50273980D02*
X38839975Y-49750171D01*
X38792356Y-49654933D01*
X38697118Y-49607314D01*
X38554260Y-49607314D01*
X38459022Y-49654933D01*
X38411403Y-49702552D01*
X39173308Y-49607314D02*
X39554260Y-49607314D01*
X39316165Y-49273980D02*
X39316165Y-50131123D01*
X39363784Y-50226361D01*
X39459022Y-50273980D01*
X39554260Y-50273980D01*
X40935213Y-50654933D02*
X40887594Y-50607314D01*
X40792356Y-50464457D01*
X40744737Y-50369219D01*
X40697118Y-50226361D01*
X40649499Y-49988266D01*
X40649499Y-49797790D01*
X40697118Y-49559695D01*
X40744737Y-49416838D01*
X40792356Y-49321600D01*
X40887594Y-49178742D01*
X40935213Y-49131123D01*
X41887594Y-50178742D02*
X41839975Y-50226361D01*
X41697118Y-50273980D01*
X41601880Y-50273980D01*
X41459022Y-50226361D01*
X41363784Y-50131123D01*
X41316165Y-50035885D01*
X41268546Y-49845409D01*
X41268546Y-49702552D01*
X41316165Y-49512076D01*
X41363784Y-49416838D01*
X41459022Y-49321600D01*
X41601880Y-49273980D01*
X41697118Y-49273980D01*
X41839975Y-49321600D01*
X41887594Y-49369219D01*
X42220927Y-50654933D02*
X42268546Y-50607314D01*
X42363784Y-50464457D01*
X42411403Y-50369219D01*
X42459022Y-50226361D01*
X42506641Y-49988266D01*
X42506641Y-49797790D01*
X42459022Y-49559695D01*
X42411403Y-49416838D01*
X42363784Y-49321600D01*
X42268546Y-49178742D01*
X42220927Y-49131123D01*
X43697118Y-49369219D02*
X43744737Y-49321600D01*
X43839975Y-49273980D01*
X44078070Y-49273980D01*
X44173308Y-49321600D01*
X44220927Y-49369219D01*
X44268546Y-49464457D01*
X44268546Y-49559695D01*
X44220927Y-49702552D01*
X43649499Y-50273980D01*
X44268546Y-50273980D01*
X44887594Y-49273980D02*
X44982832Y-49273980D01*
X45078070Y-49321600D01*
X45125689Y-49369219D01*
X45173308Y-49464457D01*
X45220927Y-49654933D01*
X45220927Y-49893028D01*
X45173308Y-50083504D01*
X45125689Y-50178742D01*
X45078070Y-50226361D01*
X44982832Y-50273980D01*
X44887594Y-50273980D01*
X44792356Y-50226361D01*
X44744737Y-50178742D01*
X44697118Y-50083504D01*
X44649499Y-49893028D01*
X44649499Y-49654933D01*
X44697118Y-49464457D01*
X44744737Y-49369219D01*
X44792356Y-49321600D01*
X44887594Y-49273980D01*
X45601880Y-49369219D02*
X45649499Y-49321600D01*
X45744737Y-49273980D01*
X45982832Y-49273980D01*
X46078070Y-49321600D01*
X46125689Y-49369219D01*
X46173308Y-49464457D01*
X46173308Y-49559695D01*
X46125689Y-49702552D01*
X45554260Y-50273980D01*
X46173308Y-50273980D01*
X46554260Y-49369219D02*
X46601880Y-49321600D01*
X46697118Y-49273980D01*
X46935213Y-49273980D01*
X47030451Y-49321600D01*
X47078070Y-49369219D01*
X47125689Y-49464457D01*
X47125689Y-49559695D01*
X47078070Y-49702552D01*
X46506641Y-50273980D01*
X47125689Y-50273980D01*
X48316165Y-49750171D02*
X48649499Y-49750171D01*
X48792356Y-50273980D02*
X48316165Y-50273980D01*
X48316165Y-49273980D01*
X48792356Y-49273980D01*
X49220927Y-50273980D02*
X49220927Y-49273980D01*
X49554260Y-49988266D01*
X49887594Y-49273980D01*
X49887594Y-50273980D01*
X50363784Y-50273980D02*
X50363784Y-49273980D01*
X50697118Y-49988266D01*
X51030451Y-49273980D01*
X51030451Y-50273980D01*
X32744737Y-51257314D02*
X32935213Y-51923980D01*
X33125689Y-51447790D01*
X33316165Y-51923980D01*
X33506641Y-51257314D01*
X33792356Y-51257314D02*
X33982832Y-51923980D01*
X34173308Y-51447790D01*
X34363784Y-51923980D01*
X34554260Y-51257314D01*
X34839975Y-51257314D02*
X35030451Y-51923980D01*
X35220927Y-51447790D01*
X35411403Y-51923980D01*
X35601880Y-51257314D01*
X35982832Y-51828742D02*
X36030451Y-51876361D01*
X35982832Y-51923980D01*
X35935213Y-51876361D01*
X35982832Y-51828742D01*
X35982832Y-51923980D01*
X36459022Y-51923980D02*
X36459022Y-50923980D01*
X36887594Y-51923980D02*
X36887594Y-51400171D01*
X36839975Y-51304933D01*
X36744737Y-51257314D01*
X36601880Y-51257314D01*
X36506641Y-51304933D01*
X36459022Y-51352552D01*
X37506641Y-51923980D02*
X37411403Y-51876361D01*
X37363784Y-51828742D01*
X37316165Y-51733504D01*
X37316165Y-51447790D01*
X37363784Y-51352552D01*
X37411403Y-51304933D01*
X37506641Y-51257314D01*
X37649499Y-51257314D01*
X37744737Y-51304933D01*
X37792356Y-51352552D01*
X37839975Y-51447790D01*
X37839975Y-51733504D01*
X37792356Y-51828742D01*
X37744737Y-51876361D01*
X37649499Y-51923980D01*
X37506641Y-51923980D01*
X38268546Y-51923980D02*
X38268546Y-51257314D01*
X38268546Y-51352552D02*
X38316165Y-51304933D01*
X38411403Y-51257314D01*
X38554260Y-51257314D01*
X38649499Y-51304933D01*
X38697118Y-51400171D01*
X38697118Y-51923980D01*
X38697118Y-51400171D02*
X38744737Y-51304933D01*
X38839975Y-51257314D01*
X38982832Y-51257314D01*
X39078070Y-51304933D01*
X39125689Y-51400171D01*
X39125689Y-51923980D01*
X39982832Y-51876361D02*
X39887594Y-51923980D01*
X39697118Y-51923980D01*
X39601880Y-51876361D01*
X39554260Y-51781123D01*
X39554260Y-51400171D01*
X39601880Y-51304933D01*
X39697118Y-51257314D01*
X39887594Y-51257314D01*
X39982832Y-51304933D01*
X40030451Y-51400171D01*
X40030451Y-51495409D01*
X39554260Y-51590647D01*
X40459022Y-51923980D02*
X40459022Y-50923980D01*
X40459022Y-51304933D02*
X40554260Y-51257314D01*
X40744737Y-51257314D01*
X40839975Y-51304933D01*
X40887594Y-51352552D01*
X40935213Y-51447790D01*
X40935213Y-51733504D01*
X40887594Y-51828742D01*
X40839975Y-51876361D01*
X40744737Y-51923980D01*
X40554260Y-51923980D01*
X40459022Y-51876361D01*
X41363784Y-51923980D02*
X41363784Y-51257314D01*
X41363784Y-51447790D02*
X41411403Y-51352552D01*
X41459022Y-51304933D01*
X41554260Y-51257314D01*
X41649499Y-51257314D01*
X42363784Y-51876361D02*
X42268546Y-51923980D01*
X42078070Y-51923980D01*
X41982832Y-51876361D01*
X41935213Y-51781123D01*
X41935213Y-51400171D01*
X41982832Y-51304933D01*
X42078070Y-51257314D01*
X42268546Y-51257314D01*
X42363784Y-51304933D01*
X42411403Y-51400171D01*
X42411403Y-51495409D01*
X41935213Y-51590647D01*
X42744737Y-51257314D02*
X42935213Y-51923980D01*
X43125689Y-51447790D01*
X43316165Y-51923980D01*
X43506641Y-51257314D01*
X44030451Y-51352552D02*
X43935213Y-51304933D01*
X43887594Y-51257314D01*
X43839975Y-51162076D01*
X43839975Y-51114457D01*
X43887594Y-51019219D01*
X43935213Y-50971600D01*
X44030451Y-50923980D01*
X44220927Y-50923980D01*
X44316165Y-50971600D01*
X44363784Y-51019219D01*
X44411403Y-51114457D01*
X44411403Y-51162076D01*
X44363784Y-51257314D01*
X44316165Y-51304933D01*
X44220927Y-51352552D01*
X44030451Y-51352552D01*
X43935213Y-51400171D01*
X43887594Y-51447790D01*
X43839975Y-51543028D01*
X43839975Y-51733504D01*
X43887594Y-51828742D01*
X43935213Y-51876361D01*
X44030451Y-51923980D01*
X44220927Y-51923980D01*
X44316165Y-51876361D01*
X44363784Y-51828742D01*
X44411403Y-51733504D01*
X44411403Y-51543028D01*
X44363784Y-51447790D01*
X44316165Y-51400171D01*
X44220927Y-51352552D01*
X45030451Y-50923980D02*
X45125689Y-50923980D01*
X45220927Y-50971600D01*
X45268546Y-51019219D01*
X45316165Y-51114457D01*
X45363784Y-51304933D01*
X45363784Y-51543028D01*
X45316165Y-51733504D01*
X45268546Y-51828742D01*
X45220927Y-51876361D01*
X45125689Y-51923980D01*
X45030451Y-51923980D01*
X44935213Y-51876361D01*
X44887594Y-51828742D01*
X44839975Y-51733504D01*
X44792356Y-51543028D01*
X44792356Y-51304933D01*
X44839975Y-51114457D01*
X44887594Y-51019219D01*
X44935213Y-50971600D01*
X45030451Y-50923980D01*
X45935213Y-51352552D02*
X45839975Y-51304933D01*
X45792356Y-51257314D01*
X45744737Y-51162076D01*
X45744737Y-51114457D01*
X45792356Y-51019219D01*
X45839975Y-50971600D01*
X45935213Y-50923980D01*
X46125689Y-50923980D01*
X46220927Y-50971600D01*
X46268546Y-51019219D01*
X46316165Y-51114457D01*
X46316165Y-51162076D01*
X46268546Y-51257314D01*
X46220927Y-51304933D01*
X46125689Y-51352552D01*
X45935213Y-51352552D01*
X45839975Y-51400171D01*
X45792356Y-51447790D01*
X45744737Y-51543028D01*
X45744737Y-51733504D01*
X45792356Y-51828742D01*
X45839975Y-51876361D01*
X45935213Y-51923980D01*
X46125689Y-51923980D01*
X46220927Y-51876361D01*
X46268546Y-51828742D01*
X46316165Y-51733504D01*
X46316165Y-51543028D01*
X46268546Y-51447790D01*
X46220927Y-51400171D01*
X46125689Y-51352552D01*
X46887594Y-51352552D02*
X46792356Y-51304933D01*
X46744737Y-51257314D01*
X46697118Y-51162076D01*
X46697118Y-51114457D01*
X46744737Y-51019219D01*
X46792356Y-50971600D01*
X46887594Y-50923980D01*
X47078070Y-50923980D01*
X47173308Y-50971600D01*
X47220927Y-51019219D01*
X47268546Y-51114457D01*
X47268546Y-51162076D01*
X47220927Y-51257314D01*
X47173308Y-51304933D01*
X47078070Y-51352552D01*
X46887594Y-51352552D01*
X46792356Y-51400171D01*
X46744737Y-51447790D01*
X46697118Y-51543028D01*
X46697118Y-51733504D01*
X46744737Y-51828742D01*
X46792356Y-51876361D01*
X46887594Y-51923980D01*
X47078070Y-51923980D01*
X47173308Y-51876361D01*
X47220927Y-51828742D01*
X47268546Y-51733504D01*
X47268546Y-51543028D01*
X47220927Y-51447790D01*
X47173308Y-51400171D01*
X47078070Y-51352552D01*
X47697118Y-51828742D02*
X47744737Y-51876361D01*
X47697118Y-51923980D01*
X47649499Y-51876361D01*
X47697118Y-51828742D01*
X47697118Y-51923980D01*
X48601879Y-51876361D02*
X48506641Y-51923980D01*
X48316165Y-51923980D01*
X48220927Y-51876361D01*
X48173308Y-51828742D01*
X48125689Y-51733504D01*
X48125689Y-51447790D01*
X48173308Y-51352552D01*
X48220927Y-51304933D01*
X48316165Y-51257314D01*
X48506641Y-51257314D01*
X48601879Y-51304933D01*
X49173308Y-51923980D02*
X49078070Y-51876361D01*
X49030451Y-51828742D01*
X48982832Y-51733504D01*
X48982832Y-51447790D01*
X49030451Y-51352552D01*
X49078070Y-51304933D01*
X49173308Y-51257314D01*
X49316165Y-51257314D01*
X49411403Y-51304933D01*
X49459022Y-51352552D01*
X49506641Y-51447790D01*
X49506641Y-51733504D01*
X49459022Y-51828742D01*
X49411403Y-51876361D01*
X49316165Y-51923980D01*
X49173308Y-51923980D01*
X49935213Y-51923980D02*
X49935213Y-51257314D01*
X49935213Y-51352552D02*
X49982832Y-51304933D01*
X50078070Y-51257314D01*
X50220927Y-51257314D01*
X50316165Y-51304933D01*
X50363784Y-51400171D01*
X50363784Y-51923980D01*
X50363784Y-51400171D02*
X50411403Y-51304933D01*
X50506641Y-51257314D01*
X50649499Y-51257314D01*
X50744737Y-51304933D01*
X50792356Y-51400171D01*
X50792356Y-51923980D01*
D11*
G04 #@! TO.C,RN1*
X35552380Y-35658600D02*
X35552380Y-38458600D01*
X56042380Y-35658600D02*
X32842380Y-35658600D01*
X56042380Y-38458600D02*
X56042380Y-35658600D01*
X32842380Y-38458600D02*
X56042380Y-38458600D01*
X32842380Y-35658600D02*
X32842380Y-38458600D01*
G04 #@! TO.C,U18*
X101906380Y-70348600D02*
X101906380Y-64888600D01*
X101906380Y-64888600D02*
X66226380Y-64888600D01*
X66226380Y-64888600D02*
X66226380Y-77808600D01*
X66226380Y-77808600D02*
X101906380Y-77808600D01*
X101906380Y-77808600D02*
X101906380Y-72348600D01*
X101906380Y-72348600D02*
G75*
G02*
X101906380Y-70348600I0J1000000D01*
G01*
G04 #@! TO.C,R10*
X36854380Y-107062600D02*
X36854380Y-109802600D01*
X36854380Y-109802600D02*
X43394380Y-109802600D01*
X43394380Y-109802600D02*
X43394380Y-107062600D01*
X43394380Y-107062600D02*
X36854380Y-107062600D01*
X36084380Y-108432600D02*
X36854380Y-108432600D01*
X44164380Y-108432600D02*
X43394380Y-108432600D01*
G04 #@! TO.C,C18*
X104948380Y-74198600D02*
X104948380Y-78738600D01*
X102808380Y-74198600D02*
X102808380Y-78738600D01*
X104948380Y-74198600D02*
X104933380Y-74198600D01*
X102823380Y-74198600D02*
X102808380Y-74198600D01*
X104948380Y-78738600D02*
X104933380Y-78738600D01*
X102823380Y-78738600D02*
X102808380Y-78738600D01*
G04 #@! TO.C,R4*
X237450380Y-58240600D02*
X237450380Y-55500600D01*
X237450380Y-55500600D02*
X230910380Y-55500600D01*
X230910380Y-55500600D02*
X230910380Y-58240600D01*
X230910380Y-58240600D02*
X237450380Y-58240600D01*
X238220380Y-56870600D02*
X237450380Y-56870600D01*
X230140380Y-56870600D02*
X230910380Y-56870600D01*
G04 #@! TO.C,R3*
X237450380Y-61288600D02*
X237450380Y-58548600D01*
X237450380Y-58548600D02*
X230910380Y-58548600D01*
X230910380Y-58548600D02*
X230910380Y-61288600D01*
X230910380Y-61288600D02*
X237450380Y-61288600D01*
X238220380Y-59918600D02*
X237450380Y-59918600D01*
X230140380Y-59918600D02*
X230910380Y-59918600D01*
G04 #@! TO.C,R2*
X154456380Y-32386600D02*
X154456380Y-35126600D01*
X154456380Y-35126600D02*
X160996380Y-35126600D01*
X160996380Y-35126600D02*
X160996380Y-32386600D01*
X160996380Y-32386600D02*
X154456380Y-32386600D01*
X153686380Y-33756600D02*
X154456380Y-33756600D01*
X161766380Y-33756600D02*
X160996380Y-33756600D01*
G04 #@! TO.C,U2*
X172772380Y-67808600D02*
X172772380Y-66158600D01*
X172772380Y-66158600D02*
X147252380Y-66158600D01*
X147252380Y-66158600D02*
X147252380Y-71458600D01*
X147252380Y-71458600D02*
X172772380Y-71458600D01*
X172772380Y-71458600D02*
X172772380Y-69808600D01*
X172772380Y-69808600D02*
G75*
G02*
X172772380Y-67808600I0J1000000D01*
G01*
G04 #@! TO.C,Y1*
X223599380Y-48503600D02*
X229849380Y-48503600D01*
X223599380Y-53553600D02*
X229849380Y-53553600D01*
X229849380Y-53553600D02*
G75*
G03*
X229849380Y-48503600I0J2525000D01*
G01*
X223599380Y-53553600D02*
G75*
G02*
X223599380Y-48503600I0J2525000D01*
G01*
G04 #@! TO.C,U17*
X52630380Y-61458600D02*
X52630380Y-59808600D01*
X52630380Y-59808600D02*
X34730380Y-59808600D01*
X34730380Y-59808600D02*
X34730380Y-65108600D01*
X34730380Y-65108600D02*
X52630380Y-65108600D01*
X52630380Y-65108600D02*
X52630380Y-63458600D01*
X52630380Y-63458600D02*
G75*
G02*
X52630380Y-61458600I0J1000000D01*
G01*
G04 #@! TO.C,U16*
X55170380Y-99558600D02*
X55170380Y-97908600D01*
X55170380Y-97908600D02*
X34730380Y-97908600D01*
X34730380Y-97908600D02*
X34730380Y-103208600D01*
X34730380Y-103208600D02*
X55170380Y-103208600D01*
X55170380Y-103208600D02*
X55170380Y-101558600D01*
X55170380Y-101558600D02*
G75*
G02*
X55170380Y-99558600I0J1000000D01*
G01*
G04 #@! TO.C,U15*
X52630380Y-86858600D02*
X52630380Y-85208600D01*
X52630380Y-85208600D02*
X34730380Y-85208600D01*
X34730380Y-85208600D02*
X34730380Y-90508600D01*
X34730380Y-90508600D02*
X52630380Y-90508600D01*
X52630380Y-90508600D02*
X52630380Y-88858600D01*
X52630380Y-88858600D02*
G75*
G02*
X52630380Y-86858600I0J1000000D01*
G01*
G04 #@! TO.C,U14*
X202236380Y-67808600D02*
X202236380Y-66158600D01*
X202236380Y-66158600D02*
X176716380Y-66158600D01*
X176716380Y-66158600D02*
X176716380Y-71458600D01*
X176716380Y-71458600D02*
X202236380Y-71458600D01*
X202236380Y-71458600D02*
X202236380Y-69808600D01*
X202236380Y-69808600D02*
G75*
G02*
X202236380Y-67808600I0J1000000D01*
G01*
G04 #@! TO.C,U13*
X52630380Y-74158600D02*
X52630380Y-72508600D01*
X52630380Y-72508600D02*
X34730380Y-72508600D01*
X34730380Y-72508600D02*
X34730380Y-77808600D01*
X34730380Y-77808600D02*
X52630380Y-77808600D01*
X52630380Y-77808600D02*
X52630380Y-76158600D01*
X52630380Y-76158600D02*
G75*
G02*
X52630380Y-74158600I0J1000000D01*
G01*
G04 #@! TO.C,U12*
X231700380Y-79238600D02*
X231700380Y-77588600D01*
X231700380Y-77588600D02*
X206180380Y-77588600D01*
X206180380Y-77588600D02*
X206180380Y-82888600D01*
X206180380Y-82888600D02*
X231700380Y-82888600D01*
X231700380Y-82888600D02*
X231700380Y-81238600D01*
X231700380Y-81238600D02*
G75*
G02*
X231700380Y-79238600I0J1000000D01*
G01*
G04 #@! TO.C,U11*
X202236380Y-79238600D02*
X202236380Y-77588600D01*
X202236380Y-77588600D02*
X176716380Y-77588600D01*
X176716380Y-77588600D02*
X176716380Y-82888600D01*
X176716380Y-82888600D02*
X202236380Y-82888600D01*
X202236380Y-82888600D02*
X202236380Y-81238600D01*
X202236380Y-81238600D02*
G75*
G02*
X202236380Y-79238600I0J1000000D01*
G01*
G04 #@! TO.C,U10*
X115622380Y-39868600D02*
X115622380Y-38218600D01*
X115622380Y-38218600D02*
X95182380Y-38218600D01*
X95182380Y-38218600D02*
X95182380Y-43518600D01*
X95182380Y-43518600D02*
X115622380Y-43518600D01*
X115622380Y-43518600D02*
X115622380Y-41868600D01*
X115622380Y-41868600D02*
G75*
G02*
X115622380Y-39868600I0J1000000D01*
G01*
G04 #@! TO.C,U9*
X143308380Y-79238600D02*
X143308380Y-77588600D01*
X143308380Y-77588600D02*
X117788380Y-77588600D01*
X117788380Y-77588600D02*
X117788380Y-82888600D01*
X117788380Y-82888600D02*
X143308380Y-82888600D01*
X143308380Y-82888600D02*
X143308380Y-81238600D01*
X143308380Y-81238600D02*
G75*
G02*
X143308380Y-79238600I0J1000000D01*
G01*
G04 #@! TO.C,U8*
X141276380Y-39868600D02*
X141276380Y-38218600D01*
X141276380Y-38218600D02*
X120836380Y-38218600D01*
X120836380Y-38218600D02*
X120836380Y-43518600D01*
X120836380Y-43518600D02*
X141276380Y-43518600D01*
X141276380Y-43518600D02*
X141276380Y-41868600D01*
X141276380Y-41868600D02*
G75*
G02*
X141276380Y-39868600I0J1000000D01*
G01*
G04 #@! TO.C,U7*
X91746380Y-43678600D02*
X91746380Y-38218600D01*
X91746380Y-38218600D02*
X61146380Y-38218600D01*
X61146380Y-38218600D02*
X61146380Y-51138600D01*
X61146380Y-51138600D02*
X91746380Y-51138600D01*
X91746380Y-51138600D02*
X91746380Y-45678600D01*
X91746380Y-45678600D02*
G75*
G02*
X91746380Y-43678600I0J1000000D01*
G01*
G04 #@! TO.C,U6*
X101906380Y-90160600D02*
X101906380Y-84700600D01*
X101906380Y-84700600D02*
X66226380Y-84700600D01*
X66226380Y-84700600D02*
X66226380Y-97620600D01*
X66226380Y-97620600D02*
X101906380Y-97620600D01*
X101906380Y-97620600D02*
X101906380Y-92160600D01*
X101906380Y-92160600D02*
G75*
G02*
X101906380Y-90160600I0J1000000D01*
G01*
G04 #@! TO.C,U5*
X199696380Y-43678600D02*
X199696380Y-38218600D01*
X199696380Y-38218600D02*
X148776380Y-38218600D01*
X148776380Y-38218600D02*
X148776380Y-51138600D01*
X148776380Y-51138600D02*
X199696380Y-51138600D01*
X199696380Y-51138600D02*
X199696380Y-45678600D01*
X199696380Y-45678600D02*
G75*
G02*
X199696380Y-43678600I0J1000000D01*
G01*
G04 #@! TO.C,U4*
X172772380Y-79238600D02*
X172772380Y-77588600D01*
X172772380Y-77588600D02*
X147252380Y-77588600D01*
X147252380Y-77588600D02*
X147252380Y-82888600D01*
X147252380Y-82888600D02*
X172772380Y-82888600D01*
X172772380Y-82888600D02*
X172772380Y-81238600D01*
X172772380Y-81238600D02*
G75*
G02*
X172772380Y-79238600I0J1000000D01*
G01*
G04 #@! TO.C,U3*
X231700380Y-67808600D02*
X231700380Y-66158600D01*
X231700380Y-66158600D02*
X206180380Y-66158600D01*
X206180380Y-66158600D02*
X206180380Y-71458600D01*
X206180380Y-71458600D02*
X231700380Y-71458600D01*
X231700380Y-71458600D02*
X231700380Y-69808600D01*
X231700380Y-69808600D02*
G75*
G02*
X231700380Y-67808600I0J1000000D01*
G01*
G04 #@! TO.C,U1*
X231700380Y-39868600D02*
X231700380Y-38218600D01*
X231700380Y-38218600D02*
X208720380Y-38218600D01*
X208720380Y-38218600D02*
X208720380Y-43518600D01*
X208720380Y-43518600D02*
X231700380Y-43518600D01*
X231700380Y-43518600D02*
X231700380Y-41868600D01*
X231700380Y-41868600D02*
G75*
G02*
X231700380Y-39868600I0J1000000D01*
G01*
G04 #@! TO.C,C17*
X234742380Y-39908600D02*
X234742380Y-44448600D01*
X232602380Y-39908600D02*
X232602380Y-44448600D01*
X234742380Y-39908600D02*
X234727380Y-39908600D01*
X232617380Y-39908600D02*
X232602380Y-39908600D01*
X234742380Y-44448600D02*
X234727380Y-44448600D01*
X232617380Y-44448600D02*
X232602380Y-44448600D01*
G04 #@! TO.C,C16*
X234742380Y-79278600D02*
X234742380Y-83818600D01*
X232602380Y-79278600D02*
X232602380Y-83818600D01*
X234742380Y-79278600D02*
X234727380Y-79278600D01*
X232617380Y-79278600D02*
X232602380Y-79278600D01*
X234742380Y-83818600D02*
X234727380Y-83818600D01*
X232617380Y-83818600D02*
X232602380Y-83818600D01*
G04 #@! TO.C,C15*
X55672380Y-86898600D02*
X55672380Y-91438600D01*
X53532380Y-86898600D02*
X53532380Y-91438600D01*
X55672380Y-86898600D02*
X55657380Y-86898600D01*
X53547380Y-86898600D02*
X53532380Y-86898600D01*
X55672380Y-91438600D02*
X55657380Y-91438600D01*
X53547380Y-91438600D02*
X53532380Y-91438600D01*
G04 #@! TO.C,C14*
X55672380Y-74198600D02*
X55672380Y-78738600D01*
X53532380Y-74198600D02*
X53532380Y-78738600D01*
X55672380Y-74198600D02*
X55657380Y-74198600D01*
X53547380Y-74198600D02*
X53532380Y-74198600D01*
X55672380Y-78738600D02*
X55657380Y-78738600D01*
X53547380Y-78738600D02*
X53532380Y-78738600D01*
G04 #@! TO.C,C13*
X144318380Y-39908600D02*
X144318380Y-44448600D01*
X142178380Y-39908600D02*
X142178380Y-44448600D01*
X144318380Y-39908600D02*
X144303380Y-39908600D01*
X142193380Y-39908600D02*
X142178380Y-39908600D01*
X144318380Y-44448600D02*
X144303380Y-44448600D01*
X142193380Y-44448600D02*
X142178380Y-44448600D01*
G04 #@! TO.C,C12*
X104948380Y-94010600D02*
X104948380Y-98550600D01*
X102808380Y-94010600D02*
X102808380Y-98550600D01*
X104948380Y-94010600D02*
X104933380Y-94010600D01*
X102823380Y-94010600D02*
X102808380Y-94010600D01*
X104948380Y-98550600D02*
X104933380Y-98550600D01*
X102823380Y-98550600D02*
X102808380Y-98550600D01*
G04 #@! TO.C,C11*
X175814380Y-79278600D02*
X175814380Y-83818600D01*
X173674380Y-79278600D02*
X173674380Y-83818600D01*
X175814380Y-79278600D02*
X175799380Y-79278600D01*
X173689380Y-79278600D02*
X173674380Y-79278600D01*
X175814380Y-83818600D02*
X175799380Y-83818600D01*
X173689380Y-83818600D02*
X173674380Y-83818600D01*
G04 #@! TO.C,C10*
X118664380Y-39908600D02*
X118664380Y-44448600D01*
X116524380Y-39908600D02*
X116524380Y-44448600D01*
X118664380Y-39908600D02*
X118649380Y-39908600D01*
X116539380Y-39908600D02*
X116524380Y-39908600D01*
X118664380Y-44448600D02*
X118649380Y-44448600D01*
X116539380Y-44448600D02*
X116524380Y-44448600D01*
G04 #@! TO.C,C9*
X205278380Y-67848600D02*
X205278380Y-72388600D01*
X203138380Y-67848600D02*
X203138380Y-72388600D01*
X205278380Y-67848600D02*
X205263380Y-67848600D01*
X203153380Y-67848600D02*
X203138380Y-67848600D01*
X205278380Y-72388600D02*
X205263380Y-72388600D01*
X203153380Y-72388600D02*
X203138380Y-72388600D01*
G04 #@! TO.C,C8*
X205278380Y-79278600D02*
X205278380Y-83818600D01*
X203138380Y-79278600D02*
X203138380Y-83818600D01*
X205278380Y-79278600D02*
X205263380Y-79278600D01*
X203153380Y-79278600D02*
X203138380Y-79278600D01*
X205278380Y-83818600D02*
X205263380Y-83818600D01*
X203153380Y-83818600D02*
X203138380Y-83818600D01*
G04 #@! TO.C,C7*
X175814380Y-67848600D02*
X175814380Y-72388600D01*
X173674380Y-67848600D02*
X173674380Y-72388600D01*
X175814380Y-67848600D02*
X175799380Y-67848600D01*
X173689380Y-67848600D02*
X173674380Y-67848600D01*
X175814380Y-72388600D02*
X175799380Y-72388600D01*
X173689380Y-72388600D02*
X173674380Y-72388600D01*
G04 #@! TO.C,C6*
X146350380Y-79278600D02*
X146350380Y-83818600D01*
X144210380Y-79278600D02*
X144210380Y-83818600D01*
X146350380Y-79278600D02*
X146335380Y-79278600D01*
X144225380Y-79278600D02*
X144210380Y-79278600D01*
X146350380Y-83818600D02*
X146335380Y-83818600D01*
X144225380Y-83818600D02*
X144210380Y-83818600D01*
G04 #@! TO.C,C5*
X202738380Y-47528600D02*
X202738380Y-52068600D01*
X200598380Y-47528600D02*
X200598380Y-52068600D01*
X202738380Y-47528600D02*
X202723380Y-47528600D01*
X200613380Y-47528600D02*
X200598380Y-47528600D01*
X202738380Y-52068600D02*
X202723380Y-52068600D01*
X200613380Y-52068600D02*
X200598380Y-52068600D01*
G04 #@! TO.C,C4*
X94788380Y-47528600D02*
X94788380Y-52068600D01*
X92648380Y-47528600D02*
X92648380Y-52068600D01*
X94788380Y-47528600D02*
X94773380Y-47528600D01*
X92663380Y-47528600D02*
X92648380Y-47528600D01*
X94788380Y-52068600D02*
X94773380Y-52068600D01*
X92663380Y-52068600D02*
X92648380Y-52068600D01*
G04 #@! TO.C,C3*
X58212380Y-99598600D02*
X58212380Y-104138600D01*
X56072380Y-99598600D02*
X56072380Y-104138600D01*
X58212380Y-99598600D02*
X58197380Y-99598600D01*
X56087380Y-99598600D02*
X56072380Y-99598600D01*
X58212380Y-104138600D02*
X58197380Y-104138600D01*
X56087380Y-104138600D02*
X56072380Y-104138600D01*
G04 #@! TO.C,C2*
X234742380Y-67848600D02*
X234742380Y-72388600D01*
X232602380Y-67848600D02*
X232602380Y-72388600D01*
X234742380Y-67848600D02*
X234727380Y-67848600D01*
X232617380Y-67848600D02*
X232602380Y-67848600D01*
X234742380Y-72388600D02*
X234727380Y-72388600D01*
X232617380Y-72388600D02*
X232602380Y-72388600D01*
G04 #@! TO.C,C1*
X55672380Y-61498600D02*
X55672380Y-66038600D01*
X53532380Y-61498600D02*
X53532380Y-66038600D01*
X55672380Y-61498600D02*
X55657380Y-61498600D01*
X53547380Y-61498600D02*
X53532380Y-61498600D01*
X55672380Y-66038600D02*
X55657380Y-66038600D01*
X53547380Y-66038600D02*
X53532380Y-66038600D01*
G04 #@! TO.C,RN1*
D10*
X43069522Y-39910980D02*
X42498094Y-39910980D01*
X42783808Y-39910980D02*
X42783808Y-38910980D01*
X42688570Y-39053838D01*
X42593332Y-39149076D01*
X42498094Y-39196695D01*
X43688570Y-38910980D02*
X43783808Y-38910980D01*
X43879046Y-38958600D01*
X43926665Y-39006219D01*
X43974284Y-39101457D01*
X44021903Y-39291933D01*
X44021903Y-39530028D01*
X43974284Y-39720504D01*
X43926665Y-39815742D01*
X43879046Y-39863361D01*
X43783808Y-39910980D01*
X43688570Y-39910980D01*
X43593332Y-39863361D01*
X43545713Y-39815742D01*
X43498094Y-39720504D01*
X43450475Y-39530028D01*
X43450475Y-39291933D01*
X43498094Y-39101457D01*
X43545713Y-39006219D01*
X43593332Y-38958600D01*
X43688570Y-38910980D01*
X44450475Y-39910980D02*
X44450475Y-38910980D01*
X45021903Y-39910980D02*
X44593332Y-39339552D01*
X45021903Y-38910980D02*
X44450475Y-39482409D01*
X46355237Y-39910980D02*
X46259999Y-39863361D01*
X46212380Y-39815742D01*
X46164760Y-39720504D01*
X46164760Y-39434790D01*
X46212380Y-39339552D01*
X46259999Y-39291933D01*
X46355237Y-39244314D01*
X46498094Y-39244314D01*
X46593332Y-39291933D01*
X46640951Y-39339552D01*
X46688570Y-39434790D01*
X46688570Y-39720504D01*
X46640951Y-39815742D01*
X46593332Y-39863361D01*
X46498094Y-39910980D01*
X46355237Y-39910980D01*
X47117141Y-39910980D02*
X47117141Y-38910980D01*
X47545713Y-39910980D02*
X47545713Y-39387171D01*
X47498094Y-39291933D01*
X47402856Y-39244314D01*
X47259999Y-39244314D01*
X47164760Y-39291933D01*
X47117141Y-39339552D01*
X48021903Y-39910980D02*
X48021903Y-39244314D01*
X48021903Y-39339552D02*
X48069522Y-39291933D01*
X48164760Y-39244314D01*
X48307618Y-39244314D01*
X48402856Y-39291933D01*
X48450475Y-39387171D01*
X48450475Y-39910980D01*
X48450475Y-39387171D02*
X48498094Y-39291933D01*
X48593332Y-39244314D01*
X48736189Y-39244314D01*
X48831427Y-39291933D01*
X48879046Y-39387171D01*
X48879046Y-39910980D01*
G04 #@! TO.C,U18*
X65345427Y-69824790D02*
X65393046Y-69729552D01*
X65440665Y-69681933D01*
X65535903Y-69634314D01*
X65583522Y-69634314D01*
X65678760Y-69681933D01*
X65726380Y-69729552D01*
X65773999Y-69824790D01*
X65773999Y-70015266D01*
X65726380Y-70110504D01*
X65678760Y-70158123D01*
X65583522Y-70205742D01*
X65535903Y-70205742D01*
X65440665Y-70158123D01*
X65393046Y-70110504D01*
X65345427Y-70015266D01*
X65345427Y-69824790D01*
X65297808Y-69729552D01*
X65250189Y-69681933D01*
X65154951Y-69634314D01*
X64964475Y-69634314D01*
X64869237Y-69681933D01*
X64821618Y-69729552D01*
X64773999Y-69824790D01*
X64773999Y-70015266D01*
X64821618Y-70110504D01*
X64869237Y-70158123D01*
X64964475Y-70205742D01*
X65154951Y-70205742D01*
X65250189Y-70158123D01*
X65297808Y-70110504D01*
X65345427Y-70015266D01*
X65678760Y-70586695D02*
X65726380Y-70634314D01*
X65773999Y-70729552D01*
X65773999Y-70967647D01*
X65726380Y-71062885D01*
X65678760Y-71110504D01*
X65583522Y-71158123D01*
X65488284Y-71158123D01*
X65345427Y-71110504D01*
X64773999Y-70539076D01*
X64773999Y-71158123D01*
X65773999Y-72062885D02*
X65773999Y-71586695D01*
X65297808Y-71539076D01*
X65345427Y-71586695D01*
X65393046Y-71681933D01*
X65393046Y-71920028D01*
X65345427Y-72015266D01*
X65297808Y-72062885D01*
X65202570Y-72110504D01*
X64964475Y-72110504D01*
X64869237Y-72062885D01*
X64821618Y-72015266D01*
X64773999Y-71920028D01*
X64773999Y-71681933D01*
X64821618Y-71586695D01*
X64869237Y-71539076D01*
X64773999Y-72586695D02*
X64773999Y-72777171D01*
X64821618Y-72872409D01*
X64869237Y-72920028D01*
X65012094Y-73015266D01*
X65202570Y-73062885D01*
X65583522Y-73062885D01*
X65678760Y-73015266D01*
X65726380Y-72967647D01*
X65773999Y-72872409D01*
X65773999Y-72681933D01*
X65726380Y-72586695D01*
X65678760Y-72539076D01*
X65583522Y-72491457D01*
X65345427Y-72491457D01*
X65250189Y-72539076D01*
X65202570Y-72586695D01*
X65154951Y-72681933D01*
X65154951Y-72872409D01*
X65202570Y-72967647D01*
X65250189Y-73015266D01*
X65345427Y-73062885D01*
G04 #@! TO.C,R10*
X37481522Y-108884980D02*
X36910094Y-108884980D01*
X37195808Y-108884980D02*
X37195808Y-107884980D01*
X37100570Y-108027838D01*
X37005332Y-108123076D01*
X36910094Y-108170695D01*
X38100570Y-107884980D02*
X38195808Y-107884980D01*
X38291046Y-107932600D01*
X38338665Y-107980219D01*
X38386284Y-108075457D01*
X38433903Y-108265933D01*
X38433903Y-108504028D01*
X38386284Y-108694504D01*
X38338665Y-108789742D01*
X38291046Y-108837361D01*
X38195808Y-108884980D01*
X38100570Y-108884980D01*
X38005332Y-108837361D01*
X37957713Y-108789742D01*
X37910094Y-108694504D01*
X37862475Y-108504028D01*
X37862475Y-108265933D01*
X37910094Y-108075457D01*
X37957713Y-107980219D01*
X38005332Y-107932600D01*
X38100570Y-107884980D01*
X38862475Y-108884980D02*
X38862475Y-107884980D01*
X39433903Y-108884980D02*
X39005332Y-108313552D01*
X39433903Y-107884980D02*
X38862475Y-108456409D01*
X40767237Y-108884980D02*
X40671999Y-108837361D01*
X40624380Y-108789742D01*
X40576760Y-108694504D01*
X40576760Y-108408790D01*
X40624380Y-108313552D01*
X40671999Y-108265933D01*
X40767237Y-108218314D01*
X40910094Y-108218314D01*
X41005332Y-108265933D01*
X41052951Y-108313552D01*
X41100570Y-108408790D01*
X41100570Y-108694504D01*
X41052951Y-108789742D01*
X41005332Y-108837361D01*
X40910094Y-108884980D01*
X40767237Y-108884980D01*
X41529141Y-108884980D02*
X41529141Y-107884980D01*
X41957713Y-108884980D02*
X41957713Y-108361171D01*
X41910094Y-108265933D01*
X41814856Y-108218314D01*
X41671999Y-108218314D01*
X41576760Y-108265933D01*
X41529141Y-108313552D01*
X42433903Y-108884980D02*
X42433903Y-108218314D01*
X42433903Y-108313552D02*
X42481522Y-108265933D01*
X42576760Y-108218314D01*
X42719618Y-108218314D01*
X42814856Y-108265933D01*
X42862475Y-108361171D01*
X42862475Y-108884980D01*
X42862475Y-108361171D02*
X42910094Y-108265933D01*
X43005332Y-108218314D01*
X43148189Y-108218314D01*
X43243427Y-108265933D01*
X43291046Y-108361171D01*
X43291046Y-108884980D01*
G04 #@! TO.C,C18*
X104425999Y-74785742D02*
X104425999Y-74880980D01*
X104378380Y-74976219D01*
X104330760Y-75023838D01*
X104235522Y-75071457D01*
X104045046Y-75119076D01*
X103806951Y-75119076D01*
X103616475Y-75071457D01*
X103521237Y-75023838D01*
X103473618Y-74976219D01*
X103425999Y-74880980D01*
X103425999Y-74785742D01*
X103473618Y-74690504D01*
X103521237Y-74642885D01*
X103616475Y-74595266D01*
X103806951Y-74547647D01*
X104045046Y-74547647D01*
X104235522Y-74595266D01*
X104330760Y-74642885D01*
X104378380Y-74690504D01*
X104425999Y-74785742D01*
X103521237Y-75547647D02*
X103473618Y-75595266D01*
X103425999Y-75547647D01*
X103473618Y-75500028D01*
X103521237Y-75547647D01*
X103425999Y-75547647D01*
X103425999Y-76547647D02*
X103425999Y-75976219D01*
X103425999Y-76261933D02*
X104425999Y-76261933D01*
X104283141Y-76166695D01*
X104187903Y-76071457D01*
X104140284Y-75976219D01*
X104092665Y-77404790D02*
X103425999Y-77404790D01*
X104092665Y-76976219D02*
X103568856Y-76976219D01*
X103473618Y-77023838D01*
X103425999Y-77119076D01*
X103425999Y-77261933D01*
X103473618Y-77357171D01*
X103521237Y-77404790D01*
X103949808Y-78214314D02*
X103949808Y-77880980D01*
X103425999Y-77880980D02*
X104425999Y-77880980D01*
X104425999Y-78357171D01*
G04 #@! TO.C,R4*
X231513713Y-56322980D02*
X231037522Y-56322980D01*
X230989903Y-56799171D01*
X231037522Y-56751552D01*
X231132760Y-56703933D01*
X231370856Y-56703933D01*
X231466094Y-56751552D01*
X231513713Y-56799171D01*
X231561332Y-56894409D01*
X231561332Y-57132504D01*
X231513713Y-57227742D01*
X231466094Y-57275361D01*
X231370856Y-57322980D01*
X231132760Y-57322980D01*
X231037522Y-57275361D01*
X230989903Y-57227742D01*
X232513713Y-57322980D02*
X231942284Y-57322980D01*
X232227999Y-57322980D02*
X232227999Y-56322980D01*
X232132760Y-56465838D01*
X232037522Y-56561076D01*
X231942284Y-56608695D01*
X233132760Y-56322980D02*
X233227999Y-56322980D01*
X233323237Y-56370600D01*
X233370856Y-56418219D01*
X233418475Y-56513457D01*
X233466094Y-56703933D01*
X233466094Y-56942028D01*
X233418475Y-57132504D01*
X233370856Y-57227742D01*
X233323237Y-57275361D01*
X233227999Y-57322980D01*
X233132760Y-57322980D01*
X233037522Y-57275361D01*
X232989903Y-57227742D01*
X232942284Y-57132504D01*
X232894665Y-56942028D01*
X232894665Y-56703933D01*
X232942284Y-56513457D01*
X232989903Y-56418219D01*
X233037522Y-56370600D01*
X233132760Y-56322980D01*
X234799427Y-57322980D02*
X234704189Y-57275361D01*
X234656570Y-57227742D01*
X234608951Y-57132504D01*
X234608951Y-56846790D01*
X234656570Y-56751552D01*
X234704189Y-56703933D01*
X234799427Y-56656314D01*
X234942284Y-56656314D01*
X235037522Y-56703933D01*
X235085141Y-56751552D01*
X235132760Y-56846790D01*
X235132760Y-57132504D01*
X235085141Y-57227742D01*
X235037522Y-57275361D01*
X234942284Y-57322980D01*
X234799427Y-57322980D01*
X235561332Y-57322980D02*
X235561332Y-56322980D01*
X235989903Y-57322980D02*
X235989903Y-56799171D01*
X235942284Y-56703933D01*
X235847046Y-56656314D01*
X235704189Y-56656314D01*
X235608951Y-56703933D01*
X235561332Y-56751552D01*
X236466094Y-57322980D02*
X236466094Y-56656314D01*
X236466094Y-56751552D02*
X236513713Y-56703933D01*
X236608951Y-56656314D01*
X236751808Y-56656314D01*
X236847046Y-56703933D01*
X236894665Y-56799171D01*
X236894665Y-57322980D01*
X236894665Y-56799171D02*
X236942284Y-56703933D01*
X237037522Y-56656314D01*
X237180380Y-56656314D01*
X237275618Y-56703933D01*
X237323237Y-56799171D01*
X237323237Y-57322980D01*
G04 #@! TO.C,R3*
X231513713Y-59370980D02*
X231037522Y-59370980D01*
X230989903Y-59847171D01*
X231037522Y-59799552D01*
X231132760Y-59751933D01*
X231370856Y-59751933D01*
X231466094Y-59799552D01*
X231513713Y-59847171D01*
X231561332Y-59942409D01*
X231561332Y-60180504D01*
X231513713Y-60275742D01*
X231466094Y-60323361D01*
X231370856Y-60370980D01*
X231132760Y-60370980D01*
X231037522Y-60323361D01*
X230989903Y-60275742D01*
X232513713Y-60370980D02*
X231942284Y-60370980D01*
X232227999Y-60370980D02*
X232227999Y-59370980D01*
X232132760Y-59513838D01*
X232037522Y-59609076D01*
X231942284Y-59656695D01*
X233132760Y-59370980D02*
X233227999Y-59370980D01*
X233323237Y-59418600D01*
X233370856Y-59466219D01*
X233418475Y-59561457D01*
X233466094Y-59751933D01*
X233466094Y-59990028D01*
X233418475Y-60180504D01*
X233370856Y-60275742D01*
X233323237Y-60323361D01*
X233227999Y-60370980D01*
X233132760Y-60370980D01*
X233037522Y-60323361D01*
X232989903Y-60275742D01*
X232942284Y-60180504D01*
X232894665Y-59990028D01*
X232894665Y-59751933D01*
X232942284Y-59561457D01*
X232989903Y-59466219D01*
X233037522Y-59418600D01*
X233132760Y-59370980D01*
X234799427Y-60370980D02*
X234704189Y-60323361D01*
X234656570Y-60275742D01*
X234608951Y-60180504D01*
X234608951Y-59894790D01*
X234656570Y-59799552D01*
X234704189Y-59751933D01*
X234799427Y-59704314D01*
X234942284Y-59704314D01*
X235037522Y-59751933D01*
X235085141Y-59799552D01*
X235132760Y-59894790D01*
X235132760Y-60180504D01*
X235085141Y-60275742D01*
X235037522Y-60323361D01*
X234942284Y-60370980D01*
X234799427Y-60370980D01*
X235561332Y-60370980D02*
X235561332Y-59370980D01*
X235989903Y-60370980D02*
X235989903Y-59847171D01*
X235942284Y-59751933D01*
X235847046Y-59704314D01*
X235704189Y-59704314D01*
X235608951Y-59751933D01*
X235561332Y-59799552D01*
X236466094Y-60370980D02*
X236466094Y-59704314D01*
X236466094Y-59799552D02*
X236513713Y-59751933D01*
X236608951Y-59704314D01*
X236751808Y-59704314D01*
X236847046Y-59751933D01*
X236894665Y-59847171D01*
X236894665Y-60370980D01*
X236894665Y-59847171D02*
X236942284Y-59751933D01*
X237037522Y-59704314D01*
X237180380Y-59704314D01*
X237275618Y-59751933D01*
X237323237Y-59847171D01*
X237323237Y-60370980D01*
G04 #@! TO.C,R2*
X155012094Y-33304219D02*
X155059713Y-33256600D01*
X155154951Y-33208980D01*
X155393046Y-33208980D01*
X155488284Y-33256600D01*
X155535903Y-33304219D01*
X155583522Y-33399457D01*
X155583522Y-33494695D01*
X155535903Y-33637552D01*
X154964475Y-34208980D01*
X155583522Y-34208980D01*
X155916856Y-33208980D02*
X156583522Y-33208980D01*
X156154951Y-34208980D01*
X157869237Y-34208980D02*
X157773999Y-34161361D01*
X157726380Y-34113742D01*
X157678760Y-34018504D01*
X157678760Y-33732790D01*
X157726380Y-33637552D01*
X157773999Y-33589933D01*
X157869237Y-33542314D01*
X158012094Y-33542314D01*
X158107332Y-33589933D01*
X158154951Y-33637552D01*
X158202570Y-33732790D01*
X158202570Y-34018504D01*
X158154951Y-34113742D01*
X158107332Y-34161361D01*
X158012094Y-34208980D01*
X157869237Y-34208980D01*
X158631141Y-34208980D02*
X158631141Y-33208980D01*
X159059713Y-34208980D02*
X159059713Y-33685171D01*
X159012094Y-33589933D01*
X158916856Y-33542314D01*
X158773999Y-33542314D01*
X158678760Y-33589933D01*
X158631141Y-33637552D01*
X159535903Y-34208980D02*
X159535903Y-33542314D01*
X159535903Y-33637552D02*
X159583522Y-33589933D01*
X159678760Y-33542314D01*
X159821618Y-33542314D01*
X159916856Y-33589933D01*
X159964475Y-33685171D01*
X159964475Y-34208980D01*
X159964475Y-33685171D02*
X160012094Y-33589933D01*
X160107332Y-33542314D01*
X160250189Y-33542314D01*
X160345427Y-33589933D01*
X160393046Y-33685171D01*
X160393046Y-34208980D01*
G04 #@! TO.C,U2*
X146799999Y-65689552D02*
X146799999Y-66356219D01*
X145799999Y-65927647D01*
X146466665Y-67165742D02*
X145799999Y-67165742D01*
X146847618Y-66927647D02*
X146133332Y-66689552D01*
X146133332Y-67308600D01*
X145799999Y-68165742D02*
X145799999Y-67689552D01*
X146799999Y-67689552D01*
X145847618Y-68451457D02*
X145799999Y-68594314D01*
X145799999Y-68832409D01*
X145847618Y-68927647D01*
X145895237Y-68975266D01*
X145990475Y-69022885D01*
X146085713Y-69022885D01*
X146180951Y-68975266D01*
X146228570Y-68927647D01*
X146276189Y-68832409D01*
X146323808Y-68641933D01*
X146371427Y-68546695D01*
X146419046Y-68499076D01*
X146514284Y-68451457D01*
X146609522Y-68451457D01*
X146704760Y-68499076D01*
X146752380Y-68546695D01*
X146799999Y-68641933D01*
X146799999Y-68880028D01*
X146752380Y-69022885D01*
X146799999Y-69927647D02*
X146799999Y-69451457D01*
X146323808Y-69403838D01*
X146371427Y-69451457D01*
X146419046Y-69546695D01*
X146419046Y-69784790D01*
X146371427Y-69880028D01*
X146323808Y-69927647D01*
X146228570Y-69975266D01*
X145990475Y-69975266D01*
X145895237Y-69927647D01*
X145847618Y-69880028D01*
X145799999Y-69784790D01*
X145799999Y-69546695D01*
X145847618Y-69451457D01*
X145895237Y-69403838D01*
X146799999Y-70308600D02*
X146799999Y-70975266D01*
X145799999Y-70546695D01*
X146799999Y-71260980D02*
X146799999Y-71880028D01*
X146419046Y-71546695D01*
X146419046Y-71689552D01*
X146371427Y-71784790D01*
X146323808Y-71832409D01*
X146228570Y-71880028D01*
X145990475Y-71880028D01*
X145895237Y-71832409D01*
X145847618Y-71784790D01*
X145799999Y-71689552D01*
X145799999Y-71403838D01*
X145847618Y-71308600D01*
X145895237Y-71260980D01*
G04 #@! TO.C,Y1*
X224938665Y-54910742D02*
X224891046Y-54958361D01*
X224748189Y-55005980D01*
X224652951Y-55005980D01*
X224510094Y-54958361D01*
X224414856Y-54863123D01*
X224367237Y-54767885D01*
X224319618Y-54577409D01*
X224319618Y-54434552D01*
X224367237Y-54244076D01*
X224414856Y-54148838D01*
X224510094Y-54053600D01*
X224652951Y-54005980D01*
X224748189Y-54005980D01*
X224891046Y-54053600D01*
X224938665Y-54101219D01*
X225367237Y-55005980D02*
X225367237Y-54339314D01*
X225367237Y-54529790D02*
X225414856Y-54434552D01*
X225462475Y-54386933D01*
X225557713Y-54339314D01*
X225652951Y-54339314D01*
X225891046Y-54339314D02*
X226129141Y-55005980D01*
X226367237Y-54339314D02*
X226129141Y-55005980D01*
X226033903Y-55244076D01*
X225986284Y-55291695D01*
X225891046Y-55339314D01*
X226700570Y-54958361D02*
X226795808Y-55005980D01*
X226986284Y-55005980D01*
X227081522Y-54958361D01*
X227129141Y-54863123D01*
X227129141Y-54815504D01*
X227081522Y-54720266D01*
X226986284Y-54672647D01*
X226843427Y-54672647D01*
X226748189Y-54625028D01*
X226700570Y-54529790D01*
X226700570Y-54482171D01*
X226748189Y-54386933D01*
X226843427Y-54339314D01*
X226986284Y-54339314D01*
X227081522Y-54386933D01*
X227414856Y-54339314D02*
X227795808Y-54339314D01*
X227557713Y-54005980D02*
X227557713Y-54863123D01*
X227605332Y-54958361D01*
X227700570Y-55005980D01*
X227795808Y-55005980D01*
X228557713Y-55005980D02*
X228557713Y-54482171D01*
X228510094Y-54386933D01*
X228414856Y-54339314D01*
X228224380Y-54339314D01*
X228129141Y-54386933D01*
X228557713Y-54958361D02*
X228462475Y-55005980D01*
X228224380Y-55005980D01*
X228129141Y-54958361D01*
X228081522Y-54863123D01*
X228081522Y-54767885D01*
X228129141Y-54672647D01*
X228224380Y-54625028D01*
X228462475Y-54625028D01*
X228557713Y-54577409D01*
X229176760Y-55005980D02*
X229081522Y-54958361D01*
X229033903Y-54863123D01*
X229033903Y-54005980D01*
G04 #@! TO.C,U17*
X34277999Y-59815742D02*
X34277999Y-60482409D01*
X33277999Y-60053838D01*
X33944665Y-61291933D02*
X33277999Y-61291933D01*
X34325618Y-61053838D02*
X33611332Y-60815742D01*
X33611332Y-61434790D01*
X33277999Y-62291933D02*
X33277999Y-61815742D01*
X34277999Y-61815742D01*
X33325618Y-62577647D02*
X33277999Y-62720504D01*
X33277999Y-62958600D01*
X33325618Y-63053838D01*
X33373237Y-63101457D01*
X33468475Y-63149076D01*
X33563713Y-63149076D01*
X33658951Y-63101457D01*
X33706570Y-63053838D01*
X33754189Y-62958600D01*
X33801808Y-62768123D01*
X33849427Y-62672885D01*
X33897046Y-62625266D01*
X33992284Y-62577647D01*
X34087522Y-62577647D01*
X34182760Y-62625266D01*
X34230380Y-62672885D01*
X34277999Y-62768123D01*
X34277999Y-63006219D01*
X34230380Y-63149076D01*
X34277999Y-63768123D02*
X34277999Y-63863361D01*
X34230380Y-63958600D01*
X34182760Y-64006219D01*
X34087522Y-64053838D01*
X33897046Y-64101457D01*
X33658951Y-64101457D01*
X33468475Y-64053838D01*
X33373237Y-64006219D01*
X33325618Y-63958600D01*
X33277999Y-63863361D01*
X33277999Y-63768123D01*
X33325618Y-63672885D01*
X33373237Y-63625266D01*
X33468475Y-63577647D01*
X33658951Y-63530028D01*
X33897046Y-63530028D01*
X34087522Y-63577647D01*
X34182760Y-63625266D01*
X34230380Y-63672885D01*
X34277999Y-63768123D01*
X33944665Y-64958600D02*
X33277999Y-64958600D01*
X34325618Y-64720504D02*
X33611332Y-64482409D01*
X33611332Y-65101457D01*
G04 #@! TO.C,U16*
X34277999Y-97439552D02*
X34277999Y-98106219D01*
X33277999Y-97677647D01*
X33944665Y-98915742D02*
X33277999Y-98915742D01*
X34325618Y-98677647D02*
X33611332Y-98439552D01*
X33611332Y-99058600D01*
X33277999Y-99915742D02*
X33277999Y-99439552D01*
X34277999Y-99439552D01*
X33325618Y-100201457D02*
X33277999Y-100344314D01*
X33277999Y-100582409D01*
X33325618Y-100677647D01*
X33373237Y-100725266D01*
X33468475Y-100772885D01*
X33563713Y-100772885D01*
X33658951Y-100725266D01*
X33706570Y-100677647D01*
X33754189Y-100582409D01*
X33801808Y-100391933D01*
X33849427Y-100296695D01*
X33897046Y-100249076D01*
X33992284Y-100201457D01*
X34087522Y-100201457D01*
X34182760Y-100249076D01*
X34230380Y-100296695D01*
X34277999Y-100391933D01*
X34277999Y-100630028D01*
X34230380Y-100772885D01*
X33277999Y-101725266D02*
X33277999Y-101153838D01*
X33277999Y-101439552D02*
X34277999Y-101439552D01*
X34135141Y-101344314D01*
X34039903Y-101249076D01*
X33992284Y-101153838D01*
X34277999Y-102058600D02*
X34277999Y-102677647D01*
X33897046Y-102344314D01*
X33897046Y-102487171D01*
X33849427Y-102582409D01*
X33801808Y-102630028D01*
X33706570Y-102677647D01*
X33468475Y-102677647D01*
X33373237Y-102630028D01*
X33325618Y-102582409D01*
X33277999Y-102487171D01*
X33277999Y-102201457D01*
X33325618Y-102106219D01*
X33373237Y-102058600D01*
X33277999Y-103153838D02*
X33277999Y-103344314D01*
X33325618Y-103439552D01*
X33373237Y-103487171D01*
X33516094Y-103582409D01*
X33706570Y-103630028D01*
X34087522Y-103630028D01*
X34182760Y-103582409D01*
X34230380Y-103534790D01*
X34277999Y-103439552D01*
X34277999Y-103249076D01*
X34230380Y-103153838D01*
X34182760Y-103106219D01*
X34087522Y-103058600D01*
X33849427Y-103058600D01*
X33754189Y-103106219D01*
X33706570Y-103153838D01*
X33658951Y-103249076D01*
X33658951Y-103439552D01*
X33706570Y-103534790D01*
X33754189Y-103582409D01*
X33849427Y-103630028D01*
G04 #@! TO.C,U15*
X34277999Y-84739552D02*
X34277999Y-85406219D01*
X33277999Y-84977647D01*
X33944665Y-86215742D02*
X33277999Y-86215742D01*
X34325618Y-85977647D02*
X33611332Y-85739552D01*
X33611332Y-86358600D01*
X33277999Y-87215742D02*
X33277999Y-86739552D01*
X34277999Y-86739552D01*
X33325618Y-87501457D02*
X33277999Y-87644314D01*
X33277999Y-87882409D01*
X33325618Y-87977647D01*
X33373237Y-88025266D01*
X33468475Y-88072885D01*
X33563713Y-88072885D01*
X33658951Y-88025266D01*
X33706570Y-87977647D01*
X33754189Y-87882409D01*
X33801808Y-87691933D01*
X33849427Y-87596695D01*
X33897046Y-87549076D01*
X33992284Y-87501457D01*
X34087522Y-87501457D01*
X34182760Y-87549076D01*
X34230380Y-87596695D01*
X34277999Y-87691933D01*
X34277999Y-87930028D01*
X34230380Y-88072885D01*
X33277999Y-89025266D02*
X33277999Y-88453838D01*
X33277999Y-88739552D02*
X34277999Y-88739552D01*
X34135141Y-88644314D01*
X34039903Y-88549076D01*
X33992284Y-88453838D01*
X34182760Y-89406219D02*
X34230380Y-89453838D01*
X34277999Y-89549076D01*
X34277999Y-89787171D01*
X34230380Y-89882409D01*
X34182760Y-89930028D01*
X34087522Y-89977647D01*
X33992284Y-89977647D01*
X33849427Y-89930028D01*
X33277999Y-89358600D01*
X33277999Y-89977647D01*
X34277999Y-90834790D02*
X34277999Y-90644314D01*
X34230380Y-90549076D01*
X34182760Y-90501457D01*
X34039903Y-90406219D01*
X33849427Y-90358600D01*
X33468475Y-90358600D01*
X33373237Y-90406219D01*
X33325618Y-90453838D01*
X33277999Y-90549076D01*
X33277999Y-90739552D01*
X33325618Y-90834790D01*
X33373237Y-90882409D01*
X33468475Y-90930028D01*
X33706570Y-90930028D01*
X33801808Y-90882409D01*
X33849427Y-90834790D01*
X33897046Y-90739552D01*
X33897046Y-90549076D01*
X33849427Y-90453838D01*
X33801808Y-90406219D01*
X33706570Y-90358600D01*
G04 #@! TO.C,U14*
X176561999Y-65689552D02*
X176561999Y-66356219D01*
X175561999Y-65927647D01*
X176228665Y-67165742D02*
X175561999Y-67165742D01*
X176609618Y-66927647D02*
X175895332Y-66689552D01*
X175895332Y-67308600D01*
X175561999Y-68165742D02*
X175561999Y-67689552D01*
X176561999Y-67689552D01*
X175609618Y-68451457D02*
X175561999Y-68594314D01*
X175561999Y-68832409D01*
X175609618Y-68927647D01*
X175657237Y-68975266D01*
X175752475Y-69022885D01*
X175847713Y-69022885D01*
X175942951Y-68975266D01*
X175990570Y-68927647D01*
X176038189Y-68832409D01*
X176085808Y-68641933D01*
X176133427Y-68546695D01*
X176181046Y-68499076D01*
X176276284Y-68451457D01*
X176371522Y-68451457D01*
X176466760Y-68499076D01*
X176514380Y-68546695D01*
X176561999Y-68641933D01*
X176561999Y-68880028D01*
X176514380Y-69022885D01*
X176561999Y-69927647D02*
X176561999Y-69451457D01*
X176085808Y-69403838D01*
X176133427Y-69451457D01*
X176181046Y-69546695D01*
X176181046Y-69784790D01*
X176133427Y-69880028D01*
X176085808Y-69927647D01*
X175990570Y-69975266D01*
X175752475Y-69975266D01*
X175657237Y-69927647D01*
X175609618Y-69880028D01*
X175561999Y-69784790D01*
X175561999Y-69546695D01*
X175609618Y-69451457D01*
X175657237Y-69403838D01*
X176561999Y-70308600D02*
X176561999Y-70975266D01*
X175561999Y-70546695D01*
X176561999Y-71260980D02*
X176561999Y-71880028D01*
X176181046Y-71546695D01*
X176181046Y-71689552D01*
X176133427Y-71784790D01*
X176085808Y-71832409D01*
X175990570Y-71880028D01*
X175752475Y-71880028D01*
X175657237Y-71832409D01*
X175609618Y-71784790D01*
X175561999Y-71689552D01*
X175561999Y-71403838D01*
X175609618Y-71308600D01*
X175657237Y-71260980D01*
G04 #@! TO.C,U13*
X34277999Y-72039552D02*
X34277999Y-72706219D01*
X33277999Y-72277647D01*
X33944665Y-73515742D02*
X33277999Y-73515742D01*
X34325618Y-73277647D02*
X33611332Y-73039552D01*
X33611332Y-73658600D01*
X33277999Y-74515742D02*
X33277999Y-74039552D01*
X34277999Y-74039552D01*
X33325618Y-74801457D02*
X33277999Y-74944314D01*
X33277999Y-75182409D01*
X33325618Y-75277647D01*
X33373237Y-75325266D01*
X33468475Y-75372885D01*
X33563713Y-75372885D01*
X33658951Y-75325266D01*
X33706570Y-75277647D01*
X33754189Y-75182409D01*
X33801808Y-74991933D01*
X33849427Y-74896695D01*
X33897046Y-74849076D01*
X33992284Y-74801457D01*
X34087522Y-74801457D01*
X34182760Y-74849076D01*
X34230380Y-74896695D01*
X34277999Y-74991933D01*
X34277999Y-75230028D01*
X34230380Y-75372885D01*
X33277999Y-76325266D02*
X33277999Y-75753838D01*
X33277999Y-76039552D02*
X34277999Y-76039552D01*
X34135141Y-75944314D01*
X34039903Y-75849076D01*
X33992284Y-75753838D01*
X34182760Y-76706219D02*
X34230380Y-76753838D01*
X34277999Y-76849076D01*
X34277999Y-77087171D01*
X34230380Y-77182409D01*
X34182760Y-77230028D01*
X34087522Y-77277647D01*
X33992284Y-77277647D01*
X33849427Y-77230028D01*
X33277999Y-76658600D01*
X33277999Y-77277647D01*
X34277999Y-78182409D02*
X34277999Y-77706219D01*
X33801808Y-77658600D01*
X33849427Y-77706219D01*
X33897046Y-77801457D01*
X33897046Y-78039552D01*
X33849427Y-78134790D01*
X33801808Y-78182409D01*
X33706570Y-78230028D01*
X33468475Y-78230028D01*
X33373237Y-78182409D01*
X33325618Y-78134790D01*
X33277999Y-78039552D01*
X33277999Y-77801457D01*
X33325618Y-77706219D01*
X33373237Y-77658600D01*
G04 #@! TO.C,U12*
X206025999Y-77119552D02*
X206025999Y-77786219D01*
X205025999Y-77357647D01*
X205692665Y-78595742D02*
X205025999Y-78595742D01*
X206073618Y-78357647D02*
X205359332Y-78119552D01*
X205359332Y-78738600D01*
X205025999Y-79595742D02*
X205025999Y-79119552D01*
X206025999Y-79119552D01*
X205073618Y-79881457D02*
X205025999Y-80024314D01*
X205025999Y-80262409D01*
X205073618Y-80357647D01*
X205121237Y-80405266D01*
X205216475Y-80452885D01*
X205311713Y-80452885D01*
X205406951Y-80405266D01*
X205454570Y-80357647D01*
X205502189Y-80262409D01*
X205549808Y-80071933D01*
X205597427Y-79976695D01*
X205645046Y-79929076D01*
X205740284Y-79881457D01*
X205835522Y-79881457D01*
X205930760Y-79929076D01*
X205978380Y-79976695D01*
X206025999Y-80071933D01*
X206025999Y-80310028D01*
X205978380Y-80452885D01*
X205930760Y-80833838D02*
X205978380Y-80881457D01*
X206025999Y-80976695D01*
X206025999Y-81214790D01*
X205978380Y-81310028D01*
X205930760Y-81357647D01*
X205835522Y-81405266D01*
X205740284Y-81405266D01*
X205597427Y-81357647D01*
X205025999Y-80786219D01*
X205025999Y-81405266D01*
X205692665Y-82262409D02*
X205025999Y-82262409D01*
X206073618Y-82024314D02*
X205359332Y-81786219D01*
X205359332Y-82405266D01*
X206025999Y-83262409D02*
X206025999Y-82786219D01*
X205549808Y-82738600D01*
X205597427Y-82786219D01*
X205645046Y-82881457D01*
X205645046Y-83119552D01*
X205597427Y-83214790D01*
X205549808Y-83262409D01*
X205454570Y-83310028D01*
X205216475Y-83310028D01*
X205121237Y-83262409D01*
X205073618Y-83214790D01*
X205025999Y-83119552D01*
X205025999Y-82881457D01*
X205073618Y-82786219D01*
X205121237Y-82738600D01*
G04 #@! TO.C,U11*
X176561999Y-77119552D02*
X176561999Y-77786219D01*
X175561999Y-77357647D01*
X176228665Y-78595742D02*
X175561999Y-78595742D01*
X176609618Y-78357647D02*
X175895332Y-78119552D01*
X175895332Y-78738600D01*
X175561999Y-79595742D02*
X175561999Y-79119552D01*
X176561999Y-79119552D01*
X175609618Y-79881457D02*
X175561999Y-80024314D01*
X175561999Y-80262409D01*
X175609618Y-80357647D01*
X175657237Y-80405266D01*
X175752475Y-80452885D01*
X175847713Y-80452885D01*
X175942951Y-80405266D01*
X175990570Y-80357647D01*
X176038189Y-80262409D01*
X176085808Y-80071933D01*
X176133427Y-79976695D01*
X176181046Y-79929076D01*
X176276284Y-79881457D01*
X176371522Y-79881457D01*
X176466760Y-79929076D01*
X176514380Y-79976695D01*
X176561999Y-80071933D01*
X176561999Y-80310028D01*
X176514380Y-80452885D01*
X176466760Y-80833838D02*
X176514380Y-80881457D01*
X176561999Y-80976695D01*
X176561999Y-81214790D01*
X176514380Y-81310028D01*
X176466760Y-81357647D01*
X176371522Y-81405266D01*
X176276284Y-81405266D01*
X176133427Y-81357647D01*
X175561999Y-80786219D01*
X175561999Y-81405266D01*
X176228665Y-82262409D02*
X175561999Y-82262409D01*
X176609618Y-82024314D02*
X175895332Y-81786219D01*
X175895332Y-82405266D01*
X176561999Y-83262409D02*
X176561999Y-82786219D01*
X176085808Y-82738600D01*
X176133427Y-82786219D01*
X176181046Y-82881457D01*
X176181046Y-83119552D01*
X176133427Y-83214790D01*
X176085808Y-83262409D01*
X175990570Y-83310028D01*
X175752475Y-83310028D01*
X175657237Y-83262409D01*
X175609618Y-83214790D01*
X175561999Y-83119552D01*
X175561999Y-82881457D01*
X175609618Y-82786219D01*
X175657237Y-82738600D01*
G04 #@! TO.C,U10*
X94729999Y-37749552D02*
X94729999Y-38416219D01*
X93729999Y-37987647D01*
X94396665Y-39225742D02*
X93729999Y-39225742D01*
X94777618Y-38987647D02*
X94063332Y-38749552D01*
X94063332Y-39368600D01*
X93729999Y-40225742D02*
X93729999Y-39749552D01*
X94729999Y-39749552D01*
X93777618Y-40511457D02*
X93729999Y-40654314D01*
X93729999Y-40892409D01*
X93777618Y-40987647D01*
X93825237Y-41035266D01*
X93920475Y-41082885D01*
X94015713Y-41082885D01*
X94110951Y-41035266D01*
X94158570Y-40987647D01*
X94206189Y-40892409D01*
X94253808Y-40701933D01*
X94301427Y-40606695D01*
X94349046Y-40559076D01*
X94444284Y-40511457D01*
X94539522Y-40511457D01*
X94634760Y-40559076D01*
X94682380Y-40606695D01*
X94729999Y-40701933D01*
X94729999Y-40940028D01*
X94682380Y-41082885D01*
X94634760Y-41463838D02*
X94682380Y-41511457D01*
X94729999Y-41606695D01*
X94729999Y-41844790D01*
X94682380Y-41940028D01*
X94634760Y-41987647D01*
X94539522Y-42035266D01*
X94444284Y-42035266D01*
X94301427Y-41987647D01*
X93729999Y-41416219D01*
X93729999Y-42035266D01*
X94729999Y-42940028D02*
X94729999Y-42463838D01*
X94253808Y-42416219D01*
X94301427Y-42463838D01*
X94349046Y-42559076D01*
X94349046Y-42797171D01*
X94301427Y-42892409D01*
X94253808Y-42940028D01*
X94158570Y-42987647D01*
X93920475Y-42987647D01*
X93825237Y-42940028D01*
X93777618Y-42892409D01*
X93729999Y-42797171D01*
X93729999Y-42559076D01*
X93777618Y-42463838D01*
X93825237Y-42416219D01*
X94729999Y-43320980D02*
X94729999Y-43987647D01*
X93729999Y-43559076D01*
G04 #@! TO.C,U9*
X117335999Y-77119552D02*
X117335999Y-77786219D01*
X116335999Y-77357647D01*
X117002665Y-78595742D02*
X116335999Y-78595742D01*
X117383618Y-78357647D02*
X116669332Y-78119552D01*
X116669332Y-78738600D01*
X116335999Y-79595742D02*
X116335999Y-79119552D01*
X117335999Y-79119552D01*
X116383618Y-79881457D02*
X116335999Y-80024314D01*
X116335999Y-80262409D01*
X116383618Y-80357647D01*
X116431237Y-80405266D01*
X116526475Y-80452885D01*
X116621713Y-80452885D01*
X116716951Y-80405266D01*
X116764570Y-80357647D01*
X116812189Y-80262409D01*
X116859808Y-80071933D01*
X116907427Y-79976695D01*
X116955046Y-79929076D01*
X117050284Y-79881457D01*
X117145522Y-79881457D01*
X117240760Y-79929076D01*
X117288380Y-79976695D01*
X117335999Y-80071933D01*
X117335999Y-80310028D01*
X117288380Y-80452885D01*
X117240760Y-80833838D02*
X117288380Y-80881457D01*
X117335999Y-80976695D01*
X117335999Y-81214790D01*
X117288380Y-81310028D01*
X117240760Y-81357647D01*
X117145522Y-81405266D01*
X117050284Y-81405266D01*
X116907427Y-81357647D01*
X116335999Y-80786219D01*
X116335999Y-81405266D01*
X117002665Y-82262409D02*
X116335999Y-82262409D01*
X117383618Y-82024314D02*
X116669332Y-81786219D01*
X116669332Y-82405266D01*
X117335999Y-83262409D02*
X117335999Y-82786219D01*
X116859808Y-82738600D01*
X116907427Y-82786219D01*
X116955046Y-82881457D01*
X116955046Y-83119552D01*
X116907427Y-83214790D01*
X116859808Y-83262409D01*
X116764570Y-83310028D01*
X116526475Y-83310028D01*
X116431237Y-83262409D01*
X116383618Y-83214790D01*
X116335999Y-83119552D01*
X116335999Y-82881457D01*
X116383618Y-82786219D01*
X116431237Y-82738600D01*
G04 #@! TO.C,U8*
X120383999Y-37749552D02*
X120383999Y-38416219D01*
X119383999Y-37987647D01*
X120050665Y-39225742D02*
X119383999Y-39225742D01*
X120431618Y-38987647D02*
X119717332Y-38749552D01*
X119717332Y-39368600D01*
X119383999Y-40225742D02*
X119383999Y-39749552D01*
X120383999Y-39749552D01*
X119431618Y-40511457D02*
X119383999Y-40654314D01*
X119383999Y-40892409D01*
X119431618Y-40987647D01*
X119479237Y-41035266D01*
X119574475Y-41082885D01*
X119669713Y-41082885D01*
X119764951Y-41035266D01*
X119812570Y-40987647D01*
X119860189Y-40892409D01*
X119907808Y-40701933D01*
X119955427Y-40606695D01*
X120003046Y-40559076D01*
X120098284Y-40511457D01*
X120193522Y-40511457D01*
X120288760Y-40559076D01*
X120336380Y-40606695D01*
X120383999Y-40701933D01*
X120383999Y-40940028D01*
X120336380Y-41082885D01*
X120288760Y-41463838D02*
X120336380Y-41511457D01*
X120383999Y-41606695D01*
X120383999Y-41844790D01*
X120336380Y-41940028D01*
X120288760Y-41987647D01*
X120193522Y-42035266D01*
X120098284Y-42035266D01*
X119955427Y-41987647D01*
X119383999Y-41416219D01*
X119383999Y-42035266D01*
X120383999Y-42940028D02*
X120383999Y-42463838D01*
X119907808Y-42416219D01*
X119955427Y-42463838D01*
X120003046Y-42559076D01*
X120003046Y-42797171D01*
X119955427Y-42892409D01*
X119907808Y-42940028D01*
X119812570Y-42987647D01*
X119574475Y-42987647D01*
X119479237Y-42940028D01*
X119431618Y-42892409D01*
X119383999Y-42797171D01*
X119383999Y-42559076D01*
X119431618Y-42463838D01*
X119479237Y-42416219D01*
X120383999Y-43320980D02*
X120383999Y-43987647D01*
X119383999Y-43559076D01*
G04 #@! TO.C,U7*
X60265427Y-43154790D02*
X60313046Y-43059552D01*
X60360665Y-43011933D01*
X60455903Y-42964314D01*
X60503522Y-42964314D01*
X60598760Y-43011933D01*
X60646380Y-43059552D01*
X60693999Y-43154790D01*
X60693999Y-43345266D01*
X60646380Y-43440504D01*
X60598760Y-43488123D01*
X60503522Y-43535742D01*
X60455903Y-43535742D01*
X60360665Y-43488123D01*
X60313046Y-43440504D01*
X60265427Y-43345266D01*
X60265427Y-43154790D01*
X60217808Y-43059552D01*
X60170189Y-43011933D01*
X60074951Y-42964314D01*
X59884475Y-42964314D01*
X59789237Y-43011933D01*
X59741618Y-43059552D01*
X59693999Y-43154790D01*
X59693999Y-43345266D01*
X59741618Y-43440504D01*
X59789237Y-43488123D01*
X59884475Y-43535742D01*
X60074951Y-43535742D01*
X60170189Y-43488123D01*
X60217808Y-43440504D01*
X60265427Y-43345266D01*
X60598760Y-43916695D02*
X60646380Y-43964314D01*
X60693999Y-44059552D01*
X60693999Y-44297647D01*
X60646380Y-44392885D01*
X60598760Y-44440504D01*
X60503522Y-44488123D01*
X60408284Y-44488123D01*
X60265427Y-44440504D01*
X59693999Y-43869076D01*
X59693999Y-44488123D01*
X60693999Y-45392885D02*
X60693999Y-44916695D01*
X60217808Y-44869076D01*
X60265427Y-44916695D01*
X60313046Y-45011933D01*
X60313046Y-45250028D01*
X60265427Y-45345266D01*
X60217808Y-45392885D01*
X60122570Y-45440504D01*
X59884475Y-45440504D01*
X59789237Y-45392885D01*
X59741618Y-45345266D01*
X59693999Y-45250028D01*
X59693999Y-45011933D01*
X59741618Y-44916695D01*
X59789237Y-44869076D01*
X60693999Y-45773838D02*
X60693999Y-46392885D01*
X60313046Y-46059552D01*
X60313046Y-46202409D01*
X60265427Y-46297647D01*
X60217808Y-46345266D01*
X60122570Y-46392885D01*
X59884475Y-46392885D01*
X59789237Y-46345266D01*
X59741618Y-46297647D01*
X59693999Y-46202409D01*
X59693999Y-45916695D01*
X59741618Y-45821457D01*
X59789237Y-45773838D01*
G04 #@! TO.C,U6*
X65345427Y-89636790D02*
X65393046Y-89541552D01*
X65440665Y-89493933D01*
X65535903Y-89446314D01*
X65583522Y-89446314D01*
X65678760Y-89493933D01*
X65726380Y-89541552D01*
X65773999Y-89636790D01*
X65773999Y-89827266D01*
X65726380Y-89922504D01*
X65678760Y-89970123D01*
X65583522Y-90017742D01*
X65535903Y-90017742D01*
X65440665Y-89970123D01*
X65393046Y-89922504D01*
X65345427Y-89827266D01*
X65345427Y-89636790D01*
X65297808Y-89541552D01*
X65250189Y-89493933D01*
X65154951Y-89446314D01*
X64964475Y-89446314D01*
X64869237Y-89493933D01*
X64821618Y-89541552D01*
X64773999Y-89636790D01*
X64773999Y-89827266D01*
X64821618Y-89922504D01*
X64869237Y-89970123D01*
X64964475Y-90017742D01*
X65154951Y-90017742D01*
X65250189Y-89970123D01*
X65297808Y-89922504D01*
X65345427Y-89827266D01*
X65678760Y-90398695D02*
X65726380Y-90446314D01*
X65773999Y-90541552D01*
X65773999Y-90779647D01*
X65726380Y-90874885D01*
X65678760Y-90922504D01*
X65583522Y-90970123D01*
X65488284Y-90970123D01*
X65345427Y-90922504D01*
X64773999Y-90351076D01*
X64773999Y-90970123D01*
X65773999Y-91874885D02*
X65773999Y-91398695D01*
X65297808Y-91351076D01*
X65345427Y-91398695D01*
X65393046Y-91493933D01*
X65393046Y-91732028D01*
X65345427Y-91827266D01*
X65297808Y-91874885D01*
X65202570Y-91922504D01*
X64964475Y-91922504D01*
X64869237Y-91874885D01*
X64821618Y-91827266D01*
X64773999Y-91732028D01*
X64773999Y-91493933D01*
X64821618Y-91398695D01*
X64869237Y-91351076D01*
X64773999Y-92398695D02*
X64773999Y-92589171D01*
X64821618Y-92684409D01*
X64869237Y-92732028D01*
X65012094Y-92827266D01*
X65202570Y-92874885D01*
X65583522Y-92874885D01*
X65678760Y-92827266D01*
X65726380Y-92779647D01*
X65773999Y-92684409D01*
X65773999Y-92493933D01*
X65726380Y-92398695D01*
X65678760Y-92351076D01*
X65583522Y-92303457D01*
X65345427Y-92303457D01*
X65250189Y-92351076D01*
X65202570Y-92398695D01*
X65154951Y-92493933D01*
X65154951Y-92684409D01*
X65202570Y-92779647D01*
X65250189Y-92827266D01*
X65345427Y-92874885D01*
G04 #@! TO.C,U5*
X147895427Y-43154790D02*
X147943046Y-43059552D01*
X147990665Y-43011933D01*
X148085903Y-42964314D01*
X148133522Y-42964314D01*
X148228760Y-43011933D01*
X148276380Y-43059552D01*
X148323999Y-43154790D01*
X148323999Y-43345266D01*
X148276380Y-43440504D01*
X148228760Y-43488123D01*
X148133522Y-43535742D01*
X148085903Y-43535742D01*
X147990665Y-43488123D01*
X147943046Y-43440504D01*
X147895427Y-43345266D01*
X147895427Y-43154790D01*
X147847808Y-43059552D01*
X147800189Y-43011933D01*
X147704951Y-42964314D01*
X147514475Y-42964314D01*
X147419237Y-43011933D01*
X147371618Y-43059552D01*
X147323999Y-43154790D01*
X147323999Y-43345266D01*
X147371618Y-43440504D01*
X147419237Y-43488123D01*
X147514475Y-43535742D01*
X147704951Y-43535742D01*
X147800189Y-43488123D01*
X147847808Y-43440504D01*
X147895427Y-43345266D01*
X148323999Y-44154790D02*
X148323999Y-44250028D01*
X148276380Y-44345266D01*
X148228760Y-44392885D01*
X148133522Y-44440504D01*
X147943046Y-44488123D01*
X147704951Y-44488123D01*
X147514475Y-44440504D01*
X147419237Y-44392885D01*
X147371618Y-44345266D01*
X147323999Y-44250028D01*
X147323999Y-44154790D01*
X147371618Y-44059552D01*
X147419237Y-44011933D01*
X147514475Y-43964314D01*
X147704951Y-43916695D01*
X147943046Y-43916695D01*
X148133522Y-43964314D01*
X148228760Y-44011933D01*
X148276380Y-44059552D01*
X148323999Y-44154790D01*
X147895427Y-45059552D02*
X147943046Y-44964314D01*
X147990665Y-44916695D01*
X148085903Y-44869076D01*
X148133522Y-44869076D01*
X148228760Y-44916695D01*
X148276380Y-44964314D01*
X148323999Y-45059552D01*
X148323999Y-45250028D01*
X148276380Y-45345266D01*
X148228760Y-45392885D01*
X148133522Y-45440504D01*
X148085903Y-45440504D01*
X147990665Y-45392885D01*
X147943046Y-45345266D01*
X147895427Y-45250028D01*
X147895427Y-45059552D01*
X147847808Y-44964314D01*
X147800189Y-44916695D01*
X147704951Y-44869076D01*
X147514475Y-44869076D01*
X147419237Y-44916695D01*
X147371618Y-44964314D01*
X147323999Y-45059552D01*
X147323999Y-45250028D01*
X147371618Y-45345266D01*
X147419237Y-45392885D01*
X147514475Y-45440504D01*
X147704951Y-45440504D01*
X147800189Y-45392885D01*
X147847808Y-45345266D01*
X147895427Y-45250028D01*
X148323999Y-46297647D02*
X148323999Y-46107171D01*
X148276380Y-46011933D01*
X148228760Y-45964314D01*
X148085903Y-45869076D01*
X147895427Y-45821457D01*
X147514475Y-45821457D01*
X147419237Y-45869076D01*
X147371618Y-45916695D01*
X147323999Y-46011933D01*
X147323999Y-46202409D01*
X147371618Y-46297647D01*
X147419237Y-46345266D01*
X147514475Y-46392885D01*
X147752570Y-46392885D01*
X147847808Y-46345266D01*
X147895427Y-46297647D01*
X147943046Y-46202409D01*
X147943046Y-46011933D01*
X147895427Y-45916695D01*
X147847808Y-45869076D01*
X147752570Y-45821457D01*
G04 #@! TO.C,U4*
X147097999Y-77119552D02*
X147097999Y-77786219D01*
X146097999Y-77357647D01*
X146764665Y-78595742D02*
X146097999Y-78595742D01*
X147145618Y-78357647D02*
X146431332Y-78119552D01*
X146431332Y-78738600D01*
X146097999Y-79595742D02*
X146097999Y-79119552D01*
X147097999Y-79119552D01*
X146145618Y-79881457D02*
X146097999Y-80024314D01*
X146097999Y-80262409D01*
X146145618Y-80357647D01*
X146193237Y-80405266D01*
X146288475Y-80452885D01*
X146383713Y-80452885D01*
X146478951Y-80405266D01*
X146526570Y-80357647D01*
X146574189Y-80262409D01*
X146621808Y-80071933D01*
X146669427Y-79976695D01*
X146717046Y-79929076D01*
X146812284Y-79881457D01*
X146907522Y-79881457D01*
X147002760Y-79929076D01*
X147050380Y-79976695D01*
X147097999Y-80071933D01*
X147097999Y-80310028D01*
X147050380Y-80452885D01*
X147002760Y-80833838D02*
X147050380Y-80881457D01*
X147097999Y-80976695D01*
X147097999Y-81214790D01*
X147050380Y-81310028D01*
X147002760Y-81357647D01*
X146907522Y-81405266D01*
X146812284Y-81405266D01*
X146669427Y-81357647D01*
X146097999Y-80786219D01*
X146097999Y-81405266D01*
X146764665Y-82262409D02*
X146097999Y-82262409D01*
X147145618Y-82024314D02*
X146431332Y-81786219D01*
X146431332Y-82405266D01*
X147097999Y-83262409D02*
X147097999Y-82786219D01*
X146621808Y-82738600D01*
X146669427Y-82786219D01*
X146717046Y-82881457D01*
X146717046Y-83119552D01*
X146669427Y-83214790D01*
X146621808Y-83262409D01*
X146526570Y-83310028D01*
X146288475Y-83310028D01*
X146193237Y-83262409D01*
X146145618Y-83214790D01*
X146097999Y-83119552D01*
X146097999Y-82881457D01*
X146145618Y-82786219D01*
X146193237Y-82738600D01*
G04 #@! TO.C,U3*
X206025999Y-65689552D02*
X206025999Y-66356219D01*
X205025999Y-65927647D01*
X205692665Y-67165742D02*
X205025999Y-67165742D01*
X206073618Y-66927647D02*
X205359332Y-66689552D01*
X205359332Y-67308600D01*
X205025999Y-68165742D02*
X205025999Y-67689552D01*
X206025999Y-67689552D01*
X205073618Y-68451457D02*
X205025999Y-68594314D01*
X205025999Y-68832409D01*
X205073618Y-68927647D01*
X205121237Y-68975266D01*
X205216475Y-69022885D01*
X205311713Y-69022885D01*
X205406951Y-68975266D01*
X205454570Y-68927647D01*
X205502189Y-68832409D01*
X205549808Y-68641933D01*
X205597427Y-68546695D01*
X205645046Y-68499076D01*
X205740284Y-68451457D01*
X205835522Y-68451457D01*
X205930760Y-68499076D01*
X205978380Y-68546695D01*
X206025999Y-68641933D01*
X206025999Y-68880028D01*
X205978380Y-69022885D01*
X206025999Y-69927647D02*
X206025999Y-69451457D01*
X205549808Y-69403838D01*
X205597427Y-69451457D01*
X205645046Y-69546695D01*
X205645046Y-69784790D01*
X205597427Y-69880028D01*
X205549808Y-69927647D01*
X205454570Y-69975266D01*
X205216475Y-69975266D01*
X205121237Y-69927647D01*
X205073618Y-69880028D01*
X205025999Y-69784790D01*
X205025999Y-69546695D01*
X205073618Y-69451457D01*
X205121237Y-69403838D01*
X206025999Y-70308600D02*
X206025999Y-70975266D01*
X205025999Y-70546695D01*
X206025999Y-71260980D02*
X206025999Y-71880028D01*
X205645046Y-71546695D01*
X205645046Y-71689552D01*
X205597427Y-71784790D01*
X205549808Y-71832409D01*
X205454570Y-71880028D01*
X205216475Y-71880028D01*
X205121237Y-71832409D01*
X205073618Y-71784790D01*
X205025999Y-71689552D01*
X205025999Y-71403838D01*
X205073618Y-71308600D01*
X205121237Y-71260980D01*
G04 #@! TO.C,U1*
X207839427Y-39344790D02*
X207887046Y-39249552D01*
X207934665Y-39201933D01*
X208029903Y-39154314D01*
X208077522Y-39154314D01*
X208172760Y-39201933D01*
X208220380Y-39249552D01*
X208267999Y-39344790D01*
X208267999Y-39535266D01*
X208220380Y-39630504D01*
X208172760Y-39678123D01*
X208077522Y-39725742D01*
X208029903Y-39725742D01*
X207934665Y-39678123D01*
X207887046Y-39630504D01*
X207839427Y-39535266D01*
X207839427Y-39344790D01*
X207791808Y-39249552D01*
X207744189Y-39201933D01*
X207648951Y-39154314D01*
X207458475Y-39154314D01*
X207363237Y-39201933D01*
X207315618Y-39249552D01*
X207267999Y-39344790D01*
X207267999Y-39535266D01*
X207315618Y-39630504D01*
X207363237Y-39678123D01*
X207458475Y-39725742D01*
X207648951Y-39725742D01*
X207744189Y-39678123D01*
X207791808Y-39630504D01*
X207839427Y-39535266D01*
X208172760Y-40106695D02*
X208220380Y-40154314D01*
X208267999Y-40249552D01*
X208267999Y-40487647D01*
X208220380Y-40582885D01*
X208172760Y-40630504D01*
X208077522Y-40678123D01*
X207982284Y-40678123D01*
X207839427Y-40630504D01*
X207267999Y-40059076D01*
X207267999Y-40678123D01*
X207839427Y-41249552D02*
X207887046Y-41154314D01*
X207934665Y-41106695D01*
X208029903Y-41059076D01*
X208077522Y-41059076D01*
X208172760Y-41106695D01*
X208220380Y-41154314D01*
X208267999Y-41249552D01*
X208267999Y-41440028D01*
X208220380Y-41535266D01*
X208172760Y-41582885D01*
X208077522Y-41630504D01*
X208029903Y-41630504D01*
X207934665Y-41582885D01*
X207887046Y-41535266D01*
X207839427Y-41440028D01*
X207839427Y-41249552D01*
X207791808Y-41154314D01*
X207744189Y-41106695D01*
X207648951Y-41059076D01*
X207458475Y-41059076D01*
X207363237Y-41106695D01*
X207315618Y-41154314D01*
X207267999Y-41249552D01*
X207267999Y-41440028D01*
X207315618Y-41535266D01*
X207363237Y-41582885D01*
X207458475Y-41630504D01*
X207648951Y-41630504D01*
X207744189Y-41582885D01*
X207791808Y-41535266D01*
X207839427Y-41440028D01*
X207934665Y-42487647D02*
X207267999Y-42487647D01*
X208315618Y-42249552D02*
X207601332Y-42011457D01*
X207601332Y-42630504D01*
G04 #@! TO.C,C17*
X234219999Y-40495742D02*
X234219999Y-40590980D01*
X234172380Y-40686219D01*
X234124760Y-40733838D01*
X234029522Y-40781457D01*
X233839046Y-40829076D01*
X233600951Y-40829076D01*
X233410475Y-40781457D01*
X233315237Y-40733838D01*
X233267618Y-40686219D01*
X233219999Y-40590980D01*
X233219999Y-40495742D01*
X233267618Y-40400504D01*
X233315237Y-40352885D01*
X233410475Y-40305266D01*
X233600951Y-40257647D01*
X233839046Y-40257647D01*
X234029522Y-40305266D01*
X234124760Y-40352885D01*
X234172380Y-40400504D01*
X234219999Y-40495742D01*
X233315237Y-41257647D02*
X233267618Y-41305266D01*
X233219999Y-41257647D01*
X233267618Y-41210028D01*
X233315237Y-41257647D01*
X233219999Y-41257647D01*
X233219999Y-42257647D02*
X233219999Y-41686219D01*
X233219999Y-41971933D02*
X234219999Y-41971933D01*
X234077141Y-41876695D01*
X233981903Y-41781457D01*
X233934284Y-41686219D01*
X233886665Y-43114790D02*
X233219999Y-43114790D01*
X233886665Y-42686219D02*
X233362856Y-42686219D01*
X233267618Y-42733838D01*
X233219999Y-42829076D01*
X233219999Y-42971933D01*
X233267618Y-43067171D01*
X233315237Y-43114790D01*
X233743808Y-43924314D02*
X233743808Y-43590980D01*
X233219999Y-43590980D02*
X234219999Y-43590980D01*
X234219999Y-44067171D01*
G04 #@! TO.C,C16*
X234219999Y-79865742D02*
X234219999Y-79960980D01*
X234172380Y-80056219D01*
X234124760Y-80103838D01*
X234029522Y-80151457D01*
X233839046Y-80199076D01*
X233600951Y-80199076D01*
X233410475Y-80151457D01*
X233315237Y-80103838D01*
X233267618Y-80056219D01*
X233219999Y-79960980D01*
X233219999Y-79865742D01*
X233267618Y-79770504D01*
X233315237Y-79722885D01*
X233410475Y-79675266D01*
X233600951Y-79627647D01*
X233839046Y-79627647D01*
X234029522Y-79675266D01*
X234124760Y-79722885D01*
X234172380Y-79770504D01*
X234219999Y-79865742D01*
X233315237Y-80627647D02*
X233267618Y-80675266D01*
X233219999Y-80627647D01*
X233267618Y-80580028D01*
X233315237Y-80627647D01*
X233219999Y-80627647D01*
X233219999Y-81627647D02*
X233219999Y-81056219D01*
X233219999Y-81341933D02*
X234219999Y-81341933D01*
X234077141Y-81246695D01*
X233981903Y-81151457D01*
X233934284Y-81056219D01*
X233886665Y-82484790D02*
X233219999Y-82484790D01*
X233886665Y-82056219D02*
X233362856Y-82056219D01*
X233267618Y-82103838D01*
X233219999Y-82199076D01*
X233219999Y-82341933D01*
X233267618Y-82437171D01*
X233315237Y-82484790D01*
X233743808Y-83294314D02*
X233743808Y-82960980D01*
X233219999Y-82960980D02*
X234219999Y-82960980D01*
X234219999Y-83437171D01*
G04 #@! TO.C,C15*
X55149999Y-87485742D02*
X55149999Y-87580980D01*
X55102380Y-87676219D01*
X55054760Y-87723838D01*
X54959522Y-87771457D01*
X54769046Y-87819076D01*
X54530951Y-87819076D01*
X54340475Y-87771457D01*
X54245237Y-87723838D01*
X54197618Y-87676219D01*
X54149999Y-87580980D01*
X54149999Y-87485742D01*
X54197618Y-87390504D01*
X54245237Y-87342885D01*
X54340475Y-87295266D01*
X54530951Y-87247647D01*
X54769046Y-87247647D01*
X54959522Y-87295266D01*
X55054760Y-87342885D01*
X55102380Y-87390504D01*
X55149999Y-87485742D01*
X54245237Y-88247647D02*
X54197618Y-88295266D01*
X54149999Y-88247647D01*
X54197618Y-88200028D01*
X54245237Y-88247647D01*
X54149999Y-88247647D01*
X54149999Y-89247647D02*
X54149999Y-88676219D01*
X54149999Y-88961933D02*
X55149999Y-88961933D01*
X55007141Y-88866695D01*
X54911903Y-88771457D01*
X54864284Y-88676219D01*
X54816665Y-90104790D02*
X54149999Y-90104790D01*
X54816665Y-89676219D02*
X54292856Y-89676219D01*
X54197618Y-89723838D01*
X54149999Y-89819076D01*
X54149999Y-89961933D01*
X54197618Y-90057171D01*
X54245237Y-90104790D01*
X54673808Y-90914314D02*
X54673808Y-90580980D01*
X54149999Y-90580980D02*
X55149999Y-90580980D01*
X55149999Y-91057171D01*
G04 #@! TO.C,C14*
X55149999Y-74785742D02*
X55149999Y-74880980D01*
X55102380Y-74976219D01*
X55054760Y-75023838D01*
X54959522Y-75071457D01*
X54769046Y-75119076D01*
X54530951Y-75119076D01*
X54340475Y-75071457D01*
X54245237Y-75023838D01*
X54197618Y-74976219D01*
X54149999Y-74880980D01*
X54149999Y-74785742D01*
X54197618Y-74690504D01*
X54245237Y-74642885D01*
X54340475Y-74595266D01*
X54530951Y-74547647D01*
X54769046Y-74547647D01*
X54959522Y-74595266D01*
X55054760Y-74642885D01*
X55102380Y-74690504D01*
X55149999Y-74785742D01*
X54245237Y-75547647D02*
X54197618Y-75595266D01*
X54149999Y-75547647D01*
X54197618Y-75500028D01*
X54245237Y-75547647D01*
X54149999Y-75547647D01*
X54149999Y-76547647D02*
X54149999Y-75976219D01*
X54149999Y-76261933D02*
X55149999Y-76261933D01*
X55007141Y-76166695D01*
X54911903Y-76071457D01*
X54864284Y-75976219D01*
X54816665Y-77404790D02*
X54149999Y-77404790D01*
X54816665Y-76976219D02*
X54292856Y-76976219D01*
X54197618Y-77023838D01*
X54149999Y-77119076D01*
X54149999Y-77261933D01*
X54197618Y-77357171D01*
X54245237Y-77404790D01*
X54673808Y-78214314D02*
X54673808Y-77880980D01*
X54149999Y-77880980D02*
X55149999Y-77880980D01*
X55149999Y-78357171D01*
G04 #@! TO.C,C13*
X143795999Y-40495742D02*
X143795999Y-40590980D01*
X143748380Y-40686219D01*
X143700760Y-40733838D01*
X143605522Y-40781457D01*
X143415046Y-40829076D01*
X143176951Y-40829076D01*
X142986475Y-40781457D01*
X142891237Y-40733838D01*
X142843618Y-40686219D01*
X142795999Y-40590980D01*
X142795999Y-40495742D01*
X142843618Y-40400504D01*
X142891237Y-40352885D01*
X142986475Y-40305266D01*
X143176951Y-40257647D01*
X143415046Y-40257647D01*
X143605522Y-40305266D01*
X143700760Y-40352885D01*
X143748380Y-40400504D01*
X143795999Y-40495742D01*
X142891237Y-41257647D02*
X142843618Y-41305266D01*
X142795999Y-41257647D01*
X142843618Y-41210028D01*
X142891237Y-41257647D01*
X142795999Y-41257647D01*
X142795999Y-42257647D02*
X142795999Y-41686219D01*
X142795999Y-41971933D02*
X143795999Y-41971933D01*
X143653141Y-41876695D01*
X143557903Y-41781457D01*
X143510284Y-41686219D01*
X143462665Y-43114790D02*
X142795999Y-43114790D01*
X143462665Y-42686219D02*
X142938856Y-42686219D01*
X142843618Y-42733838D01*
X142795999Y-42829076D01*
X142795999Y-42971933D01*
X142843618Y-43067171D01*
X142891237Y-43114790D01*
X143319808Y-43924314D02*
X143319808Y-43590980D01*
X142795999Y-43590980D02*
X143795999Y-43590980D01*
X143795999Y-44067171D01*
G04 #@! TO.C,C12*
X104425999Y-94597742D02*
X104425999Y-94692980D01*
X104378380Y-94788219D01*
X104330760Y-94835838D01*
X104235522Y-94883457D01*
X104045046Y-94931076D01*
X103806951Y-94931076D01*
X103616475Y-94883457D01*
X103521237Y-94835838D01*
X103473618Y-94788219D01*
X103425999Y-94692980D01*
X103425999Y-94597742D01*
X103473618Y-94502504D01*
X103521237Y-94454885D01*
X103616475Y-94407266D01*
X103806951Y-94359647D01*
X104045046Y-94359647D01*
X104235522Y-94407266D01*
X104330760Y-94454885D01*
X104378380Y-94502504D01*
X104425999Y-94597742D01*
X103521237Y-95359647D02*
X103473618Y-95407266D01*
X103425999Y-95359647D01*
X103473618Y-95312028D01*
X103521237Y-95359647D01*
X103425999Y-95359647D01*
X103425999Y-96359647D02*
X103425999Y-95788219D01*
X103425999Y-96073933D02*
X104425999Y-96073933D01*
X104283141Y-95978695D01*
X104187903Y-95883457D01*
X104140284Y-95788219D01*
X104092665Y-97216790D02*
X103425999Y-97216790D01*
X104092665Y-96788219D02*
X103568856Y-96788219D01*
X103473618Y-96835838D01*
X103425999Y-96931076D01*
X103425999Y-97073933D01*
X103473618Y-97169171D01*
X103521237Y-97216790D01*
X103949808Y-98026314D02*
X103949808Y-97692980D01*
X103425999Y-97692980D02*
X104425999Y-97692980D01*
X104425999Y-98169171D01*
G04 #@! TO.C,C11*
X175291999Y-79865742D02*
X175291999Y-79960980D01*
X175244380Y-80056219D01*
X175196760Y-80103838D01*
X175101522Y-80151457D01*
X174911046Y-80199076D01*
X174672951Y-80199076D01*
X174482475Y-80151457D01*
X174387237Y-80103838D01*
X174339618Y-80056219D01*
X174291999Y-79960980D01*
X174291999Y-79865742D01*
X174339618Y-79770504D01*
X174387237Y-79722885D01*
X174482475Y-79675266D01*
X174672951Y-79627647D01*
X174911046Y-79627647D01*
X175101522Y-79675266D01*
X175196760Y-79722885D01*
X175244380Y-79770504D01*
X175291999Y-79865742D01*
X174387237Y-80627647D02*
X174339618Y-80675266D01*
X174291999Y-80627647D01*
X174339618Y-80580028D01*
X174387237Y-80627647D01*
X174291999Y-80627647D01*
X174291999Y-81627647D02*
X174291999Y-81056219D01*
X174291999Y-81341933D02*
X175291999Y-81341933D01*
X175149141Y-81246695D01*
X175053903Y-81151457D01*
X175006284Y-81056219D01*
X174958665Y-82484790D02*
X174291999Y-82484790D01*
X174958665Y-82056219D02*
X174434856Y-82056219D01*
X174339618Y-82103838D01*
X174291999Y-82199076D01*
X174291999Y-82341933D01*
X174339618Y-82437171D01*
X174387237Y-82484790D01*
X174815808Y-83294314D02*
X174815808Y-82960980D01*
X174291999Y-82960980D02*
X175291999Y-82960980D01*
X175291999Y-83437171D01*
G04 #@! TO.C,C10*
X118141999Y-40241742D02*
X118141999Y-40336980D01*
X118094380Y-40432219D01*
X118046760Y-40479838D01*
X117951522Y-40527457D01*
X117761046Y-40575076D01*
X117522951Y-40575076D01*
X117332475Y-40527457D01*
X117237237Y-40479838D01*
X117189618Y-40432219D01*
X117141999Y-40336980D01*
X117141999Y-40241742D01*
X117189618Y-40146504D01*
X117237237Y-40098885D01*
X117332475Y-40051266D01*
X117522951Y-40003647D01*
X117761046Y-40003647D01*
X117951522Y-40051266D01*
X118046760Y-40098885D01*
X118094380Y-40146504D01*
X118141999Y-40241742D01*
X117237237Y-41003647D02*
X117189618Y-41051266D01*
X117141999Y-41003647D01*
X117189618Y-40956028D01*
X117237237Y-41003647D01*
X117141999Y-41003647D01*
X117141999Y-42003647D02*
X117141999Y-41432219D01*
X117141999Y-41717933D02*
X118141999Y-41717933D01*
X117999141Y-41622695D01*
X117903903Y-41527457D01*
X117856284Y-41432219D01*
X117808665Y-42860790D02*
X117141999Y-42860790D01*
X117808665Y-42432219D02*
X117284856Y-42432219D01*
X117189618Y-42479838D01*
X117141999Y-42575076D01*
X117141999Y-42717933D01*
X117189618Y-42813171D01*
X117237237Y-42860790D01*
X117665808Y-43670314D02*
X117665808Y-43336980D01*
X117141999Y-43336980D02*
X118141999Y-43336980D01*
X118141999Y-43813171D01*
G04 #@! TO.C,C9*
X204755999Y-68435742D02*
X204755999Y-68530980D01*
X204708380Y-68626219D01*
X204660760Y-68673838D01*
X204565522Y-68721457D01*
X204375046Y-68769076D01*
X204136951Y-68769076D01*
X203946475Y-68721457D01*
X203851237Y-68673838D01*
X203803618Y-68626219D01*
X203755999Y-68530980D01*
X203755999Y-68435742D01*
X203803618Y-68340504D01*
X203851237Y-68292885D01*
X203946475Y-68245266D01*
X204136951Y-68197647D01*
X204375046Y-68197647D01*
X204565522Y-68245266D01*
X204660760Y-68292885D01*
X204708380Y-68340504D01*
X204755999Y-68435742D01*
X203851237Y-69197647D02*
X203803618Y-69245266D01*
X203755999Y-69197647D01*
X203803618Y-69150028D01*
X203851237Y-69197647D01*
X203755999Y-69197647D01*
X203755999Y-70197647D02*
X203755999Y-69626219D01*
X203755999Y-69911933D02*
X204755999Y-69911933D01*
X204613141Y-69816695D01*
X204517903Y-69721457D01*
X204470284Y-69626219D01*
X204422665Y-71054790D02*
X203755999Y-71054790D01*
X204422665Y-70626219D02*
X203898856Y-70626219D01*
X203803618Y-70673838D01*
X203755999Y-70769076D01*
X203755999Y-70911933D01*
X203803618Y-71007171D01*
X203851237Y-71054790D01*
X204279808Y-71864314D02*
X204279808Y-71530980D01*
X203755999Y-71530980D02*
X204755999Y-71530980D01*
X204755999Y-72007171D01*
G04 #@! TO.C,C8*
X204755999Y-79865742D02*
X204755999Y-79960980D01*
X204708380Y-80056219D01*
X204660760Y-80103838D01*
X204565522Y-80151457D01*
X204375046Y-80199076D01*
X204136951Y-80199076D01*
X203946475Y-80151457D01*
X203851237Y-80103838D01*
X203803618Y-80056219D01*
X203755999Y-79960980D01*
X203755999Y-79865742D01*
X203803618Y-79770504D01*
X203851237Y-79722885D01*
X203946475Y-79675266D01*
X204136951Y-79627647D01*
X204375046Y-79627647D01*
X204565522Y-79675266D01*
X204660760Y-79722885D01*
X204708380Y-79770504D01*
X204755999Y-79865742D01*
X203851237Y-80627647D02*
X203803618Y-80675266D01*
X203755999Y-80627647D01*
X203803618Y-80580028D01*
X203851237Y-80627647D01*
X203755999Y-80627647D01*
X203755999Y-81627647D02*
X203755999Y-81056219D01*
X203755999Y-81341933D02*
X204755999Y-81341933D01*
X204613141Y-81246695D01*
X204517903Y-81151457D01*
X204470284Y-81056219D01*
X204422665Y-82484790D02*
X203755999Y-82484790D01*
X204422665Y-82056219D02*
X203898856Y-82056219D01*
X203803618Y-82103838D01*
X203755999Y-82199076D01*
X203755999Y-82341933D01*
X203803618Y-82437171D01*
X203851237Y-82484790D01*
X204279808Y-83294314D02*
X204279808Y-82960980D01*
X203755999Y-82960980D02*
X204755999Y-82960980D01*
X204755999Y-83437171D01*
G04 #@! TO.C,C7*
X175291999Y-68435742D02*
X175291999Y-68530980D01*
X175244380Y-68626219D01*
X175196760Y-68673838D01*
X175101522Y-68721457D01*
X174911046Y-68769076D01*
X174672951Y-68769076D01*
X174482475Y-68721457D01*
X174387237Y-68673838D01*
X174339618Y-68626219D01*
X174291999Y-68530980D01*
X174291999Y-68435742D01*
X174339618Y-68340504D01*
X174387237Y-68292885D01*
X174482475Y-68245266D01*
X174672951Y-68197647D01*
X174911046Y-68197647D01*
X175101522Y-68245266D01*
X175196760Y-68292885D01*
X175244380Y-68340504D01*
X175291999Y-68435742D01*
X174387237Y-69197647D02*
X174339618Y-69245266D01*
X174291999Y-69197647D01*
X174339618Y-69150028D01*
X174387237Y-69197647D01*
X174291999Y-69197647D01*
X174291999Y-70197647D02*
X174291999Y-69626219D01*
X174291999Y-69911933D02*
X175291999Y-69911933D01*
X175149141Y-69816695D01*
X175053903Y-69721457D01*
X175006284Y-69626219D01*
X174958665Y-71054790D02*
X174291999Y-71054790D01*
X174958665Y-70626219D02*
X174434856Y-70626219D01*
X174339618Y-70673838D01*
X174291999Y-70769076D01*
X174291999Y-70911933D01*
X174339618Y-71007171D01*
X174387237Y-71054790D01*
X174815808Y-71864314D02*
X174815808Y-71530980D01*
X174291999Y-71530980D02*
X175291999Y-71530980D01*
X175291999Y-72007171D01*
G04 #@! TO.C,C6*
X145827999Y-79865742D02*
X145827999Y-79960980D01*
X145780380Y-80056219D01*
X145732760Y-80103838D01*
X145637522Y-80151457D01*
X145447046Y-80199076D01*
X145208951Y-80199076D01*
X145018475Y-80151457D01*
X144923237Y-80103838D01*
X144875618Y-80056219D01*
X144827999Y-79960980D01*
X144827999Y-79865742D01*
X144875618Y-79770504D01*
X144923237Y-79722885D01*
X145018475Y-79675266D01*
X145208951Y-79627647D01*
X145447046Y-79627647D01*
X145637522Y-79675266D01*
X145732760Y-79722885D01*
X145780380Y-79770504D01*
X145827999Y-79865742D01*
X144923237Y-80627647D02*
X144875618Y-80675266D01*
X144827999Y-80627647D01*
X144875618Y-80580028D01*
X144923237Y-80627647D01*
X144827999Y-80627647D01*
X144827999Y-81627647D02*
X144827999Y-81056219D01*
X144827999Y-81341933D02*
X145827999Y-81341933D01*
X145685141Y-81246695D01*
X145589903Y-81151457D01*
X145542284Y-81056219D01*
X145494665Y-82484790D02*
X144827999Y-82484790D01*
X145494665Y-82056219D02*
X144970856Y-82056219D01*
X144875618Y-82103838D01*
X144827999Y-82199076D01*
X144827999Y-82341933D01*
X144875618Y-82437171D01*
X144923237Y-82484790D01*
X145351808Y-83294314D02*
X145351808Y-82960980D01*
X144827999Y-82960980D02*
X145827999Y-82960980D01*
X145827999Y-83437171D01*
G04 #@! TO.C,C5*
X202215999Y-48115742D02*
X202215999Y-48210980D01*
X202168380Y-48306219D01*
X202120760Y-48353838D01*
X202025522Y-48401457D01*
X201835046Y-48449076D01*
X201596951Y-48449076D01*
X201406475Y-48401457D01*
X201311237Y-48353838D01*
X201263618Y-48306219D01*
X201215999Y-48210980D01*
X201215999Y-48115742D01*
X201263618Y-48020504D01*
X201311237Y-47972885D01*
X201406475Y-47925266D01*
X201596951Y-47877647D01*
X201835046Y-47877647D01*
X202025522Y-47925266D01*
X202120760Y-47972885D01*
X202168380Y-48020504D01*
X202215999Y-48115742D01*
X201311237Y-48877647D02*
X201263618Y-48925266D01*
X201215999Y-48877647D01*
X201263618Y-48830028D01*
X201311237Y-48877647D01*
X201215999Y-48877647D01*
X201215999Y-49877647D02*
X201215999Y-49306219D01*
X201215999Y-49591933D02*
X202215999Y-49591933D01*
X202073141Y-49496695D01*
X201977903Y-49401457D01*
X201930284Y-49306219D01*
X201882665Y-50734790D02*
X201215999Y-50734790D01*
X201882665Y-50306219D02*
X201358856Y-50306219D01*
X201263618Y-50353838D01*
X201215999Y-50449076D01*
X201215999Y-50591933D01*
X201263618Y-50687171D01*
X201311237Y-50734790D01*
X201739808Y-51544314D02*
X201739808Y-51210980D01*
X201215999Y-51210980D02*
X202215999Y-51210980D01*
X202215999Y-51687171D01*
G04 #@! TO.C,C4*
X94265999Y-48115742D02*
X94265999Y-48210980D01*
X94218380Y-48306219D01*
X94170760Y-48353838D01*
X94075522Y-48401457D01*
X93885046Y-48449076D01*
X93646951Y-48449076D01*
X93456475Y-48401457D01*
X93361237Y-48353838D01*
X93313618Y-48306219D01*
X93265999Y-48210980D01*
X93265999Y-48115742D01*
X93313618Y-48020504D01*
X93361237Y-47972885D01*
X93456475Y-47925266D01*
X93646951Y-47877647D01*
X93885046Y-47877647D01*
X94075522Y-47925266D01*
X94170760Y-47972885D01*
X94218380Y-48020504D01*
X94265999Y-48115742D01*
X93361237Y-48877647D02*
X93313618Y-48925266D01*
X93265999Y-48877647D01*
X93313618Y-48830028D01*
X93361237Y-48877647D01*
X93265999Y-48877647D01*
X93265999Y-49877647D02*
X93265999Y-49306219D01*
X93265999Y-49591933D02*
X94265999Y-49591933D01*
X94123141Y-49496695D01*
X94027903Y-49401457D01*
X93980284Y-49306219D01*
X93932665Y-50734790D02*
X93265999Y-50734790D01*
X93932665Y-50306219D02*
X93408856Y-50306219D01*
X93313618Y-50353838D01*
X93265999Y-50449076D01*
X93265999Y-50591933D01*
X93313618Y-50687171D01*
X93361237Y-50734790D01*
X93789808Y-51544314D02*
X93789808Y-51210980D01*
X93265999Y-51210980D02*
X94265999Y-51210980D01*
X94265999Y-51687171D01*
G04 #@! TO.C,C3*
X57689999Y-100185742D02*
X57689999Y-100280980D01*
X57642380Y-100376219D01*
X57594760Y-100423838D01*
X57499522Y-100471457D01*
X57309046Y-100519076D01*
X57070951Y-100519076D01*
X56880475Y-100471457D01*
X56785237Y-100423838D01*
X56737618Y-100376219D01*
X56689999Y-100280980D01*
X56689999Y-100185742D01*
X56737618Y-100090504D01*
X56785237Y-100042885D01*
X56880475Y-99995266D01*
X57070951Y-99947647D01*
X57309046Y-99947647D01*
X57499522Y-99995266D01*
X57594760Y-100042885D01*
X57642380Y-100090504D01*
X57689999Y-100185742D01*
X56785237Y-100947647D02*
X56737618Y-100995266D01*
X56689999Y-100947647D01*
X56737618Y-100900028D01*
X56785237Y-100947647D01*
X56689999Y-100947647D01*
X56689999Y-101947647D02*
X56689999Y-101376219D01*
X56689999Y-101661933D02*
X57689999Y-101661933D01*
X57547141Y-101566695D01*
X57451903Y-101471457D01*
X57404284Y-101376219D01*
X57356665Y-102804790D02*
X56689999Y-102804790D01*
X57356665Y-102376219D02*
X56832856Y-102376219D01*
X56737618Y-102423838D01*
X56689999Y-102519076D01*
X56689999Y-102661933D01*
X56737618Y-102757171D01*
X56785237Y-102804790D01*
X57213808Y-103614314D02*
X57213808Y-103280980D01*
X56689999Y-103280980D02*
X57689999Y-103280980D01*
X57689999Y-103757171D01*
G04 #@! TO.C,C2*
X234219999Y-68435742D02*
X234219999Y-68530980D01*
X234172380Y-68626219D01*
X234124760Y-68673838D01*
X234029522Y-68721457D01*
X233839046Y-68769076D01*
X233600951Y-68769076D01*
X233410475Y-68721457D01*
X233315237Y-68673838D01*
X233267618Y-68626219D01*
X233219999Y-68530980D01*
X233219999Y-68435742D01*
X233267618Y-68340504D01*
X233315237Y-68292885D01*
X233410475Y-68245266D01*
X233600951Y-68197647D01*
X233839046Y-68197647D01*
X234029522Y-68245266D01*
X234124760Y-68292885D01*
X234172380Y-68340504D01*
X234219999Y-68435742D01*
X233315237Y-69197647D02*
X233267618Y-69245266D01*
X233219999Y-69197647D01*
X233267618Y-69150028D01*
X233315237Y-69197647D01*
X233219999Y-69197647D01*
X233219999Y-70197647D02*
X233219999Y-69626219D01*
X233219999Y-69911933D02*
X234219999Y-69911933D01*
X234077141Y-69816695D01*
X233981903Y-69721457D01*
X233934284Y-69626219D01*
X233886665Y-71054790D02*
X233219999Y-71054790D01*
X233886665Y-70626219D02*
X233362856Y-70626219D01*
X233267618Y-70673838D01*
X233219999Y-70769076D01*
X233219999Y-70911933D01*
X233267618Y-71007171D01*
X233315237Y-71054790D01*
X233743808Y-71864314D02*
X233743808Y-71530980D01*
X233219999Y-71530980D02*
X234219999Y-71530980D01*
X234219999Y-72007171D01*
G04 #@! TO.C,C1*
X55149999Y-62085742D02*
X55149999Y-62180980D01*
X55102380Y-62276219D01*
X55054760Y-62323838D01*
X54959522Y-62371457D01*
X54769046Y-62419076D01*
X54530951Y-62419076D01*
X54340475Y-62371457D01*
X54245237Y-62323838D01*
X54197618Y-62276219D01*
X54149999Y-62180980D01*
X54149999Y-62085742D01*
X54197618Y-61990504D01*
X54245237Y-61942885D01*
X54340475Y-61895266D01*
X54530951Y-61847647D01*
X54769046Y-61847647D01*
X54959522Y-61895266D01*
X55054760Y-61942885D01*
X55102380Y-61990504D01*
X55149999Y-62085742D01*
X54245237Y-62847647D02*
X54197618Y-62895266D01*
X54149999Y-62847647D01*
X54197618Y-62800028D01*
X54245237Y-62847647D01*
X54149999Y-62847647D01*
X54149999Y-63847647D02*
X54149999Y-63276219D01*
X54149999Y-63561933D02*
X55149999Y-63561933D01*
X55007141Y-63466695D01*
X54911903Y-63371457D01*
X54864284Y-63276219D01*
X54816665Y-64704790D02*
X54149999Y-64704790D01*
X54816665Y-64276219D02*
X54292856Y-64276219D01*
X54197618Y-64323838D01*
X54149999Y-64419076D01*
X54149999Y-64561933D01*
X54197618Y-64657171D01*
X54245237Y-64704790D01*
X54673808Y-65514314D02*
X54673808Y-65180980D01*
X54149999Y-65180980D02*
X55149999Y-65180980D01*
X55149999Y-65657171D01*
G04 #@! TO.C,*
G04 #@! TD*
M02*
